<?xml version="1.0" encoding="utf-8" standalone="no"?>
<!DOCTYPE svg PUBLIC "-//W3C//DTD SVG 1.1//EN"
  "http://www.w3.org/Graphics/SVG/1.1/DTD/svg11.dtd">
<svg xmlns:xlink="http://www.w3.org/1999/xlink" width="551.6625pt" height="302.326875pt" viewBox="0 0 551.6625 302.326875" xmlns="http://www.w3.org/2000/svg" version="1.1">
 <metadata>
  <rdf:RDF xmlns:dc="http://purl.org/dc/elements/1.1/" xmlns:cc="http://creativecommons.org/ns#" xmlns:rdf="http://www.w3.org/1999/02/22-rdf-syntax-ns#">
   <cc:Work>
    <dc:type rdf:resource="http://purl.org/dc/dcmitype/StillImage"/>
    <dc:date>2024-05-29T17:10:11.548296</dc:date>
    <dc:format>image/svg+xml</dc:format>
    <dc:creator>
     <cc:Agent>
      <dc:title>Matplotlib v3.9.0, https://matplotlib.org/</dc:title>
     </cc:Agent>
    </dc:creator>
   </cc:Work>
  </rdf:RDF>
 </metadata>
 <defs>
  <style type="text/css">*{stroke-linejoin: round; stroke-linecap: butt}</style>
 </defs>
 <g id="figure_1">
  <g id="patch_1">
   <path d="M 0 302.326875 
L 551.6625 302.326875 
L 551.6625 0 
L 0 0 
L 0 302.326875 
z
" style="fill: none"/>
  </g>
  <g id="axes_1">
   <g id="patch_2">
    <path d="M 42.2625 125.913221 
L 544.4625 125.913221 
L 544.4625 29.959375 
L 42.2625 29.959375 
L 42.2625 125.913221 
z
" style="fill: none"/>
   </g>
   <g id="matplotlib.axis_1">
    <g id="xtick_1">
     <g id="text_1">
      <!-- 2003 -->
      <g style="fill: #808080" transform="translate(44.473247 140.120721) scale(0.08 -0.08)">
       <defs>
        <path id="Ubuntu-32" d="M 2989 3302 
Q 2989 3072 2896 2857 
Q 2803 2643 2649 2435 
Q 2496 2227 2304 2025 
Q 2112 1824 1920 1632 
Q 1811 1523 1667 1376 
Q 1523 1229 1395 1069 
Q 1267 909 1180 761 
Q 1094 614 1094 506 
L 3136 506 
L 3136 0 
L 448 0 
Q 442 38 442 76 
Q 442 115 442 147 
Q 442 448 541 707 
Q 640 966 800 1196 
Q 960 1427 1158 1632 
Q 1357 1837 1549 2029 
Q 1709 2182 1853 2332 
Q 1997 2483 2109 2633 
Q 2221 2784 2288 2944 
Q 2355 3104 2355 3283 
Q 2355 3475 2294 3609 
Q 2234 3744 2131 3833 
Q 2029 3923 1891 3964 
Q 1754 4006 1600 4006 
Q 1414 4006 1260 3955 
Q 1107 3904 985 3837 
Q 864 3770 781 3696 
Q 698 3622 653 3584 
L 358 4006 
Q 416 4070 531 4163 
Q 646 4256 806 4339 
Q 966 4422 1164 4480 
Q 1363 4538 1594 4538 
Q 2291 4538 2640 4214 
Q 2989 3891 2989 3302 
z
" transform="scale(0.015625)"/>
        <path id="Ubuntu-30" d="M 320 2221 
Q 320 3334 713 3936 
Q 1107 4538 1805 4538 
Q 2502 4538 2896 3936 
Q 3290 3334 3290 2221 
Q 3290 1107 2896 505 
Q 2502 -96 1805 -96 
Q 1107 -96 713 505 
Q 320 1107 320 2221 
z
M 2662 2221 
Q 2662 2586 2620 2912 
Q 2579 3238 2480 3481 
Q 2381 3725 2214 3869 
Q 2048 4013 1805 4013 
Q 1562 4013 1395 3869 
Q 1229 3725 1129 3481 
Q 1030 3238 988 2912 
Q 947 2586 947 2221 
Q 947 1856 988 1529 
Q 1030 1203 1129 960 
Q 1229 717 1395 573 
Q 1562 429 1805 429 
Q 2048 429 2214 573 
Q 2381 717 2480 960 
Q 2579 1203 2620 1529 
Q 2662 1856 2662 2221 
z
" transform="scale(0.015625)"/>
        <path id="Ubuntu-33" d="M 1446 435 
Q 2016 435 2262 659 
Q 2509 883 2509 1261 
Q 2509 1504 2406 1670 
Q 2304 1837 2137 1936 
Q 1971 2035 1750 2076 
Q 1530 2118 1299 2118 
L 1146 2118 
L 1146 2605 
L 1357 2605 
Q 1517 2605 1686 2637 
Q 1856 2669 1997 2752 
Q 2138 2835 2227 2979 
Q 2317 3123 2317 3341 
Q 2317 3520 2253 3648 
Q 2189 3776 2083 3859 
Q 1978 3942 1840 3977 
Q 1702 4013 1549 4013 
Q 1242 4013 1027 3923 
Q 813 3834 666 3738 
L 435 4192 
Q 512 4243 630 4304 
Q 749 4365 896 4416 
Q 1043 4467 1212 4502 
Q 1382 4538 1568 4538 
Q 1920 4538 2176 4451 
Q 2432 4365 2598 4208 
Q 2765 4051 2848 3836 
Q 2931 3622 2931 3373 
Q 2931 3027 2732 2780 
Q 2534 2534 2253 2406 
Q 2426 2355 2586 2259 
Q 2746 2163 2864 2016 
Q 2982 1869 3056 1677 
Q 3130 1485 3130 1248 
Q 3130 960 3030 713 
Q 2931 467 2723 288 
Q 2515 109 2201 6 
Q 1888 -96 1459 -96 
Q 1293 -96 1117 -70 
Q 941 -45 787 -6 
Q 634 32 518 70 
Q 403 109 352 134 
L 467 653 
Q 576 602 829 518 
Q 1082 435 1446 435 
z
" transform="scale(0.015625)"/>
       </defs>
       <use xlink:href="#Ubuntu-32"/>
       <use xlink:href="#Ubuntu-30" x="56.399994"/>
       <use xlink:href="#Ubuntu-30" x="112.799988"/>
       <use xlink:href="#Ubuntu-33" x="169.199982"/>
      </g>
     </g>
    </g>
    <g id="xtick_2">
     <g id="text_2">
      <!-- 2004 -->
      <g style="fill: #808080" transform="translate(69.722115 140.120721) scale(0.08 -0.08)">
       <defs>
        <path id="Ubuntu-34" d="M 256 1536 
Q 378 1818 589 2192 
Q 800 2566 1065 2963 
Q 1331 3360 1635 3744 
Q 1939 4128 2246 4435 
L 2816 4435 
L 2816 1619 
L 3341 1619 
L 3341 1133 
L 2816 1133 
L 2816 0 
L 2240 0 
L 2240 1133 
L 256 1133 
L 256 1536 
z
M 2240 3731 
Q 2048 3526 1853 3273 
Q 1658 3021 1472 2745 
Q 1286 2470 1123 2182 
Q 960 1894 832 1619 
L 2240 1619 
L 2240 3731 
z
" transform="scale(0.015625)"/>
       </defs>
       <use xlink:href="#Ubuntu-32"/>
       <use xlink:href="#Ubuntu-30" x="56.399994"/>
       <use xlink:href="#Ubuntu-30" x="112.799988"/>
       <use xlink:href="#Ubuntu-34" x="169.199982"/>
      </g>
     </g>
    </g>
    <g id="xtick_3">
     <g id="text_3">
      <!-- 2005 -->
      <g style="fill: #808080" transform="translate(94.970984 140.120721) scale(0.08 -0.08)">
       <defs>
        <path id="Ubuntu-35" d="M 1274 2726 
Q 2240 2688 2691 2304 
Q 3142 1920 3142 1261 
Q 3142 966 3043 716 
Q 2944 467 2742 288 
Q 2541 109 2233 6 
Q 1926 -96 1504 -96 
Q 1338 -96 1165 -70 
Q 992 -45 845 -6 
Q 698 32 582 70 
Q 467 109 416 134 
L 531 653 
Q 640 602 886 518 
Q 1133 435 1491 435 
Q 1779 435 1974 499 
Q 2170 563 2291 672 
Q 2413 781 2467 925 
Q 2522 1069 2522 1229 
Q 2522 1472 2438 1661 
Q 2355 1850 2144 1978 
Q 1933 2106 1581 2173 
Q 1229 2240 691 2240 
Q 730 2554 752 2829 
Q 774 3104 793 3366 
Q 813 3629 825 3888 
Q 838 4147 851 4435 
L 2989 4435 
L 2989 3930 
L 1370 3930 
Q 1363 3834 1350 3670 
Q 1338 3507 1325 3331 
Q 1312 3155 1299 2988 
Q 1286 2822 1274 2726 
z
" transform="scale(0.015625)"/>
       </defs>
       <use xlink:href="#Ubuntu-32"/>
       <use xlink:href="#Ubuntu-30" x="56.399994"/>
       <use xlink:href="#Ubuntu-30" x="112.799988"/>
       <use xlink:href="#Ubuntu-35" x="169.199982"/>
      </g>
     </g>
    </g>
    <g id="xtick_4">
     <g id="text_4">
      <!-- 2006 -->
      <g style="fill: #808080" transform="translate(120.219853 140.120721) scale(0.08 -0.08)">
       <defs>
        <path id="Ubuntu-36" d="M 403 1779 
Q 403 2426 582 2922 
Q 762 3418 1091 3757 
Q 1421 4096 1891 4272 
Q 2362 4448 2950 4454 
L 2995 3955 
Q 2618 3949 2307 3872 
Q 1997 3795 1753 3628 
Q 1510 3462 1344 3196 
Q 1178 2931 1094 2541 
Q 1261 2618 1469 2669 
Q 1677 2720 1901 2720 
Q 2278 2720 2540 2605 
Q 2803 2490 2969 2301 
Q 3136 2112 3209 1865 
Q 3283 1619 3283 1350 
Q 3283 1107 3200 851 
Q 3117 595 2947 384 
Q 2778 173 2515 38 
Q 2253 -96 1894 -96 
Q 1165 -96 784 403 
Q 403 902 403 1779 
z
M 1837 2234 
Q 1613 2234 1421 2192 
Q 1229 2150 1037 2067 
Q 1030 1997 1027 1923 
Q 1024 1850 1024 1779 
Q 1024 1498 1062 1248 
Q 1101 998 1200 809 
Q 1299 621 1465 509 
Q 1632 397 1888 397 
Q 2099 397 2246 486 
Q 2394 576 2490 717 
Q 2586 858 2627 1021 
Q 2669 1184 2669 1338 
Q 2669 1773 2461 2003 
Q 2253 2234 1837 2234 
z
" transform="scale(0.015625)"/>
       </defs>
       <use xlink:href="#Ubuntu-32"/>
       <use xlink:href="#Ubuntu-30" x="56.399994"/>
       <use xlink:href="#Ubuntu-30" x="112.799988"/>
       <use xlink:href="#Ubuntu-36" x="169.199982"/>
      </g>
     </g>
    </g>
    <g id="xtick_5">
     <g id="text_5">
      <!-- 2007 -->
      <g style="fill: #808080" transform="translate(145.468722 140.120721) scale(0.08 -0.08)">
       <defs>
        <path id="Ubuntu-37" d="M 1043 0 
Q 1082 512 1226 1078 
Q 1370 1645 1581 2179 
Q 1792 2714 2045 3171 
Q 2298 3629 2541 3917 
L 384 3917 
L 384 4435 
L 3206 4435 
L 3206 3942 
Q 2995 3699 2739 3273 
Q 2483 2848 2256 2320 
Q 2029 1792 1865 1193 
Q 1702 595 1664 0 
L 1043 0 
z
" transform="scale(0.015625)"/>
       </defs>
       <use xlink:href="#Ubuntu-32"/>
       <use xlink:href="#Ubuntu-30" x="56.399994"/>
       <use xlink:href="#Ubuntu-30" x="112.799988"/>
       <use xlink:href="#Ubuntu-37" x="169.199982"/>
      </g>
     </g>
    </g>
    <g id="xtick_6">
     <g id="text_6">
      <!-- 2008 -->
      <g style="fill: #808080" transform="translate(170.71759 140.120721) scale(0.08 -0.08)">
       <defs>
        <path id="Ubuntu-38" d="M 3258 1152 
Q 3258 883 3165 656 
Q 3072 429 2889 259 
Q 2707 90 2432 -3 
Q 2157 -96 1798 -96 
Q 1382 -96 1104 22 
Q 826 141 659 320 
Q 493 499 422 713 
Q 352 928 352 1120 
Q 352 1306 413 1475 
Q 474 1645 573 1792 
Q 672 1939 803 2057 
Q 934 2176 1082 2266 
Q 454 2624 454 3322 
Q 454 3565 550 3785 
Q 646 4006 822 4172 
Q 998 4339 1248 4438 
Q 1498 4538 1805 4538 
Q 2163 4538 2419 4429 
Q 2675 4320 2838 4150 
Q 3002 3981 3075 3776 
Q 3149 3571 3149 3379 
Q 3149 3194 3094 3030 
Q 3040 2867 2947 2726 
Q 2854 2586 2736 2477 
Q 2618 2368 2490 2285 
Q 3245 1926 3258 1152 
z
M 954 1114 
Q 954 998 995 873 
Q 1037 749 1139 643 
Q 1242 538 1402 467 
Q 1562 397 1805 397 
Q 2022 397 2185 461 
Q 2349 525 2451 624 
Q 2554 723 2605 851 
Q 2656 979 2656 1114 
Q 2656 1318 2579 1472 
Q 2502 1626 2358 1741 
Q 2214 1856 2012 1936 
Q 1811 2016 1555 2074 
Q 1267 1914 1110 1677 
Q 954 1440 954 1114 
z
M 2554 3386 
Q 2554 3482 2512 3597 
Q 2470 3712 2380 3811 
Q 2291 3910 2150 3977 
Q 2010 4045 1805 4045 
Q 1600 4045 1456 3981 
Q 1312 3917 1222 3817 
Q 1133 3718 1091 3600 
Q 1050 3482 1050 3366 
Q 1050 3226 1101 3085 
Q 1152 2944 1261 2822 
Q 1370 2701 1546 2605 
Q 1722 2509 1965 2451 
Q 2234 2611 2394 2825 
Q 2554 3040 2554 3386 
z
" transform="scale(0.015625)"/>
       </defs>
       <use xlink:href="#Ubuntu-32"/>
       <use xlink:href="#Ubuntu-30" x="56.399994"/>
       <use xlink:href="#Ubuntu-30" x="112.799988"/>
       <use xlink:href="#Ubuntu-38" x="169.199982"/>
      </g>
     </g>
    </g>
    <g id="xtick_7">
     <g id="text_7">
      <!-- 2009 -->
      <g style="fill: #808080" transform="translate(195.966459 140.120721) scale(0.08 -0.08)">
       <defs>
        <path id="Ubuntu-39" d="M 3206 2662 
Q 3206 1344 2550 669 
Q 1894 -6 602 -13 
L 582 486 
Q 986 486 1309 563 
Q 1632 640 1875 809 
Q 2118 979 2281 1248 
Q 2445 1517 2522 1907 
Q 2355 1830 2144 1782 
Q 1933 1734 1709 1734 
Q 1331 1734 1068 1846 
Q 806 1958 640 2147 
Q 474 2336 400 2582 
Q 326 2829 326 3098 
Q 326 3334 409 3590 
Q 493 3846 662 4057 
Q 832 4269 1094 4403 
Q 1357 4538 1715 4538 
Q 2080 4538 2358 4410 
Q 2637 4282 2825 4038 
Q 3014 3795 3110 3446 
Q 3206 3098 3206 2662 
z
M 1773 2221 
Q 1997 2221 2195 2262 
Q 2394 2304 2579 2387 
Q 2586 2458 2586 2525 
Q 2586 2592 2586 2662 
Q 2586 2938 2547 3190 
Q 2509 3443 2409 3632 
Q 2310 3821 2144 3933 
Q 1978 4045 1722 4045 
Q 1510 4045 1363 3955 
Q 1216 3866 1120 3728 
Q 1024 3590 982 3427 
Q 941 3264 941 3110 
Q 941 2675 1149 2448 
Q 1357 2221 1773 2221 
z
" transform="scale(0.015625)"/>
       </defs>
       <use xlink:href="#Ubuntu-32"/>
       <use xlink:href="#Ubuntu-30" x="56.399994"/>
       <use xlink:href="#Ubuntu-30" x="112.799988"/>
       <use xlink:href="#Ubuntu-39" x="169.199982"/>
      </g>
     </g>
    </g>
    <g id="xtick_8">
     <g id="text_8">
      <!-- 2010 -->
      <g style="fill: #808080" transform="translate(221.215328 140.120721) scale(0.08 -0.08)">
       <defs>
        <path id="Ubuntu-31" d="M 595 3520 
Q 960 3661 1305 3881 
Q 1651 4102 1939 4435 
L 2362 4435 
L 2362 0 
L 1766 0 
L 1766 3610 
Q 1690 3539 1578 3462 
Q 1466 3386 1334 3315 
Q 1203 3245 1059 3181 
Q 915 3117 781 3072 
L 595 3520 
z
" transform="scale(0.015625)"/>
       </defs>
       <use xlink:href="#Ubuntu-32"/>
       <use xlink:href="#Ubuntu-30" x="56.399994"/>
       <use xlink:href="#Ubuntu-31" x="112.799988"/>
       <use xlink:href="#Ubuntu-30" x="169.199982"/>
      </g>
     </g>
    </g>
    <g id="xtick_9">
     <g id="text_9">
      <!-- 2011 -->
      <g style="fill: #808080" transform="translate(246.464197 140.120721) scale(0.08 -0.08)">
       <use xlink:href="#Ubuntu-32"/>
       <use xlink:href="#Ubuntu-30" x="56.399994"/>
       <use xlink:href="#Ubuntu-31" x="112.799988"/>
       <use xlink:href="#Ubuntu-31" x="169.199982"/>
      </g>
     </g>
    </g>
    <g id="xtick_10">
     <g id="text_10">
      <!-- 2012 -->
      <g style="fill: #808080" transform="translate(271.713066 140.120721) scale(0.08 -0.08)">
       <use xlink:href="#Ubuntu-32"/>
       <use xlink:href="#Ubuntu-30" x="56.399994"/>
       <use xlink:href="#Ubuntu-31" x="112.799988"/>
       <use xlink:href="#Ubuntu-32" x="169.199982"/>
      </g>
     </g>
    </g>
    <g id="xtick_11">
     <g id="text_11">
      <!-- 2013 -->
      <g style="fill: #808080" transform="translate(296.961934 140.120721) scale(0.08 -0.08)">
       <use xlink:href="#Ubuntu-32"/>
       <use xlink:href="#Ubuntu-30" x="56.399994"/>
       <use xlink:href="#Ubuntu-31" x="112.799988"/>
       <use xlink:href="#Ubuntu-33" x="169.199982"/>
      </g>
     </g>
    </g>
    <g id="xtick_12">
     <g id="text_12">
      <!-- 2014 -->
      <g style="fill: #808080" transform="translate(322.210803 140.120721) scale(0.08 -0.08)">
       <use xlink:href="#Ubuntu-32"/>
       <use xlink:href="#Ubuntu-30" x="56.399994"/>
       <use xlink:href="#Ubuntu-31" x="112.799988"/>
       <use xlink:href="#Ubuntu-34" x="169.199982"/>
      </g>
     </g>
    </g>
    <g id="xtick_13">
     <g id="text_13">
      <!-- 2015 -->
      <g style="fill: #808080" transform="translate(347.459672 140.120721) scale(0.08 -0.08)">
       <use xlink:href="#Ubuntu-32"/>
       <use xlink:href="#Ubuntu-30" x="56.399994"/>
       <use xlink:href="#Ubuntu-31" x="112.799988"/>
       <use xlink:href="#Ubuntu-35" x="169.199982"/>
      </g>
     </g>
    </g>
    <g id="xtick_14">
     <g id="text_14">
      <!-- 2016 -->
      <g style="fill: #808080" transform="translate(372.708541 140.120721) scale(0.08 -0.08)">
       <use xlink:href="#Ubuntu-32"/>
       <use xlink:href="#Ubuntu-30" x="56.399994"/>
       <use xlink:href="#Ubuntu-31" x="112.799988"/>
       <use xlink:href="#Ubuntu-36" x="169.199982"/>
      </g>
     </g>
    </g>
    <g id="xtick_15">
     <g id="text_15">
      <!-- 2017 -->
      <g style="fill: #808080" transform="translate(397.95741 140.120721) scale(0.08 -0.08)">
       <use xlink:href="#Ubuntu-32"/>
       <use xlink:href="#Ubuntu-30" x="56.399994"/>
       <use xlink:href="#Ubuntu-31" x="112.799988"/>
       <use xlink:href="#Ubuntu-37" x="169.199982"/>
      </g>
     </g>
    </g>
    <g id="xtick_16">
     <g id="text_16">
      <!-- 2018 -->
      <g style="fill: #808080" transform="translate(423.206278 140.120721) scale(0.08 -0.08)">
       <use xlink:href="#Ubuntu-32"/>
       <use xlink:href="#Ubuntu-30" x="56.399994"/>
       <use xlink:href="#Ubuntu-31" x="112.799988"/>
       <use xlink:href="#Ubuntu-38" x="169.199982"/>
      </g>
     </g>
    </g>
    <g id="xtick_17">
     <g id="text_17">
      <!-- 2019 -->
      <g style="fill: #808080" transform="translate(448.455147 140.120721) scale(0.08 -0.08)">
       <use xlink:href="#Ubuntu-32"/>
       <use xlink:href="#Ubuntu-30" x="56.399994"/>
       <use xlink:href="#Ubuntu-31" x="112.799988"/>
       <use xlink:href="#Ubuntu-39" x="169.199982"/>
      </g>
     </g>
    </g>
    <g id="xtick_18">
     <g id="text_18">
      <!-- 2020 -->
      <g style="fill: #808080" transform="translate(473.704016 140.120721) scale(0.08 -0.08)">
       <use xlink:href="#Ubuntu-32"/>
       <use xlink:href="#Ubuntu-30" x="56.399994"/>
       <use xlink:href="#Ubuntu-32" x="112.799988"/>
       <use xlink:href="#Ubuntu-30" x="169.199982"/>
      </g>
     </g>
    </g>
    <g id="xtick_19">
     <g id="text_19">
      <!-- 2021 -->
      <g style="fill: #808080" transform="translate(498.952885 140.120721) scale(0.08 -0.08)">
       <use xlink:href="#Ubuntu-32"/>
       <use xlink:href="#Ubuntu-30" x="56.399994"/>
       <use xlink:href="#Ubuntu-32" x="112.799988"/>
       <use xlink:href="#Ubuntu-31" x="169.199982"/>
      </g>
     </g>
    </g>
    <g id="xtick_20">
     <g id="text_20">
      <!-- 2022 -->
      <g style="fill: #808080" transform="translate(524.201753 140.120721) scale(0.08 -0.08)">
       <use xlink:href="#Ubuntu-32"/>
       <use xlink:href="#Ubuntu-30" x="56.399994"/>
       <use xlink:href="#Ubuntu-32" x="112.799988"/>
       <use xlink:href="#Ubuntu-32" x="169.199982"/>
      </g>
     </g>
    </g>
   </g>
   <g id="matplotlib.axis_2">
    <g id="ytick_1">
     <g id="line2d_1">
      <defs>
       <path id="m16b417a710" d="M 0 0 
L -3 0 
" style="stroke: #cecece; stroke-width: 0.75"/>
      </defs>
      <g>
       <use xlink:href="#m16b417a710" x="38.7625" y="125.913221" style="fill: #cecece; stroke: #cecece; stroke-width: 0.75"/>
      </g>
     </g>
     <g id="text_21">
      <!-- 0 -->
      <g style="fill: #808080" transform="translate(25.25 129.016971) scale(0.08 -0.08)">
       <use xlink:href="#Ubuntu-30"/>
      </g>
     </g>
    </g>
    <g id="ytick_2">
     <g id="line2d_2">
      <g>
       <use xlink:href="#m16b417a710" x="38.7625" y="109.920913" style="fill: #cecece; stroke: #cecece; stroke-width: 0.75"/>
      </g>
     </g>
     <g id="text_22">
      <!-- 2000 -->
      <g style="fill: #808080" transform="translate(11.7125 113.024663) scale(0.08 -0.08)">
       <use xlink:href="#Ubuntu-32"/>
       <use xlink:href="#Ubuntu-30" x="56.399994"/>
       <use xlink:href="#Ubuntu-30" x="112.799988"/>
       <use xlink:href="#Ubuntu-30" x="169.199982"/>
      </g>
     </g>
    </g>
    <g id="ytick_3">
     <g id="line2d_3">
      <g>
       <use xlink:href="#m16b417a710" x="38.7625" y="93.928606" style="fill: #cecece; stroke: #cecece; stroke-width: 0.75"/>
      </g>
     </g>
     <g id="text_23">
      <!-- 4000 -->
      <g style="fill: #808080" transform="translate(11.7125 97.032356) scale(0.08 -0.08)">
       <use xlink:href="#Ubuntu-34"/>
       <use xlink:href="#Ubuntu-30" x="56.399994"/>
       <use xlink:href="#Ubuntu-30" x="112.799988"/>
       <use xlink:href="#Ubuntu-30" x="169.199982"/>
      </g>
     </g>
    </g>
    <g id="ytick_4">
     <g id="line2d_4">
      <g>
       <use xlink:href="#m16b417a710" x="38.7625" y="77.936298" style="fill: #cecece; stroke: #cecece; stroke-width: 0.75"/>
      </g>
     </g>
     <g id="text_24">
      <!-- 6000 -->
      <g style="fill: #808080" transform="translate(11.7125 81.040048) scale(0.08 -0.08)">
       <use xlink:href="#Ubuntu-36"/>
       <use xlink:href="#Ubuntu-30" x="56.399994"/>
       <use xlink:href="#Ubuntu-30" x="112.799988"/>
       <use xlink:href="#Ubuntu-30" x="169.199982"/>
      </g>
     </g>
    </g>
    <g id="ytick_5">
     <g id="line2d_5">
      <g>
       <use xlink:href="#m16b417a710" x="38.7625" y="61.94399" style="fill: #cecece; stroke: #cecece; stroke-width: 0.75"/>
      </g>
     </g>
     <g id="text_25">
      <!-- 8000 -->
      <g style="fill: #808080" transform="translate(11.7125 65.04774) scale(0.08 -0.08)">
       <use xlink:href="#Ubuntu-38"/>
       <use xlink:href="#Ubuntu-30" x="56.399994"/>
       <use xlink:href="#Ubuntu-30" x="112.799988"/>
       <use xlink:href="#Ubuntu-30" x="169.199982"/>
      </g>
     </g>
    </g>
    <g id="ytick_6">
     <g id="line2d_6">
      <g>
       <use xlink:href="#m16b417a710" x="38.7625" y="45.951683" style="fill: #cecece; stroke: #cecece; stroke-width: 0.75"/>
      </g>
     </g>
     <g id="text_26">
      <!-- 10000 -->
      <g style="fill: #808080" transform="translate(7.2 49.055433) scale(0.08 -0.08)">
       <use xlink:href="#Ubuntu-31"/>
       <use xlink:href="#Ubuntu-30" x="56.399994"/>
       <use xlink:href="#Ubuntu-30" x="112.799988"/>
       <use xlink:href="#Ubuntu-30" x="169.199982"/>
       <use xlink:href="#Ubuntu-30" x="225.599976"/>
      </g>
     </g>
    </g>
    <g id="ytick_7">
     <g id="line2d_7">
      <g>
       <use xlink:href="#m16b417a710" x="38.7625" y="29.959375" style="fill: #cecece; stroke: #cecece; stroke-width: 0.75"/>
      </g>
     </g>
     <g id="text_27">
      <!-- 12000 -->
      <g style="fill: #808080" transform="translate(7.2 33.063125) scale(0.08 -0.08)">
       <use xlink:href="#Ubuntu-31"/>
       <use xlink:href="#Ubuntu-32" x="56.399994"/>
       <use xlink:href="#Ubuntu-30" x="112.799988"/>
       <use xlink:href="#Ubuntu-30" x="169.199982"/>
       <use xlink:href="#Ubuntu-30" x="225.599976"/>
      </g>
     </g>
    </g>
   </g>
   <g id="patch_3">
    <path d="M 47.186029 125.913221 
L 59.810464 125.913221 
L 59.810464 113.23292 
L 47.186029 113.23292 
z
" clip-path="url(#p4f65f2826f)" style="fill: #7f7f7f; stroke: #fefefe; stroke-linejoin: miter"/>
   </g>
   <g id="patch_4">
    <path d="M 72.434898 125.913221 
L 85.059333 125.913221 
L 85.059333 108.603947 
L 72.434898 108.603947 
z
" clip-path="url(#p4f65f2826f)" style="fill: #7f7f7f; stroke: #fefefe; stroke-linejoin: miter"/>
   </g>
   <g id="patch_5">
    <path d="M 97.683767 125.913221 
L 110.308201 125.913221 
L 110.308201 102.52607 
L 97.683767 102.52607 
z
" clip-path="url(#p4f65f2826f)" style="fill: #7f7f7f; stroke: #fefefe; stroke-linejoin: miter"/>
   </g>
   <g id="patch_6">
    <path d="M 122.932636 125.913221 
L 135.55707 125.913221 
L 135.55707 98.010642 
L 122.932636 98.010642 
z
" clip-path="url(#p4f65f2826f)" style="fill: #7f7f7f; stroke: #fefefe; stroke-linejoin: miter"/>
   </g>
   <g id="patch_7">
    <path d="M 148.181505 125.913221 
L 160.805939 125.913221 
L 160.805939 90.062465 
L 148.181505 90.062465 
z
" clip-path="url(#p4f65f2826f)" style="fill: #7f7f7f; stroke: #fefefe; stroke-linejoin: miter"/>
   </g>
   <g id="patch_8">
    <path d="M 173.430373 125.913221 
L 186.054808 125.913221 
L 186.054808 80.499865 
L 173.430373 80.499865 
z
" clip-path="url(#p4f65f2826f)" style="fill: #7f7f7f; stroke: #fefefe; stroke-linejoin: miter"/>
   </g>
   <g id="patch_9">
    <path d="M 198.679242 125.913221 
L 211.303676 125.913221 
L 211.303676 82.314192 
L 198.679242 82.314192 
z
" clip-path="url(#p4f65f2826f)" style="fill: #7f7f7f; stroke: #fefefe; stroke-linejoin: miter"/>
   </g>
   <g id="patch_10">
    <path d="M 223.928111 125.913221 
L 236.552545 125.913221 
L 236.552545 76.846422 
L 223.928111 76.846422 
z
" clip-path="url(#p4f65f2826f)" style="fill: #7f7f7f; stroke: #fefefe; stroke-linejoin: miter"/>
   </g>
   <g id="patch_11">
    <path d="M 249.17698 125.913221 
L 261.801414 125.913221 
L 261.801414 73.575995 
L 249.17698 73.575995 
z
" clip-path="url(#p4f65f2826f)" style="fill: #7f7f7f; stroke: #fefefe; stroke-linejoin: miter"/>
   </g>
   <g id="patch_12">
    <path d="M 274.425848 125.913221 
L 287.050283 125.913221 
L 287.050283 69.26287 
L 274.425848 69.26287 
z
" clip-path="url(#p4f65f2826f)" style="fill: #7f7f7f; stroke: #fefefe; stroke-linejoin: miter"/>
   </g>
   <g id="patch_13">
    <path d="M 299.674717 125.913221 
L 312.299152 125.913221 
L 312.299152 50.32318 
L 299.674717 50.32318 
z
" clip-path="url(#p4f65f2826f)" style="fill: #4f4f4f; stroke: #fefefe; stroke-linejoin: miter"/>
   </g>
   <g id="patch_14">
    <path d="M 324.923586 125.913221 
L 337.54802 125.913221 
L 337.54802 49.588333 
L 324.923586 49.588333 
z
" clip-path="url(#p4f65f2826f)" style="fill: #4f4f4f; stroke: #fefefe; stroke-linejoin: miter"/>
   </g>
   <g id="patch_15">
    <path d="M 350.172455 125.913221 
L 362.796889 125.913221 
L 362.796889 55.33357 
L 350.172455 55.33357 
z
" clip-path="url(#p4f65f2826f)" style="fill: #4f4f4f; stroke: #fefefe; stroke-linejoin: miter"/>
   </g>
   <g id="patch_16">
    <path d="M 375.421324 125.913221 
L 388.045758 125.913221 
L 388.045758 47.961116 
L 375.421324 47.961116 
z
" clip-path="url(#p4f65f2826f)" style="fill: #4f4f4f; stroke: #fefefe; stroke-linejoin: miter"/>
   </g>
   <g id="patch_17">
    <path d="M 400.670192 125.913221 
L 413.294627 125.913221 
L 413.294627 54.765843 
L 400.670192 54.765843 
z
" clip-path="url(#p4f65f2826f)" style="fill: #4f4f4f; stroke: #fefefe; stroke-linejoin: miter"/>
   </g>
   <g id="patch_18">
    <path d="M 425.919061 125.913221 
L 438.543495 125.913221 
L 438.543495 43.0059 
L 425.919061 43.0059 
z
" clip-path="url(#p4f65f2826f)" style="fill: #4f4f4f; stroke: #fefefe; stroke-linejoin: miter"/>
   </g>
   <g id="patch_19">
    <path d="M 451.16793 125.913221 
L 463.792364 125.913221 
L 463.792364 33.388925 
L 451.16793 33.388925 
z
" clip-path="url(#p4f65f2826f)" style="fill: #4f4f4f; stroke: #fefefe; stroke-linejoin: miter"/>
   </g>
   <g id="patch_20">
    <path d="M 476.416799 125.913221 
L 489.041233 125.913221 
L 489.041233 42.865167 
L 476.416799 42.865167 
z
" clip-path="url(#p4f65f2826f)" style="fill: #4f4f4f; stroke: #fefefe; stroke-linejoin: miter"/>
   </g>
   <g id="patch_21">
    <path d="M 501.665667 125.913221 
L 514.290102 125.913221 
L 514.290102 34.509986 
L 501.665667 34.509986 
z
" clip-path="url(#p4f65f2826f)" style="fill: #4f4f4f; stroke: #fefefe; stroke-linejoin: miter"/>
   </g>
   <g id="patch_22">
    <path d="M 526.914536 125.913221 
L 539.538971 125.913221 
L 539.538971 25.472733 
L 526.914536 25.472733 
z
" clip-path="url(#p4f65f2826f)" style="fill: #4f4f4f; stroke: #fefefe; stroke-linejoin: miter"/>
   </g>
   <g id="patch_23">
    <path d="M 38.7625 125.913221 
L 38.7625 29.959375 
" style="fill: none; stroke: #cccccc; stroke-width: 0.75; stroke-linejoin: miter; stroke-linecap: square"/>
   </g>
   <g id="text_28">
    <!-- Абсолютная разница в доходах городской и сельской местностей -->
    <g style="fill: #505050" transform="translate(42.2625 14.959375) scale(0.1 -0.1)">
     <defs>
      <path id="Ubuntu-Medium-410" d="M 3475 0 
Q 3386 262 3290 518 
Q 3194 774 3104 1043 
L 1235 1043 
Q 1146 774 1053 515 
Q 960 256 870 0 
L 32 0 
Q 282 710 506 1312 
Q 730 1914 944 2451 
Q 1158 2989 1369 3475 
Q 1581 3962 1805 4435 
L 2566 4435 
Q 2790 3962 3001 3475 
Q 3213 2989 3427 2451 
Q 3642 1914 3869 1312 
Q 4096 710 4346 0 
L 3475 0 
z
M 2170 3578 
Q 2022 3238 1833 2752 
Q 1645 2266 1440 1696 
L 2899 1696 
Q 2694 2266 2502 2758 
Q 2310 3251 2170 3578 
z
" transform="scale(0.015625)"/>
      <path id="Ubuntu-Medium-431" d="M 3366 4288 
Q 3302 4275 3228 4262 
Q 3155 4250 3052 4237 
Q 2950 4224 2812 4208 
Q 2675 4192 2496 4173 
Q 2221 4141 2003 4067 
Q 1786 3994 1626 3856 
Q 1466 3718 1363 3507 
Q 1261 3296 1216 2995 
Q 1414 3123 1648 3193 
Q 1882 3264 2106 3264 
Q 2771 3264 3161 2841 
Q 3552 2419 3552 1619 
Q 3552 1235 3443 921 
Q 3334 608 3129 384 
Q 2925 160 2637 35 
Q 2349 -90 1984 -90 
Q 1530 -90 1222 60 
Q 915 211 729 489 
Q 544 768 461 1158 
Q 378 1549 378 2029 
Q 378 2656 483 3139 
Q 589 3622 829 3968 
Q 1069 4314 1456 4528 
Q 1843 4742 2400 4826 
Q 2688 4870 2883 4896 
Q 3078 4922 3277 4966 
L 3366 4288 
z
M 1190 2317 
Q 1178 2234 1178 2115 
Q 1178 1997 1178 1894 
Q 1178 1606 1216 1363 
Q 1254 1120 1350 947 
Q 1446 774 1600 678 
Q 1754 582 1984 582 
Q 2182 582 2329 659 
Q 2477 736 2573 877 
Q 2669 1018 2717 1206 
Q 2765 1395 2765 1619 
Q 2765 1811 2723 1987 
Q 2682 2163 2589 2300 
Q 2496 2438 2342 2521 
Q 2189 2605 1965 2605 
Q 1747 2605 1532 2528 
Q 1318 2451 1190 2317 
z
" transform="scale(0.015625)"/>
      <path id="Ubuntu-Medium-441" d="M 307 1670 
Q 307 2042 422 2365 
Q 538 2688 752 2925 
Q 966 3162 1273 3296 
Q 1581 3430 1965 3430 
Q 2438 3430 2861 3258 
L 2694 2624 
Q 2560 2682 2390 2720 
Q 2221 2758 2029 2758 
Q 1574 2758 1337 2473 
Q 1101 2189 1101 1670 
Q 1101 1171 1325 880 
Q 1549 589 2080 589 
Q 2278 589 2470 627 
Q 2662 666 2803 723 
L 2912 83 
Q 2784 19 2525 -32 
Q 2266 -83 1990 -83 
Q 1562 -83 1245 48 
Q 928 179 720 412 
Q 512 646 409 969 
Q 307 1293 307 1670 
z
" transform="scale(0.015625)"/>
      <path id="Ubuntu-Medium-43e" d="M 3520 1677 
Q 3520 1280 3405 953 
Q 3290 627 3078 396 
Q 2867 166 2569 38 
Q 2272 -90 1914 -90 
Q 1555 -90 1260 38 
Q 966 166 755 396 
Q 544 627 425 953 
Q 307 1280 307 1677 
Q 307 2074 425 2397 
Q 544 2720 758 2950 
Q 973 3181 1267 3305 
Q 1562 3430 1914 3430 
Q 2266 3430 2563 3305 
Q 2861 3181 3072 2950 
Q 3283 2720 3401 2397 
Q 3520 2074 3520 1677 
z
M 2726 1677 
Q 2726 2176 2512 2467 
Q 2298 2758 1914 2758 
Q 1530 2758 1315 2467 
Q 1101 2176 1101 1677 
Q 1101 1171 1315 876 
Q 1530 582 1914 582 
Q 2298 582 2512 876 
Q 2726 1171 2726 1677 
z
" transform="scale(0.015625)"/>
      <path id="Ubuntu-Medium-43b" d="M 1805 2707 
Q 1798 2426 1785 2122 
Q 1773 1818 1725 1523 
Q 1677 1229 1574 960 
Q 1472 691 1289 476 
Q 1107 262 835 118 
Q 563 -26 173 -64 
L 64 582 
Q 390 646 569 790 
Q 749 934 845 1158 
Q 922 1325 963 1536 
Q 1005 1747 1027 1980 
Q 1050 2214 1056 2457 
Q 1062 2701 1062 2931 
L 1062 3347 
L 3430 3347 
L 3430 0 
L 2656 0 
L 2656 2707 
L 1805 2707 
z
" transform="scale(0.015625)"/>
      <path id="Ubuntu-Medium-44e" d="M 3520 -90 
Q 3213 -90 2947 16 
Q 2682 122 2477 317 
Q 2272 512 2141 787 
Q 2010 1062 1971 1402 
L 1267 1402 
L 1267 0 
L 493 0 
L 493 3347 
L 1267 3347 
L 1267 2029 
L 1984 2029 
Q 2029 2349 2166 2608 
Q 2304 2867 2505 3049 
Q 2707 3232 2966 3331 
Q 3226 3430 3520 3430 
Q 3853 3430 4141 3305 
Q 4429 3181 4640 2950 
Q 4851 2720 4969 2397 
Q 5088 2074 5088 1677 
Q 5088 1274 4969 947 
Q 4851 621 4640 390 
Q 4429 160 4141 35 
Q 3853 -90 3520 -90 
z
M 3520 2758 
Q 3162 2758 2954 2467 
Q 2746 2176 2746 1677 
Q 2746 1178 2954 880 
Q 3162 582 3520 582 
Q 3878 582 4086 880 
Q 4294 1178 4294 1677 
Q 4294 2176 4086 2467 
Q 3878 2758 3520 2758 
z
" transform="scale(0.015625)"/>
      <path id="Ubuntu-Medium-442" d="M 3014 2701 
L 1933 2701 
L 1933 0 
L 1158 0 
L 1158 2701 
L 83 2701 
L 83 3347 
L 3014 3347 
L 3014 2701 
z
" transform="scale(0.015625)"/>
      <path id="Ubuntu-Medium-43d" d="M 3302 0 
L 2528 0 
L 2528 1402 
L 1267 1402 
L 1267 0 
L 493 0 
L 493 3347 
L 1267 3347 
L 1267 2042 
L 2528 2042 
L 2528 3347 
L 3302 3347 
L 3302 0 
z
" transform="scale(0.015625)"/>
      <path id="Ubuntu-Medium-430" d="M 1670 544 
Q 2029 544 2214 582 
L 2214 1440 
Q 2150 1459 2028 1478 
Q 1907 1498 1760 1498 
Q 1632 1498 1501 1478 
Q 1370 1459 1264 1408 
Q 1158 1357 1094 1264 
Q 1030 1171 1030 1030 
Q 1030 755 1203 649 
Q 1376 544 1670 544 
z
M 1606 3430 
Q 1990 3430 2252 3334 
Q 2515 3238 2672 3065 
Q 2829 2893 2896 2646 
Q 2963 2400 2963 2106 
L 2963 77 
Q 2784 38 2422 -16 
Q 2061 -70 1606 -70 
Q 1306 -70 1056 -12 
Q 806 45 630 173 
Q 454 301 355 505 
Q 256 710 256 1011 
Q 256 1299 368 1497 
Q 480 1696 672 1821 
Q 864 1946 1117 2000 
Q 1370 2054 1645 2054 
Q 1773 2054 1913 2038 
Q 2054 2022 2214 1984 
L 2214 2112 
Q 2214 2246 2182 2368 
Q 2150 2490 2070 2582 
Q 1990 2675 1859 2726 
Q 1728 2778 1530 2778 
Q 1261 2778 1037 2739 
Q 813 2701 672 2650 
L 576 3277 
Q 723 3328 1004 3379 
Q 1286 3430 1606 3430 
z
" transform="scale(0.015625)"/>
      <path id="Ubuntu-Medium-44f" d="M 1971 1242 
Q 1894 1242 1817 1242 
Q 1741 1242 1670 1248 
Q 1466 941 1293 617 
Q 1120 294 973 0 
L 179 0 
Q 352 397 563 761 
Q 774 1126 960 1382 
Q 646 1517 502 1744 
Q 358 1971 358 2278 
Q 358 2560 464 2774 
Q 570 2989 762 3133 
Q 954 3277 1222 3350 
Q 1491 3424 1818 3424 
Q 2195 3424 2550 3379 
Q 2906 3334 3130 3277 
L 3130 0 
L 2355 0 
L 2355 1242 
L 1971 1242 
z
M 2355 2784 
Q 2285 2797 2137 2806 
Q 1990 2816 1837 2816 
Q 1126 2816 1126 2291 
Q 1126 2150 1180 2057 
Q 1235 1965 1331 1907 
Q 1427 1850 1555 1827 
Q 1683 1805 1830 1805 
L 2355 1805 
L 2355 2784 
z
" transform="scale(0.015625)"/>
      <path id="Ubuntu-Medium-20" transform="scale(0.015625)"/>
      <path id="Ubuntu-Medium-440" d="M 2714 1658 
Q 2714 2176 2480 2464 
Q 2246 2752 1728 2752 
Q 1619 2752 1500 2742 
Q 1382 2733 1267 2701 
L 1267 787 
Q 1370 717 1539 656 
Q 1709 595 1901 595 
Q 2323 595 2518 883 
Q 2714 1171 2714 1658 
z
M 3507 1670 
Q 3507 1286 3408 966 
Q 3309 646 3123 416 
Q 2938 186 2659 58 
Q 2381 -70 2029 -70 
Q 1792 -70 1593 -12 
Q 1395 45 1267 115 
L 1267 -1184 
L 493 -1184 
L 493 3238 
Q 730 3302 1075 3360 
Q 1421 3418 1805 3418 
Q 2202 3418 2515 3296 
Q 2829 3174 3049 2947 
Q 3270 2720 3388 2397 
Q 3507 2074 3507 1670 
z
" transform="scale(0.015625)"/>
      <path id="Ubuntu-Medium-437" d="M 346 3245 
Q 429 3277 550 3309 
Q 672 3341 813 3366 
Q 954 3392 1110 3408 
Q 1267 3424 1427 3424 
Q 1702 3424 1952 3373 
Q 2202 3322 2387 3206 
Q 2573 3091 2685 2912 
Q 2797 2733 2797 2483 
Q 2797 2214 2649 2028 
Q 2502 1843 2310 1754 
Q 2598 1645 2752 1433 
Q 2906 1222 2906 896 
Q 2906 634 2794 448 
Q 2682 262 2486 144 
Q 2291 26 2028 -28 
Q 1766 -83 1459 -83 
Q 1088 -83 768 -22 
Q 448 38 262 122 
L 397 749 
Q 518 698 787 630 
Q 1056 563 1421 563 
Q 2125 563 2125 973 
Q 2125 1120 2061 1209 
Q 1997 1299 1901 1347 
Q 1805 1395 1683 1411 
Q 1562 1427 1446 1427 
L 806 1427 
L 806 2003 
L 1440 2003 
Q 1677 2003 1846 2089 
Q 2016 2176 2016 2394 
Q 2016 2573 1853 2678 
Q 1690 2784 1395 2784 
Q 1267 2784 1132 2768 
Q 998 2752 873 2726 
Q 749 2701 646 2672 
Q 544 2643 486 2618 
L 346 3245 
z
" transform="scale(0.015625)"/>
      <path id="Ubuntu-Medium-438" d="M 3424 3347 
L 3424 0 
L 2656 0 
Q 2656 365 2659 723 
Q 2662 1082 2665 1389 
Q 2669 1696 2672 1923 
Q 2675 2150 2675 2259 
Q 2483 2010 2278 1709 
Q 2074 1408 1872 1107 
Q 1670 806 1491 518 
Q 1312 230 1178 0 
L 493 0 
L 493 3347 
L 1254 3347 
Q 1254 2976 1251 2640 
Q 1248 2304 1248 2029 
Q 1248 1754 1245 1549 
Q 1242 1344 1242 1235 
Q 1421 1510 1613 1801 
Q 1805 2093 2000 2371 
Q 2195 2650 2387 2899 
Q 2579 3149 2758 3347 
L 3424 3347 
z
" transform="scale(0.015625)"/>
      <path id="Ubuntu-Medium-446" d="M 3776 634 
L 3776 -947 
L 3091 -947 
L 3091 0 
L 493 0 
L 493 3347 
L 1267 3347 
L 1267 634 
L 2496 634 
L 2496 3347 
L 3270 3347 
L 3270 634 
L 3776 634 
z
" transform="scale(0.015625)"/>
      <path id="Ubuntu-Medium-432" d="M 1824 -64 
Q 1638 -64 1446 -51 
Q 1254 -38 1078 -19 
Q 902 0 748 22 
Q 595 45 493 70 
L 493 3302 
Q 595 3328 748 3350 
Q 902 3373 1078 3389 
Q 1254 3405 1446 3414 
Q 1638 3424 1824 3424 
Q 2502 3424 2880 3177 
Q 3258 2931 3258 2490 
Q 3258 2259 3142 2080 
Q 3027 1901 2842 1811 
Q 3072 1722 3238 1530 
Q 3405 1338 3405 986 
Q 3405 480 3008 208 
Q 2611 -64 1824 -64 
z
M 1843 2003 
Q 2131 2003 2320 2086 
Q 2509 2170 2509 2419 
Q 2509 2541 2448 2617 
Q 2387 2694 2284 2739 
Q 2182 2784 2048 2800 
Q 1914 2816 1766 2816 
Q 1651 2816 1500 2809 
Q 1350 2803 1261 2790 
L 1261 2003 
L 1843 2003 
z
M 1261 576 
Q 1338 563 1514 553 
Q 1690 544 1843 544 
Q 2189 544 2416 640 
Q 2643 736 2643 1005 
Q 2643 1267 2435 1366 
Q 2227 1466 1894 1466 
L 1261 1466 
L 1261 576 
z
" transform="scale(0.015625)"/>
      <path id="Ubuntu-Medium-434" d="M 83 634 
L 467 634 
Q 666 896 778 1219 
Q 890 1542 941 1897 
Q 992 2253 1005 2624 
Q 1018 2995 1024 3347 
L 3424 3347 
L 3424 634 
L 3936 634 
L 3936 -947 
L 3245 -947 
L 3245 0 
L 768 0 
L 768 -947 
L 83 -947 
L 83 634 
z
M 2650 634 
L 2650 2707 
L 1741 2707 
Q 1728 2445 1709 2173 
Q 1690 1901 1638 1635 
Q 1587 1370 1500 1117 
Q 1414 864 1274 634 
L 2650 634 
z
" transform="scale(0.015625)"/>
      <path id="Ubuntu-Medium-445" d="M 1696 2253 
L 2406 3347 
L 3219 3347 
L 2118 1766 
Q 2464 1318 2781 860 
Q 3098 403 3302 0 
L 2464 0 
Q 2406 122 2313 278 
Q 2221 435 2115 604 
Q 2010 774 1894 940 
Q 1779 1107 1670 1254 
Q 1446 966 1232 617 
Q 1018 269 877 0 
L 83 0 
Q 179 192 313 409 
Q 448 627 601 854 
Q 755 1082 918 1309 
Q 1082 1536 1242 1741 
L 134 3347 
L 986 3347 
L 1696 2253 
z
" transform="scale(0.015625)"/>
      <path id="Ubuntu-Medium-433" d="M 2714 2707 
L 1267 2707 
L 1267 0 
L 493 0 
L 493 3347 
L 2714 3347 
L 2714 2707 
z
" transform="scale(0.015625)"/>
      <path id="Ubuntu-Medium-43a" d="M 1267 2003 
Q 1414 2150 1587 2332 
Q 1760 2515 1929 2700 
Q 2099 2886 2252 3056 
Q 2406 3226 2509 3347 
L 3418 3347 
Q 3277 3181 3094 2982 
Q 2912 2784 2717 2576 
Q 2522 2368 2333 2173 
Q 2144 1978 1990 1824 
Q 2189 1658 2403 1437 
Q 2618 1216 2826 969 
Q 3034 723 3213 470 
Q 3392 218 3514 0 
L 2618 0 
Q 2496 192 2333 403 
Q 2170 614 1990 816 
Q 1811 1018 1625 1197 
Q 1440 1376 1267 1504 
L 1267 0 
L 493 0 
L 493 3347 
L 1267 3347 
L 1267 2003 
z
" transform="scale(0.015625)"/>
      <path id="Ubuntu-Medium-439" d="M 3424 3347 
L 3424 0 
L 2656 0 
Q 2656 365 2659 723 
Q 2662 1082 2665 1389 
Q 2669 1696 2672 1923 
Q 2675 2150 2675 2259 
Q 2483 2010 2278 1709 
Q 2074 1408 1872 1107 
Q 1670 806 1491 518 
Q 1312 230 1178 0 
L 493 0 
L 493 3347 
L 1254 3347 
Q 1254 2976 1251 2640 
Q 1248 2304 1248 2029 
Q 1248 1754 1245 1549 
Q 1242 1344 1242 1235 
Q 1421 1510 1613 1801 
Q 1805 2093 2000 2371 
Q 2195 2650 2387 2899 
Q 2579 3149 2758 3347 
L 3424 3347 
z
M 1966 3846 
Q 1762 3846 1586 3904 
Q 1410 3962 1269 4070 
Q 1128 4179 1038 4336 
Q 949 4493 930 4691 
L 1486 4838 
Q 1595 4384 1966 4384 
Q 2344 4384 2446 4832 
L 2997 4685 
Q 2971 4486 2884 4329 
Q 2798 4173 2660 4067 
Q 2523 3962 2344 3904 
Q 2165 3846 1966 3846 
z
" transform="scale(0.015625)"/>
      <path id="Ubuntu-Medium-435" d="M 307 1658 
Q 307 2099 438 2432 
Q 570 2765 787 2985 
Q 1005 3206 1286 3318 
Q 1568 3430 1862 3430 
Q 2554 3430 2941 3001 
Q 3328 2573 3328 1722 
Q 3328 1658 3325 1578 
Q 3322 1498 3315 1434 
L 1107 1434 
Q 1139 1030 1392 809 
Q 1645 589 2125 589 
Q 2406 589 2640 640 
Q 2874 691 3008 749 
L 3110 115 
Q 3046 83 2934 48 
Q 2822 13 2678 -16 
Q 2534 -45 2368 -64 
Q 2202 -83 2029 -83 
Q 1587 -83 1260 48 
Q 934 179 723 412 
Q 512 646 409 963 
Q 307 1280 307 1658 
z
M 2554 2003 
Q 2554 2163 2509 2307 
Q 2464 2451 2377 2556 
Q 2291 2662 2166 2723 
Q 2042 2784 1869 2784 
Q 1690 2784 1555 2717 
Q 1421 2650 1328 2541 
Q 1235 2432 1184 2291 
Q 1133 2150 1114 2003 
L 2554 2003 
z
" transform="scale(0.015625)"/>
      <path id="Ubuntu-Medium-44c" d="M 1267 2112 
Q 1363 2138 1548 2157 
Q 1734 2176 1920 2176 
Q 2208 2176 2461 2112 
Q 2714 2048 2899 1910 
Q 3085 1773 3193 1558 
Q 3302 1344 3302 1050 
Q 3302 749 3200 537 
Q 3098 326 2906 192 
Q 2714 58 2448 -6 
Q 2182 -70 1856 -70 
Q 1478 -70 1152 -32 
Q 826 6 493 83 
L 493 3347 
L 1267 3347 
L 1267 2112 
z
M 1837 538 
Q 2163 538 2345 662 
Q 2528 787 2528 1062 
Q 2528 1203 2467 1299 
Q 2406 1395 2307 1456 
Q 2208 1517 2073 1542 
Q 1939 1568 1792 1568 
Q 1658 1568 1510 1558 
Q 1363 1549 1267 1523 
L 1267 570 
Q 1350 557 1513 547 
Q 1677 538 1837 538 
z
" transform="scale(0.015625)"/>
      <path id="Ubuntu-Medium-43c" d="M 1274 2195 
Q 1254 1926 1235 1635 
Q 1216 1344 1203 1056 
Q 1190 768 1177 499 
Q 1165 230 1158 0 
L 410 0 
Q 422 371 448 803 
Q 474 1235 509 1680 
Q 544 2125 582 2553 
Q 621 2982 666 3347 
L 1338 3347 
Q 1581 2957 1830 2429 
Q 2080 1901 2387 1229 
Q 2707 1914 2969 2467 
Q 3232 3021 3437 3347 
L 4115 3347 
Q 4160 2982 4201 2553 
Q 4243 2125 4275 1680 
Q 4307 1235 4332 803 
Q 4358 371 4371 0 
L 3603 0 
Q 3590 525 3561 1085 
Q 3533 1645 3494 2195 
Q 3398 2003 3286 1766 
Q 3174 1530 3065 1286 
Q 2957 1043 2854 816 
Q 2752 589 2675 416 
L 2099 416 
Q 2022 589 1916 819 
Q 1811 1050 1702 1293 
Q 1594 1536 1482 1769 
Q 1370 2003 1274 2195 
z
" transform="scale(0.015625)"/>
     </defs>
     <use xlink:href="#Ubuntu-Medium-410"/>
     <use xlink:href="#Ubuntu-Medium-431" x="67.149994"/>
     <use xlink:href="#Ubuntu-Medium-441" x="127.549988"/>
     <use xlink:href="#Ubuntu-Medium-43e" x="173.624985"/>
     <use xlink:href="#Ubuntu-Medium-43b" x="233.424973"/>
     <use xlink:href="#Ubuntu-Medium-44e" x="294.72496"/>
     <use xlink:href="#Ubuntu-Medium-442" x="379.024948"/>
     <use xlink:href="#Ubuntu-Medium-43d" x="427.424942"/>
     <use xlink:href="#Ubuntu-Medium-430" x="486.72493"/>
     <use xlink:href="#Ubuntu-Medium-44f" x="540.124924"/>
     <use xlink:href="#Ubuntu-Medium-20" x="596.724915"/>
     <use xlink:href="#Ubuntu-Medium-440" x="620.024902"/>
     <use xlink:href="#Ubuntu-Medium-430" x="679.624893"/>
     <use xlink:href="#Ubuntu-Medium-437" x="733.024887"/>
     <use xlink:href="#Ubuntu-Medium-43d" x="783.024872"/>
     <use xlink:href="#Ubuntu-Medium-438" x="842.32486"/>
     <use xlink:href="#Ubuntu-Medium-446" x="903.524857"/>
     <use xlink:href="#Ubuntu-Medium-430" x="964.324844"/>
     <use xlink:href="#Ubuntu-Medium-20" x="1017.724838"/>
     <use xlink:href="#Ubuntu-Medium-432" x="1041.024826"/>
     <use xlink:href="#Ubuntu-Medium-20" x="1097.92482"/>
     <use xlink:href="#Ubuntu-Medium-434" x="1121.224808"/>
     <use xlink:href="#Ubuntu-Medium-43e" x="1184.524796"/>
     <use xlink:href="#Ubuntu-Medium-445" x="1242.824783"/>
     <use xlink:href="#Ubuntu-Medium-43e" x="1293.974777"/>
     <use xlink:href="#Ubuntu-Medium-434" x="1353.774765"/>
     <use xlink:href="#Ubuntu-Medium-430" x="1417.074753"/>
     <use xlink:href="#Ubuntu-Medium-445" x="1470.474747"/>
     <use xlink:href="#Ubuntu-Medium-20" x="1523.374741"/>
     <use xlink:href="#Ubuntu-Medium-433" x="1546.674728"/>
     <use xlink:href="#Ubuntu-Medium-43e" x="1590.374725"/>
     <use xlink:href="#Ubuntu-Medium-440" x="1650.174713"/>
     <use xlink:href="#Ubuntu-Medium-43e" x="1709.774704"/>
     <use xlink:href="#Ubuntu-Medium-434" x="1769.574692"/>
     <use xlink:href="#Ubuntu-Medium-441" x="1832.87468"/>
     <use xlink:href="#Ubuntu-Medium-43a" x="1880.074677"/>
     <use xlink:href="#Ubuntu-Medium-43e" x="1933.449661"/>
     <use xlink:href="#Ubuntu-Medium-439" x="1993.249649"/>
     <use xlink:href="#Ubuntu-Medium-20" x="2054.449646"/>
     <use xlink:href="#Ubuntu-Medium-438" x="2077.749634"/>
     <use xlink:href="#Ubuntu-Medium-20" x="2138.949631"/>
     <use xlink:href="#Ubuntu-Medium-441" x="2162.249619"/>
     <use xlink:href="#Ubuntu-Medium-435" x="2209.449615"/>
     <use xlink:href="#Ubuntu-Medium-43b" x="2266.549606"/>
     <use xlink:href="#Ubuntu-Medium-44c" x="2327.849594"/>
     <use xlink:href="#Ubuntu-Medium-441" x="2382.749588"/>
     <use xlink:href="#Ubuntu-Medium-43a" x="2429.949585"/>
     <use xlink:href="#Ubuntu-Medium-43e" x="2483.32457"/>
     <use xlink:href="#Ubuntu-Medium-439" x="2543.124557"/>
     <use xlink:href="#Ubuntu-Medium-20" x="2604.324554"/>
     <use xlink:href="#Ubuntu-Medium-43c" x="2627.624542"/>
     <use xlink:href="#Ubuntu-Medium-435" x="2702.324524"/>
     <use xlink:href="#Ubuntu-Medium-441" x="2759.424515"/>
     <use xlink:href="#Ubuntu-Medium-442" x="2807.874512"/>
     <use xlink:href="#Ubuntu-Medium-43d" x="2856.274506"/>
     <use xlink:href="#Ubuntu-Medium-43e" x="2915.574493"/>
     <use xlink:href="#Ubuntu-Medium-441" x="2975.374481"/>
     <use xlink:href="#Ubuntu-Medium-442" x="3023.824478"/>
     <use xlink:href="#Ubuntu-Medium-435" x="3072.224472"/>
     <use xlink:href="#Ubuntu-Medium-439" x="3129.324463"/>
    </g>
   </g>
  </g>
  <g id="axes_2">
   <g id="patch_24">
    <path d="M 42.2625 279.439375 
L 544.4625 279.439375 
L 544.4625 183.485529 
L 42.2625 183.485529 
L 42.2625 279.439375 
z
" style="fill: none"/>
   </g>
   <g id="matplotlib.axis_3">
    <g id="xtick_21">
     <g id="text_29">
      <!-- 2003 -->
      <g style="fill: #808080" transform="translate(44.473247 293.646875) scale(0.08 -0.08)">
       <use xlink:href="#Ubuntu-32"/>
       <use xlink:href="#Ubuntu-30" x="56.399994"/>
       <use xlink:href="#Ubuntu-30" x="112.799988"/>
       <use xlink:href="#Ubuntu-33" x="169.199982"/>
      </g>
     </g>
    </g>
    <g id="xtick_22">
     <g id="text_30">
      <!-- 2004 -->
      <g style="fill: #808080" transform="translate(69.722115 293.646875) scale(0.08 -0.08)">
       <use xlink:href="#Ubuntu-32"/>
       <use xlink:href="#Ubuntu-30" x="56.399994"/>
       <use xlink:href="#Ubuntu-30" x="112.799988"/>
       <use xlink:href="#Ubuntu-34" x="169.199982"/>
      </g>
     </g>
    </g>
    <g id="xtick_23">
     <g id="text_31">
      <!-- 2005 -->
      <g style="fill: #808080" transform="translate(94.970984 293.646875) scale(0.08 -0.08)">
       <use xlink:href="#Ubuntu-32"/>
       <use xlink:href="#Ubuntu-30" x="56.399994"/>
       <use xlink:href="#Ubuntu-30" x="112.799988"/>
       <use xlink:href="#Ubuntu-35" x="169.199982"/>
      </g>
     </g>
    </g>
    <g id="xtick_24">
     <g id="text_32">
      <!-- 2006 -->
      <g style="fill: #808080" transform="translate(120.219853 293.646875) scale(0.08 -0.08)">
       <use xlink:href="#Ubuntu-32"/>
       <use xlink:href="#Ubuntu-30" x="56.399994"/>
       <use xlink:href="#Ubuntu-30" x="112.799988"/>
       <use xlink:href="#Ubuntu-36" x="169.199982"/>
      </g>
     </g>
    </g>
    <g id="xtick_25">
     <g id="text_33">
      <!-- 2007 -->
      <g style="fill: #808080" transform="translate(145.468722 293.646875) scale(0.08 -0.08)">
       <use xlink:href="#Ubuntu-32"/>
       <use xlink:href="#Ubuntu-30" x="56.399994"/>
       <use xlink:href="#Ubuntu-30" x="112.799988"/>
       <use xlink:href="#Ubuntu-37" x="169.199982"/>
      </g>
     </g>
    </g>
    <g id="xtick_26">
     <g id="text_34">
      <!-- 2008 -->
      <g style="fill: #808080" transform="translate(170.71759 293.646875) scale(0.08 -0.08)">
       <use xlink:href="#Ubuntu-32"/>
       <use xlink:href="#Ubuntu-30" x="56.399994"/>
       <use xlink:href="#Ubuntu-30" x="112.799988"/>
       <use xlink:href="#Ubuntu-38" x="169.199982"/>
      </g>
     </g>
    </g>
    <g id="xtick_27">
     <g id="text_35">
      <!-- 2009 -->
      <g style="fill: #808080" transform="translate(195.966459 293.646875) scale(0.08 -0.08)">
       <use xlink:href="#Ubuntu-32"/>
       <use xlink:href="#Ubuntu-30" x="56.399994"/>
       <use xlink:href="#Ubuntu-30" x="112.799988"/>
       <use xlink:href="#Ubuntu-39" x="169.199982"/>
      </g>
     </g>
    </g>
    <g id="xtick_28">
     <g id="text_36">
      <!-- 2010 -->
      <g style="fill: #808080" transform="translate(221.215328 293.646875) scale(0.08 -0.08)">
       <use xlink:href="#Ubuntu-32"/>
       <use xlink:href="#Ubuntu-30" x="56.399994"/>
       <use xlink:href="#Ubuntu-31" x="112.799988"/>
       <use xlink:href="#Ubuntu-30" x="169.199982"/>
      </g>
     </g>
    </g>
    <g id="xtick_29">
     <g id="text_37">
      <!-- 2011 -->
      <g style="fill: #808080" transform="translate(246.464197 293.646875) scale(0.08 -0.08)">
       <use xlink:href="#Ubuntu-32"/>
       <use xlink:href="#Ubuntu-30" x="56.399994"/>
       <use xlink:href="#Ubuntu-31" x="112.799988"/>
       <use xlink:href="#Ubuntu-31" x="169.199982"/>
      </g>
     </g>
    </g>
    <g id="xtick_30">
     <g id="text_38">
      <!-- 2012 -->
      <g style="fill: #808080" transform="translate(271.713066 293.646875) scale(0.08 -0.08)">
       <use xlink:href="#Ubuntu-32"/>
       <use xlink:href="#Ubuntu-30" x="56.399994"/>
       <use xlink:href="#Ubuntu-31" x="112.799988"/>
       <use xlink:href="#Ubuntu-32" x="169.199982"/>
      </g>
     </g>
    </g>
    <g id="xtick_31">
     <g id="text_39">
      <!-- 2013 -->
      <g style="fill: #808080" transform="translate(296.961934 293.646875) scale(0.08 -0.08)">
       <use xlink:href="#Ubuntu-32"/>
       <use xlink:href="#Ubuntu-30" x="56.399994"/>
       <use xlink:href="#Ubuntu-31" x="112.799988"/>
       <use xlink:href="#Ubuntu-33" x="169.199982"/>
      </g>
     </g>
    </g>
    <g id="xtick_32">
     <g id="text_40">
      <!-- 2014 -->
      <g style="fill: #808080" transform="translate(322.210803 293.646875) scale(0.08 -0.08)">
       <use xlink:href="#Ubuntu-32"/>
       <use xlink:href="#Ubuntu-30" x="56.399994"/>
       <use xlink:href="#Ubuntu-31" x="112.799988"/>
       <use xlink:href="#Ubuntu-34" x="169.199982"/>
      </g>
     </g>
    </g>
    <g id="xtick_33">
     <g id="text_41">
      <!-- 2015 -->
      <g style="fill: #808080" transform="translate(347.459672 293.646875) scale(0.08 -0.08)">
       <use xlink:href="#Ubuntu-32"/>
       <use xlink:href="#Ubuntu-30" x="56.399994"/>
       <use xlink:href="#Ubuntu-31" x="112.799988"/>
       <use xlink:href="#Ubuntu-35" x="169.199982"/>
      </g>
     </g>
    </g>
    <g id="xtick_34">
     <g id="text_42">
      <!-- 2016 -->
      <g style="fill: #808080" transform="translate(372.708541 293.646875) scale(0.08 -0.08)">
       <use xlink:href="#Ubuntu-32"/>
       <use xlink:href="#Ubuntu-30" x="56.399994"/>
       <use xlink:href="#Ubuntu-31" x="112.799988"/>
       <use xlink:href="#Ubuntu-36" x="169.199982"/>
      </g>
     </g>
    </g>
    <g id="xtick_35">
     <g id="text_43">
      <!-- 2017 -->
      <g style="fill: #808080" transform="translate(397.95741 293.646875) scale(0.08 -0.08)">
       <use xlink:href="#Ubuntu-32"/>
       <use xlink:href="#Ubuntu-30" x="56.399994"/>
       <use xlink:href="#Ubuntu-31" x="112.799988"/>
       <use xlink:href="#Ubuntu-37" x="169.199982"/>
      </g>
     </g>
    </g>
    <g id="xtick_36">
     <g id="text_44">
      <!-- 2018 -->
      <g style="fill: #808080" transform="translate(423.206278 293.646875) scale(0.08 -0.08)">
       <use xlink:href="#Ubuntu-32"/>
       <use xlink:href="#Ubuntu-30" x="56.399994"/>
       <use xlink:href="#Ubuntu-31" x="112.799988"/>
       <use xlink:href="#Ubuntu-38" x="169.199982"/>
      </g>
     </g>
    </g>
    <g id="xtick_37">
     <g id="text_45">
      <!-- 2019 -->
      <g style="fill: #808080" transform="translate(448.455147 293.646875) scale(0.08 -0.08)">
       <use xlink:href="#Ubuntu-32"/>
       <use xlink:href="#Ubuntu-30" x="56.399994"/>
       <use xlink:href="#Ubuntu-31" x="112.799988"/>
       <use xlink:href="#Ubuntu-39" x="169.199982"/>
      </g>
     </g>
    </g>
    <g id="xtick_38">
     <g id="text_46">
      <!-- 2020 -->
      <g style="fill: #808080" transform="translate(473.704016 293.646875) scale(0.08 -0.08)">
       <use xlink:href="#Ubuntu-32"/>
       <use xlink:href="#Ubuntu-30" x="56.399994"/>
       <use xlink:href="#Ubuntu-32" x="112.799988"/>
       <use xlink:href="#Ubuntu-30" x="169.199982"/>
      </g>
     </g>
    </g>
    <g id="xtick_39">
     <g id="text_47">
      <!-- 2021 -->
      <g style="fill: #808080" transform="translate(498.952885 293.646875) scale(0.08 -0.08)">
       <use xlink:href="#Ubuntu-32"/>
       <use xlink:href="#Ubuntu-30" x="56.399994"/>
       <use xlink:href="#Ubuntu-32" x="112.799988"/>
       <use xlink:href="#Ubuntu-31" x="169.199982"/>
      </g>
     </g>
    </g>
    <g id="xtick_40">
     <g id="text_48">
      <!-- 2022 -->
      <g style="fill: #808080" transform="translate(524.201753 293.646875) scale(0.08 -0.08)">
       <use xlink:href="#Ubuntu-32"/>
       <use xlink:href="#Ubuntu-30" x="56.399994"/>
       <use xlink:href="#Ubuntu-32" x="112.799988"/>
       <use xlink:href="#Ubuntu-32" x="169.199982"/>
      </g>
     </g>
    </g>
   </g>
   <g id="matplotlib.axis_4">
    <g id="ytick_8">
     <g id="line2d_8">
      <g>
       <use xlink:href="#m16b417a710" x="38.7625" y="279.439375" style="fill: #cecece; stroke: #cecece; stroke-width: 0.75"/>
      </g>
     </g>
     <g id="text_49">
      <!-- 0.50 -->
      <g style="fill: #808080" transform="translate(14.2575 282.543125) scale(0.08 -0.08)">
       <defs>
        <path id="Ubuntu-2e" d="M 1216 346 
Q 1216 173 1101 45 
Q 986 -83 787 -83 
Q 589 -83 473 45 
Q 358 173 358 346 
Q 358 518 473 646 
Q 589 774 787 774 
Q 986 774 1101 646 
Q 1216 518 1216 346 
z
" transform="scale(0.015625)"/>
       </defs>
       <use xlink:href="#Ubuntu-30"/>
       <use xlink:href="#Ubuntu-2e" x="56.399994"/>
       <use xlink:href="#Ubuntu-35" x="80.999985"/>
       <use xlink:href="#Ubuntu-30" x="137.399979"/>
      </g>
     </g>
    </g>
    <g id="ytick_9">
     <g id="line2d_9">
      <g>
       <use xlink:href="#m16b417a710" x="38.7625" y="255.450913" style="fill: #cecece; stroke: #cecece; stroke-width: 0.75"/>
      </g>
     </g>
     <g id="text_50">
      <!-- 0.55 -->
      <g style="fill: #808080" transform="translate(14.2575 258.554663) scale(0.08 -0.08)">
       <use xlink:href="#Ubuntu-30"/>
       <use xlink:href="#Ubuntu-2e" x="56.399994"/>
       <use xlink:href="#Ubuntu-35" x="80.999985"/>
       <use xlink:href="#Ubuntu-35" x="137.399979"/>
      </g>
     </g>
    </g>
    <g id="ytick_10">
     <g id="line2d_10">
      <g>
       <use xlink:href="#m16b417a710" x="38.7625" y="231.462452" style="fill: #cecece; stroke: #cecece; stroke-width: 0.75"/>
      </g>
     </g>
     <g id="text_51">
      <!-- 0.60 -->
      <g style="fill: #808080" transform="translate(14.2575 234.566202) scale(0.08 -0.08)">
       <use xlink:href="#Ubuntu-30"/>
       <use xlink:href="#Ubuntu-2e" x="56.399994"/>
       <use xlink:href="#Ubuntu-36" x="80.999985"/>
       <use xlink:href="#Ubuntu-30" x="137.399979"/>
      </g>
     </g>
    </g>
    <g id="ytick_11">
     <g id="line2d_11">
      <g>
       <use xlink:href="#m16b417a710" x="38.7625" y="207.47399" style="fill: #cecece; stroke: #cecece; stroke-width: 0.75"/>
      </g>
     </g>
     <g id="text_52">
      <!-- 0.65 -->
      <g style="fill: #808080" transform="translate(14.2575 210.57774) scale(0.08 -0.08)">
       <use xlink:href="#Ubuntu-30"/>
       <use xlink:href="#Ubuntu-2e" x="56.399994"/>
       <use xlink:href="#Ubuntu-36" x="80.999985"/>
       <use xlink:href="#Ubuntu-35" x="137.399979"/>
      </g>
     </g>
    </g>
    <g id="ytick_12">
     <g id="line2d_12">
      <g>
       <use xlink:href="#m16b417a710" x="38.7625" y="183.485529" style="fill: #cecece; stroke: #cecece; stroke-width: 0.75"/>
      </g>
     </g>
     <g id="text_53">
      <!-- 0.70 -->
      <g style="fill: #808080" transform="translate(14.2575 186.589279) scale(0.08 -0.08)">
       <use xlink:href="#Ubuntu-30"/>
       <use xlink:href="#Ubuntu-2e" x="56.399994"/>
       <use xlink:href="#Ubuntu-37" x="80.999985"/>
       <use xlink:href="#Ubuntu-30" x="137.399979"/>
      </g>
     </g>
    </g>
   </g>
   <g id="patch_25">
    <path d="M 47.186029 519.32399 
L 59.810464 519.32399 
L 59.810464 229.332272 
L 47.186029 229.332272 
z
" clip-path="url(#p57467091e8)" style="fill: #5b89af; stroke: #fefefe; stroke-linejoin: miter"/>
   </g>
   <g id="patch_26">
    <path d="M 72.434898 519.32399 
L 85.059333 519.32399 
L 85.059333 246.603494 
L 72.434898 246.603494 
z
" clip-path="url(#p57467091e8)" style="fill: #5b89af; stroke: #fefefe; stroke-linejoin: miter"/>
   </g>
   <g id="patch_27">
    <path d="M 97.683767 519.32399 
L 110.308201 519.32399 
L 110.308201 254.460808 
L 97.683767 254.460808 
z
" clip-path="url(#p57467091e8)" style="fill: #5b89af; stroke: #fefefe; stroke-linejoin: miter"/>
   </g>
   <g id="patch_28">
    <path d="M 122.932636 519.32399 
L 135.55707 519.32399 
L 135.55707 249.219844 
L 122.932636 249.219844 
z
" clip-path="url(#p57467091e8)" style="fill: #5b89af; stroke: #fefefe; stroke-linejoin: miter"/>
   </g>
   <g id="patch_29">
    <path d="M 148.181505 519.32399 
L 160.805939 519.32399 
L 160.805939 247.2929 
L 148.181505 247.2929 
z
" clip-path="url(#p57467091e8)" style="fill: #5b89af; stroke: #fefefe; stroke-linejoin: miter"/>
   </g>
   <g id="patch_30">
    <path d="M 173.430373 519.32399 
L 186.054808 519.32399 
L 186.054808 241.903015 
L 173.430373 241.903015 
z
" clip-path="url(#p57467091e8)" style="fill: #5b89af; stroke: #fefefe; stroke-linejoin: miter"/>
   </g>
   <g id="patch_31">
    <path d="M 198.679242 519.32399 
L 211.303676 519.32399 
L 211.303676 228.167225 
L 198.679242 228.167225 
z
" clip-path="url(#p57467091e8)" style="fill: #5b89af; stroke: #fefefe; stroke-linejoin: miter"/>
   </g>
   <g id="patch_32">
    <path d="M 223.928111 519.32399 
L 236.552545 519.32399 
L 236.552545 220.557399 
L 223.928111 220.557399 
z
" clip-path="url(#p57467091e8)" style="fill: #5b89af; stroke: #fefefe; stroke-linejoin: miter"/>
   </g>
   <g id="patch_33">
    <path d="M 249.17698 519.32399 
L 261.801414 519.32399 
L 261.801414 211.235716 
L 249.17698 211.235716 
z
" clip-path="url(#p57467091e8)" style="fill: #5b89af; stroke: #fefefe; stroke-linejoin: miter"/>
   </g>
   <g id="patch_34">
    <path d="M 274.425848 519.32399 
L 287.050283 519.32399 
L 287.050283 206.132612 
L 274.425848 206.132612 
z
" clip-path="url(#p57467091e8)" style="fill: #5b89af; stroke: #fefefe; stroke-linejoin: miter"/>
   </g>
   <g id="patch_35">
    <path d="M 299.674717 519.32399 
L 312.299152 519.32399 
L 312.299152 231.367087 
L 299.674717 231.367087 
z
" clip-path="url(#p57467091e8)" style="fill: #5b89af; stroke: #fefefe; stroke-linejoin: miter"/>
   </g>
   <g id="patch_36">
    <path d="M 324.923586 519.32399 
L 337.54802 519.32399 
L 337.54802 220.223199 
L 324.923586 220.223199 
z
" clip-path="url(#p57467091e8)" style="fill: #5b89af; stroke: #fefefe; stroke-linejoin: miter"/>
   </g>
   <g id="patch_37">
    <path d="M 350.172455 519.32399 
L 362.796889 519.32399 
L 362.796889 205.843637 
L 350.172455 205.843637 
z
" clip-path="url(#p57467091e8)" style="fill: #5b89af; stroke: #fefefe; stroke-linejoin: miter"/>
   </g>
   <g id="patch_38">
    <path d="M 375.421324 519.32399 
L 388.045758 519.32399 
L 388.045758 214.598877 
L 375.421324 214.598877 
z
" clip-path="url(#p57467091e8)" style="fill: #5b89af; stroke: #fefefe; stroke-linejoin: miter"/>
   </g>
   <g id="patch_39">
    <path d="M 400.670192 519.32399 
L 413.294627 519.32399 
L 413.294627 196.458279 
L 400.670192 196.458279 
z
" clip-path="url(#p57467091e8)" style="fill: #5b89af; stroke: #fefefe; stroke-linejoin: miter"/>
   </g>
   <g id="patch_40">
    <path d="M 425.919061 519.32399 
L 438.543495 519.32399 
L 438.543495 207.8552 
L 425.919061 207.8552 
z
" clip-path="url(#p57467091e8)" style="fill: #5b89af; stroke: #fefefe; stroke-linejoin: miter"/>
   </g>
   <g id="patch_41">
    <path d="M 451.16793 519.32399 
L 463.792364 519.32399 
L 463.792364 213.407795 
L 451.16793 213.407795 
z
" clip-path="url(#p57467091e8)" style="fill: #5b89af; stroke: #fefefe; stroke-linejoin: miter"/>
   </g>
   <g id="patch_42">
    <path d="M 476.416799 519.32399 
L 489.041233 519.32399 
L 489.041233 196.158587 
L 476.416799 196.158587 
z
" clip-path="url(#p57467091e8)" style="fill: #5b89af; stroke: #fefefe; stroke-linejoin: miter"/>
   </g>
   <g id="patch_43">
    <path d="M 501.665667 519.32399 
L 514.290102 519.32399 
L 514.290102 197.768944 
L 501.665667 197.768944 
z
" clip-path="url(#p57467091e8)" style="fill: #5b89af; stroke: #fefefe; stroke-linejoin: miter"/>
   </g>
   <g id="patch_44">
    <path d="M 526.914536 519.32399 
L 539.538971 519.32399 
L 539.538971 197.268035 
L 526.914536 197.268035 
z
" clip-path="url(#p57467091e8)" style="fill: #5b89af; stroke: #fefefe; stroke-linejoin: miter"/>
   </g>
   <g id="patch_45">
    <path d="M 38.7625 279.439375 
L 38.7625 183.485529 
" style="fill: none; stroke: #cccccc; stroke-width: 0.75; stroke-linejoin: miter; stroke-linecap: square"/>
   </g>
   <g id="text_54">
    <!-- Отношение доходов в сельской местности к доходам в городской местности -->
    <g style="fill: #505050" transform="translate(42.2625 168.485529) scale(0.1 -0.1)">
     <defs>
      <path id="Ubuntu-Medium-41e" d="M 1190 2221 
Q 1190 1856 1280 1558 
Q 1370 1261 1539 1053 
Q 1709 845 1952 729 
Q 2195 614 2502 614 
Q 2803 614 3046 729 
Q 3290 845 3459 1053 
Q 3629 1261 3718 1558 
Q 3808 1856 3808 2221 
Q 3808 2586 3718 2883 
Q 3629 3181 3459 3389 
Q 3290 3597 3046 3712 
Q 2803 3827 2502 3827 
Q 2195 3827 1952 3712 
Q 1709 3597 1539 3385 
Q 1370 3174 1280 2880 
Q 1190 2586 1190 2221 
z
M 4653 2221 
Q 4653 1651 4483 1216 
Q 4314 781 4022 489 
Q 3731 198 3340 51 
Q 2950 -96 2509 -96 
Q 2067 -96 1673 51 
Q 1280 198 989 489 
Q 698 781 525 1216 
Q 352 1651 352 2221 
Q 352 2790 525 3222 
Q 698 3654 995 3948 
Q 1293 4243 1683 4390 
Q 2074 4538 2509 4538 
Q 2944 4538 3334 4390 
Q 3725 4243 4016 3948 
Q 4307 3654 4480 3222 
Q 4653 2790 4653 2221 
z
" transform="scale(0.015625)"/>
      <path id="Ubuntu-Medium-448" d="M 493 3347 
L 1267 3347 
L 1267 634 
L 2317 634 
L 2317 3347 
L 3091 3347 
L 3091 634 
L 4141 634 
L 4141 3347 
L 4915 3347 
L 4915 0 
L 493 0 
L 493 3347 
z
" transform="scale(0.015625)"/>
     </defs>
     <use xlink:href="#Ubuntu-Medium-41e"/>
     <use xlink:href="#Ubuntu-Medium-442" x="78.199982"/>
     <use xlink:href="#Ubuntu-Medium-43d" x="126.599976"/>
     <use xlink:href="#Ubuntu-Medium-43e" x="185.899963"/>
     <use xlink:href="#Ubuntu-Medium-448" x="245.699951"/>
     <use xlink:href="#Ubuntu-Medium-435" x="330.199936"/>
     <use xlink:href="#Ubuntu-Medium-43d" x="387.299927"/>
     <use xlink:href="#Ubuntu-Medium-438" x="446.599915"/>
     <use xlink:href="#Ubuntu-Medium-435" x="507.799911"/>
     <use xlink:href="#Ubuntu-Medium-20" x="564.899902"/>
     <use xlink:href="#Ubuntu-Medium-434" x="588.19989"/>
     <use xlink:href="#Ubuntu-Medium-43e" x="651.499878"/>
     <use xlink:href="#Ubuntu-Medium-445" x="709.799866"/>
     <use xlink:href="#Ubuntu-Medium-43e" x="760.94986"/>
     <use xlink:href="#Ubuntu-Medium-434" x="820.749847"/>
     <use xlink:href="#Ubuntu-Medium-43e" x="884.049835"/>
     <use xlink:href="#Ubuntu-Medium-432" x="943.849823"/>
     <use xlink:href="#Ubuntu-Medium-20" x="1000.749817"/>
     <use xlink:href="#Ubuntu-Medium-432" x="1024.049805"/>
     <use xlink:href="#Ubuntu-Medium-20" x="1080.949799"/>
     <use xlink:href="#Ubuntu-Medium-441" x="1104.249786"/>
     <use xlink:href="#Ubuntu-Medium-435" x="1151.449783"/>
     <use xlink:href="#Ubuntu-Medium-43b" x="1208.549774"/>
     <use xlink:href="#Ubuntu-Medium-44c" x="1269.849762"/>
     <use xlink:href="#Ubuntu-Medium-441" x="1324.749756"/>
     <use xlink:href="#Ubuntu-Medium-43a" x="1371.949753"/>
     <use xlink:href="#Ubuntu-Medium-43e" x="1425.324738"/>
     <use xlink:href="#Ubuntu-Medium-439" x="1485.124725"/>
     <use xlink:href="#Ubuntu-Medium-20" x="1546.324722"/>
     <use xlink:href="#Ubuntu-Medium-43c" x="1569.62471"/>
     <use xlink:href="#Ubuntu-Medium-435" x="1644.324692"/>
     <use xlink:href="#Ubuntu-Medium-441" x="1701.424683"/>
     <use xlink:href="#Ubuntu-Medium-442" x="1749.87468"/>
     <use xlink:href="#Ubuntu-Medium-43d" x="1798.274673"/>
     <use xlink:href="#Ubuntu-Medium-43e" x="1857.574661"/>
     <use xlink:href="#Ubuntu-Medium-441" x="1917.374649"/>
     <use xlink:href="#Ubuntu-Medium-442" x="1965.824646"/>
     <use xlink:href="#Ubuntu-Medium-438" x="2014.22464"/>
     <use xlink:href="#Ubuntu-Medium-20" x="2075.424637"/>
     <use xlink:href="#Ubuntu-Medium-43a" x="2098.724625"/>
     <use xlink:href="#Ubuntu-Medium-20" x="2154.724609"/>
     <use xlink:href="#Ubuntu-Medium-434" x="2178.024597"/>
     <use xlink:href="#Ubuntu-Medium-43e" x="2241.324585"/>
     <use xlink:href="#Ubuntu-Medium-445" x="2299.624573"/>
     <use xlink:href="#Ubuntu-Medium-43e" x="2350.774567"/>
     <use xlink:href="#Ubuntu-Medium-434" x="2410.574554"/>
     <use xlink:href="#Ubuntu-Medium-430" x="2473.874542"/>
     <use xlink:href="#Ubuntu-Medium-43c" x="2527.274536"/>
     <use xlink:href="#Ubuntu-Medium-20" x="2601.974518"/>
     <use xlink:href="#Ubuntu-Medium-432" x="2625.274506"/>
     <use xlink:href="#Ubuntu-Medium-20" x="2682.1745"/>
     <use xlink:href="#Ubuntu-Medium-433" x="2705.474487"/>
     <use xlink:href="#Ubuntu-Medium-43e" x="2749.174484"/>
     <use xlink:href="#Ubuntu-Medium-440" x="2808.974472"/>
     <use xlink:href="#Ubuntu-Medium-43e" x="2868.574463"/>
     <use xlink:href="#Ubuntu-Medium-434" x="2928.374451"/>
     <use xlink:href="#Ubuntu-Medium-441" x="2991.674438"/>
     <use xlink:href="#Ubuntu-Medium-43a" x="3038.874435"/>
     <use xlink:href="#Ubuntu-Medium-43e" x="3092.24942"/>
     <use xlink:href="#Ubuntu-Medium-439" x="3152.049408"/>
     <use xlink:href="#Ubuntu-Medium-20" x="3213.249405"/>
     <use xlink:href="#Ubuntu-Medium-43c" x="3236.549393"/>
     <use xlink:href="#Ubuntu-Medium-435" x="3311.249374"/>
     <use xlink:href="#Ubuntu-Medium-441" x="3368.349365"/>
     <use xlink:href="#Ubuntu-Medium-442" x="3416.799362"/>
     <use xlink:href="#Ubuntu-Medium-43d" x="3465.199356"/>
     <use xlink:href="#Ubuntu-Medium-43e" x="3524.499344"/>
     <use xlink:href="#Ubuntu-Medium-441" x="3584.299332"/>
     <use xlink:href="#Ubuntu-Medium-442" x="3632.749329"/>
     <use xlink:href="#Ubuntu-Medium-438" x="3681.149323"/>
    </g>
   </g>
  </g>
 </g>
 <defs>
  <clipPath id="p4f65f2826f">
   <rect x="42.2625" y="29.959375" width="502.2" height="95.953846"/>
  </clipPath>
  <clipPath id="p57467091e8">
   <rect x="42.2625" y="183.485529" width="502.2" height="95.953846"/>
  </clipPath>
 </defs>
</svg>
