<?xml version="1.0" encoding="utf-8" standalone="no"?>
<!DOCTYPE svg PUBLIC "-//W3C//DTD SVG 1.1//EN"
  "http://www.w3.org/Graphics/SVG/1.1/DTD/svg11.dtd">
<svg xmlns:xlink="http://www.w3.org/1999/xlink" width="543.238971pt" height="327.186875pt" viewBox="0 0 543.238971 327.186875" xmlns="http://www.w3.org/2000/svg" version="1.1">
 <metadata>
  <rdf:RDF xmlns:dc="http://purl.org/dc/elements/1.1/" xmlns:cc="http://creativecommons.org/ns#" xmlns:rdf="http://www.w3.org/1999/02/22-rdf-syntax-ns#">
   <cc:Work>
    <dc:type rdf:resource="http://purl.org/dc/dcmitype/StillImage"/>
    <dc:date>2024-05-29T16:14:07.568487</dc:date>
    <dc:format>image/svg+xml</dc:format>
    <dc:creator>
     <cc:Agent>
      <dc:title>Matplotlib v3.9.0, https://matplotlib.org/</dc:title>
     </cc:Agent>
    </dc:creator>
   </cc:Work>
  </rdf:RDF>
 </metadata>
 <defs>
  <style type="text/css">*{stroke-linejoin: round; stroke-linecap: butt}</style>
 </defs>
 <g id="figure_1">
  <g id="patch_1">
   <path d="M 0 327.186875 
L 543.238971 327.186875 
L 543.238971 0 
L 0 0 
L 0 327.186875 
z
" style="fill: none"/>
  </g>
  <g id="axes_1">
   <g id="patch_2">
    <path d="M 29.7375 128.591375 
L 531.9375 128.591375 
L 531.9375 34.959375 
L 29.7375 34.959375 
L 29.7375 128.591375 
z
" style="fill: none"/>
   </g>
   <g id="line2d_1">
    <path d="M 34.7595 81.775375 
L 526.9155 81.775375 
" clip-path="url(#pcb4d090a4f)" style="fill: none; stroke-dasharray: 2.775,1.2; stroke-dashoffset: 0; stroke: #cccccc; stroke-width: 0.75"/>
   </g>
   <g id="matplotlib.axis_1">
    <g id="xtick_1">
     <g id="line2d_2">
      <defs>
       <path id="m8a2ed573a3" d="M 0 0 
L 0 3 
" style="stroke: #cecece; stroke-width: 0.75"/>
      </defs>
      <g>
       <use xlink:href="#m8a2ed573a3" x="36.695546" y="133.591375" style="fill: #cecece; stroke: #cecece; stroke-width: 0.75"/>
      </g>
     </g>
     <g id="text_1">
      <!-- 2004 -->
      <g style="fill: #808080" transform="translate(27.670546 148.798875) scale(0.08 -0.08)">
       <defs>
        <path id="Ubuntu-32" d="M 2989 3302 
Q 2989 3072 2896 2857 
Q 2803 2643 2649 2435 
Q 2496 2227 2304 2025 
Q 2112 1824 1920 1632 
Q 1811 1523 1667 1376 
Q 1523 1229 1395 1069 
Q 1267 909 1180 761 
Q 1094 614 1094 506 
L 3136 506 
L 3136 0 
L 448 0 
Q 442 38 442 76 
Q 442 115 442 147 
Q 442 448 541 707 
Q 640 966 800 1196 
Q 960 1427 1158 1632 
Q 1357 1837 1549 2029 
Q 1709 2182 1853 2332 
Q 1997 2483 2109 2633 
Q 2221 2784 2288 2944 
Q 2355 3104 2355 3283 
Q 2355 3475 2294 3609 
Q 2234 3744 2131 3833 
Q 2029 3923 1891 3964 
Q 1754 4006 1600 4006 
Q 1414 4006 1260 3955 
Q 1107 3904 985 3837 
Q 864 3770 781 3696 
Q 698 3622 653 3584 
L 358 4006 
Q 416 4070 531 4163 
Q 646 4256 806 4339 
Q 966 4422 1164 4480 
Q 1363 4538 1594 4538 
Q 2291 4538 2640 4214 
Q 2989 3891 2989 3302 
z
" transform="scale(0.015625)"/>
        <path id="Ubuntu-30" d="M 320 2221 
Q 320 3334 713 3936 
Q 1107 4538 1805 4538 
Q 2502 4538 2896 3936 
Q 3290 3334 3290 2221 
Q 3290 1107 2896 505 
Q 2502 -96 1805 -96 
Q 1107 -96 713 505 
Q 320 1107 320 2221 
z
M 2662 2221 
Q 2662 2586 2620 2912 
Q 2579 3238 2480 3481 
Q 2381 3725 2214 3869 
Q 2048 4013 1805 4013 
Q 1562 4013 1395 3869 
Q 1229 3725 1129 3481 
Q 1030 3238 988 2912 
Q 947 2586 947 2221 
Q 947 1856 988 1529 
Q 1030 1203 1129 960 
Q 1229 717 1395 573 
Q 1562 429 1805 429 
Q 2048 429 2214 573 
Q 2381 717 2480 960 
Q 2579 1203 2620 1529 
Q 2662 1856 2662 2221 
z
" transform="scale(0.015625)"/>
        <path id="Ubuntu-34" d="M 256 1536 
Q 378 1818 589 2192 
Q 800 2566 1065 2963 
Q 1331 3360 1635 3744 
Q 1939 4128 2246 4435 
L 2816 4435 
L 2816 1619 
L 3341 1619 
L 3341 1133 
L 2816 1133 
L 2816 0 
L 2240 0 
L 2240 1133 
L 256 1133 
L 256 1536 
z
M 2240 3731 
Q 2048 3526 1853 3273 
Q 1658 3021 1472 2745 
Q 1286 2470 1123 2182 
Q 960 1894 832 1619 
L 2240 1619 
L 2240 3731 
z
" transform="scale(0.015625)"/>
       </defs>
       <use xlink:href="#Ubuntu-32"/>
       <use xlink:href="#Ubuntu-30" x="56.399994"/>
       <use xlink:href="#Ubuntu-30" x="112.799988"/>
       <use xlink:href="#Ubuntu-34" x="169.199982"/>
      </g>
     </g>
    </g>
    <g id="xtick_2">
     <g id="line2d_3">
      <g>
       <use xlink:href="#m8a2ed573a3" x="63.82243" y="133.591375" style="fill: #cecece; stroke: #cecece; stroke-width: 0.75"/>
      </g>
     </g>
     <g id="text_2">
      <!-- 2005 -->
      <g style="fill: #808080" transform="translate(54.79743 148.798875) scale(0.08 -0.08)">
       <defs>
        <path id="Ubuntu-35" d="M 1274 2726 
Q 2240 2688 2691 2304 
Q 3142 1920 3142 1261 
Q 3142 966 3043 716 
Q 2944 467 2742 288 
Q 2541 109 2233 6 
Q 1926 -96 1504 -96 
Q 1338 -96 1165 -70 
Q 992 -45 845 -6 
Q 698 32 582 70 
Q 467 109 416 134 
L 531 653 
Q 640 602 886 518 
Q 1133 435 1491 435 
Q 1779 435 1974 499 
Q 2170 563 2291 672 
Q 2413 781 2467 925 
Q 2522 1069 2522 1229 
Q 2522 1472 2438 1661 
Q 2355 1850 2144 1978 
Q 1933 2106 1581 2173 
Q 1229 2240 691 2240 
Q 730 2554 752 2829 
Q 774 3104 793 3366 
Q 813 3629 825 3888 
Q 838 4147 851 4435 
L 2989 4435 
L 2989 3930 
L 1370 3930 
Q 1363 3834 1350 3670 
Q 1338 3507 1325 3331 
Q 1312 3155 1299 2988 
Q 1286 2822 1274 2726 
z
" transform="scale(0.015625)"/>
       </defs>
       <use xlink:href="#Ubuntu-32"/>
       <use xlink:href="#Ubuntu-30" x="56.399994"/>
       <use xlink:href="#Ubuntu-30" x="112.799988"/>
       <use xlink:href="#Ubuntu-35" x="169.199982"/>
      </g>
     </g>
    </g>
    <g id="xtick_3">
     <g id="line2d_4">
      <g>
       <use xlink:href="#m8a2ed573a3" x="90.949313" y="133.591375" style="fill: #cecece; stroke: #cecece; stroke-width: 0.75"/>
      </g>
     </g>
     <g id="text_3">
      <!-- 2006 -->
      <g style="fill: #808080" transform="translate(81.924313 148.798875) scale(0.08 -0.08)">
       <defs>
        <path id="Ubuntu-36" d="M 403 1779 
Q 403 2426 582 2922 
Q 762 3418 1091 3757 
Q 1421 4096 1891 4272 
Q 2362 4448 2950 4454 
L 2995 3955 
Q 2618 3949 2307 3872 
Q 1997 3795 1753 3628 
Q 1510 3462 1344 3196 
Q 1178 2931 1094 2541 
Q 1261 2618 1469 2669 
Q 1677 2720 1901 2720 
Q 2278 2720 2540 2605 
Q 2803 2490 2969 2301 
Q 3136 2112 3209 1865 
Q 3283 1619 3283 1350 
Q 3283 1107 3200 851 
Q 3117 595 2947 384 
Q 2778 173 2515 38 
Q 2253 -96 1894 -96 
Q 1165 -96 784 403 
Q 403 902 403 1779 
z
M 1837 2234 
Q 1613 2234 1421 2192 
Q 1229 2150 1037 2067 
Q 1030 1997 1027 1923 
Q 1024 1850 1024 1779 
Q 1024 1498 1062 1248 
Q 1101 998 1200 809 
Q 1299 621 1465 509 
Q 1632 397 1888 397 
Q 2099 397 2246 486 
Q 2394 576 2490 717 
Q 2586 858 2627 1021 
Q 2669 1184 2669 1338 
Q 2669 1773 2461 2003 
Q 2253 2234 1837 2234 
z
" transform="scale(0.015625)"/>
       </defs>
       <use xlink:href="#Ubuntu-32"/>
       <use xlink:href="#Ubuntu-30" x="56.399994"/>
       <use xlink:href="#Ubuntu-30" x="112.799988"/>
       <use xlink:href="#Ubuntu-36" x="169.199982"/>
      </g>
     </g>
    </g>
    <g id="xtick_4">
     <g id="line2d_5">
      <g>
       <use xlink:href="#m8a2ed573a3" x="118.076197" y="133.591375" style="fill: #cecece; stroke: #cecece; stroke-width: 0.75"/>
      </g>
     </g>
     <g id="text_4">
      <!-- 2007 -->
      <g style="fill: #808080" transform="translate(109.051197 148.798875) scale(0.08 -0.08)">
       <defs>
        <path id="Ubuntu-37" d="M 1043 0 
Q 1082 512 1226 1078 
Q 1370 1645 1581 2179 
Q 1792 2714 2045 3171 
Q 2298 3629 2541 3917 
L 384 3917 
L 384 4435 
L 3206 4435 
L 3206 3942 
Q 2995 3699 2739 3273 
Q 2483 2848 2256 2320 
Q 2029 1792 1865 1193 
Q 1702 595 1664 0 
L 1043 0 
z
" transform="scale(0.015625)"/>
       </defs>
       <use xlink:href="#Ubuntu-32"/>
       <use xlink:href="#Ubuntu-30" x="56.399994"/>
       <use xlink:href="#Ubuntu-30" x="112.799988"/>
       <use xlink:href="#Ubuntu-37" x="169.199982"/>
      </g>
     </g>
    </g>
    <g id="xtick_5">
     <g id="line2d_6">
      <g>
       <use xlink:href="#m8a2ed573a3" x="145.203081" y="133.591375" style="fill: #cecece; stroke: #cecece; stroke-width: 0.75"/>
      </g>
     </g>
     <g id="text_5">
      <!-- 2008 -->
      <g style="fill: #808080" transform="translate(136.178081 148.798875) scale(0.08 -0.08)">
       <defs>
        <path id="Ubuntu-38" d="M 3258 1152 
Q 3258 883 3165 656 
Q 3072 429 2889 259 
Q 2707 90 2432 -3 
Q 2157 -96 1798 -96 
Q 1382 -96 1104 22 
Q 826 141 659 320 
Q 493 499 422 713 
Q 352 928 352 1120 
Q 352 1306 413 1475 
Q 474 1645 573 1792 
Q 672 1939 803 2057 
Q 934 2176 1082 2266 
Q 454 2624 454 3322 
Q 454 3565 550 3785 
Q 646 4006 822 4172 
Q 998 4339 1248 4438 
Q 1498 4538 1805 4538 
Q 2163 4538 2419 4429 
Q 2675 4320 2838 4150 
Q 3002 3981 3075 3776 
Q 3149 3571 3149 3379 
Q 3149 3194 3094 3030 
Q 3040 2867 2947 2726 
Q 2854 2586 2736 2477 
Q 2618 2368 2490 2285 
Q 3245 1926 3258 1152 
z
M 954 1114 
Q 954 998 995 873 
Q 1037 749 1139 643 
Q 1242 538 1402 467 
Q 1562 397 1805 397 
Q 2022 397 2185 461 
Q 2349 525 2451 624 
Q 2554 723 2605 851 
Q 2656 979 2656 1114 
Q 2656 1318 2579 1472 
Q 2502 1626 2358 1741 
Q 2214 1856 2012 1936 
Q 1811 2016 1555 2074 
Q 1267 1914 1110 1677 
Q 954 1440 954 1114 
z
M 2554 3386 
Q 2554 3482 2512 3597 
Q 2470 3712 2380 3811 
Q 2291 3910 2150 3977 
Q 2010 4045 1805 4045 
Q 1600 4045 1456 3981 
Q 1312 3917 1222 3817 
Q 1133 3718 1091 3600 
Q 1050 3482 1050 3366 
Q 1050 3226 1101 3085 
Q 1152 2944 1261 2822 
Q 1370 2701 1546 2605 
Q 1722 2509 1965 2451 
Q 2234 2611 2394 2825 
Q 2554 3040 2554 3386 
z
" transform="scale(0.015625)"/>
       </defs>
       <use xlink:href="#Ubuntu-32"/>
       <use xlink:href="#Ubuntu-30" x="56.399994"/>
       <use xlink:href="#Ubuntu-30" x="112.799988"/>
       <use xlink:href="#Ubuntu-38" x="169.199982"/>
      </g>
     </g>
    </g>
    <g id="xtick_6">
     <g id="line2d_7">
      <g>
       <use xlink:href="#m8a2ed573a3" x="172.329965" y="133.591375" style="fill: #cecece; stroke: #cecece; stroke-width: 0.75"/>
      </g>
     </g>
     <g id="text_6">
      <!-- 2009 -->
      <g style="fill: #808080" transform="translate(163.304965 148.798875) scale(0.08 -0.08)">
       <defs>
        <path id="Ubuntu-39" d="M 3206 2662 
Q 3206 1344 2550 669 
Q 1894 -6 602 -13 
L 582 486 
Q 986 486 1309 563 
Q 1632 640 1875 809 
Q 2118 979 2281 1248 
Q 2445 1517 2522 1907 
Q 2355 1830 2144 1782 
Q 1933 1734 1709 1734 
Q 1331 1734 1068 1846 
Q 806 1958 640 2147 
Q 474 2336 400 2582 
Q 326 2829 326 3098 
Q 326 3334 409 3590 
Q 493 3846 662 4057 
Q 832 4269 1094 4403 
Q 1357 4538 1715 4538 
Q 2080 4538 2358 4410 
Q 2637 4282 2825 4038 
Q 3014 3795 3110 3446 
Q 3206 3098 3206 2662 
z
M 1773 2221 
Q 1997 2221 2195 2262 
Q 2394 2304 2579 2387 
Q 2586 2458 2586 2525 
Q 2586 2592 2586 2662 
Q 2586 2938 2547 3190 
Q 2509 3443 2409 3632 
Q 2310 3821 2144 3933 
Q 1978 4045 1722 4045 
Q 1510 4045 1363 3955 
Q 1216 3866 1120 3728 
Q 1024 3590 982 3427 
Q 941 3264 941 3110 
Q 941 2675 1149 2448 
Q 1357 2221 1773 2221 
z
" transform="scale(0.015625)"/>
       </defs>
       <use xlink:href="#Ubuntu-32"/>
       <use xlink:href="#Ubuntu-30" x="56.399994"/>
       <use xlink:href="#Ubuntu-30" x="112.799988"/>
       <use xlink:href="#Ubuntu-39" x="169.199982"/>
      </g>
     </g>
    </g>
    <g id="xtick_7">
     <g id="line2d_8">
      <g>
       <use xlink:href="#m8a2ed573a3" x="199.456849" y="133.591375" style="fill: #cecece; stroke: #cecece; stroke-width: 0.75"/>
      </g>
     </g>
     <g id="text_7">
      <!-- 2010 -->
      <g style="fill: #808080" transform="translate(190.431849 148.798875) scale(0.08 -0.08)">
       <defs>
        <path id="Ubuntu-31" d="M 595 3520 
Q 960 3661 1305 3881 
Q 1651 4102 1939 4435 
L 2362 4435 
L 2362 0 
L 1766 0 
L 1766 3610 
Q 1690 3539 1578 3462 
Q 1466 3386 1334 3315 
Q 1203 3245 1059 3181 
Q 915 3117 781 3072 
L 595 3520 
z
" transform="scale(0.015625)"/>
       </defs>
       <use xlink:href="#Ubuntu-32"/>
       <use xlink:href="#Ubuntu-30" x="56.399994"/>
       <use xlink:href="#Ubuntu-31" x="112.799988"/>
       <use xlink:href="#Ubuntu-30" x="169.199982"/>
      </g>
     </g>
    </g>
    <g id="xtick_8">
     <g id="line2d_9">
      <g>
       <use xlink:href="#m8a2ed573a3" x="226.583732" y="133.591375" style="fill: #cecece; stroke: #cecece; stroke-width: 0.75"/>
      </g>
     </g>
     <g id="text_8">
      <!-- 2011 -->
      <g style="fill: #808080" transform="translate(217.558732 148.798875) scale(0.08 -0.08)">
       <use xlink:href="#Ubuntu-32"/>
       <use xlink:href="#Ubuntu-30" x="56.399994"/>
       <use xlink:href="#Ubuntu-31" x="112.799988"/>
       <use xlink:href="#Ubuntu-31" x="169.199982"/>
      </g>
     </g>
    </g>
    <g id="xtick_9">
     <g id="line2d_10">
      <g>
       <use xlink:href="#m8a2ed573a3" x="253.710616" y="133.591375" style="fill: #cecece; stroke: #cecece; stroke-width: 0.75"/>
      </g>
     </g>
     <g id="text_9">
      <!-- 2012 -->
      <g style="fill: #808080" transform="translate(244.685616 148.798875) scale(0.08 -0.08)">
       <use xlink:href="#Ubuntu-32"/>
       <use xlink:href="#Ubuntu-30" x="56.399994"/>
       <use xlink:href="#Ubuntu-31" x="112.799988"/>
       <use xlink:href="#Ubuntu-32" x="169.199982"/>
      </g>
     </g>
    </g>
    <g id="xtick_10">
     <g id="line2d_11">
      <g>
       <use xlink:href="#m8a2ed573a3" x="280.8375" y="133.591375" style="fill: #cecece; stroke: #cecece; stroke-width: 0.75"/>
      </g>
     </g>
     <g id="text_10">
      <!-- 2013 -->
      <g style="fill: #808080" transform="translate(271.8125 148.798875) scale(0.08 -0.08)">
       <defs>
        <path id="Ubuntu-33" d="M 1446 435 
Q 2016 435 2262 659 
Q 2509 883 2509 1261 
Q 2509 1504 2406 1670 
Q 2304 1837 2137 1936 
Q 1971 2035 1750 2076 
Q 1530 2118 1299 2118 
L 1146 2118 
L 1146 2605 
L 1357 2605 
Q 1517 2605 1686 2637 
Q 1856 2669 1997 2752 
Q 2138 2835 2227 2979 
Q 2317 3123 2317 3341 
Q 2317 3520 2253 3648 
Q 2189 3776 2083 3859 
Q 1978 3942 1840 3977 
Q 1702 4013 1549 4013 
Q 1242 4013 1027 3923 
Q 813 3834 666 3738 
L 435 4192 
Q 512 4243 630 4304 
Q 749 4365 896 4416 
Q 1043 4467 1212 4502 
Q 1382 4538 1568 4538 
Q 1920 4538 2176 4451 
Q 2432 4365 2598 4208 
Q 2765 4051 2848 3836 
Q 2931 3622 2931 3373 
Q 2931 3027 2732 2780 
Q 2534 2534 2253 2406 
Q 2426 2355 2586 2259 
Q 2746 2163 2864 2016 
Q 2982 1869 3056 1677 
Q 3130 1485 3130 1248 
Q 3130 960 3030 713 
Q 2931 467 2723 288 
Q 2515 109 2201 6 
Q 1888 -96 1459 -96 
Q 1293 -96 1117 -70 
Q 941 -45 787 -6 
Q 634 32 518 70 
Q 403 109 352 134 
L 467 653 
Q 576 602 829 518 
Q 1082 435 1446 435 
z
" transform="scale(0.015625)"/>
       </defs>
       <use xlink:href="#Ubuntu-32"/>
       <use xlink:href="#Ubuntu-30" x="56.399994"/>
       <use xlink:href="#Ubuntu-31" x="112.799988"/>
       <use xlink:href="#Ubuntu-33" x="169.199982"/>
      </g>
     </g>
    </g>
    <g id="xtick_11">
     <g id="line2d_12">
      <g>
       <use xlink:href="#m8a2ed573a3" x="307.964384" y="133.591375" style="fill: #cecece; stroke: #cecece; stroke-width: 0.75"/>
      </g>
     </g>
     <g id="text_11">
      <!-- 2014 -->
      <g style="fill: #808080" transform="translate(298.939384 148.798875) scale(0.08 -0.08)">
       <use xlink:href="#Ubuntu-32"/>
       <use xlink:href="#Ubuntu-30" x="56.399994"/>
       <use xlink:href="#Ubuntu-31" x="112.799988"/>
       <use xlink:href="#Ubuntu-34" x="169.199982"/>
      </g>
     </g>
    </g>
    <g id="xtick_12">
     <g id="line2d_13">
      <g>
       <use xlink:href="#m8a2ed573a3" x="335.091268" y="133.591375" style="fill: #cecece; stroke: #cecece; stroke-width: 0.75"/>
      </g>
     </g>
     <g id="text_12">
      <!-- 2015 -->
      <g style="fill: #808080" transform="translate(326.066268 148.798875) scale(0.08 -0.08)">
       <use xlink:href="#Ubuntu-32"/>
       <use xlink:href="#Ubuntu-30" x="56.399994"/>
       <use xlink:href="#Ubuntu-31" x="112.799988"/>
       <use xlink:href="#Ubuntu-35" x="169.199982"/>
      </g>
     </g>
    </g>
    <g id="xtick_13">
     <g id="line2d_14">
      <g>
       <use xlink:href="#m8a2ed573a3" x="362.218151" y="133.591375" style="fill: #cecece; stroke: #cecece; stroke-width: 0.75"/>
      </g>
     </g>
     <g id="text_13">
      <!-- 2016 -->
      <g style="fill: #808080" transform="translate(353.193151 148.798875) scale(0.08 -0.08)">
       <use xlink:href="#Ubuntu-32"/>
       <use xlink:href="#Ubuntu-30" x="56.399994"/>
       <use xlink:href="#Ubuntu-31" x="112.799988"/>
       <use xlink:href="#Ubuntu-36" x="169.199982"/>
      </g>
     </g>
    </g>
    <g id="xtick_14">
     <g id="line2d_15">
      <g>
       <use xlink:href="#m8a2ed573a3" x="389.345035" y="133.591375" style="fill: #cecece; stroke: #cecece; stroke-width: 0.75"/>
      </g>
     </g>
     <g id="text_14">
      <!-- 2017 -->
      <g style="fill: #808080" transform="translate(380.320035 148.798875) scale(0.08 -0.08)">
       <use xlink:href="#Ubuntu-32"/>
       <use xlink:href="#Ubuntu-30" x="56.399994"/>
       <use xlink:href="#Ubuntu-31" x="112.799988"/>
       <use xlink:href="#Ubuntu-37" x="169.199982"/>
      </g>
     </g>
    </g>
    <g id="xtick_15">
     <g id="line2d_16">
      <g>
       <use xlink:href="#m8a2ed573a3" x="416.471919" y="133.591375" style="fill: #cecece; stroke: #cecece; stroke-width: 0.75"/>
      </g>
     </g>
     <g id="text_15">
      <!-- 2018 -->
      <g style="fill: #808080" transform="translate(407.446919 148.798875) scale(0.08 -0.08)">
       <use xlink:href="#Ubuntu-32"/>
       <use xlink:href="#Ubuntu-30" x="56.399994"/>
       <use xlink:href="#Ubuntu-31" x="112.799988"/>
       <use xlink:href="#Ubuntu-38" x="169.199982"/>
      </g>
     </g>
    </g>
    <g id="xtick_16">
     <g id="line2d_17">
      <g>
       <use xlink:href="#m8a2ed573a3" x="443.598803" y="133.591375" style="fill: #cecece; stroke: #cecece; stroke-width: 0.75"/>
      </g>
     </g>
     <g id="text_16">
      <!-- 2019 -->
      <g style="fill: #808080" transform="translate(434.573803 148.798875) scale(0.08 -0.08)">
       <use xlink:href="#Ubuntu-32"/>
       <use xlink:href="#Ubuntu-30" x="56.399994"/>
       <use xlink:href="#Ubuntu-31" x="112.799988"/>
       <use xlink:href="#Ubuntu-39" x="169.199982"/>
      </g>
     </g>
    </g>
    <g id="xtick_17">
     <g id="line2d_18">
      <g>
       <use xlink:href="#m8a2ed573a3" x="470.725687" y="133.591375" style="fill: #cecece; stroke: #cecece; stroke-width: 0.75"/>
      </g>
     </g>
     <g id="text_17">
      <!-- 2020 -->
      <g style="fill: #808080" transform="translate(461.700687 148.798875) scale(0.08 -0.08)">
       <use xlink:href="#Ubuntu-32"/>
       <use xlink:href="#Ubuntu-30" x="56.399994"/>
       <use xlink:href="#Ubuntu-32" x="112.799988"/>
       <use xlink:href="#Ubuntu-30" x="169.199982"/>
      </g>
     </g>
    </g>
    <g id="xtick_18">
     <g id="line2d_19">
      <g>
       <use xlink:href="#m8a2ed573a3" x="497.85257" y="133.591375" style="fill: #cecece; stroke: #cecece; stroke-width: 0.75"/>
      </g>
     </g>
     <g id="text_18">
      <!-- 2021 -->
      <g style="fill: #808080" transform="translate(488.82757 148.798875) scale(0.08 -0.08)">
       <use xlink:href="#Ubuntu-32"/>
       <use xlink:href="#Ubuntu-30" x="56.399994"/>
       <use xlink:href="#Ubuntu-32" x="112.799988"/>
       <use xlink:href="#Ubuntu-31" x="169.199982"/>
      </g>
     </g>
    </g>
    <g id="xtick_19">
     <g id="line2d_20">
      <g>
       <use xlink:href="#m8a2ed573a3" x="524.979454" y="133.591375" style="fill: #cecece; stroke: #cecece; stroke-width: 0.75"/>
      </g>
     </g>
     <g id="text_19">
      <!-- 2022 -->
      <g style="fill: #808080" transform="translate(515.954454 148.798875) scale(0.08 -0.08)">
       <use xlink:href="#Ubuntu-32"/>
       <use xlink:href="#Ubuntu-30" x="56.399994"/>
       <use xlink:href="#Ubuntu-32" x="112.799988"/>
       <use xlink:href="#Ubuntu-32" x="169.199982"/>
      </g>
     </g>
    </g>
   </g>
   <g id="matplotlib.axis_2">
    <g id="ytick_1">
     <g id="line2d_21">
      <defs>
       <path id="m2084cb5296" d="M 0 0 
L -3 0 
" style="stroke: #cecece; stroke-width: 0.75"/>
      </defs>
      <g>
       <use xlink:href="#m2084cb5296" x="29.7375" y="128.591375" style="fill: #cecece; stroke: #cecece; stroke-width: 0.75"/>
      </g>
     </g>
     <g id="text_20">
      <!-- −15 -->
      <g style="fill: #808080" transform="translate(7.2 131.695125) scale(0.08 -0.08)">
       <defs>
        <path id="Ubuntu-2212" d="M 339 2138 
L 3270 2138 
L 3270 1632 
L 339 1632 
L 339 2138 
z
" transform="scale(0.015625)"/>
       </defs>
       <use xlink:href="#Ubuntu-2212"/>
       <use xlink:href="#Ubuntu-31" x="56.399994"/>
       <use xlink:href="#Ubuntu-35" x="112.799988"/>
      </g>
     </g>
    </g>
    <g id="ytick_2">
     <g id="line2d_22">
      <g>
       <use xlink:href="#m2084cb5296" x="29.7375" y="112.986042" style="fill: #cecece; stroke: #cecece; stroke-width: 0.75"/>
      </g>
     </g>
     <g id="text_21">
      <!-- −10 -->
      <g style="fill: #808080" transform="translate(7.2 116.089792) scale(0.08 -0.08)">
       <use xlink:href="#Ubuntu-2212"/>
       <use xlink:href="#Ubuntu-31" x="56.399994"/>
       <use xlink:href="#Ubuntu-30" x="112.799988"/>
      </g>
     </g>
    </g>
    <g id="ytick_3">
     <g id="line2d_23">
      <g>
       <use xlink:href="#m2084cb5296" x="29.7375" y="97.380708" style="fill: #cecece; stroke: #cecece; stroke-width: 0.75"/>
      </g>
     </g>
     <g id="text_22">
      <!-- −5 -->
      <g style="fill: #808080" transform="translate(11.7125 100.484458) scale(0.08 -0.08)">
       <use xlink:href="#Ubuntu-2212"/>
       <use xlink:href="#Ubuntu-35" x="56.399994"/>
      </g>
     </g>
    </g>
    <g id="ytick_4">
     <g id="line2d_24">
      <g>
       <use xlink:href="#m2084cb5296" x="29.7375" y="81.775375" style="fill: #cecece; stroke: #cecece; stroke-width: 0.75"/>
      </g>
     </g>
     <g id="text_23">
      <!-- 0 -->
      <g style="fill: #808080" transform="translate(16.225 84.879125) scale(0.08 -0.08)">
       <use xlink:href="#Ubuntu-30"/>
      </g>
     </g>
    </g>
    <g id="ytick_5">
     <g id="line2d_25">
      <g>
       <use xlink:href="#m2084cb5296" x="29.7375" y="66.170042" style="fill: #cecece; stroke: #cecece; stroke-width: 0.75"/>
      </g>
     </g>
     <g id="text_24">
      <!-- 5 -->
      <g style="fill: #808080" transform="translate(16.225 69.273792) scale(0.08 -0.08)">
       <use xlink:href="#Ubuntu-35"/>
      </g>
     </g>
    </g>
    <g id="ytick_6">
     <g id="line2d_26">
      <g>
       <use xlink:href="#m2084cb5296" x="29.7375" y="50.564708" style="fill: #cecece; stroke: #cecece; stroke-width: 0.75"/>
      </g>
     </g>
     <g id="text_25">
      <!-- 10 -->
      <g style="fill: #808080" transform="translate(11.7125 53.668458) scale(0.08 -0.08)">
       <use xlink:href="#Ubuntu-31"/>
       <use xlink:href="#Ubuntu-30" x="56.399994"/>
      </g>
     </g>
    </g>
    <g id="ytick_7">
     <g id="line2d_27">
      <g>
       <use xlink:href="#m2084cb5296" x="29.7375" y="34.959375" style="fill: #cecece; stroke: #cecece; stroke-width: 0.75"/>
      </g>
     </g>
     <g id="text_26">
      <!-- 15 -->
      <g style="fill: #808080" transform="translate(11.7125 38.063125) scale(0.08 -0.08)">
       <use xlink:href="#Ubuntu-31"/>
       <use xlink:href="#Ubuntu-35" x="56.399994"/>
      </g>
     </g>
    </g>
   </g>
   <g id="patch_3">
    <path d="M 29.7375 128.591375 
L 29.7375 34.959375 
" style="fill: none; stroke: #cccccc; stroke-width: 0.75; stroke-linejoin: miter; stroke-linecap: square"/>
   </g>
   <g id="patch_4">
    <path d="M 36.695546 133.591375 
L 524.979454 133.591375 
" style="fill: none; stroke: #cccccc; stroke-width: 0.75; stroke-linejoin: miter; stroke-linecap: square"/>
   </g>
   <g id="text_27">
    <!-- Разница в темпах роста городских и сельских доходов -->
    <g style="fill: #505050" transform="translate(29.7375 14.959375) scale(0.1 -0.1)">
     <defs>
      <path id="Ubuntu-Medium-420" d="M 1786 4480 
Q 2752 4480 3267 4128 
Q 3782 3776 3782 3027 
Q 3782 2637 3644 2358 
Q 3507 2080 3244 1904 
Q 2982 1728 2604 1645 
Q 2227 1562 1741 1562 
L 1338 1562 
L 1338 0 
L 531 0 
L 531 4371 
Q 813 4435 1155 4457 
Q 1498 4480 1786 4480 
z
M 1843 3782 
Q 1536 3782 1338 3763 
L 1338 2253 
L 1728 2253 
Q 2310 2253 2624 2416 
Q 2938 2579 2938 3034 
Q 2938 3251 2854 3398 
Q 2771 3546 2624 3629 
Q 2477 3712 2275 3747 
Q 2074 3782 1843 3782 
z
" transform="scale(0.015625)"/>
      <path id="Ubuntu-Medium-430" d="M 1670 544 
Q 2029 544 2214 582 
L 2214 1440 
Q 2150 1459 2028 1478 
Q 1907 1498 1760 1498 
Q 1632 1498 1501 1478 
Q 1370 1459 1264 1408 
Q 1158 1357 1094 1264 
Q 1030 1171 1030 1030 
Q 1030 755 1203 649 
Q 1376 544 1670 544 
z
M 1606 3430 
Q 1990 3430 2252 3334 
Q 2515 3238 2672 3065 
Q 2829 2893 2896 2646 
Q 2963 2400 2963 2106 
L 2963 77 
Q 2784 38 2422 -16 
Q 2061 -70 1606 -70 
Q 1306 -70 1056 -12 
Q 806 45 630 173 
Q 454 301 355 505 
Q 256 710 256 1011 
Q 256 1299 368 1497 
Q 480 1696 672 1821 
Q 864 1946 1117 2000 
Q 1370 2054 1645 2054 
Q 1773 2054 1913 2038 
Q 2054 2022 2214 1984 
L 2214 2112 
Q 2214 2246 2182 2368 
Q 2150 2490 2070 2582 
Q 1990 2675 1859 2726 
Q 1728 2778 1530 2778 
Q 1261 2778 1037 2739 
Q 813 2701 672 2650 
L 576 3277 
Q 723 3328 1004 3379 
Q 1286 3430 1606 3430 
z
" transform="scale(0.015625)"/>
      <path id="Ubuntu-Medium-437" d="M 346 3245 
Q 429 3277 550 3309 
Q 672 3341 813 3366 
Q 954 3392 1110 3408 
Q 1267 3424 1427 3424 
Q 1702 3424 1952 3373 
Q 2202 3322 2387 3206 
Q 2573 3091 2685 2912 
Q 2797 2733 2797 2483 
Q 2797 2214 2649 2028 
Q 2502 1843 2310 1754 
Q 2598 1645 2752 1433 
Q 2906 1222 2906 896 
Q 2906 634 2794 448 
Q 2682 262 2486 144 
Q 2291 26 2028 -28 
Q 1766 -83 1459 -83 
Q 1088 -83 768 -22 
Q 448 38 262 122 
L 397 749 
Q 518 698 787 630 
Q 1056 563 1421 563 
Q 2125 563 2125 973 
Q 2125 1120 2061 1209 
Q 1997 1299 1901 1347 
Q 1805 1395 1683 1411 
Q 1562 1427 1446 1427 
L 806 1427 
L 806 2003 
L 1440 2003 
Q 1677 2003 1846 2089 
Q 2016 2176 2016 2394 
Q 2016 2573 1853 2678 
Q 1690 2784 1395 2784 
Q 1267 2784 1132 2768 
Q 998 2752 873 2726 
Q 749 2701 646 2672 
Q 544 2643 486 2618 
L 346 3245 
z
" transform="scale(0.015625)"/>
      <path id="Ubuntu-Medium-43d" d="M 3302 0 
L 2528 0 
L 2528 1402 
L 1267 1402 
L 1267 0 
L 493 0 
L 493 3347 
L 1267 3347 
L 1267 2042 
L 2528 2042 
L 2528 3347 
L 3302 3347 
L 3302 0 
z
" transform="scale(0.015625)"/>
      <path id="Ubuntu-Medium-438" d="M 3424 3347 
L 3424 0 
L 2656 0 
Q 2656 365 2659 723 
Q 2662 1082 2665 1389 
Q 2669 1696 2672 1923 
Q 2675 2150 2675 2259 
Q 2483 2010 2278 1709 
Q 2074 1408 1872 1107 
Q 1670 806 1491 518 
Q 1312 230 1178 0 
L 493 0 
L 493 3347 
L 1254 3347 
Q 1254 2976 1251 2640 
Q 1248 2304 1248 2029 
Q 1248 1754 1245 1549 
Q 1242 1344 1242 1235 
Q 1421 1510 1613 1801 
Q 1805 2093 2000 2371 
Q 2195 2650 2387 2899 
Q 2579 3149 2758 3347 
L 3424 3347 
z
" transform="scale(0.015625)"/>
      <path id="Ubuntu-Medium-446" d="M 3776 634 
L 3776 -947 
L 3091 -947 
L 3091 0 
L 493 0 
L 493 3347 
L 1267 3347 
L 1267 634 
L 2496 634 
L 2496 3347 
L 3270 3347 
L 3270 634 
L 3776 634 
z
" transform="scale(0.015625)"/>
      <path id="Ubuntu-Medium-20" transform="scale(0.015625)"/>
      <path id="Ubuntu-Medium-432" d="M 1824 -64 
Q 1638 -64 1446 -51 
Q 1254 -38 1078 -19 
Q 902 0 748 22 
Q 595 45 493 70 
L 493 3302 
Q 595 3328 748 3350 
Q 902 3373 1078 3389 
Q 1254 3405 1446 3414 
Q 1638 3424 1824 3424 
Q 2502 3424 2880 3177 
Q 3258 2931 3258 2490 
Q 3258 2259 3142 2080 
Q 3027 1901 2842 1811 
Q 3072 1722 3238 1530 
Q 3405 1338 3405 986 
Q 3405 480 3008 208 
Q 2611 -64 1824 -64 
z
M 1843 2003 
Q 2131 2003 2320 2086 
Q 2509 2170 2509 2419 
Q 2509 2541 2448 2617 
Q 2387 2694 2284 2739 
Q 2182 2784 2048 2800 
Q 1914 2816 1766 2816 
Q 1651 2816 1500 2809 
Q 1350 2803 1261 2790 
L 1261 2003 
L 1843 2003 
z
M 1261 576 
Q 1338 563 1514 553 
Q 1690 544 1843 544 
Q 2189 544 2416 640 
Q 2643 736 2643 1005 
Q 2643 1267 2435 1366 
Q 2227 1466 1894 1466 
L 1261 1466 
L 1261 576 
z
" transform="scale(0.015625)"/>
      <path id="Ubuntu-Medium-442" d="M 3014 2701 
L 1933 2701 
L 1933 0 
L 1158 0 
L 1158 2701 
L 83 2701 
L 83 3347 
L 3014 3347 
L 3014 2701 
z
" transform="scale(0.015625)"/>
      <path id="Ubuntu-Medium-435" d="M 307 1658 
Q 307 2099 438 2432 
Q 570 2765 787 2985 
Q 1005 3206 1286 3318 
Q 1568 3430 1862 3430 
Q 2554 3430 2941 3001 
Q 3328 2573 3328 1722 
Q 3328 1658 3325 1578 
Q 3322 1498 3315 1434 
L 1107 1434 
Q 1139 1030 1392 809 
Q 1645 589 2125 589 
Q 2406 589 2640 640 
Q 2874 691 3008 749 
L 3110 115 
Q 3046 83 2934 48 
Q 2822 13 2678 -16 
Q 2534 -45 2368 -64 
Q 2202 -83 2029 -83 
Q 1587 -83 1260 48 
Q 934 179 723 412 
Q 512 646 409 963 
Q 307 1280 307 1658 
z
M 2554 2003 
Q 2554 2163 2509 2307 
Q 2464 2451 2377 2556 
Q 2291 2662 2166 2723 
Q 2042 2784 1869 2784 
Q 1690 2784 1555 2717 
Q 1421 2650 1328 2541 
Q 1235 2432 1184 2291 
Q 1133 2150 1114 2003 
L 2554 2003 
z
" transform="scale(0.015625)"/>
      <path id="Ubuntu-Medium-43c" d="M 1274 2195 
Q 1254 1926 1235 1635 
Q 1216 1344 1203 1056 
Q 1190 768 1177 499 
Q 1165 230 1158 0 
L 410 0 
Q 422 371 448 803 
Q 474 1235 509 1680 
Q 544 2125 582 2553 
Q 621 2982 666 3347 
L 1338 3347 
Q 1581 2957 1830 2429 
Q 2080 1901 2387 1229 
Q 2707 1914 2969 2467 
Q 3232 3021 3437 3347 
L 4115 3347 
Q 4160 2982 4201 2553 
Q 4243 2125 4275 1680 
Q 4307 1235 4332 803 
Q 4358 371 4371 0 
L 3603 0 
Q 3590 525 3561 1085 
Q 3533 1645 3494 2195 
Q 3398 2003 3286 1766 
Q 3174 1530 3065 1286 
Q 2957 1043 2854 816 
Q 2752 589 2675 416 
L 2099 416 
Q 2022 589 1916 819 
Q 1811 1050 1702 1293 
Q 1594 1536 1482 1769 
Q 1370 2003 1274 2195 
z
" transform="scale(0.015625)"/>
      <path id="Ubuntu-Medium-43f" d="M 3277 3347 
L 3277 0 
L 2502 0 
L 2502 2701 
L 1267 2701 
L 1267 0 
L 493 0 
L 493 3347 
L 3277 3347 
z
" transform="scale(0.015625)"/>
      <path id="Ubuntu-Medium-445" d="M 1696 2253 
L 2406 3347 
L 3219 3347 
L 2118 1766 
Q 2464 1318 2781 860 
Q 3098 403 3302 0 
L 2464 0 
Q 2406 122 2313 278 
Q 2221 435 2115 604 
Q 2010 774 1894 940 
Q 1779 1107 1670 1254 
Q 1446 966 1232 617 
Q 1018 269 877 0 
L 83 0 
Q 179 192 313 409 
Q 448 627 601 854 
Q 755 1082 918 1309 
Q 1082 1536 1242 1741 
L 134 3347 
L 986 3347 
L 1696 2253 
z
" transform="scale(0.015625)"/>
      <path id="Ubuntu-Medium-440" d="M 2714 1658 
Q 2714 2176 2480 2464 
Q 2246 2752 1728 2752 
Q 1619 2752 1500 2742 
Q 1382 2733 1267 2701 
L 1267 787 
Q 1370 717 1539 656 
Q 1709 595 1901 595 
Q 2323 595 2518 883 
Q 2714 1171 2714 1658 
z
M 3507 1670 
Q 3507 1286 3408 966 
Q 3309 646 3123 416 
Q 2938 186 2659 58 
Q 2381 -70 2029 -70 
Q 1792 -70 1593 -12 
Q 1395 45 1267 115 
L 1267 -1184 
L 493 -1184 
L 493 3238 
Q 730 3302 1075 3360 
Q 1421 3418 1805 3418 
Q 2202 3418 2515 3296 
Q 2829 3174 3049 2947 
Q 3270 2720 3388 2397 
Q 3507 2074 3507 1670 
z
" transform="scale(0.015625)"/>
      <path id="Ubuntu-Medium-43e" d="M 3520 1677 
Q 3520 1280 3405 953 
Q 3290 627 3078 396 
Q 2867 166 2569 38 
Q 2272 -90 1914 -90 
Q 1555 -90 1260 38 
Q 966 166 755 396 
Q 544 627 425 953 
Q 307 1280 307 1677 
Q 307 2074 425 2397 
Q 544 2720 758 2950 
Q 973 3181 1267 3305 
Q 1562 3430 1914 3430 
Q 2266 3430 2563 3305 
Q 2861 3181 3072 2950 
Q 3283 2720 3401 2397 
Q 3520 2074 3520 1677 
z
M 2726 1677 
Q 2726 2176 2512 2467 
Q 2298 2758 1914 2758 
Q 1530 2758 1315 2467 
Q 1101 2176 1101 1677 
Q 1101 1171 1315 876 
Q 1530 582 1914 582 
Q 2298 582 2512 876 
Q 2726 1171 2726 1677 
z
" transform="scale(0.015625)"/>
      <path id="Ubuntu-Medium-441" d="M 307 1670 
Q 307 2042 422 2365 
Q 538 2688 752 2925 
Q 966 3162 1273 3296 
Q 1581 3430 1965 3430 
Q 2438 3430 2861 3258 
L 2694 2624 
Q 2560 2682 2390 2720 
Q 2221 2758 2029 2758 
Q 1574 2758 1337 2473 
Q 1101 2189 1101 1670 
Q 1101 1171 1325 880 
Q 1549 589 2080 589 
Q 2278 589 2470 627 
Q 2662 666 2803 723 
L 2912 83 
Q 2784 19 2525 -32 
Q 2266 -83 1990 -83 
Q 1562 -83 1245 48 
Q 928 179 720 412 
Q 512 646 409 969 
Q 307 1293 307 1670 
z
" transform="scale(0.015625)"/>
      <path id="Ubuntu-Medium-433" d="M 2714 2707 
L 1267 2707 
L 1267 0 
L 493 0 
L 493 3347 
L 2714 3347 
L 2714 2707 
z
" transform="scale(0.015625)"/>
      <path id="Ubuntu-Medium-434" d="M 83 634 
L 467 634 
Q 666 896 778 1219 
Q 890 1542 941 1897 
Q 992 2253 1005 2624 
Q 1018 2995 1024 3347 
L 3424 3347 
L 3424 634 
L 3936 634 
L 3936 -947 
L 3245 -947 
L 3245 0 
L 768 0 
L 768 -947 
L 83 -947 
L 83 634 
z
M 2650 634 
L 2650 2707 
L 1741 2707 
Q 1728 2445 1709 2173 
Q 1690 1901 1638 1635 
Q 1587 1370 1500 1117 
Q 1414 864 1274 634 
L 2650 634 
z
" transform="scale(0.015625)"/>
      <path id="Ubuntu-Medium-43a" d="M 1267 2003 
Q 1414 2150 1587 2332 
Q 1760 2515 1929 2700 
Q 2099 2886 2252 3056 
Q 2406 3226 2509 3347 
L 3418 3347 
Q 3277 3181 3094 2982 
Q 2912 2784 2717 2576 
Q 2522 2368 2333 2173 
Q 2144 1978 1990 1824 
Q 2189 1658 2403 1437 
Q 2618 1216 2826 969 
Q 3034 723 3213 470 
Q 3392 218 3514 0 
L 2618 0 
Q 2496 192 2333 403 
Q 2170 614 1990 816 
Q 1811 1018 1625 1197 
Q 1440 1376 1267 1504 
L 1267 0 
L 493 0 
L 493 3347 
L 1267 3347 
L 1267 2003 
z
" transform="scale(0.015625)"/>
      <path id="Ubuntu-Medium-43b" d="M 1805 2707 
Q 1798 2426 1785 2122 
Q 1773 1818 1725 1523 
Q 1677 1229 1574 960 
Q 1472 691 1289 476 
Q 1107 262 835 118 
Q 563 -26 173 -64 
L 64 582 
Q 390 646 569 790 
Q 749 934 845 1158 
Q 922 1325 963 1536 
Q 1005 1747 1027 1980 
Q 1050 2214 1056 2457 
Q 1062 2701 1062 2931 
L 1062 3347 
L 3430 3347 
L 3430 0 
L 2656 0 
L 2656 2707 
L 1805 2707 
z
" transform="scale(0.015625)"/>
      <path id="Ubuntu-Medium-44c" d="M 1267 2112 
Q 1363 2138 1548 2157 
Q 1734 2176 1920 2176 
Q 2208 2176 2461 2112 
Q 2714 2048 2899 1910 
Q 3085 1773 3193 1558 
Q 3302 1344 3302 1050 
Q 3302 749 3200 537 
Q 3098 326 2906 192 
Q 2714 58 2448 -6 
Q 2182 -70 1856 -70 
Q 1478 -70 1152 -32 
Q 826 6 493 83 
L 493 3347 
L 1267 3347 
L 1267 2112 
z
M 1837 538 
Q 2163 538 2345 662 
Q 2528 787 2528 1062 
Q 2528 1203 2467 1299 
Q 2406 1395 2307 1456 
Q 2208 1517 2073 1542 
Q 1939 1568 1792 1568 
Q 1658 1568 1510 1558 
Q 1363 1549 1267 1523 
L 1267 570 
Q 1350 557 1513 547 
Q 1677 538 1837 538 
z
" transform="scale(0.015625)"/>
     </defs>
     <use xlink:href="#Ubuntu-Medium-420"/>
     <use xlink:href="#Ubuntu-Medium-430" x="60.549988"/>
     <use xlink:href="#Ubuntu-Medium-437" x="113.949982"/>
     <use xlink:href="#Ubuntu-Medium-43d" x="163.949966"/>
     <use xlink:href="#Ubuntu-Medium-438" x="223.249954"/>
     <use xlink:href="#Ubuntu-Medium-446" x="284.449951"/>
     <use xlink:href="#Ubuntu-Medium-430" x="345.249939"/>
     <use xlink:href="#Ubuntu-Medium-20" x="398.649933"/>
     <use xlink:href="#Ubuntu-Medium-432" x="421.949921"/>
     <use xlink:href="#Ubuntu-Medium-20" x="478.849915"/>
     <use xlink:href="#Ubuntu-Medium-442" x="502.149902"/>
     <use xlink:href="#Ubuntu-Medium-435" x="550.549896"/>
     <use xlink:href="#Ubuntu-Medium-43c" x="607.649887"/>
     <use xlink:href="#Ubuntu-Medium-43f" x="682.349869"/>
     <use xlink:href="#Ubuntu-Medium-430" x="741.249863"/>
     <use xlink:href="#Ubuntu-Medium-445" x="794.649857"/>
     <use xlink:href="#Ubuntu-Medium-20" x="847.54985"/>
     <use xlink:href="#Ubuntu-Medium-440" x="870.849838"/>
     <use xlink:href="#Ubuntu-Medium-43e" x="930.449829"/>
     <use xlink:href="#Ubuntu-Medium-441" x="990.249817"/>
     <use xlink:href="#Ubuntu-Medium-442" x="1038.699814"/>
     <use xlink:href="#Ubuntu-Medium-430" x="1087.099808"/>
     <use xlink:href="#Ubuntu-Medium-20" x="1140.499802"/>
     <use xlink:href="#Ubuntu-Medium-433" x="1163.799789"/>
     <use xlink:href="#Ubuntu-Medium-43e" x="1207.499786"/>
     <use xlink:href="#Ubuntu-Medium-440" x="1267.299774"/>
     <use xlink:href="#Ubuntu-Medium-43e" x="1326.899765"/>
     <use xlink:href="#Ubuntu-Medium-434" x="1386.699753"/>
     <use xlink:href="#Ubuntu-Medium-441" x="1449.999741"/>
     <use xlink:href="#Ubuntu-Medium-43a" x="1497.199738"/>
     <use xlink:href="#Ubuntu-Medium-438" x="1553.199722"/>
     <use xlink:href="#Ubuntu-Medium-445" x="1614.399719"/>
     <use xlink:href="#Ubuntu-Medium-20" x="1667.299713"/>
     <use xlink:href="#Ubuntu-Medium-438" x="1690.599701"/>
     <use xlink:href="#Ubuntu-Medium-20" x="1751.799698"/>
     <use xlink:href="#Ubuntu-Medium-441" x="1775.099686"/>
     <use xlink:href="#Ubuntu-Medium-435" x="1822.299683"/>
     <use xlink:href="#Ubuntu-Medium-43b" x="1879.399673"/>
     <use xlink:href="#Ubuntu-Medium-44c" x="1940.699661"/>
     <use xlink:href="#Ubuntu-Medium-441" x="1995.599655"/>
     <use xlink:href="#Ubuntu-Medium-43a" x="2042.799652"/>
     <use xlink:href="#Ubuntu-Medium-438" x="2098.799637"/>
     <use xlink:href="#Ubuntu-Medium-445" x="2159.999634"/>
     <use xlink:href="#Ubuntu-Medium-20" x="2212.899628"/>
     <use xlink:href="#Ubuntu-Medium-434" x="2236.199615"/>
     <use xlink:href="#Ubuntu-Medium-43e" x="2299.499603"/>
     <use xlink:href="#Ubuntu-Medium-445" x="2357.799591"/>
     <use xlink:href="#Ubuntu-Medium-43e" x="2408.949585"/>
     <use xlink:href="#Ubuntu-Medium-434" x="2468.749573"/>
     <use xlink:href="#Ubuntu-Medium-43e" x="2532.049561"/>
     <use xlink:href="#Ubuntu-Medium-432" x="2591.849548"/>
    </g>
   </g>
   <g id="patch_5">
    <path d="M 0 0 
z
" clip-path="url(#pcb4d090a4f)" style="fill: #ba5b58"/>
   </g>
   <g id="patch_6">
    <path d="M 34.661029 81.775375 
L 38.730062 81.775375 
L 38.730062 58.51793 
L 34.661029 58.51793 
z
" clip-path="url(#pcb4d090a4f)" style="fill: #ba5b58"/>
   </g>
   <g id="patch_7">
    <path d="M 61.787913 81.775375 
L 65.856946 81.775375 
L 65.856946 70.070096 
L 61.787913 70.070096 
z
" clip-path="url(#pcb4d090a4f)" style="fill: #ba5b58"/>
   </g>
   <g id="patch_8">
    <path d="M 88.914797 81.775375 
L 92.98383 81.775375 
L 92.98383 89.327727 
L 88.914797 89.327727 
z
" clip-path="url(#pcb4d090a4f)" style="fill: #ba5b58"/>
   </g>
   <g id="patch_9">
    <path d="M 116.041681 81.775375 
L 120.110713 81.775375 
L 120.110713 84.66276 
L 116.041681 84.66276 
z
" clip-path="url(#pcb4d090a4f)" style="fill: #ba5b58"/>
   </g>
   <g id="patch_10">
    <path d="M 143.168565 81.775375 
L 147.237597 81.775375 
L 147.237597 89.817412 
L 143.168565 89.817412 
z
" clip-path="url(#pcb4d090a4f)" style="fill: #ba5b58"/>
   </g>
   <g id="patch_11">
    <path d="M 170.295448 81.775375 
L 174.364481 81.775375 
L 174.364481 97.691585 
L 170.295448 97.691585 
z
" clip-path="url(#pcb4d090a4f)" style="fill: #ba5b58"/>
   </g>
   <g id="patch_12">
    <path d="M 197.422332 81.775375 
L 201.491365 81.775375 
L 201.491365 91.341748 
L 197.422332 91.341748 
z
" clip-path="url(#pcb4d090a4f)" style="fill: #ba5b58"/>
   </g>
   <g id="patch_13">
    <path d="M 224.549216 81.775375 
L 228.618249 81.775375 
L 228.618249 92.726307 
L 224.549216 92.726307 
z
" clip-path="url(#pcb4d090a4f)" style="fill: #ba5b58"/>
   </g>
   <g id="patch_14">
    <path d="M 251.6761 81.775375 
L 255.745132 81.775375 
L 255.745132 87.542497 
L 251.6761 87.542497 
z
" clip-path="url(#pcb4d090a4f)" style="fill: #ba5b58"/>
   </g>
   <g id="patch_15">
    <path d="M 278.802984 81.775375 
L 282.872016 81.775375 
L 282.872016 52.635329 
L 278.802984 52.635329 
z
" clip-path="url(#pcb4d090a4f)" style="fill: #ba5b58"/>
   </g>
   <g id="patch_16">
    <path d="M 305.929868 81.775375 
L 309.9989 81.775375 
L 309.9989 94.723536 
L 305.929868 94.723536 
z
" clip-path="url(#pcb4d090a4f)" style="fill: #ba5b58"/>
   </g>
   <g id="patch_17">
    <path d="M 333.056751 81.775375 
L 337.125784 81.775375 
L 337.125784 96.850591 
L 333.056751 96.850591 
z
" clip-path="url(#pcb4d090a4f)" style="fill: #ba5b58"/>
   </g>
   <g id="patch_18">
    <path d="M 360.183635 81.775375 
L 364.252668 81.775375 
L 364.252668 72.62951 
L 360.183635 72.62951 
z
" clip-path="url(#pcb4d090a4f)" style="fill: #ba5b58"/>
   </g>
   <g id="patch_19">
    <path d="M 387.310519 81.775375 
L 391.379552 81.775375 
L 391.379552 100.694118 
L 387.310519 100.694118 
z
" clip-path="url(#pcb4d090a4f)" style="fill: #ba5b58"/>
   </g>
   <g id="patch_20">
    <path d="M 414.437403 81.775375 
L 418.506435 81.775375 
L 418.506435 69.80659 
L 414.437403 69.80659 
z
" clip-path="url(#pcb4d090a4f)" style="fill: #ba5b58"/>
   </g>
   <g id="patch_21">
    <path d="M 441.564287 81.775375 
L 445.633319 81.775375 
L 445.633319 75.764324 
L 441.564287 75.764324 
z
" clip-path="url(#pcb4d090a4f)" style="fill: #ba5b58"/>
   </g>
   <g id="patch_22">
    <path d="M 468.69117 81.775375 
L 472.760203 81.775375 
L 472.760203 99.311083 
L 468.69117 99.311083 
z
" clip-path="url(#pcb4d090a4f)" style="fill: #ba5b58"/>
   </g>
   <g id="patch_23">
    <path d="M 495.818054 81.775375 
L 499.887087 81.775375 
L 499.887087 80.081079 
L 495.818054 80.081079 
z
" clip-path="url(#pcb4d090a4f)" style="fill: #ba5b58"/>
   </g>
   <g id="patch_24">
    <path d="M 522.944938 81.775375 
L 527.013971 81.775375 
L 527.013971 82.311333 
L 522.944938 82.311333 
z
" clip-path="url(#pcb4d090a4f)" style="fill: #ba5b58"/>
   </g>
  </g>
  <g id="axes_2">
   <g id="patch_25">
    <path d="M 29.7375 298.299375 
L 531.9375 298.299375 
L 531.9375 181.259375 
L 29.7375 181.259375 
L 29.7375 298.299375 
z
" style="fill: none"/>
   </g>
   <g id="line2d_28">
    <path d="M 34.7595 243.436875 
L 526.9155 243.436875 
" clip-path="url(#p37a239cd7f)" style="fill: none; stroke-dasharray: 2.775,1.2; stroke-dashoffset: 0; stroke: #cccccc; stroke-width: 0.75"/>
   </g>
   <g id="line2d_29">
    <path d="M 215.190441 298.299375 
L 215.190441 204.667375 
" clip-path="url(#p37a239cd7f)" style="fill: none; stroke-dasharray: 0.85,1.4025; stroke-dashoffset: 0; stroke: #af4035; stroke-opacity: 0.75; stroke-width: 0.85"/>
   </g>
   <g id="line2d_30">
    <path d="M 232.969853 298.299375 
L 232.969853 189.452175 
" clip-path="url(#p37a239cd7f)" style="fill: none; stroke-dasharray: 0.85,1.4025; stroke-dashoffset: 0; stroke: #af4035; stroke-opacity: 0.75; stroke-width: 0.85"/>
   </g>
   <g id="matplotlib.axis_3">
    <g id="xtick_20">
     <g id="line2d_31">
      <g>
       <use xlink:href="#m8a2ed573a3" x="34.661029" y="303.299375" style="fill: #cecece; stroke: #cecece; stroke-width: 0.75"/>
      </g>
     </g>
     <g id="text_28">
      <!-- 2004 -->
      <g style="fill: #808080" transform="translate(25.636029 318.506875) scale(0.08 -0.08)">
       <use xlink:href="#Ubuntu-32"/>
       <use xlink:href="#Ubuntu-30" x="56.399994"/>
       <use xlink:href="#Ubuntu-30" x="112.799988"/>
       <use xlink:href="#Ubuntu-34" x="169.199982"/>
      </g>
     </g>
    </g>
    <g id="xtick_21">
     <g id="line2d_32">
      <g>
       <use xlink:href="#m8a2ed573a3" x="62.013971" y="303.299375" style="fill: #cecece; stroke: #cecece; stroke-width: 0.75"/>
      </g>
     </g>
     <g id="text_29">
      <!-- 2005 -->
      <g style="fill: #808080" transform="translate(52.988971 318.506875) scale(0.08 -0.08)">
       <use xlink:href="#Ubuntu-32"/>
       <use xlink:href="#Ubuntu-30" x="56.399994"/>
       <use xlink:href="#Ubuntu-30" x="112.799988"/>
       <use xlink:href="#Ubuntu-35" x="169.199982"/>
      </g>
     </g>
    </g>
    <g id="xtick_22">
     <g id="line2d_33">
      <g>
       <use xlink:href="#m8a2ed573a3" x="89.366912" y="303.299375" style="fill: #cecece; stroke: #cecece; stroke-width: 0.75"/>
      </g>
     </g>
     <g id="text_30">
      <!-- 2006 -->
      <g style="fill: #808080" transform="translate(80.341912 318.506875) scale(0.08 -0.08)">
       <use xlink:href="#Ubuntu-32"/>
       <use xlink:href="#Ubuntu-30" x="56.399994"/>
       <use xlink:href="#Ubuntu-30" x="112.799988"/>
       <use xlink:href="#Ubuntu-36" x="169.199982"/>
      </g>
     </g>
    </g>
    <g id="xtick_23">
     <g id="line2d_34">
      <g>
       <use xlink:href="#m8a2ed573a3" x="116.719853" y="303.299375" style="fill: #cecece; stroke: #cecece; stroke-width: 0.75"/>
      </g>
     </g>
     <g id="text_31">
      <!-- 2007 -->
      <g style="fill: #808080" transform="translate(107.694853 318.506875) scale(0.08 -0.08)">
       <use xlink:href="#Ubuntu-32"/>
       <use xlink:href="#Ubuntu-30" x="56.399994"/>
       <use xlink:href="#Ubuntu-30" x="112.799988"/>
       <use xlink:href="#Ubuntu-37" x="169.199982"/>
      </g>
     </g>
    </g>
    <g id="xtick_24">
     <g id="line2d_35">
      <g>
       <use xlink:href="#m8a2ed573a3" x="144.072794" y="303.299375" style="fill: #cecece; stroke: #cecece; stroke-width: 0.75"/>
      </g>
     </g>
     <g id="text_32">
      <!-- 2008 -->
      <g style="fill: #808080" transform="translate(135.047794 318.506875) scale(0.08 -0.08)">
       <use xlink:href="#Ubuntu-32"/>
       <use xlink:href="#Ubuntu-30" x="56.399994"/>
       <use xlink:href="#Ubuntu-30" x="112.799988"/>
       <use xlink:href="#Ubuntu-38" x="169.199982"/>
      </g>
     </g>
    </g>
    <g id="xtick_25">
     <g id="line2d_36">
      <g>
       <use xlink:href="#m8a2ed573a3" x="171.425735" y="303.299375" style="fill: #cecece; stroke: #cecece; stroke-width: 0.75"/>
      </g>
     </g>
     <g id="text_33">
      <!-- 2009 -->
      <g style="fill: #808080" transform="translate(162.400735 318.506875) scale(0.08 -0.08)">
       <use xlink:href="#Ubuntu-32"/>
       <use xlink:href="#Ubuntu-30" x="56.399994"/>
       <use xlink:href="#Ubuntu-30" x="112.799988"/>
       <use xlink:href="#Ubuntu-39" x="169.199982"/>
      </g>
     </g>
    </g>
    <g id="xtick_26">
     <g id="line2d_37">
      <g>
       <use xlink:href="#m8a2ed573a3" x="198.778676" y="303.299375" style="fill: #cecece; stroke: #cecece; stroke-width: 0.75"/>
      </g>
     </g>
     <g id="text_34">
      <!-- 2010 -->
      <g style="fill: #808080" transform="translate(189.753676 318.506875) scale(0.08 -0.08)">
       <use xlink:href="#Ubuntu-32"/>
       <use xlink:href="#Ubuntu-30" x="56.399994"/>
       <use xlink:href="#Ubuntu-31" x="112.799988"/>
       <use xlink:href="#Ubuntu-30" x="169.199982"/>
      </g>
     </g>
    </g>
    <g id="xtick_27">
     <g id="line2d_38">
      <g>
       <use xlink:href="#m8a2ed573a3" x="226.131618" y="303.299375" style="fill: #cecece; stroke: #cecece; stroke-width: 0.75"/>
      </g>
     </g>
     <g id="text_35">
      <!-- 2011 -->
      <g style="fill: #808080" transform="translate(217.106618 318.506875) scale(0.08 -0.08)">
       <use xlink:href="#Ubuntu-32"/>
       <use xlink:href="#Ubuntu-30" x="56.399994"/>
       <use xlink:href="#Ubuntu-31" x="112.799988"/>
       <use xlink:href="#Ubuntu-31" x="169.199982"/>
      </g>
     </g>
    </g>
    <g id="xtick_28">
     <g id="line2d_39">
      <g>
       <use xlink:href="#m8a2ed573a3" x="253.484559" y="303.299375" style="fill: #cecece; stroke: #cecece; stroke-width: 0.75"/>
      </g>
     </g>
     <g id="text_36">
      <!-- 2012 -->
      <g style="fill: #808080" transform="translate(244.459559 318.506875) scale(0.08 -0.08)">
       <use xlink:href="#Ubuntu-32"/>
       <use xlink:href="#Ubuntu-30" x="56.399994"/>
       <use xlink:href="#Ubuntu-31" x="112.799988"/>
       <use xlink:href="#Ubuntu-32" x="169.199982"/>
      </g>
     </g>
    </g>
    <g id="xtick_29">
     <g id="line2d_40">
      <g>
       <use xlink:href="#m8a2ed573a3" x="280.8375" y="303.299375" style="fill: #cecece; stroke: #cecece; stroke-width: 0.75"/>
      </g>
     </g>
     <g id="text_37">
      <!-- 2013 -->
      <g style="fill: #808080" transform="translate(271.8125 318.506875) scale(0.08 -0.08)">
       <use xlink:href="#Ubuntu-32"/>
       <use xlink:href="#Ubuntu-30" x="56.399994"/>
       <use xlink:href="#Ubuntu-31" x="112.799988"/>
       <use xlink:href="#Ubuntu-33" x="169.199982"/>
      </g>
     </g>
    </g>
    <g id="xtick_30">
     <g id="line2d_41">
      <g>
       <use xlink:href="#m8a2ed573a3" x="308.190441" y="303.299375" style="fill: #cecece; stroke: #cecece; stroke-width: 0.75"/>
      </g>
     </g>
     <g id="text_38">
      <!-- 2014 -->
      <g style="fill: #808080" transform="translate(299.165441 318.506875) scale(0.08 -0.08)">
       <use xlink:href="#Ubuntu-32"/>
       <use xlink:href="#Ubuntu-30" x="56.399994"/>
       <use xlink:href="#Ubuntu-31" x="112.799988"/>
       <use xlink:href="#Ubuntu-34" x="169.199982"/>
      </g>
     </g>
    </g>
    <g id="xtick_31">
     <g id="line2d_42">
      <g>
       <use xlink:href="#m8a2ed573a3" x="335.543382" y="303.299375" style="fill: #cecece; stroke: #cecece; stroke-width: 0.75"/>
      </g>
     </g>
     <g id="text_39">
      <!-- 2015 -->
      <g style="fill: #808080" transform="translate(326.518382 318.506875) scale(0.08 -0.08)">
       <use xlink:href="#Ubuntu-32"/>
       <use xlink:href="#Ubuntu-30" x="56.399994"/>
       <use xlink:href="#Ubuntu-31" x="112.799988"/>
       <use xlink:href="#Ubuntu-35" x="169.199982"/>
      </g>
     </g>
    </g>
    <g id="xtick_32">
     <g id="line2d_43">
      <g>
       <use xlink:href="#m8a2ed573a3" x="362.896324" y="303.299375" style="fill: #cecece; stroke: #cecece; stroke-width: 0.75"/>
      </g>
     </g>
     <g id="text_40">
      <!-- 2016 -->
      <g style="fill: #808080" transform="translate(353.871324 318.506875) scale(0.08 -0.08)">
       <use xlink:href="#Ubuntu-32"/>
       <use xlink:href="#Ubuntu-30" x="56.399994"/>
       <use xlink:href="#Ubuntu-31" x="112.799988"/>
       <use xlink:href="#Ubuntu-36" x="169.199982"/>
      </g>
     </g>
    </g>
    <g id="xtick_33">
     <g id="line2d_44">
      <g>
       <use xlink:href="#m8a2ed573a3" x="390.249265" y="303.299375" style="fill: #cecece; stroke: #cecece; stroke-width: 0.75"/>
      </g>
     </g>
     <g id="text_41">
      <!-- 2017 -->
      <g style="fill: #808080" transform="translate(381.224265 318.506875) scale(0.08 -0.08)">
       <use xlink:href="#Ubuntu-32"/>
       <use xlink:href="#Ubuntu-30" x="56.399994"/>
       <use xlink:href="#Ubuntu-31" x="112.799988"/>
       <use xlink:href="#Ubuntu-37" x="169.199982"/>
      </g>
     </g>
    </g>
    <g id="xtick_34">
     <g id="line2d_45">
      <g>
       <use xlink:href="#m8a2ed573a3" x="417.602206" y="303.299375" style="fill: #cecece; stroke: #cecece; stroke-width: 0.75"/>
      </g>
     </g>
     <g id="text_42">
      <!-- 2018 -->
      <g style="fill: #808080" transform="translate(408.577206 318.506875) scale(0.08 -0.08)">
       <use xlink:href="#Ubuntu-32"/>
       <use xlink:href="#Ubuntu-30" x="56.399994"/>
       <use xlink:href="#Ubuntu-31" x="112.799988"/>
       <use xlink:href="#Ubuntu-38" x="169.199982"/>
      </g>
     </g>
    </g>
    <g id="xtick_35">
     <g id="line2d_46">
      <g>
       <use xlink:href="#m8a2ed573a3" x="444.955147" y="303.299375" style="fill: #cecece; stroke: #cecece; stroke-width: 0.75"/>
      </g>
     </g>
     <g id="text_43">
      <!-- 2019 -->
      <g style="fill: #808080" transform="translate(435.930147 318.506875) scale(0.08 -0.08)">
       <use xlink:href="#Ubuntu-32"/>
       <use xlink:href="#Ubuntu-30" x="56.399994"/>
       <use xlink:href="#Ubuntu-31" x="112.799988"/>
       <use xlink:href="#Ubuntu-39" x="169.199982"/>
      </g>
     </g>
    </g>
    <g id="xtick_36">
     <g id="line2d_47">
      <g>
       <use xlink:href="#m8a2ed573a3" x="472.308088" y="303.299375" style="fill: #cecece; stroke: #cecece; stroke-width: 0.75"/>
      </g>
     </g>
     <g id="text_44">
      <!-- 2020 -->
      <g style="fill: #808080" transform="translate(463.283088 318.506875) scale(0.08 -0.08)">
       <use xlink:href="#Ubuntu-32"/>
       <use xlink:href="#Ubuntu-30" x="56.399994"/>
       <use xlink:href="#Ubuntu-32" x="112.799988"/>
       <use xlink:href="#Ubuntu-30" x="169.199982"/>
      </g>
     </g>
    </g>
    <g id="xtick_37">
     <g id="line2d_48">
      <g>
       <use xlink:href="#m8a2ed573a3" x="499.661029" y="303.299375" style="fill: #cecece; stroke: #cecece; stroke-width: 0.75"/>
      </g>
     </g>
     <g id="text_45">
      <!-- 2021 -->
      <g style="fill: #808080" transform="translate(490.636029 318.506875) scale(0.08 -0.08)">
       <use xlink:href="#Ubuntu-32"/>
       <use xlink:href="#Ubuntu-30" x="56.399994"/>
       <use xlink:href="#Ubuntu-32" x="112.799988"/>
       <use xlink:href="#Ubuntu-31" x="169.199982"/>
      </g>
     </g>
    </g>
    <g id="xtick_38">
     <g id="line2d_49">
      <g>
       <use xlink:href="#m8a2ed573a3" x="527.013971" y="303.299375" style="fill: #cecece; stroke: #cecece; stroke-width: 0.75"/>
      </g>
     </g>
     <g id="text_46">
      <!-- 2022 -->
      <g style="fill: #808080" transform="translate(517.988971 318.506875) scale(0.08 -0.08)">
       <use xlink:href="#Ubuntu-32"/>
       <use xlink:href="#Ubuntu-30" x="56.399994"/>
       <use xlink:href="#Ubuntu-32" x="112.799988"/>
       <use xlink:href="#Ubuntu-32" x="169.199982"/>
      </g>
     </g>
    </g>
   </g>
   <g id="matplotlib.axis_4">
    <g id="ytick_8">
     <g id="line2d_50">
      <g>
       <use xlink:href="#m2084cb5296" x="29.7375" y="298.299375" style="fill: #cecece; stroke: #cecece; stroke-width: 0.75"/>
      </g>
     </g>
     <g id="text_47">
      <!-- −15 -->
      <g style="fill: #808080" transform="translate(7.2 301.403125) scale(0.08 -0.08)">
       <use xlink:href="#Ubuntu-2212"/>
       <use xlink:href="#Ubuntu-31" x="56.399994"/>
       <use xlink:href="#Ubuntu-35" x="112.799988"/>
      </g>
     </g>
    </g>
    <g id="ytick_9">
     <g id="line2d_51">
      <g>
       <use xlink:href="#m2084cb5296" x="29.7375" y="280.011875" style="fill: #cecece; stroke: #cecece; stroke-width: 0.75"/>
      </g>
     </g>
     <g id="text_48">
      <!-- −10 -->
      <g style="fill: #808080" transform="translate(7.2 283.115625) scale(0.08 -0.08)">
       <use xlink:href="#Ubuntu-2212"/>
       <use xlink:href="#Ubuntu-31" x="56.399994"/>
       <use xlink:href="#Ubuntu-30" x="112.799988"/>
      </g>
     </g>
    </g>
    <g id="ytick_10">
     <g id="line2d_52">
      <g>
       <use xlink:href="#m2084cb5296" x="29.7375" y="261.724375" style="fill: #cecece; stroke: #cecece; stroke-width: 0.75"/>
      </g>
     </g>
     <g id="text_49">
      <!-- −5 -->
      <g style="fill: #808080" transform="translate(11.7125 264.828125) scale(0.08 -0.08)">
       <use xlink:href="#Ubuntu-2212"/>
       <use xlink:href="#Ubuntu-35" x="56.399994"/>
      </g>
     </g>
    </g>
    <g id="ytick_11">
     <g id="line2d_53">
      <g>
       <use xlink:href="#m2084cb5296" x="29.7375" y="243.436875" style="fill: #cecece; stroke: #cecece; stroke-width: 0.75"/>
      </g>
     </g>
     <g id="text_50">
      <!-- 0 -->
      <g style="fill: #808080" transform="translate(16.225 246.540625) scale(0.08 -0.08)">
       <use xlink:href="#Ubuntu-30"/>
      </g>
     </g>
    </g>
    <g id="ytick_12">
     <g id="line2d_54">
      <g>
       <use xlink:href="#m2084cb5296" x="29.7375" y="225.149375" style="fill: #cecece; stroke: #cecece; stroke-width: 0.75"/>
      </g>
     </g>
     <g id="text_51">
      <!-- 5 -->
      <g style="fill: #808080" transform="translate(16.225 228.253125) scale(0.08 -0.08)">
       <use xlink:href="#Ubuntu-35"/>
      </g>
     </g>
    </g>
    <g id="ytick_13">
     <g id="line2d_55">
      <g>
       <use xlink:href="#m2084cb5296" x="29.7375" y="206.861875" style="fill: #cecece; stroke: #cecece; stroke-width: 0.75"/>
      </g>
     </g>
     <g id="text_52">
      <!-- 10 -->
      <g style="fill: #808080" transform="translate(11.7125 209.965625) scale(0.08 -0.08)">
       <use xlink:href="#Ubuntu-31"/>
       <use xlink:href="#Ubuntu-30" x="56.399994"/>
      </g>
     </g>
    </g>
    <g id="ytick_14">
     <g id="line2d_56">
      <g>
       <use xlink:href="#m2084cb5296" x="29.7375" y="188.574375" style="fill: #cecece; stroke: #cecece; stroke-width: 0.75"/>
      </g>
     </g>
     <g id="text_53">
      <!-- 15 -->
      <g style="fill: #808080" transform="translate(11.7125 191.678125) scale(0.08 -0.08)">
       <use xlink:href="#Ubuntu-31"/>
       <use xlink:href="#Ubuntu-35" x="56.399994"/>
      </g>
     </g>
    </g>
   </g>
   <g id="line2d_57">
    <path d="M 34.661029 216.182057 
L 36.307695 215.634283 
L 37.95436 215.325425 
L 39.601025 215.242273 
L 41.247691 215.37162 
L 42.894356 215.700257 
L 44.541022 216.214978 
L 46.187687 216.902574 
L 47.834352 217.749838 
L 49.481018 218.743561 
L 52.774348 221.117554 
L 56.067679 223.918891 
L 59.36101 227.041909 
L 64.301006 232.098451 
L 72.534333 240.637536 
L 75.827663 243.784017 
L 79.120994 246.618202 
L 82.414325 249.034428 
L 84.06099 250.052787 
L 85.707655 250.927033 
L 87.354321 251.643958 
L 89.000986 252.190353 
L 90.647651 252.555422 
L 92.294317 252.747502 
L 93.940982 252.784058 
L 95.587648 252.68261 
L 98.880978 252.135786 
L 102.174309 251.247195 
L 107.114305 249.580103 
L 112.054301 247.932459 
L 115.347632 247.078443 
L 118.640963 246.577491 
L 121.934293 246.467955 
L 125.227624 246.711117 
L 128.520955 247.266077 
L 131.814285 248.091935 
L 135.107616 249.14779 
L 138.400947 250.392742 
L 143.340943 252.525257 
L 156.514266 258.587495 
L 159.807596 259.855091 
L 163.100927 260.896109 
L 166.394258 261.646853 
L 169.687589 262.043624 
L 172.980919 262.025383 
L 176.27425 261.601003 
L 179.567581 260.85453 
L 182.860911 259.873719 
L 189.447573 257.560103 
L 194.387569 255.862434 
L 197.6809 254.913074 
L 200.97423 254.206814 
L 204.267561 253.765576 
L 207.560892 253.572167 
L 210.854222 253.608745 
L 214.147553 253.857466 
L 217.440884 254.300488 
L 220.734215 254.919967 
L 225.674211 256.141012 
L 233.907537 258.423724 
L 237.200868 258.938134 
L 238.847533 259.01396 
L 240.494199 258.936881 
L 242.140864 258.682908 
L 243.78753 258.228053 
L 245.434195 257.548327 
L 247.08086 256.61974 
L 248.727526 255.418304 
L 250.374191 253.92003 
L 252.020856 252.100929 
L 253.667522 249.937032 
L 255.314187 247.424101 
L 256.960852 244.61466 
L 260.254183 238.356904 
L 268.48751 221.91014 
L 270.134175 218.984559 
L 271.780841 216.326455 
L 273.427506 213.998493 
L 275.074171 212.063339 
L 276.720837 210.583656 
L 278.367502 209.622111 
L 280.014167 209.24137 
L 281.660833 209.501479 
L 283.307498 210.402292 
L 284.954163 211.883463 
L 286.600829 213.882032 
L 288.247494 216.335035 
L 289.894159 219.179513 
L 291.540825 222.352503 
L 294.834156 229.432172 
L 304.714148 252.007469 
L 306.360813 255.303796 
L 308.007478 258.29902 
L 309.654144 260.938692 
L 311.300809 263.215999 
L 312.947474 265.14069 
L 314.59414 266.722531 
L 316.240805 267.971287 
L 317.88747 268.896722 
L 319.534136 269.508602 
L 321.180801 269.816693 
L 322.827467 269.830758 
L 324.474132 269.560565 
L 326.120797 269.015877 
L 327.767463 268.20646 
L 329.414128 267.142079 
L 331.060793 265.832499 
L 332.707459 264.287486 
L 334.354124 262.516805 
L 336.000789 260.530346 
L 339.29412 256.017376 
L 349.174112 241.347315 
L 350.820778 239.207574 
L 352.467443 237.274476 
L 354.114108 235.592805 
L 355.760774 234.207345 
L 357.407439 233.162879 
L 359.054104 232.504191 
L 360.70077 232.276066 
L 362.347435 232.523285 
L 363.9941 233.285051 
L 365.640766 234.535661 
L 367.287431 236.207541 
L 368.934096 238.232417 
L 370.580762 240.542016 
L 373.874093 245.742296 
L 380.460754 256.555537 
L 382.107419 258.946565 
L 383.754085 261.076134 
L 385.40075 262.875972 
L 387.047415 264.277806 
L 388.694081 265.213363 
L 390.340746 265.614374 
L 391.987411 265.437241 
L 393.634077 264.721946 
L 395.280742 263.526154 
L 396.927408 261.907528 
L 398.574073 259.923733 
L 400.220738 257.632433 
L 403.514069 252.357975 
L 408.454065 243.581605 
L 411.747396 237.826986 
L 415.040726 232.6876 
L 416.687392 230.49278 
L 418.334057 228.623692 
L 419.980723 227.104496 
L 421.627388 225.921853 
L 423.274053 225.060336 
L 424.920719 224.504518 
L 426.567384 224.238973 
L 428.214049 224.248272 
L 429.860715 224.516991 
L 431.50738 225.0297 
L 433.154045 225.770974 
L 434.800711 226.725385 
L 436.447376 227.877507 
L 438.094041 229.211912 
L 439.740707 230.713173 
L 443.034037 234.154556 
L 446.327368 238.07727 
L 451.267364 244.503581 
L 456.20736 250.973475 
L 459.500691 254.971002 
L 462.794022 258.477978 
L 464.440687 259.983769 
L 466.087352 261.290434 
L 467.734018 262.372478 
L 469.380683 263.204404 
L 471.027349 263.760715 
L 472.674014 264.016009 
L 474.320679 263.95982 
L 475.967345 263.613011 
L 477.61401 263.00039 
L 479.260675 262.146765 
L 480.907341 261.076942 
L 482.554006 259.815731 
L 485.847337 256.81837 
L 489.140667 253.353144 
L 495.727329 245.812939 
L 499.02066 242.134883 
L 502.31399 238.782805 
L 503.960656 237.291027 
L 505.607321 235.955167 
L 507.253986 234.800032 
L 508.900652 233.850429 
L 510.547317 233.131167 
L 512.193982 232.667054 
L 513.840648 232.482895 
L 515.487313 232.603501 
L 517.133978 233.053677 
L 518.780644 233.858232 
L 520.427309 235.041973 
L 522.073975 236.629707 
L 523.72064 238.646244 
L 525.367305 241.116389 
L 527.013971 244.064951 
L 527.013971 244.064951 
" clip-path="url(#p37a239cd7f)" style="fill: none; stroke: #4f4f4f; stroke-opacity: 0.5; stroke-width: 0.5; stroke-linecap: square"/>
   </g>
   <g id="patch_26">
    <path d="M 29.7375 298.299375 
L 29.7375 188.574375 
" style="fill: none; stroke: #cccccc; stroke-width: 0.75; stroke-linejoin: miter; stroke-linecap: square"/>
   </g>
   <g id="patch_27">
    <path d="M 34.661029 303.299375 
L 527.013971 303.299375 
" style="fill: none; stroke: #cccccc; stroke-width: 0.75; stroke-linejoin: miter; stroke-linecap: square"/>
   </g>
   <g id="text_54">
    <!--  -->
    <g style="fill: #4b4b4b" transform="translate(204.249265 195.793125) scale(0.08 -0.08)"/>
    <!--     Протестные акции -->
    <g style="fill: #4b4b4b" transform="translate(119.284265 204.722125) scale(0.08 -0.08)">
     <defs>
      <path id="Ubuntu-BoldItalic-20" transform="scale(0.015625)"/>
      <path id="Ubuntu-BoldItalic-41f" d="M 5062 4435 
L 3994 0 
L 2995 0 
L 3859 3590 
L 2336 3590 
L 1472 0 
L 480 0 
L 1542 4435 
L 5062 4435 
z
" transform="scale(0.015625)"/>
      <path id="Ubuntu-BoldItalic-440" d="M 1568 742 
Q 1677 717 1837 717 
Q 2086 717 2291 809 
Q 2496 902 2640 1068 
Q 2784 1235 2864 1468 
Q 2944 1702 2944 1984 
Q 2944 2259 2822 2451 
Q 2701 2643 2400 2643 
Q 2195 2643 2016 2605 
L 1568 742 
z
M 3891 2054 
Q 3891 1587 3737 1200 
Q 3584 813 3312 531 
Q 3040 250 2659 93 
Q 2278 -64 1830 -64 
Q 1613 -64 1395 -26 
L 1107 -1184 
L 160 -1184 
L 1222 3245 
Q 1478 3322 1808 3382 
Q 2138 3443 2522 3443 
Q 2880 3443 3139 3334 
Q 3398 3226 3564 3037 
Q 3731 2848 3811 2595 
Q 3891 2342 3891 2054 
z
" transform="scale(0.015625)"/>
      <path id="Ubuntu-BoldItalic-43e" d="M 1971 -90 
Q 1632 -90 1382 12 
Q 1133 115 969 300 
Q 806 486 723 739 
Q 640 992 640 1299 
Q 640 1683 765 2067 
Q 890 2451 1133 2758 
Q 1376 3066 1728 3261 
Q 2080 3456 2534 3456 
Q 2867 3456 3120 3353 
Q 3373 3251 3536 3065 
Q 3699 2880 3782 2627 
Q 3866 2374 3866 2067 
Q 3866 1683 3744 1299 
Q 3622 915 3385 608 
Q 3149 301 2793 105 
Q 2438 -90 1971 -90 
z
M 2445 2650 
Q 2234 2650 2074 2528 
Q 1914 2406 1805 2220 
Q 1696 2035 1641 1814 
Q 1587 1594 1587 1395 
Q 1587 1069 1689 893 
Q 1792 717 2061 717 
Q 2272 717 2432 838 
Q 2592 960 2701 1145 
Q 2810 1331 2864 1552 
Q 2918 1773 2918 1971 
Q 2918 2298 2816 2474 
Q 2714 2650 2445 2650 
z
" transform="scale(0.015625)"/>
      <path id="Ubuntu-BoldItalic-442" d="M 1222 3213 
Q 1331 3245 1456 3286 
Q 1581 3328 1737 3363 
Q 1894 3398 2089 3420 
Q 2285 3443 2541 3443 
Q 2848 3443 3049 3366 
Q 3251 3290 3418 3136 
Q 3654 3270 3888 3356 
Q 4122 3443 4435 3443 
Q 4736 3443 4950 3363 
Q 5165 3283 5305 3132 
Q 5446 2982 5510 2774 
Q 5574 2566 5574 2317 
Q 5574 2202 5558 2074 
Q 5542 1946 5510 1818 
L 5075 0 
L 4122 0 
L 4544 1779 
Q 4563 1869 4585 1981 
Q 4608 2093 4608 2202 
Q 4608 2381 4525 2512 
Q 4442 2643 4198 2643 
Q 4064 2643 3942 2595 
Q 3821 2547 3725 2496 
Q 3738 2445 3738 2400 
Q 3738 2355 3738 2317 
Q 3738 2202 3722 2074 
Q 3706 1946 3674 1818 
L 3238 0 
L 2285 0 
L 2707 1779 
Q 2726 1869 2748 1981 
Q 2771 2093 2771 2202 
Q 2771 2381 2688 2512 
Q 2605 2643 2362 2643 
Q 2259 2643 2188 2633 
Q 2118 2624 2022 2605 
L 1402 0 
L 448 0 
L 1222 3213 
z
" transform="scale(0.015625)"/>
      <path id="Ubuntu-BoldItalic-435" d="M 640 1318 
Q 640 1728 784 2112 
Q 928 2496 1190 2793 
Q 1453 3091 1827 3273 
Q 2202 3456 2656 3456 
Q 2880 3456 3072 3392 
Q 3264 3328 3408 3206 
Q 3552 3085 3632 2909 
Q 3712 2733 3712 2509 
Q 3712 2150 3552 1900 
Q 3392 1651 3107 1494 
Q 2822 1338 2432 1267 
Q 2042 1197 1581 1197 
Q 1626 928 1776 816 
Q 1926 704 2253 704 
Q 2458 704 2669 739 
Q 2880 774 3066 845 
L 3136 96 
Q 2957 26 2678 -32 
Q 2400 -90 2074 -90 
Q 1677 -90 1405 22 
Q 1133 134 963 326 
Q 794 518 717 774 
Q 640 1030 640 1318 
z
M 2502 2701 
Q 2176 2701 1929 2467 
Q 1683 2234 1606 1850 
Q 2003 1862 2246 1916 
Q 2490 1971 2624 2048 
Q 2758 2125 2803 2214 
Q 2848 2304 2848 2394 
Q 2848 2701 2502 2701 
z
" transform="scale(0.015625)"/>
      <path id="Ubuntu-BoldItalic-441" d="M 640 1344 
Q 640 1779 781 2163 
Q 922 2547 1184 2835 
Q 1446 3123 1820 3289 
Q 2195 3456 2656 3456 
Q 2944 3456 3171 3401 
Q 3398 3347 3584 3258 
L 3258 2515 
Q 3130 2566 2992 2608 
Q 2854 2650 2656 2650 
Q 2176 2650 1901 2326 
Q 1626 2003 1626 1446 
Q 1626 1120 1766 918 
Q 1907 717 2285 717 
Q 2470 717 2643 755 
Q 2816 794 2950 851 
L 3021 90 
Q 2842 19 2627 -35 
Q 2413 -90 2106 -90 
Q 1709 -90 1433 25 
Q 1158 141 979 336 
Q 800 531 720 793 
Q 640 1056 640 1344 
z
" transform="scale(0.015625)"/>
      <path id="Ubuntu-BoldItalic-43d" d="M 3347 0 
L 2394 0 
L 2714 1331 
L 1722 1331 
L 1402 0 
L 448 0 
L 1261 3366 
L 2214 3366 
L 1914 2112 
L 2906 2112 
L 3206 3366 
L 4160 3366 
L 3347 0 
z
" transform="scale(0.015625)"/>
      <path id="Ubuntu-BoldItalic-44b" d="M 2125 1504 
Q 2016 1504 1904 1491 
Q 1792 1478 1722 1459 
L 1542 691 
Q 1632 678 1728 672 
Q 1824 666 1920 666 
Q 2291 666 2480 794 
Q 2669 922 2669 1146 
Q 2669 1504 2125 1504 
z
M 1229 3366 
L 2182 3366 
L 1894 2170 
Q 2170 2221 2406 2221 
Q 2976 2221 3273 1955 
Q 3571 1690 3571 1210 
Q 3571 941 3462 707 
Q 3354 474 3133 301 
Q 2912 128 2576 29 
Q 2240 -70 1779 -70 
Q 1158 -70 448 102 
L 1229 3366 
z
M 4800 0 
L 3853 0 
L 4653 3366 
L 5606 3366 
L 4800 0 
z
" transform="scale(0.015625)"/>
      <path id="Ubuntu-BoldItalic-430" d="M 3603 1453 
Q 3514 1088 3552 720 
Q 3590 352 3699 64 
L 2848 -58 
Q 2810 19 2778 89 
Q 2746 160 2714 250 
Q 2534 102 2316 6 
Q 2099 -90 1830 -90 
Q 1510 -90 1283 22 
Q 1056 134 912 323 
Q 768 512 704 765 
Q 640 1018 640 1306 
Q 640 1747 797 2137 
Q 954 2528 1232 2819 
Q 1510 3110 1888 3276 
Q 2266 3443 2707 3443 
Q 2765 3443 2909 3436 
Q 3053 3430 3238 3408 
Q 3424 3386 3629 3334 
Q 3834 3283 4019 3194 
L 3603 1453 
z
M 2938 2630 
Q 2854 2643 2787 2649 
Q 2720 2656 2624 2656 
Q 2406 2656 2217 2547 
Q 2029 2438 1888 2262 
Q 1747 2086 1667 1856 
Q 1587 1626 1587 1376 
Q 1587 1069 1689 889 
Q 1792 710 2067 710 
Q 2214 710 2332 768 
Q 2451 826 2586 960 
Q 2598 1120 2627 1296 
Q 2656 1472 2688 1619 
L 2938 2630 
z
" transform="scale(0.015625)"/>
      <path id="Ubuntu-BoldItalic-43a" d="M 1914 2150 
Q 2086 2304 2265 2467 
Q 2445 2630 2614 2793 
Q 2784 2957 2931 3104 
Q 3078 3251 3194 3366 
L 4346 3366 
Q 3987 2970 3590 2586 
Q 3194 2202 2662 1779 
Q 2797 1613 2934 1395 
Q 3072 1178 3197 938 
Q 3322 698 3427 458 
Q 3533 218 3603 0 
L 2541 0 
Q 2483 166 2396 364 
Q 2310 563 2204 758 
Q 2099 954 1984 1139 
Q 1869 1325 1754 1472 
L 1395 0 
L 448 0 
L 1254 3366 
L 2208 3366 
L 1914 2150 
z
" transform="scale(0.015625)"/>
      <path id="Ubuntu-BoldItalic-446" d="M 3974 3366 
L 3520 1453 
Q 3507 1402 3491 1334 
Q 3475 1267 3459 1190 
Q 3443 1114 3433 1040 
Q 3424 966 3424 915 
Q 3424 749 3517 649 
Q 3610 550 3853 512 
L 3475 -960 
L 2662 -960 
L 2912 58 
Q 2822 96 2761 160 
Q 2701 224 2669 294 
Q 2464 128 2233 25 
Q 2003 -77 1728 -77 
Q 1350 -77 1116 60 
Q 883 198 768 425 
Q 653 653 643 947 
Q 634 1242 710 1549 
L 1146 3366 
L 2099 3366 
L 1670 1562 
Q 1638 1421 1616 1273 
Q 1594 1126 1613 1001 
Q 1632 877 1712 797 
Q 1792 717 1965 717 
Q 2112 717 2237 771 
Q 2362 826 2502 960 
Q 2515 1120 2544 1296 
Q 2573 1472 2605 1619 
L 3021 3366 
L 3974 3366 
z
" transform="scale(0.015625)"/>
      <path id="Ubuntu-BoldItalic-438" d="M 3974 3366 
L 3520 1453 
Q 3430 1088 3468 720 
Q 3507 352 3616 64 
L 2765 -58 
Q 2694 83 2630 256 
Q 2451 115 2227 19 
Q 2003 -77 1728 -77 
Q 1350 -77 1116 60 
Q 883 198 768 425 
Q 653 653 643 947 
Q 634 1242 710 1549 
L 1146 3366 
L 2099 3366 
L 1670 1562 
Q 1638 1421 1616 1273 
Q 1594 1126 1613 1001 
Q 1632 877 1712 797 
Q 1792 717 1965 717 
Q 2112 717 2237 771 
Q 2362 826 2502 960 
Q 2515 1120 2544 1296 
Q 2573 1472 2605 1619 
L 3021 3366 
L 3974 3366 
z
" transform="scale(0.015625)"/>
     </defs>
     <use xlink:href="#Ubuntu-BoldItalic-20"/>
     <use xlink:href="#Ubuntu-BoldItalic-20" x="23.999985"/>
     <use xlink:href="#Ubuntu-BoldItalic-20" x="47.999969"/>
     <use xlink:href="#Ubuntu-BoldItalic-20" x="71.999954"/>
     <use xlink:href="#Ubuntu-BoldItalic-41f" x="95.999939"/>
     <use xlink:href="#Ubuntu-BoldItalic-440" x="166.59993"/>
     <use xlink:href="#Ubuntu-BoldItalic-43e" x="224.399918"/>
     <use xlink:href="#Ubuntu-BoldItalic-442" x="281.799911"/>
     <use xlink:href="#Ubuntu-BoldItalic-435" x="366.399902"/>
     <use xlink:href="#Ubuntu-BoldItalic-441" x="419.399887"/>
     <use xlink:href="#Ubuntu-BoldItalic-442" x="467.399872"/>
     <use xlink:href="#Ubuntu-BoldItalic-43d" x="551.999863"/>
     <use xlink:href="#Ubuntu-BoldItalic-44b" x="611.499847"/>
     <use xlink:href="#Ubuntu-BoldItalic-435" x="693.599838"/>
     <use xlink:href="#Ubuntu-BoldItalic-20" x="746.599823"/>
     <use xlink:href="#Ubuntu-BoldItalic-430" x="770.599808"/>
     <use xlink:href="#Ubuntu-BoldItalic-43a" x="829.399796"/>
     <use xlink:href="#Ubuntu-BoldItalic-446" x="886.799789"/>
     <use xlink:href="#Ubuntu-BoldItalic-438" x="945.89978"/>
     <use xlink:href="#Ubuntu-BoldItalic-438" x="1003.999771"/>
    </g>
    <!--     (декабрь 2011) -->
    <g style="fill: #4b4b4b" transform="translate(139.346765 213.729125) scale(0.08 -0.08)">
     <defs>
      <path id="Ubuntu-BoldItalic-28" d="M 3206 4582 
Q 2842 4186 2541 3747 
Q 2240 3309 2022 2835 
Q 1805 2362 1683 1859 
Q 1562 1357 1562 838 
Q 1562 435 1638 41 
Q 1715 -352 1882 -755 
L 1178 -1184 
Q 890 -704 758 -192 
Q 627 320 627 864 
Q 627 1440 771 2009 
Q 915 2579 1174 3113 
Q 1434 3648 1795 4131 
Q 2157 4614 2592 5011 
L 3206 4582 
z
" transform="scale(0.015625)"/>
      <path id="Ubuntu-BoldItalic-434" d="M 2029 4160 
Q 1696 4160 1344 4019 
L 1267 4826 
Q 1491 4896 1708 4931 
Q 1926 4966 2131 4966 
Q 2515 4966 2838 4864 
Q 3162 4762 3392 4522 
Q 3622 4282 3753 3888 
Q 3885 3494 3885 2906 
Q 3885 2118 3734 1552 
Q 3584 986 3318 621 
Q 3053 256 2688 83 
Q 2323 -90 1894 -90 
Q 1267 -90 953 272 
Q 640 634 640 1248 
Q 640 1702 781 2076 
Q 922 2451 1162 2720 
Q 1402 2989 1728 3136 
Q 2054 3283 2426 3283 
Q 2560 3283 2701 3264 
Q 2842 3245 2989 3200 
Q 2970 3501 2890 3686 
Q 2810 3872 2685 3977 
Q 2560 4083 2393 4121 
Q 2227 4160 2029 4160 
z
M 2515 2522 
Q 2285 2522 2099 2419 
Q 1914 2317 1789 2134 
Q 1664 1952 1597 1705 
Q 1530 1459 1530 1178 
Q 1530 1011 1635 870 
Q 1741 730 1997 730 
Q 2163 730 2323 816 
Q 2483 902 2617 1097 
Q 2752 1293 2845 1616 
Q 2938 1939 2976 2419 
Q 2733 2522 2515 2522 
z
" transform="scale(0.015625)"/>
      <path id="Ubuntu-BoldItalic-431" d="M 4179 4154 
Q 3891 4090 3580 4070 
Q 3270 4051 2979 3977 
Q 2688 3904 2435 3718 
Q 2182 3533 2016 3136 
Q 2355 3277 2707 3277 
Q 2925 3277 3133 3213 
Q 3341 3149 3501 3005 
Q 3661 2861 3757 2630 
Q 3853 2400 3853 2074 
Q 3853 1562 3699 1158 
Q 3546 755 3280 476 
Q 3014 198 2665 54 
Q 2317 -90 1933 -90 
Q 1658 -90 1430 -13 
Q 1203 64 1043 233 
Q 883 403 793 665 
Q 704 928 704 1299 
Q 704 1549 739 1805 
Q 774 2061 832 2304 
Q 890 2547 954 2768 
Q 1018 2989 1075 3162 
Q 1312 3872 1859 4294 
Q 2406 4717 3322 4826 
Q 3546 4858 3766 4883 
Q 3987 4909 4218 4966 
L 4179 4154 
z
M 2458 2502 
Q 2291 2502 2105 2444 
Q 1920 2387 1747 2298 
Q 1683 2054 1641 1820 
Q 1600 1587 1600 1402 
Q 1600 1018 1718 867 
Q 1837 717 2074 717 
Q 2234 717 2394 803 
Q 2554 890 2682 1046 
Q 2810 1203 2886 1427 
Q 2963 1651 2963 1926 
Q 2963 2246 2819 2374 
Q 2675 2502 2458 2502 
z
" transform="scale(0.015625)"/>
      <path id="Ubuntu-BoldItalic-44c" d="M 2125 1504 
Q 2016 1504 1904 1491 
Q 1792 1478 1722 1459 
L 1542 691 
Q 1632 678 1728 672 
Q 1824 666 1920 666 
Q 2291 666 2480 794 
Q 2669 922 2669 1146 
Q 2669 1504 2125 1504 
z
M 1229 3366 
L 2182 3366 
L 1894 2170 
Q 2170 2221 2406 2221 
Q 2976 2221 3273 1955 
Q 3571 1690 3571 1210 
Q 3571 941 3462 707 
Q 3354 474 3133 301 
Q 2912 128 2576 29 
Q 2240 -70 1779 -70 
Q 1158 -70 448 102 
L 1229 3366 
z
" transform="scale(0.015625)"/>
      <path id="Ubuntu-BoldItalic-32" d="M 2784 4538 
Q 3040 4538 3261 4454 
Q 3482 4371 3645 4227 
Q 3808 4083 3897 3891 
Q 3987 3699 3987 3482 
Q 3987 3238 3936 3046 
Q 3885 2854 3763 2675 
Q 3642 2496 3440 2310 
Q 3238 2125 2944 1894 
Q 2771 1760 2595 1638 
Q 2419 1517 2249 1389 
Q 2080 1261 1920 1117 
Q 1760 973 1619 794 
L 3526 794 
L 3334 0 
L 384 0 
Q 442 403 582 697 
Q 723 992 931 1232 
Q 1139 1472 1401 1680 
Q 1664 1888 1971 2125 
Q 2259 2349 2460 2512 
Q 2662 2675 2787 2812 
Q 2912 2950 2969 3072 
Q 3027 3194 3027 3328 
Q 3027 3494 2908 3606 
Q 2790 3718 2605 3718 
Q 2342 3718 2092 3606 
Q 1843 3494 1549 3270 
L 1222 3968 
Q 1606 4282 1990 4410 
Q 2374 4538 2784 4538 
z
" transform="scale(0.015625)"/>
      <path id="Ubuntu-BoldItalic-30" d="M 1907 730 
Q 2112 730 2285 851 
Q 2458 973 2589 1171 
Q 2720 1370 2819 1622 
Q 2918 1875 2982 2137 
Q 3046 2400 3078 2649 
Q 3110 2899 3110 3091 
Q 3110 3418 3011 3571 
Q 2912 3725 2707 3725 
Q 2496 3725 2323 3603 
Q 2150 3482 2016 3283 
Q 1882 3085 1782 2829 
Q 1683 2573 1619 2310 
Q 1555 2048 1523 1798 
Q 1491 1549 1491 1357 
Q 1491 1024 1593 877 
Q 1696 730 1907 730 
z
M 1760 -90 
Q 1446 -90 1228 22 
Q 1011 134 873 320 
Q 736 506 675 739 
Q 614 973 614 1222 
Q 614 1952 777 2560 
Q 941 3168 1232 3609 
Q 1523 4051 1932 4294 
Q 2342 4538 2842 4538 
Q 3155 4538 3372 4426 
Q 3590 4314 3728 4128 
Q 3866 3942 3926 3708 
Q 3987 3475 3987 3226 
Q 3987 2496 3824 1888 
Q 3661 1280 3369 838 
Q 3078 397 2668 153 
Q 2259 -90 1760 -90 
z
" transform="scale(0.015625)"/>
      <path id="Ubuntu-BoldItalic-31" d="M 1280 3514 
Q 1485 3590 1709 3689 
Q 1933 3789 2153 3907 
Q 2374 4026 2585 4157 
Q 2797 4288 2970 4435 
L 3635 4435 
L 2566 0 
L 1613 0 
L 2381 3194 
Q 2157 3066 1894 2960 
Q 1632 2854 1395 2778 
L 1280 3514 
z
" transform="scale(0.015625)"/>
      <path id="Ubuntu-BoldItalic-29" d="M -154 -749 
Q 211 -358 515 80 
Q 819 518 1033 995 
Q 1248 1472 1369 1974 
Q 1491 2477 1491 2995 
Q 1491 3398 1414 3792 
Q 1338 4186 1171 4589 
L 1875 5018 
Q 2163 4538 2294 4026 
Q 2426 3514 2426 2970 
Q 2426 2394 2282 1824 
Q 2138 1254 1878 720 
Q 1619 186 1257 -297 
Q 896 -781 461 -1178 
L -154 -749 
z
" transform="scale(0.015625)"/>
     </defs>
     <use xlink:href="#Ubuntu-BoldItalic-20"/>
     <use xlink:href="#Ubuntu-BoldItalic-20" x="23.999985"/>
     <use xlink:href="#Ubuntu-BoldItalic-20" x="47.999969"/>
     <use xlink:href="#Ubuntu-BoldItalic-20" x="71.999954"/>
     <use xlink:href="#Ubuntu-BoldItalic-28" x="95.999939"/>
     <use xlink:href="#Ubuntu-BoldItalic-434" x="132.09993"/>
     <use xlink:href="#Ubuntu-BoldItalic-435" x="188.799927"/>
     <use xlink:href="#Ubuntu-BoldItalic-43a" x="241.799911"/>
     <use xlink:href="#Ubuntu-BoldItalic-430" x="296.199905"/>
     <use xlink:href="#Ubuntu-BoldItalic-431" x="354.999893"/>
     <use xlink:href="#Ubuntu-BoldItalic-440" x="412.899887"/>
     <use xlink:href="#Ubuntu-BoldItalic-44c" x="470.699875"/>
     <use xlink:href="#Ubuntu-BoldItalic-20" x="524.499863"/>
     <use xlink:href="#Ubuntu-BoldItalic-32" x="548.499847"/>
     <use xlink:href="#Ubuntu-BoldItalic-30" x="605.299835"/>
     <use xlink:href="#Ubuntu-BoldItalic-31" x="662.099823"/>
     <use xlink:href="#Ubuntu-BoldItalic-31" x="718.899811"/>
     <use xlink:href="#Ubuntu-BoldItalic-29" x="775.699799"/>
    </g>
    <!--  -->
    <g style="fill: #4b4b4b" transform="translate(204.249265 222.658125) scale(0.08 -0.08)"/>
   </g>
   <g id="text_55">
    <!--  -->
    <g style="fill: #4b4b4b" transform="translate(234.3375 177.505625) scale(0.08 -0.08)"/>
    <!--     Выборы президента РФ -->
    <g style="fill: #4b4b4b" transform="translate(234.3375 186.434625) scale(0.08 -0.08)">
     <defs>
      <path id="Ubuntu-BoldItalic-412" d="M 1997 -58 
Q 1613 -58 1209 -26 
Q 806 6 480 77 
L 1504 4365 
Q 1869 4435 2269 4460 
Q 2669 4486 3002 4486 
Q 3386 4486 3664 4406 
Q 3942 4326 4118 4192 
Q 4294 4058 4380 3875 
Q 4467 3693 4467 3488 
Q 4467 3347 4438 3193 
Q 4410 3040 4323 2889 
Q 4237 2739 4086 2604 
Q 3936 2470 3693 2362 
Q 3981 2234 4115 2013 
Q 4250 1792 4250 1523 
Q 4250 1216 4128 931 
Q 4006 646 3737 425 
Q 3469 205 3040 73 
Q 2611 -58 1997 -58 
z
M 1907 1939 
L 1632 787 
Q 1734 768 1891 758 
Q 2048 749 2182 749 
Q 2374 749 2563 777 
Q 2752 806 2902 883 
Q 3053 960 3149 1094 
Q 3245 1229 3245 1440 
Q 3245 1530 3209 1619 
Q 3174 1709 3097 1779 
Q 3021 1850 2896 1894 
Q 2771 1939 2598 1939 
L 1907 1939 
z
M 2093 2688 
L 2720 2688 
Q 3104 2688 3293 2854 
Q 3482 3021 3482 3251 
Q 3482 3373 3427 3459 
Q 3373 3546 3283 3597 
Q 3194 3648 3078 3670 
Q 2963 3693 2842 3693 
Q 2707 3693 2553 3683 
Q 2400 3674 2323 3661 
L 2093 2688 
z
" transform="scale(0.015625)"/>
      <path id="Ubuntu-BoldItalic-43f" d="M 1222 3213 
Q 1331 3245 1462 3286 
Q 1594 3328 1757 3363 
Q 1920 3398 2121 3420 
Q 2323 3443 2579 3443 
Q 3334 3443 3616 3008 
Q 3898 2573 3712 1818 
L 3277 0 
L 2323 0 
L 2746 1779 
Q 2784 1946 2806 2102 
Q 2829 2259 2803 2377 
Q 2778 2496 2685 2569 
Q 2592 2643 2400 2643 
Q 2214 2643 2022 2605 
L 1402 0 
L 448 0 
L 1222 3213 
z
" transform="scale(0.015625)"/>
      <path id="Ubuntu-BoldItalic-437" d="M 960 3258 
Q 1222 3347 1510 3395 
Q 1798 3443 2067 3443 
Q 2362 3443 2576 3376 
Q 2790 3309 2931 3197 
Q 3072 3085 3142 2937 
Q 3213 2790 3213 2630 
Q 3213 2387 3053 2147 
Q 2893 1907 2586 1760 
Q 2790 1658 2899 1478 
Q 3008 1299 3008 1088 
Q 3008 774 2864 550 
Q 2720 326 2483 185 
Q 2246 45 1952 -22 
Q 1658 -90 1350 -90 
Q 1043 -90 758 -26 
Q 474 38 256 147 
L 538 883 
Q 678 800 915 745 
Q 1152 691 1395 691 
Q 1530 691 1651 710 
Q 1773 730 1865 778 
Q 1958 826 2012 899 
Q 2067 973 2067 1082 
Q 2067 1248 1932 1302 
Q 1798 1357 1613 1357 
L 1056 1357 
L 1216 2035 
L 1779 2035 
Q 2048 2035 2163 2153 
Q 2278 2272 2278 2419 
Q 2278 2560 2150 2611 
Q 2022 2662 1837 2662 
Q 1722 2662 1594 2646 
Q 1466 2630 1354 2611 
Q 1242 2592 1149 2569 
Q 1056 2547 1011 2534 
L 960 3258 
z
" transform="scale(0.015625)"/>
      <path id="Ubuntu-BoldItalic-420" d="M 2765 4486 
Q 3168 4486 3491 4400 
Q 3814 4314 4038 4150 
Q 4262 3987 4384 3750 
Q 4506 3514 4506 3219 
Q 4506 2739 4320 2406 
Q 4134 2074 3808 1869 
Q 3482 1664 3040 1574 
Q 2598 1485 2080 1485 
L 1830 1485 
L 1472 0 
L 480 0 
L 1523 4371 
Q 1869 4435 2179 4460 
Q 2490 4486 2765 4486 
z
M 2682 3648 
Q 2573 3648 2496 3641 
Q 2419 3635 2342 3629 
L 2035 2323 
L 2285 2323 
Q 2554 2323 2774 2364 
Q 2995 2406 3152 2502 
Q 3309 2598 3395 2748 
Q 3482 2899 3482 3117 
Q 3482 3405 3274 3526 
Q 3066 3648 2682 3648 
z
" transform="scale(0.015625)"/>
      <path id="Ubuntu-BoldItalic-424" d="M 2963 3424 
Q 2675 3392 2451 3270 
Q 2227 3149 2070 2976 
Q 1914 2803 1834 2595 
Q 1754 2387 1754 2182 
Q 1754 1818 1926 1597 
Q 2099 1376 2470 1344 
L 2963 3424 
z
M 2272 550 
Q 1869 602 1577 746 
Q 1286 890 1100 1094 
Q 915 1299 825 1542 
Q 736 1786 736 2035 
Q 736 2413 893 2793 
Q 1050 3174 1357 3481 
Q 1664 3789 2115 3987 
Q 2566 4186 3155 4198 
L 3277 4723 
L 4250 4723 
L 4128 4198 
Q 4531 4147 4822 4003 
Q 5114 3859 5299 3657 
Q 5485 3456 5574 3209 
Q 5664 2963 5664 2714 
Q 5664 2336 5507 1955 
Q 5350 1574 5043 1267 
Q 4736 960 4285 761 
Q 3834 563 3245 550 
L 3117 0 
L 2144 0 
L 2272 550 
z
M 3437 1325 
Q 3725 1357 3949 1478 
Q 4173 1600 4329 1773 
Q 4486 1946 4566 2154 
Q 4646 2362 4646 2566 
Q 4646 2931 4473 3152 
Q 4301 3373 3930 3405 
L 3437 1325 
z
" transform="scale(0.015625)"/>
     </defs>
     <use xlink:href="#Ubuntu-BoldItalic-20"/>
     <use xlink:href="#Ubuntu-BoldItalic-20" x="23.999985"/>
     <use xlink:href="#Ubuntu-BoldItalic-20" x="47.999969"/>
     <use xlink:href="#Ubuntu-BoldItalic-20" x="71.999954"/>
     <use xlink:href="#Ubuntu-BoldItalic-412" x="95.999939"/>
     <use xlink:href="#Ubuntu-BoldItalic-44b" x="161.799927"/>
     <use xlink:href="#Ubuntu-BoldItalic-431" x="243.899918"/>
     <use xlink:href="#Ubuntu-BoldItalic-43e" x="301.799911"/>
     <use xlink:href="#Ubuntu-BoldItalic-440" x="359.199905"/>
     <use xlink:href="#Ubuntu-BoldItalic-44b" x="416.999893"/>
     <use xlink:href="#Ubuntu-BoldItalic-20" x="499.099884"/>
     <use xlink:href="#Ubuntu-BoldItalic-43f" x="523.099869"/>
     <use xlink:href="#Ubuntu-BoldItalic-440" x="579.799866"/>
     <use xlink:href="#Ubuntu-BoldItalic-435" x="637.599854"/>
     <use xlink:href="#Ubuntu-BoldItalic-437" x="690.599838"/>
     <use xlink:href="#Ubuntu-BoldItalic-438" x="737.799835"/>
     <use xlink:href="#Ubuntu-BoldItalic-434" x="793.899826"/>
     <use xlink:href="#Ubuntu-BoldItalic-435" x="850.599823"/>
     <use xlink:href="#Ubuntu-BoldItalic-43d" x="903.599808"/>
     <use xlink:href="#Ubuntu-BoldItalic-442" x="963.099792"/>
     <use xlink:href="#Ubuntu-BoldItalic-430" x="1047.699783"/>
     <use xlink:href="#Ubuntu-BoldItalic-20" x="1106.499771"/>
     <use xlink:href="#Ubuntu-BoldItalic-420" x="1130.499756"/>
     <use xlink:href="#Ubuntu-BoldItalic-424" x="1195.39975"/>
    </g>
    <!--     (март 2012) -->
    <g style="fill: #4b4b4b" transform="translate(234.3375 195.441625) scale(0.08 -0.08)">
     <defs>
      <path id="Ubuntu-BoldItalic-43c" d="M 1773 2003 
Q 1702 1779 1628 1523 
Q 1555 1267 1481 1001 
Q 1408 736 1337 477 
Q 1267 218 1210 0 
L 320 0 
Q 416 358 550 800 
Q 685 1242 829 1696 
Q 973 2150 1120 2585 
Q 1267 3021 1395 3366 
L 2182 3366 
Q 2240 3123 2288 2899 
Q 2336 2675 2377 2438 
Q 2419 2202 2467 1942 
Q 2515 1683 2573 1370 
Q 2784 1702 2966 1980 
Q 3149 2259 3315 2499 
Q 3482 2739 3635 2953 
Q 3789 3168 3936 3366 
L 4723 3366 
Q 4691 3008 4652 2605 
Q 4614 2202 4560 1773 
Q 4506 1344 4432 896 
Q 4358 448 4256 0 
L 3309 0 
Q 3366 230 3427 480 
Q 3488 730 3549 986 
Q 3610 1242 3667 1494 
Q 3725 1747 3770 1978 
L 2707 397 
L 2074 397 
L 1773 2003 
z
" transform="scale(0.015625)"/>
     </defs>
     <use xlink:href="#Ubuntu-BoldItalic-20"/>
     <use xlink:href="#Ubuntu-BoldItalic-20" x="23.999985"/>
     <use xlink:href="#Ubuntu-BoldItalic-20" x="47.999969"/>
     <use xlink:href="#Ubuntu-BoldItalic-20" x="71.999954"/>
     <use xlink:href="#Ubuntu-BoldItalic-28" x="95.999939"/>
     <use xlink:href="#Ubuntu-BoldItalic-43c" x="129.22493"/>
     <use xlink:href="#Ubuntu-BoldItalic-430" x="200.024918"/>
     <use xlink:href="#Ubuntu-BoldItalic-440" x="258.824905"/>
     <use xlink:href="#Ubuntu-BoldItalic-442" x="316.624893"/>
     <use xlink:href="#Ubuntu-BoldItalic-20" x="401.224884"/>
     <use xlink:href="#Ubuntu-BoldItalic-32" x="425.224869"/>
     <use xlink:href="#Ubuntu-BoldItalic-30" x="482.024857"/>
     <use xlink:href="#Ubuntu-BoldItalic-31" x="538.824844"/>
     <use xlink:href="#Ubuntu-BoldItalic-32" x="595.624832"/>
     <use xlink:href="#Ubuntu-BoldItalic-29" x="652.42482"/>
    </g>
    <!--  -->
    <g style="fill: #4b4b4b" transform="translate(234.3375 204.370625) scale(0.08 -0.08)"/>
   </g>
   <g id="legend_1">
    <g id="line2d_58">
     <defs>
      <path id="m07a961242a" d="M 0 1.5 
C 0.397805 1.5 0.77937 1.341951 1.06066 1.06066 
C 1.341951 0.77937 1.5 0.397805 1.5 0 
C 1.5 -0.397805 1.341951 -0.77937 1.06066 -1.06066 
C 0.77937 -1.341951 0.397805 -1.5 0 -1.5 
C -0.397805 -1.5 -0.77937 -1.341951 -1.06066 -1.06066 
C -1.341951 -0.77937 -1.5 -0.397805 -1.5 0 
C -1.5 0.397805 -1.341951 0.77937 -1.06066 1.06066 
C -0.77937 1.341951 -0.397805 1.5 0 1.5 
z
" style="stroke: #6d9bc3"/>
     </defs>
     <g>
      <use xlink:href="#m07a961242a" x="44.9375" y="169.779375" style="fill: #6d9bc3; stroke: #6d9bc3"/>
     </g>
    </g>
    <g id="text_56">
     <!-- До 2013 -->
     <g style="fill: #4b4b4b" transform="translate(52.9375 172.579375) scale(0.08 -0.08)">
      <defs>
       <path id="Ubuntu-414" d="M 691 0 
L 691 -1184 
L 102 -1184 
L 102 531 
L 570 531 
Q 896 902 1072 1353 
Q 1248 1805 1328 2307 
Q 1408 2810 1424 3347 
Q 1440 3885 1446 4435 
L 3955 4435 
L 3955 531 
L 4512 531 
L 4512 -1184 
L 3923 -1184 
L 3923 0 
L 691 0 
z
M 2054 3904 
Q 2035 3482 2012 3043 
Q 1990 2605 1916 2173 
Q 1843 1741 1702 1325 
Q 1562 909 1306 531 
L 3334 531 
L 3334 3904 
L 2054 3904 
z
" transform="scale(0.015625)"/>
       <path id="Ubuntu-43e" d="M 3450 1664 
Q 3450 1267 3334 947 
Q 3219 627 3011 396 
Q 2803 166 2515 41 
Q 2227 -83 1888 -83 
Q 1549 -83 1261 41 
Q 973 166 765 396 
Q 557 627 441 947 
Q 326 1267 326 1664 
Q 326 2054 441 2377 
Q 557 2701 765 2931 
Q 973 3162 1261 3286 
Q 1549 3411 1888 3411 
Q 2227 3411 2515 3286 
Q 2803 3162 3011 2931 
Q 3219 2701 3334 2377 
Q 3450 2054 3450 1664 
z
M 2829 1664 
Q 2829 2227 2576 2556 
Q 2323 2886 1888 2886 
Q 1453 2886 1200 2556 
Q 947 2227 947 1664 
Q 947 1101 1200 771 
Q 1453 442 1888 442 
Q 2323 442 2576 771 
Q 2829 1101 2829 1664 
z
" transform="scale(0.015625)"/>
       <path id="Ubuntu-20" transform="scale(0.015625)"/>
      </defs>
      <use xlink:href="#Ubuntu-414"/>
      <use xlink:href="#Ubuntu-43e" x="72.299988"/>
      <use xlink:href="#Ubuntu-20" x="131.299973"/>
      <use xlink:href="#Ubuntu-32" x="154.399963"/>
      <use xlink:href="#Ubuntu-30" x="210.799957"/>
      <use xlink:href="#Ubuntu-31" x="267.199951"/>
      <use xlink:href="#Ubuntu-33" x="323.599945"/>
     </g>
    </g>
    <g id="line2d_59">
     <defs>
      <path id="mfb0edcb857" d="M 0 1.5 
C 0.397805 1.5 0.77937 1.341951 1.06066 1.06066 
C 1.341951 0.77937 1.5 0.397805 1.5 0 
C 1.5 -0.397805 1.341951 -0.77937 1.06066 -1.06066 
C 0.77937 -1.341951 0.397805 -1.5 0 -1.5 
C -0.397805 -1.5 -0.77937 -1.341951 -1.06066 -1.06066 
C -1.341951 -0.77937 -1.5 -0.397805 -1.5 0 
C -1.5 0.397805 -1.341951 0.77937 -1.06066 1.06066 
C -0.77937 1.341951 -0.397805 1.5 0 1.5 
z
" style="stroke: #304e68"/>
     </defs>
     <g>
      <use xlink:href="#mfb0edcb857" x="107.33875" y="169.779375" style="fill: #304e68; stroke: #304e68"/>
     </g>
    </g>
    <g id="text_57">
     <!-- После 2013 -->
     <g style="fill: #4b4b4b" transform="translate(115.33875 172.579375) scale(0.08 -0.08)">
      <defs>
       <path id="Ubuntu-41f" d="M 3923 4435 
L 3923 0 
L 3302 0 
L 3302 3904 
L 1171 3904 
L 1171 0 
L 550 0 
L 550 4435 
L 3923 4435 
z
" transform="scale(0.015625)"/>
       <path id="Ubuntu-441" d="M 1958 -77 
Q 1555 -77 1251 51 
Q 947 179 739 409 
Q 531 640 428 957 
Q 326 1274 326 1658 
Q 326 2042 438 2362 
Q 550 2682 755 2915 
Q 960 3149 1257 3280 
Q 1555 3411 1920 3411 
Q 2144 3411 2368 3372 
Q 2592 3334 2797 3251 
L 2662 2746 
Q 2528 2810 2352 2848 
Q 2176 2886 1978 2886 
Q 1478 2886 1212 2572 
Q 947 2259 947 1658 
Q 947 1389 1008 1165 
Q 1069 941 1200 781 
Q 1331 621 1536 534 
Q 1741 448 2035 448 
Q 2272 448 2464 493 
Q 2656 538 2765 589 
L 2848 90 
Q 2797 58 2701 29 
Q 2605 0 2483 -22 
Q 2362 -45 2224 -61 
Q 2086 -77 1958 -77 
z
" transform="scale(0.015625)"/>
       <path id="Ubuntu-43b" d="M 1670 2829 
Q 1670 2618 1660 2378 
Q 1651 2138 1625 1898 
Q 1600 1658 1555 1424 
Q 1510 1190 1440 986 
Q 1370 781 1264 601 
Q 1158 422 1004 284 
Q 851 147 646 54 
Q 442 -38 166 -64 
L 83 435 
Q 397 499 579 672 
Q 762 845 870 1094 
Q 966 1312 1011 1587 
Q 1056 1862 1075 2160 
Q 1094 2458 1097 2758 
Q 1101 3059 1101 3328 
L 3315 3328 
L 3315 0 
L 2720 0 
L 2720 2829 
L 1670 2829 
z
" transform="scale(0.015625)"/>
       <path id="Ubuntu-435" d="M 326 1658 
Q 326 2099 454 2428 
Q 582 2758 793 2976 
Q 1005 3194 1280 3302 
Q 1555 3411 1843 3411 
Q 2515 3411 2873 2992 
Q 3232 2573 3232 1715 
Q 3232 1677 3232 1616 
Q 3232 1555 3226 1504 
L 947 1504 
Q 986 986 1248 717 
Q 1510 448 2067 448 
Q 2381 448 2595 502 
Q 2810 557 2918 608 
L 3002 109 
Q 2893 51 2621 -13 
Q 2349 -77 2003 -77 
Q 1568 -77 1251 54 
Q 934 186 729 416 
Q 525 646 425 963 
Q 326 1280 326 1658 
z
M 2611 1984 
Q 2618 2387 2410 2646 
Q 2202 2906 1837 2906 
Q 1632 2906 1475 2826 
Q 1318 2746 1209 2618 
Q 1101 2490 1040 2323 
Q 979 2157 960 1984 
L 2611 1984 
z
" transform="scale(0.015625)"/>
      </defs>
      <use xlink:href="#Ubuntu-41f"/>
      <use xlink:href="#Ubuntu-43e" x="69.899994"/>
      <use xlink:href="#Ubuntu-441" x="128.899979"/>
      <use xlink:href="#Ubuntu-43b" x="177.274963"/>
      <use xlink:href="#Ubuntu-435" x="237.074951"/>
      <use xlink:href="#Ubuntu-20" x="292.974945"/>
      <use xlink:href="#Ubuntu-32" x="316.074936"/>
      <use xlink:href="#Ubuntu-30" x="372.47493"/>
      <use xlink:href="#Ubuntu-31" x="428.874924"/>
      <use xlink:href="#Ubuntu-33" x="485.274918"/>
     </g>
    </g>
   </g>
   <g id="PathCollection_1">
    <defs>
     <path id="ma9c43f30e3" d="M 0 1.118034 
C 0.296506 1.118034 0.580908 1.000231 0.790569 0.790569 
C 1.000231 0.580908 1.118034 0.296506 1.118034 0 
C 1.118034 -0.296506 1.000231 -0.580908 0.790569 -0.790569 
C 0.580908 -1.000231 0.296506 -1.118034 0 -1.118034 
C -0.296506 -1.118034 -0.580908 -1.000231 -0.790569 -0.790569 
C -1.000231 -0.580908 -1.118034 -0.296506 -1.118034 0 
C -1.118034 0.296506 -1.000231 0.580908 -0.790569 0.790569 
C -0.580908 1.000231 -0.296506 1.118034 0 1.118034 
z
" style="stroke: #af4035"/>
    </defs>
    <g clip-path="url(#p37a239cd7f)">
     <use xlink:href="#ma9c43f30e3" x="215.190441" y="206.861875" style="fill: #af4035; stroke: #af4035"/>
    </g>
   </g>
   <g id="PathCollection_2">
    <g clip-path="url(#p37a239cd7f)">
     <use xlink:href="#ma9c43f30e3" x="232.969853" y="188.574375" style="fill: #af4035; stroke: #af4035"/>
    </g>
   </g>
   <g id="PathCollection_3">
    <defs>
     <path id="m1605d35a38" d="M 0 1.118034 
C 0.296506 1.118034 0.580908 1.000231 0.790569 0.790569 
C 1.000231 0.580908 1.118034 0.296506 1.118034 0 
C 1.118034 -0.296506 1.000231 -0.580908 0.790569 -0.790569 
C 0.580908 -1.000231 0.296506 -1.118034 0 -1.118034 
C -0.296506 -1.118034 -0.580908 -1.000231 -0.790569 -0.790569 
C -1.000231 -0.580908 -1.118034 -0.296506 -1.118034 0 
C -1.118034 0.296506 -1.000231 0.580908 -0.790569 0.790569 
C -0.580908 1.000231 -0.296506 1.118034 0 1.118034 
z
" style="stroke: #6d9bc3"/>
    </defs>
    <g clip-path="url(#p37a239cd7f)">
     <use xlink:href="#m1605d35a38" x="34.661029" y="216.182057" style="fill: #6d9bc3; stroke: #6d9bc3"/>
     <use xlink:href="#m1605d35a38" x="62.013971" y="229.719751" style="fill: #6d9bc3; stroke: #6d9bc3"/>
     <use xlink:href="#m1605d35a38" x="89.366912" y="252.287288" style="fill: #6d9bc3; stroke: #6d9bc3"/>
     <use xlink:href="#m1605d35a38" x="116.719853" y="246.82053" style="fill: #6d9bc3; stroke: #6d9bc3"/>
     <use xlink:href="#m1605d35a38" x="144.072794" y="252.861137" style="fill: #6d9bc3; stroke: #6d9bc3"/>
     <use xlink:href="#m1605d35a38" x="171.425735" y="262.088684" style="fill: #6d9bc3; stroke: #6d9bc3"/>
     <use xlink:href="#m1605d35a38" x="198.778676" y="254.647468" style="fill: #6d9bc3; stroke: #6d9bc3"/>
     <use xlink:href="#m1605d35a38" x="226.131618" y="256.269999" style="fill: #6d9bc3; stroke: #6d9bc3"/>
     <use xlink:href="#m1605d35a38" x="253.484559" y="250.195221" style="fill: #6d9bc3; stroke: #6d9bc3"/>
    </g>
   </g>
   <g id="PathCollection_4">
    <defs>
     <path id="mf92042c75a" d="M 0 1.118034 
C 0.296506 1.118034 0.580908 1.000231 0.790569 0.790569 
C 1.000231 0.580908 1.118034 0.296506 1.118034 0 
C 1.118034 -0.296506 1.000231 -0.580908 0.790569 -0.790569 
C 0.580908 -1.000231 0.296506 -1.118034 0 -1.118034 
C -0.296506 -1.118034 -0.580908 -1.000231 -0.790569 -0.790569 
C -1.000231 -0.580908 -1.118034 -0.296506 -1.118034 0 
C -1.118034 0.296506 -1.000231 0.580908 -0.790569 0.790569 
C -0.580908 1.000231 -0.296506 1.118034 0 1.118034 
z
" style="stroke: #304e68"/>
    </defs>
    <g clip-path="url(#p37a239cd7f)">
     <use xlink:href="#mf92042c75a" x="280.8375" y="209.288383" style="fill: #304e68; stroke: #304e68"/>
     <use xlink:href="#mf92042c75a" x="308.190441" y="258.610501" style="fill: #304e68; stroke: #304e68"/>
     <use xlink:href="#mf92042c75a" x="335.543382" y="261.103144" style="fill: #304e68; stroke: #304e68"/>
     <use xlink:href="#mf92042c75a" x="362.896324" y="232.719065" style="fill: #304e68; stroke: #304e68"/>
     <use xlink:href="#mf92042c75a" x="390.249265" y="265.607277" style="fill: #304e68; stroke: #304e68"/>
     <use xlink:href="#mf92042c75a" x="417.602206" y="229.410955" style="fill: #304e68; stroke: #304e68"/>
     <use xlink:href="#mf92042c75a" x="444.955147" y="236.392675" style="fill: #304e68; stroke: #304e68"/>
     <use xlink:href="#mf92042c75a" x="472.308088" y="263.986533" style="fill: #304e68; stroke: #304e68"/>
     <use xlink:href="#mf92042c75a" x="499.661029" y="241.451371" style="fill: #304e68; stroke: #304e68"/>
     <use xlink:href="#mf92042c75a" x="527.013971" y="244.064951" style="fill: #304e68; stroke: #304e68"/>
    </g>
   </g>
  </g>
 </g>
 <defs>
  <clipPath id="pcb4d090a4f">
   <rect x="29.7375" y="34.959375" width="502.2" height="93.632"/>
  </clipPath>
  <clipPath id="p37a239cd7f">
   <rect x="29.7375" y="181.259375" width="502.2" height="117.04"/>
  </clipPath>
 </defs>
</svg>
