<?xml version="1.0" encoding="utf-8" standalone="no"?>
<!DOCTYPE svg PUBLIC "-//W3C//DTD SVG 1.1//EN"
  "http://www.w3.org/Graphics/SVG/1.1/DTD/svg11.dtd">
<svg xmlns:xlink="http://www.w3.org/1999/xlink" width="543.726471pt" height="200.062656pt" viewBox="0 0 543.726471 200.062656" xmlns="http://www.w3.org/2000/svg" version="1.1">
 <metadata>
  <rdf:RDF xmlns:dc="http://purl.org/dc/elements/1.1/" xmlns:cc="http://creativecommons.org/ns#" xmlns:rdf="http://www.w3.org/1999/02/22-rdf-syntax-ns#">
   <cc:Work>
    <dc:type rdf:resource="http://purl.org/dc/dcmitype/StillImage"/>
    <dc:date>2024-03-14T20:45:17.115812</dc:date>
    <dc:format>image/svg+xml</dc:format>
    <dc:creator>
     <cc:Agent>
      <dc:title>Matplotlib v3.8.0, https://matplotlib.org/</dc:title>
     </cc:Agent>
    </dc:creator>
   </cc:Work>
  </rdf:RDF>
 </metadata>
 <defs>
  <style type="text/css">*{stroke-linejoin: round; stroke-linecap: butt}</style>
 </defs>
 <g id="figure_1">
  <g id="patch_1">
   <path d="M 0 200.062656 
L 543.726471 200.062656 
L 543.726471 -0 
L 0 -0 
L 0 200.062656 
z
" style="fill: none"/>
  </g>
  <g id="axes_1">
   <g id="patch_2">
    <path d="M 30.225 166.175156 
L 532.425 166.175156 
L 532.425 27.575156 
L 30.225 27.575156 
L 30.225 166.175156 
z
" style="fill: none"/>
   </g>
   <g id="matplotlib.axis_1">
    <g id="xtick_1">
     <g id="line2d_1">
      <defs>
       <path id="mcafb03bacd" d="M 0 0 
L 0 3 
" style="stroke: #aaaaaa; stroke-width: 0.75"/>
      </defs>
      <g>
       <use xlink:href="#mcafb03bacd" x="35.148529" y="176.175156" style="fill: #aaaaaa; stroke: #aaaaaa; stroke-width: 0.75"/>
      </g>
     </g>
     <g id="text_1">
      <!-- 2000 -->
      <g style="fill: #808080" transform="translate(26.123529 191.382656) scale(0.08 -0.08)">
       <defs>
        <path id="Ubuntu-32" d="M 2989 3302 
Q 2989 3072 2896 2857 
Q 2803 2643 2649 2435 
Q 2496 2227 2304 2025 
Q 2112 1824 1920 1632 
Q 1811 1523 1667 1376 
Q 1523 1229 1395 1069 
Q 1267 909 1180 761 
Q 1094 614 1094 506 
L 3136 506 
L 3136 0 
L 448 0 
Q 442 38 442 76 
Q 442 115 442 147 
Q 442 448 541 707 
Q 640 966 800 1196 
Q 960 1427 1158 1632 
Q 1357 1837 1549 2029 
Q 1709 2182 1853 2332 
Q 1997 2483 2109 2633 
Q 2221 2784 2288 2944 
Q 2355 3104 2355 3283 
Q 2355 3475 2294 3609 
Q 2234 3744 2131 3833 
Q 2029 3923 1891 3964 
Q 1754 4006 1600 4006 
Q 1414 4006 1260 3955 
Q 1107 3904 985 3837 
Q 864 3770 781 3696 
Q 698 3622 653 3584 
L 358 4006 
Q 416 4070 531 4163 
Q 646 4256 806 4339 
Q 966 4422 1164 4480 
Q 1363 4538 1594 4538 
Q 2291 4538 2640 4214 
Q 2989 3891 2989 3302 
z
" transform="scale(0.015625)"/>
        <path id="Ubuntu-30" d="M 320 2221 
Q 320 3334 713 3936 
Q 1107 4538 1805 4538 
Q 2502 4538 2896 3936 
Q 3290 3334 3290 2221 
Q 3290 1107 2896 505 
Q 2502 -96 1805 -96 
Q 1107 -96 713 505 
Q 320 1107 320 2221 
z
M 2662 2221 
Q 2662 2586 2620 2912 
Q 2579 3238 2480 3481 
Q 2381 3725 2214 3869 
Q 2048 4013 1805 4013 
Q 1562 4013 1395 3869 
Q 1229 3725 1129 3481 
Q 1030 3238 988 2912 
Q 947 2586 947 2221 
Q 947 1856 988 1529 
Q 1030 1203 1129 960 
Q 1229 717 1395 573 
Q 1562 429 1805 429 
Q 2048 429 2214 573 
Q 2381 717 2480 960 
Q 2579 1203 2620 1529 
Q 2662 1856 2662 2221 
z
" transform="scale(0.015625)"/>
       </defs>
       <use xlink:href="#Ubuntu-32"/>
       <use xlink:href="#Ubuntu-30" x="56.399994"/>
       <use xlink:href="#Ubuntu-30" x="112.799988"/>
       <use xlink:href="#Ubuntu-30" x="169.199982"/>
      </g>
     </g>
    </g>
    <g id="xtick_2">
     <g id="line2d_2">
      <g>
       <use xlink:href="#mcafb03bacd" x="79.907888" y="176.175156" style="fill: #aaaaaa; stroke: #aaaaaa; stroke-width: 0.75"/>
      </g>
     </g>
     <g id="text_2">
      <!-- 2002 -->
      <g style="fill: #808080" transform="translate(70.882888 191.382656) scale(0.08 -0.08)">
       <use xlink:href="#Ubuntu-32"/>
       <use xlink:href="#Ubuntu-30" x="56.399994"/>
       <use xlink:href="#Ubuntu-30" x="112.799988"/>
       <use xlink:href="#Ubuntu-32" x="169.199982"/>
      </g>
     </g>
    </g>
    <g id="xtick_3">
     <g id="line2d_3">
      <g>
       <use xlink:href="#mcafb03bacd" x="124.667246" y="176.175156" style="fill: #aaaaaa; stroke: #aaaaaa; stroke-width: 0.75"/>
      </g>
     </g>
     <g id="text_3">
      <!-- 2004 -->
      <g style="fill: #808080" transform="translate(115.642246 191.382656) scale(0.08 -0.08)">
       <defs>
        <path id="Ubuntu-34" d="M 256 1536 
Q 378 1818 589 2192 
Q 800 2566 1065 2963 
Q 1331 3360 1635 3744 
Q 1939 4128 2246 4435 
L 2816 4435 
L 2816 1619 
L 3341 1619 
L 3341 1133 
L 2816 1133 
L 2816 0 
L 2240 0 
L 2240 1133 
L 256 1133 
L 256 1536 
z
M 2240 3731 
Q 2048 3526 1853 3273 
Q 1658 3021 1472 2745 
Q 1286 2470 1123 2182 
Q 960 1894 832 1619 
L 2240 1619 
L 2240 3731 
z
" transform="scale(0.015625)"/>
       </defs>
       <use xlink:href="#Ubuntu-32"/>
       <use xlink:href="#Ubuntu-30" x="56.399994"/>
       <use xlink:href="#Ubuntu-30" x="112.799988"/>
       <use xlink:href="#Ubuntu-34" x="169.199982"/>
      </g>
     </g>
    </g>
    <g id="xtick_4">
     <g id="line2d_4">
      <g>
       <use xlink:href="#mcafb03bacd" x="169.426604" y="176.175156" style="fill: #aaaaaa; stroke: #aaaaaa; stroke-width: 0.75"/>
      </g>
     </g>
     <g id="text_4">
      <!-- 2006 -->
      <g style="fill: #808080" transform="translate(160.401604 191.382656) scale(0.08 -0.08)">
       <defs>
        <path id="Ubuntu-36" d="M 403 1779 
Q 403 2426 582 2922 
Q 762 3418 1091 3757 
Q 1421 4096 1891 4272 
Q 2362 4448 2950 4454 
L 2995 3955 
Q 2618 3949 2307 3872 
Q 1997 3795 1753 3628 
Q 1510 3462 1344 3196 
Q 1178 2931 1094 2541 
Q 1261 2618 1469 2669 
Q 1677 2720 1901 2720 
Q 2278 2720 2540 2605 
Q 2803 2490 2969 2301 
Q 3136 2112 3209 1865 
Q 3283 1619 3283 1350 
Q 3283 1107 3200 851 
Q 3117 595 2947 384 
Q 2778 173 2515 38 
Q 2253 -96 1894 -96 
Q 1165 -96 784 403 
Q 403 902 403 1779 
z
M 1837 2234 
Q 1613 2234 1421 2192 
Q 1229 2150 1037 2067 
Q 1030 1997 1027 1923 
Q 1024 1850 1024 1779 
Q 1024 1498 1062 1248 
Q 1101 998 1200 809 
Q 1299 621 1465 509 
Q 1632 397 1888 397 
Q 2099 397 2246 486 
Q 2394 576 2490 717 
Q 2586 858 2627 1021 
Q 2669 1184 2669 1338 
Q 2669 1773 2461 2003 
Q 2253 2234 1837 2234 
z
" transform="scale(0.015625)"/>
       </defs>
       <use xlink:href="#Ubuntu-32"/>
       <use xlink:href="#Ubuntu-30" x="56.399994"/>
       <use xlink:href="#Ubuntu-30" x="112.799988"/>
       <use xlink:href="#Ubuntu-36" x="169.199982"/>
      </g>
     </g>
    </g>
    <g id="xtick_5">
     <g id="line2d_5">
      <g>
       <use xlink:href="#mcafb03bacd" x="214.185963" y="176.175156" style="fill: #aaaaaa; stroke: #aaaaaa; stroke-width: 0.75"/>
      </g>
     </g>
     <g id="text_5">
      <!-- 2008 -->
      <g style="fill: #808080" transform="translate(205.160963 191.382656) scale(0.08 -0.08)">
       <defs>
        <path id="Ubuntu-38" d="M 3258 1152 
Q 3258 883 3165 656 
Q 3072 429 2889 259 
Q 2707 90 2432 -3 
Q 2157 -96 1798 -96 
Q 1382 -96 1104 22 
Q 826 141 659 320 
Q 493 499 422 713 
Q 352 928 352 1120 
Q 352 1306 413 1475 
Q 474 1645 573 1792 
Q 672 1939 803 2057 
Q 934 2176 1082 2266 
Q 454 2624 454 3322 
Q 454 3565 550 3785 
Q 646 4006 822 4172 
Q 998 4339 1248 4438 
Q 1498 4538 1805 4538 
Q 2163 4538 2419 4429 
Q 2675 4320 2838 4150 
Q 3002 3981 3075 3776 
Q 3149 3571 3149 3379 
Q 3149 3194 3094 3030 
Q 3040 2867 2947 2726 
Q 2854 2586 2736 2477 
Q 2618 2368 2490 2285 
Q 3245 1926 3258 1152 
z
M 954 1114 
Q 954 998 995 873 
Q 1037 749 1139 643 
Q 1242 538 1402 467 
Q 1562 397 1805 397 
Q 2022 397 2185 461 
Q 2349 525 2451 624 
Q 2554 723 2605 851 
Q 2656 979 2656 1114 
Q 2656 1318 2579 1472 
Q 2502 1626 2358 1741 
Q 2214 1856 2012 1936 
Q 1811 2016 1555 2074 
Q 1267 1914 1110 1677 
Q 954 1440 954 1114 
z
M 2554 3386 
Q 2554 3482 2512 3597 
Q 2470 3712 2380 3811 
Q 2291 3910 2150 3977 
Q 2010 4045 1805 4045 
Q 1600 4045 1456 3981 
Q 1312 3917 1222 3817 
Q 1133 3718 1091 3600 
Q 1050 3482 1050 3366 
Q 1050 3226 1101 3085 
Q 1152 2944 1261 2822 
Q 1370 2701 1546 2605 
Q 1722 2509 1965 2451 
Q 2234 2611 2394 2825 
Q 2554 3040 2554 3386 
z
" transform="scale(0.015625)"/>
       </defs>
       <use xlink:href="#Ubuntu-32"/>
       <use xlink:href="#Ubuntu-30" x="56.399994"/>
       <use xlink:href="#Ubuntu-30" x="112.799988"/>
       <use xlink:href="#Ubuntu-38" x="169.199982"/>
      </g>
     </g>
    </g>
    <g id="xtick_6">
     <g id="line2d_6">
      <g>
       <use xlink:href="#mcafb03bacd" x="258.945321" y="176.175156" style="fill: #aaaaaa; stroke: #aaaaaa; stroke-width: 0.75"/>
      </g>
     </g>
     <g id="text_6">
      <!-- 2010 -->
      <g style="fill: #808080" transform="translate(249.920321 191.382656) scale(0.08 -0.08)">
       <defs>
        <path id="Ubuntu-31" d="M 595 3520 
Q 960 3661 1305 3881 
Q 1651 4102 1939 4435 
L 2362 4435 
L 2362 0 
L 1766 0 
L 1766 3610 
Q 1690 3539 1578 3462 
Q 1466 3386 1334 3315 
Q 1203 3245 1059 3181 
Q 915 3117 781 3072 
L 595 3520 
z
" transform="scale(0.015625)"/>
       </defs>
       <use xlink:href="#Ubuntu-32"/>
       <use xlink:href="#Ubuntu-30" x="56.399994"/>
       <use xlink:href="#Ubuntu-31" x="112.799988"/>
       <use xlink:href="#Ubuntu-30" x="169.199982"/>
      </g>
     </g>
    </g>
    <g id="xtick_7">
     <g id="line2d_7">
      <g>
       <use xlink:href="#mcafb03bacd" x="303.704679" y="176.175156" style="fill: #aaaaaa; stroke: #aaaaaa; stroke-width: 0.75"/>
      </g>
     </g>
     <g id="text_7">
      <!-- 2012 -->
      <g style="fill: #808080" transform="translate(294.679679 191.382656) scale(0.08 -0.08)">
       <use xlink:href="#Ubuntu-32"/>
       <use xlink:href="#Ubuntu-30" x="56.399994"/>
       <use xlink:href="#Ubuntu-31" x="112.799988"/>
       <use xlink:href="#Ubuntu-32" x="169.199982"/>
      </g>
     </g>
    </g>
    <g id="xtick_8">
     <g id="line2d_8">
      <g>
       <use xlink:href="#mcafb03bacd" x="348.464037" y="176.175156" style="fill: #aaaaaa; stroke: #aaaaaa; stroke-width: 0.75"/>
      </g>
     </g>
     <g id="text_8">
      <!-- 2014 -->
      <g style="fill: #808080" transform="translate(339.439037 191.382656) scale(0.08 -0.08)">
       <use xlink:href="#Ubuntu-32"/>
       <use xlink:href="#Ubuntu-30" x="56.399994"/>
       <use xlink:href="#Ubuntu-31" x="112.799988"/>
       <use xlink:href="#Ubuntu-34" x="169.199982"/>
      </g>
     </g>
    </g>
    <g id="xtick_9">
     <g id="line2d_9">
      <g>
       <use xlink:href="#mcafb03bacd" x="393.223396" y="176.175156" style="fill: #aaaaaa; stroke: #aaaaaa; stroke-width: 0.75"/>
      </g>
     </g>
     <g id="text_9">
      <!-- 2016 -->
      <g style="fill: #808080" transform="translate(384.198396 191.382656) scale(0.08 -0.08)">
       <use xlink:href="#Ubuntu-32"/>
       <use xlink:href="#Ubuntu-30" x="56.399994"/>
       <use xlink:href="#Ubuntu-31" x="112.799988"/>
       <use xlink:href="#Ubuntu-36" x="169.199982"/>
      </g>
     </g>
    </g>
    <g id="xtick_10">
     <g id="line2d_10">
      <g>
       <use xlink:href="#mcafb03bacd" x="437.982754" y="176.175156" style="fill: #aaaaaa; stroke: #aaaaaa; stroke-width: 0.75"/>
      </g>
     </g>
     <g id="text_10">
      <!-- 2018 -->
      <g style="fill: #808080" transform="translate(428.957754 191.382656) scale(0.08 -0.08)">
       <use xlink:href="#Ubuntu-32"/>
       <use xlink:href="#Ubuntu-30" x="56.399994"/>
       <use xlink:href="#Ubuntu-31" x="112.799988"/>
       <use xlink:href="#Ubuntu-38" x="169.199982"/>
      </g>
     </g>
    </g>
    <g id="xtick_11">
     <g id="line2d_11">
      <g>
       <use xlink:href="#mcafb03bacd" x="482.742112" y="176.175156" style="fill: #aaaaaa; stroke: #aaaaaa; stroke-width: 0.75"/>
      </g>
     </g>
     <g id="text_11">
      <!-- 2020 -->
      <g style="fill: #808080" transform="translate(473.717112 191.382656) scale(0.08 -0.08)">
       <use xlink:href="#Ubuntu-32"/>
       <use xlink:href="#Ubuntu-30" x="56.399994"/>
       <use xlink:href="#Ubuntu-32" x="112.799988"/>
       <use xlink:href="#Ubuntu-30" x="169.199982"/>
      </g>
     </g>
    </g>
    <g id="xtick_12">
     <g id="line2d_12">
      <g>
       <use xlink:href="#mcafb03bacd" x="527.501471" y="176.175156" style="fill: #aaaaaa; stroke: #aaaaaa; stroke-width: 0.75"/>
      </g>
     </g>
     <g id="text_12">
      <!-- 2022 -->
      <g style="fill: #808080" transform="translate(518.476471 191.382656) scale(0.08 -0.08)">
       <use xlink:href="#Ubuntu-32"/>
       <use xlink:href="#Ubuntu-30" x="56.399994"/>
       <use xlink:href="#Ubuntu-32" x="112.799988"/>
       <use xlink:href="#Ubuntu-32" x="169.199982"/>
      </g>
     </g>
    </g>
   </g>
   <g id="matplotlib.axis_2">
    <g id="ytick_1">
     <g id="line2d_13">
      <defs>
       <path id="med6ad22dcf" d="M 0 0 
L -3 0 
" style="stroke: #aaaaaa; stroke-width: 0.75"/>
      </defs>
      <g>
       <use xlink:href="#med6ad22dcf" x="25.225" y="161.654651" style="fill: #aaaaaa; stroke: #aaaaaa; stroke-width: 0.75"/>
      </g>
     </g>
     <g id="text_13">
      <!-- 15 -->
      <g style="fill: #808080" transform="translate(7.2 164.758401) scale(0.08 -0.08)">
       <defs>
        <path id="Ubuntu-35" d="M 1274 2726 
Q 2240 2688 2691 2304 
Q 3142 1920 3142 1261 
Q 3142 966 3043 716 
Q 2944 467 2742 288 
Q 2541 109 2233 6 
Q 1926 -96 1504 -96 
Q 1338 -96 1165 -70 
Q 992 -45 845 -6 
Q 698 32 582 70 
Q 467 109 416 134 
L 531 653 
Q 640 602 886 518 
Q 1133 435 1491 435 
Q 1779 435 1974 499 
Q 2170 563 2291 672 
Q 2413 781 2467 925 
Q 2522 1069 2522 1229 
Q 2522 1472 2438 1661 
Q 2355 1850 2144 1978 
Q 1933 2106 1581 2173 
Q 1229 2240 691 2240 
Q 730 2554 752 2829 
Q 774 3104 793 3366 
Q 813 3629 825 3888 
Q 838 4147 851 4435 
L 2989 4435 
L 2989 3930 
L 1370 3930 
Q 1363 3834 1350 3670 
Q 1338 3507 1325 3331 
Q 1312 3155 1299 2988 
Q 1286 2822 1274 2726 
z
" transform="scale(0.015625)"/>
       </defs>
       <use xlink:href="#Ubuntu-31"/>
       <use xlink:href="#Ubuntu-35" x="56.399994"/>
      </g>
     </g>
    </g>
    <g id="ytick_2">
     <g id="line2d_14">
      <g>
       <use xlink:href="#med6ad22dcf" x="25.225" y="128.134777" style="fill: #aaaaaa; stroke: #aaaaaa; stroke-width: 0.75"/>
      </g>
     </g>
     <g id="text_14">
      <!-- 20 -->
      <g style="fill: #808080" transform="translate(7.2 131.238527) scale(0.08 -0.08)">
       <use xlink:href="#Ubuntu-32"/>
       <use xlink:href="#Ubuntu-30" x="56.399994"/>
      </g>
     </g>
    </g>
    <g id="ytick_3">
     <g id="line2d_15">
      <g>
       <use xlink:href="#med6ad22dcf" x="25.225" y="94.614904" style="fill: #aaaaaa; stroke: #aaaaaa; stroke-width: 0.75"/>
      </g>
     </g>
     <g id="text_15">
      <!-- 25 -->
      <g style="fill: #808080" transform="translate(7.2 97.718654) scale(0.08 -0.08)">
       <use xlink:href="#Ubuntu-32"/>
       <use xlink:href="#Ubuntu-35" x="56.399994"/>
      </g>
     </g>
    </g>
    <g id="ytick_4">
     <g id="line2d_16">
      <g>
       <use xlink:href="#med6ad22dcf" x="25.225" y="61.09503" style="fill: #aaaaaa; stroke: #aaaaaa; stroke-width: 0.75"/>
      </g>
     </g>
     <g id="text_16">
      <!-- 30 -->
      <g style="fill: #808080" transform="translate(7.2 64.19878) scale(0.08 -0.08)">
       <defs>
        <path id="Ubuntu-33" d="M 1446 435 
Q 2016 435 2262 659 
Q 2509 883 2509 1261 
Q 2509 1504 2406 1670 
Q 2304 1837 2137 1936 
Q 1971 2035 1750 2076 
Q 1530 2118 1299 2118 
L 1146 2118 
L 1146 2605 
L 1357 2605 
Q 1517 2605 1686 2637 
Q 1856 2669 1997 2752 
Q 2138 2835 2227 2979 
Q 2317 3123 2317 3341 
Q 2317 3520 2253 3648 
Q 2189 3776 2083 3859 
Q 1978 3942 1840 3977 
Q 1702 4013 1549 4013 
Q 1242 4013 1027 3923 
Q 813 3834 666 3738 
L 435 4192 
Q 512 4243 630 4304 
Q 749 4365 896 4416 
Q 1043 4467 1212 4502 
Q 1382 4538 1568 4538 
Q 1920 4538 2176 4451 
Q 2432 4365 2598 4208 
Q 2765 4051 2848 3836 
Q 2931 3622 2931 3373 
Q 2931 3027 2732 2780 
Q 2534 2534 2253 2406 
Q 2426 2355 2586 2259 
Q 2746 2163 2864 2016 
Q 2982 1869 3056 1677 
Q 3130 1485 3130 1248 
Q 3130 960 3030 713 
Q 2931 467 2723 288 
Q 2515 109 2201 6 
Q 1888 -96 1459 -96 
Q 1293 -96 1117 -70 
Q 941 -45 787 -6 
Q 634 32 518 70 
Q 403 109 352 134 
L 467 653 
Q 576 602 829 518 
Q 1082 435 1446 435 
z
" transform="scale(0.015625)"/>
       </defs>
       <use xlink:href="#Ubuntu-33"/>
       <use xlink:href="#Ubuntu-30" x="56.399994"/>
      </g>
     </g>
    </g>
    <g id="ytick_5">
     <g id="line2d_17">
      <g>
       <use xlink:href="#med6ad22dcf" x="25.225" y="27.575156" style="fill: #aaaaaa; stroke: #aaaaaa; stroke-width: 0.75"/>
      </g>
     </g>
     <g id="text_17">
      <!-- 35 -->
      <g style="fill: #808080" transform="translate(7.2 30.678906) scale(0.08 -0.08)">
       <use xlink:href="#Ubuntu-33"/>
       <use xlink:href="#Ubuntu-35" x="56.399994"/>
      </g>
     </g>
    </g>
   </g>
   <g id="PolyCollection_1">
    <path d="M 35.148529 161.654651 
L 35.148529 161.654651 
L 36.795195 161.654651 
L 38.44186 161.654651 
L 40.088525 161.654651 
L 41.735191 161.654651 
L 43.381856 161.654651 
L 45.028522 161.654651 
L 46.675187 161.654651 
L 48.321852 161.654651 
L 49.968518 161.654651 
L 51.615183 161.654651 
L 53.261848 161.654651 
L 54.908514 161.654651 
L 56.555179 161.654651 
L 58.201844 161.654651 
L 59.84851 161.654651 
L 61.495175 161.654651 
L 63.14184 161.654651 
L 64.788506 161.654651 
L 66.435171 161.654651 
L 68.081837 161.654651 
L 69.728502 161.654651 
L 71.375167 161.654651 
L 73.021833 161.654651 
L 74.668498 161.654651 
L 76.315163 161.654651 
L 77.961829 161.654651 
L 79.608494 161.654651 
L 81.255159 161.654651 
L 82.901825 161.654651 
L 84.54849 161.654651 
L 86.195155 161.654651 
L 87.841821 161.654651 
L 89.488486 161.654651 
L 91.135151 161.654651 
L 92.781817 161.654651 
L 94.428482 161.654651 
L 96.075148 161.654651 
L 97.721813 161.654651 
L 99.368478 161.654651 
L 101.015144 161.654651 
L 102.661809 161.654651 
L 104.308474 161.654651 
L 105.95514 161.654651 
L 107.601805 161.654651 
L 109.24847 161.654651 
L 110.895136 161.654651 
L 112.541801 161.654651 
L 114.188466 161.654651 
L 115.835132 161.654651 
L 117.481797 161.654651 
L 119.128463 161.654651 
L 120.775128 161.654651 
L 122.421793 161.654651 
L 124.068459 161.654651 
L 125.715124 161.654651 
L 127.361789 161.654651 
L 129.008455 161.654651 
L 130.65512 161.654651 
L 132.301785 161.654651 
L 133.948451 161.654651 
L 135.595116 161.654651 
L 137.241781 161.654651 
L 138.888447 161.654651 
L 140.535112 161.654651 
L 142.181777 161.654651 
L 143.828443 161.654651 
L 145.475108 161.654651 
L 147.121774 161.654651 
L 148.768439 161.654651 
L 150.415104 161.654651 
L 152.06177 161.654651 
L 153.708435 161.654651 
L 155.3551 161.654651 
L 157.001766 161.654651 
L 158.648431 161.654651 
L 160.295096 161.654651 
L 161.941762 161.654651 
L 163.588427 161.654651 
L 165.235092 161.654651 
L 166.881758 161.654651 
L 168.528423 161.654651 
L 170.175089 161.654651 
L 171.821754 161.654651 
L 173.468419 161.654651 
L 175.115085 161.654651 
L 176.76175 161.654651 
L 178.408415 161.654651 
L 180.055081 161.654651 
L 181.701746 161.654651 
L 183.348411 161.654651 
L 184.995077 161.654651 
L 186.641742 161.654651 
L 188.288407 161.654651 
L 189.935073 161.654651 
L 191.581738 161.654651 
L 193.228404 161.654651 
L 194.875069 161.654651 
L 196.521734 161.654651 
L 198.1684 161.654651 
L 199.815065 161.654651 
L 201.46173 161.654651 
L 203.108396 161.654651 
L 204.755061 161.654651 
L 206.401726 161.654651 
L 208.048392 161.654651 
L 209.695057 161.654651 
L 211.341722 161.654651 
L 212.988388 161.654651 
L 212.988388 161.654651 
L 212.988388 98.873565 
L 211.341722 99.190406 
L 209.695057 99.497282 
L 208.048392 99.793471 
L 206.401726 100.078249 
L 204.755061 100.350896 
L 203.108396 100.610687 
L 201.46173 100.856901 
L 199.815065 101.088814 
L 198.1684 101.305705 
L 196.521734 101.506851 
L 194.875069 101.691529 
L 193.228404 101.859016 
L 191.581738 102.008594 
L 189.935073 102.14114 
L 188.288407 102.261807 
L 186.641742 102.376454 
L 184.995077 102.490938 
L 183.348411 102.61112 
L 181.701746 102.742856 
L 180.055081 102.892007 
L 178.408415 103.06443 
L 176.76175 103.265985 
L 175.115085 103.50253 
L 173.468419 103.779924 
L 171.821754 104.104025 
L 170.175089 104.480692 
L 168.528423 104.915574 
L 166.881758 105.410396 
L 165.235092 105.963397 
L 163.588427 106.572693 
L 161.941762 107.236403 
L 160.295096 107.952644 
L 158.648431 108.719534 
L 157.001766 109.535189 
L 155.3551 110.397728 
L 153.708435 111.305268 
L 152.06177 112.255926 
L 150.415104 113.247821 
L 148.768439 114.279069 
L 147.121774 115.347787 
L 145.475108 116.450752 
L 143.828443 117.578579 
L 142.181777 118.720122 
L 140.535112 119.864233 
L 138.888447 120.999767 
L 137.241781 122.115576 
L 135.595116 123.200512 
L 133.948451 124.24343 
L 132.301785 125.233183 
L 130.65512 126.158622 
L 129.008455 127.008602 
L 127.361789 127.771975 
L 125.715124 128.437595 
L 124.068459 128.994494 
L 122.421793 129.44044 
L 120.775128 129.785692 
L 119.128463 130.04147 
L 117.481797 130.218994 
L 115.835132 130.329485 
L 114.188466 130.384162 
L 112.541801 130.394246 
L 110.895136 130.370956 
L 109.24847 130.325513 
L 107.601805 130.269136 
L 105.95514 130.213046 
L 104.308474 130.168463 
L 102.661809 130.146606 
L 101.015144 130.15795 
L 99.368478 130.206944 
L 97.721813 130.295123 
L 96.075148 130.424006 
L 94.428482 130.595107 
L 92.781817 130.809946 
L 91.135151 131.070037 
L 89.488486 131.376899 
L 87.841821 131.732047 
L 86.195155 132.137 
L 84.54849 132.593273 
L 82.901825 133.102384 
L 81.255159 133.665849 
L 79.608494 134.285175 
L 77.961829 134.958941 
L 76.315163 135.678857 
L 74.668498 136.435647 
L 73.021833 137.220034 
L 71.375167 138.022743 
L 69.728502 138.834497 
L 68.081837 139.646019 
L 66.435171 140.448035 
L 64.788506 141.231268 
L 63.14184 141.986441 
L 61.495175 142.704278 
L 59.84851 143.375504 
L 58.201844 143.990843 
L 56.555179 144.541017 
L 54.908514 145.016751 
L 53.261848 145.408769 
L 51.615183 145.707795 
L 49.968518 145.904553 
L 48.321852 145.989766 
L 46.675187 145.954158 
L 45.028522 145.788453 
L 43.381856 145.483375 
L 41.735191 145.029648 
L 40.088525 144.417996 
L 38.44186 143.639143 
L 36.795195 142.683812 
L 35.148529 141.542727 
z
" clip-path="url(#pe2321bedc4)" style="fill: #608eb4; fill-opacity: 0.2"/>
   </g>
   <g id="PolyCollection_2">
    <path d="M 214.635053 161.654651 
L 214.635053 161.654651 
L 216.281718 161.654651 
L 217.928384 161.654651 
L 219.575049 161.654651 
L 221.221715 161.654651 
L 222.86838 161.654651 
L 224.515045 161.654651 
L 226.161711 161.654651 
L 227.808376 161.654651 
L 229.455041 161.654651 
L 231.101707 161.654651 
L 232.748372 161.654651 
L 234.395037 161.654651 
L 236.041703 161.654651 
L 237.688368 161.654651 
L 239.335033 161.654651 
L 240.981699 161.654651 
L 242.628364 161.654651 
L 244.27503 161.654651 
L 245.921695 161.654651 
L 247.56836 161.654651 
L 249.215026 161.654651 
L 250.861691 161.654651 
L 252.508356 161.654651 
L 254.155022 161.654651 
L 255.801687 161.654651 
L 257.448352 161.654651 
L 259.095018 161.654651 
L 260.741683 161.654651 
L 262.388348 161.654651 
L 264.035014 161.654651 
L 265.681679 161.654651 
L 267.328344 161.654651 
L 268.97501 161.654651 
L 270.621675 161.654651 
L 272.268341 161.654651 
L 273.915006 161.654651 
L 275.561671 161.654651 
L 277.208337 161.654651 
L 278.855002 161.654651 
L 280.501667 161.654651 
L 282.148333 161.654651 
L 283.794998 161.654651 
L 285.441663 161.654651 
L 287.088329 161.654651 
L 288.734994 161.654651 
L 290.381659 161.654651 
L 292.028325 161.654651 
L 293.67499 161.654651 
L 295.321656 161.654651 
L 296.968321 161.654651 
L 298.614986 161.654651 
L 300.261652 161.654651 
L 301.908317 161.654651 
L 303.554982 161.654651 
L 303.554982 161.654651 
L 303.554982 107.25231 
L 301.908317 106.261278 
L 300.261652 105.459016 
L 298.614986 104.825518 
L 296.968321 104.340778 
L 295.321656 103.984789 
L 293.67499 103.737546 
L 292.028325 103.57904 
L 290.381659 103.489267 
L 288.734994 103.44822 
L 287.088329 103.435893 
L 285.441663 103.432278 
L 283.794998 103.417371 
L 282.148333 103.371164 
L 280.501667 103.274181 
L 278.855002 103.119149 
L 277.208337 102.910994 
L 275.561671 102.655174 
L 273.915006 102.357146 
L 272.268341 102.022368 
L 270.621675 101.656298 
L 268.97501 101.264393 
L 267.328344 100.852111 
L 265.681679 100.424909 
L 264.035014 99.988245 
L 262.388348 99.547577 
L 260.741683 99.108362 
L 259.095018 98.676058 
L 257.448352 98.255812 
L 255.801687 97.851142 
L 254.155022 97.46503 
L 252.508356 97.100461 
L 250.861691 96.760417 
L 249.215026 96.447879 
L 247.56836 96.165833 
L 245.921695 95.917259 
L 244.27503 95.705142 
L 242.628364 95.532464 
L 240.981699 95.402207 
L 239.335033 95.317356 
L 237.688368 95.280891 
L 236.041703 95.295757 
L 234.395037 95.362174 
L 232.748372 95.475969 
L 231.101707 95.632573 
L 229.455041 95.827414 
L 227.808376 96.055922 
L 226.161711 96.313526 
L 224.515045 96.595655 
L 222.86838 96.897738 
L 221.221715 97.215205 
L 219.575049 97.543485 
L 217.928384 97.878007 
L 216.281718 98.214201 
L 214.635053 98.547494 
z
" clip-path="url(#pe2321bedc4)" style="fill: #489079; fill-opacity: 0.2"/>
   </g>
   <g id="PolyCollection_3">
    <path d="M 305.201648 161.654651 
L 305.201648 161.654651 
L 306.848313 161.654651 
L 308.494978 161.654651 
L 310.141644 161.654651 
L 311.788309 161.654651 
L 313.434974 161.654651 
L 315.08164 161.654651 
L 316.728305 161.654651 
L 318.37497 161.654651 
L 320.021636 161.654651 
L 321.668301 161.654651 
L 323.314967 161.654651 
L 324.961632 161.654651 
L 326.608297 161.654651 
L 328.254963 161.654651 
L 329.901628 161.654651 
L 331.548293 161.654651 
L 333.194959 161.654651 
L 334.841624 161.654651 
L 336.488289 161.654651 
L 338.134955 161.654651 
L 339.78162 161.654651 
L 341.428285 161.654651 
L 343.074951 161.654651 
L 344.721616 161.654651 
L 346.368282 161.654651 
L 348.014947 161.654651 
L 349.661612 161.654651 
L 351.308278 161.654651 
L 352.954943 161.654651 
L 354.601608 161.654651 
L 356.248274 161.654651 
L 357.894939 161.654651 
L 359.541604 161.654651 
L 361.18827 161.654651 
L 362.834935 161.654651 
L 364.4816 161.654651 
L 366.128266 161.654651 
L 367.774931 161.654651 
L 369.421596 161.654651 
L 371.068262 161.654651 
L 372.714927 161.654651 
L 374.361593 161.654651 
L 376.008258 161.654651 
L 377.654923 161.654651 
L 379.301589 161.654651 
L 380.948254 161.654651 
L 382.594919 161.654651 
L 384.241585 161.654651 
L 385.88825 161.654651 
L 387.534915 161.654651 
L 389.181581 161.654651 
L 390.828246 161.654651 
L 392.474911 161.654651 
L 394.121577 161.654651 
L 395.768242 161.654651 
L 397.414908 161.654651 
L 399.061573 161.654651 
L 400.708238 161.654651 
L 402.354904 161.654651 
L 404.001569 161.654651 
L 405.648234 161.654651 
L 407.2949 161.654651 
L 408.941565 161.654651 
L 410.58823 161.654651 
L 412.234896 161.654651 
L 413.881561 161.654651 
L 415.528226 161.654651 
L 417.174892 161.654651 
L 418.821557 161.654651 
L 420.468223 161.654651 
L 422.114888 161.654651 
L 423.761553 161.654651 
L 425.408219 161.654651 
L 427.054884 161.654651 
L 428.701549 161.654651 
L 430.348215 161.654651 
L 431.99488 161.654651 
L 433.641545 161.654651 
L 435.288211 161.654651 
L 436.934876 161.654651 
L 438.581541 161.654651 
L 440.228207 161.654651 
L 441.874872 161.654651 
L 443.521537 161.654651 
L 445.168203 161.654651 
L 446.814868 161.654651 
L 448.461534 161.654651 
L 450.108199 161.654651 
L 451.754864 161.654651 
L 453.40153 161.654651 
L 455.048195 161.654651 
L 456.69486 161.654651 
L 458.341526 161.654651 
L 459.988191 161.654651 
L 461.634856 161.654651 
L 463.281522 161.654651 
L 464.928187 161.654651 
L 466.574852 161.654651 
L 468.221518 161.654651 
L 469.868183 161.654651 
L 471.514849 161.654651 
L 473.161514 161.654651 
L 474.808179 161.654651 
L 476.454845 161.654651 
L 478.10151 161.654651 
L 479.748175 161.654651 
L 481.394841 161.654651 
L 483.041506 161.654651 
L 484.688171 161.654651 
L 486.334837 161.654651 
L 487.981502 161.654651 
L 489.628167 161.654651 
L 491.274833 161.654651 
L 492.921498 161.654651 
L 494.568163 161.654651 
L 496.214829 161.654651 
L 497.861494 161.654651 
L 499.50816 161.654651 
L 501.154825 161.654651 
L 502.80149 161.654651 
L 504.448156 161.654651 
L 506.094821 161.654651 
L 507.741486 161.654651 
L 509.388152 161.654651 
L 511.034817 161.654651 
L 512.681482 161.654651 
L 514.328148 161.654651 
L 515.974813 161.654651 
L 517.621478 161.654651 
L 519.268144 161.654651 
L 520.914809 161.654651 
L 522.561475 161.654651 
L 524.20814 161.654651 
L 525.854805 161.654651 
L 527.501471 161.654651 
L 527.501471 161.654651 
L 527.501471 51.039068 
L 525.854805 52.3053 
L 524.20814 53.226384 
L 522.561475 53.827426 
L 520.914809 54.133532 
L 519.268144 54.169809 
L 517.621478 53.961363 
L 515.974813 53.533301 
L 514.328148 52.910729 
L 512.681482 52.118754 
L 511.034817 51.182482 
L 509.388152 50.12702 
L 507.741486 48.977473 
L 506.094821 47.75895 
L 504.448156 46.496556 
L 502.80149 45.215397 
L 501.154825 43.94058 
L 499.50816 42.697212 
L 497.861494 41.510399 
L 496.214829 40.405248 
L 494.568163 39.406864 
L 492.921498 38.540355 
L 491.274833 37.830827 
L 489.628167 37.303386 
L 487.981502 36.983139 
L 486.334837 36.895193 
L 484.688171 37.064653 
L 483.041506 37.516627 
L 481.394841 38.270221 
L 479.748175 39.302707 
L 478.10151 40.573538 
L 476.454845 42.042103 
L 474.808179 43.66779 
L 473.161514 45.409987 
L 471.514849 47.228083 
L 469.868183 49.081466 
L 468.221518 50.929526 
L 466.574852 52.731649 
L 464.928187 54.447224 
L 463.281522 56.035641 
L 461.634856 57.456286 
L 459.988191 58.668668 
L 458.341526 59.650607 
L 456.69486 60.417785 
L 455.048195 60.990577 
L 453.40153 61.389356 
L 451.754864 61.634496 
L 450.108199 61.74637 
L 448.461534 61.745352 
L 446.814868 61.651815 
L 445.168203 61.486134 
L 443.521537 61.268682 
L 441.874872 61.019832 
L 440.228207 60.759958 
L 438.581541 60.509434 
L 436.934876 60.287654 
L 435.288211 60.101278 
L 433.641545 59.948061 
L 431.99488 59.825574 
L 430.348215 59.731389 
L 428.701549 59.663078 
L 427.054884 59.618213 
L 425.408219 59.594365 
L 423.761553 59.589107 
L 422.114888 59.60001 
L 420.468223 59.624646 
L 418.821557 59.660587 
L 417.174892 59.705405 
L 415.528226 59.756671 
L 413.881561 59.813136 
L 412.234896 59.877662 
L 410.58823 59.954008 
L 408.941565 60.045936 
L 407.2949 60.157203 
L 405.648234 60.29157 
L 404.001569 60.452796 
L 402.354904 60.644642 
L 400.708238 60.870866 
L 399.061573 61.135228 
L 397.414908 61.441489 
L 395.768242 61.793406 
L 394.121577 62.194742 
L 392.474911 62.648696 
L 390.828246 63.142444 
L 389.181581 63.64511 
L 387.534915 64.124857 
L 385.88825 64.549846 
L 384.241585 64.88824 
L 382.594919 65.108202 
L 380.948254 65.177893 
L 379.301589 65.065476 
L 377.654923 64.739113 
L 376.008258 64.166967 
L 374.361593 63.317199 
L 372.714927 62.157973 
L 371.068262 60.657449 
L 369.421596 58.797898 
L 367.774931 56.646908 
L 366.128266 54.30398 
L 364.4816 51.868671 
L 362.834935 49.440538 
L 361.18827 47.119139 
L 359.541604 45.004029 
L 357.894939 43.194768 
L 356.248274 41.79091 
L 354.601608 40.892015 
L 352.954943 40.597637 
L 351.308278 41.007335 
L 349.661612 42.220666 
L 348.014947 44.336396 
L 346.368282 47.376181 
L 344.721616 51.220939 
L 343.074951 55.73661 
L 341.428285 60.789134 
L 339.78162 66.244451 
L 338.134955 71.968501 
L 336.488289 77.827224 
L 334.841624 83.68656 
L 333.194959 89.412449 
L 331.548293 94.870831 
L 329.901628 99.927646 
L 328.254963 104.448834 
L 326.608297 108.300335 
L 324.961632 111.35928 
L 323.314967 113.625987 
L 321.668301 115.17709 
L 320.021636 116.090362 
L 318.37497 116.443576 
L 316.728305 116.314504 
L 315.08164 115.780919 
L 313.434974 114.920592 
L 311.788309 113.811296 
L 310.141644 112.530804 
L 308.494978 111.156889 
L 306.848313 109.767322 
L 305.201648 108.439875 
z
" clip-path="url(#pe2321bedc4)" style="fill: #af5a51; fill-opacity: 0.2"/>
   </g>
   <g id="line2d_18">
    <path d="M 35.148529 141.542727 
L 36.795195 142.683812 
L 38.44186 143.639143 
L 40.088525 144.417996 
L 41.735191 145.029648 
L 43.381856 145.483375 
L 45.028522 145.788453 
L 46.675187 145.954158 
L 48.321852 145.989766 
L 49.968518 145.904553 
L 53.261848 145.408769 
L 56.555179 144.541017 
L 59.84851 143.375504 
L 63.14184 141.986441 
L 68.081837 139.646019 
L 76.315163 135.678857 
L 79.608494 134.285175 
L 82.901825 133.102384 
L 86.195155 132.137 
L 89.488486 131.376899 
L 92.781817 130.809946 
L 96.075148 130.424006 
L 99.368478 130.206944 
L 104.308474 130.168463 
L 114.188466 130.384162 
L 117.481797 130.218994 
L 120.775128 129.785692 
L 124.068459 128.994494 
L 127.361789 127.771975 
L 130.65512 126.158622 
L 133.948451 124.24343 
L 138.888447 120.999767 
L 148.768439 114.279069 
L 153.708435 111.305268 
L 157.001766 109.535189 
L 160.295096 107.952644 
L 163.588427 106.572693 
L 166.881758 105.410396 
L 170.175089 104.480692 
L 173.468419 103.779924 
L 176.76175 103.265985 
L 181.701746 102.742856 
L 196.521734 101.506851 
L 203.108396 100.610687 
L 209.695057 99.497282 
L 219.575049 97.543485 
L 226.161711 96.313526 
L 231.101707 95.632573 
L 234.395037 95.362174 
L 237.688368 95.280891 
L 240.981699 95.402207 
L 244.27503 95.705142 
L 249.215026 96.447879 
L 254.155022 97.46503 
L 260.741683 99.108362 
L 270.621675 101.656298 
L 275.561671 102.655174 
L 278.855002 103.119149 
L 282.148333 103.371164 
L 288.734994 103.44822 
L 292.028325 103.57904 
L 295.321656 103.984789 
L 296.968321 104.340778 
L 298.614986 104.825518 
L 300.261652 105.459016 
L 301.908317 106.261278 
L 303.554982 107.25231 
L 305.201648 108.439875 
L 311.788309 113.811296 
L 313.434974 114.920592 
L 315.08164 115.780919 
L 316.728305 116.314504 
L 318.37497 116.443576 
L 320.021636 116.090362 
L 321.668301 115.17709 
L 323.314967 113.625987 
L 324.961632 111.35928 
L 326.608297 108.300335 
L 328.254963 104.448834 
L 329.901628 99.927646 
L 331.548293 94.870831 
L 334.841624 83.68656 
L 339.78162 66.244451 
L 341.428285 60.789134 
L 343.074951 55.73661 
L 344.721616 51.220939 
L 346.368282 47.376181 
L 348.014947 44.336396 
L 349.661612 42.220666 
L 351.308278 41.007335 
L 352.954943 40.597637 
L 354.601608 40.892015 
L 356.248274 41.79091 
L 357.894939 43.194768 
L 359.541604 45.004029 
L 361.18827 47.119139 
L 364.4816 51.868671 
L 367.774931 56.646908 
L 369.421596 58.797898 
L 371.068262 60.657449 
L 372.714927 62.157973 
L 374.361593 63.317199 
L 376.008258 64.166967 
L 377.654923 64.739113 
L 379.301589 65.065476 
L 380.948254 65.177893 
L 382.594919 65.108202 
L 384.241585 64.88824 
L 387.534915 64.124857 
L 395.768242 61.793406 
L 399.061573 61.135228 
L 404.001569 60.452796 
L 408.941565 60.045936 
L 415.528226 59.756671 
L 423.761553 59.589107 
L 428.701549 59.663078 
L 433.641545 59.948061 
L 438.581541 60.509434 
L 446.814868 61.651815 
L 450.108199 61.74637 
L 451.754864 61.634496 
L 453.40153 61.389356 
L 455.048195 60.990577 
L 456.69486 60.417785 
L 458.341526 59.650607 
L 459.988191 58.668668 
L 461.634856 57.456286 
L 463.281522 56.035641 
L 466.574852 52.731649 
L 476.454845 42.042103 
L 478.10151 40.573538 
L 479.748175 39.302707 
L 481.394841 38.270221 
L 483.041506 37.516627 
L 484.688171 37.064653 
L 486.334837 36.895193 
L 487.981502 36.983139 
L 489.628167 37.303386 
L 491.274833 37.830827 
L 492.921498 38.540355 
L 494.568163 39.406864 
L 497.861494 41.510399 
L 501.154825 43.94058 
L 507.741486 48.977473 
L 511.034817 51.182482 
L 512.681482 52.118754 
L 514.328148 52.910729 
L 515.974813 53.533301 
L 517.621478 53.961363 
L 519.268144 54.169809 
L 520.914809 54.133532 
L 522.561475 53.827426 
L 524.20814 53.226384 
L 525.854805 52.3053 
L 527.501471 51.039068 
L 527.501471 51.039068 
" clip-path="url(#pe2321bedc4)" style="fill: none; stroke: #5d5d5d; stroke-width: 1.2; stroke-linecap: square"/>
   </g>
   <g id="patch_3">
    <path d="M 25.225 161.654651 
L 25.225 27.575156 
" style="fill: none; stroke: #aaaaaa; stroke-width: 0.75; stroke-linejoin: miter; stroke-linecap: square"/>
   </g>
   <g id="patch_4">
    <path d="M 35.148529 176.175156 
L 527.501471 176.175156 
" style="fill: none; stroke: #aaaaaa; stroke-width: 0.75; stroke-linejoin: miter; stroke-linecap: square"/>
   </g>
   <g id="legend_1">
    <g id="patch_5">
     <path d="M 38.325 17.783438 
L 56.325 17.783438 
L 56.325 11.483438 
L 38.325 11.483438 
z
" style="fill: #608eb4; fill-opacity: 0.2"/>
    </g>
    <g id="text_18">
     <!-- Первые два срока В. Путина -->
     <g style="fill: #4b4b4b" transform="translate(63.525 17.783438) scale(0.09 -0.09)">
      <defs>
       <path id="Ubuntu-41f" d="M 3923 4435 
L 3923 0 
L 3302 0 
L 3302 3904 
L 1171 3904 
L 1171 0 
L 550 0 
L 550 4435 
L 3923 4435 
z
" transform="scale(0.015625)"/>
       <path id="Ubuntu-435" d="M 326 1658 
Q 326 2099 454 2428 
Q 582 2758 793 2976 
Q 1005 3194 1280 3302 
Q 1555 3411 1843 3411 
Q 2515 3411 2873 2992 
Q 3232 2573 3232 1715 
Q 3232 1677 3232 1616 
Q 3232 1555 3226 1504 
L 947 1504 
Q 986 986 1248 717 
Q 1510 448 2067 448 
Q 2381 448 2595 502 
Q 2810 557 2918 608 
L 3002 109 
Q 2893 51 2621 -13 
Q 2349 -77 2003 -77 
Q 1568 -77 1251 54 
Q 934 186 729 416 
Q 525 646 425 963 
Q 326 1280 326 1658 
z
M 2611 1984 
Q 2618 2387 2410 2646 
Q 2202 2906 1837 2906 
Q 1632 2906 1475 2826 
Q 1318 2746 1209 2618 
Q 1101 2490 1040 2323 
Q 979 2157 960 1984 
L 2611 1984 
z
" transform="scale(0.015625)"/>
       <path id="Ubuntu-440" d="M 2822 1658 
Q 2822 2240 2534 2553 
Q 2246 2867 1766 2867 
Q 1498 2867 1347 2848 
Q 1197 2829 1107 2803 
L 1107 704 
Q 1216 614 1421 531 
Q 1626 448 1869 448 
Q 2125 448 2307 541 
Q 2490 634 2605 797 
Q 2720 960 2771 1181 
Q 2822 1402 2822 1658 
z
M 3443 1658 
Q 3443 1280 3344 960 
Q 3245 640 3053 409 
Q 2861 179 2582 51 
Q 2304 -77 1946 -77 
Q 1658 -77 1437 0 
Q 1216 77 1107 147 
L 1107 -1184 
L 512 -1184 
L 512 3226 
Q 723 3277 1040 3337 
Q 1357 3398 1773 3398 
Q 2157 3398 2464 3276 
Q 2771 3155 2988 2931 
Q 3206 2707 3324 2384 
Q 3443 2061 3443 1658 
z
" transform="scale(0.015625)"/>
       <path id="Ubuntu-432" d="M 1094 448 
Q 1133 442 1203 435 
Q 1274 429 1363 425 
Q 1453 422 1552 419 
Q 1651 416 1741 416 
Q 1926 416 2096 441 
Q 2266 467 2390 531 
Q 2515 595 2588 700 
Q 2662 806 2662 973 
Q 2662 1133 2595 1238 
Q 2528 1344 2413 1408 
Q 2298 1472 2141 1497 
Q 1984 1523 1805 1523 
L 1094 1523 
L 1094 448 
z
M 1728 1965 
Q 1901 1965 2045 1987 
Q 2189 2010 2294 2067 
Q 2400 2125 2461 2221 
Q 2522 2317 2522 2464 
Q 2522 2618 2445 2707 
Q 2368 2797 2243 2845 
Q 2118 2893 1961 2909 
Q 1805 2925 1645 2925 
Q 1498 2925 1347 2918 
Q 1197 2912 1094 2906 
L 1094 1965 
L 1728 1965 
z
M 1715 -58 
Q 1338 -58 1018 -22 
Q 698 13 512 58 
L 512 3296 
Q 698 3341 1018 3376 
Q 1338 3411 1715 3411 
Q 1978 3411 2227 3366 
Q 2477 3322 2669 3216 
Q 2861 3110 2979 2928 
Q 3098 2746 3098 2477 
Q 3098 2234 2976 2061 
Q 2854 1888 2650 1792 
Q 2925 1696 3088 1507 
Q 3251 1318 3251 979 
Q 3251 678 3132 480 
Q 3014 282 2806 160 
Q 2598 38 2316 -10 
Q 2035 -58 1715 -58 
z
" transform="scale(0.015625)"/>
       <path id="Ubuntu-44b" d="M 1734 1645 
Q 1562 1645 1398 1635 
Q 1235 1626 1107 1594 
L 1107 448 
Q 1146 442 1219 435 
Q 1293 429 1379 425 
Q 1466 422 1555 419 
Q 1645 416 1715 416 
Q 2106 416 2317 563 
Q 2528 710 2528 1037 
Q 2528 1197 2461 1312 
Q 2394 1427 2282 1500 
Q 2170 1574 2029 1609 
Q 1888 1645 1734 1645 
z
M 512 3328 
L 1107 3328 
L 1107 2054 
Q 1216 2080 1424 2105 
Q 1632 2131 1824 2131 
Q 2086 2131 2323 2070 
Q 2560 2010 2739 1878 
Q 2918 1747 3024 1539 
Q 3130 1331 3130 1043 
Q 3130 742 3027 531 
Q 2925 320 2739 185 
Q 2554 51 2291 -9 
Q 2029 -70 1715 -70 
Q 1414 -70 1107 -35 
Q 800 0 512 70 
L 512 3328 
z
M 4339 0 
L 3744 0 
L 3744 3328 
L 4339 3328 
L 4339 0 
z
" transform="scale(0.015625)"/>
       <path id="Ubuntu-20" transform="scale(0.015625)"/>
       <path id="Ubuntu-434" d="M 102 486 
L 461 486 
Q 672 794 797 1120 
Q 922 1446 986 1795 
Q 1050 2144 1069 2525 
Q 1088 2906 1094 3328 
L 3277 3328 
L 3277 486 
L 3725 486 
L 3725 -928 
L 3162 -928 
L 3162 0 
L 666 0 
L 666 -928 
L 102 -928 
L 102 486 
z
M 2682 486 
L 2682 2829 
L 1638 2829 
Q 1632 2528 1606 2224 
Q 1581 1920 1523 1622 
Q 1466 1325 1360 1040 
Q 1254 755 1094 486 
L 2682 486 
z
" transform="scale(0.015625)"/>
       <path id="Ubuntu-430" d="M 1638 429 
Q 1850 429 2013 438 
Q 2176 448 2285 474 
L 2285 1466 
Q 2221 1498 2077 1520 
Q 1933 1542 1728 1542 
Q 1594 1542 1443 1523 
Q 1293 1504 1168 1443 
Q 1043 1382 960 1276 
Q 877 1171 877 998 
Q 877 678 1081 553 
Q 1286 429 1638 429 
z
M 1587 3411 
Q 1946 3411 2192 3318 
Q 2438 3226 2588 3056 
Q 2739 2886 2803 2652 
Q 2867 2419 2867 2138 
L 2867 58 
Q 2790 45 2652 22 
Q 2515 0 2342 -19 
Q 2170 -38 1968 -54 
Q 1766 -70 1568 -70 
Q 1286 -70 1049 -12 
Q 813 45 640 169 
Q 467 294 371 499 
Q 275 704 275 992 
Q 275 1267 387 1465 
Q 499 1664 691 1785 
Q 883 1907 1139 1964 
Q 1395 2022 1677 2022 
Q 1766 2022 1862 2012 
Q 1958 2003 2044 1987 
Q 2131 1971 2195 1958 
Q 2259 1946 2285 1939 
L 2285 2106 
Q 2285 2253 2253 2397 
Q 2221 2541 2137 2653 
Q 2054 2765 1910 2832 
Q 1766 2899 1536 2899 
Q 1242 2899 1021 2857 
Q 800 2816 691 2771 
L 621 3264 
Q 736 3315 1005 3363 
Q 1274 3411 1587 3411 
z
" transform="scale(0.015625)"/>
       <path id="Ubuntu-441" d="M 1958 -77 
Q 1555 -77 1251 51 
Q 947 179 739 409 
Q 531 640 428 957 
Q 326 1274 326 1658 
Q 326 2042 438 2362 
Q 550 2682 755 2915 
Q 960 3149 1257 3280 
Q 1555 3411 1920 3411 
Q 2144 3411 2368 3372 
Q 2592 3334 2797 3251 
L 2662 2746 
Q 2528 2810 2352 2848 
Q 2176 2886 1978 2886 
Q 1478 2886 1212 2572 
Q 947 2259 947 1658 
Q 947 1389 1008 1165 
Q 1069 941 1200 781 
Q 1331 621 1536 534 
Q 1741 448 2035 448 
Q 2272 448 2464 493 
Q 2656 538 2765 589 
L 2848 90 
Q 2797 58 2701 29 
Q 2605 0 2483 -22 
Q 2362 -45 2224 -61 
Q 2086 -77 1958 -77 
z
" transform="scale(0.015625)"/>
       <path id="Ubuntu-43e" d="M 3450 1664 
Q 3450 1267 3334 947 
Q 3219 627 3011 396 
Q 2803 166 2515 41 
Q 2227 -83 1888 -83 
Q 1549 -83 1261 41 
Q 973 166 765 396 
Q 557 627 441 947 
Q 326 1267 326 1664 
Q 326 2054 441 2377 
Q 557 2701 765 2931 
Q 973 3162 1261 3286 
Q 1549 3411 1888 3411 
Q 2227 3411 2515 3286 
Q 2803 3162 3011 2931 
Q 3219 2701 3334 2377 
Q 3450 2054 3450 1664 
z
M 2829 1664 
Q 2829 2227 2576 2556 
Q 2323 2886 1888 2886 
Q 1453 2886 1200 2556 
Q 947 2227 947 1664 
Q 947 1101 1200 771 
Q 1453 442 1888 442 
Q 2323 442 2576 771 
Q 2829 1101 2829 1664 
z
" transform="scale(0.015625)"/>
       <path id="Ubuntu-43a" d="M 1728 1811 
Q 1926 1670 2156 1456 
Q 2387 1242 2608 992 
Q 2829 742 3021 483 
Q 3213 224 3347 0 
L 2643 0 
Q 2502 218 2313 445 
Q 2125 672 1920 883 
Q 1715 1094 1504 1273 
Q 1293 1453 1107 1574 
L 1107 0 
L 512 0 
L 512 3328 
L 1107 3328 
L 1107 1901 
Q 1261 2048 1459 2243 
Q 1658 2438 1859 2640 
Q 2061 2842 2233 3024 
Q 2406 3206 2515 3328 
L 3206 3328 
Q 3066 3174 2877 2979 
Q 2688 2784 2486 2579 
Q 2285 2374 2086 2172 
Q 1888 1971 1728 1811 
z
" transform="scale(0.015625)"/>
       <path id="Ubuntu-412" d="M 1747 -38 
Q 1613 -38 1456 -32 
Q 1299 -26 1142 -13 
Q 986 0 832 19 
Q 678 38 550 70 
L 550 4371 
Q 678 4403 832 4422 
Q 986 4442 1142 4454 
Q 1299 4467 1452 4473 
Q 1606 4480 1741 4480 
Q 2125 4480 2461 4422 
Q 2797 4365 3043 4227 
Q 3290 4090 3430 3866 
Q 3571 3642 3571 3315 
Q 3571 2950 3398 2716 
Q 3226 2483 2938 2368 
Q 3328 2253 3558 2003 
Q 3789 1754 3789 1299 
Q 3789 634 3299 298 
Q 2810 -38 1747 -38 
z
M 1165 2067 
L 1165 506 
Q 1235 499 1331 493 
Q 1414 486 1526 483 
Q 1638 480 1786 480 
Q 2061 480 2307 515 
Q 2554 550 2739 640 
Q 2925 730 3037 890 
Q 3149 1050 3149 1293 
Q 3149 1510 3065 1660 
Q 2982 1811 2825 1900 
Q 2669 1990 2451 2028 
Q 2234 2067 1965 2067 
L 1165 2067 
z
M 1165 2566 
L 1818 2566 
Q 2048 2566 2253 2598 
Q 2458 2630 2608 2713 
Q 2758 2797 2844 2931 
Q 2931 3066 2931 3270 
Q 2931 3462 2841 3593 
Q 2752 3725 2595 3805 
Q 2438 3885 2227 3923 
Q 2016 3962 1779 3962 
Q 1542 3962 1408 3955 
Q 1274 3949 1165 3936 
L 1165 2566 
z
" transform="scale(0.015625)"/>
       <path id="Ubuntu-2e" d="M 1216 346 
Q 1216 173 1101 45 
Q 986 -83 787 -83 
Q 589 -83 473 45 
Q 358 173 358 346 
Q 358 518 473 646 
Q 589 774 787 774 
Q 986 774 1101 646 
Q 1216 518 1216 346 
z
" transform="scale(0.015625)"/>
       <path id="Ubuntu-443" d="M 122 -621 
Q 192 -653 304 -681 
Q 416 -710 525 -710 
Q 877 -710 1075 -553 
Q 1274 -397 1434 -45 
Q 1030 723 681 1584 
Q 333 2445 102 3328 
L 742 3328 
Q 813 3040 912 2707 
Q 1011 2374 1132 2022 
Q 1254 1670 1395 1318 
Q 1536 966 1690 640 
Q 1933 1312 2112 1971 
Q 2291 2630 2451 3328 
L 3066 3328 
Q 2835 2387 2553 1520 
Q 2272 653 1946 -102 
Q 1818 -390 1680 -598 
Q 1542 -806 1376 -940 
Q 1210 -1075 1002 -1139 
Q 794 -1203 531 -1203 
Q 461 -1203 384 -1193 
Q 307 -1184 233 -1168 
Q 160 -1152 99 -1133 
Q 38 -1114 13 -1101 
L 122 -621 
z
" transform="scale(0.015625)"/>
       <path id="Ubuntu-442" d="M 2861 3328 
L 2861 2829 
L 1779 2829 
L 1779 0 
L 1184 0 
L 1184 2829 
L 102 2829 
L 102 3328 
L 2861 3328 
z
" transform="scale(0.015625)"/>
       <path id="Ubuntu-438" d="M 3309 3328 
L 3309 0 
L 2733 0 
L 2733 2534 
Q 2541 2291 2310 1964 
Q 2080 1638 1849 1289 
Q 1619 941 1408 601 
Q 1197 262 1043 0 
L 512 0 
L 512 3328 
L 1088 3328 
L 1088 934 
Q 1254 1210 1465 1539 
Q 1677 1869 1904 2192 
Q 2131 2515 2358 2812 
Q 2586 3110 2784 3328 
L 3309 3328 
z
" transform="scale(0.015625)"/>
       <path id="Ubuntu-43d" d="M 3238 0 
L 2643 0 
L 2643 1472 
L 1107 1472 
L 1107 0 
L 512 0 
L 512 3328 
L 1107 3328 
L 1107 1971 
L 2643 1971 
L 2643 3328 
L 3238 3328 
L 3238 0 
z
" transform="scale(0.015625)"/>
      </defs>
      <use xlink:href="#Ubuntu-41f"/>
      <use xlink:href="#Ubuntu-435" x="69.899994"/>
      <use xlink:href="#Ubuntu-440" x="125.799988"/>
      <use xlink:href="#Ubuntu-432" x="184.699982"/>
      <use xlink:href="#Ubuntu-44b" x="239.499969"/>
      <use xlink:href="#Ubuntu-435" x="315.299957"/>
      <use xlink:href="#Ubuntu-20" x="371.199951"/>
      <use xlink:href="#Ubuntu-434" x="394.299942"/>
      <use xlink:href="#Ubuntu-432" x="454.59993"/>
      <use xlink:href="#Ubuntu-430" x="509.399918"/>
      <use xlink:href="#Ubuntu-20" x="561.599915"/>
      <use xlink:href="#Ubuntu-441" x="584.699905"/>
      <use xlink:href="#Ubuntu-440" x="631.19989"/>
      <use xlink:href="#Ubuntu-43e" x="690.099884"/>
      <use xlink:href="#Ubuntu-43a" x="749.099869"/>
      <use xlink:href="#Ubuntu-430" x="802.799866"/>
      <use xlink:href="#Ubuntu-20" x="854.999863"/>
      <use xlink:href="#Ubuntu-412" x="878.099854"/>
      <use xlink:href="#Ubuntu-2e" x="941.399841"/>
      <use xlink:href="#Ubuntu-20" x="965.999832"/>
      <use xlink:href="#Ubuntu-41f" x="989.099823"/>
      <use xlink:href="#Ubuntu-443" x="1058.999817"/>
      <use xlink:href="#Ubuntu-442" x="1110.824814"/>
      <use xlink:href="#Ubuntu-438" x="1157.124802"/>
      <use xlink:href="#Ubuntu-43d" x="1216.824799"/>
      <use xlink:href="#Ubuntu-430" x="1275.424789"/>
     </g>
    </g>
    <g id="patch_6">
     <path d="M 201.01125 17.783438 
L 219.01125 17.783438 
L 219.01125 11.483438 
L 201.01125 11.483438 
z
" style="fill: #489079; fill-opacity: 0.2"/>
    </g>
    <g id="text_19">
     <!-- Президентство Д. Медведева -->
     <g style="fill: #4b4b4b" transform="translate(226.21125 17.783438) scale(0.09 -0.09)">
      <defs>
       <path id="Ubuntu-437" d="M 1357 3411 
Q 1645 3411 1894 3353 
Q 2144 3296 2323 3181 
Q 2502 3066 2604 2893 
Q 2707 2720 2707 2490 
Q 2707 2342 2656 2220 
Q 2605 2099 2528 2003 
Q 2451 1907 2358 1840 
Q 2266 1773 2182 1747 
Q 2477 1658 2646 1430 
Q 2816 1203 2816 858 
Q 2816 384 2432 153 
Q 2048 -77 1389 -77 
Q 986 -77 694 -13 
Q 403 51 282 109 
L 384 614 
Q 486 576 752 509 
Q 1018 442 1389 442 
Q 1792 442 2003 566 
Q 2214 691 2214 941 
Q 2214 1120 2134 1232 
Q 2054 1344 1932 1401 
Q 1811 1459 1670 1478 
Q 1530 1498 1408 1498 
L 851 1498 
L 851 1971 
L 1389 1971 
Q 1504 1971 1629 1987 
Q 1754 2003 1859 2054 
Q 1965 2106 2035 2198 
Q 2106 2291 2106 2445 
Q 2106 2566 2045 2652 
Q 1984 2739 1881 2796 
Q 1779 2854 1641 2883 
Q 1504 2912 1357 2912 
Q 1242 2912 1107 2893 
Q 973 2874 845 2845 
Q 717 2816 614 2784 
Q 512 2752 467 2726 
L 358 3238 
Q 410 3258 518 3290 
Q 627 3322 764 3347 
Q 902 3373 1056 3392 
Q 1210 3411 1357 3411 
z
" transform="scale(0.015625)"/>
       <path id="Ubuntu-414" d="M 691 0 
L 691 -1184 
L 102 -1184 
L 102 531 
L 570 531 
Q 896 902 1072 1353 
Q 1248 1805 1328 2307 
Q 1408 2810 1424 3347 
Q 1440 3885 1446 4435 
L 3955 4435 
L 3955 531 
L 4512 531 
L 4512 -1184 
L 3923 -1184 
L 3923 0 
L 691 0 
z
M 2054 3904 
Q 2035 3482 2012 3043 
Q 1990 2605 1916 2173 
Q 1843 1741 1702 1325 
Q 1562 909 1306 531 
L 3334 531 
L 3334 3904 
L 2054 3904 
z
" transform="scale(0.015625)"/>
       <path id="Ubuntu-41c" d="M 2541 614 
Q 2477 768 2371 1005 
Q 2266 1242 2144 1517 
Q 2022 1792 1884 2083 
Q 1747 2374 1625 2633 
Q 1504 2893 1398 3097 
Q 1293 3302 1229 3411 
Q 1158 2656 1113 1776 
Q 1069 896 1037 0 
L 429 0 
Q 454 576 486 1161 
Q 518 1747 560 2313 
Q 602 2880 650 3417 
Q 698 3955 755 4435 
L 1299 4435 
Q 1472 4154 1670 3770 
Q 1869 3386 2067 2966 
Q 2266 2547 2451 2128 
Q 2637 1709 2790 1363 
Q 2944 1709 3129 2128 
Q 3315 2547 3513 2966 
Q 3712 3386 3910 3770 
Q 4109 4154 4282 4435 
L 4826 4435 
Q 5043 2291 5152 0 
L 4544 0 
Q 4512 896 4467 1776 
Q 4422 2656 4352 3411 
Q 4288 3302 4182 3097 
Q 4077 2893 3955 2633 
Q 3834 2374 3696 2083 
Q 3558 1792 3436 1517 
Q 3315 1242 3209 1005 
Q 3104 768 3040 614 
L 2541 614 
z
" transform="scale(0.015625)"/>
      </defs>
      <use xlink:href="#Ubuntu-41f"/>
      <use xlink:href="#Ubuntu-440" x="69.899994"/>
      <use xlink:href="#Ubuntu-435" x="128.799988"/>
      <use xlink:href="#Ubuntu-437" x="183.449982"/>
      <use xlink:href="#Ubuntu-438" x="232.349976"/>
      <use xlink:href="#Ubuntu-434" x="292.049973"/>
      <use xlink:href="#Ubuntu-435" x="352.34996"/>
      <use xlink:href="#Ubuntu-43d" x="408.249954"/>
      <use xlink:href="#Ubuntu-442" x="466.849945"/>
      <use xlink:href="#Ubuntu-441" x="513.149933"/>
      <use xlink:href="#Ubuntu-442" x="561.149918"/>
      <use xlink:href="#Ubuntu-432" x="607.449905"/>
      <use xlink:href="#Ubuntu-43e" x="662.249893"/>
      <use xlink:href="#Ubuntu-20" x="721.249878"/>
      <use xlink:href="#Ubuntu-414" x="744.349869"/>
      <use xlink:href="#Ubuntu-2e" x="818.399857"/>
      <use xlink:href="#Ubuntu-20" x="842.999847"/>
      <use xlink:href="#Ubuntu-41c" x="866.099838"/>
      <use xlink:href="#Ubuntu-435" x="953.199829"/>
      <use xlink:href="#Ubuntu-434" x="1009.099823"/>
      <use xlink:href="#Ubuntu-432" x="1069.399811"/>
      <use xlink:href="#Ubuntu-435" x="1124.199799"/>
      <use xlink:href="#Ubuntu-434" x="1180.099792"/>
      <use xlink:href="#Ubuntu-435" x="1240.39978"/>
      <use xlink:href="#Ubuntu-432" x="1296.299774"/>
      <use xlink:href="#Ubuntu-430" x="1351.099762"/>
     </g>
    </g>
    <g id="patch_7">
     <path d="M 370.507969 17.783438 
L 388.507969 17.783438 
L 388.507969 11.483438 
L 370.507969 11.483438 
z
" style="fill: #af5a51; fill-opacity: 0.2"/>
    </g>
    <g id="text_20">
     <!-- Последующие сроки В. Путина -->
     <g style="fill: #4b4b4b" transform="translate(395.707969 17.783438) scale(0.09 -0.09)">
      <defs>
       <path id="Ubuntu-43b" d="M 1670 2829 
Q 1670 2618 1660 2378 
Q 1651 2138 1625 1898 
Q 1600 1658 1555 1424 
Q 1510 1190 1440 986 
Q 1370 781 1264 601 
Q 1158 422 1004 284 
Q 851 147 646 54 
Q 442 -38 166 -64 
L 83 435 
Q 397 499 579 672 
Q 762 845 870 1094 
Q 966 1312 1011 1587 
Q 1056 1862 1075 2160 
Q 1094 2458 1097 2758 
Q 1101 3059 1101 3328 
L 3315 3328 
L 3315 0 
L 2720 0 
L 2720 2829 
L 1670 2829 
z
" transform="scale(0.015625)"/>
       <path id="Ubuntu-44e" d="M 1107 1952 
L 1837 1952 
Q 1875 2285 2006 2553 
Q 2138 2822 2336 3014 
Q 2534 3206 2790 3308 
Q 3046 3411 3341 3411 
Q 3667 3411 3945 3286 
Q 4224 3162 4429 2931 
Q 4634 2701 4749 2377 
Q 4864 2054 4864 1664 
Q 4864 1267 4749 947 
Q 4634 627 4429 396 
Q 4224 166 3945 41 
Q 3667 -83 3341 -83 
Q 3034 -83 2768 29 
Q 2502 141 2304 342 
Q 2106 544 1981 832 
Q 1856 1120 1830 1472 
L 1107 1472 
L 1107 0 
L 512 0 
L 512 3328 
L 1107 3328 
L 1107 1952 
z
M 4250 1664 
Q 4250 2227 4003 2556 
Q 3757 2886 3341 2886 
Q 2925 2886 2678 2556 
Q 2432 2227 2432 1664 
Q 2432 1101 2678 771 
Q 2925 442 3341 442 
Q 3757 442 4003 771 
Q 4250 1101 4250 1664 
z
" transform="scale(0.015625)"/>
       <path id="Ubuntu-449" d="M 512 0 
L 512 3328 
L 1107 3328 
L 1107 493 
L 2336 493 
L 2336 3328 
L 2931 3328 
L 2931 493 
L 4160 493 
L 4160 3328 
L 4755 3328 
L 4755 493 
L 5203 493 
L 5203 -928 
L 4640 -928 
L 4640 0 
L 512 0 
z
" transform="scale(0.015625)"/>
      </defs>
      <use xlink:href="#Ubuntu-41f"/>
      <use xlink:href="#Ubuntu-43e" x="69.899994"/>
      <use xlink:href="#Ubuntu-441" x="128.899979"/>
      <use xlink:href="#Ubuntu-43b" x="177.274963"/>
      <use xlink:href="#Ubuntu-435" x="237.074951"/>
      <use xlink:href="#Ubuntu-434" x="292.974945"/>
      <use xlink:href="#Ubuntu-443" x="355.649933"/>
      <use xlink:href="#Ubuntu-44e" x="405.34993"/>
      <use xlink:href="#Ubuntu-449" x="486.449921"/>
      <use xlink:href="#Ubuntu-438" x="569.849915"/>
      <use xlink:href="#Ubuntu-435" x="629.549911"/>
      <use xlink:href="#Ubuntu-20" x="685.449905"/>
      <use xlink:href="#Ubuntu-441" x="708.549896"/>
      <use xlink:href="#Ubuntu-440" x="755.049881"/>
      <use xlink:href="#Ubuntu-43e" x="813.949875"/>
      <use xlink:href="#Ubuntu-43a" x="872.94986"/>
      <use xlink:href="#Ubuntu-438" x="926.649857"/>
      <use xlink:href="#Ubuntu-20" x="986.349854"/>
      <use xlink:href="#Ubuntu-412" x="1009.449844"/>
      <use xlink:href="#Ubuntu-2e" x="1072.749832"/>
      <use xlink:href="#Ubuntu-20" x="1097.349823"/>
      <use xlink:href="#Ubuntu-41f" x="1120.449814"/>
      <use xlink:href="#Ubuntu-443" x="1190.349808"/>
      <use xlink:href="#Ubuntu-442" x="1242.174805"/>
      <use xlink:href="#Ubuntu-438" x="1288.474792"/>
      <use xlink:href="#Ubuntu-43d" x="1348.174789"/>
      <use xlink:href="#Ubuntu-430" x="1406.77478"/>
     </g>
    </g>
   </g>
  </g>
 </g>
 <defs>
  <clipPath id="pe2321bedc4">
   <rect x="30.225" y="27.575156" width="502.2" height="138.6"/>
  </clipPath>
 </defs>
</svg>
