<?xml version="1.0" encoding="utf-8" standalone="no"?>
<!DOCTYPE svg PUBLIC "-//W3C//DTD SVG 1.1//EN"
  "http://www.w3.org/Graphics/SVG/1.1/DTD/svg11.dtd">
<svg xmlns:xlink="http://www.w3.org/1999/xlink" width="539.726471pt" height="188.79875pt" viewBox="0 0 539.726471 188.79875" xmlns="http://www.w3.org/2000/svg" version="1.1">
 <metadata>
  <rdf:RDF xmlns:dc="http://purl.org/dc/elements/1.1/" xmlns:cc="http://creativecommons.org/ns#" xmlns:rdf="http://www.w3.org/1999/02/22-rdf-syntax-ns#">
   <cc:Work>
    <dc:type rdf:resource="http://purl.org/dc/dcmitype/StillImage"/>
    <dc:date>2024-05-23T11:18:27.162010</dc:date>
    <dc:format>image/svg+xml</dc:format>
    <dc:creator>
     <cc:Agent>
      <dc:title>Matplotlib v3.8.0, https://matplotlib.org/</dc:title>
     </cc:Agent>
    </dc:creator>
   </cc:Work>
  </rdf:RDF>
 </metadata>
 <defs>
  <style type="text/css">*{stroke-linejoin: round; stroke-linecap: butt}</style>
 </defs>
 <g id="figure_1">
  <g id="patch_1">
   <path d="M 0 188.79875 
L 539.726471 188.79875 
L 539.726471 0 
L 0 0 
L 0 188.79875 
z
" style="fill: none"/>
  </g>
  <g id="axes_1">
   <g id="patch_2">
    <path d="M 26.225 163.91125 
L 528.425 163.91125 
L 528.425 25.31125 
L 26.225 25.31125 
L 26.225 163.91125 
z
" style="fill: none"/>
   </g>
   <g id="matplotlib.axis_1">
    <g id="xtick_1">
     <g id="line2d_1">
      <defs>
       <path id="mdea2899b95" d="M 0 0 
L 0 3 
" style="stroke: #cecece; stroke-width: 0.75"/>
      </defs>
      <g>
       <use xlink:href="#mdea2899b95" x="31.148529" y="164.91125" style="fill: #cecece; stroke: #cecece; stroke-width: 0.75"/>
      </g>
     </g>
     <g id="text_1">
      <!-- 2000 -->
      <g style="fill: #808080" transform="translate(22.123529 180.11875) scale(0.08 -0.08)">
       <defs>
        <path id="Ubuntu-32" d="M 2989 3302 
Q 2989 3072 2896 2857 
Q 2803 2643 2649 2435 
Q 2496 2227 2304 2025 
Q 2112 1824 1920 1632 
Q 1811 1523 1667 1376 
Q 1523 1229 1395 1069 
Q 1267 909 1180 761 
Q 1094 614 1094 506 
L 3136 506 
L 3136 0 
L 448 0 
Q 442 38 442 76 
Q 442 115 442 147 
Q 442 448 541 707 
Q 640 966 800 1196 
Q 960 1427 1158 1632 
Q 1357 1837 1549 2029 
Q 1709 2182 1853 2332 
Q 1997 2483 2109 2633 
Q 2221 2784 2288 2944 
Q 2355 3104 2355 3283 
Q 2355 3475 2294 3609 
Q 2234 3744 2131 3833 
Q 2029 3923 1891 3964 
Q 1754 4006 1600 4006 
Q 1414 4006 1260 3955 
Q 1107 3904 985 3837 
Q 864 3770 781 3696 
Q 698 3622 653 3584 
L 358 4006 
Q 416 4070 531 4163 
Q 646 4256 806 4339 
Q 966 4422 1164 4480 
Q 1363 4538 1594 4538 
Q 2291 4538 2640 4214 
Q 2989 3891 2989 3302 
z
" transform="scale(0.015625)"/>
        <path id="Ubuntu-30" d="M 320 2221 
Q 320 3334 713 3936 
Q 1107 4538 1805 4538 
Q 2502 4538 2896 3936 
Q 3290 3334 3290 2221 
Q 3290 1107 2896 505 
Q 2502 -96 1805 -96 
Q 1107 -96 713 505 
Q 320 1107 320 2221 
z
M 2662 2221 
Q 2662 2586 2620 2912 
Q 2579 3238 2480 3481 
Q 2381 3725 2214 3869 
Q 2048 4013 1805 4013 
Q 1562 4013 1395 3869 
Q 1229 3725 1129 3481 
Q 1030 3238 988 2912 
Q 947 2586 947 2221 
Q 947 1856 988 1529 
Q 1030 1203 1129 960 
Q 1229 717 1395 573 
Q 1562 429 1805 429 
Q 2048 429 2214 573 
Q 2381 717 2480 960 
Q 2579 1203 2620 1529 
Q 2662 1856 2662 2221 
z
" transform="scale(0.015625)"/>
       </defs>
       <use xlink:href="#Ubuntu-32"/>
       <use xlink:href="#Ubuntu-30" x="56.399994"/>
       <use xlink:href="#Ubuntu-30" x="112.799988"/>
       <use xlink:href="#Ubuntu-30" x="169.199982"/>
      </g>
     </g>
    </g>
    <g id="xtick_2">
     <g id="line2d_2">
      <g>
       <use xlink:href="#mdea2899b95" x="75.907888" y="164.91125" style="fill: #cecece; stroke: #cecece; stroke-width: 0.75"/>
      </g>
     </g>
     <g id="text_2">
      <!-- 2002 -->
      <g style="fill: #808080" transform="translate(66.882888 180.11875) scale(0.08 -0.08)">
       <use xlink:href="#Ubuntu-32"/>
       <use xlink:href="#Ubuntu-30" x="56.399994"/>
       <use xlink:href="#Ubuntu-30" x="112.799988"/>
       <use xlink:href="#Ubuntu-32" x="169.199982"/>
      </g>
     </g>
    </g>
    <g id="xtick_3">
     <g id="line2d_3">
      <g>
       <use xlink:href="#mdea2899b95" x="120.667246" y="164.91125" style="fill: #cecece; stroke: #cecece; stroke-width: 0.75"/>
      </g>
     </g>
     <g id="text_3">
      <!-- 2004 -->
      <g style="fill: #808080" transform="translate(111.642246 180.11875) scale(0.08 -0.08)">
       <defs>
        <path id="Ubuntu-34" d="M 256 1536 
Q 378 1818 589 2192 
Q 800 2566 1065 2963 
Q 1331 3360 1635 3744 
Q 1939 4128 2246 4435 
L 2816 4435 
L 2816 1619 
L 3341 1619 
L 3341 1133 
L 2816 1133 
L 2816 0 
L 2240 0 
L 2240 1133 
L 256 1133 
L 256 1536 
z
M 2240 3731 
Q 2048 3526 1853 3273 
Q 1658 3021 1472 2745 
Q 1286 2470 1123 2182 
Q 960 1894 832 1619 
L 2240 1619 
L 2240 3731 
z
" transform="scale(0.015625)"/>
       </defs>
       <use xlink:href="#Ubuntu-32"/>
       <use xlink:href="#Ubuntu-30" x="56.399994"/>
       <use xlink:href="#Ubuntu-30" x="112.799988"/>
       <use xlink:href="#Ubuntu-34" x="169.199982"/>
      </g>
     </g>
    </g>
    <g id="xtick_4">
     <g id="line2d_4">
      <g>
       <use xlink:href="#mdea2899b95" x="165.426604" y="164.91125" style="fill: #cecece; stroke: #cecece; stroke-width: 0.75"/>
      </g>
     </g>
     <g id="text_4">
      <!-- 2006 -->
      <g style="fill: #808080" transform="translate(156.401604 180.11875) scale(0.08 -0.08)">
       <defs>
        <path id="Ubuntu-36" d="M 403 1779 
Q 403 2426 582 2922 
Q 762 3418 1091 3757 
Q 1421 4096 1891 4272 
Q 2362 4448 2950 4454 
L 2995 3955 
Q 2618 3949 2307 3872 
Q 1997 3795 1753 3628 
Q 1510 3462 1344 3196 
Q 1178 2931 1094 2541 
Q 1261 2618 1469 2669 
Q 1677 2720 1901 2720 
Q 2278 2720 2540 2605 
Q 2803 2490 2969 2301 
Q 3136 2112 3209 1865 
Q 3283 1619 3283 1350 
Q 3283 1107 3200 851 
Q 3117 595 2947 384 
Q 2778 173 2515 38 
Q 2253 -96 1894 -96 
Q 1165 -96 784 403 
Q 403 902 403 1779 
z
M 1837 2234 
Q 1613 2234 1421 2192 
Q 1229 2150 1037 2067 
Q 1030 1997 1027 1923 
Q 1024 1850 1024 1779 
Q 1024 1498 1062 1248 
Q 1101 998 1200 809 
Q 1299 621 1465 509 
Q 1632 397 1888 397 
Q 2099 397 2246 486 
Q 2394 576 2490 717 
Q 2586 858 2627 1021 
Q 2669 1184 2669 1338 
Q 2669 1773 2461 2003 
Q 2253 2234 1837 2234 
z
" transform="scale(0.015625)"/>
       </defs>
       <use xlink:href="#Ubuntu-32"/>
       <use xlink:href="#Ubuntu-30" x="56.399994"/>
       <use xlink:href="#Ubuntu-30" x="112.799988"/>
       <use xlink:href="#Ubuntu-36" x="169.199982"/>
      </g>
     </g>
    </g>
    <g id="xtick_5">
     <g id="line2d_5">
      <g>
       <use xlink:href="#mdea2899b95" x="210.185963" y="164.91125" style="fill: #cecece; stroke: #cecece; stroke-width: 0.75"/>
      </g>
     </g>
     <g id="text_5">
      <!-- 2008 -->
      <g style="fill: #808080" transform="translate(201.160963 180.11875) scale(0.08 -0.08)">
       <defs>
        <path id="Ubuntu-38" d="M 3258 1152 
Q 3258 883 3165 656 
Q 3072 429 2889 259 
Q 2707 90 2432 -3 
Q 2157 -96 1798 -96 
Q 1382 -96 1104 22 
Q 826 141 659 320 
Q 493 499 422 713 
Q 352 928 352 1120 
Q 352 1306 413 1475 
Q 474 1645 573 1792 
Q 672 1939 803 2057 
Q 934 2176 1082 2266 
Q 454 2624 454 3322 
Q 454 3565 550 3785 
Q 646 4006 822 4172 
Q 998 4339 1248 4438 
Q 1498 4538 1805 4538 
Q 2163 4538 2419 4429 
Q 2675 4320 2838 4150 
Q 3002 3981 3075 3776 
Q 3149 3571 3149 3379 
Q 3149 3194 3094 3030 
Q 3040 2867 2947 2726 
Q 2854 2586 2736 2477 
Q 2618 2368 2490 2285 
Q 3245 1926 3258 1152 
z
M 954 1114 
Q 954 998 995 873 
Q 1037 749 1139 643 
Q 1242 538 1402 467 
Q 1562 397 1805 397 
Q 2022 397 2185 461 
Q 2349 525 2451 624 
Q 2554 723 2605 851 
Q 2656 979 2656 1114 
Q 2656 1318 2579 1472 
Q 2502 1626 2358 1741 
Q 2214 1856 2012 1936 
Q 1811 2016 1555 2074 
Q 1267 1914 1110 1677 
Q 954 1440 954 1114 
z
M 2554 3386 
Q 2554 3482 2512 3597 
Q 2470 3712 2380 3811 
Q 2291 3910 2150 3977 
Q 2010 4045 1805 4045 
Q 1600 4045 1456 3981 
Q 1312 3917 1222 3817 
Q 1133 3718 1091 3600 
Q 1050 3482 1050 3366 
Q 1050 3226 1101 3085 
Q 1152 2944 1261 2822 
Q 1370 2701 1546 2605 
Q 1722 2509 1965 2451 
Q 2234 2611 2394 2825 
Q 2554 3040 2554 3386 
z
" transform="scale(0.015625)"/>
       </defs>
       <use xlink:href="#Ubuntu-32"/>
       <use xlink:href="#Ubuntu-30" x="56.399994"/>
       <use xlink:href="#Ubuntu-30" x="112.799988"/>
       <use xlink:href="#Ubuntu-38" x="169.199982"/>
      </g>
     </g>
    </g>
    <g id="xtick_6">
     <g id="line2d_6">
      <g>
       <use xlink:href="#mdea2899b95" x="254.945321" y="164.91125" style="fill: #cecece; stroke: #cecece; stroke-width: 0.75"/>
      </g>
     </g>
     <g id="text_6">
      <!-- 2010 -->
      <g style="fill: #808080" transform="translate(245.920321 180.11875) scale(0.08 -0.08)">
       <defs>
        <path id="Ubuntu-31" d="M 595 3520 
Q 960 3661 1305 3881 
Q 1651 4102 1939 4435 
L 2362 4435 
L 2362 0 
L 1766 0 
L 1766 3610 
Q 1690 3539 1578 3462 
Q 1466 3386 1334 3315 
Q 1203 3245 1059 3181 
Q 915 3117 781 3072 
L 595 3520 
z
" transform="scale(0.015625)"/>
       </defs>
       <use xlink:href="#Ubuntu-32"/>
       <use xlink:href="#Ubuntu-30" x="56.399994"/>
       <use xlink:href="#Ubuntu-31" x="112.799988"/>
       <use xlink:href="#Ubuntu-30" x="169.199982"/>
      </g>
     </g>
    </g>
    <g id="xtick_7">
     <g id="line2d_7">
      <g>
       <use xlink:href="#mdea2899b95" x="299.704679" y="164.91125" style="fill: #cecece; stroke: #cecece; stroke-width: 0.75"/>
      </g>
     </g>
     <g id="text_7">
      <!-- 2012 -->
      <g style="fill: #808080" transform="translate(290.679679 180.11875) scale(0.08 -0.08)">
       <use xlink:href="#Ubuntu-32"/>
       <use xlink:href="#Ubuntu-30" x="56.399994"/>
       <use xlink:href="#Ubuntu-31" x="112.799988"/>
       <use xlink:href="#Ubuntu-32" x="169.199982"/>
      </g>
     </g>
    </g>
    <g id="xtick_8">
     <g id="line2d_8">
      <g>
       <use xlink:href="#mdea2899b95" x="344.464037" y="164.91125" style="fill: #cecece; stroke: #cecece; stroke-width: 0.75"/>
      </g>
     </g>
     <g id="text_8">
      <!-- 2014 -->
      <g style="fill: #808080" transform="translate(335.439037 180.11875) scale(0.08 -0.08)">
       <use xlink:href="#Ubuntu-32"/>
       <use xlink:href="#Ubuntu-30" x="56.399994"/>
       <use xlink:href="#Ubuntu-31" x="112.799988"/>
       <use xlink:href="#Ubuntu-34" x="169.199982"/>
      </g>
     </g>
    </g>
    <g id="xtick_9">
     <g id="line2d_9">
      <g>
       <use xlink:href="#mdea2899b95" x="389.223396" y="164.91125" style="fill: #cecece; stroke: #cecece; stroke-width: 0.75"/>
      </g>
     </g>
     <g id="text_9">
      <!-- 2016 -->
      <g style="fill: #808080" transform="translate(380.198396 180.11875) scale(0.08 -0.08)">
       <use xlink:href="#Ubuntu-32"/>
       <use xlink:href="#Ubuntu-30" x="56.399994"/>
       <use xlink:href="#Ubuntu-31" x="112.799988"/>
       <use xlink:href="#Ubuntu-36" x="169.199982"/>
      </g>
     </g>
    </g>
    <g id="xtick_10">
     <g id="line2d_10">
      <g>
       <use xlink:href="#mdea2899b95" x="433.982754" y="164.91125" style="fill: #cecece; stroke: #cecece; stroke-width: 0.75"/>
      </g>
     </g>
     <g id="text_10">
      <!-- 2018 -->
      <g style="fill: #808080" transform="translate(424.957754 180.11875) scale(0.08 -0.08)">
       <use xlink:href="#Ubuntu-32"/>
       <use xlink:href="#Ubuntu-30" x="56.399994"/>
       <use xlink:href="#Ubuntu-31" x="112.799988"/>
       <use xlink:href="#Ubuntu-38" x="169.199982"/>
      </g>
     </g>
    </g>
    <g id="xtick_11">
     <g id="line2d_11">
      <g>
       <use xlink:href="#mdea2899b95" x="478.742112" y="164.91125" style="fill: #cecece; stroke: #cecece; stroke-width: 0.75"/>
      </g>
     </g>
     <g id="text_11">
      <!-- 2020 -->
      <g style="fill: #808080" transform="translate(469.717112 180.11875) scale(0.08 -0.08)">
       <use xlink:href="#Ubuntu-32"/>
       <use xlink:href="#Ubuntu-30" x="56.399994"/>
       <use xlink:href="#Ubuntu-32" x="112.799988"/>
       <use xlink:href="#Ubuntu-30" x="169.199982"/>
      </g>
     </g>
    </g>
    <g id="xtick_12">
     <g id="line2d_12">
      <g>
       <use xlink:href="#mdea2899b95" x="523.501471" y="164.91125" style="fill: #cecece; stroke: #cecece; stroke-width: 0.75"/>
      </g>
     </g>
     <g id="text_12">
      <!-- 2022 -->
      <g style="fill: #808080" transform="translate(514.476471 180.11875) scale(0.08 -0.08)">
       <use xlink:href="#Ubuntu-32"/>
       <use xlink:href="#Ubuntu-30" x="56.399994"/>
       <use xlink:href="#Ubuntu-32" x="112.799988"/>
       <use xlink:href="#Ubuntu-32" x="169.199982"/>
      </g>
     </g>
    </g>
   </g>
   <g id="matplotlib.axis_2">
    <g id="ytick_1">
     <g id="line2d_13">
      <defs>
       <path id="m518719b486" d="M 0 0 
L -3 0 
" style="stroke: #cecece; stroke-width: 0.75"/>
      </defs>
      <g>
       <use xlink:href="#m518719b486" x="25.225" y="159.390745" style="fill: #cecece; stroke: #cecece; stroke-width: 0.75"/>
      </g>
     </g>
     <g id="text_13">
      <!-- 15 -->
      <g style="fill: #808080" transform="translate(7.2 162.494495) scale(0.08 -0.08)">
       <defs>
        <path id="Ubuntu-35" d="M 1274 2726 
Q 2240 2688 2691 2304 
Q 3142 1920 3142 1261 
Q 3142 966 3043 716 
Q 2944 467 2742 288 
Q 2541 109 2233 6 
Q 1926 -96 1504 -96 
Q 1338 -96 1165 -70 
Q 992 -45 845 -6 
Q 698 32 582 70 
Q 467 109 416 134 
L 531 653 
Q 640 602 886 518 
Q 1133 435 1491 435 
Q 1779 435 1974 499 
Q 2170 563 2291 672 
Q 2413 781 2467 925 
Q 2522 1069 2522 1229 
Q 2522 1472 2438 1661 
Q 2355 1850 2144 1978 
Q 1933 2106 1581 2173 
Q 1229 2240 691 2240 
Q 730 2554 752 2829 
Q 774 3104 793 3366 
Q 813 3629 825 3888 
Q 838 4147 851 4435 
L 2989 4435 
L 2989 3930 
L 1370 3930 
Q 1363 3834 1350 3670 
Q 1338 3507 1325 3331 
Q 1312 3155 1299 2988 
Q 1286 2822 1274 2726 
z
" transform="scale(0.015625)"/>
       </defs>
       <use xlink:href="#Ubuntu-31"/>
       <use xlink:href="#Ubuntu-35" x="56.399994"/>
      </g>
     </g>
    </g>
    <g id="ytick_2">
     <g id="line2d_14">
      <g>
       <use xlink:href="#m518719b486" x="25.225" y="125.870871" style="fill: #cecece; stroke: #cecece; stroke-width: 0.75"/>
      </g>
     </g>
     <g id="text_14">
      <!-- 20 -->
      <g style="fill: #808080" transform="translate(7.2 128.974621) scale(0.08 -0.08)">
       <use xlink:href="#Ubuntu-32"/>
       <use xlink:href="#Ubuntu-30" x="56.399994"/>
      </g>
     </g>
    </g>
    <g id="ytick_3">
     <g id="line2d_15">
      <g>
       <use xlink:href="#m518719b486" x="25.225" y="92.350997" style="fill: #cecece; stroke: #cecece; stroke-width: 0.75"/>
      </g>
     </g>
     <g id="text_15">
      <!-- 25 -->
      <g style="fill: #808080" transform="translate(7.2 95.454747) scale(0.08 -0.08)">
       <use xlink:href="#Ubuntu-32"/>
       <use xlink:href="#Ubuntu-35" x="56.399994"/>
      </g>
     </g>
    </g>
    <g id="ytick_4">
     <g id="line2d_16">
      <g>
       <use xlink:href="#m518719b486" x="25.225" y="58.831124" style="fill: #cecece; stroke: #cecece; stroke-width: 0.75"/>
      </g>
     </g>
     <g id="text_16">
      <!-- 30 -->
      <g style="fill: #808080" transform="translate(7.2 61.934874) scale(0.08 -0.08)">
       <defs>
        <path id="Ubuntu-33" d="M 1446 435 
Q 2016 435 2262 659 
Q 2509 883 2509 1261 
Q 2509 1504 2406 1670 
Q 2304 1837 2137 1936 
Q 1971 2035 1750 2076 
Q 1530 2118 1299 2118 
L 1146 2118 
L 1146 2605 
L 1357 2605 
Q 1517 2605 1686 2637 
Q 1856 2669 1997 2752 
Q 2138 2835 2227 2979 
Q 2317 3123 2317 3341 
Q 2317 3520 2253 3648 
Q 2189 3776 2083 3859 
Q 1978 3942 1840 3977 
Q 1702 4013 1549 4013 
Q 1242 4013 1027 3923 
Q 813 3834 666 3738 
L 435 4192 
Q 512 4243 630 4304 
Q 749 4365 896 4416 
Q 1043 4467 1212 4502 
Q 1382 4538 1568 4538 
Q 1920 4538 2176 4451 
Q 2432 4365 2598 4208 
Q 2765 4051 2848 3836 
Q 2931 3622 2931 3373 
Q 2931 3027 2732 2780 
Q 2534 2534 2253 2406 
Q 2426 2355 2586 2259 
Q 2746 2163 2864 2016 
Q 2982 1869 3056 1677 
Q 3130 1485 3130 1248 
Q 3130 960 3030 713 
Q 2931 467 2723 288 
Q 2515 109 2201 6 
Q 1888 -96 1459 -96 
Q 1293 -96 1117 -70 
Q 941 -45 787 -6 
Q 634 32 518 70 
Q 403 109 352 134 
L 467 653 
Q 576 602 829 518 
Q 1082 435 1446 435 
z
" transform="scale(0.015625)"/>
       </defs>
       <use xlink:href="#Ubuntu-33"/>
       <use xlink:href="#Ubuntu-30" x="56.399994"/>
      </g>
     </g>
    </g>
    <g id="ytick_5">
     <g id="line2d_17">
      <g>
       <use xlink:href="#m518719b486" x="25.225" y="25.31125" style="fill: #cecece; stroke: #cecece; stroke-width: 0.75"/>
      </g>
     </g>
     <g id="text_17">
      <!-- 35 -->
      <g style="fill: #808080" transform="translate(7.2 28.415) scale(0.08 -0.08)">
       <use xlink:href="#Ubuntu-33"/>
       <use xlink:href="#Ubuntu-35" x="56.399994"/>
      </g>
     </g>
    </g>
   </g>
   <g id="PolyCollection_1">
    <path d="M 31.148529 159.390745 
L 31.148529 159.390745 
L 32.795195 159.390745 
L 34.44186 159.390745 
L 36.088525 159.390745 
L 37.735191 159.390745 
L 39.381856 159.390745 
L 41.028522 159.390745 
L 42.675187 159.390745 
L 44.321852 159.390745 
L 45.968518 159.390745 
L 47.615183 159.390745 
L 49.261848 159.390745 
L 50.908514 159.390745 
L 52.555179 159.390745 
L 54.201844 159.390745 
L 55.84851 159.390745 
L 57.495175 159.390745 
L 59.14184 159.390745 
L 60.788506 159.390745 
L 62.435171 159.390745 
L 64.081837 159.390745 
L 65.728502 159.390745 
L 67.375167 159.390745 
L 69.021833 159.390745 
L 70.668498 159.390745 
L 72.315163 159.390745 
L 73.961829 159.390745 
L 75.608494 159.390745 
L 77.255159 159.390745 
L 78.901825 159.390745 
L 80.54849 159.390745 
L 82.195155 159.390745 
L 83.841821 159.390745 
L 85.488486 159.390745 
L 87.135151 159.390745 
L 88.781817 159.390745 
L 90.428482 159.390745 
L 92.075148 159.390745 
L 93.721813 159.390745 
L 95.368478 159.390745 
L 97.015144 159.390745 
L 98.661809 159.390745 
L 100.308474 159.390745 
L 101.95514 159.390745 
L 103.601805 159.390745 
L 105.24847 159.390745 
L 106.895136 159.390745 
L 108.541801 159.390745 
L 110.188466 159.390745 
L 111.835132 159.390745 
L 113.481797 159.390745 
L 115.128463 159.390745 
L 116.775128 159.390745 
L 118.421793 159.390745 
L 120.068459 159.390745 
L 121.715124 159.390745 
L 123.361789 159.390745 
L 125.008455 159.390745 
L 126.65512 159.390745 
L 128.301785 159.390745 
L 129.948451 159.390745 
L 131.595116 159.390745 
L 133.241781 159.390745 
L 134.888447 159.390745 
L 136.535112 159.390745 
L 138.181777 159.390745 
L 139.828443 159.390745 
L 141.475108 159.390745 
L 143.121774 159.390745 
L 144.768439 159.390745 
L 146.415104 159.390745 
L 148.06177 159.390745 
L 149.708435 159.390745 
L 151.3551 159.390745 
L 153.001766 159.390745 
L 154.648431 159.390745 
L 156.295096 159.390745 
L 157.941762 159.390745 
L 159.588427 159.390745 
L 161.235092 159.390745 
L 162.881758 159.390745 
L 164.528423 159.390745 
L 166.175089 159.390745 
L 167.821754 159.390745 
L 169.468419 159.390745 
L 171.115085 159.390745 
L 172.76175 159.390745 
L 174.408415 159.390745 
L 176.055081 159.390745 
L 177.701746 159.390745 
L 179.348411 159.390745 
L 180.995077 159.390745 
L 182.641742 159.390745 
L 184.288407 159.390745 
L 185.935073 159.390745 
L 187.581738 159.390745 
L 189.228404 159.390745 
L 190.875069 159.390745 
L 192.521734 159.390745 
L 194.1684 159.390745 
L 195.815065 159.390745 
L 197.46173 159.390745 
L 199.108396 159.390745 
L 200.755061 159.390745 
L 202.401726 159.390745 
L 204.048392 159.390745 
L 205.695057 159.390745 
L 207.341722 159.390745 
L 208.988388 159.390745 
L 208.988388 159.390745 
L 208.988388 96.609658 
L 207.341722 96.926499 
L 205.695057 97.233376 
L 204.048392 97.529564 
L 202.401726 97.814343 
L 200.755061 98.086989 
L 199.108396 98.346781 
L 197.46173 98.592994 
L 195.815065 98.824908 
L 194.1684 99.041799 
L 192.521734 99.242944 
L 190.875069 99.427622 
L 189.228404 99.59511 
L 187.581738 99.744688 
L 185.935073 99.877234 
L 184.288407 99.997901 
L 182.641742 100.112548 
L 180.995077 100.227032 
L 179.348411 100.347213 
L 177.701746 100.47895 
L 176.055081 100.628101 
L 174.408415 100.800524 
L 172.76175 101.002079 
L 171.115085 101.238624 
L 169.468419 101.516017 
L 167.821754 101.840118 
L 166.175089 102.216785 
L 164.528423 102.651668 
L 162.881758 103.14649 
L 161.235092 103.699491 
L 159.588427 104.308787 
L 157.941762 104.972497 
L 156.295096 105.688738 
L 154.648431 106.455628 
L 153.001766 107.271283 
L 151.3551 108.133822 
L 149.708435 109.041362 
L 148.06177 109.99202 
L 146.415104 110.983914 
L 144.768439 112.015162 
L 143.121774 113.083881 
L 141.475108 114.186846 
L 139.828443 115.314673 
L 138.181777 116.456216 
L 136.535112 117.600327 
L 134.888447 118.735861 
L 133.241781 119.851669 
L 131.595116 120.936606 
L 129.948451 121.979524 
L 128.301785 122.969276 
L 126.65512 123.894716 
L 125.008455 124.744696 
L 123.361789 125.508069 
L 121.715124 126.173689 
L 120.068459 126.730588 
L 118.421793 127.176534 
L 116.775128 127.521786 
L 115.128463 127.777564 
L 113.481797 127.955088 
L 111.835132 128.065579 
L 110.188466 128.120256 
L 108.541801 128.13034 
L 106.895136 128.10705 
L 105.24847 128.061607 
L 103.601805 128.00523 
L 101.95514 127.94914 
L 100.308474 127.904556 
L 98.661809 127.8827 
L 97.015144 127.894044 
L 95.368478 127.943038 
L 93.721813 128.031217 
L 92.075148 128.160099 
L 90.428482 128.331201 
L 88.781817 128.546039 
L 87.135151 128.806131 
L 85.488486 129.112992 
L 83.841821 129.468141 
L 82.195155 129.873093 
L 80.54849 130.329367 
L 78.901825 130.838477 
L 77.255159 131.401943 
L 75.608494 132.021268 
L 73.961829 132.695035 
L 72.315163 133.414951 
L 70.668498 134.171741 
L 69.021833 134.956128 
L 67.375167 135.758837 
L 65.728502 136.57059 
L 64.081837 137.382113 
L 62.435171 138.184129 
L 60.788506 138.967361 
L 59.14184 139.722535 
L 57.495175 140.440372 
L 55.84851 141.111598 
L 54.201844 141.726936 
L 52.555179 142.277111 
L 50.908514 142.752845 
L 49.261848 143.144863 
L 47.615183 143.443889 
L 45.968518 143.640646 
L 44.321852 143.725859 
L 42.675187 143.690251 
L 41.028522 143.524547 
L 39.381856 143.219469 
L 37.735191 142.765742 
L 36.088525 142.15409 
L 34.44186 141.375236 
L 32.795195 140.419905 
L 31.148529 139.278821 
z
" clip-path="url(#pb404c52c2d)" style="fill: #608eb4; fill-opacity: 0.2"/>
   </g>
   <g id="PolyCollection_2">
    <path d="M 210.635053 159.390745 
L 210.635053 159.390745 
L 212.281718 159.390745 
L 213.928384 159.390745 
L 215.575049 159.390745 
L 217.221715 159.390745 
L 218.86838 159.390745 
L 220.515045 159.390745 
L 222.161711 159.390745 
L 223.808376 159.390745 
L 225.455041 159.390745 
L 227.101707 159.390745 
L 228.748372 159.390745 
L 230.395037 159.390745 
L 232.041703 159.390745 
L 233.688368 159.390745 
L 235.335033 159.390745 
L 236.981699 159.390745 
L 238.628364 159.390745 
L 240.27503 159.390745 
L 241.921695 159.390745 
L 243.56836 159.390745 
L 245.215026 159.390745 
L 246.861691 159.390745 
L 248.508356 159.390745 
L 250.155022 159.390745 
L 251.801687 159.390745 
L 253.448352 159.390745 
L 255.095018 159.390745 
L 256.741683 159.390745 
L 258.388348 159.390745 
L 260.035014 159.390745 
L 261.681679 159.390745 
L 263.328344 159.390745 
L 264.97501 159.390745 
L 266.621675 159.390745 
L 268.268341 159.390745 
L 269.915006 159.390745 
L 271.561671 159.390745 
L 273.208337 159.390745 
L 274.855002 159.390745 
L 276.501667 159.390745 
L 278.148333 159.390745 
L 279.794998 159.390745 
L 281.441663 159.390745 
L 283.088329 159.390745 
L 284.734994 159.390745 
L 286.381659 159.390745 
L 288.028325 159.390745 
L 289.67499 159.390745 
L 291.321656 159.390745 
L 292.968321 159.390745 
L 294.614986 159.390745 
L 296.261652 159.390745 
L 297.908317 159.390745 
L 299.554982 159.390745 
L 299.554982 159.390745 
L 299.554982 104.988404 
L 297.908317 103.997371 
L 296.261652 103.19511 
L 294.614986 102.561612 
L 292.968321 102.076872 
L 291.321656 101.720883 
L 289.67499 101.473639 
L 288.028325 101.315134 
L 286.381659 101.225361 
L 284.734994 101.184314 
L 283.088329 101.171987 
L 281.441663 101.168372 
L 279.794998 101.153465 
L 278.148333 101.107258 
L 276.501667 101.010275 
L 274.855002 100.855243 
L 273.208337 100.647088 
L 271.561671 100.391267 
L 269.915006 100.09324 
L 268.268341 99.758462 
L 266.621675 99.392392 
L 264.97501 99.000487 
L 263.328344 98.588205 
L 261.681679 98.161003 
L 260.035014 97.724339 
L 258.388348 97.283671 
L 256.741683 96.844456 
L 255.095018 96.412151 
L 253.448352 95.991905 
L 251.801687 95.587235 
L 250.155022 95.201124 
L 248.508356 94.836555 
L 246.861691 94.49651 
L 245.215026 94.183973 
L 243.56836 93.901927 
L 241.921695 93.653353 
L 240.27503 93.441236 
L 238.628364 93.268558 
L 236.981699 93.138301 
L 235.335033 93.053449 
L 233.688368 93.016985 
L 232.041703 93.031851 
L 230.395037 93.098267 
L 228.748372 93.212063 
L 227.101707 93.368666 
L 225.455041 93.563508 
L 223.808376 93.792016 
L 222.161711 94.04962 
L 220.515045 94.331749 
L 218.86838 94.633832 
L 217.221715 94.951299 
L 215.575049 95.279579 
L 213.928384 95.614101 
L 212.281718 95.950294 
L 210.635053 96.283588 
z
" clip-path="url(#pb404c52c2d)" style="fill: #489079; fill-opacity: 0.2"/>
   </g>
   <g id="PolyCollection_3">
    <path d="M 301.201648 159.390745 
L 301.201648 159.390745 
L 302.848313 159.390745 
L 304.494978 159.390745 
L 306.141644 159.390745 
L 307.788309 159.390745 
L 309.434974 159.390745 
L 311.08164 159.390745 
L 312.728305 159.390745 
L 314.37497 159.390745 
L 316.021636 159.390745 
L 317.668301 159.390745 
L 319.314967 159.390745 
L 320.961632 159.390745 
L 322.608297 159.390745 
L 324.254963 159.390745 
L 325.901628 159.390745 
L 327.548293 159.390745 
L 329.194959 159.390745 
L 330.841624 159.390745 
L 332.488289 159.390745 
L 334.134955 159.390745 
L 335.78162 159.390745 
L 337.428285 159.390745 
L 339.074951 159.390745 
L 340.721616 159.390745 
L 342.368282 159.390745 
L 344.014947 159.390745 
L 345.661612 159.390745 
L 347.308278 159.390745 
L 348.954943 159.390745 
L 350.601608 159.390745 
L 352.248274 159.390745 
L 353.894939 159.390745 
L 355.541604 159.390745 
L 357.18827 159.390745 
L 358.834935 159.390745 
L 360.4816 159.390745 
L 362.128266 159.390745 
L 363.774931 159.390745 
L 365.421596 159.390745 
L 367.068262 159.390745 
L 368.714927 159.390745 
L 370.361593 159.390745 
L 372.008258 159.390745 
L 373.654923 159.390745 
L 375.301589 159.390745 
L 376.948254 159.390745 
L 378.594919 159.390745 
L 380.241585 159.390745 
L 381.88825 159.390745 
L 383.534915 159.390745 
L 385.181581 159.390745 
L 386.828246 159.390745 
L 388.474911 159.390745 
L 390.121577 159.390745 
L 391.768242 159.390745 
L 393.414908 159.390745 
L 395.061573 159.390745 
L 396.708238 159.390745 
L 398.354904 159.390745 
L 400.001569 159.390745 
L 401.648234 159.390745 
L 403.2949 159.390745 
L 404.941565 159.390745 
L 406.58823 159.390745 
L 408.234896 159.390745 
L 409.881561 159.390745 
L 411.528226 159.390745 
L 413.174892 159.390745 
L 414.821557 159.390745 
L 416.468223 159.390745 
L 418.114888 159.390745 
L 419.761553 159.390745 
L 421.408219 159.390745 
L 423.054884 159.390745 
L 424.701549 159.390745 
L 426.348215 159.390745 
L 427.99488 159.390745 
L 429.641545 159.390745 
L 431.288211 159.390745 
L 432.934876 159.390745 
L 434.581541 159.390745 
L 436.228207 159.390745 
L 437.874872 159.390745 
L 439.521537 159.390745 
L 441.168203 159.390745 
L 442.814868 159.390745 
L 444.461534 159.390745 
L 446.108199 159.390745 
L 447.754864 159.390745 
L 449.40153 159.390745 
L 451.048195 159.390745 
L 452.69486 159.390745 
L 454.341526 159.390745 
L 455.988191 159.390745 
L 457.634856 159.390745 
L 459.281522 159.390745 
L 460.928187 159.390745 
L 462.574852 159.390745 
L 464.221518 159.390745 
L 465.868183 159.390745 
L 467.514849 159.390745 
L 469.161514 159.390745 
L 470.808179 159.390745 
L 472.454845 159.390745 
L 474.10151 159.390745 
L 475.748175 159.390745 
L 477.394841 159.390745 
L 479.041506 159.390745 
L 480.688171 159.390745 
L 482.334837 159.390745 
L 483.981502 159.390745 
L 485.628167 159.390745 
L 487.274833 159.390745 
L 488.921498 159.390745 
L 490.568163 159.390745 
L 492.214829 159.390745 
L 493.861494 159.390745 
L 495.50816 159.390745 
L 497.154825 159.390745 
L 498.80149 159.390745 
L 500.448156 159.390745 
L 502.094821 159.390745 
L 503.741486 159.390745 
L 505.388152 159.390745 
L 507.034817 159.390745 
L 508.681482 159.390745 
L 510.328148 159.390745 
L 511.974813 159.390745 
L 513.621478 159.390745 
L 515.268144 159.390745 
L 516.914809 159.390745 
L 518.561475 159.390745 
L 520.20814 159.390745 
L 521.854805 159.390745 
L 523.501471 159.390745 
L 523.501471 159.390745 
L 523.501471 48.775162 
L 521.854805 50.041394 
L 520.20814 50.962478 
L 518.561475 51.56352 
L 516.914809 51.869626 
L 515.268144 51.905902 
L 513.621478 51.697457 
L 511.974813 51.269394 
L 510.328148 50.646823 
L 508.681482 49.854847 
L 507.034817 48.918576 
L 505.388152 47.863113 
L 503.741486 46.713567 
L 502.094821 45.495044 
L 500.448156 44.232649 
L 498.80149 42.951491 
L 497.154825 41.676674 
L 495.50816 40.433306 
L 493.861494 39.246493 
L 492.214829 38.141341 
L 490.568163 37.142958 
L 488.921498 36.276449 
L 487.274833 35.56692 
L 485.628167 35.03948 
L 483.981502 34.719233 
L 482.334837 34.631286 
L 480.688171 34.800747 
L 479.041506 35.252721 
L 477.394841 36.006315 
L 475.748175 37.038801 
L 474.10151 38.309632 
L 472.454845 39.778197 
L 470.808179 41.403883 
L 469.161514 43.146081 
L 467.514849 44.964177 
L 465.868183 46.81756 
L 464.221518 48.665619 
L 462.574852 50.467742 
L 460.928187 52.183318 
L 459.281522 53.771734 
L 457.634856 55.19238 
L 455.988191 56.404762 
L 454.341526 57.386701 
L 452.69486 58.153879 
L 451.048195 58.726671 
L 449.40153 59.12545 
L 447.754864 59.370589 
L 446.108199 59.482463 
L 444.461534 59.481445 
L 442.814868 59.387909 
L 441.168203 59.222228 
L 439.521537 59.004775 
L 437.874872 58.755926 
L 436.228207 58.496052 
L 434.581541 58.245528 
L 432.934876 58.023748 
L 431.288211 57.837372 
L 429.641545 57.684155 
L 427.99488 57.561667 
L 426.348215 57.467483 
L 424.701549 57.399172 
L 423.054884 57.354306 
L 421.408219 57.330459 
L 419.761553 57.325201 
L 418.114888 57.336104 
L 416.468223 57.36074 
L 414.821557 57.396681 
L 413.174892 57.441499 
L 411.528226 57.492765 
L 409.881561 57.549229 
L 408.234896 57.613755 
L 406.58823 57.690102 
L 404.941565 57.782029 
L 403.2949 57.893297 
L 401.648234 58.027664 
L 400.001569 58.18889 
L 398.354904 58.380735 
L 396.708238 58.60696 
L 395.061573 58.871322 
L 393.414908 59.177582 
L 391.768242 59.5295 
L 390.121577 59.930835 
L 388.474911 60.38479 
L 386.828246 60.878538 
L 385.181581 61.381204 
L 383.534915 61.86095 
L 381.88825 62.28594 
L 380.241585 62.624334 
L 378.594919 62.844295 
L 376.948254 62.913987 
L 375.301589 62.80157 
L 373.654923 62.475207 
L 372.008258 61.903061 
L 370.361593 61.053293 
L 368.714927 59.894066 
L 367.068262 58.393543 
L 365.421596 56.533992 
L 363.774931 54.383002 
L 362.128266 52.040073 
L 360.4816 49.604764 
L 358.834935 47.176632 
L 357.18827 44.855232 
L 355.541604 42.740123 
L 353.894939 40.930862 
L 352.248274 39.527004 
L 350.601608 38.628108 
L 348.954943 38.333731 
L 347.308278 38.743429 
L 345.661612 39.956759 
L 344.014947 42.07249 
L 342.368282 45.112275 
L 340.721616 48.957033 
L 339.074951 53.472704 
L 337.428285 58.525228 
L 335.78162 63.980545 
L 334.134955 69.704595 
L 332.488289 75.563318 
L 330.841624 81.422654 
L 329.194959 87.148543 
L 327.548293 92.606925 
L 325.901628 97.66374 
L 324.254963 102.184928 
L 322.608297 106.036429 
L 320.961632 109.095374 
L 319.314967 111.36208 
L 317.668301 112.913184 
L 316.021636 113.826456 
L 314.37497 114.17967 
L 312.728305 114.050598 
L 311.08164 113.517012 
L 309.434974 112.656686 
L 307.788309 111.54739 
L 306.141644 110.266898 
L 304.494978 108.892982 
L 302.848313 107.503415 
L 301.201648 106.175969 
z
" clip-path="url(#pb404c52c2d)" style="fill: #af5a51; fill-opacity: 0.2"/>
   </g>
   <g id="line2d_18">
    <path d="M 31.148529 139.278821 
L 32.795195 140.419905 
L 34.44186 141.375236 
L 36.088525 142.15409 
L 37.735191 142.765742 
L 39.381856 143.219469 
L 41.028522 143.524547 
L 42.675187 143.690251 
L 44.321852 143.725859 
L 45.968518 143.640646 
L 49.261848 143.144863 
L 52.555179 142.277111 
L 55.84851 141.111598 
L 59.14184 139.722535 
L 64.081837 137.382113 
L 72.315163 133.414951 
L 75.608494 132.021268 
L 78.901825 130.838477 
L 82.195155 129.873093 
L 85.488486 129.112992 
L 88.781817 128.546039 
L 92.075148 128.160099 
L 95.368478 127.943038 
L 100.308474 127.904556 
L 110.188466 128.120256 
L 113.481797 127.955088 
L 116.775128 127.521786 
L 120.068459 126.730588 
L 123.361789 125.508069 
L 126.65512 123.894716 
L 129.948451 121.979524 
L 134.888447 118.735861 
L 144.768439 112.015162 
L 149.708435 109.041362 
L 153.001766 107.271283 
L 156.295096 105.688738 
L 159.588427 104.308787 
L 162.881758 103.14649 
L 166.175089 102.216785 
L 169.468419 101.516017 
L 172.76175 101.002079 
L 177.701746 100.47895 
L 192.521734 99.242944 
L 199.108396 98.346781 
L 205.695057 97.233376 
L 215.575049 95.279579 
L 222.161711 94.04962 
L 227.101707 93.368666 
L 230.395037 93.098267 
L 233.688368 93.016985 
L 236.981699 93.138301 
L 240.27503 93.441236 
L 245.215026 94.183973 
L 250.155022 95.201124 
L 256.741683 96.844456 
L 266.621675 99.392392 
L 271.561671 100.391267 
L 274.855002 100.855243 
L 278.148333 101.107258 
L 284.734994 101.184314 
L 288.028325 101.315134 
L 291.321656 101.720883 
L 292.968321 102.076872 
L 294.614986 102.561612 
L 296.261652 103.19511 
L 297.908317 103.997371 
L 299.554982 104.988404 
L 301.201648 106.175969 
L 307.788309 111.54739 
L 309.434974 112.656686 
L 311.08164 113.517012 
L 312.728305 114.050598 
L 314.37497 114.17967 
L 316.021636 113.826456 
L 317.668301 112.913184 
L 319.314967 111.36208 
L 320.961632 109.095374 
L 322.608297 106.036429 
L 324.254963 102.184928 
L 325.901628 97.66374 
L 327.548293 92.606925 
L 330.841624 81.422654 
L 335.78162 63.980545 
L 337.428285 58.525228 
L 339.074951 53.472704 
L 340.721616 48.957033 
L 342.368282 45.112275 
L 344.014947 42.07249 
L 345.661612 39.956759 
L 347.308278 38.743429 
L 348.954943 38.333731 
L 350.601608 38.628108 
L 352.248274 39.527004 
L 353.894939 40.930862 
L 355.541604 42.740123 
L 357.18827 44.855232 
L 360.4816 49.604764 
L 363.774931 54.383002 
L 365.421596 56.533992 
L 367.068262 58.393543 
L 368.714927 59.894066 
L 370.361593 61.053293 
L 372.008258 61.903061 
L 373.654923 62.475207 
L 375.301589 62.80157 
L 376.948254 62.913987 
L 378.594919 62.844295 
L 380.241585 62.624334 
L 383.534915 61.86095 
L 391.768242 59.5295 
L 395.061573 58.871322 
L 400.001569 58.18889 
L 404.941565 57.782029 
L 411.528226 57.492765 
L 419.761553 57.325201 
L 424.701549 57.399172 
L 429.641545 57.684155 
L 434.581541 58.245528 
L 442.814868 59.387909 
L 446.108199 59.482463 
L 447.754864 59.370589 
L 449.40153 59.12545 
L 451.048195 58.726671 
L 452.69486 58.153879 
L 454.341526 57.386701 
L 455.988191 56.404762 
L 457.634856 55.19238 
L 459.281522 53.771734 
L 462.574852 50.467742 
L 472.454845 39.778197 
L 474.10151 38.309632 
L 475.748175 37.038801 
L 477.394841 36.006315 
L 479.041506 35.252721 
L 480.688171 34.800747 
L 482.334837 34.631286 
L 483.981502 34.719233 
L 485.628167 35.03948 
L 487.274833 35.56692 
L 488.921498 36.276449 
L 490.568163 37.142958 
L 493.861494 39.246493 
L 497.154825 41.676674 
L 503.741486 46.713567 
L 507.034817 48.918576 
L 508.681482 49.854847 
L 510.328148 50.646823 
L 511.974813 51.269394 
L 513.621478 51.697457 
L 515.268144 51.905902 
L 516.914809 51.869626 
L 518.561475 51.56352 
L 520.20814 50.962478 
L 521.854805 50.041394 
L 523.501471 48.775162 
L 523.501471 48.775162 
" clip-path="url(#pb404c52c2d)" style="fill: none; stroke: #5d5d5d; stroke-opacity: 0.75; stroke-linecap: square"/>
   </g>
   <g id="patch_3">
    <path d="M 25.225 159.390745 
L 25.225 25.31125 
" style="fill: none; stroke: #cccccc; stroke-width: 0.75; stroke-linejoin: miter; stroke-linecap: square"/>
   </g>
   <g id="patch_4">
    <path d="M 31.148529 164.91125 
L 523.501471 164.91125 
" style="fill: none; stroke: #cccccc; stroke-width: 0.75; stroke-linejoin: miter; stroke-linecap: square"/>
   </g>
   <g id="legend_1">
    <g id="patch_5">
     <path d="M 33.425 16.6075 
L 49.425 16.6075 
L 49.425 11.0075 
L 33.425 11.0075 
z
" style="fill: #608eb4; fill-opacity: 0.2"/>
    </g>
    <g id="text_18">
     <!-- Первые два срока В. Путина -->
     <g style="fill: #4b4b4b" transform="translate(55.825 16.6075) scale(0.08 -0.08)">
      <defs>
       <path id="Ubuntu-41f" d="M 3923 4435 
L 3923 0 
L 3302 0 
L 3302 3904 
L 1171 3904 
L 1171 0 
L 550 0 
L 550 4435 
L 3923 4435 
z
" transform="scale(0.015625)"/>
       <path id="Ubuntu-435" d="M 326 1658 
Q 326 2099 454 2428 
Q 582 2758 793 2976 
Q 1005 3194 1280 3302 
Q 1555 3411 1843 3411 
Q 2515 3411 2873 2992 
Q 3232 2573 3232 1715 
Q 3232 1677 3232 1616 
Q 3232 1555 3226 1504 
L 947 1504 
Q 986 986 1248 717 
Q 1510 448 2067 448 
Q 2381 448 2595 502 
Q 2810 557 2918 608 
L 3002 109 
Q 2893 51 2621 -13 
Q 2349 -77 2003 -77 
Q 1568 -77 1251 54 
Q 934 186 729 416 
Q 525 646 425 963 
Q 326 1280 326 1658 
z
M 2611 1984 
Q 2618 2387 2410 2646 
Q 2202 2906 1837 2906 
Q 1632 2906 1475 2826 
Q 1318 2746 1209 2618 
Q 1101 2490 1040 2323 
Q 979 2157 960 1984 
L 2611 1984 
z
" transform="scale(0.015625)"/>
       <path id="Ubuntu-440" d="M 2822 1658 
Q 2822 2240 2534 2553 
Q 2246 2867 1766 2867 
Q 1498 2867 1347 2848 
Q 1197 2829 1107 2803 
L 1107 704 
Q 1216 614 1421 531 
Q 1626 448 1869 448 
Q 2125 448 2307 541 
Q 2490 634 2605 797 
Q 2720 960 2771 1181 
Q 2822 1402 2822 1658 
z
M 3443 1658 
Q 3443 1280 3344 960 
Q 3245 640 3053 409 
Q 2861 179 2582 51 
Q 2304 -77 1946 -77 
Q 1658 -77 1437 0 
Q 1216 77 1107 147 
L 1107 -1184 
L 512 -1184 
L 512 3226 
Q 723 3277 1040 3337 
Q 1357 3398 1773 3398 
Q 2157 3398 2464 3276 
Q 2771 3155 2988 2931 
Q 3206 2707 3324 2384 
Q 3443 2061 3443 1658 
z
" transform="scale(0.015625)"/>
       <path id="Ubuntu-432" d="M 1094 448 
Q 1133 442 1203 435 
Q 1274 429 1363 425 
Q 1453 422 1552 419 
Q 1651 416 1741 416 
Q 1926 416 2096 441 
Q 2266 467 2390 531 
Q 2515 595 2588 700 
Q 2662 806 2662 973 
Q 2662 1133 2595 1238 
Q 2528 1344 2413 1408 
Q 2298 1472 2141 1497 
Q 1984 1523 1805 1523 
L 1094 1523 
L 1094 448 
z
M 1728 1965 
Q 1901 1965 2045 1987 
Q 2189 2010 2294 2067 
Q 2400 2125 2461 2221 
Q 2522 2317 2522 2464 
Q 2522 2618 2445 2707 
Q 2368 2797 2243 2845 
Q 2118 2893 1961 2909 
Q 1805 2925 1645 2925 
Q 1498 2925 1347 2918 
Q 1197 2912 1094 2906 
L 1094 1965 
L 1728 1965 
z
M 1715 -58 
Q 1338 -58 1018 -22 
Q 698 13 512 58 
L 512 3296 
Q 698 3341 1018 3376 
Q 1338 3411 1715 3411 
Q 1978 3411 2227 3366 
Q 2477 3322 2669 3216 
Q 2861 3110 2979 2928 
Q 3098 2746 3098 2477 
Q 3098 2234 2976 2061 
Q 2854 1888 2650 1792 
Q 2925 1696 3088 1507 
Q 3251 1318 3251 979 
Q 3251 678 3132 480 
Q 3014 282 2806 160 
Q 2598 38 2316 -10 
Q 2035 -58 1715 -58 
z
" transform="scale(0.015625)"/>
       <path id="Ubuntu-44b" d="M 1734 1645 
Q 1562 1645 1398 1635 
Q 1235 1626 1107 1594 
L 1107 448 
Q 1146 442 1219 435 
Q 1293 429 1379 425 
Q 1466 422 1555 419 
Q 1645 416 1715 416 
Q 2106 416 2317 563 
Q 2528 710 2528 1037 
Q 2528 1197 2461 1312 
Q 2394 1427 2282 1500 
Q 2170 1574 2029 1609 
Q 1888 1645 1734 1645 
z
M 512 3328 
L 1107 3328 
L 1107 2054 
Q 1216 2080 1424 2105 
Q 1632 2131 1824 2131 
Q 2086 2131 2323 2070 
Q 2560 2010 2739 1878 
Q 2918 1747 3024 1539 
Q 3130 1331 3130 1043 
Q 3130 742 3027 531 
Q 2925 320 2739 185 
Q 2554 51 2291 -9 
Q 2029 -70 1715 -70 
Q 1414 -70 1107 -35 
Q 800 0 512 70 
L 512 3328 
z
M 4339 0 
L 3744 0 
L 3744 3328 
L 4339 3328 
L 4339 0 
z
" transform="scale(0.015625)"/>
       <path id="Ubuntu-20" transform="scale(0.015625)"/>
       <path id="Ubuntu-434" d="M 102 486 
L 461 486 
Q 672 794 797 1120 
Q 922 1446 986 1795 
Q 1050 2144 1069 2525 
Q 1088 2906 1094 3328 
L 3277 3328 
L 3277 486 
L 3725 486 
L 3725 -928 
L 3162 -928 
L 3162 0 
L 666 0 
L 666 -928 
L 102 -928 
L 102 486 
z
M 2682 486 
L 2682 2829 
L 1638 2829 
Q 1632 2528 1606 2224 
Q 1581 1920 1523 1622 
Q 1466 1325 1360 1040 
Q 1254 755 1094 486 
L 2682 486 
z
" transform="scale(0.015625)"/>
       <path id="Ubuntu-430" d="M 1638 429 
Q 1850 429 2013 438 
Q 2176 448 2285 474 
L 2285 1466 
Q 2221 1498 2077 1520 
Q 1933 1542 1728 1542 
Q 1594 1542 1443 1523 
Q 1293 1504 1168 1443 
Q 1043 1382 960 1276 
Q 877 1171 877 998 
Q 877 678 1081 553 
Q 1286 429 1638 429 
z
M 1587 3411 
Q 1946 3411 2192 3318 
Q 2438 3226 2588 3056 
Q 2739 2886 2803 2652 
Q 2867 2419 2867 2138 
L 2867 58 
Q 2790 45 2652 22 
Q 2515 0 2342 -19 
Q 2170 -38 1968 -54 
Q 1766 -70 1568 -70 
Q 1286 -70 1049 -12 
Q 813 45 640 169 
Q 467 294 371 499 
Q 275 704 275 992 
Q 275 1267 387 1465 
Q 499 1664 691 1785 
Q 883 1907 1139 1964 
Q 1395 2022 1677 2022 
Q 1766 2022 1862 2012 
Q 1958 2003 2044 1987 
Q 2131 1971 2195 1958 
Q 2259 1946 2285 1939 
L 2285 2106 
Q 2285 2253 2253 2397 
Q 2221 2541 2137 2653 
Q 2054 2765 1910 2832 
Q 1766 2899 1536 2899 
Q 1242 2899 1021 2857 
Q 800 2816 691 2771 
L 621 3264 
Q 736 3315 1005 3363 
Q 1274 3411 1587 3411 
z
" transform="scale(0.015625)"/>
       <path id="Ubuntu-441" d="M 1958 -77 
Q 1555 -77 1251 51 
Q 947 179 739 409 
Q 531 640 428 957 
Q 326 1274 326 1658 
Q 326 2042 438 2362 
Q 550 2682 755 2915 
Q 960 3149 1257 3280 
Q 1555 3411 1920 3411 
Q 2144 3411 2368 3372 
Q 2592 3334 2797 3251 
L 2662 2746 
Q 2528 2810 2352 2848 
Q 2176 2886 1978 2886 
Q 1478 2886 1212 2572 
Q 947 2259 947 1658 
Q 947 1389 1008 1165 
Q 1069 941 1200 781 
Q 1331 621 1536 534 
Q 1741 448 2035 448 
Q 2272 448 2464 493 
Q 2656 538 2765 589 
L 2848 90 
Q 2797 58 2701 29 
Q 2605 0 2483 -22 
Q 2362 -45 2224 -61 
Q 2086 -77 1958 -77 
z
" transform="scale(0.015625)"/>
       <path id="Ubuntu-43e" d="M 3450 1664 
Q 3450 1267 3334 947 
Q 3219 627 3011 396 
Q 2803 166 2515 41 
Q 2227 -83 1888 -83 
Q 1549 -83 1261 41 
Q 973 166 765 396 
Q 557 627 441 947 
Q 326 1267 326 1664 
Q 326 2054 441 2377 
Q 557 2701 765 2931 
Q 973 3162 1261 3286 
Q 1549 3411 1888 3411 
Q 2227 3411 2515 3286 
Q 2803 3162 3011 2931 
Q 3219 2701 3334 2377 
Q 3450 2054 3450 1664 
z
M 2829 1664 
Q 2829 2227 2576 2556 
Q 2323 2886 1888 2886 
Q 1453 2886 1200 2556 
Q 947 2227 947 1664 
Q 947 1101 1200 771 
Q 1453 442 1888 442 
Q 2323 442 2576 771 
Q 2829 1101 2829 1664 
z
" transform="scale(0.015625)"/>
       <path id="Ubuntu-43a" d="M 1728 1811 
Q 1926 1670 2156 1456 
Q 2387 1242 2608 992 
Q 2829 742 3021 483 
Q 3213 224 3347 0 
L 2643 0 
Q 2502 218 2313 445 
Q 2125 672 1920 883 
Q 1715 1094 1504 1273 
Q 1293 1453 1107 1574 
L 1107 0 
L 512 0 
L 512 3328 
L 1107 3328 
L 1107 1901 
Q 1261 2048 1459 2243 
Q 1658 2438 1859 2640 
Q 2061 2842 2233 3024 
Q 2406 3206 2515 3328 
L 3206 3328 
Q 3066 3174 2877 2979 
Q 2688 2784 2486 2579 
Q 2285 2374 2086 2172 
Q 1888 1971 1728 1811 
z
" transform="scale(0.015625)"/>
       <path id="Ubuntu-412" d="M 1747 -38 
Q 1613 -38 1456 -32 
Q 1299 -26 1142 -13 
Q 986 0 832 19 
Q 678 38 550 70 
L 550 4371 
Q 678 4403 832 4422 
Q 986 4442 1142 4454 
Q 1299 4467 1452 4473 
Q 1606 4480 1741 4480 
Q 2125 4480 2461 4422 
Q 2797 4365 3043 4227 
Q 3290 4090 3430 3866 
Q 3571 3642 3571 3315 
Q 3571 2950 3398 2716 
Q 3226 2483 2938 2368 
Q 3328 2253 3558 2003 
Q 3789 1754 3789 1299 
Q 3789 634 3299 298 
Q 2810 -38 1747 -38 
z
M 1165 2067 
L 1165 506 
Q 1235 499 1331 493 
Q 1414 486 1526 483 
Q 1638 480 1786 480 
Q 2061 480 2307 515 
Q 2554 550 2739 640 
Q 2925 730 3037 890 
Q 3149 1050 3149 1293 
Q 3149 1510 3065 1660 
Q 2982 1811 2825 1900 
Q 2669 1990 2451 2028 
Q 2234 2067 1965 2067 
L 1165 2067 
z
M 1165 2566 
L 1818 2566 
Q 2048 2566 2253 2598 
Q 2458 2630 2608 2713 
Q 2758 2797 2844 2931 
Q 2931 3066 2931 3270 
Q 2931 3462 2841 3593 
Q 2752 3725 2595 3805 
Q 2438 3885 2227 3923 
Q 2016 3962 1779 3962 
Q 1542 3962 1408 3955 
Q 1274 3949 1165 3936 
L 1165 2566 
z
" transform="scale(0.015625)"/>
       <path id="Ubuntu-2e" d="M 1216 346 
Q 1216 173 1101 45 
Q 986 -83 787 -83 
Q 589 -83 473 45 
Q 358 173 358 346 
Q 358 518 473 646 
Q 589 774 787 774 
Q 986 774 1101 646 
Q 1216 518 1216 346 
z
" transform="scale(0.015625)"/>
       <path id="Ubuntu-443" d="M 122 -621 
Q 192 -653 304 -681 
Q 416 -710 525 -710 
Q 877 -710 1075 -553 
Q 1274 -397 1434 -45 
Q 1030 723 681 1584 
Q 333 2445 102 3328 
L 742 3328 
Q 813 3040 912 2707 
Q 1011 2374 1132 2022 
Q 1254 1670 1395 1318 
Q 1536 966 1690 640 
Q 1933 1312 2112 1971 
Q 2291 2630 2451 3328 
L 3066 3328 
Q 2835 2387 2553 1520 
Q 2272 653 1946 -102 
Q 1818 -390 1680 -598 
Q 1542 -806 1376 -940 
Q 1210 -1075 1002 -1139 
Q 794 -1203 531 -1203 
Q 461 -1203 384 -1193 
Q 307 -1184 233 -1168 
Q 160 -1152 99 -1133 
Q 38 -1114 13 -1101 
L 122 -621 
z
" transform="scale(0.015625)"/>
       <path id="Ubuntu-442" d="M 2861 3328 
L 2861 2829 
L 1779 2829 
L 1779 0 
L 1184 0 
L 1184 2829 
L 102 2829 
L 102 3328 
L 2861 3328 
z
" transform="scale(0.015625)"/>
       <path id="Ubuntu-438" d="M 3309 3328 
L 3309 0 
L 2733 0 
L 2733 2534 
Q 2541 2291 2310 1964 
Q 2080 1638 1849 1289 
Q 1619 941 1408 601 
Q 1197 262 1043 0 
L 512 0 
L 512 3328 
L 1088 3328 
L 1088 934 
Q 1254 1210 1465 1539 
Q 1677 1869 1904 2192 
Q 2131 2515 2358 2812 
Q 2586 3110 2784 3328 
L 3309 3328 
z
" transform="scale(0.015625)"/>
       <path id="Ubuntu-43d" d="M 3238 0 
L 2643 0 
L 2643 1472 
L 1107 1472 
L 1107 0 
L 512 0 
L 512 3328 
L 1107 3328 
L 1107 1971 
L 2643 1971 
L 2643 3328 
L 3238 3328 
L 3238 0 
z
" transform="scale(0.015625)"/>
      </defs>
      <use xlink:href="#Ubuntu-41f"/>
      <use xlink:href="#Ubuntu-435" x="69.899994"/>
      <use xlink:href="#Ubuntu-440" x="125.799988"/>
      <use xlink:href="#Ubuntu-432" x="184.699982"/>
      <use xlink:href="#Ubuntu-44b" x="239.499969"/>
      <use xlink:href="#Ubuntu-435" x="315.299957"/>
      <use xlink:href="#Ubuntu-20" x="371.199951"/>
      <use xlink:href="#Ubuntu-434" x="394.299942"/>
      <use xlink:href="#Ubuntu-432" x="454.59993"/>
      <use xlink:href="#Ubuntu-430" x="509.399918"/>
      <use xlink:href="#Ubuntu-20" x="561.599915"/>
      <use xlink:href="#Ubuntu-441" x="584.699905"/>
      <use xlink:href="#Ubuntu-440" x="631.19989"/>
      <use xlink:href="#Ubuntu-43e" x="690.099884"/>
      <use xlink:href="#Ubuntu-43a" x="749.099869"/>
      <use xlink:href="#Ubuntu-430" x="802.799866"/>
      <use xlink:href="#Ubuntu-20" x="854.999863"/>
      <use xlink:href="#Ubuntu-412" x="878.099854"/>
      <use xlink:href="#Ubuntu-2e" x="941.399841"/>
      <use xlink:href="#Ubuntu-20" x="965.999832"/>
      <use xlink:href="#Ubuntu-41f" x="989.099823"/>
      <use xlink:href="#Ubuntu-443" x="1058.999817"/>
      <use xlink:href="#Ubuntu-442" x="1110.824814"/>
      <use xlink:href="#Ubuntu-438" x="1157.124802"/>
      <use xlink:href="#Ubuntu-43d" x="1216.824799"/>
      <use xlink:href="#Ubuntu-430" x="1275.424789"/>
     </g>
    </g>
    <g id="patch_6">
     <path d="M 178.035 16.6075 
L 194.035 16.6075 
L 194.035 11.0075 
L 178.035 11.0075 
z
" style="fill: #489079; fill-opacity: 0.2"/>
    </g>
    <g id="text_19">
     <!-- Президентство Д. Медведева -->
     <g style="fill: #4b4b4b" transform="translate(200.435 16.6075) scale(0.08 -0.08)">
      <defs>
       <path id="Ubuntu-437" d="M 1357 3411 
Q 1645 3411 1894 3353 
Q 2144 3296 2323 3181 
Q 2502 3066 2604 2893 
Q 2707 2720 2707 2490 
Q 2707 2342 2656 2220 
Q 2605 2099 2528 2003 
Q 2451 1907 2358 1840 
Q 2266 1773 2182 1747 
Q 2477 1658 2646 1430 
Q 2816 1203 2816 858 
Q 2816 384 2432 153 
Q 2048 -77 1389 -77 
Q 986 -77 694 -13 
Q 403 51 282 109 
L 384 614 
Q 486 576 752 509 
Q 1018 442 1389 442 
Q 1792 442 2003 566 
Q 2214 691 2214 941 
Q 2214 1120 2134 1232 
Q 2054 1344 1932 1401 
Q 1811 1459 1670 1478 
Q 1530 1498 1408 1498 
L 851 1498 
L 851 1971 
L 1389 1971 
Q 1504 1971 1629 1987 
Q 1754 2003 1859 2054 
Q 1965 2106 2035 2198 
Q 2106 2291 2106 2445 
Q 2106 2566 2045 2652 
Q 1984 2739 1881 2796 
Q 1779 2854 1641 2883 
Q 1504 2912 1357 2912 
Q 1242 2912 1107 2893 
Q 973 2874 845 2845 
Q 717 2816 614 2784 
Q 512 2752 467 2726 
L 358 3238 
Q 410 3258 518 3290 
Q 627 3322 764 3347 
Q 902 3373 1056 3392 
Q 1210 3411 1357 3411 
z
" transform="scale(0.015625)"/>
       <path id="Ubuntu-414" d="M 691 0 
L 691 -1184 
L 102 -1184 
L 102 531 
L 570 531 
Q 896 902 1072 1353 
Q 1248 1805 1328 2307 
Q 1408 2810 1424 3347 
Q 1440 3885 1446 4435 
L 3955 4435 
L 3955 531 
L 4512 531 
L 4512 -1184 
L 3923 -1184 
L 3923 0 
L 691 0 
z
M 2054 3904 
Q 2035 3482 2012 3043 
Q 1990 2605 1916 2173 
Q 1843 1741 1702 1325 
Q 1562 909 1306 531 
L 3334 531 
L 3334 3904 
L 2054 3904 
z
" transform="scale(0.015625)"/>
       <path id="Ubuntu-41c" d="M 2541 614 
Q 2477 768 2371 1005 
Q 2266 1242 2144 1517 
Q 2022 1792 1884 2083 
Q 1747 2374 1625 2633 
Q 1504 2893 1398 3097 
Q 1293 3302 1229 3411 
Q 1158 2656 1113 1776 
Q 1069 896 1037 0 
L 429 0 
Q 454 576 486 1161 
Q 518 1747 560 2313 
Q 602 2880 650 3417 
Q 698 3955 755 4435 
L 1299 4435 
Q 1472 4154 1670 3770 
Q 1869 3386 2067 2966 
Q 2266 2547 2451 2128 
Q 2637 1709 2790 1363 
Q 2944 1709 3129 2128 
Q 3315 2547 3513 2966 
Q 3712 3386 3910 3770 
Q 4109 4154 4282 4435 
L 4826 4435 
Q 5043 2291 5152 0 
L 4544 0 
Q 4512 896 4467 1776 
Q 4422 2656 4352 3411 
Q 4288 3302 4182 3097 
Q 4077 2893 3955 2633 
Q 3834 2374 3696 2083 
Q 3558 1792 3436 1517 
Q 3315 1242 3209 1005 
Q 3104 768 3040 614 
L 2541 614 
z
" transform="scale(0.015625)"/>
      </defs>
      <use xlink:href="#Ubuntu-41f"/>
      <use xlink:href="#Ubuntu-440" x="69.899994"/>
      <use xlink:href="#Ubuntu-435" x="128.799988"/>
      <use xlink:href="#Ubuntu-437" x="183.449982"/>
      <use xlink:href="#Ubuntu-438" x="232.349976"/>
      <use xlink:href="#Ubuntu-434" x="292.049973"/>
      <use xlink:href="#Ubuntu-435" x="352.34996"/>
      <use xlink:href="#Ubuntu-43d" x="408.249954"/>
      <use xlink:href="#Ubuntu-442" x="466.849945"/>
      <use xlink:href="#Ubuntu-441" x="513.149933"/>
      <use xlink:href="#Ubuntu-442" x="561.149918"/>
      <use xlink:href="#Ubuntu-432" x="607.449905"/>
      <use xlink:href="#Ubuntu-43e" x="662.249893"/>
      <use xlink:href="#Ubuntu-20" x="721.249878"/>
      <use xlink:href="#Ubuntu-414" x="744.349869"/>
      <use xlink:href="#Ubuntu-2e" x="818.399857"/>
      <use xlink:href="#Ubuntu-20" x="842.999847"/>
      <use xlink:href="#Ubuntu-41c" x="866.099838"/>
      <use xlink:href="#Ubuntu-435" x="953.199829"/>
      <use xlink:href="#Ubuntu-434" x="1009.099823"/>
      <use xlink:href="#Ubuntu-432" x="1069.399811"/>
      <use xlink:href="#Ubuntu-435" x="1124.199799"/>
      <use xlink:href="#Ubuntu-434" x="1180.099792"/>
      <use xlink:href="#Ubuntu-435" x="1240.39978"/>
      <use xlink:href="#Ubuntu-432" x="1296.299774"/>
      <use xlink:href="#Ubuntu-430" x="1351.099762"/>
     </g>
    </g>
    <g id="patch_7">
     <path d="M 328.69875 16.6075 
L 344.69875 16.6075 
L 344.69875 11.0075 
L 328.69875 11.0075 
z
" style="fill: #af5a51; fill-opacity: 0.2"/>
    </g>
    <g id="text_20">
     <!-- Последующие сроки В. Путина -->
     <g style="fill: #4b4b4b" transform="translate(351.09875 16.6075) scale(0.08 -0.08)">
      <defs>
       <path id="Ubuntu-43b" d="M 1670 2829 
Q 1670 2618 1660 2378 
Q 1651 2138 1625 1898 
Q 1600 1658 1555 1424 
Q 1510 1190 1440 986 
Q 1370 781 1264 601 
Q 1158 422 1004 284 
Q 851 147 646 54 
Q 442 -38 166 -64 
L 83 435 
Q 397 499 579 672 
Q 762 845 870 1094 
Q 966 1312 1011 1587 
Q 1056 1862 1075 2160 
Q 1094 2458 1097 2758 
Q 1101 3059 1101 3328 
L 3315 3328 
L 3315 0 
L 2720 0 
L 2720 2829 
L 1670 2829 
z
" transform="scale(0.015625)"/>
       <path id="Ubuntu-44e" d="M 1107 1952 
L 1837 1952 
Q 1875 2285 2006 2553 
Q 2138 2822 2336 3014 
Q 2534 3206 2790 3308 
Q 3046 3411 3341 3411 
Q 3667 3411 3945 3286 
Q 4224 3162 4429 2931 
Q 4634 2701 4749 2377 
Q 4864 2054 4864 1664 
Q 4864 1267 4749 947 
Q 4634 627 4429 396 
Q 4224 166 3945 41 
Q 3667 -83 3341 -83 
Q 3034 -83 2768 29 
Q 2502 141 2304 342 
Q 2106 544 1981 832 
Q 1856 1120 1830 1472 
L 1107 1472 
L 1107 0 
L 512 0 
L 512 3328 
L 1107 3328 
L 1107 1952 
z
M 4250 1664 
Q 4250 2227 4003 2556 
Q 3757 2886 3341 2886 
Q 2925 2886 2678 2556 
Q 2432 2227 2432 1664 
Q 2432 1101 2678 771 
Q 2925 442 3341 442 
Q 3757 442 4003 771 
Q 4250 1101 4250 1664 
z
" transform="scale(0.015625)"/>
       <path id="Ubuntu-449" d="M 512 0 
L 512 3328 
L 1107 3328 
L 1107 493 
L 2336 493 
L 2336 3328 
L 2931 3328 
L 2931 493 
L 4160 493 
L 4160 3328 
L 4755 3328 
L 4755 493 
L 5203 493 
L 5203 -928 
L 4640 -928 
L 4640 0 
L 512 0 
z
" transform="scale(0.015625)"/>
      </defs>
      <use xlink:href="#Ubuntu-41f"/>
      <use xlink:href="#Ubuntu-43e" x="69.899994"/>
      <use xlink:href="#Ubuntu-441" x="128.899979"/>
      <use xlink:href="#Ubuntu-43b" x="177.274963"/>
      <use xlink:href="#Ubuntu-435" x="237.074951"/>
      <use xlink:href="#Ubuntu-434" x="292.974945"/>
      <use xlink:href="#Ubuntu-443" x="355.649933"/>
      <use xlink:href="#Ubuntu-44e" x="405.34993"/>
      <use xlink:href="#Ubuntu-449" x="486.449921"/>
      <use xlink:href="#Ubuntu-438" x="569.849915"/>
      <use xlink:href="#Ubuntu-435" x="629.549911"/>
      <use xlink:href="#Ubuntu-20" x="685.449905"/>
      <use xlink:href="#Ubuntu-441" x="708.549896"/>
      <use xlink:href="#Ubuntu-440" x="755.049881"/>
      <use xlink:href="#Ubuntu-43e" x="813.949875"/>
      <use xlink:href="#Ubuntu-43a" x="872.94986"/>
      <use xlink:href="#Ubuntu-438" x="926.649857"/>
      <use xlink:href="#Ubuntu-20" x="986.349854"/>
      <use xlink:href="#Ubuntu-412" x="1009.449844"/>
      <use xlink:href="#Ubuntu-2e" x="1072.749832"/>
      <use xlink:href="#Ubuntu-20" x="1097.349823"/>
      <use xlink:href="#Ubuntu-41f" x="1120.449814"/>
      <use xlink:href="#Ubuntu-443" x="1190.349808"/>
      <use xlink:href="#Ubuntu-442" x="1242.174805"/>
      <use xlink:href="#Ubuntu-438" x="1288.474792"/>
      <use xlink:href="#Ubuntu-43d" x="1348.174789"/>
      <use xlink:href="#Ubuntu-430" x="1406.77478"/>
     </g>
    </g>
   </g>
  </g>
 </g>
 <defs>
  <clipPath id="pb404c52c2d">
   <rect x="26.225" y="25.31125" width="502.2" height="138.6"/>
  </clipPath>
 </defs>
</svg>
