<?xml version="1.0" encoding="utf-8" standalone="no"?>
<!DOCTYPE svg PUBLIC "-//W3C//DTD SVG 1.1//EN"
  "http://www.w3.org/Graphics/SVG/1.1/DTD/svg11.dtd">
<svg xmlns:xlink="http://www.w3.org/1999/xlink" width="558.425pt" height="209.062656pt" viewBox="0 0 558.425 209.062656" xmlns="http://www.w3.org/2000/svg" version="1.1">
 <metadata>
  <rdf:RDF xmlns:dc="http://purl.org/dc/elements/1.1/" xmlns:cc="http://creativecommons.org/ns#" xmlns:rdf="http://www.w3.org/1999/02/22-rdf-syntax-ns#">
   <cc:Work>
    <dc:type rdf:resource="http://purl.org/dc/dcmitype/StillImage"/>
    <dc:date>2024-04-19T22:50:06.630318</dc:date>
    <dc:format>image/svg+xml</dc:format>
    <dc:creator>
     <cc:Agent>
      <dc:title>Matplotlib v3.8.0, https://matplotlib.org/</dc:title>
     </cc:Agent>
    </dc:creator>
   </cc:Work>
  </rdf:RDF>
 </metadata>
 <defs>
  <style type="text/css">*{stroke-linejoin: round; stroke-linecap: butt}</style>
 </defs>
 <g id="figure_1">
  <g id="patch_1">
   <path d="M 0 209.062656 
L 558.425 209.062656 
L 558.425 0 
L 0 0 
L 0 209.062656 
z
" style="fill: none"/>
  </g>
  <g id="axes_1">
   <g id="patch_2">
    <path d="M 41.705 166.175156 
L 543.905 166.175156 
L 543.905 27.575156 
L 41.705 27.575156 
L 41.705 166.175156 
z
" style="fill: none"/>
   </g>
   <g id="axes_2">
    <g id="patch_3">
     <path d="M 41.705 166.175156 
L 543.905 166.175156 
L 543.905 166.175156 
L 41.705 166.175156 
L 41.705 166.175156 
z
" style="fill: none"/>
    </g>
    <g id="matplotlib.axis_1">
     <g id="xtick_1">
      <g id="line2d_1">
       <path d="M 41.705 166.175156 
L 41.705 166.175156 
" clip-path="url(#p5cbc301b19)" style="fill: none; stroke-dasharray: 0.5,0.825; stroke-dashoffset: 0; stroke: #d9d9d9; stroke-width: 0.5"/>
      </g>
      <g id="text_1">
       <!-- 2021 -->
       <g style="fill: #999999" transform="translate(32.68 200.382656) scale(0.08 -0.08)">
        <defs>
         <path id="Ubuntu-32" d="M 2989 3302 
Q 2989 3072 2896 2857 
Q 2803 2643 2649 2435 
Q 2496 2227 2304 2025 
Q 2112 1824 1920 1632 
Q 1811 1523 1667 1376 
Q 1523 1229 1395 1069 
Q 1267 909 1180 761 
Q 1094 614 1094 506 
L 3136 506 
L 3136 0 
L 448 0 
Q 442 38 442 76 
Q 442 115 442 147 
Q 442 448 541 707 
Q 640 966 800 1196 
Q 960 1427 1158 1632 
Q 1357 1837 1549 2029 
Q 1709 2182 1853 2332 
Q 1997 2483 2109 2633 
Q 2221 2784 2288 2944 
Q 2355 3104 2355 3283 
Q 2355 3475 2294 3609 
Q 2234 3744 2131 3833 
Q 2029 3923 1891 3964 
Q 1754 4006 1600 4006 
Q 1414 4006 1260 3955 
Q 1107 3904 985 3837 
Q 864 3770 781 3696 
Q 698 3622 653 3584 
L 358 4006 
Q 416 4070 531 4163 
Q 646 4256 806 4339 
Q 966 4422 1164 4480 
Q 1363 4538 1594 4538 
Q 2291 4538 2640 4214 
Q 2989 3891 2989 3302 
z
" transform="scale(0.015625)"/>
         <path id="Ubuntu-30" d="M 320 2221 
Q 320 3334 713 3936 
Q 1107 4538 1805 4538 
Q 2502 4538 2896 3936 
Q 3290 3334 3290 2221 
Q 3290 1107 2896 505 
Q 2502 -96 1805 -96 
Q 1107 -96 713 505 
Q 320 1107 320 2221 
z
M 2662 2221 
Q 2662 2586 2620 2912 
Q 2579 3238 2480 3481 
Q 2381 3725 2214 3869 
Q 2048 4013 1805 4013 
Q 1562 4013 1395 3869 
Q 1229 3725 1129 3481 
Q 1030 3238 988 2912 
Q 947 2586 947 2221 
Q 947 1856 988 1529 
Q 1030 1203 1129 960 
Q 1229 717 1395 573 
Q 1562 429 1805 429 
Q 2048 429 2214 573 
Q 2381 717 2480 960 
Q 2579 1203 2620 1529 
Q 2662 1856 2662 2221 
z
" transform="scale(0.015625)"/>
         <path id="Ubuntu-31" d="M 595 3520 
Q 960 3661 1305 3881 
Q 1651 4102 1939 4435 
L 2362 4435 
L 2362 0 
L 1766 0 
L 1766 3610 
Q 1690 3539 1578 3462 
Q 1466 3386 1334 3315 
Q 1203 3245 1059 3181 
Q 915 3117 781 3072 
L 595 3520 
z
" transform="scale(0.015625)"/>
        </defs>
        <use xlink:href="#Ubuntu-32"/>
        <use xlink:href="#Ubuntu-30" x="56.399994"/>
        <use xlink:href="#Ubuntu-32" x="112.799988"/>
        <use xlink:href="#Ubuntu-31" x="169.199982"/>
       </g>
      </g>
     </g>
     <g id="xtick_2">
      <g id="line2d_2">
       <path d="M 196.260649 166.175156 
L 196.260649 166.175156 
" clip-path="url(#p5cbc301b19)" style="fill: none; stroke-dasharray: 0.5,0.825; stroke-dashoffset: 0; stroke: #d9d9d9; stroke-width: 0.5"/>
      </g>
      <g id="text_2">
       <!-- 2022 -->
       <g style="fill: #999999" transform="translate(187.235649 200.382656) scale(0.08 -0.08)">
        <use xlink:href="#Ubuntu-32"/>
        <use xlink:href="#Ubuntu-30" x="56.399994"/>
        <use xlink:href="#Ubuntu-32" x="112.799988"/>
        <use xlink:href="#Ubuntu-32" x="169.199982"/>
       </g>
      </g>
     </g>
     <g id="xtick_3">
      <g id="line2d_3">
       <path d="M 350.816298 166.175156 
L 350.816298 166.175156 
" clip-path="url(#p5cbc301b19)" style="fill: none; stroke-dasharray: 0.5,0.825; stroke-dashoffset: 0; stroke: #d9d9d9; stroke-width: 0.5"/>
      </g>
      <g id="text_3">
       <!-- 2023 -->
       <g style="fill: #999999" transform="translate(341.791298 200.382656) scale(0.08 -0.08)">
        <defs>
         <path id="Ubuntu-33" d="M 1446 435 
Q 2016 435 2262 659 
Q 2509 883 2509 1261 
Q 2509 1504 2406 1670 
Q 2304 1837 2137 1936 
Q 1971 2035 1750 2076 
Q 1530 2118 1299 2118 
L 1146 2118 
L 1146 2605 
L 1357 2605 
Q 1517 2605 1686 2637 
Q 1856 2669 1997 2752 
Q 2138 2835 2227 2979 
Q 2317 3123 2317 3341 
Q 2317 3520 2253 3648 
Q 2189 3776 2083 3859 
Q 1978 3942 1840 3977 
Q 1702 4013 1549 4013 
Q 1242 4013 1027 3923 
Q 813 3834 666 3738 
L 435 4192 
Q 512 4243 630 4304 
Q 749 4365 896 4416 
Q 1043 4467 1212 4502 
Q 1382 4538 1568 4538 
Q 1920 4538 2176 4451 
Q 2432 4365 2598 4208 
Q 2765 4051 2848 3836 
Q 2931 3622 2931 3373 
Q 2931 3027 2732 2780 
Q 2534 2534 2253 2406 
Q 2426 2355 2586 2259 
Q 2746 2163 2864 2016 
Q 2982 1869 3056 1677 
Q 3130 1485 3130 1248 
Q 3130 960 3030 713 
Q 2931 467 2723 288 
Q 2515 109 2201 6 
Q 1888 -96 1459 -96 
Q 1293 -96 1117 -70 
Q 941 -45 787 -6 
Q 634 32 518 70 
Q 403 109 352 134 
L 467 653 
Q 576 602 829 518 
Q 1082 435 1446 435 
z
" transform="scale(0.015625)"/>
        </defs>
        <use xlink:href="#Ubuntu-32"/>
        <use xlink:href="#Ubuntu-30" x="56.399994"/>
        <use xlink:href="#Ubuntu-32" x="112.799988"/>
        <use xlink:href="#Ubuntu-33" x="169.199982"/>
       </g>
      </g>
     </g>
     <g id="xtick_4">
      <g id="line2d_4">
       <path d="M 505.371948 166.175156 
L 505.371948 166.175156 
" clip-path="url(#p5cbc301b19)" style="fill: none; stroke-dasharray: 0.5,0.825; stroke-dashoffset: 0; stroke: #d9d9d9; stroke-width: 0.5"/>
      </g>
      <g id="text_4">
       <!-- 2024 -->
       <g style="fill: #999999" transform="translate(496.346948 200.382656) scale(0.08 -0.08)">
        <defs>
         <path id="Ubuntu-34" d="M 256 1536 
Q 378 1818 589 2192 
Q 800 2566 1065 2963 
Q 1331 3360 1635 3744 
Q 1939 4128 2246 4435 
L 2816 4435 
L 2816 1619 
L 3341 1619 
L 3341 1133 
L 2816 1133 
L 2816 0 
L 2240 0 
L 2240 1133 
L 256 1133 
L 256 1536 
z
M 2240 3731 
Q 2048 3526 1853 3273 
Q 1658 3021 1472 2745 
Q 1286 2470 1123 2182 
Q 960 1894 832 1619 
L 2240 1619 
L 2240 3731 
z
" transform="scale(0.015625)"/>
        </defs>
        <use xlink:href="#Ubuntu-32"/>
        <use xlink:href="#Ubuntu-30" x="56.399994"/>
        <use xlink:href="#Ubuntu-32" x="112.799988"/>
        <use xlink:href="#Ubuntu-34" x="169.199982"/>
       </g>
      </g>
     </g>
    </g>
    <g id="matplotlib.axis_2"/>
   </g>
   <g id="matplotlib.axis_3">
    <g id="xtick_5">
     <g id="line2d_5">
      <defs>
       <path id="m033cbca1d6" d="M 0 0 
L 0 3 
" style="stroke: #cccccc; stroke-width: 0.75"/>
      </defs>
      <g>
       <use xlink:href="#m033cbca1d6" x="41.705" y="176.175156" style="fill: #cccccc; stroke: #cccccc; stroke-width: 0.75"/>
      </g>
     </g>
     <g id="text_5">
      <!-- Янв -->
      <g style="fill: #999999" transform="translate(34.629375 191.382656) scale(0.08 -0.08)">
       <defs>
        <path id="Ubuntu-42f" d="M 2272 3936 
Q 2029 3936 1808 3897 
Q 1587 3859 1414 3763 
Q 1242 3667 1139 3500 
Q 1037 3334 1037 3085 
Q 1037 2611 1341 2428 
Q 1645 2246 2253 2246 
L 2893 2246 
L 2893 3917 
Q 2822 3917 2726 3923 
Q 2643 3930 2531 3933 
Q 2419 3936 2272 3936 
z
M 2323 4480 
Q 2458 4480 2611 4473 
Q 2765 4467 2921 4454 
Q 3078 4442 3232 4422 
Q 3386 4403 3514 4371 
L 3514 0 
L 2893 0 
L 2893 1734 
L 2362 1734 
Q 2272 1734 2173 1737 
Q 2074 1741 1907 1760 
Q 1792 1606 1657 1401 
Q 1523 1197 1388 966 
Q 1254 736 1123 486 
Q 992 237 883 0 
L 230 0 
Q 333 250 473 518 
Q 614 787 764 1030 
Q 915 1274 1052 1482 
Q 1190 1690 1293 1824 
Q 1146 1869 986 1952 
Q 826 2035 691 2182 
Q 557 2330 470 2550 
Q 384 2771 384 3078 
Q 384 3424 518 3686 
Q 653 3949 905 4125 
Q 1158 4301 1516 4390 
Q 1875 4480 2323 4480 
z
" transform="scale(0.015625)"/>
        <path id="Ubuntu-43d" d="M 3238 0 
L 2643 0 
L 2643 1472 
L 1107 1472 
L 1107 0 
L 512 0 
L 512 3328 
L 1107 3328 
L 1107 1971 
L 2643 1971 
L 2643 3328 
L 3238 3328 
L 3238 0 
z
" transform="scale(0.015625)"/>
        <path id="Ubuntu-432" d="M 1094 448 
Q 1133 442 1203 435 
Q 1274 429 1363 425 
Q 1453 422 1552 419 
Q 1651 416 1741 416 
Q 1926 416 2096 441 
Q 2266 467 2390 531 
Q 2515 595 2588 700 
Q 2662 806 2662 973 
Q 2662 1133 2595 1238 
Q 2528 1344 2413 1408 
Q 2298 1472 2141 1497 
Q 1984 1523 1805 1523 
L 1094 1523 
L 1094 448 
z
M 1728 1965 
Q 1901 1965 2045 1987 
Q 2189 2010 2294 2067 
Q 2400 2125 2461 2221 
Q 2522 2317 2522 2464 
Q 2522 2618 2445 2707 
Q 2368 2797 2243 2845 
Q 2118 2893 1961 2909 
Q 1805 2925 1645 2925 
Q 1498 2925 1347 2918 
Q 1197 2912 1094 2906 
L 1094 1965 
L 1728 1965 
z
M 1715 -58 
Q 1338 -58 1018 -22 
Q 698 13 512 58 
L 512 3296 
Q 698 3341 1018 3376 
Q 1338 3411 1715 3411 
Q 1978 3411 2227 3366 
Q 2477 3322 2669 3216 
Q 2861 3110 2979 2928 
Q 3098 2746 3098 2477 
Q 3098 2234 2976 2061 
Q 2854 1888 2650 1792 
Q 2925 1696 3088 1507 
Q 3251 1318 3251 979 
Q 3251 678 3132 480 
Q 3014 282 2806 160 
Q 2598 38 2316 -10 
Q 2035 -58 1715 -58 
z
" transform="scale(0.015625)"/>
       </defs>
       <use xlink:href="#Ubuntu-42f"/>
       <use xlink:href="#Ubuntu-43d" x="63.499985"/>
       <use xlink:href="#Ubuntu-432" x="122.099976"/>
      </g>
     </g>
    </g>
    <g id="xtick_6">
     <g id="line2d_6">
      <g>
       <use xlink:href="#m033cbca1d6" x="79.814612" y="176.175156" style="fill: #cccccc; stroke: #cccccc; stroke-width: 0.75"/>
      </g>
     </g>
     <g id="text_6">
      <!-- Апр -->
      <g style="fill: #999999" transform="translate(72.494612 191.382656) scale(0.08 -0.08)">
       <defs>
        <path id="Ubuntu-410" d="M 3514 0 
Q 3405 288 3309 566 
Q 3213 845 3110 1133 
L 1101 1133 
L 698 0 
L 51 0 
Q 307 704 531 1302 
Q 755 1901 969 2438 
Q 1184 2976 1395 3465 
Q 1606 3955 1837 4435 
L 2406 4435 
Q 2637 3955 2848 3465 
Q 3059 2976 3273 2438 
Q 3488 1901 3712 1302 
Q 3936 704 4192 0 
L 3514 0 
z
M 2931 1645 
Q 2726 2202 2524 2723 
Q 2323 3245 2106 3725 
Q 1882 3245 1680 2723 
Q 1478 2202 1280 1645 
L 2931 1645 
z
" transform="scale(0.015625)"/>
        <path id="Ubuntu-43f" d="M 3187 0 
L 2592 0 
L 2592 2829 
L 1107 2829 
L 1107 0 
L 512 0 
L 512 3328 
L 3187 3328 
L 3187 0 
z
" transform="scale(0.015625)"/>
        <path id="Ubuntu-440" d="M 2822 1658 
Q 2822 2240 2534 2553 
Q 2246 2867 1766 2867 
Q 1498 2867 1347 2848 
Q 1197 2829 1107 2803 
L 1107 704 
Q 1216 614 1421 531 
Q 1626 448 1869 448 
Q 2125 448 2307 541 
Q 2490 634 2605 797 
Q 2720 960 2771 1181 
Q 2822 1402 2822 1658 
z
M 3443 1658 
Q 3443 1280 3344 960 
Q 3245 640 3053 409 
Q 2861 179 2582 51 
Q 2304 -77 1946 -77 
Q 1658 -77 1437 0 
Q 1216 77 1107 147 
L 1107 -1184 
L 512 -1184 
L 512 3226 
Q 723 3277 1040 3337 
Q 1357 3398 1773 3398 
Q 2157 3398 2464 3276 
Q 2771 3155 2988 2931 
Q 3206 2707 3324 2384 
Q 3443 2061 3443 1658 
z
" transform="scale(0.015625)"/>
       </defs>
       <use xlink:href="#Ubuntu-410"/>
       <use xlink:href="#Ubuntu-43f" x="66.299988"/>
       <use xlink:href="#Ubuntu-440" x="124.099976"/>
      </g>
     </g>
    </g>
    <g id="xtick_7">
     <g id="line2d_7">
      <g>
       <use xlink:href="#m033cbca1d6" x="118.347664" y="176.175156" style="fill: #cccccc; stroke: #cccccc; stroke-width: 0.75"/>
      </g>
     </g>
     <g id="text_7">
      <!-- Июл -->
      <g style="fill: #999999" transform="translate(109.800164 191.382656) scale(0.08 -0.08)">
       <defs>
        <path id="Ubuntu-418" d="M 550 0 
L 550 4435 
L 1158 4435 
L 1158 1152 
Q 1363 1491 1660 1926 
Q 1958 2362 2294 2813 
Q 2630 3264 2972 3689 
Q 3315 4115 3616 4435 
L 4109 4435 
L 4109 0 
L 3501 0 
L 3501 3462 
Q 3322 3258 3110 2989 
Q 2899 2720 2675 2416 
Q 2451 2112 2224 1785 
Q 1997 1459 1785 1142 
Q 1574 826 1392 531 
Q 1210 237 1069 0 
L 550 0 
z
" transform="scale(0.015625)"/>
        <path id="Ubuntu-44e" d="M 1107 1952 
L 1837 1952 
Q 1875 2285 2006 2553 
Q 2138 2822 2336 3014 
Q 2534 3206 2790 3308 
Q 3046 3411 3341 3411 
Q 3667 3411 3945 3286 
Q 4224 3162 4429 2931 
Q 4634 2701 4749 2377 
Q 4864 2054 4864 1664 
Q 4864 1267 4749 947 
Q 4634 627 4429 396 
Q 4224 166 3945 41 
Q 3667 -83 3341 -83 
Q 3034 -83 2768 29 
Q 2502 141 2304 342 
Q 2106 544 1981 832 
Q 1856 1120 1830 1472 
L 1107 1472 
L 1107 0 
L 512 0 
L 512 3328 
L 1107 3328 
L 1107 1952 
z
M 4250 1664 
Q 4250 2227 4003 2556 
Q 3757 2886 3341 2886 
Q 2925 2886 2678 2556 
Q 2432 2227 2432 1664 
Q 2432 1101 2678 771 
Q 2925 442 3341 442 
Q 3757 442 4003 771 
Q 4250 1101 4250 1664 
z
" transform="scale(0.015625)"/>
        <path id="Ubuntu-43b" d="M 1670 2829 
Q 1670 2618 1660 2378 
Q 1651 2138 1625 1898 
Q 1600 1658 1555 1424 
Q 1510 1190 1440 986 
Q 1370 781 1264 601 
Q 1158 422 1004 284 
Q 851 147 646 54 
Q 442 -38 166 -64 
L 83 435 
Q 397 499 579 672 
Q 762 845 870 1094 
Q 966 1312 1011 1587 
Q 1056 1862 1075 2160 
Q 1094 2458 1097 2758 
Q 1101 3059 1101 3328 
L 3315 3328 
L 3315 0 
L 2720 0 
L 2720 2829 
L 1670 2829 
z
" transform="scale(0.015625)"/>
       </defs>
       <use xlink:href="#Ubuntu-418"/>
       <use xlink:href="#Ubuntu-44e" x="72.799988"/>
       <use xlink:href="#Ubuntu-43b" x="153.899979"/>
      </g>
     </g>
    </g>
    <g id="xtick_8">
     <g id="line2d_8">
      <g>
       <use xlink:href="#m033cbca1d6" x="157.304157" y="176.175156" style="fill: #cccccc; stroke: #cccccc; stroke-width: 0.75"/>
      </g>
     </g>
     <g id="text_8">
      <!-- Окт -->
      <g style="fill: #999999" transform="translate(150.192282 191.382656) scale(0.08 -0.08)">
       <defs>
        <path id="Ubuntu-41e" d="M 371 2221 
Q 371 2790 540 3225 
Q 710 3661 1001 3952 
Q 1293 4243 1680 4390 
Q 2067 4538 2502 4538 
Q 2931 4538 3312 4390 
Q 3693 4243 3981 3952 
Q 4269 3661 4438 3225 
Q 4608 2790 4608 2221 
Q 4608 1651 4438 1216 
Q 4269 781 3981 489 
Q 3693 198 3312 51 
Q 2931 -96 2502 -96 
Q 2067 -96 1680 51 
Q 1293 198 1001 489 
Q 710 781 540 1216 
Q 371 1651 371 2221 
z
M 1024 2221 
Q 1024 1818 1126 1488 
Q 1229 1158 1417 928 
Q 1606 698 1878 573 
Q 2150 448 2490 448 
Q 2829 448 3097 573 
Q 3366 698 3555 928 
Q 3744 1158 3846 1488 
Q 3949 1818 3949 2221 
Q 3949 2624 3846 2953 
Q 3744 3283 3555 3513 
Q 3366 3744 3097 3869 
Q 2829 3994 2490 3994 
Q 2150 3994 1878 3869 
Q 1606 3744 1417 3513 
Q 1229 3283 1126 2953 
Q 1024 2624 1024 2221 
z
" transform="scale(0.015625)"/>
        <path id="Ubuntu-43a" d="M 1728 1811 
Q 1926 1670 2156 1456 
Q 2387 1242 2608 992 
Q 2829 742 3021 483 
Q 3213 224 3347 0 
L 2643 0 
Q 2502 218 2313 445 
Q 2125 672 1920 883 
Q 1715 1094 1504 1273 
Q 1293 1453 1107 1574 
L 1107 0 
L 512 0 
L 512 3328 
L 1107 3328 
L 1107 1901 
Q 1261 2048 1459 2243 
Q 1658 2438 1859 2640 
Q 2061 2842 2233 3024 
Q 2406 3206 2515 3328 
L 3206 3328 
Q 3066 3174 2877 2979 
Q 2688 2784 2486 2579 
Q 2285 2374 2086 2172 
Q 1888 1971 1728 1811 
z
" transform="scale(0.015625)"/>
        <path id="Ubuntu-442" d="M 2861 3328 
L 2861 2829 
L 1779 2829 
L 1779 0 
L 1184 0 
L 1184 2829 
L 102 2829 
L 102 3328 
L 2861 3328 
z
" transform="scale(0.015625)"/>
       </defs>
       <use xlink:href="#Ubuntu-41e"/>
       <use xlink:href="#Ubuntu-43a" x="77.799988"/>
       <use xlink:href="#Ubuntu-442" x="131.499985"/>
      </g>
     </g>
    </g>
    <g id="xtick_9">
     <g id="line2d_9">
      <g>
       <use xlink:href="#m033cbca1d6" x="196.260649" y="176.175156" style="fill: #cccccc; stroke: #cccccc; stroke-width: 0.75"/>
      </g>
     </g>
     <g id="text_9">
      <!-- Янв -->
      <g style="fill: #999999" transform="translate(189.185024 191.382656) scale(0.08 -0.08)">
       <use xlink:href="#Ubuntu-42f"/>
       <use xlink:href="#Ubuntu-43d" x="63.499985"/>
       <use xlink:href="#Ubuntu-432" x="122.099976"/>
      </g>
     </g>
    </g>
    <g id="xtick_10">
     <g id="line2d_10">
      <g>
       <use xlink:href="#m033cbca1d6" x="234.370261" y="176.175156" style="fill: #cccccc; stroke: #cccccc; stroke-width: 0.75"/>
      </g>
     </g>
     <g id="text_10">
      <!-- Апр -->
      <g style="fill: #999999" transform="translate(227.050261 191.382656) scale(0.08 -0.08)">
       <use xlink:href="#Ubuntu-410"/>
       <use xlink:href="#Ubuntu-43f" x="66.299988"/>
       <use xlink:href="#Ubuntu-440" x="124.099976"/>
      </g>
     </g>
    </g>
    <g id="xtick_11">
     <g id="line2d_11">
      <g>
       <use xlink:href="#m033cbca1d6" x="272.903314" y="176.175156" style="fill: #cccccc; stroke: #cccccc; stroke-width: 0.75"/>
      </g>
     </g>
     <g id="text_11">
      <!-- Июл -->
      <g style="fill: #999999" transform="translate(264.355814 191.382656) scale(0.08 -0.08)">
       <use xlink:href="#Ubuntu-418"/>
       <use xlink:href="#Ubuntu-44e" x="72.799988"/>
       <use xlink:href="#Ubuntu-43b" x="153.899979"/>
      </g>
     </g>
    </g>
    <g id="xtick_12">
     <g id="line2d_12">
      <g>
       <use xlink:href="#m033cbca1d6" x="311.859806" y="176.175156" style="fill: #cccccc; stroke: #cccccc; stroke-width: 0.75"/>
      </g>
     </g>
     <g id="text_12">
      <!-- Окт -->
      <g style="fill: #999999" transform="translate(304.747931 191.382656) scale(0.08 -0.08)">
       <use xlink:href="#Ubuntu-41e"/>
       <use xlink:href="#Ubuntu-43a" x="77.799988"/>
       <use xlink:href="#Ubuntu-442" x="131.499985"/>
      </g>
     </g>
    </g>
    <g id="xtick_13">
     <g id="line2d_13">
      <g>
       <use xlink:href="#m033cbca1d6" x="350.816298" y="176.175156" style="fill: #cccccc; stroke: #cccccc; stroke-width: 0.75"/>
      </g>
     </g>
     <g id="text_13">
      <!-- Янв -->
      <g style="fill: #999999" transform="translate(343.740673 191.382656) scale(0.08 -0.08)">
       <use xlink:href="#Ubuntu-42f"/>
       <use xlink:href="#Ubuntu-43d" x="63.499985"/>
       <use xlink:href="#Ubuntu-432" x="122.099976"/>
      </g>
     </g>
    </g>
    <g id="xtick_14">
     <g id="line2d_14">
      <g>
       <use xlink:href="#m033cbca1d6" x="388.925911" y="176.175156" style="fill: #cccccc; stroke: #cccccc; stroke-width: 0.75"/>
      </g>
     </g>
     <g id="text_14">
      <!-- Апр -->
      <g style="fill: #999999" transform="translate(381.605911 191.382656) scale(0.08 -0.08)">
       <use xlink:href="#Ubuntu-410"/>
       <use xlink:href="#Ubuntu-43f" x="66.299988"/>
       <use xlink:href="#Ubuntu-440" x="124.099976"/>
      </g>
     </g>
    </g>
    <g id="xtick_15">
     <g id="line2d_15">
      <g>
       <use xlink:href="#m033cbca1d6" x="427.458963" y="176.175156" style="fill: #cccccc; stroke: #cccccc; stroke-width: 0.75"/>
      </g>
     </g>
     <g id="text_15">
      <!-- Июл -->
      <g style="fill: #999999" transform="translate(418.911463 191.382656) scale(0.08 -0.08)">
       <use xlink:href="#Ubuntu-418"/>
       <use xlink:href="#Ubuntu-44e" x="72.799988"/>
       <use xlink:href="#Ubuntu-43b" x="153.899979"/>
      </g>
     </g>
    </g>
    <g id="xtick_16">
     <g id="line2d_16">
      <g>
       <use xlink:href="#m033cbca1d6" x="466.415455" y="176.175156" style="fill: #cccccc; stroke: #cccccc; stroke-width: 0.75"/>
      </g>
     </g>
     <g id="text_16">
      <!-- Окт -->
      <g style="fill: #999999" transform="translate(459.30358 191.382656) scale(0.08 -0.08)">
       <use xlink:href="#Ubuntu-41e"/>
       <use xlink:href="#Ubuntu-43a" x="77.799988"/>
       <use xlink:href="#Ubuntu-442" x="131.499985"/>
      </g>
     </g>
    </g>
    <g id="xtick_17">
     <g id="line2d_17">
      <g>
       <use xlink:href="#m033cbca1d6" x="505.371948" y="176.175156" style="fill: #cccccc; stroke: #cccccc; stroke-width: 0.75"/>
      </g>
     </g>
     <g id="text_17">
      <!-- Янв -->
      <g style="fill: #999999" transform="translate(498.296323 191.382656) scale(0.08 -0.08)">
       <use xlink:href="#Ubuntu-42f"/>
       <use xlink:href="#Ubuntu-43d" x="63.499985"/>
       <use xlink:href="#Ubuntu-432" x="122.099976"/>
      </g>
     </g>
    </g>
    <g id="xtick_18">
     <g id="line2d_18">
      <g>
       <use xlink:href="#m033cbca1d6" x="543.905" y="176.175156" style="fill: #cccccc; stroke: #cccccc; stroke-width: 0.75"/>
      </g>
     </g>
     <g id="text_18">
      <!-- Апр -->
      <g style="fill: #999999" transform="translate(536.585 191.382656) scale(0.08 -0.08)">
       <use xlink:href="#Ubuntu-410"/>
       <use xlink:href="#Ubuntu-43f" x="66.299988"/>
       <use xlink:href="#Ubuntu-440" x="124.099976"/>
      </g>
     </g>
    </g>
   </g>
   <g id="matplotlib.axis_4">
    <g id="ytick_1">
     <g id="line2d_19">
      <defs>
       <path id="me2f6cd7af8" d="M 0 0 
L -3 0 
" style="stroke: #cccccc; stroke-width: 0.75"/>
      </defs>
      <g>
       <use xlink:href="#me2f6cd7af8" x="31.705" y="161.975156" style="fill: #cccccc; stroke: #cccccc; stroke-width: 0.75"/>
      </g>
     </g>
     <g id="text_19">
      <!-- 1.00 -->
      <g style="fill: #999999" transform="translate(7.2 165.078906) scale(0.08 -0.08)">
       <defs>
        <path id="Ubuntu-2e" d="M 1216 346 
Q 1216 173 1101 45 
Q 986 -83 787 -83 
Q 589 -83 473 45 
Q 358 173 358 346 
Q 358 518 473 646 
Q 589 774 787 774 
Q 986 774 1101 646 
Q 1216 518 1216 346 
z
" transform="scale(0.015625)"/>
       </defs>
       <use xlink:href="#Ubuntu-31"/>
       <use xlink:href="#Ubuntu-2e" x="56.399994"/>
       <use xlink:href="#Ubuntu-30" x="80.999985"/>
       <use xlink:href="#Ubuntu-30" x="137.399979"/>
      </g>
     </g>
    </g>
    <g id="ytick_2">
     <g id="line2d_20">
      <g>
       <use xlink:href="#me2f6cd7af8" x="31.705" y="140.975156" style="fill: #cccccc; stroke: #cccccc; stroke-width: 0.75"/>
      </g>
     </g>
     <g id="text_20">
      <!-- 1.05 -->
      <g style="fill: #999999" transform="translate(7.2 144.078906) scale(0.08 -0.08)">
       <defs>
        <path id="Ubuntu-35" d="M 1274 2726 
Q 2240 2688 2691 2304 
Q 3142 1920 3142 1261 
Q 3142 966 3043 716 
Q 2944 467 2742 288 
Q 2541 109 2233 6 
Q 1926 -96 1504 -96 
Q 1338 -96 1165 -70 
Q 992 -45 845 -6 
Q 698 32 582 70 
Q 467 109 416 134 
L 531 653 
Q 640 602 886 518 
Q 1133 435 1491 435 
Q 1779 435 1974 499 
Q 2170 563 2291 672 
Q 2413 781 2467 925 
Q 2522 1069 2522 1229 
Q 2522 1472 2438 1661 
Q 2355 1850 2144 1978 
Q 1933 2106 1581 2173 
Q 1229 2240 691 2240 
Q 730 2554 752 2829 
Q 774 3104 793 3366 
Q 813 3629 825 3888 
Q 838 4147 851 4435 
L 2989 4435 
L 2989 3930 
L 1370 3930 
Q 1363 3834 1350 3670 
Q 1338 3507 1325 3331 
Q 1312 3155 1299 2988 
Q 1286 2822 1274 2726 
z
" transform="scale(0.015625)"/>
       </defs>
       <use xlink:href="#Ubuntu-31"/>
       <use xlink:href="#Ubuntu-2e" x="56.399994"/>
       <use xlink:href="#Ubuntu-30" x="80.999985"/>
       <use xlink:href="#Ubuntu-35" x="137.399979"/>
      </g>
     </g>
    </g>
    <g id="ytick_3">
     <g id="line2d_21">
      <g>
       <use xlink:href="#me2f6cd7af8" x="31.705" y="119.975156" style="fill: #cccccc; stroke: #cccccc; stroke-width: 0.75"/>
      </g>
     </g>
     <g id="text_21">
      <!-- 1.10 -->
      <g style="fill: #999999" transform="translate(7.2 123.078906) scale(0.08 -0.08)">
       <use xlink:href="#Ubuntu-31"/>
       <use xlink:href="#Ubuntu-2e" x="56.399994"/>
       <use xlink:href="#Ubuntu-31" x="80.999985"/>
       <use xlink:href="#Ubuntu-30" x="137.399979"/>
      </g>
     </g>
    </g>
    <g id="ytick_4">
     <g id="line2d_22">
      <g>
       <use xlink:href="#me2f6cd7af8" x="31.705" y="98.975156" style="fill: #cccccc; stroke: #cccccc; stroke-width: 0.75"/>
      </g>
     </g>
     <g id="text_22">
      <!-- 1.15 -->
      <g style="fill: #999999" transform="translate(7.2 102.078906) scale(0.08 -0.08)">
       <use xlink:href="#Ubuntu-31"/>
       <use xlink:href="#Ubuntu-2e" x="56.399994"/>
       <use xlink:href="#Ubuntu-31" x="80.999985"/>
       <use xlink:href="#Ubuntu-35" x="137.399979"/>
      </g>
     </g>
    </g>
    <g id="ytick_5">
     <g id="line2d_23">
      <g>
       <use xlink:href="#me2f6cd7af8" x="31.705" y="77.975156" style="fill: #cccccc; stroke: #cccccc; stroke-width: 0.75"/>
      </g>
     </g>
     <g id="text_23">
      <!-- 1.20 -->
      <g style="fill: #999999" transform="translate(7.2 81.078906) scale(0.08 -0.08)">
       <use xlink:href="#Ubuntu-31"/>
       <use xlink:href="#Ubuntu-2e" x="56.399994"/>
       <use xlink:href="#Ubuntu-32" x="80.999985"/>
       <use xlink:href="#Ubuntu-30" x="137.399979"/>
      </g>
     </g>
    </g>
    <g id="ytick_6">
     <g id="line2d_24">
      <g>
       <use xlink:href="#me2f6cd7af8" x="31.705" y="56.975156" style="fill: #cccccc; stroke: #cccccc; stroke-width: 0.75"/>
      </g>
     </g>
     <g id="text_24">
      <!-- 1.25 -->
      <g style="fill: #999999" transform="translate(7.2 60.078906) scale(0.08 -0.08)">
       <use xlink:href="#Ubuntu-31"/>
       <use xlink:href="#Ubuntu-2e" x="56.399994"/>
       <use xlink:href="#Ubuntu-32" x="80.999985"/>
       <use xlink:href="#Ubuntu-35" x="137.399979"/>
      </g>
     </g>
    </g>
    <g id="ytick_7">
     <g id="line2d_25">
      <g>
       <use xlink:href="#me2f6cd7af8" x="31.705" y="35.975156" style="fill: #cccccc; stroke: #cccccc; stroke-width: 0.75"/>
      </g>
     </g>
     <g id="text_25">
      <!-- 1.30 -->
      <g style="fill: #999999" transform="translate(7.2 39.078906) scale(0.08 -0.08)">
       <use xlink:href="#Ubuntu-31"/>
       <use xlink:href="#Ubuntu-2e" x="56.399994"/>
       <use xlink:href="#Ubuntu-33" x="80.999985"/>
       <use xlink:href="#Ubuntu-30" x="137.399979"/>
      </g>
     </g>
    </g>
   </g>
   <g id="line2d_26">
    <path d="M 41.705 161.975156 
L 43.340697 162.809516 
L 44.976394 163.335195 
L 46.612091 163.57875 
L 48.247787 163.566737 
L 49.883484 163.32571 
L 51.519181 162.882226 
L 53.154878 162.262839 
L 54.790575 161.494107 
L 58.061968 159.614823 
L 62.969059 156.339688 
L 66.240453 154.16194 
L 69.511846 152.219836 
L 79.326027 146.915782 
L 82.597421 144.72827 
L 90.775905 138.78221 
L 94.047299 136.850746 
L 97.318693 135.429721 
L 100.590086 134.446994 
L 103.86148 133.807826 
L 107.132874 133.41602 
L 110.404267 133.085051 
L 113.675661 132.486728 
L 115.311358 131.980882 
L 116.947055 131.280483 
L 118.582752 130.342961 
L 120.218448 129.134535 
L 121.854145 127.688635 
L 125.125539 124.342401 
L 130.032629 119.156278 
L 131.668326 117.641583 
L 133.304023 116.327408 
L 136.575417 114.191627 
L 144.753901 109.656613 
L 148.025295 107.361391 
L 152.932385 103.747252 
L 154.568082 102.674899 
L 156.203779 101.74291 
L 157.839476 100.995711 
L 159.475173 100.455446 
L 161.110869 100.092294 
L 164.382263 99.748457 
L 172.560747 99.404646 
L 182.374928 98.257522 
L 185.646322 98.236766 
L 187.282019 98.383217 
L 188.917716 98.661221 
L 190.553413 99.091032 
L 192.189109 99.692905 
L 193.824806 100.487094 
L 195.460503 101.493853 
L 197.0962 102.728043 
L 202.003291 106.776926 
L 203.638987 107.755429 
L 205.274684 108.304049 
L 206.910381 108.276196 
L 208.546078 107.525278 
L 210.181775 105.92651 
L 211.817472 103.572147 
L 213.453168 100.678895 
L 218.360259 90.947595 
L 219.995956 88.08058 
L 221.631653 85.765572 
L 223.267349 84.187088 
L 224.903046 83.311913 
L 226.538743 83.020208 
L 228.17444 83.191909 
L 229.810137 83.706955 
L 233.081531 85.286829 
L 236.352924 86.823375 
L 239.624318 87.968923 
L 244.531408 89.535344 
L 247.802802 90.901018 
L 251.074196 92.741443 
L 257.616983 96.78899 
L 259.25268 97.63643 
L 260.888377 98.335661 
L 262.524074 98.865736 
L 264.159771 99.246372 
L 267.431164 99.657715 
L 270.702558 99.766469 
L 278.881042 99.851816 
L 285.423829 100.174665 
L 303.416495 101.402641 
L 309.959282 101.616241 
L 314.866373 102.044521 
L 327.951947 103.622432 
L 342.673219 104.824593 
L 345.944613 105.381236 
L 349.216006 106.18241 
L 352.4874 107.287522 
L 357.394491 109.336126 
L 362.301581 111.339788 
L 365.572975 112.363751 
L 367.208672 112.723853 
L 368.844368 112.960229 
L 370.480065 113.056096 
L 372.115762 112.99467 
L 373.751459 112.759171 
L 375.387156 112.332813 
L 377.022853 111.699784 
L 378.658549 110.877631 
L 381.929943 108.902675 
L 385.201337 106.893986 
L 386.837034 106.029666 
L 388.472731 105.340123 
L 390.108427 104.88333 
L 391.744124 104.660959 
L 393.379821 104.625613 
L 396.651215 104.919837 
L 401.558305 105.537855 
L 403.194002 105.598198 
L 406.465396 105.395207 
L 409.736789 104.855341 
L 414.64388 103.664805 
L 417.915274 102.699048 
L 419.550971 102.042604 
L 421.186667 101.175331 
L 422.822364 100.025869 
L 424.458061 98.522857 
L 426.093758 96.594933 
L 427.729455 94.170737 
L 429.365152 91.211573 
L 431.000848 87.83179 
L 437.543636 73.28925 
L 439.179333 70.19347 
L 440.815029 67.63189 
L 442.450726 65.704564 
L 444.086423 64.324835 
L 445.72212 63.369245 
L 447.357817 62.714338 
L 452.264907 61.319127 
L 453.900604 60.63266 
L 455.536301 59.684352 
L 457.171998 58.522607 
L 460.443392 55.813837 
L 463.714785 53.016408 
L 465.350482 51.743838 
L 466.986179 50.639783 
L 468.621876 49.734032 
L 470.257573 49.00584 
L 471.893269 48.430252 
L 475.164663 47.637064 
L 478.436057 47.154824 
L 483.343147 46.671942 
L 486.614541 46.556491 
L 489.885935 46.72121 
L 493.157328 47.263404 
L 496.428722 48.153531 
L 501.335813 49.603033 
L 504.607206 50.261258 
L 506.242903 50.402937 
L 509.514297 50.323625 
L 512.785691 49.92318 
L 519.328478 48.940782 
L 522.599872 48.749772 
L 524.235568 48.814833 
L 525.871265 49.019517 
L 527.506962 49.388258 
L 529.142659 49.945489 
L 530.778356 50.715645 
L 530.778356 50.715645 
" clip-path="url(#pbdddb9e8bf)" style="fill: none; stroke: #c7738f; stroke-width: 1.5; stroke-linecap: square"/>
   </g>
   <g id="line2d_27">
    <path d="M 41.705 161.975156 
L 43.299627 161.550401 
L 44.894255 160.711339 
L 46.488882 159.507231 
L 48.08351 157.98734 
L 49.678137 156.200925 
L 52.867392 152.025571 
L 57.651274 144.995147 
L 60.840529 140.371315 
L 64.029784 136.257748 
L 65.624411 134.515468 
L 67.219038 133.048537 
L 68.813666 131.890646 
L 70.408293 130.97343 
L 75.192175 128.57068 
L 76.786803 127.520788 
L 78.38143 126.163771 
L 79.976058 124.390047 
L 81.570685 122.108082 
L 83.165312 119.379943 
L 86.354567 113.144537 
L 89.543822 106.805616 
L 91.138449 103.948083 
L 92.733077 101.485565 
L 94.327704 99.546661 
L 95.922332 98.12831 
L 97.516959 97.14453 
L 99.111586 96.508047 
L 100.706214 96.131585 
L 103.895469 95.809625 
L 107.084723 95.482642 
L 108.679351 95.137241 
L 110.273978 94.627958 
L 111.868605 93.930068 
L 113.463233 93.018851 
L 115.05786 91.869583 
L 116.652488 90.457541 
L 118.247115 88.758003 
L 119.841742 86.748185 
L 121.43637 84.44718 
L 124.625625 79.211346 
L 132.598762 65.278088 
L 135.788016 60.48641 
L 138.977271 56.292135 
L 142.166526 52.627117 
L 145.355781 49.423726 
L 146.950408 48.002158 
L 148.545036 46.766511 
L 150.139663 45.779452 
L 151.73429 45.103648 
L 153.328918 44.801767 
L 154.923545 44.936477 
L 156.518173 45.570445 
L 158.1128 46.76608 
L 159.707427 48.559867 
L 161.302055 50.940669 
L 162.896682 53.892233 
L 164.49131 57.39831 
L 166.085937 61.442649 
L 167.680564 66.008999 
L 169.275192 71.08111 
L 170.869819 76.642507 
L 174.059074 88.821851 
L 177.248329 101.023264 
L 178.842956 106.594585 
L 180.437584 111.526231 
L 182.032211 115.603136 
L 183.626838 118.610337 
L 185.221466 120.441979 
L 186.816093 121.308807 
L 188.410721 121.478673 
L 190.005348 121.219424 
L 193.194603 120.484984 
L 194.78923 120.545491 
L 196.383858 121.248282 
L 197.978485 122.770841 
L 199.573112 124.957333 
L 202.762367 130.391421 
L 204.356995 133.173671 
L 205.951622 135.689159 
L 207.546249 137.705213 
L 209.140877 138.989159 
L 210.735504 139.352921 
L 212.330132 138.818277 
L 213.924759 137.468675 
L 215.519386 135.387569 
L 217.114014 132.658416 
L 218.708641 129.364671 
L 220.303269 125.58979 
L 223.492523 116.942032 
L 226.681778 107.769326 
L 228.276406 103.453701 
L 229.871033 99.573181 
L 231.46566 96.31873 
L 233.060288 93.881313 
L 234.654915 92.451895 
L 236.249543 92.192566 
L 237.84417 93.040561 
L 239.438797 94.827656 
L 241.033425 97.385025 
L 242.628052 100.543842 
L 245.817307 107.990505 
L 250.601189 119.550772 
L 253.790444 126.343986 
L 255.385071 129.316178 
L 256.979699 131.94255 
L 258.574326 134.175946 
L 260.168953 135.969208 
L 261.763581 137.277355 
L 263.358208 138.085299 
L 264.952836 138.399694 
L 266.547463 138.227685 
L 268.14209 137.576415 
L 269.736718 136.453028 
L 271.331345 134.864669 
L 272.925973 132.81848 
L 274.5206 130.324714 
L 276.115227 127.453131 
L 279.304482 121.071607 
L 282.493737 114.673633 
L 284.088364 111.781487 
L 285.682992 109.260841 
L 287.277619 107.234085 
L 288.872247 105.744695 
L 290.466874 104.748426 
L 292.061501 104.196449 
L 293.656129 104.039937 
L 295.250756 104.230063 
L 296.845384 104.717999 
L 298.440011 105.454918 
L 300.034638 106.392023 
L 303.223893 108.678741 
L 309.602403 113.626918 
L 311.19703 114.676567 
L 312.791658 115.560702 
L 315.980912 116.859907 
L 320.764795 118.498795 
L 322.359422 119.200611 
L 323.954049 120.079422 
L 325.548677 121.194515 
L 327.143304 122.560906 
L 335.116441 130.141409 
L 336.711069 131.166674 
L 338.305696 131.814908 
L 339.900323 132.050873 
L 341.494951 131.990046 
L 346.278833 131.431736 
L 347.87346 131.588661 
L 349.468088 132.151252 
L 351.062715 133.259993 
L 352.657343 134.992188 
L 354.25197 137.210146 
L 360.63048 147.272028 
L 362.225107 149.168114 
L 363.819734 150.449688 
L 365.414362 150.97867 
L 367.008989 150.813495 
L 368.603617 150.06587 
L 370.198244 148.847503 
L 371.792871 147.270103 
L 374.982126 143.485037 
L 378.171381 139.591175 
L 381.360636 136.072877 
L 384.549891 132.958323 
L 387.739145 130.250441 
L 390.9284 127.951436 
L 394.117655 126.036287 
L 397.30691 124.445102 
L 400.496164 123.115711 
L 405.280047 121.451142 
L 408.469301 120.275501 
L 410.063929 119.558451 
L 411.658556 118.705708 
L 413.253184 117.680122 
L 414.847811 116.444537 
L 416.442438 114.961385 
L 418.037066 113.187926 
L 419.631693 111.077918 
L 421.226321 108.585056 
L 422.820948 105.663034 
L 424.415575 102.265544 
L 426.010203 98.346281 
L 427.60483 93.858938 
L 429.199458 88.764735 
L 432.388712 77.222141 
L 435.577967 65.202972 
L 437.172595 59.516379 
L 438.767222 54.312691 
L 440.361849 49.792591 
L 441.956477 46.150122 
L 443.551104 43.416497 
L 445.145732 41.454247 
L 446.740359 40.118099 
L 448.334986 39.262778 
L 449.929614 38.743011 
L 454.713496 37.74634 
L 456.308123 37.199603 
L 459.497378 35.753674 
L 465.875888 32.565783 
L 467.470515 31.939143 
L 469.065143 31.458091 
L 470.65977 31.157061 
L 472.254397 31.070202 
L 473.849025 31.231659 
L 475.443652 31.67558 
L 477.03828 32.436112 
L 478.632907 33.547401 
L 480.227534 35.043485 
L 481.822162 36.944299 
L 483.416789 39.241869 
L 485.011417 41.924944 
L 486.606044 44.982272 
L 488.200671 48.402601 
L 489.795299 52.17468 
L 491.389926 56.287255 
L 494.579181 65.457893 
L 500.957691 84.76632 
L 502.552318 89.042893 
L 504.146945 92.839758 
L 505.741573 96.027166 
L 507.3362 98.475368 
L 508.930828 100.054619 
L 510.525455 100.635168 
L 512.120082 100.087269 
L 513.71471 98.281174 
L 515.309337 95.087135 
L 516.903965 90.375403 
L 518.498592 84.016232 
L 518.498592 84.016232 
" clip-path="url(#pbdddb9e8bf)" style="fill: none; stroke-dasharray: 5.55,2.4; stroke-dashoffset: 0; stroke: #5d5d5d; stroke-width: 1.5"/>
   </g>
   <g id="patch_4">
    <path d="M 31.705 161.975156 
L 31.705 35.975156 
" style="fill: none; stroke: #cccccc; stroke-width: 0.75; stroke-linejoin: miter; stroke-linecap: square"/>
   </g>
   <g id="patch_5">
    <path d="M 41.705 176.175156 
L 543.905 176.175156 
" style="fill: none; stroke: #cccccc; stroke-width: 0.75; stroke-linejoin: miter; stroke-linecap: square"/>
   </g>
   <g id="legend_1">
    <g id="line2d_28">
     <path d="M 49.805 14.633438 
L 58.805 14.633438 
L 67.805 14.633438 
" style="fill: none; stroke: #c7738f; stroke-width: 1.5; stroke-linecap: square"/>
    </g>
    <g id="text_26">
     <!-- Цена свинины -->
     <g style="fill: #4b4b4b" transform="translate(75.005 17.783438) scale(0.09 -0.09)">
      <defs>
       <path id="Ubuntu-426" d="M 3923 531 
L 4480 531 
L 4480 -1184 
L 3891 -1184 
L 3891 0 
L 550 0 
L 550 4435 
L 1171 4435 
L 1171 531 
L 3302 531 
L 3302 4435 
L 3923 4435 
L 3923 531 
z
" transform="scale(0.015625)"/>
       <path id="Ubuntu-435" d="M 326 1658 
Q 326 2099 454 2428 
Q 582 2758 793 2976 
Q 1005 3194 1280 3302 
Q 1555 3411 1843 3411 
Q 2515 3411 2873 2992 
Q 3232 2573 3232 1715 
Q 3232 1677 3232 1616 
Q 3232 1555 3226 1504 
L 947 1504 
Q 986 986 1248 717 
Q 1510 448 2067 448 
Q 2381 448 2595 502 
Q 2810 557 2918 608 
L 3002 109 
Q 2893 51 2621 -13 
Q 2349 -77 2003 -77 
Q 1568 -77 1251 54 
Q 934 186 729 416 
Q 525 646 425 963 
Q 326 1280 326 1658 
z
M 2611 1984 
Q 2618 2387 2410 2646 
Q 2202 2906 1837 2906 
Q 1632 2906 1475 2826 
Q 1318 2746 1209 2618 
Q 1101 2490 1040 2323 
Q 979 2157 960 1984 
L 2611 1984 
z
" transform="scale(0.015625)"/>
       <path id="Ubuntu-430" d="M 1638 429 
Q 1850 429 2013 438 
Q 2176 448 2285 474 
L 2285 1466 
Q 2221 1498 2077 1520 
Q 1933 1542 1728 1542 
Q 1594 1542 1443 1523 
Q 1293 1504 1168 1443 
Q 1043 1382 960 1276 
Q 877 1171 877 998 
Q 877 678 1081 553 
Q 1286 429 1638 429 
z
M 1587 3411 
Q 1946 3411 2192 3318 
Q 2438 3226 2588 3056 
Q 2739 2886 2803 2652 
Q 2867 2419 2867 2138 
L 2867 58 
Q 2790 45 2652 22 
Q 2515 0 2342 -19 
Q 2170 -38 1968 -54 
Q 1766 -70 1568 -70 
Q 1286 -70 1049 -12 
Q 813 45 640 169 
Q 467 294 371 499 
Q 275 704 275 992 
Q 275 1267 387 1465 
Q 499 1664 691 1785 
Q 883 1907 1139 1964 
Q 1395 2022 1677 2022 
Q 1766 2022 1862 2012 
Q 1958 2003 2044 1987 
Q 2131 1971 2195 1958 
Q 2259 1946 2285 1939 
L 2285 2106 
Q 2285 2253 2253 2397 
Q 2221 2541 2137 2653 
Q 2054 2765 1910 2832 
Q 1766 2899 1536 2899 
Q 1242 2899 1021 2857 
Q 800 2816 691 2771 
L 621 3264 
Q 736 3315 1005 3363 
Q 1274 3411 1587 3411 
z
" transform="scale(0.015625)"/>
       <path id="Ubuntu-20" transform="scale(0.015625)"/>
       <path id="Ubuntu-441" d="M 1958 -77 
Q 1555 -77 1251 51 
Q 947 179 739 409 
Q 531 640 428 957 
Q 326 1274 326 1658 
Q 326 2042 438 2362 
Q 550 2682 755 2915 
Q 960 3149 1257 3280 
Q 1555 3411 1920 3411 
Q 2144 3411 2368 3372 
Q 2592 3334 2797 3251 
L 2662 2746 
Q 2528 2810 2352 2848 
Q 2176 2886 1978 2886 
Q 1478 2886 1212 2572 
Q 947 2259 947 1658 
Q 947 1389 1008 1165 
Q 1069 941 1200 781 
Q 1331 621 1536 534 
Q 1741 448 2035 448 
Q 2272 448 2464 493 
Q 2656 538 2765 589 
L 2848 90 
Q 2797 58 2701 29 
Q 2605 0 2483 -22 
Q 2362 -45 2224 -61 
Q 2086 -77 1958 -77 
z
" transform="scale(0.015625)"/>
       <path id="Ubuntu-438" d="M 3309 3328 
L 3309 0 
L 2733 0 
L 2733 2534 
Q 2541 2291 2310 1964 
Q 2080 1638 1849 1289 
Q 1619 941 1408 601 
Q 1197 262 1043 0 
L 512 0 
L 512 3328 
L 1088 3328 
L 1088 934 
Q 1254 1210 1465 1539 
Q 1677 1869 1904 2192 
Q 2131 2515 2358 2812 
Q 2586 3110 2784 3328 
L 3309 3328 
z
" transform="scale(0.015625)"/>
       <path id="Ubuntu-44b" d="M 1734 1645 
Q 1562 1645 1398 1635 
Q 1235 1626 1107 1594 
L 1107 448 
Q 1146 442 1219 435 
Q 1293 429 1379 425 
Q 1466 422 1555 419 
Q 1645 416 1715 416 
Q 2106 416 2317 563 
Q 2528 710 2528 1037 
Q 2528 1197 2461 1312 
Q 2394 1427 2282 1500 
Q 2170 1574 2029 1609 
Q 1888 1645 1734 1645 
z
M 512 3328 
L 1107 3328 
L 1107 2054 
Q 1216 2080 1424 2105 
Q 1632 2131 1824 2131 
Q 2086 2131 2323 2070 
Q 2560 2010 2739 1878 
Q 2918 1747 3024 1539 
Q 3130 1331 3130 1043 
Q 3130 742 3027 531 
Q 2925 320 2739 185 
Q 2554 51 2291 -9 
Q 2029 -70 1715 -70 
Q 1414 -70 1107 -35 
Q 800 0 512 70 
L 512 3328 
z
M 4339 0 
L 3744 0 
L 3744 3328 
L 4339 3328 
L 4339 0 
z
" transform="scale(0.015625)"/>
      </defs>
      <use xlink:href="#Ubuntu-426"/>
      <use xlink:href="#Ubuntu-435" x="71.799988"/>
      <use xlink:href="#Ubuntu-43d" x="127.699982"/>
      <use xlink:href="#Ubuntu-430" x="186.299973"/>
      <use xlink:href="#Ubuntu-20" x="238.499969"/>
      <use xlink:href="#Ubuntu-441" x="261.59996"/>
      <use xlink:href="#Ubuntu-432" x="308.099945"/>
      <use xlink:href="#Ubuntu-438" x="362.899933"/>
      <use xlink:href="#Ubuntu-43d" x="422.59993"/>
      <use xlink:href="#Ubuntu-438" x="481.199921"/>
      <use xlink:href="#Ubuntu-43d" x="540.899918"/>
      <use xlink:href="#Ubuntu-44b" x="599.499908"/>
     </g>
    </g>
    <g id="line2d_29">
     <path d="M 153.780313 14.633438 
L 162.780313 14.633438 
L 171.780313 14.633438 
" style="fill: none; stroke-dasharray: 5.55,2.4; stroke-dashoffset: 0; stroke: #5d5d5d; stroke-width: 1.5"/>
    </g>
    <g id="text_27">
     <!-- Цена свиней у производителей -->
     <g style="fill: #4b4b4b" transform="translate(178.980312 17.783438) scale(0.09 -0.09)">
      <defs>
       <path id="Ubuntu-439" d="M 3309 3328 
L 3309 0 
L 2733 0 
L 2733 2534 
Q 2541 2291 2310 1964 
Q 2080 1638 1849 1289 
Q 1619 941 1408 601 
Q 1197 262 1043 0 
L 512 0 
L 512 3328 
L 1088 3328 
L 1088 934 
Q 1254 1210 1465 1539 
Q 1677 1869 1904 2192 
Q 2131 2515 2358 2812 
Q 2586 3110 2784 3328 
L 3309 3328 
z
M 1917 3866 
Q 1514 3866 1261 4070 
Q 1008 4275 957 4640 
L 1411 4762 
Q 1462 4557 1584 4429 
Q 1706 4301 1917 4301 
Q 2128 4301 2249 4429 
Q 2371 4557 2422 4762 
L 2870 4640 
Q 2819 4275 2569 4070 
Q 2320 3866 1917 3866 
z
" transform="scale(0.015625)"/>
       <path id="Ubuntu-443" d="M 122 -621 
Q 192 -653 304 -681 
Q 416 -710 525 -710 
Q 877 -710 1075 -553 
Q 1274 -397 1434 -45 
Q 1030 723 681 1584 
Q 333 2445 102 3328 
L 742 3328 
Q 813 3040 912 2707 
Q 1011 2374 1132 2022 
Q 1254 1670 1395 1318 
Q 1536 966 1690 640 
Q 1933 1312 2112 1971 
Q 2291 2630 2451 3328 
L 3066 3328 
Q 2835 2387 2553 1520 
Q 2272 653 1946 -102 
Q 1818 -390 1680 -598 
Q 1542 -806 1376 -940 
Q 1210 -1075 1002 -1139 
Q 794 -1203 531 -1203 
Q 461 -1203 384 -1193 
Q 307 -1184 233 -1168 
Q 160 -1152 99 -1133 
Q 38 -1114 13 -1101 
L 122 -621 
z
" transform="scale(0.015625)"/>
       <path id="Ubuntu-43e" d="M 3450 1664 
Q 3450 1267 3334 947 
Q 3219 627 3011 396 
Q 2803 166 2515 41 
Q 2227 -83 1888 -83 
Q 1549 -83 1261 41 
Q 973 166 765 396 
Q 557 627 441 947 
Q 326 1267 326 1664 
Q 326 2054 441 2377 
Q 557 2701 765 2931 
Q 973 3162 1261 3286 
Q 1549 3411 1888 3411 
Q 2227 3411 2515 3286 
Q 2803 3162 3011 2931 
Q 3219 2701 3334 2377 
Q 3450 2054 3450 1664 
z
M 2829 1664 
Q 2829 2227 2576 2556 
Q 2323 2886 1888 2886 
Q 1453 2886 1200 2556 
Q 947 2227 947 1664 
Q 947 1101 1200 771 
Q 1453 442 1888 442 
Q 2323 442 2576 771 
Q 2829 1101 2829 1664 
z
" transform="scale(0.015625)"/>
       <path id="Ubuntu-437" d="M 1357 3411 
Q 1645 3411 1894 3353 
Q 2144 3296 2323 3181 
Q 2502 3066 2604 2893 
Q 2707 2720 2707 2490 
Q 2707 2342 2656 2220 
Q 2605 2099 2528 2003 
Q 2451 1907 2358 1840 
Q 2266 1773 2182 1747 
Q 2477 1658 2646 1430 
Q 2816 1203 2816 858 
Q 2816 384 2432 153 
Q 2048 -77 1389 -77 
Q 986 -77 694 -13 
Q 403 51 282 109 
L 384 614 
Q 486 576 752 509 
Q 1018 442 1389 442 
Q 1792 442 2003 566 
Q 2214 691 2214 941 
Q 2214 1120 2134 1232 
Q 2054 1344 1932 1401 
Q 1811 1459 1670 1478 
Q 1530 1498 1408 1498 
L 851 1498 
L 851 1971 
L 1389 1971 
Q 1504 1971 1629 1987 
Q 1754 2003 1859 2054 
Q 1965 2106 2035 2198 
Q 2106 2291 2106 2445 
Q 2106 2566 2045 2652 
Q 1984 2739 1881 2796 
Q 1779 2854 1641 2883 
Q 1504 2912 1357 2912 
Q 1242 2912 1107 2893 
Q 973 2874 845 2845 
Q 717 2816 614 2784 
Q 512 2752 467 2726 
L 358 3238 
Q 410 3258 518 3290 
Q 627 3322 764 3347 
Q 902 3373 1056 3392 
Q 1210 3411 1357 3411 
z
" transform="scale(0.015625)"/>
       <path id="Ubuntu-434" d="M 102 486 
L 461 486 
Q 672 794 797 1120 
Q 922 1446 986 1795 
Q 1050 2144 1069 2525 
Q 1088 2906 1094 3328 
L 3277 3328 
L 3277 486 
L 3725 486 
L 3725 -928 
L 3162 -928 
L 3162 0 
L 666 0 
L 666 -928 
L 102 -928 
L 102 486 
z
M 2682 486 
L 2682 2829 
L 1638 2829 
Q 1632 2528 1606 2224 
Q 1581 1920 1523 1622 
Q 1466 1325 1360 1040 
Q 1254 755 1094 486 
L 2682 486 
z
" transform="scale(0.015625)"/>
      </defs>
      <use xlink:href="#Ubuntu-426"/>
      <use xlink:href="#Ubuntu-435" x="71.799988"/>
      <use xlink:href="#Ubuntu-43d" x="127.699982"/>
      <use xlink:href="#Ubuntu-430" x="186.299973"/>
      <use xlink:href="#Ubuntu-20" x="238.499969"/>
      <use xlink:href="#Ubuntu-441" x="261.59996"/>
      <use xlink:href="#Ubuntu-432" x="308.099945"/>
      <use xlink:href="#Ubuntu-438" x="362.899933"/>
      <use xlink:href="#Ubuntu-43d" x="422.59993"/>
      <use xlink:href="#Ubuntu-435" x="481.199921"/>
      <use xlink:href="#Ubuntu-439" x="537.099915"/>
      <use xlink:href="#Ubuntu-20" x="596.799911"/>
      <use xlink:href="#Ubuntu-443" x="619.899902"/>
      <use xlink:href="#Ubuntu-20" x="669.599899"/>
      <use xlink:href="#Ubuntu-43f" x="692.69989"/>
      <use xlink:href="#Ubuntu-440" x="750.499878"/>
      <use xlink:href="#Ubuntu-43e" x="809.399872"/>
      <use xlink:href="#Ubuntu-438" x="868.399857"/>
      <use xlink:href="#Ubuntu-437" x="928.099854"/>
      <use xlink:href="#Ubuntu-432" x="976.999847"/>
      <use xlink:href="#Ubuntu-43e" x="1031.799835"/>
      <use xlink:href="#Ubuntu-434" x="1090.79982"/>
      <use xlink:href="#Ubuntu-438" x="1151.099808"/>
      <use xlink:href="#Ubuntu-442" x="1210.799805"/>
      <use xlink:href="#Ubuntu-435" x="1257.099792"/>
      <use xlink:href="#Ubuntu-43b" x="1312.999786"/>
      <use xlink:href="#Ubuntu-435" x="1372.799774"/>
      <use xlink:href="#Ubuntu-439" x="1428.699768"/>
     </g>
    </g>
   </g>
   <g id="line2d_30">
    <path d="M 54.26 161.975156 
L 531.35 161.975156 
" clip-path="url(#pbdddb9e8bf)" style="fill: none; stroke-dasharray: 2.775,1.2; stroke-dashoffset: 0; stroke: #c5c5c5; stroke-width: 0.75"/>
   </g>
  </g>
 </g>
 <defs>
  <clipPath id="p5cbc301b19">
   <rect x="41.705" y="166.175156" width="502.2" height="0"/>
  </clipPath>
  <clipPath id="pbdddb9e8bf">
   <rect x="41.705" y="27.575156" width="502.2" height="138.6"/>
  </clipPath>
 </defs>
</svg>
