<?xml version="1.0" encoding="utf-8" standalone="no"?>
<!DOCTYPE svg PUBLIC "-//W3C//DTD SVG 1.1//EN"
  "http://www.w3.org/Graphics/SVG/1.1/DTD/svg11.dtd">
<svg xmlns:xlink="http://www.w3.org/1999/xlink" width="553.9125pt" height="249.994375pt" viewBox="0 0 553.9125 249.994375" xmlns="http://www.w3.org/2000/svg" version="1.1">
 <metadata>
  <rdf:RDF xmlns:dc="http://purl.org/dc/elements/1.1/" xmlns:cc="http://creativecommons.org/ns#" xmlns:rdf="http://www.w3.org/1999/02/22-rdf-syntax-ns#">
   <cc:Work>
    <dc:type rdf:resource="http://purl.org/dc/dcmitype/StillImage"/>
    <dc:date>2024-04-19T20:18:43.160398</dc:date>
    <dc:format>image/svg+xml</dc:format>
    <dc:creator>
     <cc:Agent>
      <dc:title>Matplotlib v3.8.0, https://matplotlib.org/</dc:title>
     </cc:Agent>
    </dc:creator>
   </cc:Work>
  </rdf:RDF>
 </metadata>
 <defs>
  <style type="text/css">*{stroke-linejoin: round; stroke-linecap: butt}</style>
 </defs>
 <g id="figure_1">
  <g id="patch_1">
   <path d="M 0 249.994375 
L 553.9125 249.994375 
L 553.9125 0 
L 0 0 
L 0 249.994375 
z
" style="fill: none"/>
  </g>
  <g id="axes_1">
   <g id="patch_2">
    <path d="M 37.1925 207.106875 
L 539.3925 207.106875 
L 539.3925 40.786875 
L 37.1925 40.786875 
L 37.1925 207.106875 
z
" style="fill: none"/>
   </g>
   <g id="axes_2">
    <g id="patch_3">
     <path d="M 37.1925 207.106875 
L 539.3925 207.106875 
L 539.3925 207.106875 
L 37.1925 207.106875 
L 37.1925 207.106875 
z
" style="fill: none"/>
    </g>
    <g id="matplotlib.axis_1">
     <g id="xtick_1">
      <g id="line2d_1">
       <path d="M 37.1925 207.106875 
L 37.1925 207.106875 
" clip-path="url(#pbc0e635e81)" style="fill: none; stroke-dasharray: 0.5,0.825; stroke-dashoffset: 0; stroke: #d9d9d9; stroke-width: 0.5"/>
      </g>
      <g id="text_1">
       <!-- 2021 -->
       <g style="fill: #808080" transform="translate(28.1675 241.314375) scale(0.08 -0.08)">
        <defs>
         <path id="Ubuntu-32" d="M 2989 3302 
Q 2989 3072 2896 2857 
Q 2803 2643 2649 2435 
Q 2496 2227 2304 2025 
Q 2112 1824 1920 1632 
Q 1811 1523 1667 1376 
Q 1523 1229 1395 1069 
Q 1267 909 1180 761 
Q 1094 614 1094 506 
L 3136 506 
L 3136 0 
L 448 0 
Q 442 38 442 76 
Q 442 115 442 147 
Q 442 448 541 707 
Q 640 966 800 1196 
Q 960 1427 1158 1632 
Q 1357 1837 1549 2029 
Q 1709 2182 1853 2332 
Q 1997 2483 2109 2633 
Q 2221 2784 2288 2944 
Q 2355 3104 2355 3283 
Q 2355 3475 2294 3609 
Q 2234 3744 2131 3833 
Q 2029 3923 1891 3964 
Q 1754 4006 1600 4006 
Q 1414 4006 1260 3955 
Q 1107 3904 985 3837 
Q 864 3770 781 3696 
Q 698 3622 653 3584 
L 358 4006 
Q 416 4070 531 4163 
Q 646 4256 806 4339 
Q 966 4422 1164 4480 
Q 1363 4538 1594 4538 
Q 2291 4538 2640 4214 
Q 2989 3891 2989 3302 
z
" transform="scale(0.015625)"/>
         <path id="Ubuntu-30" d="M 320 2221 
Q 320 3334 713 3936 
Q 1107 4538 1805 4538 
Q 2502 4538 2896 3936 
Q 3290 3334 3290 2221 
Q 3290 1107 2896 505 
Q 2502 -96 1805 -96 
Q 1107 -96 713 505 
Q 320 1107 320 2221 
z
M 2662 2221 
Q 2662 2586 2620 2912 
Q 2579 3238 2480 3481 
Q 2381 3725 2214 3869 
Q 2048 4013 1805 4013 
Q 1562 4013 1395 3869 
Q 1229 3725 1129 3481 
Q 1030 3238 988 2912 
Q 947 2586 947 2221 
Q 947 1856 988 1529 
Q 1030 1203 1129 960 
Q 1229 717 1395 573 
Q 1562 429 1805 429 
Q 2048 429 2214 573 
Q 2381 717 2480 960 
Q 2579 1203 2620 1529 
Q 2662 1856 2662 2221 
z
" transform="scale(0.015625)"/>
         <path id="Ubuntu-31" d="M 595 3520 
Q 960 3661 1305 3881 
Q 1651 4102 1939 4435 
L 2362 4435 
L 2362 0 
L 1766 0 
L 1766 3610 
Q 1690 3539 1578 3462 
Q 1466 3386 1334 3315 
Q 1203 3245 1059 3181 
Q 915 3117 781 3072 
L 595 3520 
z
" transform="scale(0.015625)"/>
        </defs>
        <use xlink:href="#Ubuntu-32"/>
        <use xlink:href="#Ubuntu-30" x="56.399994"/>
        <use xlink:href="#Ubuntu-32" x="112.799988"/>
        <use xlink:href="#Ubuntu-31" x="169.199982"/>
       </g>
      </g>
     </g>
     <g id="xtick_2">
      <g id="line2d_2">
       <path d="M 191.748149 207.106875 
L 191.748149 207.106875 
" clip-path="url(#pbc0e635e81)" style="fill: none; stroke-dasharray: 0.5,0.825; stroke-dashoffset: 0; stroke: #d9d9d9; stroke-width: 0.5"/>
      </g>
      <g id="text_2">
       <!-- 2022 -->
       <g style="fill: #808080" transform="translate(182.723149 241.314375) scale(0.08 -0.08)">
        <use xlink:href="#Ubuntu-32"/>
        <use xlink:href="#Ubuntu-30" x="56.399994"/>
        <use xlink:href="#Ubuntu-32" x="112.799988"/>
        <use xlink:href="#Ubuntu-32" x="169.199982"/>
       </g>
      </g>
     </g>
     <g id="xtick_3">
      <g id="line2d_3">
       <path d="M 346.303798 207.106875 
L 346.303798 207.106875 
" clip-path="url(#pbc0e635e81)" style="fill: none; stroke-dasharray: 0.5,0.825; stroke-dashoffset: 0; stroke: #d9d9d9; stroke-width: 0.5"/>
      </g>
      <g id="text_3">
       <!-- 2023 -->
       <g style="fill: #808080" transform="translate(337.278798 241.314375) scale(0.08 -0.08)">
        <defs>
         <path id="Ubuntu-33" d="M 1446 435 
Q 2016 435 2262 659 
Q 2509 883 2509 1261 
Q 2509 1504 2406 1670 
Q 2304 1837 2137 1936 
Q 1971 2035 1750 2076 
Q 1530 2118 1299 2118 
L 1146 2118 
L 1146 2605 
L 1357 2605 
Q 1517 2605 1686 2637 
Q 1856 2669 1997 2752 
Q 2138 2835 2227 2979 
Q 2317 3123 2317 3341 
Q 2317 3520 2253 3648 
Q 2189 3776 2083 3859 
Q 1978 3942 1840 3977 
Q 1702 4013 1549 4013 
Q 1242 4013 1027 3923 
Q 813 3834 666 3738 
L 435 4192 
Q 512 4243 630 4304 
Q 749 4365 896 4416 
Q 1043 4467 1212 4502 
Q 1382 4538 1568 4538 
Q 1920 4538 2176 4451 
Q 2432 4365 2598 4208 
Q 2765 4051 2848 3836 
Q 2931 3622 2931 3373 
Q 2931 3027 2732 2780 
Q 2534 2534 2253 2406 
Q 2426 2355 2586 2259 
Q 2746 2163 2864 2016 
Q 2982 1869 3056 1677 
Q 3130 1485 3130 1248 
Q 3130 960 3030 713 
Q 2931 467 2723 288 
Q 2515 109 2201 6 
Q 1888 -96 1459 -96 
Q 1293 -96 1117 -70 
Q 941 -45 787 -6 
Q 634 32 518 70 
Q 403 109 352 134 
L 467 653 
Q 576 602 829 518 
Q 1082 435 1446 435 
z
" transform="scale(0.015625)"/>
        </defs>
        <use xlink:href="#Ubuntu-32"/>
        <use xlink:href="#Ubuntu-30" x="56.399994"/>
        <use xlink:href="#Ubuntu-32" x="112.799988"/>
        <use xlink:href="#Ubuntu-33" x="169.199982"/>
       </g>
      </g>
     </g>
     <g id="xtick_4">
      <g id="line2d_4">
       <path d="M 500.859448 207.106875 
L 500.859448 207.106875 
" clip-path="url(#pbc0e635e81)" style="fill: none; stroke-dasharray: 0.5,0.825; stroke-dashoffset: 0; stroke: #d9d9d9; stroke-width: 0.5"/>
      </g>
      <g id="text_4">
       <!-- 2024 -->
       <g style="fill: #808080" transform="translate(491.834448 241.314375) scale(0.08 -0.08)">
        <defs>
         <path id="Ubuntu-34" d="M 256 1536 
Q 378 1818 589 2192 
Q 800 2566 1065 2963 
Q 1331 3360 1635 3744 
Q 1939 4128 2246 4435 
L 2816 4435 
L 2816 1619 
L 3341 1619 
L 3341 1133 
L 2816 1133 
L 2816 0 
L 2240 0 
L 2240 1133 
L 256 1133 
L 256 1536 
z
M 2240 3731 
Q 2048 3526 1853 3273 
Q 1658 3021 1472 2745 
Q 1286 2470 1123 2182 
Q 960 1894 832 1619 
L 2240 1619 
L 2240 3731 
z
" transform="scale(0.015625)"/>
        </defs>
        <use xlink:href="#Ubuntu-32"/>
        <use xlink:href="#Ubuntu-30" x="56.399994"/>
        <use xlink:href="#Ubuntu-32" x="112.799988"/>
        <use xlink:href="#Ubuntu-34" x="169.199982"/>
       </g>
      </g>
     </g>
    </g>
    <g id="matplotlib.axis_2"/>
   </g>
   <g id="matplotlib.axis_3">
    <g id="xtick_5">
     <g id="line2d_5">
      <defs>
       <path id="mf9d4a75553" d="M 0 0 
L 0 3 
" style="stroke: #aaaaaa; stroke-width: 0.75"/>
      </defs>
      <g>
       <use xlink:href="#mf9d4a75553" x="37.1925" y="217.106875" style="fill: #aaaaaa; stroke: #aaaaaa; stroke-width: 0.75"/>
      </g>
     </g>
     <g id="text_5">
      <!-- Янв -->
      <g style="fill: #808080" transform="translate(30.116875 232.314375) scale(0.08 -0.08)">
       <defs>
        <path id="Ubuntu-42f" d="M 2272 3936 
Q 2029 3936 1808 3897 
Q 1587 3859 1414 3763 
Q 1242 3667 1139 3500 
Q 1037 3334 1037 3085 
Q 1037 2611 1341 2428 
Q 1645 2246 2253 2246 
L 2893 2246 
L 2893 3917 
Q 2822 3917 2726 3923 
Q 2643 3930 2531 3933 
Q 2419 3936 2272 3936 
z
M 2323 4480 
Q 2458 4480 2611 4473 
Q 2765 4467 2921 4454 
Q 3078 4442 3232 4422 
Q 3386 4403 3514 4371 
L 3514 0 
L 2893 0 
L 2893 1734 
L 2362 1734 
Q 2272 1734 2173 1737 
Q 2074 1741 1907 1760 
Q 1792 1606 1657 1401 
Q 1523 1197 1388 966 
Q 1254 736 1123 486 
Q 992 237 883 0 
L 230 0 
Q 333 250 473 518 
Q 614 787 764 1030 
Q 915 1274 1052 1482 
Q 1190 1690 1293 1824 
Q 1146 1869 986 1952 
Q 826 2035 691 2182 
Q 557 2330 470 2550 
Q 384 2771 384 3078 
Q 384 3424 518 3686 
Q 653 3949 905 4125 
Q 1158 4301 1516 4390 
Q 1875 4480 2323 4480 
z
" transform="scale(0.015625)"/>
        <path id="Ubuntu-43d" d="M 3238 0 
L 2643 0 
L 2643 1472 
L 1107 1472 
L 1107 0 
L 512 0 
L 512 3328 
L 1107 3328 
L 1107 1971 
L 2643 1971 
L 2643 3328 
L 3238 3328 
L 3238 0 
z
" transform="scale(0.015625)"/>
        <path id="Ubuntu-432" d="M 1094 448 
Q 1133 442 1203 435 
Q 1274 429 1363 425 
Q 1453 422 1552 419 
Q 1651 416 1741 416 
Q 1926 416 2096 441 
Q 2266 467 2390 531 
Q 2515 595 2588 700 
Q 2662 806 2662 973 
Q 2662 1133 2595 1238 
Q 2528 1344 2413 1408 
Q 2298 1472 2141 1497 
Q 1984 1523 1805 1523 
L 1094 1523 
L 1094 448 
z
M 1728 1965 
Q 1901 1965 2045 1987 
Q 2189 2010 2294 2067 
Q 2400 2125 2461 2221 
Q 2522 2317 2522 2464 
Q 2522 2618 2445 2707 
Q 2368 2797 2243 2845 
Q 2118 2893 1961 2909 
Q 1805 2925 1645 2925 
Q 1498 2925 1347 2918 
Q 1197 2912 1094 2906 
L 1094 1965 
L 1728 1965 
z
M 1715 -58 
Q 1338 -58 1018 -22 
Q 698 13 512 58 
L 512 3296 
Q 698 3341 1018 3376 
Q 1338 3411 1715 3411 
Q 1978 3411 2227 3366 
Q 2477 3322 2669 3216 
Q 2861 3110 2979 2928 
Q 3098 2746 3098 2477 
Q 3098 2234 2976 2061 
Q 2854 1888 2650 1792 
Q 2925 1696 3088 1507 
Q 3251 1318 3251 979 
Q 3251 678 3132 480 
Q 3014 282 2806 160 
Q 2598 38 2316 -10 
Q 2035 -58 1715 -58 
z
" transform="scale(0.015625)"/>
       </defs>
       <use xlink:href="#Ubuntu-42f"/>
       <use xlink:href="#Ubuntu-43d" x="63.499985"/>
       <use xlink:href="#Ubuntu-432" x="122.099976"/>
      </g>
     </g>
    </g>
    <g id="xtick_6">
     <g id="line2d_6">
      <g>
       <use xlink:href="#mf9d4a75553" x="75.302112" y="217.106875" style="fill: #aaaaaa; stroke: #aaaaaa; stroke-width: 0.75"/>
      </g>
     </g>
     <g id="text_6">
      <!-- Апр -->
      <g style="fill: #808080" transform="translate(67.982112 232.314375) scale(0.08 -0.08)">
       <defs>
        <path id="Ubuntu-410" d="M 3514 0 
Q 3405 288 3309 566 
Q 3213 845 3110 1133 
L 1101 1133 
L 698 0 
L 51 0 
Q 307 704 531 1302 
Q 755 1901 969 2438 
Q 1184 2976 1395 3465 
Q 1606 3955 1837 4435 
L 2406 4435 
Q 2637 3955 2848 3465 
Q 3059 2976 3273 2438 
Q 3488 1901 3712 1302 
Q 3936 704 4192 0 
L 3514 0 
z
M 2931 1645 
Q 2726 2202 2524 2723 
Q 2323 3245 2106 3725 
Q 1882 3245 1680 2723 
Q 1478 2202 1280 1645 
L 2931 1645 
z
" transform="scale(0.015625)"/>
        <path id="Ubuntu-43f" d="M 3187 0 
L 2592 0 
L 2592 2829 
L 1107 2829 
L 1107 0 
L 512 0 
L 512 3328 
L 3187 3328 
L 3187 0 
z
" transform="scale(0.015625)"/>
        <path id="Ubuntu-440" d="M 2822 1658 
Q 2822 2240 2534 2553 
Q 2246 2867 1766 2867 
Q 1498 2867 1347 2848 
Q 1197 2829 1107 2803 
L 1107 704 
Q 1216 614 1421 531 
Q 1626 448 1869 448 
Q 2125 448 2307 541 
Q 2490 634 2605 797 
Q 2720 960 2771 1181 
Q 2822 1402 2822 1658 
z
M 3443 1658 
Q 3443 1280 3344 960 
Q 3245 640 3053 409 
Q 2861 179 2582 51 
Q 2304 -77 1946 -77 
Q 1658 -77 1437 0 
Q 1216 77 1107 147 
L 1107 -1184 
L 512 -1184 
L 512 3226 
Q 723 3277 1040 3337 
Q 1357 3398 1773 3398 
Q 2157 3398 2464 3276 
Q 2771 3155 2988 2931 
Q 3206 2707 3324 2384 
Q 3443 2061 3443 1658 
z
" transform="scale(0.015625)"/>
       </defs>
       <use xlink:href="#Ubuntu-410"/>
       <use xlink:href="#Ubuntu-43f" x="66.299988"/>
       <use xlink:href="#Ubuntu-440" x="124.099976"/>
      </g>
     </g>
    </g>
    <g id="xtick_7">
     <g id="line2d_7">
      <g>
       <use xlink:href="#mf9d4a75553" x="113.835164" y="217.106875" style="fill: #aaaaaa; stroke: #aaaaaa; stroke-width: 0.75"/>
      </g>
     </g>
     <g id="text_7">
      <!-- Июл -->
      <g style="fill: #808080" transform="translate(105.287664 232.314375) scale(0.08 -0.08)">
       <defs>
        <path id="Ubuntu-418" d="M 550 0 
L 550 4435 
L 1158 4435 
L 1158 1152 
Q 1363 1491 1660 1926 
Q 1958 2362 2294 2813 
Q 2630 3264 2972 3689 
Q 3315 4115 3616 4435 
L 4109 4435 
L 4109 0 
L 3501 0 
L 3501 3462 
Q 3322 3258 3110 2989 
Q 2899 2720 2675 2416 
Q 2451 2112 2224 1785 
Q 1997 1459 1785 1142 
Q 1574 826 1392 531 
Q 1210 237 1069 0 
L 550 0 
z
" transform="scale(0.015625)"/>
        <path id="Ubuntu-44e" d="M 1107 1952 
L 1837 1952 
Q 1875 2285 2006 2553 
Q 2138 2822 2336 3014 
Q 2534 3206 2790 3308 
Q 3046 3411 3341 3411 
Q 3667 3411 3945 3286 
Q 4224 3162 4429 2931 
Q 4634 2701 4749 2377 
Q 4864 2054 4864 1664 
Q 4864 1267 4749 947 
Q 4634 627 4429 396 
Q 4224 166 3945 41 
Q 3667 -83 3341 -83 
Q 3034 -83 2768 29 
Q 2502 141 2304 342 
Q 2106 544 1981 832 
Q 1856 1120 1830 1472 
L 1107 1472 
L 1107 0 
L 512 0 
L 512 3328 
L 1107 3328 
L 1107 1952 
z
M 4250 1664 
Q 4250 2227 4003 2556 
Q 3757 2886 3341 2886 
Q 2925 2886 2678 2556 
Q 2432 2227 2432 1664 
Q 2432 1101 2678 771 
Q 2925 442 3341 442 
Q 3757 442 4003 771 
Q 4250 1101 4250 1664 
z
" transform="scale(0.015625)"/>
        <path id="Ubuntu-43b" d="M 1670 2829 
Q 1670 2618 1660 2378 
Q 1651 2138 1625 1898 
Q 1600 1658 1555 1424 
Q 1510 1190 1440 986 
Q 1370 781 1264 601 
Q 1158 422 1004 284 
Q 851 147 646 54 
Q 442 -38 166 -64 
L 83 435 
Q 397 499 579 672 
Q 762 845 870 1094 
Q 966 1312 1011 1587 
Q 1056 1862 1075 2160 
Q 1094 2458 1097 2758 
Q 1101 3059 1101 3328 
L 3315 3328 
L 3315 0 
L 2720 0 
L 2720 2829 
L 1670 2829 
z
" transform="scale(0.015625)"/>
       </defs>
       <use xlink:href="#Ubuntu-418"/>
       <use xlink:href="#Ubuntu-44e" x="72.799988"/>
       <use xlink:href="#Ubuntu-43b" x="153.899979"/>
      </g>
     </g>
    </g>
    <g id="xtick_8">
     <g id="line2d_8">
      <g>
       <use xlink:href="#mf9d4a75553" x="152.791657" y="217.106875" style="fill: #aaaaaa; stroke: #aaaaaa; stroke-width: 0.75"/>
      </g>
     </g>
     <g id="text_8">
      <!-- Окт -->
      <g style="fill: #808080" transform="translate(145.679782 232.314375) scale(0.08 -0.08)">
       <defs>
        <path id="Ubuntu-41e" d="M 371 2221 
Q 371 2790 540 3225 
Q 710 3661 1001 3952 
Q 1293 4243 1680 4390 
Q 2067 4538 2502 4538 
Q 2931 4538 3312 4390 
Q 3693 4243 3981 3952 
Q 4269 3661 4438 3225 
Q 4608 2790 4608 2221 
Q 4608 1651 4438 1216 
Q 4269 781 3981 489 
Q 3693 198 3312 51 
Q 2931 -96 2502 -96 
Q 2067 -96 1680 51 
Q 1293 198 1001 489 
Q 710 781 540 1216 
Q 371 1651 371 2221 
z
M 1024 2221 
Q 1024 1818 1126 1488 
Q 1229 1158 1417 928 
Q 1606 698 1878 573 
Q 2150 448 2490 448 
Q 2829 448 3097 573 
Q 3366 698 3555 928 
Q 3744 1158 3846 1488 
Q 3949 1818 3949 2221 
Q 3949 2624 3846 2953 
Q 3744 3283 3555 3513 
Q 3366 3744 3097 3869 
Q 2829 3994 2490 3994 
Q 2150 3994 1878 3869 
Q 1606 3744 1417 3513 
Q 1229 3283 1126 2953 
Q 1024 2624 1024 2221 
z
" transform="scale(0.015625)"/>
        <path id="Ubuntu-43a" d="M 1728 1811 
Q 1926 1670 2156 1456 
Q 2387 1242 2608 992 
Q 2829 742 3021 483 
Q 3213 224 3347 0 
L 2643 0 
Q 2502 218 2313 445 
Q 2125 672 1920 883 
Q 1715 1094 1504 1273 
Q 1293 1453 1107 1574 
L 1107 0 
L 512 0 
L 512 3328 
L 1107 3328 
L 1107 1901 
Q 1261 2048 1459 2243 
Q 1658 2438 1859 2640 
Q 2061 2842 2233 3024 
Q 2406 3206 2515 3328 
L 3206 3328 
Q 3066 3174 2877 2979 
Q 2688 2784 2486 2579 
Q 2285 2374 2086 2172 
Q 1888 1971 1728 1811 
z
" transform="scale(0.015625)"/>
        <path id="Ubuntu-442" d="M 2861 3328 
L 2861 2829 
L 1779 2829 
L 1779 0 
L 1184 0 
L 1184 2829 
L 102 2829 
L 102 3328 
L 2861 3328 
z
" transform="scale(0.015625)"/>
       </defs>
       <use xlink:href="#Ubuntu-41e"/>
       <use xlink:href="#Ubuntu-43a" x="77.799988"/>
       <use xlink:href="#Ubuntu-442" x="131.499985"/>
      </g>
     </g>
    </g>
    <g id="xtick_9">
     <g id="line2d_9">
      <g>
       <use xlink:href="#mf9d4a75553" x="191.748149" y="217.106875" style="fill: #aaaaaa; stroke: #aaaaaa; stroke-width: 0.75"/>
      </g>
     </g>
     <g id="text_9">
      <!-- Янв -->
      <g style="fill: #808080" transform="translate(184.672524 232.314375) scale(0.08 -0.08)">
       <use xlink:href="#Ubuntu-42f"/>
       <use xlink:href="#Ubuntu-43d" x="63.499985"/>
       <use xlink:href="#Ubuntu-432" x="122.099976"/>
      </g>
     </g>
    </g>
    <g id="xtick_10">
     <g id="line2d_10">
      <g>
       <use xlink:href="#mf9d4a75553" x="229.857761" y="217.106875" style="fill: #aaaaaa; stroke: #aaaaaa; stroke-width: 0.75"/>
      </g>
     </g>
     <g id="text_10">
      <!-- Апр -->
      <g style="fill: #808080" transform="translate(222.537761 232.314375) scale(0.08 -0.08)">
       <use xlink:href="#Ubuntu-410"/>
       <use xlink:href="#Ubuntu-43f" x="66.299988"/>
       <use xlink:href="#Ubuntu-440" x="124.099976"/>
      </g>
     </g>
    </g>
    <g id="xtick_11">
     <g id="line2d_11">
      <g>
       <use xlink:href="#mf9d4a75553" x="268.390814" y="217.106875" style="fill: #aaaaaa; stroke: #aaaaaa; stroke-width: 0.75"/>
      </g>
     </g>
     <g id="text_11">
      <!-- Июл -->
      <g style="fill: #808080" transform="translate(259.843314 232.314375) scale(0.08 -0.08)">
       <use xlink:href="#Ubuntu-418"/>
       <use xlink:href="#Ubuntu-44e" x="72.799988"/>
       <use xlink:href="#Ubuntu-43b" x="153.899979"/>
      </g>
     </g>
    </g>
    <g id="xtick_12">
     <g id="line2d_12">
      <g>
       <use xlink:href="#mf9d4a75553" x="307.347306" y="217.106875" style="fill: #aaaaaa; stroke: #aaaaaa; stroke-width: 0.75"/>
      </g>
     </g>
     <g id="text_12">
      <!-- Окт -->
      <g style="fill: #808080" transform="translate(300.235431 232.314375) scale(0.08 -0.08)">
       <use xlink:href="#Ubuntu-41e"/>
       <use xlink:href="#Ubuntu-43a" x="77.799988"/>
       <use xlink:href="#Ubuntu-442" x="131.499985"/>
      </g>
     </g>
    </g>
    <g id="xtick_13">
     <g id="line2d_13">
      <g>
       <use xlink:href="#mf9d4a75553" x="346.303798" y="217.106875" style="fill: #aaaaaa; stroke: #aaaaaa; stroke-width: 0.75"/>
      </g>
     </g>
     <g id="text_13">
      <!-- Янв -->
      <g style="fill: #808080" transform="translate(339.228173 232.314375) scale(0.08 -0.08)">
       <use xlink:href="#Ubuntu-42f"/>
       <use xlink:href="#Ubuntu-43d" x="63.499985"/>
       <use xlink:href="#Ubuntu-432" x="122.099976"/>
      </g>
     </g>
    </g>
    <g id="xtick_14">
     <g id="line2d_14">
      <g>
       <use xlink:href="#mf9d4a75553" x="384.413411" y="217.106875" style="fill: #aaaaaa; stroke: #aaaaaa; stroke-width: 0.75"/>
      </g>
     </g>
     <g id="text_14">
      <!-- Апр -->
      <g style="fill: #808080" transform="translate(377.093411 232.314375) scale(0.08 -0.08)">
       <use xlink:href="#Ubuntu-410"/>
       <use xlink:href="#Ubuntu-43f" x="66.299988"/>
       <use xlink:href="#Ubuntu-440" x="124.099976"/>
      </g>
     </g>
    </g>
    <g id="xtick_15">
     <g id="line2d_15">
      <g>
       <use xlink:href="#mf9d4a75553" x="422.946463" y="217.106875" style="fill: #aaaaaa; stroke: #aaaaaa; stroke-width: 0.75"/>
      </g>
     </g>
     <g id="text_15">
      <!-- Июл -->
      <g style="fill: #808080" transform="translate(414.398963 232.314375) scale(0.08 -0.08)">
       <use xlink:href="#Ubuntu-418"/>
       <use xlink:href="#Ubuntu-44e" x="72.799988"/>
       <use xlink:href="#Ubuntu-43b" x="153.899979"/>
      </g>
     </g>
    </g>
    <g id="xtick_16">
     <g id="line2d_16">
      <g>
       <use xlink:href="#mf9d4a75553" x="461.902955" y="217.106875" style="fill: #aaaaaa; stroke: #aaaaaa; stroke-width: 0.75"/>
      </g>
     </g>
     <g id="text_16">
      <!-- Окт -->
      <g style="fill: #808080" transform="translate(454.79108 232.314375) scale(0.08 -0.08)">
       <use xlink:href="#Ubuntu-41e"/>
       <use xlink:href="#Ubuntu-43a" x="77.799988"/>
       <use xlink:href="#Ubuntu-442" x="131.499985"/>
      </g>
     </g>
    </g>
    <g id="xtick_17">
     <g id="line2d_17">
      <g>
       <use xlink:href="#mf9d4a75553" x="500.859448" y="217.106875" style="fill: #aaaaaa; stroke: #aaaaaa; stroke-width: 0.75"/>
      </g>
     </g>
     <g id="text_17">
      <!-- Янв -->
      <g style="fill: #808080" transform="translate(493.783823 232.314375) scale(0.08 -0.08)">
       <use xlink:href="#Ubuntu-42f"/>
       <use xlink:href="#Ubuntu-43d" x="63.499985"/>
       <use xlink:href="#Ubuntu-432" x="122.099976"/>
      </g>
     </g>
    </g>
    <g id="xtick_18">
     <g id="line2d_18">
      <g>
       <use xlink:href="#mf9d4a75553" x="539.3925" y="217.106875" style="fill: #aaaaaa; stroke: #aaaaaa; stroke-width: 0.75"/>
      </g>
     </g>
     <g id="text_18">
      <!-- Апр -->
      <g style="fill: #808080" transform="translate(532.0725 232.314375) scale(0.08 -0.08)">
       <use xlink:href="#Ubuntu-410"/>
       <use xlink:href="#Ubuntu-43f" x="66.299988"/>
       <use xlink:href="#Ubuntu-440" x="124.099976"/>
      </g>
     </g>
    </g>
   </g>
   <g id="matplotlib.axis_4">
    <g id="ytick_1">
     <g id="line2d_19">
      <defs>
       <path id="mda26a59e90" d="M 0 0 
L -3 0 
" style="stroke: #aaaaaa; stroke-width: 0.75"/>
      </defs>
      <g>
       <use xlink:href="#mda26a59e90" x="27.1925" y="207.106875" style="fill: #aaaaaa; stroke: #aaaaaa; stroke-width: 0.75"/>
      </g>
     </g>
     <g id="text_19">
      <!-- 0.0 -->
      <g style="fill: #808080" transform="translate(7.2 210.210625) scale(0.08 -0.08)">
       <defs>
        <path id="Ubuntu-2e" d="M 1216 346 
Q 1216 173 1101 45 
Q 986 -83 787 -83 
Q 589 -83 473 45 
Q 358 173 358 346 
Q 358 518 473 646 
Q 589 774 787 774 
Q 986 774 1101 646 
Q 1216 518 1216 346 
z
" transform="scale(0.015625)"/>
       </defs>
       <use xlink:href="#Ubuntu-30"/>
       <use xlink:href="#Ubuntu-2e" x="56.399994"/>
       <use xlink:href="#Ubuntu-30" x="80.999985"/>
      </g>
     </g>
    </g>
    <g id="ytick_2">
     <g id="line2d_20">
      <g>
       <use xlink:href="#mda26a59e90" x="27.1925" y="179.386875" style="fill: #aaaaaa; stroke: #aaaaaa; stroke-width: 0.75"/>
      </g>
     </g>
     <g id="text_20">
      <!-- 0.5 -->
      <g style="fill: #808080" transform="translate(7.2 182.490625) scale(0.08 -0.08)">
       <defs>
        <path id="Ubuntu-35" d="M 1274 2726 
Q 2240 2688 2691 2304 
Q 3142 1920 3142 1261 
Q 3142 966 3043 716 
Q 2944 467 2742 288 
Q 2541 109 2233 6 
Q 1926 -96 1504 -96 
Q 1338 -96 1165 -70 
Q 992 -45 845 -6 
Q 698 32 582 70 
Q 467 109 416 134 
L 531 653 
Q 640 602 886 518 
Q 1133 435 1491 435 
Q 1779 435 1974 499 
Q 2170 563 2291 672 
Q 2413 781 2467 925 
Q 2522 1069 2522 1229 
Q 2522 1472 2438 1661 
Q 2355 1850 2144 1978 
Q 1933 2106 1581 2173 
Q 1229 2240 691 2240 
Q 730 2554 752 2829 
Q 774 3104 793 3366 
Q 813 3629 825 3888 
Q 838 4147 851 4435 
L 2989 4435 
L 2989 3930 
L 1370 3930 
Q 1363 3834 1350 3670 
Q 1338 3507 1325 3331 
Q 1312 3155 1299 2988 
Q 1286 2822 1274 2726 
z
" transform="scale(0.015625)"/>
       </defs>
       <use xlink:href="#Ubuntu-30"/>
       <use xlink:href="#Ubuntu-2e" x="56.399994"/>
       <use xlink:href="#Ubuntu-35" x="80.999985"/>
      </g>
     </g>
    </g>
    <g id="ytick_3">
     <g id="line2d_21">
      <g>
       <use xlink:href="#mda26a59e90" x="27.1925" y="151.666875" style="fill: #aaaaaa; stroke: #aaaaaa; stroke-width: 0.75"/>
      </g>
     </g>
     <g id="text_21">
      <!-- 1.0 -->
      <g style="fill: #808080" transform="translate(7.2 154.770625) scale(0.08 -0.08)">
       <use xlink:href="#Ubuntu-31"/>
       <use xlink:href="#Ubuntu-2e" x="56.399994"/>
       <use xlink:href="#Ubuntu-30" x="80.999985"/>
      </g>
     </g>
    </g>
    <g id="ytick_4">
     <g id="line2d_22">
      <g>
       <use xlink:href="#mda26a59e90" x="27.1925" y="123.946875" style="fill: #aaaaaa; stroke: #aaaaaa; stroke-width: 0.75"/>
      </g>
     </g>
     <g id="text_22">
      <!-- 1.5 -->
      <g style="fill: #808080" transform="translate(7.2 127.050625) scale(0.08 -0.08)">
       <use xlink:href="#Ubuntu-31"/>
       <use xlink:href="#Ubuntu-2e" x="56.399994"/>
       <use xlink:href="#Ubuntu-35" x="80.999985"/>
      </g>
     </g>
    </g>
    <g id="ytick_5">
     <g id="line2d_23">
      <g>
       <use xlink:href="#mda26a59e90" x="27.1925" y="96.226875" style="fill: #aaaaaa; stroke: #aaaaaa; stroke-width: 0.75"/>
      </g>
     </g>
     <g id="text_23">
      <!-- 2.0 -->
      <g style="fill: #808080" transform="translate(7.2 99.330625) scale(0.08 -0.08)">
       <use xlink:href="#Ubuntu-32"/>
       <use xlink:href="#Ubuntu-2e" x="56.399994"/>
       <use xlink:href="#Ubuntu-30" x="80.999985"/>
      </g>
     </g>
    </g>
    <g id="ytick_6">
     <g id="line2d_24">
      <g>
       <use xlink:href="#mda26a59e90" x="27.1925" y="68.506875" style="fill: #aaaaaa; stroke: #aaaaaa; stroke-width: 0.75"/>
      </g>
     </g>
     <g id="text_24">
      <!-- 2.5 -->
      <g style="fill: #808080" transform="translate(7.2 71.610625) scale(0.08 -0.08)">
       <use xlink:href="#Ubuntu-32"/>
       <use xlink:href="#Ubuntu-2e" x="56.399994"/>
       <use xlink:href="#Ubuntu-35" x="80.999985"/>
      </g>
     </g>
    </g>
    <g id="ytick_7">
     <g id="line2d_25">
      <g>
       <use xlink:href="#mda26a59e90" x="27.1925" y="40.786875" style="fill: #aaaaaa; stroke: #aaaaaa; stroke-width: 0.75"/>
      </g>
     </g>
     <g id="text_25">
      <!-- 3.0 -->
      <g style="fill: #808080" transform="translate(7.2 43.890625) scale(0.08 -0.08)">
       <use xlink:href="#Ubuntu-33"/>
       <use xlink:href="#Ubuntu-2e" x="56.399994"/>
       <use xlink:href="#Ubuntu-30" x="80.999985"/>
      </g>
     </g>
    </g>
   </g>
   <g id="line2d_26">
    <path d="M 37.1925 151.666875 
L 38.787127 148.281623 
L 40.381755 145.810523 
L 41.976382 144.160852 
L 43.57101 143.239886 
L 45.165637 142.954901 
L 46.760264 143.213173 
L 48.354892 143.92198 
L 49.949519 144.988596 
L 51.544147 146.3203 
L 59.517284 153.709787 
L 61.111911 154.684813 
L 62.706538 155.27586 
L 64.301166 155.407729 
L 65.895793 155.120095 
L 67.490421 154.498895 
L 69.085048 153.630193 
L 72.274303 151.494542 
L 75.463558 149.401658 
L 77.058185 148.579615 
L 78.652812 147.954986 
L 80.24744 147.519914 
L 81.842067 147.266318 
L 83.436695 147.186116 
L 85.031322 147.271225 
L 86.625949 147.513564 
L 88.220577 147.90505 
L 89.815204 148.437219 
L 93.004459 149.869731 
L 96.193714 151.689585 
L 99.382969 153.772374 
L 105.761478 158.279886 
L 112.139988 163.078193 
L 124.897007 173.033865 
L 128.086262 174.93253 
L 129.680889 175.682816 
L 131.275516 176.262229 
L 132.870144 176.640337 
L 134.464771 176.786709 
L 136.059399 176.670914 
L 137.654026 176.26252 
L 139.248653 175.531098 
L 140.843281 174.447152 
L 142.437908 173.030783 
L 145.627163 169.58016 
L 148.816418 165.967482 
L 150.411045 164.348546 
L 152.005673 162.986904 
L 153.6003 161.981147 
L 155.194927 161.362095 
L 156.789555 161.036052 
L 159.97881 160.83475 
L 161.573437 160.74537 
L 163.168064 160.520758 
L 164.762692 160.053854 
L 166.357319 159.237826 
L 167.951947 158.021657 
L 169.546574 156.482705 
L 172.735829 152.817802 
L 175.925084 149.00582 
L 177.519711 147.283018 
L 179.114338 145.809426 
L 180.708966 144.643669 
L 182.303593 143.737936 
L 183.898221 143.025223 
L 191.871358 140.011758 
L 193.465985 139.072477 
L 196.65524 136.805919 
L 201.439122 133.294721 
L 203.033749 132.323595 
L 204.628377 131.547511 
L 206.223004 131.0092 
L 207.817632 130.683127 
L 209.412259 130.523691 
L 212.601514 130.52232 
L 217.385396 130.629978 
L 220.574651 130.322354 
L 230.142415 128.828633 
L 231.737043 128.789254 
L 233.33167 128.87938 
L 234.926297 129.120565 
L 236.520925 129.534354 
L 238.115552 130.142291 
L 239.71018 130.965922 
L 241.304807 132.026789 
L 242.899434 133.346438 
L 244.494062 134.94103 
L 247.683316 138.767209 
L 254.061826 146.967459 
L 255.656453 148.714298 
L 257.251081 150.202099 
L 258.845708 151.438201 
L 262.034963 153.39977 
L 266.818845 155.995841 
L 268.413473 157.016937 
L 270.0081 158.216146 
L 273.197355 161.091275 
L 277.981237 165.754833 
L 279.575864 167.176113 
L 281.170492 168.436273 
L 282.765119 169.480131 
L 284.359747 170.295141 
L 285.954374 170.916151 
L 287.549001 171.380482 
L 290.738256 171.988398 
L 297.116766 172.930441 
L 300.306021 173.405952 
L 301.900648 173.519027 
L 303.495275 173.489319 
L 305.089903 173.272084 
L 306.68453 172.822575 
L 308.279158 172.096403 
L 309.873785 171.077343 
L 311.468412 169.797264 
L 313.06304 168.292737 
L 316.252295 164.756622 
L 319.441549 160.761565 
L 330.603941 146.033423 
L 338.577078 135.618482 
L 343.36096 129.8078 
L 346.550215 126.296937 
L 349.73947 123.227197 
L 351.334097 121.953708 
L 352.928725 120.913909 
L 354.523352 120.152379 
L 356.11798 119.713697 
L 357.712607 119.64244 
L 359.307234 119.983187 
L 360.901862 120.751372 
L 362.496489 121.836006 
L 367.280371 125.535981 
L 368.874999 126.433788 
L 370.469626 126.921732 
L 372.064254 126.854549 
L 373.658881 126.128204 
L 375.253508 124.867236 
L 378.442763 121.554749 
L 380.037391 119.909999 
L 381.632018 118.544091 
L 383.226645 117.660408 
L 384.821273 117.462335 
L 386.4159 118.118591 
L 388.010527 119.550407 
L 389.605155 121.571407 
L 391.199782 123.994774 
L 395.983664 131.810921 
L 397.578292 133.975598 
L 399.172919 135.627752 
L 400.767547 136.778582 
L 402.362174 137.536612 
L 403.956801 138.01134 
L 410.335311 139.26721 
L 411.929938 139.960277 
L 413.524566 140.916963 
L 415.119193 142.080154 
L 418.308448 144.792752 
L 423.09233 148.952299 
L 424.686958 150.132562 
L 427.876212 152.087146 
L 437.443977 157.279918 
L 440.633232 159.595334 
L 451.795623 168.309682 
L 453.390251 169.245653 
L 454.984878 169.967191 
L 456.579506 170.417429 
L 458.174133 170.539499 
L 459.76876 170.276535 
L 461.363388 169.571668 
L 462.958015 168.368768 
L 464.552643 166.658873 
L 466.14727 164.507915 
L 467.741897 161.988484 
L 470.931152 156.134555 
L 482.093544 134.001718 
L 485.282799 128.461653 
L 488.472054 123.543952 
L 491.661308 119.339499 
L 494.850563 115.797293 
L 498.039818 112.838543 
L 501.229073 110.38446 
L 504.418328 108.356255 
L 507.607582 106.675138 
L 510.796837 105.262319 
L 513.986092 104.039009 
L 513.986092 104.039009 
" clip-path="url(#p497a51eda7)" style="fill: none; stroke-dasharray: 5.55,2.4; stroke-dashoffset: 0; stroke: #5d5d5d; stroke-width: 1.5"/>
   </g>
   <g id="line2d_27">
    <path d="M 37.1925 151.666875 
L 38.828197 151.626737 
L 40.463894 151.391622 
L 42.099591 150.981706 
L 43.735287 150.417164 
L 47.006681 148.904906 
L 50.278075 147.016253 
L 56.820862 142.755374 
L 60.092256 140.705958 
L 63.363649 138.925636 
L 66.635043 137.495232 
L 78.084921 133.007776 
L 79.720618 132.086639 
L 81.356315 130.9663 
L 82.992012 129.592241 
L 84.627708 127.909945 
L 86.263405 125.864894 
L 87.899102 123.40257 
L 89.534799 120.475176 
L 92.806193 113.710043 
L 94.441889 110.311536 
L 96.077586 107.198491 
L 97.713283 104.592975 
L 99.34898 102.717055 
L 100.984677 101.792795 
L 102.620374 102.021585 
L 104.256071 103.356599 
L 105.891767 105.587086 
L 107.527464 108.499384 
L 110.798858 115.514777 
L 114.070252 122.693496 
L 115.705948 125.829953 
L 117.341645 128.559179 
L 118.977342 130.911016 
L 120.613039 132.915686 
L 122.248736 134.60341 
L 123.884433 136.004411 
L 125.520129 137.14891 
L 127.155826 138.067129 
L 128.791523 138.784184 
L 130.42722 139.299286 
L 132.062917 139.603454 
L 133.698614 139.6877 
L 135.334311 139.543039 
L 136.970007 139.160486 
L 138.605704 138.531053 
L 140.241401 137.645758 
L 141.877098 136.510189 
L 145.148492 133.720439 
L 150.055582 129.229638 
L 151.691279 127.915154 
L 153.326976 126.801832 
L 154.962673 125.929032 
L 156.598369 125.274153 
L 158.234066 124.80578 
L 159.869763 124.492496 
L 163.141157 124.205525 
L 174.591035 123.916272 
L 177.862428 123.4651 
L 181.133822 122.674787 
L 187.676609 120.813295 
L 189.312306 120.49523 
L 190.948003 120.306851 
L 192.5837 120.280237 
L 195.855094 120.581482 
L 199.126487 120.913274 
L 200.762184 120.92357 
L 202.397881 120.741037 
L 204.033578 120.298853 
L 205.669275 119.538049 
L 207.304972 118.477806 
L 208.940668 117.182116 
L 212.212062 114.142494 
L 217.119153 109.430306 
L 220.390546 106.82504 
L 228.569031 100.875783 
L 230.204727 99.417691 
L 233.476121 96.017689 
L 238.383212 90.667345 
L 240.018908 89.100928 
L 241.654605 87.761273 
L 243.290302 86.719319 
L 244.925999 86.037787 
L 246.561696 85.755348 
L 248.197393 85.906296 
L 249.833089 86.524927 
L 251.468786 87.645535 
L 253.104483 89.302415 
L 254.74018 91.529862 
L 256.375877 94.361792 
L 258.011574 97.77977 
L 259.647271 101.65993 
L 262.918664 110.260724 
L 266.190058 119.072026 
L 267.825755 123.215321 
L 269.461452 127.003227 
L 271.097148 130.373501 
L 272.732845 133.366594 
L 274.368542 136.030717 
L 276.004239 138.414079 
L 277.639936 140.564889 
L 280.911329 144.361692 
L 284.182723 147.764464 
L 287.454117 150.748063 
L 289.089814 152.015623 
L 290.725511 153.097616 
L 292.361207 153.966988 
L 293.996904 154.596683 
L 295.632601 154.962716 
L 297.268298 155.081739 
L 298.903995 154.999188 
L 302.175388 154.413534 
L 308.718176 152.844728 
L 311.989569 152.392642 
L 316.89666 152.007825 
L 321.803751 151.616545 
L 326.710841 150.960476 
L 331.617932 150.028502 
L 336.525022 148.837251 
L 343.067809 146.949851 
L 351.246294 144.47611 
L 354.517687 143.760666 
L 356.153384 143.538817 
L 357.789081 143.433758 
L 359.424778 143.464957 
L 361.060475 143.635971 
L 364.331868 144.297893 
L 374.146049 146.91296 
L 377.417443 147.429737 
L 380.688837 147.690254 
L 383.960231 147.68937 
L 387.231624 147.398734 
L 388.867321 147.083535 
L 390.503018 146.604803 
L 392.138715 145.924694 
L 393.774412 145.00536 
L 395.410108 143.808954 
L 397.045805 142.297631 
L 398.681502 140.440673 
L 400.317199 138.285192 
L 403.588593 133.459426 
L 406.859986 128.585374 
L 408.495683 126.369535 
L 410.13138 124.428778 
L 411.767077 122.851257 
L 413.402774 121.671977 
L 415.038471 120.903155 
L 416.674167 120.55692 
L 418.309864 120.645404 
L 419.945561 121.180737 
L 421.581258 122.175048 
L 423.216955 123.640468 
L 424.852652 125.57168 
L 426.488348 127.881624 
L 429.759742 133.193781 
L 433.031136 138.689068 
L 434.666833 141.227926 
L 436.302529 143.479629 
L 437.938226 145.367603 
L 439.573923 146.924006 
L 441.20962 148.202428 
L 442.845317 149.256458 
L 446.116711 150.905703 
L 457.566588 155.757207 
L 460.837982 156.782453 
L 462.473679 157.139548 
L 465.745073 157.525355 
L 469.016466 157.594671 
L 482.102041 157.234837 
L 485.373435 156.974545 
L 488.644828 156.436504 
L 491.916222 155.606447 
L 500.094706 153.324642 
L 503.3661 152.760432 
L 506.637494 152.464061 
L 509.908887 152.370987 
L 514.815978 152.471169 
L 522.994462 152.738976 
L 526.265856 152.692875 
L 526.265856 152.692875 
" clip-path="url(#p497a51eda7)" style="fill: none; stroke: #7e6459; stroke-width: 1.25; stroke-linecap: square"/>
   </g>
   <g id="line2d_28">
    <path d="M 37.1925 151.666875 
L 38.828197 146.758881 
L 40.463894 143.154947 
L 42.099591 140.728739 
L 43.735287 139.353929 
L 45.370984 138.904185 
L 47.006681 139.253175 
L 48.642378 140.27457 
L 50.278075 141.842039 
L 51.913772 143.82925 
L 55.185165 148.557575 
L 58.456559 153.4489 
L 60.092256 155.63986 
L 61.727953 157.492577 
L 63.363649 158.881397 
L 64.999346 159.752823 
L 66.635043 160.188534 
L 68.27074 160.285068 
L 69.906437 160.138966 
L 76.449224 159.057862 
L 78.084921 159.098665 
L 79.720618 159.324582 
L 81.356315 159.723542 
L 82.992012 160.283472 
L 84.627708 160.992301 
L 87.899102 162.808366 
L 91.170496 165.06725 
L 96.077586 168.902939 
L 100.984677 172.665861 
L 104.256071 174.821534 
L 107.527464 176.667167 
L 110.798858 178.277155 
L 115.705948 180.411775 
L 118.977342 181.68227 
L 122.248736 182.735671 
L 125.520129 183.472628 
L 127.155826 183.691393 
L 128.791523 183.792376 
L 130.42722 183.754551 
L 132.062917 183.554622 
L 133.698614 183.169291 
L 135.334311 182.575259 
L 136.970007 181.749228 
L 138.605704 180.667901 
L 140.241401 179.30798 
L 141.877098 177.667881 
L 145.148492 173.853391 
L 148.419885 169.916087 
L 150.055582 168.12247 
L 151.691279 166.56346 
L 153.326976 165.327312 
L 154.962673 164.455381 
L 156.598369 163.879618 
L 158.234066 163.516407 
L 164.776854 162.516758 
L 166.412551 161.962766 
L 168.048247 161.169076 
L 169.683944 160.178857 
L 172.955338 157.810121 
L 177.862428 154.041091 
L 181.133822 151.929736 
L 184.405216 150.161337 
L 189.312306 147.589214 
L 192.5837 145.553976 
L 197.490791 142.258154 
L 199.126487 141.414287 
L 200.762184 140.840326 
L 202.397881 140.621796 
L 204.033578 140.844218 
L 205.669275 141.580455 
L 207.304972 142.77738 
L 208.940668 144.309624 
L 215.483456 151.267271 
L 217.119153 152.582722 
L 218.754849 153.499334 
L 220.390546 154.06412 
L 222.026243 154.383785 
L 226.933334 154.940644 
L 228.569031 155.348416 
L 230.204727 156.045361 
L 231.840424 157.110193 
L 233.476121 158.499783 
L 235.111818 160.138044 
L 238.383212 163.85622 
L 241.654605 167.656011 
L 243.290302 169.396307 
L 244.925999 170.947596 
L 246.561696 172.307707 
L 248.197393 173.484487 
L 249.833089 174.485784 
L 251.468786 175.319447 
L 253.104483 175.993324 
L 254.74018 176.515263 
L 256.375877 176.893201 
L 259.647271 177.322878 
L 264.554361 177.857422 
L 266.190058 178.198384 
L 267.825755 178.700781 
L 269.461452 179.411522 
L 272.732845 181.359751 
L 276.004239 183.450995 
L 277.639936 184.33487 
L 279.275633 184.996047 
L 280.911329 185.348374 
L 282.547026 185.309276 
L 284.182723 184.878386 
L 285.81842 184.13755 
L 287.454117 183.172187 
L 293.996904 178.773849 
L 295.632601 177.96105 
L 297.268298 177.343427 
L 300.539692 176.458866 
L 303.811085 175.644425 
L 305.446782 175.114453 
L 307.082479 174.423155 
L 308.718176 173.51802 
L 310.353873 172.405752 
L 313.625266 169.70446 
L 318.532357 165.005452 
L 328.346538 155.439335 
L 329.982235 153.600944 
L 331.617932 151.594763 
L 333.253628 149.383722 
L 336.525022 144.334928 
L 344.703506 130.732868 
L 346.339203 128.333353 
L 347.9749 126.183961 
L 349.610597 124.347758 
L 351.246294 122.888026 
L 352.881991 121.868046 
L 354.517687 121.351101 
L 356.153384 121.400474 
L 357.789081 122.079445 
L 359.424778 123.450232 
L 361.060475 125.48509 
L 362.696172 127.999385 
L 367.603262 136.414928 
L 369.238959 138.843003 
L 370.874656 140.74853 
L 372.510353 141.936473 
L 374.146049 142.396467 
L 375.781746 142.345133 
L 380.688837 141.428757 
L 382.324534 141.637705 
L 383.960231 142.488121 
L 385.595927 144.197479 
L 387.231624 146.745353 
L 388.867321 149.903968 
L 395.410108 163.951465 
L 397.045805 166.643004 
L 398.681502 168.558055 
L 400.317199 169.713123 
L 401.952896 170.266374 
L 403.588593 170.378048 
L 405.224289 170.208384 
L 408.495683 169.666001 
L 410.13138 169.613761 
L 411.767077 169.899088 
L 413.402774 170.505192 
L 415.038471 171.348844 
L 423.216955 176.208357 
L 424.852652 176.739648 
L 426.488348 177.02792 
L 428.124045 177.099275 
L 429.759742 176.97982 
L 431.395439 176.69566 
L 434.666833 175.737651 
L 437.938226 174.436099 
L 442.845317 172.396029 
L 444.481014 171.83484 
L 446.116711 171.39254 
L 447.752407 171.104809 
L 449.388104 171.007165 
L 451.023801 171.104107 
L 459.202285 172.137484 
L 460.837982 171.953503 
L 462.473679 171.473161 
L 464.109376 170.662473 
L 465.745073 169.54325 
L 467.380769 168.141947 
L 469.016466 166.485022 
L 470.652163 164.598931 
L 473.923557 160.245082 
L 477.194951 155.298625 
L 487.009132 139.811194 
L 490.280525 135.426329 
L 493.551919 131.594496 
L 496.823313 128.162857 
L 501.730403 123.434961 
L 505.001797 120.575127 
L 506.637494 119.364562 
L 508.273191 118.37121 
L 509.908887 117.648306 
L 511.544584 117.249083 
L 513.180281 117.226776 
L 514.815978 117.634619 
L 516.451675 118.525846 
L 518.087372 119.953691 
L 519.723068 121.971388 
L 521.358765 124.632171 
L 522.994462 127.989275 
L 524.630159 132.095933 
L 526.265856 137.00538 
L 526.265856 137.00538 
" clip-path="url(#p497a51eda7)" style="fill: none; stroke: #489079; stroke-width: 1.25; stroke-linecap: square"/>
   </g>
   <g id="line2d_29">
    <path d="M 37.1925 151.666875 
L 38.828197 150.266294 
L 40.463894 149.179884 
L 42.099591 148.381625 
L 43.735287 147.845496 
L 45.370984 147.545476 
L 47.006681 147.455546 
L 48.642378 147.549685 
L 50.278075 147.801872 
L 53.549468 148.67631 
L 56.820862 149.870696 
L 63.363649 152.386777 
L 66.635043 153.365028 
L 71.542134 154.542994 
L 78.084921 156.067964 
L 81.356315 156.998573 
L 84.627708 158.124286 
L 87.899102 159.50409 
L 91.170496 161.183792 
L 96.077586 164.10861 
L 102.620374 168.142568 
L 109.163161 171.820204 
L 120.613039 178.038258 
L 122.248736 178.740378 
L 123.884433 179.307188 
L 125.520129 179.706538 
L 127.155826 179.90628 
L 128.791523 179.878269 
L 130.42722 179.614678 
L 132.062917 179.11411 
L 133.698614 178.375168 
L 135.334311 177.396458 
L 136.970007 176.176584 
L 138.605704 174.71415 
L 140.241401 173.007762 
L 143.512795 168.978527 
L 148.419885 162.572256 
L 150.055582 160.670377 
L 151.691279 159.02285 
L 153.326976 157.712081 
L 154.962673 156.783525 
L 156.598369 156.196453 
L 158.234066 155.897871 
L 159.869763 155.834785 
L 161.50546 155.954201 
L 164.776854 156.52856 
L 169.683944 157.489937 
L 172.955338 157.810663 
L 174.591035 157.796761 
L 176.226732 157.63205 
L 177.862428 157.290559 
L 179.498125 156.747534 
L 181.133822 156.014681 
L 184.405216 154.195935 
L 187.676609 152.278707 
L 189.312306 151.422752 
L 190.948003 150.709685 
L 192.5837 150.190256 
L 199.126487 148.725654 
L 200.762184 148.007629 
L 202.397881 146.94601 
L 204.033578 145.439376 
L 205.669275 143.403791 
L 207.304972 140.929356 
L 212.212062 132.776594 
L 213.847759 130.452768 
L 215.483456 128.64428 
L 217.119153 127.542203 
L 218.754849 127.302369 
L 220.390546 127.852664 
L 222.026243 129.030285 
L 223.66194 130.672195 
L 226.933334 134.696737 
L 228.569031 136.753296 
L 230.204727 138.621998 
L 231.840424 140.178755 
L 233.476121 141.468065 
L 236.747515 143.604771 
L 240.018908 145.752972 
L 241.654605 147.056651 
L 243.290302 148.633488 
L 244.925999 150.532184 
L 248.197393 154.983707 
L 253.104483 161.880638 
L 254.74018 163.860673 
L 256.375877 165.524301 
L 258.011574 166.827781 
L 259.647271 167.82861 
L 261.282967 168.596437 
L 264.554361 169.711678 
L 267.825755 170.730693 
L 269.461452 171.377309 
L 272.732845 173.05095 
L 279.275633 176.787915 
L 280.911329 177.559719 
L 282.547026 178.183899 
L 284.182723 178.639732 
L 285.81842 178.926658 
L 287.454117 179.044997 
L 289.089814 178.995065 
L 290.725511 178.777181 
L 292.361207 178.391663 
L 293.996904 177.838829 
L 295.632601 177.120141 
L 298.903995 175.262299 
L 302.175388 173.026841 
L 308.718176 168.303252 
L 311.989569 166.20395 
L 315.260963 164.438254 
L 318.532357 163.103382 
L 320.168054 162.627883 
L 323.439447 162.051046 
L 328.346538 161.440837 
L 329.982235 161.105401 
L 331.617932 160.620594 
L 333.253628 159.936405 
L 334.889325 159.020633 
L 336.525022 157.906928 
L 339.796416 155.281158 
L 344.703506 151.079513 
L 347.9749 148.649683 
L 356.153384 143.362542 
L 357.789081 142.109975 
L 359.424778 140.695388 
L 362.696172 137.428266 
L 367.603262 132.406967 
L 369.238959 130.969515 
L 370.874656 129.762087 
L 372.510353 128.850986 
L 374.146049 128.2744 
L 375.781746 128.035958 
L 377.417443 128.137168 
L 379.05314 128.579537 
L 380.688837 129.364572 
L 382.324534 130.493782 
L 383.960231 131.968673 
L 385.595927 133.788825 
L 387.231624 135.918776 
L 390.503018 140.843033 
L 397.045805 151.472193 
L 400.317199 156.14261 
L 401.952896 158.169404 
L 403.588593 159.964692 
L 405.224289 161.509112 
L 406.859986 162.783302 
L 408.495683 163.767903 
L 410.13138 164.443552 
L 411.767077 164.800626 
L 413.402774 164.897915 
L 416.674167 164.66575 
L 419.945561 164.452837 
L 421.581258 164.574191 
L 423.216955 164.965068 
L 424.852652 165.686637 
L 426.488348 166.673255 
L 433.031136 171.21512 
L 434.666833 171.985649 
L 436.302529 172.404702 
L 437.938226 172.401874 
L 439.573923 172.008991 
L 441.20962 171.27803 
L 442.845317 170.260967 
L 444.481014 169.009779 
L 447.752407 166.012929 
L 452.659498 160.981081 
L 465.745073 147.235624 
L 469.016466 144.22425 
L 470.652163 142.895065 
L 472.28786 141.715367 
L 473.923557 140.709022 
L 475.559254 139.898583 
L 477.194951 139.272344 
L 480.466344 138.377081 
L 485.373435 137.174279 
L 487.009132 136.609917 
L 488.644828 135.883568 
L 491.916222 133.994018 
L 500.094706 128.647241 
L 501.730403 127.799131 
L 505.001797 126.470982 
L 508.273191 125.518885 
L 513.180281 124.493481 
L 518.087372 123.536707 
L 521.358765 122.706619 
L 524.630159 121.561483 
L 526.265856 120.827578 
L 526.265856 120.827578 
" clip-path="url(#p497a51eda7)" style="fill: none; stroke: #b3625a; stroke-width: 1.25; stroke-linecap: square"/>
   </g>
   <g id="line2d_30">
    <path d="M 37.1925 151.666875 
L 38.828197 151.680079 
L 40.463894 151.556663 
L 43.735287 150.965318 
L 47.006681 150.023539 
L 51.913772 148.239702 
L 56.820862 146.402556 
L 60.092256 145.366003 
L 63.363649 144.632335 
L 66.635043 144.229008 
L 71.542134 143.677596 
L 73.177831 143.358658 
L 74.813527 142.909893 
L 76.449224 142.294758 
L 78.084921 141.509226 
L 81.356315 139.585128 
L 87.899102 135.493264 
L 89.534799 134.662104 
L 91.170496 133.972229 
L 92.806193 133.430628 
L 94.441889 133.043661 
L 96.077586 132.817689 
L 97.713283 132.759073 
L 99.34898 132.874174 
L 100.984677 133.169352 
L 102.620374 133.648525 
L 105.891767 135.03782 
L 112.434555 138.279258 
L 114.070252 138.922774 
L 115.705948 139.415343 
L 117.341645 139.764171 
L 120.613039 140.145006 
L 130.42722 140.771941 
L 135.334311 141.531017 
L 141.877098 142.596178 
L 150.055582 143.610024 
L 159.869763 144.891734 
L 166.412551 145.673236 
L 171.319641 146.000274 
L 174.591035 145.981892 
L 177.862428 145.696809 
L 181.133822 145.107203 
L 184.405216 144.44797 
L 186.040913 144.212702 
L 187.676609 144.104897 
L 189.312306 144.172978 
L 190.948003 144.465368 
L 192.5837 145.023396 
L 197.490791 147.170538 
L 199.126487 147.4769 
L 200.762184 147.293703 
L 202.397881 146.450015 
L 204.033578 144.774907 
L 205.669275 142.122822 
L 207.304972 138.600721 
L 208.940668 134.460361 
L 213.847759 120.864447 
L 215.483456 116.785773 
L 217.119153 113.3562 
L 218.754849 110.785964 
L 220.390546 109.005662 
L 222.026243 107.834631 
L 223.66194 107.091923 
L 228.569031 105.624251 
L 230.204727 104.785352 
L 231.840424 103.522003 
L 233.476121 101.930174 
L 238.383212 96.752069 
L 240.018908 95.414583 
L 241.654605 94.532748 
L 243.290302 94.263332 
L 244.925999 94.694236 
L 246.561696 95.711869 
L 248.197393 97.165976 
L 251.468786 100.782602 
L 254.74018 104.342094 
L 256.375877 105.725317 
L 258.011574 106.718512 
L 259.647271 107.394822 
L 261.282967 107.845261 
L 267.825755 109.2086 
L 269.461452 109.894134 
L 271.097148 110.862032 
L 272.732845 112.114949 
L 274.368542 113.651667 
L 276.004239 115.470969 
L 277.639936 117.571638 
L 279.275633 119.952456 
L 280.911329 122.612207 
L 284.182723 128.701536 
L 289.089814 138.375647 
L 290.725511 141.298837 
L 292.361207 143.885241 
L 293.996904 146.023244 
L 295.632601 147.609883 
L 297.268298 148.656794 
L 298.903995 149.25677 
L 300.539692 149.504325 
L 302.175388 149.493973 
L 305.446782 149.0776 
L 308.718176 148.753891 
L 311.989569 148.84028 
L 316.89666 149.140926 
L 318.532357 149.132102 
L 320.168054 149.004319 
L 321.803751 148.724861 
L 323.439447 148.293704 
L 325.075144 147.721997 
L 328.346538 146.201566 
L 331.617932 144.252838 
L 334.889325 141.953568 
L 336.525022 140.633346 
L 338.160719 139.132344 
L 339.796416 137.397813 
L 341.432113 135.377002 
L 343.067809 133.017162 
L 344.703506 130.265543 
L 346.339203 127.069546 
L 347.9749 123.435872 
L 354.517687 107.869512 
L 356.153384 104.613895 
L 357.789081 101.970223 
L 359.424778 100.115655 
L 361.060475 99.090784 
L 362.696172 98.69803 
L 364.331868 98.715882 
L 367.603262 99.09736 
L 369.238959 99.017966 
L 370.874656 98.463135 
L 372.510353 97.215901 
L 374.146049 95.215798 
L 375.781746 92.594726 
L 377.417443 89.496395 
L 380.688837 82.442801 
L 383.960231 75.204703 
L 385.595927 71.873294 
L 387.231624 68.877485 
L 388.867321 66.275233 
L 390.503018 64.123195 
L 392.138715 62.47803 
L 393.774412 61.396396 
L 395.410108 60.934951 
L 397.045805 61.150353 
L 398.681502 62.089644 
L 400.317199 63.694909 
L 401.952896 65.843627 
L 403.588593 68.412331 
L 406.859986 74.315832 
L 410.13138 80.41768 
L 413.402774 85.923259 
L 419.945561 96.38132 
L 421.581258 99.28931 
L 423.216955 102.454847 
L 426.488348 109.625587 
L 433.031136 124.705321 
L 434.666833 128.027009 
L 436.302529 130.962994 
L 437.938226 133.441506 
L 439.573923 135.490104 
L 441.20962 137.155932 
L 442.845317 138.486129 
L 444.481014 139.527837 
L 446.116711 140.328197 
L 447.752407 140.934351 
L 451.023801 141.741599 
L 454.295195 142.154415 
L 457.566588 142.255184 
L 460.837982 142.123236 
L 465.745073 141.656255 
L 478.830647 140.184995 
L 482.102041 139.804965 
L 485.373435 139.220893 
L 488.644828 138.301493 
L 491.916222 137.027391 
L 501.730403 132.836926 
L 505.001797 131.846503 
L 508.273191 131.106007 
L 511.544584 130.574113 
L 516.451675 130.076994 
L 522.994462 129.75855 
L 526.265856 129.653934 
L 526.265856 129.653934 
" clip-path="url(#p497a51eda7)" style="fill: none; stroke: #6893b8; stroke-width: 1.25; stroke-linecap: square"/>
   </g>
   <g id="line2d_31">
    <path d="M 37.1925 151.666875 
L 38.828197 151.742223 
L 40.463894 151.610416 
L 42.099591 151.290739 
L 43.735287 150.802475 
L 45.370984 150.164909 
L 48.642378 148.519008 
L 51.913772 146.507312 
L 58.456559 142.00363 
L 61.727953 139.820194 
L 64.999346 137.877496 
L 68.27074 136.179367 
L 74.813527 133.133756 
L 78.084921 131.555642 
L 79.720618 130.591091 
L 81.356315 129.388275 
L 82.992012 127.855509 
L 84.627708 125.901105 
L 86.263405 123.433379 
L 87.899102 120.360643 
L 89.534799 116.59874 
L 91.170496 112.216985 
L 94.441889 102.449841 
L 97.713283 92.798483 
L 99.34898 88.561462 
L 100.984677 85.007672 
L 102.620374 82.343988 
L 104.256071 80.642576 
L 105.891767 79.886641 
L 107.527464 80.057811 
L 109.163161 81.137712 
L 110.798858 83.107971 
L 112.434555 85.950214 
L 114.070252 89.646068 
L 115.705948 94.159299 
L 117.341645 99.3171 
L 123.884433 121.673737 
L 125.520129 126.513338 
L 127.155826 130.580751 
L 128.791523 133.689277 
L 130.42722 135.903283 
L 132.062917 137.36656 
L 133.698614 138.222928 
L 135.334311 138.616209 
L 136.970007 138.690225 
L 141.877098 138.404004 
L 145.148492 138.551678 
L 148.419885 138.933626 
L 158.234066 140.32499 
L 161.50546 140.592749 
L 164.776854 140.672355 
L 168.048247 140.516578 
L 171.319641 140.12146 
L 174.591035 139.511619 
L 177.862428 138.712179 
L 189.312306 135.519786 
L 192.5837 135.093962 
L 195.855094 134.873238 
L 197.490791 134.639464 
L 199.126487 134.206296 
L 200.762184 133.485896 
L 202.397881 132.390424 
L 204.033578 130.832042 
L 205.669275 128.736146 
L 207.304972 126.159865 
L 210.576365 120.097686 
L 213.847759 113.713063 
L 215.483456 110.733728 
L 217.119153 108.074451 
L 218.754849 105.850191 
L 220.390546 104.055609 
L 222.026243 102.637507 
L 223.66194 101.542563 
L 225.297637 100.717454 
L 226.933334 100.10886 
L 230.204727 99.327926 
L 233.476121 98.878197 
L 235.111818 98.806492 
L 236.747515 98.875063 
L 238.383212 99.112539 
L 240.018908 99.547549 
L 241.654605 100.208721 
L 243.290302 101.124667 
L 244.925999 102.305829 
L 246.561696 103.70948 
L 249.833089 106.974653 
L 256.375877 113.86952 
L 259.647271 116.849689 
L 264.554361 121.277049 
L 266.190058 122.93777 
L 267.825755 124.772779 
L 269.461452 126.830254 
L 272.732845 131.571102 
L 280.911329 144.290014 
L 282.547026 146.497256 
L 284.182723 148.484971 
L 285.81842 150.258192 
L 287.454117 151.82335 
L 289.089814 153.186879 
L 290.725511 154.355212 
L 292.361207 155.334781 
L 293.996904 156.132021 
L 295.632601 156.754097 
L 297.268298 157.217894 
L 300.539692 157.765861 
L 303.811085 157.967074 
L 313.625266 158.047069 
L 316.89666 157.85131 
L 320.168054 157.341094 
L 323.439447 156.411724 
L 326.710841 155.074359 
L 329.982235 153.374061 
L 333.253628 151.355897 
L 338.160719 147.912924 
L 343.067809 144.489904 
L 346.339203 142.52985 
L 349.610597 140.992819 
L 352.881991 139.848338 
L 356.153384 139.033444 
L 359.424778 138.485189 
L 362.696172 138.147726 
L 365.967565 137.983745 
L 370.874656 137.987964 
L 375.781746 138.110637 
L 379.05314 137.896285 
L 380.688837 137.587658 
L 382.324534 137.094586 
L 383.960231 136.37946 
L 385.595927 135.406094 
L 387.231624 134.164156 
L 388.867321 132.665848 
L 390.503018 130.92413 
L 392.138715 128.951958 
L 393.774412 126.76229 
L 397.045805 121.7823 
L 400.317199 116.15237 
L 403.588593 110.458185 
L 405.224289 107.821904 
L 406.859986 105.451531 
L 408.495683 103.441093 
L 410.13138 101.884617 
L 411.767077 100.864171 
L 413.402774 100.377795 
L 415.038471 100.387501 
L 416.674167 100.855165 
L 418.309864 101.742663 
L 419.945561 103.011871 
L 421.581258 104.624664 
L 423.216955 106.542918 
L 424.852652 108.725974 
L 428.124045 113.672898 
L 436.302529 126.814704 
L 439.573923 131.289862 
L 442.845317 135.068552 
L 444.481014 136.698196 
L 446.116711 138.155491 
L 447.752407 139.441028 
L 449.388104 140.55542 
L 451.023801 141.504038 
L 452.659498 142.302549 
L 455.930892 143.517307 
L 459.202285 144.335813 
L 462.473679 144.89408 
L 467.380769 145.446369 
L 472.28786 145.717947 
L 477.194951 145.747313 
L 480.466344 145.578397 
L 483.737738 145.155634 
L 487.009132 144.387126 
L 490.280525 143.206023 
L 493.551919 141.729062 
L 500.094706 138.681589 
L 503.3661 137.478644 
L 506.637494 136.535793 
L 511.544584 135.442927 
L 521.358765 133.472579 
L 524.630159 132.600594 
L 526.265856 132.081446 
L 526.265856 132.081446 
" clip-path="url(#p497a51eda7)" style="fill: none; stroke: #d8805d; stroke-width: 1.25; stroke-linecap: square"/>
   </g>
   <g id="patch_4">
    <path d="M 27.1925 207.106875 
L 27.1925 40.786875 
" style="fill: none; stroke: #aaaaaa; stroke-width: 0.75; stroke-linejoin: miter; stroke-linecap: square"/>
   </g>
   <g id="patch_5">
    <path d="M 37.1925 217.106875 
L 539.3925 217.106875 
" style="fill: none; stroke: #aaaaaa; stroke-width: 0.75; stroke-linejoin: miter; stroke-linecap: square"/>
   </g>
   <g id="legend_1">
    <g id="line2d_32">
     <path d="M 45.2925 14.696719 
L 54.2925 14.696719 
L 63.2925 14.696719 
" style="fill: none; stroke-dasharray: 5.55,2.4; stroke-dashoffset: 0; stroke: #5d5d5d; stroke-width: 1.5"/>
    </g>
    <g id="text_26">
     <!-- Овощи (средняя цена у производителей) -->
     <g style="fill: #4b4b4b" transform="translate(70.4925 17.846719) scale(0.09 -0.09)">
      <defs>
       <path id="Ubuntu-43e" d="M 3450 1664 
Q 3450 1267 3334 947 
Q 3219 627 3011 396 
Q 2803 166 2515 41 
Q 2227 -83 1888 -83 
Q 1549 -83 1261 41 
Q 973 166 765 396 
Q 557 627 441 947 
Q 326 1267 326 1664 
Q 326 2054 441 2377 
Q 557 2701 765 2931 
Q 973 3162 1261 3286 
Q 1549 3411 1888 3411 
Q 2227 3411 2515 3286 
Q 2803 3162 3011 2931 
Q 3219 2701 3334 2377 
Q 3450 2054 3450 1664 
z
M 2829 1664 
Q 2829 2227 2576 2556 
Q 2323 2886 1888 2886 
Q 1453 2886 1200 2556 
Q 947 2227 947 1664 
Q 947 1101 1200 771 
Q 1453 442 1888 442 
Q 2323 442 2576 771 
Q 2829 1101 2829 1664 
z
" transform="scale(0.015625)"/>
       <path id="Ubuntu-449" d="M 512 0 
L 512 3328 
L 1107 3328 
L 1107 493 
L 2336 493 
L 2336 3328 
L 2931 3328 
L 2931 493 
L 4160 493 
L 4160 3328 
L 4755 3328 
L 4755 493 
L 5203 493 
L 5203 -928 
L 4640 -928 
L 4640 0 
L 512 0 
z
" transform="scale(0.015625)"/>
       <path id="Ubuntu-438" d="M 3309 3328 
L 3309 0 
L 2733 0 
L 2733 2534 
Q 2541 2291 2310 1964 
Q 2080 1638 1849 1289 
Q 1619 941 1408 601 
Q 1197 262 1043 0 
L 512 0 
L 512 3328 
L 1088 3328 
L 1088 934 
Q 1254 1210 1465 1539 
Q 1677 1869 1904 2192 
Q 2131 2515 2358 2812 
Q 2586 3110 2784 3328 
L 3309 3328 
z
" transform="scale(0.015625)"/>
       <path id="Ubuntu-20" transform="scale(0.015625)"/>
       <path id="Ubuntu-28" d="M 1094 1914 
Q 1094 1094 1331 396 
Q 1568 -301 2029 -896 
L 1606 -1184 
Q 1107 -576 803 214 
Q 499 1005 499 1914 
Q 499 2822 803 3612 
Q 1107 4403 1606 5011 
L 2029 4723 
Q 1568 4128 1331 3430 
Q 1094 2733 1094 1914 
z
" transform="scale(0.015625)"/>
       <path id="Ubuntu-441" d="M 1958 -77 
Q 1555 -77 1251 51 
Q 947 179 739 409 
Q 531 640 428 957 
Q 326 1274 326 1658 
Q 326 2042 438 2362 
Q 550 2682 755 2915 
Q 960 3149 1257 3280 
Q 1555 3411 1920 3411 
Q 2144 3411 2368 3372 
Q 2592 3334 2797 3251 
L 2662 2746 
Q 2528 2810 2352 2848 
Q 2176 2886 1978 2886 
Q 1478 2886 1212 2572 
Q 947 2259 947 1658 
Q 947 1389 1008 1165 
Q 1069 941 1200 781 
Q 1331 621 1536 534 
Q 1741 448 2035 448 
Q 2272 448 2464 493 
Q 2656 538 2765 589 
L 2848 90 
Q 2797 58 2701 29 
Q 2605 0 2483 -22 
Q 2362 -45 2224 -61 
Q 2086 -77 1958 -77 
z
" transform="scale(0.015625)"/>
       <path id="Ubuntu-435" d="M 326 1658 
Q 326 2099 454 2428 
Q 582 2758 793 2976 
Q 1005 3194 1280 3302 
Q 1555 3411 1843 3411 
Q 2515 3411 2873 2992 
Q 3232 2573 3232 1715 
Q 3232 1677 3232 1616 
Q 3232 1555 3226 1504 
L 947 1504 
Q 986 986 1248 717 
Q 1510 448 2067 448 
Q 2381 448 2595 502 
Q 2810 557 2918 608 
L 3002 109 
Q 2893 51 2621 -13 
Q 2349 -77 2003 -77 
Q 1568 -77 1251 54 
Q 934 186 729 416 
Q 525 646 425 963 
Q 326 1280 326 1658 
z
M 2611 1984 
Q 2618 2387 2410 2646 
Q 2202 2906 1837 2906 
Q 1632 2906 1475 2826 
Q 1318 2746 1209 2618 
Q 1101 2490 1040 2323 
Q 979 2157 960 1984 
L 2611 1984 
z
" transform="scale(0.015625)"/>
       <path id="Ubuntu-434" d="M 102 486 
L 461 486 
Q 672 794 797 1120 
Q 922 1446 986 1795 
Q 1050 2144 1069 2525 
Q 1088 2906 1094 3328 
L 3277 3328 
L 3277 486 
L 3725 486 
L 3725 -928 
L 3162 -928 
L 3162 0 
L 666 0 
L 666 -928 
L 102 -928 
L 102 486 
z
M 2682 486 
L 2682 2829 
L 1638 2829 
Q 1632 2528 1606 2224 
Q 1581 1920 1523 1622 
Q 1466 1325 1360 1040 
Q 1254 755 1094 486 
L 2682 486 
z
" transform="scale(0.015625)"/>
       <path id="Ubuntu-44f" d="M 1888 1293 
Q 1792 1293 1702 1296 
Q 1613 1299 1530 1306 
Q 1325 998 1136 649 
Q 947 301 800 0 
L 198 0 
Q 275 186 377 381 
Q 480 576 585 761 
Q 691 947 800 1113 
Q 909 1280 1005 1414 
Q 826 1478 710 1571 
Q 595 1664 524 1779 
Q 454 1894 425 2025 
Q 397 2157 397 2291 
Q 397 2573 502 2784 
Q 608 2995 793 3132 
Q 979 3270 1232 3340 
Q 1485 3411 1786 3411 
Q 2208 3411 2502 3372 
Q 2797 3334 2995 3283 
L 2995 0 
L 2406 0 
L 2406 1293 
L 1888 1293 
z
M 2406 2886 
Q 2336 2899 2173 2912 
Q 2010 2925 1798 2925 
Q 1434 2925 1210 2774 
Q 986 2624 986 2298 
Q 986 1978 1216 1856 
Q 1446 1734 1811 1734 
L 2406 1734 
L 2406 2886 
z
" transform="scale(0.015625)"/>
       <path id="Ubuntu-446" d="M 3168 493 
L 3616 493 
L 3616 -928 
L 3053 -928 
L 3053 0 
L 512 0 
L 512 3328 
L 1107 3328 
L 1107 493 
L 2573 493 
L 2573 3328 
L 3168 3328 
L 3168 493 
z
" transform="scale(0.015625)"/>
       <path id="Ubuntu-430" d="M 1638 429 
Q 1850 429 2013 438 
Q 2176 448 2285 474 
L 2285 1466 
Q 2221 1498 2077 1520 
Q 1933 1542 1728 1542 
Q 1594 1542 1443 1523 
Q 1293 1504 1168 1443 
Q 1043 1382 960 1276 
Q 877 1171 877 998 
Q 877 678 1081 553 
Q 1286 429 1638 429 
z
M 1587 3411 
Q 1946 3411 2192 3318 
Q 2438 3226 2588 3056 
Q 2739 2886 2803 2652 
Q 2867 2419 2867 2138 
L 2867 58 
Q 2790 45 2652 22 
Q 2515 0 2342 -19 
Q 2170 -38 1968 -54 
Q 1766 -70 1568 -70 
Q 1286 -70 1049 -12 
Q 813 45 640 169 
Q 467 294 371 499 
Q 275 704 275 992 
Q 275 1267 387 1465 
Q 499 1664 691 1785 
Q 883 1907 1139 1964 
Q 1395 2022 1677 2022 
Q 1766 2022 1862 2012 
Q 1958 2003 2044 1987 
Q 2131 1971 2195 1958 
Q 2259 1946 2285 1939 
L 2285 2106 
Q 2285 2253 2253 2397 
Q 2221 2541 2137 2653 
Q 2054 2765 1910 2832 
Q 1766 2899 1536 2899 
Q 1242 2899 1021 2857 
Q 800 2816 691 2771 
L 621 3264 
Q 736 3315 1005 3363 
Q 1274 3411 1587 3411 
z
" transform="scale(0.015625)"/>
       <path id="Ubuntu-443" d="M 122 -621 
Q 192 -653 304 -681 
Q 416 -710 525 -710 
Q 877 -710 1075 -553 
Q 1274 -397 1434 -45 
Q 1030 723 681 1584 
Q 333 2445 102 3328 
L 742 3328 
Q 813 3040 912 2707 
Q 1011 2374 1132 2022 
Q 1254 1670 1395 1318 
Q 1536 966 1690 640 
Q 1933 1312 2112 1971 
Q 2291 2630 2451 3328 
L 3066 3328 
Q 2835 2387 2553 1520 
Q 2272 653 1946 -102 
Q 1818 -390 1680 -598 
Q 1542 -806 1376 -940 
Q 1210 -1075 1002 -1139 
Q 794 -1203 531 -1203 
Q 461 -1203 384 -1193 
Q 307 -1184 233 -1168 
Q 160 -1152 99 -1133 
Q 38 -1114 13 -1101 
L 122 -621 
z
" transform="scale(0.015625)"/>
       <path id="Ubuntu-437" d="M 1357 3411 
Q 1645 3411 1894 3353 
Q 2144 3296 2323 3181 
Q 2502 3066 2604 2893 
Q 2707 2720 2707 2490 
Q 2707 2342 2656 2220 
Q 2605 2099 2528 2003 
Q 2451 1907 2358 1840 
Q 2266 1773 2182 1747 
Q 2477 1658 2646 1430 
Q 2816 1203 2816 858 
Q 2816 384 2432 153 
Q 2048 -77 1389 -77 
Q 986 -77 694 -13 
Q 403 51 282 109 
L 384 614 
Q 486 576 752 509 
Q 1018 442 1389 442 
Q 1792 442 2003 566 
Q 2214 691 2214 941 
Q 2214 1120 2134 1232 
Q 2054 1344 1932 1401 
Q 1811 1459 1670 1478 
Q 1530 1498 1408 1498 
L 851 1498 
L 851 1971 
L 1389 1971 
Q 1504 1971 1629 1987 
Q 1754 2003 1859 2054 
Q 1965 2106 2035 2198 
Q 2106 2291 2106 2445 
Q 2106 2566 2045 2652 
Q 1984 2739 1881 2796 
Q 1779 2854 1641 2883 
Q 1504 2912 1357 2912 
Q 1242 2912 1107 2893 
Q 973 2874 845 2845 
Q 717 2816 614 2784 
Q 512 2752 467 2726 
L 358 3238 
Q 410 3258 518 3290 
Q 627 3322 764 3347 
Q 902 3373 1056 3392 
Q 1210 3411 1357 3411 
z
" transform="scale(0.015625)"/>
       <path id="Ubuntu-439" d="M 3309 3328 
L 3309 0 
L 2733 0 
L 2733 2534 
Q 2541 2291 2310 1964 
Q 2080 1638 1849 1289 
Q 1619 941 1408 601 
Q 1197 262 1043 0 
L 512 0 
L 512 3328 
L 1088 3328 
L 1088 934 
Q 1254 1210 1465 1539 
Q 1677 1869 1904 2192 
Q 2131 2515 2358 2812 
Q 2586 3110 2784 3328 
L 3309 3328 
z
M 1917 3866 
Q 1514 3866 1261 4070 
Q 1008 4275 957 4640 
L 1411 4762 
Q 1462 4557 1584 4429 
Q 1706 4301 1917 4301 
Q 2128 4301 2249 4429 
Q 2371 4557 2422 4762 
L 2870 4640 
Q 2819 4275 2569 4070 
Q 2320 3866 1917 3866 
z
" transform="scale(0.015625)"/>
       <path id="Ubuntu-29" d="M 979 1914 
Q 979 2733 742 3430 
Q 506 4128 45 4723 
L 467 5011 
Q 966 4403 1270 3612 
Q 1574 2822 1574 1914 
Q 1574 1005 1270 214 
Q 966 -576 467 -1184 
L 45 -896 
Q 506 -301 742 396 
Q 979 1094 979 1914 
z
" transform="scale(0.015625)"/>
      </defs>
      <use xlink:href="#Ubuntu-41e"/>
      <use xlink:href="#Ubuntu-432" x="77.799988"/>
      <use xlink:href="#Ubuntu-43e" x="132.599976"/>
      <use xlink:href="#Ubuntu-449" x="191.59996"/>
      <use xlink:href="#Ubuntu-438" x="274.999954"/>
      <use xlink:href="#Ubuntu-20" x="334.699951"/>
      <use xlink:href="#Ubuntu-28" x="357.799942"/>
      <use xlink:href="#Ubuntu-441" x="390.199936"/>
      <use xlink:href="#Ubuntu-440" x="436.699921"/>
      <use xlink:href="#Ubuntu-435" x="495.599915"/>
      <use xlink:href="#Ubuntu-434" x="551.499908"/>
      <use xlink:href="#Ubuntu-43d" x="611.799896"/>
      <use xlink:href="#Ubuntu-44f" x="670.399887"/>
      <use xlink:href="#Ubuntu-44f" x="725.199875"/>
      <use xlink:href="#Ubuntu-20" x="779.999863"/>
      <use xlink:href="#Ubuntu-446" x="803.099854"/>
      <use xlink:href="#Ubuntu-435" x="861.699844"/>
      <use xlink:href="#Ubuntu-43d" x="917.599838"/>
      <use xlink:href="#Ubuntu-430" x="976.199829"/>
      <use xlink:href="#Ubuntu-20" x="1028.399826"/>
      <use xlink:href="#Ubuntu-443" x="1051.499817"/>
      <use xlink:href="#Ubuntu-20" x="1101.199814"/>
      <use xlink:href="#Ubuntu-43f" x="1124.299805"/>
      <use xlink:href="#Ubuntu-440" x="1182.099792"/>
      <use xlink:href="#Ubuntu-43e" x="1240.999786"/>
      <use xlink:href="#Ubuntu-438" x="1299.999771"/>
      <use xlink:href="#Ubuntu-437" x="1359.699768"/>
      <use xlink:href="#Ubuntu-432" x="1408.599762"/>
      <use xlink:href="#Ubuntu-43e" x="1463.39975"/>
      <use xlink:href="#Ubuntu-434" x="1522.399734"/>
      <use xlink:href="#Ubuntu-438" x="1582.699722"/>
      <use xlink:href="#Ubuntu-442" x="1642.399719"/>
      <use xlink:href="#Ubuntu-435" x="1688.699707"/>
      <use xlink:href="#Ubuntu-43b" x="1744.599701"/>
      <use xlink:href="#Ubuntu-435" x="1804.399689"/>
      <use xlink:href="#Ubuntu-439" x="1860.299683"/>
      <use xlink:href="#Ubuntu-29" x="1919.99968"/>
     </g>
    </g>
    <g id="line2d_33">
     <path d="M 45.2925 27.871875 
L 54.2925 27.871875 
L 63.2925 27.871875 
" style="fill: none; stroke: #7e6459; stroke-width: 1.25; stroke-linecap: square"/>
    </g>
    <g id="text_27">
     <!-- Картофель -->
     <g style="fill: #4b4b4b" transform="translate(70.4925 31.021875) scale(0.09 -0.09)">
      <defs>
       <path id="Ubuntu-41a" d="M 3834 4435 
Q 3635 4218 3385 3952 
Q 3136 3686 2864 3408 
Q 2592 3130 2323 2861 
Q 2054 2592 1818 2362 
Q 2093 2170 2400 1888 
Q 2707 1606 3001 1286 
Q 3296 966 3555 633 
Q 3814 301 3987 0 
L 3258 0 
Q 3066 301 2816 605 
Q 2566 909 2288 1187 
Q 2010 1466 1725 1702 
Q 1440 1939 1171 2106 
L 1171 0 
L 550 0 
L 550 4435 
L 1171 4435 
L 1171 2477 
Q 1395 2688 1664 2953 
Q 1933 3219 2195 3488 
Q 2458 3757 2691 4003 
Q 2925 4250 3085 4435 
L 3834 4435 
z
" transform="scale(0.015625)"/>
       <path id="Ubuntu-444" d="M 928 1664 
Q 928 1382 1021 1164 
Q 1114 947 1280 796 
Q 1446 646 1673 566 
Q 1901 486 2163 480 
L 2163 2848 
Q 1901 2842 1673 2758 
Q 1446 2675 1280 2524 
Q 1114 2374 1021 2156 
Q 928 1939 928 1664 
z
M 2739 480 
Q 3002 486 3229 566 
Q 3456 646 3622 796 
Q 3789 947 3881 1164 
Q 3974 1382 3974 1664 
Q 3974 1939 3881 2156 
Q 3789 2374 3622 2524 
Q 3456 2675 3229 2758 
Q 3002 2842 2739 2848 
L 2739 480 
z
M 2739 -1184 
L 2163 -1184 
L 2163 -19 
Q 1786 -13 1453 102 
Q 1120 218 867 432 
Q 614 646 467 956 
Q 320 1267 320 1664 
Q 320 2061 467 2371 
Q 614 2682 867 2896 
Q 1120 3110 1453 3225 
Q 1786 3341 2163 3347 
L 2163 4864 
L 2739 4966 
L 2739 3347 
Q 3110 3341 3446 3225 
Q 3782 3110 4035 2896 
Q 4288 2682 4435 2371 
Q 4582 2061 4582 1664 
Q 4582 1267 4435 956 
Q 4288 646 4035 432 
Q 3782 218 3446 102 
Q 3110 -13 2739 -19 
L 2739 -1184 
z
" transform="scale(0.015625)"/>
       <path id="Ubuntu-44c" d="M 1773 416 
Q 2150 416 2368 563 
Q 2586 710 2586 1037 
Q 2586 1197 2522 1312 
Q 2458 1427 2346 1500 
Q 2234 1574 2086 1609 
Q 1939 1645 1773 1645 
Q 1600 1645 1417 1635 
Q 1235 1626 1107 1594 
L 1107 448 
Q 1146 442 1222 435 
Q 1299 429 1392 425 
Q 1485 422 1584 419 
Q 1683 416 1773 416 
z
M 512 70 
L 512 3328 
L 1107 3328 
L 1107 2054 
Q 1158 2067 1244 2080 
Q 1331 2093 1430 2105 
Q 1530 2118 1638 2124 
Q 1747 2131 1843 2131 
Q 2118 2131 2361 2070 
Q 2605 2010 2787 1878 
Q 2970 1747 3078 1539 
Q 3187 1331 3187 1043 
Q 3187 742 3084 531 
Q 2982 320 2790 185 
Q 2598 51 2332 -9 
Q 2067 -70 1741 -70 
Q 1421 -70 1113 -35 
Q 806 0 512 70 
z
" transform="scale(0.015625)"/>
      </defs>
      <use xlink:href="#Ubuntu-41a"/>
      <use xlink:href="#Ubuntu-430" x="62.899994"/>
      <use xlink:href="#Ubuntu-440" x="115.099991"/>
      <use xlink:href="#Ubuntu-442" x="173.999985"/>
      <use xlink:href="#Ubuntu-43e" x="220.299973"/>
      <use xlink:href="#Ubuntu-444" x="279.299957"/>
      <use xlink:href="#Ubuntu-435" x="355.899948"/>
      <use xlink:href="#Ubuntu-43b" x="411.799942"/>
      <use xlink:href="#Ubuntu-44c" x="471.59993"/>
     </g>
    </g>
    <g id="line2d_34">
     <path d="M 264.209062 14.696719 
L 273.209062 14.696719 
L 282.209062 14.696719 
" style="fill: none; stroke: #489079; stroke-width: 1.25; stroke-linecap: square"/>
    </g>
    <g id="text_28">
     <!-- Огурцы -->
     <g style="fill: #4b4b4b" transform="translate(289.409062 17.846719) scale(0.09 -0.09)">
      <defs>
       <path id="Ubuntu-433" d="M 2573 2829 
L 1107 2829 
L 1107 0 
L 512 0 
L 512 3328 
L 2573 3328 
L 2573 2829 
z
" transform="scale(0.015625)"/>
       <path id="Ubuntu-44b" d="M 1734 1645 
Q 1562 1645 1398 1635 
Q 1235 1626 1107 1594 
L 1107 448 
Q 1146 442 1219 435 
Q 1293 429 1379 425 
Q 1466 422 1555 419 
Q 1645 416 1715 416 
Q 2106 416 2317 563 
Q 2528 710 2528 1037 
Q 2528 1197 2461 1312 
Q 2394 1427 2282 1500 
Q 2170 1574 2029 1609 
Q 1888 1645 1734 1645 
z
M 512 3328 
L 1107 3328 
L 1107 2054 
Q 1216 2080 1424 2105 
Q 1632 2131 1824 2131 
Q 2086 2131 2323 2070 
Q 2560 2010 2739 1878 
Q 2918 1747 3024 1539 
Q 3130 1331 3130 1043 
Q 3130 742 3027 531 
Q 2925 320 2739 185 
Q 2554 51 2291 -9 
Q 2029 -70 1715 -70 
Q 1414 -70 1107 -35 
Q 800 0 512 70 
L 512 3328 
z
M 4339 0 
L 3744 0 
L 3744 3328 
L 4339 3328 
L 4339 0 
z
" transform="scale(0.015625)"/>
      </defs>
      <use xlink:href="#Ubuntu-41e"/>
      <use xlink:href="#Ubuntu-433" x="77.799988"/>
      <use xlink:href="#Ubuntu-443" x="121.849976"/>
      <use xlink:href="#Ubuntu-440" x="171.549973"/>
      <use xlink:href="#Ubuntu-446" x="230.449966"/>
      <use xlink:href="#Ubuntu-44b" x="289.049957"/>
     </g>
    </g>
    <g id="line2d_35">
     <path d="M 264.209062 27.871875 
L 273.209062 27.871875 
L 282.209062 27.871875 
" style="fill: none; stroke: #b3625a; stroke-width: 1.25; stroke-linecap: square"/>
    </g>
    <g id="text_29">
     <!-- Помидоры -->
     <g style="fill: #4b4b4b" transform="translate(289.409062 31.021875) scale(0.09 -0.09)">
      <defs>
       <path id="Ubuntu-41f" d="M 3923 4435 
L 3923 0 
L 3302 0 
L 3302 3904 
L 1171 3904 
L 1171 0 
L 550 0 
L 550 4435 
L 3923 4435 
z
" transform="scale(0.015625)"/>
       <path id="Ubuntu-43c" d="M 1146 2451 
Q 1082 1818 1050 1187 
Q 1018 557 998 0 
L 429 0 
Q 442 390 467 816 
Q 493 1242 525 1674 
Q 557 2106 595 2525 
Q 634 2944 678 3328 
L 1222 3328 
Q 1427 2995 1702 2416 
Q 1978 1837 2336 1082 
Q 2694 1837 2969 2416 
Q 3245 2995 3450 3328 
L 4000 3328 
Q 4045 2944 4083 2525 
Q 4122 2106 4154 1674 
Q 4186 1242 4211 816 
Q 4237 390 4250 0 
L 3661 0 
Q 3642 557 3610 1187 
Q 3578 1818 3514 2451 
Q 3411 2253 3276 1974 
Q 3142 1696 3011 1408 
Q 2880 1120 2765 857 
Q 2650 595 2586 442 
L 2086 442 
Q 2016 602 1897 864 
Q 1779 1126 1648 1417 
Q 1517 1709 1382 1987 
Q 1248 2266 1146 2451 
z
" transform="scale(0.015625)"/>
      </defs>
      <use xlink:href="#Ubuntu-41f"/>
      <use xlink:href="#Ubuntu-43e" x="69.899994"/>
      <use xlink:href="#Ubuntu-43c" x="128.899979"/>
      <use xlink:href="#Ubuntu-438" x="201.999969"/>
      <use xlink:href="#Ubuntu-434" x="261.699966"/>
      <use xlink:href="#Ubuntu-43e" x="321.999954"/>
      <use xlink:href="#Ubuntu-440" x="380.999939"/>
      <use xlink:href="#Ubuntu-44b" x="439.899933"/>
     </g>
    </g>
    <g id="line2d_36">
     <path d="M 353.822344 14.696719 
L 362.822344 14.696719 
L 371.822344 14.696719 
" style="fill: none; stroke: #6893b8; stroke-width: 1.25; stroke-linecap: square"/>
    </g>
    <g id="text_30">
     <!-- Лук -->
     <g style="fill: #4b4b4b" transform="translate(379.022344 17.846719) scale(0.09 -0.09)">
      <defs>
       <path id="Ubuntu-41b" d="M 2067 3904 
Q 2054 3546 2041 3210 
Q 2029 2874 2003 2557 
Q 1978 2240 1926 1939 
Q 1875 1638 1786 1350 
Q 1696 1062 1565 809 
Q 1434 557 1238 368 
Q 1043 179 777 64 
Q 512 -51 154 -64 
L 83 474 
Q 531 525 777 755 
Q 1024 986 1184 1459 
Q 1363 1997 1411 2755 
Q 1459 3514 1459 4435 
L 3974 4435 
L 3974 0 
L 3354 0 
L 3354 3904 
L 2067 3904 
z
" transform="scale(0.015625)"/>
      </defs>
      <use xlink:href="#Ubuntu-41b"/>
      <use xlink:href="#Ubuntu-443" x="70.699982"/>
      <use xlink:href="#Ubuntu-43a" x="120.399979"/>
     </g>
    </g>
    <g id="line2d_37">
     <path d="M 412.692187 14.696719 
L 421.692187 14.696719 
L 430.692187 14.696719 
" style="fill: none; stroke: #d8805d; stroke-width: 1.25; stroke-linecap: square"/>
    </g>
    <g id="text_31">
     <!-- Морковь -->
     <g style="fill: #4b4b4b" transform="translate(437.892187 17.846719) scale(0.09 -0.09)">
      <defs>
       <path id="Ubuntu-41c" d="M 2541 614 
Q 2477 768 2371 1005 
Q 2266 1242 2144 1517 
Q 2022 1792 1884 2083 
Q 1747 2374 1625 2633 
Q 1504 2893 1398 3097 
Q 1293 3302 1229 3411 
Q 1158 2656 1113 1776 
Q 1069 896 1037 0 
L 429 0 
Q 454 576 486 1161 
Q 518 1747 560 2313 
Q 602 2880 650 3417 
Q 698 3955 755 4435 
L 1299 4435 
Q 1472 4154 1670 3770 
Q 1869 3386 2067 2966 
Q 2266 2547 2451 2128 
Q 2637 1709 2790 1363 
Q 2944 1709 3129 2128 
Q 3315 2547 3513 2966 
Q 3712 3386 3910 3770 
Q 4109 4154 4282 4435 
L 4826 4435 
Q 5043 2291 5152 0 
L 4544 0 
Q 4512 896 4467 1776 
Q 4422 2656 4352 3411 
Q 4288 3302 4182 3097 
Q 4077 2893 3955 2633 
Q 3834 2374 3696 2083 
Q 3558 1792 3436 1517 
Q 3315 1242 3209 1005 
Q 3104 768 3040 614 
L 2541 614 
z
" transform="scale(0.015625)"/>
      </defs>
      <use xlink:href="#Ubuntu-41c"/>
      <use xlink:href="#Ubuntu-43e" x="87.099991"/>
      <use xlink:href="#Ubuntu-440" x="146.099976"/>
      <use xlink:href="#Ubuntu-43a" x="204.999969"/>
      <use xlink:href="#Ubuntu-43e" x="255.824966"/>
      <use xlink:href="#Ubuntu-432" x="314.824951"/>
      <use xlink:href="#Ubuntu-44c" x="369.624939"/>
     </g>
    </g>
   </g>
   <g id="line2d_38">
    <path d="M 49.7475 151.666875 
L 526.8375 151.666875 
" clip-path="url(#p497a51eda7)" style="fill: none; stroke-dasharray: 2.775,1.2; stroke-dashoffset: 0; stroke: #c5c5c5; stroke-width: 0.75"/>
   </g>
  </g>
 </g>
 <defs>
  <clipPath id="pbc0e635e81">
   <rect x="37.1925" y="207.106875" width="502.2" height="0"/>
  </clipPath>
  <clipPath id="p497a51eda7">
   <rect x="37.1925" y="40.786875" width="502.2" height="166.32"/>
  </clipPath>
 </defs>
</svg>
