<?xml version="1.0" encoding="utf-8" standalone="no"?>
<!DOCTYPE svg PUBLIC "-//W3C//DTD SVG 1.1//EN"
  "http://www.w3.org/Graphics/SVG/1.1/DTD/svg11.dtd">
<svg xmlns:xlink="http://www.w3.org/1999/xlink" width="553.9125pt" height="209.062656pt" viewBox="0 0 553.9125 209.062656" xmlns="http://www.w3.org/2000/svg" version="1.1">
 <metadata>
  <rdf:RDF xmlns:dc="http://purl.org/dc/elements/1.1/" xmlns:cc="http://creativecommons.org/ns#" xmlns:rdf="http://www.w3.org/1999/02/22-rdf-syntax-ns#">
   <cc:Work>
    <dc:type rdf:resource="http://purl.org/dc/dcmitype/StillImage"/>
    <dc:date>2024-04-20T12:50:29.422750</dc:date>
    <dc:format>image/svg+xml</dc:format>
    <dc:creator>
     <cc:Agent>
      <dc:title>Matplotlib v3.8.0, https://matplotlib.org/</dc:title>
     </cc:Agent>
    </dc:creator>
   </cc:Work>
  </rdf:RDF>
 </metadata>
 <defs>
  <style type="text/css">*{stroke-linejoin: round; stroke-linecap: butt}</style>
 </defs>
 <g id="figure_1">
  <g id="patch_1">
   <path d="M 0 209.062656 
L 553.9125 209.062656 
L 553.9125 0 
L 0 0 
L 0 209.062656 
z
" style="fill: none"/>
  </g>
  <g id="axes_1">
   <g id="patch_2">
    <path d="M 37.1925 166.175156 
L 539.3925 166.175156 
L 539.3925 27.575156 
L 37.1925 27.575156 
L 37.1925 166.175156 
z
" style="fill: none"/>
   </g>
   <g id="axes_2">
    <g id="patch_3">
     <path d="M 37.1925 166.175156 
L 539.3925 166.175156 
L 539.3925 166.175156 
L 37.1925 166.175156 
L 37.1925 166.175156 
z
" style="fill: none"/>
    </g>
    <g id="matplotlib.axis_1">
     <g id="xtick_1">
      <g id="line2d_1">
       <path d="M 37.1925 166.175156 
L 37.1925 166.175156 
" clip-path="url(#pb98c730e02)" style="fill: none; stroke-dasharray: 0.5,0.825; stroke-dashoffset: 0; stroke: #d9d9d9; stroke-width: 0.5"/>
      </g>
      <g id="text_1">
       <!-- 2021 -->
       <g style="fill: #808080" transform="translate(28.1675 200.382656) scale(0.08 -0.08)">
        <defs>
         <path id="Ubuntu-32" d="M 2989 3302 
Q 2989 3072 2896 2857 
Q 2803 2643 2649 2435 
Q 2496 2227 2304 2025 
Q 2112 1824 1920 1632 
Q 1811 1523 1667 1376 
Q 1523 1229 1395 1069 
Q 1267 909 1180 761 
Q 1094 614 1094 506 
L 3136 506 
L 3136 0 
L 448 0 
Q 442 38 442 76 
Q 442 115 442 147 
Q 442 448 541 707 
Q 640 966 800 1196 
Q 960 1427 1158 1632 
Q 1357 1837 1549 2029 
Q 1709 2182 1853 2332 
Q 1997 2483 2109 2633 
Q 2221 2784 2288 2944 
Q 2355 3104 2355 3283 
Q 2355 3475 2294 3609 
Q 2234 3744 2131 3833 
Q 2029 3923 1891 3964 
Q 1754 4006 1600 4006 
Q 1414 4006 1260 3955 
Q 1107 3904 985 3837 
Q 864 3770 781 3696 
Q 698 3622 653 3584 
L 358 4006 
Q 416 4070 531 4163 
Q 646 4256 806 4339 
Q 966 4422 1164 4480 
Q 1363 4538 1594 4538 
Q 2291 4538 2640 4214 
Q 2989 3891 2989 3302 
z
" transform="scale(0.015625)"/>
         <path id="Ubuntu-30" d="M 320 2221 
Q 320 3334 713 3936 
Q 1107 4538 1805 4538 
Q 2502 4538 2896 3936 
Q 3290 3334 3290 2221 
Q 3290 1107 2896 505 
Q 2502 -96 1805 -96 
Q 1107 -96 713 505 
Q 320 1107 320 2221 
z
M 2662 2221 
Q 2662 2586 2620 2912 
Q 2579 3238 2480 3481 
Q 2381 3725 2214 3869 
Q 2048 4013 1805 4013 
Q 1562 4013 1395 3869 
Q 1229 3725 1129 3481 
Q 1030 3238 988 2912 
Q 947 2586 947 2221 
Q 947 1856 988 1529 
Q 1030 1203 1129 960 
Q 1229 717 1395 573 
Q 1562 429 1805 429 
Q 2048 429 2214 573 
Q 2381 717 2480 960 
Q 2579 1203 2620 1529 
Q 2662 1856 2662 2221 
z
" transform="scale(0.015625)"/>
         <path id="Ubuntu-31" d="M 595 3520 
Q 960 3661 1305 3881 
Q 1651 4102 1939 4435 
L 2362 4435 
L 2362 0 
L 1766 0 
L 1766 3610 
Q 1690 3539 1578 3462 
Q 1466 3386 1334 3315 
Q 1203 3245 1059 3181 
Q 915 3117 781 3072 
L 595 3520 
z
" transform="scale(0.015625)"/>
        </defs>
        <use xlink:href="#Ubuntu-32"/>
        <use xlink:href="#Ubuntu-30" x="56.399994"/>
        <use xlink:href="#Ubuntu-32" x="112.799988"/>
        <use xlink:href="#Ubuntu-31" x="169.199982"/>
       </g>
      </g>
     </g>
     <g id="xtick_2">
      <g id="line2d_2">
       <path d="M 191.748149 166.175156 
L 191.748149 166.175156 
" clip-path="url(#pb98c730e02)" style="fill: none; stroke-dasharray: 0.5,0.825; stroke-dashoffset: 0; stroke: #d9d9d9; stroke-width: 0.5"/>
      </g>
      <g id="text_2">
       <!-- 2022 -->
       <g style="fill: #808080" transform="translate(182.723149 200.382656) scale(0.08 -0.08)">
        <use xlink:href="#Ubuntu-32"/>
        <use xlink:href="#Ubuntu-30" x="56.399994"/>
        <use xlink:href="#Ubuntu-32" x="112.799988"/>
        <use xlink:href="#Ubuntu-32" x="169.199982"/>
       </g>
      </g>
     </g>
     <g id="xtick_3">
      <g id="line2d_3">
       <path d="M 346.303798 166.175156 
L 346.303798 166.175156 
" clip-path="url(#pb98c730e02)" style="fill: none; stroke-dasharray: 0.5,0.825; stroke-dashoffset: 0; stroke: #d9d9d9; stroke-width: 0.5"/>
      </g>
      <g id="text_3">
       <!-- 2023 -->
       <g style="fill: #808080" transform="translate(337.278798 200.382656) scale(0.08 -0.08)">
        <defs>
         <path id="Ubuntu-33" d="M 1446 435 
Q 2016 435 2262 659 
Q 2509 883 2509 1261 
Q 2509 1504 2406 1670 
Q 2304 1837 2137 1936 
Q 1971 2035 1750 2076 
Q 1530 2118 1299 2118 
L 1146 2118 
L 1146 2605 
L 1357 2605 
Q 1517 2605 1686 2637 
Q 1856 2669 1997 2752 
Q 2138 2835 2227 2979 
Q 2317 3123 2317 3341 
Q 2317 3520 2253 3648 
Q 2189 3776 2083 3859 
Q 1978 3942 1840 3977 
Q 1702 4013 1549 4013 
Q 1242 4013 1027 3923 
Q 813 3834 666 3738 
L 435 4192 
Q 512 4243 630 4304 
Q 749 4365 896 4416 
Q 1043 4467 1212 4502 
Q 1382 4538 1568 4538 
Q 1920 4538 2176 4451 
Q 2432 4365 2598 4208 
Q 2765 4051 2848 3836 
Q 2931 3622 2931 3373 
Q 2931 3027 2732 2780 
Q 2534 2534 2253 2406 
Q 2426 2355 2586 2259 
Q 2746 2163 2864 2016 
Q 2982 1869 3056 1677 
Q 3130 1485 3130 1248 
Q 3130 960 3030 713 
Q 2931 467 2723 288 
Q 2515 109 2201 6 
Q 1888 -96 1459 -96 
Q 1293 -96 1117 -70 
Q 941 -45 787 -6 
Q 634 32 518 70 
Q 403 109 352 134 
L 467 653 
Q 576 602 829 518 
Q 1082 435 1446 435 
z
" transform="scale(0.015625)"/>
        </defs>
        <use xlink:href="#Ubuntu-32"/>
        <use xlink:href="#Ubuntu-30" x="56.399994"/>
        <use xlink:href="#Ubuntu-32" x="112.799988"/>
        <use xlink:href="#Ubuntu-33" x="169.199982"/>
       </g>
      </g>
     </g>
     <g id="xtick_4">
      <g id="line2d_4">
       <path d="M 500.859448 166.175156 
L 500.859448 166.175156 
" clip-path="url(#pb98c730e02)" style="fill: none; stroke-dasharray: 0.5,0.825; stroke-dashoffset: 0; stroke: #d9d9d9; stroke-width: 0.5"/>
      </g>
      <g id="text_4">
       <!-- 2024 -->
       <g style="fill: #808080" transform="translate(491.834448 200.382656) scale(0.08 -0.08)">
        <defs>
         <path id="Ubuntu-34" d="M 256 1536 
Q 378 1818 589 2192 
Q 800 2566 1065 2963 
Q 1331 3360 1635 3744 
Q 1939 4128 2246 4435 
L 2816 4435 
L 2816 1619 
L 3341 1619 
L 3341 1133 
L 2816 1133 
L 2816 0 
L 2240 0 
L 2240 1133 
L 256 1133 
L 256 1536 
z
M 2240 3731 
Q 2048 3526 1853 3273 
Q 1658 3021 1472 2745 
Q 1286 2470 1123 2182 
Q 960 1894 832 1619 
L 2240 1619 
L 2240 3731 
z
" transform="scale(0.015625)"/>
        </defs>
        <use xlink:href="#Ubuntu-32"/>
        <use xlink:href="#Ubuntu-30" x="56.399994"/>
        <use xlink:href="#Ubuntu-32" x="112.799988"/>
        <use xlink:href="#Ubuntu-34" x="169.199982"/>
       </g>
      </g>
     </g>
    </g>
    <g id="matplotlib.axis_2"/>
   </g>
   <g id="matplotlib.axis_3">
    <g id="xtick_5">
     <g id="line2d_5">
      <defs>
       <path id="m6713fcd181" d="M 0 0 
L 0 3 
" style="stroke: #cccccc; stroke-width: 0.75"/>
      </defs>
      <g>
       <use xlink:href="#m6713fcd181" x="37.1925" y="176.175156" style="fill: #cccccc; stroke: #cccccc; stroke-width: 0.75"/>
      </g>
     </g>
     <g id="text_5">
      <!-- Янв -->
      <g style="fill: #808080" transform="translate(30.116875 191.382656) scale(0.08 -0.08)">
       <defs>
        <path id="Ubuntu-42f" d="M 2272 3936 
Q 2029 3936 1808 3897 
Q 1587 3859 1414 3763 
Q 1242 3667 1139 3500 
Q 1037 3334 1037 3085 
Q 1037 2611 1341 2428 
Q 1645 2246 2253 2246 
L 2893 2246 
L 2893 3917 
Q 2822 3917 2726 3923 
Q 2643 3930 2531 3933 
Q 2419 3936 2272 3936 
z
M 2323 4480 
Q 2458 4480 2611 4473 
Q 2765 4467 2921 4454 
Q 3078 4442 3232 4422 
Q 3386 4403 3514 4371 
L 3514 0 
L 2893 0 
L 2893 1734 
L 2362 1734 
Q 2272 1734 2173 1737 
Q 2074 1741 1907 1760 
Q 1792 1606 1657 1401 
Q 1523 1197 1388 966 
Q 1254 736 1123 486 
Q 992 237 883 0 
L 230 0 
Q 333 250 473 518 
Q 614 787 764 1030 
Q 915 1274 1052 1482 
Q 1190 1690 1293 1824 
Q 1146 1869 986 1952 
Q 826 2035 691 2182 
Q 557 2330 470 2550 
Q 384 2771 384 3078 
Q 384 3424 518 3686 
Q 653 3949 905 4125 
Q 1158 4301 1516 4390 
Q 1875 4480 2323 4480 
z
" transform="scale(0.015625)"/>
        <path id="Ubuntu-43d" d="M 3238 0 
L 2643 0 
L 2643 1472 
L 1107 1472 
L 1107 0 
L 512 0 
L 512 3328 
L 1107 3328 
L 1107 1971 
L 2643 1971 
L 2643 3328 
L 3238 3328 
L 3238 0 
z
" transform="scale(0.015625)"/>
        <path id="Ubuntu-432" d="M 1094 448 
Q 1133 442 1203 435 
Q 1274 429 1363 425 
Q 1453 422 1552 419 
Q 1651 416 1741 416 
Q 1926 416 2096 441 
Q 2266 467 2390 531 
Q 2515 595 2588 700 
Q 2662 806 2662 973 
Q 2662 1133 2595 1238 
Q 2528 1344 2413 1408 
Q 2298 1472 2141 1497 
Q 1984 1523 1805 1523 
L 1094 1523 
L 1094 448 
z
M 1728 1965 
Q 1901 1965 2045 1987 
Q 2189 2010 2294 2067 
Q 2400 2125 2461 2221 
Q 2522 2317 2522 2464 
Q 2522 2618 2445 2707 
Q 2368 2797 2243 2845 
Q 2118 2893 1961 2909 
Q 1805 2925 1645 2925 
Q 1498 2925 1347 2918 
Q 1197 2912 1094 2906 
L 1094 1965 
L 1728 1965 
z
M 1715 -58 
Q 1338 -58 1018 -22 
Q 698 13 512 58 
L 512 3296 
Q 698 3341 1018 3376 
Q 1338 3411 1715 3411 
Q 1978 3411 2227 3366 
Q 2477 3322 2669 3216 
Q 2861 3110 2979 2928 
Q 3098 2746 3098 2477 
Q 3098 2234 2976 2061 
Q 2854 1888 2650 1792 
Q 2925 1696 3088 1507 
Q 3251 1318 3251 979 
Q 3251 678 3132 480 
Q 3014 282 2806 160 
Q 2598 38 2316 -10 
Q 2035 -58 1715 -58 
z
" transform="scale(0.015625)"/>
       </defs>
       <use xlink:href="#Ubuntu-42f"/>
       <use xlink:href="#Ubuntu-43d" x="63.499985"/>
       <use xlink:href="#Ubuntu-432" x="122.099976"/>
      </g>
     </g>
    </g>
    <g id="xtick_6">
     <g id="line2d_6">
      <g>
       <use xlink:href="#m6713fcd181" x="75.302112" y="176.175156" style="fill: #cccccc; stroke: #cccccc; stroke-width: 0.75"/>
      </g>
     </g>
     <g id="text_6">
      <!-- Апр -->
      <g style="fill: #808080" transform="translate(67.982112 191.382656) scale(0.08 -0.08)">
       <defs>
        <path id="Ubuntu-410" d="M 3514 0 
Q 3405 288 3309 566 
Q 3213 845 3110 1133 
L 1101 1133 
L 698 0 
L 51 0 
Q 307 704 531 1302 
Q 755 1901 969 2438 
Q 1184 2976 1395 3465 
Q 1606 3955 1837 4435 
L 2406 4435 
Q 2637 3955 2848 3465 
Q 3059 2976 3273 2438 
Q 3488 1901 3712 1302 
Q 3936 704 4192 0 
L 3514 0 
z
M 2931 1645 
Q 2726 2202 2524 2723 
Q 2323 3245 2106 3725 
Q 1882 3245 1680 2723 
Q 1478 2202 1280 1645 
L 2931 1645 
z
" transform="scale(0.015625)"/>
        <path id="Ubuntu-43f" d="M 3187 0 
L 2592 0 
L 2592 2829 
L 1107 2829 
L 1107 0 
L 512 0 
L 512 3328 
L 3187 3328 
L 3187 0 
z
" transform="scale(0.015625)"/>
        <path id="Ubuntu-440" d="M 2822 1658 
Q 2822 2240 2534 2553 
Q 2246 2867 1766 2867 
Q 1498 2867 1347 2848 
Q 1197 2829 1107 2803 
L 1107 704 
Q 1216 614 1421 531 
Q 1626 448 1869 448 
Q 2125 448 2307 541 
Q 2490 634 2605 797 
Q 2720 960 2771 1181 
Q 2822 1402 2822 1658 
z
M 3443 1658 
Q 3443 1280 3344 960 
Q 3245 640 3053 409 
Q 2861 179 2582 51 
Q 2304 -77 1946 -77 
Q 1658 -77 1437 0 
Q 1216 77 1107 147 
L 1107 -1184 
L 512 -1184 
L 512 3226 
Q 723 3277 1040 3337 
Q 1357 3398 1773 3398 
Q 2157 3398 2464 3276 
Q 2771 3155 2988 2931 
Q 3206 2707 3324 2384 
Q 3443 2061 3443 1658 
z
" transform="scale(0.015625)"/>
       </defs>
       <use xlink:href="#Ubuntu-410"/>
       <use xlink:href="#Ubuntu-43f" x="66.299988"/>
       <use xlink:href="#Ubuntu-440" x="124.099976"/>
      </g>
     </g>
    </g>
    <g id="xtick_7">
     <g id="line2d_7">
      <g>
       <use xlink:href="#m6713fcd181" x="113.835164" y="176.175156" style="fill: #cccccc; stroke: #cccccc; stroke-width: 0.75"/>
      </g>
     </g>
     <g id="text_7">
      <!-- Июл -->
      <g style="fill: #808080" transform="translate(105.287664 191.382656) scale(0.08 -0.08)">
       <defs>
        <path id="Ubuntu-418" d="M 550 0 
L 550 4435 
L 1158 4435 
L 1158 1152 
Q 1363 1491 1660 1926 
Q 1958 2362 2294 2813 
Q 2630 3264 2972 3689 
Q 3315 4115 3616 4435 
L 4109 4435 
L 4109 0 
L 3501 0 
L 3501 3462 
Q 3322 3258 3110 2989 
Q 2899 2720 2675 2416 
Q 2451 2112 2224 1785 
Q 1997 1459 1785 1142 
Q 1574 826 1392 531 
Q 1210 237 1069 0 
L 550 0 
z
" transform="scale(0.015625)"/>
        <path id="Ubuntu-44e" d="M 1107 1952 
L 1837 1952 
Q 1875 2285 2006 2553 
Q 2138 2822 2336 3014 
Q 2534 3206 2790 3308 
Q 3046 3411 3341 3411 
Q 3667 3411 3945 3286 
Q 4224 3162 4429 2931 
Q 4634 2701 4749 2377 
Q 4864 2054 4864 1664 
Q 4864 1267 4749 947 
Q 4634 627 4429 396 
Q 4224 166 3945 41 
Q 3667 -83 3341 -83 
Q 3034 -83 2768 29 
Q 2502 141 2304 342 
Q 2106 544 1981 832 
Q 1856 1120 1830 1472 
L 1107 1472 
L 1107 0 
L 512 0 
L 512 3328 
L 1107 3328 
L 1107 1952 
z
M 4250 1664 
Q 4250 2227 4003 2556 
Q 3757 2886 3341 2886 
Q 2925 2886 2678 2556 
Q 2432 2227 2432 1664 
Q 2432 1101 2678 771 
Q 2925 442 3341 442 
Q 3757 442 4003 771 
Q 4250 1101 4250 1664 
z
" transform="scale(0.015625)"/>
        <path id="Ubuntu-43b" d="M 1670 2829 
Q 1670 2618 1660 2378 
Q 1651 2138 1625 1898 
Q 1600 1658 1555 1424 
Q 1510 1190 1440 986 
Q 1370 781 1264 601 
Q 1158 422 1004 284 
Q 851 147 646 54 
Q 442 -38 166 -64 
L 83 435 
Q 397 499 579 672 
Q 762 845 870 1094 
Q 966 1312 1011 1587 
Q 1056 1862 1075 2160 
Q 1094 2458 1097 2758 
Q 1101 3059 1101 3328 
L 3315 3328 
L 3315 0 
L 2720 0 
L 2720 2829 
L 1670 2829 
z
" transform="scale(0.015625)"/>
       </defs>
       <use xlink:href="#Ubuntu-418"/>
       <use xlink:href="#Ubuntu-44e" x="72.799988"/>
       <use xlink:href="#Ubuntu-43b" x="153.899979"/>
      </g>
     </g>
    </g>
    <g id="xtick_8">
     <g id="line2d_8">
      <g>
       <use xlink:href="#m6713fcd181" x="152.791657" y="176.175156" style="fill: #cccccc; stroke: #cccccc; stroke-width: 0.75"/>
      </g>
     </g>
     <g id="text_8">
      <!-- Окт -->
      <g style="fill: #808080" transform="translate(145.679782 191.382656) scale(0.08 -0.08)">
       <defs>
        <path id="Ubuntu-41e" d="M 371 2221 
Q 371 2790 540 3225 
Q 710 3661 1001 3952 
Q 1293 4243 1680 4390 
Q 2067 4538 2502 4538 
Q 2931 4538 3312 4390 
Q 3693 4243 3981 3952 
Q 4269 3661 4438 3225 
Q 4608 2790 4608 2221 
Q 4608 1651 4438 1216 
Q 4269 781 3981 489 
Q 3693 198 3312 51 
Q 2931 -96 2502 -96 
Q 2067 -96 1680 51 
Q 1293 198 1001 489 
Q 710 781 540 1216 
Q 371 1651 371 2221 
z
M 1024 2221 
Q 1024 1818 1126 1488 
Q 1229 1158 1417 928 
Q 1606 698 1878 573 
Q 2150 448 2490 448 
Q 2829 448 3097 573 
Q 3366 698 3555 928 
Q 3744 1158 3846 1488 
Q 3949 1818 3949 2221 
Q 3949 2624 3846 2953 
Q 3744 3283 3555 3513 
Q 3366 3744 3097 3869 
Q 2829 3994 2490 3994 
Q 2150 3994 1878 3869 
Q 1606 3744 1417 3513 
Q 1229 3283 1126 2953 
Q 1024 2624 1024 2221 
z
" transform="scale(0.015625)"/>
        <path id="Ubuntu-43a" d="M 1728 1811 
Q 1926 1670 2156 1456 
Q 2387 1242 2608 992 
Q 2829 742 3021 483 
Q 3213 224 3347 0 
L 2643 0 
Q 2502 218 2313 445 
Q 2125 672 1920 883 
Q 1715 1094 1504 1273 
Q 1293 1453 1107 1574 
L 1107 0 
L 512 0 
L 512 3328 
L 1107 3328 
L 1107 1901 
Q 1261 2048 1459 2243 
Q 1658 2438 1859 2640 
Q 2061 2842 2233 3024 
Q 2406 3206 2515 3328 
L 3206 3328 
Q 3066 3174 2877 2979 
Q 2688 2784 2486 2579 
Q 2285 2374 2086 2172 
Q 1888 1971 1728 1811 
z
" transform="scale(0.015625)"/>
        <path id="Ubuntu-442" d="M 2861 3328 
L 2861 2829 
L 1779 2829 
L 1779 0 
L 1184 0 
L 1184 2829 
L 102 2829 
L 102 3328 
L 2861 3328 
z
" transform="scale(0.015625)"/>
       </defs>
       <use xlink:href="#Ubuntu-41e"/>
       <use xlink:href="#Ubuntu-43a" x="77.799988"/>
       <use xlink:href="#Ubuntu-442" x="131.499985"/>
      </g>
     </g>
    </g>
    <g id="xtick_9">
     <g id="line2d_9">
      <g>
       <use xlink:href="#m6713fcd181" x="191.748149" y="176.175156" style="fill: #cccccc; stroke: #cccccc; stroke-width: 0.75"/>
      </g>
     </g>
     <g id="text_9">
      <!-- Янв -->
      <g style="fill: #808080" transform="translate(184.672524 191.382656) scale(0.08 -0.08)">
       <use xlink:href="#Ubuntu-42f"/>
       <use xlink:href="#Ubuntu-43d" x="63.499985"/>
       <use xlink:href="#Ubuntu-432" x="122.099976"/>
      </g>
     </g>
    </g>
    <g id="xtick_10">
     <g id="line2d_10">
      <g>
       <use xlink:href="#m6713fcd181" x="229.857761" y="176.175156" style="fill: #cccccc; stroke: #cccccc; stroke-width: 0.75"/>
      </g>
     </g>
     <g id="text_10">
      <!-- Апр -->
      <g style="fill: #808080" transform="translate(222.537761 191.382656) scale(0.08 -0.08)">
       <use xlink:href="#Ubuntu-410"/>
       <use xlink:href="#Ubuntu-43f" x="66.299988"/>
       <use xlink:href="#Ubuntu-440" x="124.099976"/>
      </g>
     </g>
    </g>
    <g id="xtick_11">
     <g id="line2d_11">
      <g>
       <use xlink:href="#m6713fcd181" x="268.390814" y="176.175156" style="fill: #cccccc; stroke: #cccccc; stroke-width: 0.75"/>
      </g>
     </g>
     <g id="text_11">
      <!-- Июл -->
      <g style="fill: #808080" transform="translate(259.843314 191.382656) scale(0.08 -0.08)">
       <use xlink:href="#Ubuntu-418"/>
       <use xlink:href="#Ubuntu-44e" x="72.799988"/>
       <use xlink:href="#Ubuntu-43b" x="153.899979"/>
      </g>
     </g>
    </g>
    <g id="xtick_12">
     <g id="line2d_12">
      <g>
       <use xlink:href="#m6713fcd181" x="307.347306" y="176.175156" style="fill: #cccccc; stroke: #cccccc; stroke-width: 0.75"/>
      </g>
     </g>
     <g id="text_12">
      <!-- Окт -->
      <g style="fill: #808080" transform="translate(300.235431 191.382656) scale(0.08 -0.08)">
       <use xlink:href="#Ubuntu-41e"/>
       <use xlink:href="#Ubuntu-43a" x="77.799988"/>
       <use xlink:href="#Ubuntu-442" x="131.499985"/>
      </g>
     </g>
    </g>
    <g id="xtick_13">
     <g id="line2d_13">
      <g>
       <use xlink:href="#m6713fcd181" x="346.303798" y="176.175156" style="fill: #cccccc; stroke: #cccccc; stroke-width: 0.75"/>
      </g>
     </g>
     <g id="text_13">
      <!-- Янв -->
      <g style="fill: #808080" transform="translate(339.228173 191.382656) scale(0.08 -0.08)">
       <use xlink:href="#Ubuntu-42f"/>
       <use xlink:href="#Ubuntu-43d" x="63.499985"/>
       <use xlink:href="#Ubuntu-432" x="122.099976"/>
      </g>
     </g>
    </g>
    <g id="xtick_14">
     <g id="line2d_14">
      <g>
       <use xlink:href="#m6713fcd181" x="384.413411" y="176.175156" style="fill: #cccccc; stroke: #cccccc; stroke-width: 0.75"/>
      </g>
     </g>
     <g id="text_14">
      <!-- Апр -->
      <g style="fill: #808080" transform="translate(377.093411 191.382656) scale(0.08 -0.08)">
       <use xlink:href="#Ubuntu-410"/>
       <use xlink:href="#Ubuntu-43f" x="66.299988"/>
       <use xlink:href="#Ubuntu-440" x="124.099976"/>
      </g>
     </g>
    </g>
    <g id="xtick_15">
     <g id="line2d_15">
      <g>
       <use xlink:href="#m6713fcd181" x="422.946463" y="176.175156" style="fill: #cccccc; stroke: #cccccc; stroke-width: 0.75"/>
      </g>
     </g>
     <g id="text_15">
      <!-- Июл -->
      <g style="fill: #808080" transform="translate(414.398963 191.382656) scale(0.08 -0.08)">
       <use xlink:href="#Ubuntu-418"/>
       <use xlink:href="#Ubuntu-44e" x="72.799988"/>
       <use xlink:href="#Ubuntu-43b" x="153.899979"/>
      </g>
     </g>
    </g>
    <g id="xtick_16">
     <g id="line2d_16">
      <g>
       <use xlink:href="#m6713fcd181" x="461.902955" y="176.175156" style="fill: #cccccc; stroke: #cccccc; stroke-width: 0.75"/>
      </g>
     </g>
     <g id="text_16">
      <!-- Окт -->
      <g style="fill: #808080" transform="translate(454.79108 191.382656) scale(0.08 -0.08)">
       <use xlink:href="#Ubuntu-41e"/>
       <use xlink:href="#Ubuntu-43a" x="77.799988"/>
       <use xlink:href="#Ubuntu-442" x="131.499985"/>
      </g>
     </g>
    </g>
    <g id="xtick_17">
     <g id="line2d_17">
      <g>
       <use xlink:href="#m6713fcd181" x="500.859448" y="176.175156" style="fill: #cccccc; stroke: #cccccc; stroke-width: 0.75"/>
      </g>
     </g>
     <g id="text_17">
      <!-- Янв -->
      <g style="fill: #808080" transform="translate(493.783823 191.382656) scale(0.08 -0.08)">
       <use xlink:href="#Ubuntu-42f"/>
       <use xlink:href="#Ubuntu-43d" x="63.499985"/>
       <use xlink:href="#Ubuntu-432" x="122.099976"/>
      </g>
     </g>
    </g>
    <g id="xtick_18">
     <g id="line2d_18">
      <g>
       <use xlink:href="#m6713fcd181" x="539.3925" y="176.175156" style="fill: #cccccc; stroke: #cccccc; stroke-width: 0.75"/>
      </g>
     </g>
     <g id="text_18">
      <!-- Апр -->
      <g style="fill: #808080" transform="translate(532.0725 191.382656) scale(0.08 -0.08)">
       <use xlink:href="#Ubuntu-410"/>
       <use xlink:href="#Ubuntu-43f" x="66.299988"/>
       <use xlink:href="#Ubuntu-440" x="124.099976"/>
      </g>
     </g>
    </g>
   </g>
   <g id="matplotlib.axis_4">
    <g id="ytick_1">
     <g id="line2d_19">
      <defs>
       <path id="me94f8cb4ae" d="M 0 0 
L -3 0 
" style="stroke: #cccccc; stroke-width: 0.75"/>
      </defs>
      <g>
       <use xlink:href="#me94f8cb4ae" x="27.1925" y="166.175156" style="fill: #cccccc; stroke: #cccccc; stroke-width: 0.75"/>
      </g>
     </g>
     <g id="text_19">
      <!-- 0.9 -->
      <g style="fill: #808080" transform="translate(7.2 169.278906) scale(0.08 -0.08)">
       <defs>
        <path id="Ubuntu-2e" d="M 1216 346 
Q 1216 173 1101 45 
Q 986 -83 787 -83 
Q 589 -83 473 45 
Q 358 173 358 346 
Q 358 518 473 646 
Q 589 774 787 774 
Q 986 774 1101 646 
Q 1216 518 1216 346 
z
" transform="scale(0.015625)"/>
        <path id="Ubuntu-39" d="M 3206 2662 
Q 3206 1344 2550 669 
Q 1894 -6 602 -13 
L 582 486 
Q 986 486 1309 563 
Q 1632 640 1875 809 
Q 2118 979 2281 1248 
Q 2445 1517 2522 1907 
Q 2355 1830 2144 1782 
Q 1933 1734 1709 1734 
Q 1331 1734 1068 1846 
Q 806 1958 640 2147 
Q 474 2336 400 2582 
Q 326 2829 326 3098 
Q 326 3334 409 3590 
Q 493 3846 662 4057 
Q 832 4269 1094 4403 
Q 1357 4538 1715 4538 
Q 2080 4538 2358 4410 
Q 2637 4282 2825 4038 
Q 3014 3795 3110 3446 
Q 3206 3098 3206 2662 
z
M 1773 2221 
Q 1997 2221 2195 2262 
Q 2394 2304 2579 2387 
Q 2586 2458 2586 2525 
Q 2586 2592 2586 2662 
Q 2586 2938 2547 3190 
Q 2509 3443 2409 3632 
Q 2310 3821 2144 3933 
Q 1978 4045 1722 4045 
Q 1510 4045 1363 3955 
Q 1216 3866 1120 3728 
Q 1024 3590 982 3427 
Q 941 3264 941 3110 
Q 941 2675 1149 2448 
Q 1357 2221 1773 2221 
z
" transform="scale(0.015625)"/>
       </defs>
       <use xlink:href="#Ubuntu-30"/>
       <use xlink:href="#Ubuntu-2e" x="56.399994"/>
       <use xlink:href="#Ubuntu-39" x="80.999985"/>
      </g>
     </g>
    </g>
    <g id="ytick_2">
     <g id="line2d_20">
      <g>
       <use xlink:href="#me94f8cb4ae" x="27.1925" y="146.375156" style="fill: #cccccc; stroke: #cccccc; stroke-width: 0.75"/>
      </g>
     </g>
     <g id="text_20">
      <!-- 1.0 -->
      <g style="fill: #808080" transform="translate(7.2 149.478906) scale(0.08 -0.08)">
       <use xlink:href="#Ubuntu-31"/>
       <use xlink:href="#Ubuntu-2e" x="56.399994"/>
       <use xlink:href="#Ubuntu-30" x="80.999985"/>
      </g>
     </g>
    </g>
    <g id="ytick_3">
     <g id="line2d_21">
      <g>
       <use xlink:href="#me94f8cb4ae" x="27.1925" y="126.575156" style="fill: #cccccc; stroke: #cccccc; stroke-width: 0.75"/>
      </g>
     </g>
     <g id="text_21">
      <!-- 1.1 -->
      <g style="fill: #808080" transform="translate(7.2 129.678906) scale(0.08 -0.08)">
       <use xlink:href="#Ubuntu-31"/>
       <use xlink:href="#Ubuntu-2e" x="56.399994"/>
       <use xlink:href="#Ubuntu-31" x="80.999985"/>
      </g>
     </g>
    </g>
    <g id="ytick_4">
     <g id="line2d_22">
      <g>
       <use xlink:href="#me94f8cb4ae" x="27.1925" y="106.775156" style="fill: #cccccc; stroke: #cccccc; stroke-width: 0.75"/>
      </g>
     </g>
     <g id="text_22">
      <!-- 1.2 -->
      <g style="fill: #808080" transform="translate(7.2 109.878906) scale(0.08 -0.08)">
       <use xlink:href="#Ubuntu-31"/>
       <use xlink:href="#Ubuntu-2e" x="56.399994"/>
       <use xlink:href="#Ubuntu-32" x="80.999985"/>
      </g>
     </g>
    </g>
    <g id="ytick_5">
     <g id="line2d_23">
      <g>
       <use xlink:href="#me94f8cb4ae" x="27.1925" y="86.975156" style="fill: #cccccc; stroke: #cccccc; stroke-width: 0.75"/>
      </g>
     </g>
     <g id="text_23">
      <!-- 1.3 -->
      <g style="fill: #808080" transform="translate(7.2 90.078906) scale(0.08 -0.08)">
       <use xlink:href="#Ubuntu-31"/>
       <use xlink:href="#Ubuntu-2e" x="56.399994"/>
       <use xlink:href="#Ubuntu-33" x="80.999985"/>
      </g>
     </g>
    </g>
    <g id="ytick_6">
     <g id="line2d_24">
      <g>
       <use xlink:href="#me94f8cb4ae" x="27.1925" y="67.175156" style="fill: #cccccc; stroke: #cccccc; stroke-width: 0.75"/>
      </g>
     </g>
     <g id="text_24">
      <!-- 1.4 -->
      <g style="fill: #808080" transform="translate(7.2 70.278906) scale(0.08 -0.08)">
       <use xlink:href="#Ubuntu-31"/>
       <use xlink:href="#Ubuntu-2e" x="56.399994"/>
       <use xlink:href="#Ubuntu-34" x="80.999985"/>
      </g>
     </g>
    </g>
    <g id="ytick_7">
     <g id="line2d_25">
      <g>
       <use xlink:href="#me94f8cb4ae" x="27.1925" y="47.375156" style="fill: #cccccc; stroke: #cccccc; stroke-width: 0.75"/>
      </g>
     </g>
     <g id="text_25">
      <!-- 1.5 -->
      <g style="fill: #808080" transform="translate(7.2 50.478906) scale(0.08 -0.08)">
       <defs>
        <path id="Ubuntu-35" d="M 1274 2726 
Q 2240 2688 2691 2304 
Q 3142 1920 3142 1261 
Q 3142 966 3043 716 
Q 2944 467 2742 288 
Q 2541 109 2233 6 
Q 1926 -96 1504 -96 
Q 1338 -96 1165 -70 
Q 992 -45 845 -6 
Q 698 32 582 70 
Q 467 109 416 134 
L 531 653 
Q 640 602 886 518 
Q 1133 435 1491 435 
Q 1779 435 1974 499 
Q 2170 563 2291 672 
Q 2413 781 2467 925 
Q 2522 1069 2522 1229 
Q 2522 1472 2438 1661 
Q 2355 1850 2144 1978 
Q 1933 2106 1581 2173 
Q 1229 2240 691 2240 
Q 730 2554 752 2829 
Q 774 3104 793 3366 
Q 813 3629 825 3888 
Q 838 4147 851 4435 
L 2989 4435 
L 2989 3930 
L 1370 3930 
Q 1363 3834 1350 3670 
Q 1338 3507 1325 3331 
Q 1312 3155 1299 2988 
Q 1286 2822 1274 2726 
z
" transform="scale(0.015625)"/>
       </defs>
       <use xlink:href="#Ubuntu-31"/>
       <use xlink:href="#Ubuntu-2e" x="56.399994"/>
       <use xlink:href="#Ubuntu-35" x="80.999985"/>
      </g>
     </g>
    </g>
    <g id="ytick_8">
     <g id="line2d_26">
      <g>
       <use xlink:href="#me94f8cb4ae" x="27.1925" y="27.575156" style="fill: #cccccc; stroke: #cccccc; stroke-width: 0.75"/>
      </g>
     </g>
     <g id="text_26">
      <!-- 1.6 -->
      <g style="fill: #808080" transform="translate(7.2 30.678906) scale(0.08 -0.08)">
       <defs>
        <path id="Ubuntu-36" d="M 403 1779 
Q 403 2426 582 2922 
Q 762 3418 1091 3757 
Q 1421 4096 1891 4272 
Q 2362 4448 2950 4454 
L 2995 3955 
Q 2618 3949 2307 3872 
Q 1997 3795 1753 3628 
Q 1510 3462 1344 3196 
Q 1178 2931 1094 2541 
Q 1261 2618 1469 2669 
Q 1677 2720 1901 2720 
Q 2278 2720 2540 2605 
Q 2803 2490 2969 2301 
Q 3136 2112 3209 1865 
Q 3283 1619 3283 1350 
Q 3283 1107 3200 851 
Q 3117 595 2947 384 
Q 2778 173 2515 38 
Q 2253 -96 1894 -96 
Q 1165 -96 784 403 
Q 403 902 403 1779 
z
M 1837 2234 
Q 1613 2234 1421 2192 
Q 1229 2150 1037 2067 
Q 1030 1997 1027 1923 
Q 1024 1850 1024 1779 
Q 1024 1498 1062 1248 
Q 1101 998 1200 809 
Q 1299 621 1465 509 
Q 1632 397 1888 397 
Q 2099 397 2246 486 
Q 2394 576 2490 717 
Q 2586 858 2627 1021 
Q 2669 1184 2669 1338 
Q 2669 1773 2461 2003 
Q 2253 2234 1837 2234 
z
" transform="scale(0.015625)"/>
       </defs>
       <use xlink:href="#Ubuntu-31"/>
       <use xlink:href="#Ubuntu-2e" x="56.399994"/>
       <use xlink:href="#Ubuntu-36" x="80.999985"/>
      </g>
     </g>
    </g>
   </g>
   <g id="line2d_27">
    <path d="M 37.1925 146.375156 
L 38.828197 146.735071 
L 40.463894 146.910672 
L 42.099591 146.920787 
L 43.735287 146.78424 
L 47.006681 146.146471 
L 50.278075 145.147977 
L 55.185165 143.303341 
L 60.092256 141.494264 
L 63.363649 140.558879 
L 66.635043 139.946097 
L 71.542134 139.38692 
L 76.449224 138.842874 
L 81.356315 138.020826 
L 89.534799 136.570875 
L 94.441889 135.992249 
L 99.34898 135.627065 
L 112.434555 134.858672 
L 115.705948 134.390685 
L 118.977342 133.698042 
L 122.248736 132.761325 
L 125.520129 131.56298 
L 128.791523 130.088446 
L 140.241401 124.36561 
L 143.512795 123.202159 
L 146.784188 122.296277 
L 153.326976 120.836371 
L 163.141157 118.757288 
L 166.412551 118.253904 
L 177.862428 116.904469 
L 181.133822 116.161308 
L 189.312306 114.018191 
L 192.5837 113.558343 
L 197.490791 113.198836 
L 199.126487 112.906232 
L 200.762184 112.411045 
L 202.397881 111.643557 
L 204.033578 110.534048 
L 205.669275 109.022996 
L 207.304972 107.152346 
L 210.576365 102.733454 
L 213.847759 98.08322 
L 215.483456 95.923393 
L 217.119153 94.008183 
L 218.754849 92.423607 
L 220.390546 91.15996 
L 222.026243 90.169452 
L 223.66194 89.404195 
L 225.297637 88.816302 
L 228.569031 87.98106 
L 241.654605 85.345995 
L 244.925999 84.955671 
L 249.833089 84.665691 
L 269.461452 84.135128 
L 276.004239 84.339559 
L 282.547026 84.547622 
L 287.454117 84.497147 
L 292.361207 84.195349 
L 297.268298 83.602 
L 307.082479 82.140692 
L 311.989569 81.72096 
L 321.803751 81.058184 
L 329.982235 80.078915 
L 336.525022 79.418379 
L 356.153384 78.080555 
L 365.967565 77.505307 
L 377.417443 76.828121 
L 385.595927 76.092437 
L 398.681502 74.750283 
L 406.859986 74.339258 
L 415.038471 73.856598 
L 423.216955 73.113714 
L 429.759742 72.360359 
L 434.666833 71.550646 
L 437.938226 70.819774 
L 442.845317 69.453514 
L 457.566588 64.972187 
L 460.837982 64.220855 
L 464.109376 63.661222 
L 469.016466 63.101949 
L 477.194951 62.279782 
L 482.102041 61.51125 
L 485.373435 60.813445 
L 488.644828 59.934338 
L 493.551919 58.312607 
L 503.3661 54.868346 
L 513.180281 51.852453 
L 519.723068 49.74413 
L 524.630159 47.927107 
L 526.265856 47.254898 
L 526.265856 47.254898 
" clip-path="url(#p4179540544)" style="fill: none; stroke: #af5a51; stroke-width: 1.5; stroke-linecap: square"/>
   </g>
   <g id="line2d_28">
    <path d="M 37.1925 146.375156 
L 38.787127 149.037653 
L 40.381755 150.915502 
L 41.976382 152.09813 
L 43.57101 152.674963 
L 45.165637 152.735427 
L 46.760264 152.36895 
L 48.354892 151.664956 
L 49.949519 150.712874 
L 56.328029 146.212181 
L 57.922656 145.361049 
L 59.517284 144.798387 
L 61.111911 144.61362 
L 62.706538 144.896176 
L 64.301166 145.709087 
L 65.895793 146.942386 
L 70.679675 151.367437 
L 72.274303 152.484731 
L 73.86893 153.123441 
L 75.463558 153.103737 
L 77.058185 152.272676 
L 78.652812 150.706169 
L 80.24744 148.595792 
L 83.436695 143.513301 
L 85.031322 140.926125 
L 86.625949 138.564953 
L 88.220577 136.622254 
L 89.815204 135.274489 
L 91.409832 134.517987 
L 93.004459 134.23563 
L 94.599086 134.308528 
L 96.193714 134.617792 
L 99.382969 135.469865 
L 100.977596 135.774895 
L 102.572223 135.846586 
L 104.166851 135.661331 
L 105.761478 135.265353 
L 108.950733 134.033539 
L 115.329242 131.155268 
L 118.518497 130.117464 
L 121.707752 129.346925 
L 128.086262 128.171355 
L 131.275516 127.654201 
L 134.464771 127.403602 
L 136.059399 127.456204 
L 137.654026 127.668975 
L 139.248653 128.073092 
L 140.843281 128.698826 
L 144.032536 130.473352 
L 147.22179 132.331625 
L 148.816418 133.056334 
L 150.411045 133.518981 
L 152.005673 133.625233 
L 153.6003 133.281379 
L 155.194927 132.455743 
L 156.789555 131.230634 
L 158.384182 129.700592 
L 161.573437 126.103874 
L 164.762692 122.421912 
L 166.357319 120.785203 
L 167.951947 119.382691 
L 169.546574 118.216786 
L 171.141201 117.280913 
L 172.735829 116.568496 
L 174.330456 116.07296 
L 175.925084 115.787731 
L 177.519711 115.706233 
L 179.114338 115.821885 
L 180.708966 116.120239 
L 183.898221 117.111849 
L 190.27673 119.51583 
L 191.871358 119.963055 
L 193.465985 120.278469 
L 196.65524 120.592805 
L 206.223004 120.983694 
L 209.412259 121.273168 
L 211.006886 121.26265 
L 212.601514 121.054674 
L 214.196141 120.578773 
L 215.790769 119.764482 
L 217.385396 118.541334 
L 218.980023 116.858019 
L 220.574651 114.778642 
L 223.763906 109.860268 
L 228.547788 102.191606 
L 230.142415 99.986544 
L 231.737043 98.121075 
L 233.33167 96.573669 
L 234.926297 95.269301 
L 238.115552 93.08834 
L 241.304807 90.975517 
L 242.899434 89.756322 
L 244.494062 88.338583 
L 250.872571 82.143558 
L 252.467199 80.987581 
L 254.061826 80.198549 
L 255.656453 79.881381 
L 257.251081 80.131217 
L 258.845708 80.908768 
L 260.440336 82.076988 
L 263.62959 85.028446 
L 265.224218 86.533186 
L 266.818845 87.871602 
L 268.413473 88.904447 
L 270.0081 89.499573 
L 271.602727 89.660835 
L 273.197355 89.514434 
L 277.981237 88.534872 
L 279.575864 88.463439 
L 281.170492 88.737153 
L 282.765119 89.481842 
L 284.359747 90.690522 
L 287.549001 93.873678 
L 289.143629 95.523501 
L 290.738256 96.995717 
L 292.332884 98.128001 
L 293.927511 98.758025 
L 295.522138 98.726641 
L 297.116766 98.015595 
L 298.711393 96.800402 
L 301.900648 93.615983 
L 303.495275 92.025962 
L 305.089903 90.690204 
L 306.68453 89.798312 
L 308.279158 89.538317 
L 309.873785 89.974031 
L 311.468412 90.95716 
L 313.06304 92.318669 
L 317.846922 96.983138 
L 319.441549 98.167826 
L 321.036177 98.886196 
L 322.630804 99.051732 
L 324.225432 98.752873 
L 325.820059 98.100521 
L 327.414686 97.20558 
L 332.198569 94.174246 
L 333.793196 93.41792 
L 335.387823 92.941128 
L 336.982451 92.735829 
L 338.577078 92.779609 
L 340.171706 93.05005 
L 341.766333 93.524739 
L 343.36096 94.18126 
L 344.955588 94.997197 
L 348.144843 97.011285 
L 352.928725 100.32089 
L 354.523352 101.282553 
L 356.11798 102.081652 
L 357.712607 102.66311 
L 359.307234 102.97185 
L 360.901862 102.969001 
L 362.496489 102.685992 
L 364.091117 102.173309 
L 365.685744 101.481439 
L 368.874999 99.762087 
L 373.658881 97.097836 
L 376.848136 95.74291 
L 378.442763 95.263859 
L 380.037391 94.944998 
L 381.632018 94.807265 
L 383.226645 94.871596 
L 384.821273 95.158929 
L 386.4159 95.679678 
L 392.79441 98.475503 
L 394.389037 98.865275 
L 395.983664 98.936364 
L 397.578292 98.591265 
L 399.172919 97.747927 
L 400.767547 96.468303 
L 403.956801 93.162302 
L 407.146056 89.80139 
L 408.740684 88.453129 
L 410.335311 87.514484 
L 411.929938 87.113918 
L 413.524566 87.222782 
L 415.119193 87.706078 
L 418.308448 89.247931 
L 419.903075 90.032471 
L 421.497703 90.643409 
L 423.09233 90.943736 
L 424.686958 90.804358 
L 426.281585 90.231267 
L 427.876212 89.343685 
L 434.254722 85.102884 
L 435.849349 84.483675 
L 437.443977 84.281834 
L 439.038604 84.505883 
L 440.633232 85.050682 
L 443.822486 86.660922 
L 447.011741 88.229343 
L 448.606369 88.721867 
L 450.200996 88.874906 
L 451.795623 88.662124 
L 453.390251 88.162059 
L 456.579506 86.641688 
L 459.76876 84.996995 
L 461.363388 84.341529 
L 462.958015 83.910308 
L 464.552643 83.731754 
L 466.14727 83.745208 
L 472.52578 84.34761 
L 474.120407 84.292482 
L 475.715034 84.018247 
L 477.309662 83.499999 
L 480.498917 81.98486 
L 483.688171 80.304235 
L 485.282799 79.579129 
L 486.877426 79.025369 
L 488.472054 78.713783 
L 490.066681 78.687019 
L 491.661308 78.91776 
L 493.255936 79.368013 
L 494.850563 79.999786 
L 498.039818 81.65592 
L 506.012955 86.313362 
L 507.607582 87.029556 
L 509.20221 87.585336 
L 510.796837 87.942709 
L 512.391465 88.063683 
L 513.986092 87.910264 
L 513.986092 87.910264 
" clip-path="url(#p4179540544)" style="fill: none; stroke-dasharray: 5.55,2.4; stroke-dashoffset: 0; stroke: #5d5d5d; stroke-width: 1.5"/>
   </g>
   <g id="patch_4">
    <path d="M 27.1925 166.175156 
L 27.1925 27.575156 
" style="fill: none; stroke: #cccccc; stroke-width: 0.75; stroke-linejoin: miter; stroke-linecap: square"/>
   </g>
   <g id="patch_5">
    <path d="M 37.1925 176.175156 
L 539.3925 176.175156 
" style="fill: none; stroke: #cccccc; stroke-width: 0.75; stroke-linejoin: miter; stroke-linecap: square"/>
   </g>
   <g id="legend_1">
    <g id="line2d_29">
     <path d="M 45.2925 14.633438 
L 54.2925 14.633438 
L 63.2925 14.633438 
" style="fill: none; stroke: #af5a51; stroke-width: 1.5; stroke-linecap: square"/>
    </g>
    <g id="text_27">
     <!-- Цена говядины -->
     <g style="fill: #4b4b4b" transform="translate(70.4925 17.783438) scale(0.09 -0.09)">
      <defs>
       <path id="Ubuntu-426" d="M 3923 531 
L 4480 531 
L 4480 -1184 
L 3891 -1184 
L 3891 0 
L 550 0 
L 550 4435 
L 1171 4435 
L 1171 531 
L 3302 531 
L 3302 4435 
L 3923 4435 
L 3923 531 
z
" transform="scale(0.015625)"/>
       <path id="Ubuntu-435" d="M 326 1658 
Q 326 2099 454 2428 
Q 582 2758 793 2976 
Q 1005 3194 1280 3302 
Q 1555 3411 1843 3411 
Q 2515 3411 2873 2992 
Q 3232 2573 3232 1715 
Q 3232 1677 3232 1616 
Q 3232 1555 3226 1504 
L 947 1504 
Q 986 986 1248 717 
Q 1510 448 2067 448 
Q 2381 448 2595 502 
Q 2810 557 2918 608 
L 3002 109 
Q 2893 51 2621 -13 
Q 2349 -77 2003 -77 
Q 1568 -77 1251 54 
Q 934 186 729 416 
Q 525 646 425 963 
Q 326 1280 326 1658 
z
M 2611 1984 
Q 2618 2387 2410 2646 
Q 2202 2906 1837 2906 
Q 1632 2906 1475 2826 
Q 1318 2746 1209 2618 
Q 1101 2490 1040 2323 
Q 979 2157 960 1984 
L 2611 1984 
z
" transform="scale(0.015625)"/>
       <path id="Ubuntu-430" d="M 1638 429 
Q 1850 429 2013 438 
Q 2176 448 2285 474 
L 2285 1466 
Q 2221 1498 2077 1520 
Q 1933 1542 1728 1542 
Q 1594 1542 1443 1523 
Q 1293 1504 1168 1443 
Q 1043 1382 960 1276 
Q 877 1171 877 998 
Q 877 678 1081 553 
Q 1286 429 1638 429 
z
M 1587 3411 
Q 1946 3411 2192 3318 
Q 2438 3226 2588 3056 
Q 2739 2886 2803 2652 
Q 2867 2419 2867 2138 
L 2867 58 
Q 2790 45 2652 22 
Q 2515 0 2342 -19 
Q 2170 -38 1968 -54 
Q 1766 -70 1568 -70 
Q 1286 -70 1049 -12 
Q 813 45 640 169 
Q 467 294 371 499 
Q 275 704 275 992 
Q 275 1267 387 1465 
Q 499 1664 691 1785 
Q 883 1907 1139 1964 
Q 1395 2022 1677 2022 
Q 1766 2022 1862 2012 
Q 1958 2003 2044 1987 
Q 2131 1971 2195 1958 
Q 2259 1946 2285 1939 
L 2285 2106 
Q 2285 2253 2253 2397 
Q 2221 2541 2137 2653 
Q 2054 2765 1910 2832 
Q 1766 2899 1536 2899 
Q 1242 2899 1021 2857 
Q 800 2816 691 2771 
L 621 3264 
Q 736 3315 1005 3363 
Q 1274 3411 1587 3411 
z
" transform="scale(0.015625)"/>
       <path id="Ubuntu-20" transform="scale(0.015625)"/>
       <path id="Ubuntu-433" d="M 2573 2829 
L 1107 2829 
L 1107 0 
L 512 0 
L 512 3328 
L 2573 3328 
L 2573 2829 
z
" transform="scale(0.015625)"/>
       <path id="Ubuntu-43e" d="M 3450 1664 
Q 3450 1267 3334 947 
Q 3219 627 3011 396 
Q 2803 166 2515 41 
Q 2227 -83 1888 -83 
Q 1549 -83 1261 41 
Q 973 166 765 396 
Q 557 627 441 947 
Q 326 1267 326 1664 
Q 326 2054 441 2377 
Q 557 2701 765 2931 
Q 973 3162 1261 3286 
Q 1549 3411 1888 3411 
Q 2227 3411 2515 3286 
Q 2803 3162 3011 2931 
Q 3219 2701 3334 2377 
Q 3450 2054 3450 1664 
z
M 2829 1664 
Q 2829 2227 2576 2556 
Q 2323 2886 1888 2886 
Q 1453 2886 1200 2556 
Q 947 2227 947 1664 
Q 947 1101 1200 771 
Q 1453 442 1888 442 
Q 2323 442 2576 771 
Q 2829 1101 2829 1664 
z
" transform="scale(0.015625)"/>
       <path id="Ubuntu-44f" d="M 1888 1293 
Q 1792 1293 1702 1296 
Q 1613 1299 1530 1306 
Q 1325 998 1136 649 
Q 947 301 800 0 
L 198 0 
Q 275 186 377 381 
Q 480 576 585 761 
Q 691 947 800 1113 
Q 909 1280 1005 1414 
Q 826 1478 710 1571 
Q 595 1664 524 1779 
Q 454 1894 425 2025 
Q 397 2157 397 2291 
Q 397 2573 502 2784 
Q 608 2995 793 3132 
Q 979 3270 1232 3340 
Q 1485 3411 1786 3411 
Q 2208 3411 2502 3372 
Q 2797 3334 2995 3283 
L 2995 0 
L 2406 0 
L 2406 1293 
L 1888 1293 
z
M 2406 2886 
Q 2336 2899 2173 2912 
Q 2010 2925 1798 2925 
Q 1434 2925 1210 2774 
Q 986 2624 986 2298 
Q 986 1978 1216 1856 
Q 1446 1734 1811 1734 
L 2406 1734 
L 2406 2886 
z
" transform="scale(0.015625)"/>
       <path id="Ubuntu-434" d="M 102 486 
L 461 486 
Q 672 794 797 1120 
Q 922 1446 986 1795 
Q 1050 2144 1069 2525 
Q 1088 2906 1094 3328 
L 3277 3328 
L 3277 486 
L 3725 486 
L 3725 -928 
L 3162 -928 
L 3162 0 
L 666 0 
L 666 -928 
L 102 -928 
L 102 486 
z
M 2682 486 
L 2682 2829 
L 1638 2829 
Q 1632 2528 1606 2224 
Q 1581 1920 1523 1622 
Q 1466 1325 1360 1040 
Q 1254 755 1094 486 
L 2682 486 
z
" transform="scale(0.015625)"/>
       <path id="Ubuntu-438" d="M 3309 3328 
L 3309 0 
L 2733 0 
L 2733 2534 
Q 2541 2291 2310 1964 
Q 2080 1638 1849 1289 
Q 1619 941 1408 601 
Q 1197 262 1043 0 
L 512 0 
L 512 3328 
L 1088 3328 
L 1088 934 
Q 1254 1210 1465 1539 
Q 1677 1869 1904 2192 
Q 2131 2515 2358 2812 
Q 2586 3110 2784 3328 
L 3309 3328 
z
" transform="scale(0.015625)"/>
       <path id="Ubuntu-44b" d="M 1734 1645 
Q 1562 1645 1398 1635 
Q 1235 1626 1107 1594 
L 1107 448 
Q 1146 442 1219 435 
Q 1293 429 1379 425 
Q 1466 422 1555 419 
Q 1645 416 1715 416 
Q 2106 416 2317 563 
Q 2528 710 2528 1037 
Q 2528 1197 2461 1312 
Q 2394 1427 2282 1500 
Q 2170 1574 2029 1609 
Q 1888 1645 1734 1645 
z
M 512 3328 
L 1107 3328 
L 1107 2054 
Q 1216 2080 1424 2105 
Q 1632 2131 1824 2131 
Q 2086 2131 2323 2070 
Q 2560 2010 2739 1878 
Q 2918 1747 3024 1539 
Q 3130 1331 3130 1043 
Q 3130 742 3027 531 
Q 2925 320 2739 185 
Q 2554 51 2291 -9 
Q 2029 -70 1715 -70 
Q 1414 -70 1107 -35 
Q 800 0 512 70 
L 512 3328 
z
M 4339 0 
L 3744 0 
L 3744 3328 
L 4339 3328 
L 4339 0 
z
" transform="scale(0.015625)"/>
      </defs>
      <use xlink:href="#Ubuntu-426"/>
      <use xlink:href="#Ubuntu-435" x="71.799988"/>
      <use xlink:href="#Ubuntu-43d" x="127.699982"/>
      <use xlink:href="#Ubuntu-430" x="186.299973"/>
      <use xlink:href="#Ubuntu-20" x="238.499969"/>
      <use xlink:href="#Ubuntu-433" x="261.59996"/>
      <use xlink:href="#Ubuntu-43e" x="303.399948"/>
      <use xlink:href="#Ubuntu-432" x="362.399933"/>
      <use xlink:href="#Ubuntu-44f" x="417.199921"/>
      <use xlink:href="#Ubuntu-434" x="471.999908"/>
      <use xlink:href="#Ubuntu-438" x="532.299896"/>
      <use xlink:href="#Ubuntu-43d" x="591.999893"/>
      <use xlink:href="#Ubuntu-44b" x="650.599884"/>
     </g>
    </g>
    <g id="line2d_30">
     <path d="M 153.86625 14.633438 
L 162.86625 14.633438 
L 171.86625 14.633438 
" style="fill: none; stroke-dasharray: 5.55,2.4; stroke-dashoffset: 0; stroke: #5d5d5d; stroke-width: 1.5"/>
    </g>
    <g id="text_28">
     <!-- Цена КРС у производителей -->
     <g style="fill: #4b4b4b" transform="translate(179.06625 17.783438) scale(0.09 -0.09)">
      <defs>
       <path id="Ubuntu-41a" d="M 3834 4435 
Q 3635 4218 3385 3952 
Q 3136 3686 2864 3408 
Q 2592 3130 2323 2861 
Q 2054 2592 1818 2362 
Q 2093 2170 2400 1888 
Q 2707 1606 3001 1286 
Q 3296 966 3555 633 
Q 3814 301 3987 0 
L 3258 0 
Q 3066 301 2816 605 
Q 2566 909 2288 1187 
Q 2010 1466 1725 1702 
Q 1440 1939 1171 2106 
L 1171 0 
L 550 0 
L 550 4435 
L 1171 4435 
L 1171 2477 
Q 1395 2688 1664 2953 
Q 1933 3219 2195 3488 
Q 2458 3757 2691 4003 
Q 2925 4250 3085 4435 
L 3834 4435 
z
" transform="scale(0.015625)"/>
       <path id="Ubuntu-420" d="M 1728 4480 
Q 2662 4480 3164 4125 
Q 3667 3770 3667 3066 
Q 3667 2682 3529 2410 
Q 3392 2138 3133 1968 
Q 2874 1798 2502 1721 
Q 2131 1645 1664 1645 
L 1171 1645 
L 1171 0 
L 550 0 
L 550 4371 
Q 813 4435 1136 4457 
Q 1459 4480 1728 4480 
z
M 1779 3936 
Q 1382 3936 1171 3917 
L 1171 2176 
L 1638 2176 
Q 1958 2176 2214 2217 
Q 2470 2259 2646 2358 
Q 2822 2458 2918 2630 
Q 3014 2803 3014 3072 
Q 3014 3328 2915 3494 
Q 2816 3661 2646 3760 
Q 2477 3859 2253 3897 
Q 2029 3936 1779 3936 
z
" transform="scale(0.015625)"/>
       <path id="Ubuntu-421" d="M 2458 -96 
Q 1990 -96 1606 57 
Q 1222 211 947 505 
Q 672 800 521 1232 
Q 371 1664 371 2221 
Q 371 2778 540 3210 
Q 710 3642 998 3936 
Q 1286 4230 1670 4384 
Q 2054 4538 2490 4538 
Q 2765 4538 2985 4499 
Q 3206 4461 3369 4409 
Q 3533 4358 3635 4307 
Q 3738 4256 3776 4230 
L 3597 3718 
Q 3539 3757 3430 3801 
Q 3322 3846 3184 3891 
Q 3046 3936 2883 3965 
Q 2720 3994 2554 3994 
Q 2202 3994 1920 3872 
Q 1638 3750 1440 3520 
Q 1242 3290 1136 2960 
Q 1030 2630 1030 2221 
Q 1030 1824 1123 1497 
Q 1216 1171 1401 937 
Q 1587 704 1865 576 
Q 2144 448 2515 448 
Q 2944 448 3225 537 
Q 3507 627 3648 698 
L 3808 186 
Q 3763 154 3648 106 
Q 3533 58 3360 13 
Q 3187 -32 2956 -64 
Q 2726 -96 2458 -96 
z
" transform="scale(0.015625)"/>
       <path id="Ubuntu-443" d="M 122 -621 
Q 192 -653 304 -681 
Q 416 -710 525 -710 
Q 877 -710 1075 -553 
Q 1274 -397 1434 -45 
Q 1030 723 681 1584 
Q 333 2445 102 3328 
L 742 3328 
Q 813 3040 912 2707 
Q 1011 2374 1132 2022 
Q 1254 1670 1395 1318 
Q 1536 966 1690 640 
Q 1933 1312 2112 1971 
Q 2291 2630 2451 3328 
L 3066 3328 
Q 2835 2387 2553 1520 
Q 2272 653 1946 -102 
Q 1818 -390 1680 -598 
Q 1542 -806 1376 -940 
Q 1210 -1075 1002 -1139 
Q 794 -1203 531 -1203 
Q 461 -1203 384 -1193 
Q 307 -1184 233 -1168 
Q 160 -1152 99 -1133 
Q 38 -1114 13 -1101 
L 122 -621 
z
" transform="scale(0.015625)"/>
       <path id="Ubuntu-437" d="M 1357 3411 
Q 1645 3411 1894 3353 
Q 2144 3296 2323 3181 
Q 2502 3066 2604 2893 
Q 2707 2720 2707 2490 
Q 2707 2342 2656 2220 
Q 2605 2099 2528 2003 
Q 2451 1907 2358 1840 
Q 2266 1773 2182 1747 
Q 2477 1658 2646 1430 
Q 2816 1203 2816 858 
Q 2816 384 2432 153 
Q 2048 -77 1389 -77 
Q 986 -77 694 -13 
Q 403 51 282 109 
L 384 614 
Q 486 576 752 509 
Q 1018 442 1389 442 
Q 1792 442 2003 566 
Q 2214 691 2214 941 
Q 2214 1120 2134 1232 
Q 2054 1344 1932 1401 
Q 1811 1459 1670 1478 
Q 1530 1498 1408 1498 
L 851 1498 
L 851 1971 
L 1389 1971 
Q 1504 1971 1629 1987 
Q 1754 2003 1859 2054 
Q 1965 2106 2035 2198 
Q 2106 2291 2106 2445 
Q 2106 2566 2045 2652 
Q 1984 2739 1881 2796 
Q 1779 2854 1641 2883 
Q 1504 2912 1357 2912 
Q 1242 2912 1107 2893 
Q 973 2874 845 2845 
Q 717 2816 614 2784 
Q 512 2752 467 2726 
L 358 3238 
Q 410 3258 518 3290 
Q 627 3322 764 3347 
Q 902 3373 1056 3392 
Q 1210 3411 1357 3411 
z
" transform="scale(0.015625)"/>
       <path id="Ubuntu-439" d="M 3309 3328 
L 3309 0 
L 2733 0 
L 2733 2534 
Q 2541 2291 2310 1964 
Q 2080 1638 1849 1289 
Q 1619 941 1408 601 
Q 1197 262 1043 0 
L 512 0 
L 512 3328 
L 1088 3328 
L 1088 934 
Q 1254 1210 1465 1539 
Q 1677 1869 1904 2192 
Q 2131 2515 2358 2812 
Q 2586 3110 2784 3328 
L 3309 3328 
z
M 1917 3866 
Q 1514 3866 1261 4070 
Q 1008 4275 957 4640 
L 1411 4762 
Q 1462 4557 1584 4429 
Q 1706 4301 1917 4301 
Q 2128 4301 2249 4429 
Q 2371 4557 2422 4762 
L 2870 4640 
Q 2819 4275 2569 4070 
Q 2320 3866 1917 3866 
z
" transform="scale(0.015625)"/>
      </defs>
      <use xlink:href="#Ubuntu-426"/>
      <use xlink:href="#Ubuntu-435" x="71.799988"/>
      <use xlink:href="#Ubuntu-43d" x="127.699982"/>
      <use xlink:href="#Ubuntu-430" x="186.299973"/>
      <use xlink:href="#Ubuntu-20" x="238.499969"/>
      <use xlink:href="#Ubuntu-41a" x="261.59996"/>
      <use xlink:href="#Ubuntu-420" x="324.499954"/>
      <use xlink:href="#Ubuntu-421" x="385.299942"/>
      <use xlink:href="#Ubuntu-20" x="447.299927"/>
      <use xlink:href="#Ubuntu-443" x="470.399918"/>
      <use xlink:href="#Ubuntu-20" x="520.099915"/>
      <use xlink:href="#Ubuntu-43f" x="543.199905"/>
      <use xlink:href="#Ubuntu-440" x="600.999893"/>
      <use xlink:href="#Ubuntu-43e" x="659.899887"/>
      <use xlink:href="#Ubuntu-438" x="718.899872"/>
      <use xlink:href="#Ubuntu-437" x="778.599869"/>
      <use xlink:href="#Ubuntu-432" x="827.499863"/>
      <use xlink:href="#Ubuntu-43e" x="882.29985"/>
      <use xlink:href="#Ubuntu-434" x="941.299835"/>
      <use xlink:href="#Ubuntu-438" x="1001.599823"/>
      <use xlink:href="#Ubuntu-442" x="1061.29982"/>
      <use xlink:href="#Ubuntu-435" x="1107.599808"/>
      <use xlink:href="#Ubuntu-43b" x="1163.499802"/>
      <use xlink:href="#Ubuntu-435" x="1223.299789"/>
      <use xlink:href="#Ubuntu-439" x="1279.199783"/>
     </g>
    </g>
   </g>
   <g id="line2d_31">
    <path d="M 49.7475 146.375156 
L 526.8375 146.375156 
" clip-path="url(#p4179540544)" style="fill: none; stroke-dasharray: 2.775,1.2; stroke-dashoffset: 0; stroke: #c5c5c5; stroke-width: 0.75"/>
   </g>
  </g>
 </g>
 <defs>
  <clipPath id="pb98c730e02">
   <rect x="37.1925" y="166.175156" width="502.2" height="0"/>
  </clipPath>
  <clipPath id="p4179540544">
   <rect x="37.1925" y="27.575156" width="502.2" height="138.6"/>
  </clipPath>
 </defs>
</svg>
