<?xml version="1.0" encoding="utf-8" standalone="no"?>
<!DOCTYPE svg PUBLIC "-//W3C//DTD SVG 1.1//EN"
  "http://www.w3.org/Graphics/SVG/1.1/DTD/svg11.dtd">
<svg xmlns:xlink="http://www.w3.org/1999/xlink" width="545.693971pt" height="250.494375pt" viewBox="0 0 545.693971 250.494375" xmlns="http://www.w3.org/2000/svg" version="1.1">
 <metadata>
  <rdf:RDF xmlns:dc="http://purl.org/dc/elements/1.1/" xmlns:cc="http://creativecommons.org/ns#" xmlns:rdf="http://www.w3.org/1999/02/22-rdf-syntax-ns#">
   <cc:Work>
    <dc:type rdf:resource="http://purl.org/dc/dcmitype/StillImage"/>
    <dc:date>2024-03-14T20:38:31.832673</dc:date>
    <dc:format>image/svg+xml</dc:format>
    <dc:creator>
     <cc:Agent>
      <dc:title>Matplotlib v3.8.0, https://matplotlib.org/</dc:title>
     </cc:Agent>
    </dc:creator>
   </cc:Work>
  </rdf:RDF>
 </metadata>
 <defs>
  <style type="text/css">*{stroke-linejoin: round; stroke-linecap: butt}</style>
 </defs>
 <g id="figure_1">
  <g id="patch_1">
   <path d="M 0 250.494375 
L 545.693971 250.494375 
L 545.693971 0 
L 0 0 
L 0 250.494375 
z
" style="fill: none"/>
  </g>
  <g id="axes_1">
   <g id="patch_2">
    <path d="M 32.1925 207.106875 
L 534.3925 207.106875 
L 534.3925 40.786875 
L 32.1925 40.786875 
L 32.1925 207.106875 
z
" style="fill: none"/>
   </g>
   <g id="axes_2">
    <g id="patch_3">
     <path d="M 32.1925 207.106875 
L 534.3925 207.106875 
L 534.3925 207.106875 
L 32.1925 207.106875 
L 32.1925 207.106875 
z
" style="fill: none"/>
    </g>
    <g id="matplotlib.axis_1">
     <g id="xtick_1">
      <g id="line2d_1">
       <path d="M 37.116029 207.106875 
L 37.116029 207.106875 
" clip-path="url(#p63d61a3f81)" style="fill: none; stroke-dasharray: 0.5,0.825; stroke-dashoffset: 0; stroke: #d9d9d9; stroke-width: 0.5"/>
      </g>
      <g id="text_1">
       <!-- 2021 -->
       <g style="fill: #808080" transform="translate(28.091029 241.814375) scale(0.08 -0.08)">
        <defs>
         <path id="Ubuntu-32" d="M 2989 3302 
Q 2989 3072 2896 2857 
Q 2803 2643 2649 2435 
Q 2496 2227 2304 2025 
Q 2112 1824 1920 1632 
Q 1811 1523 1667 1376 
Q 1523 1229 1395 1069 
Q 1267 909 1180 761 
Q 1094 614 1094 506 
L 3136 506 
L 3136 0 
L 448 0 
Q 442 38 442 76 
Q 442 115 442 147 
Q 442 448 541 707 
Q 640 966 800 1196 
Q 960 1427 1158 1632 
Q 1357 1837 1549 2029 
Q 1709 2182 1853 2332 
Q 1997 2483 2109 2633 
Q 2221 2784 2288 2944 
Q 2355 3104 2355 3283 
Q 2355 3475 2294 3609 
Q 2234 3744 2131 3833 
Q 2029 3923 1891 3964 
Q 1754 4006 1600 4006 
Q 1414 4006 1260 3955 
Q 1107 3904 985 3837 
Q 864 3770 781 3696 
Q 698 3622 653 3584 
L 358 4006 
Q 416 4070 531 4163 
Q 646 4256 806 4339 
Q 966 4422 1164 4480 
Q 1363 4538 1594 4538 
Q 2291 4538 2640 4214 
Q 2989 3891 2989 3302 
z
" transform="scale(0.015625)"/>
         <path id="Ubuntu-30" d="M 320 2221 
Q 320 3334 713 3936 
Q 1107 4538 1805 4538 
Q 2502 4538 2896 3936 
Q 3290 3334 3290 2221 
Q 3290 1107 2896 505 
Q 2502 -96 1805 -96 
Q 1107 -96 713 505 
Q 320 1107 320 2221 
z
M 2662 2221 
Q 2662 2586 2620 2912 
Q 2579 3238 2480 3481 
Q 2381 3725 2214 3869 
Q 2048 4013 1805 4013 
Q 1562 4013 1395 3869 
Q 1229 3725 1129 3481 
Q 1030 3238 988 2912 
Q 947 2586 947 2221 
Q 947 1856 988 1529 
Q 1030 1203 1129 960 
Q 1229 717 1395 573 
Q 1562 429 1805 429 
Q 2048 429 2214 573 
Q 2381 717 2480 960 
Q 2579 1203 2620 1529 
Q 2662 1856 2662 2221 
z
" transform="scale(0.015625)"/>
         <path id="Ubuntu-31" d="M 595 3520 
Q 960 3661 1305 3881 
Q 1651 4102 1939 4435 
L 2362 4435 
L 2362 0 
L 1766 0 
L 1766 3610 
Q 1690 3539 1578 3462 
Q 1466 3386 1334 3315 
Q 1203 3245 1059 3181 
Q 915 3117 781 3072 
L 595 3520 
z
" transform="scale(0.015625)"/>
        </defs>
        <use xlink:href="#Ubuntu-32"/>
        <use xlink:href="#Ubuntu-30" x="56.399994"/>
        <use xlink:href="#Ubuntu-32" x="112.799988"/>
        <use xlink:href="#Ubuntu-31" x="169.199982"/>
       </g>
      </g>
     </g>
     <g id="xtick_2">
      <g id="line2d_2">
       <path d="M 201.233676 207.106875 
L 201.233676 207.106875 
" clip-path="url(#p63d61a3f81)" style="fill: none; stroke-dasharray: 0.5,0.825; stroke-dashoffset: 0; stroke: #d9d9d9; stroke-width: 0.5"/>
      </g>
      <g id="text_2">
       <!-- 2022 -->
       <g style="fill: #808080" transform="translate(192.208676 241.814375) scale(0.08 -0.08)">
        <use xlink:href="#Ubuntu-32"/>
        <use xlink:href="#Ubuntu-30" x="56.399994"/>
        <use xlink:href="#Ubuntu-32" x="112.799988"/>
        <use xlink:href="#Ubuntu-32" x="169.199982"/>
       </g>
      </g>
     </g>
     <g id="xtick_3">
      <g id="line2d_3">
       <path d="M 365.351324 207.106875 
L 365.351324 207.106875 
" clip-path="url(#p63d61a3f81)" style="fill: none; stroke-dasharray: 0.5,0.825; stroke-dashoffset: 0; stroke: #d9d9d9; stroke-width: 0.5"/>
      </g>
      <g id="text_3">
       <!-- 2023 -->
       <g style="fill: #808080" transform="translate(356.326324 241.814375) scale(0.08 -0.08)">
        <defs>
         <path id="Ubuntu-33" d="M 1446 435 
Q 2016 435 2262 659 
Q 2509 883 2509 1261 
Q 2509 1504 2406 1670 
Q 2304 1837 2137 1936 
Q 1971 2035 1750 2076 
Q 1530 2118 1299 2118 
L 1146 2118 
L 1146 2605 
L 1357 2605 
Q 1517 2605 1686 2637 
Q 1856 2669 1997 2752 
Q 2138 2835 2227 2979 
Q 2317 3123 2317 3341 
Q 2317 3520 2253 3648 
Q 2189 3776 2083 3859 
Q 1978 3942 1840 3977 
Q 1702 4013 1549 4013 
Q 1242 4013 1027 3923 
Q 813 3834 666 3738 
L 435 4192 
Q 512 4243 630 4304 
Q 749 4365 896 4416 
Q 1043 4467 1212 4502 
Q 1382 4538 1568 4538 
Q 1920 4538 2176 4451 
Q 2432 4365 2598 4208 
Q 2765 4051 2848 3836 
Q 2931 3622 2931 3373 
Q 2931 3027 2732 2780 
Q 2534 2534 2253 2406 
Q 2426 2355 2586 2259 
Q 2746 2163 2864 2016 
Q 2982 1869 3056 1677 
Q 3130 1485 3130 1248 
Q 3130 960 3030 713 
Q 2931 467 2723 288 
Q 2515 109 2201 6 
Q 1888 -96 1459 -96 
Q 1293 -96 1117 -70 
Q 941 -45 787 -6 
Q 634 32 518 70 
Q 403 109 352 134 
L 467 653 
Q 576 602 829 518 
Q 1082 435 1446 435 
z
" transform="scale(0.015625)"/>
        </defs>
        <use xlink:href="#Ubuntu-32"/>
        <use xlink:href="#Ubuntu-30" x="56.399994"/>
        <use xlink:href="#Ubuntu-32" x="112.799988"/>
        <use xlink:href="#Ubuntu-33" x="169.199982"/>
       </g>
      </g>
     </g>
     <g id="xtick_4">
      <g id="line2d_4">
       <path d="M 529.468971 207.106875 
L 529.468971 207.106875 
" clip-path="url(#p63d61a3f81)" style="fill: none; stroke-dasharray: 0.5,0.825; stroke-dashoffset: 0; stroke: #d9d9d9; stroke-width: 0.5"/>
      </g>
      <g id="text_4">
       <!-- 2024 -->
       <g style="fill: #808080" transform="translate(520.443971 241.814375) scale(0.08 -0.08)">
        <defs>
         <path id="Ubuntu-34" d="M 256 1536 
Q 378 1818 589 2192 
Q 800 2566 1065 2963 
Q 1331 3360 1635 3744 
Q 1939 4128 2246 4435 
L 2816 4435 
L 2816 1619 
L 3341 1619 
L 3341 1133 
L 2816 1133 
L 2816 0 
L 2240 0 
L 2240 1133 
L 256 1133 
L 256 1536 
z
M 2240 3731 
Q 2048 3526 1853 3273 
Q 1658 3021 1472 2745 
Q 1286 2470 1123 2182 
Q 960 1894 832 1619 
L 2240 1619 
L 2240 3731 
z
" transform="scale(0.015625)"/>
        </defs>
        <use xlink:href="#Ubuntu-32"/>
        <use xlink:href="#Ubuntu-30" x="56.399994"/>
        <use xlink:href="#Ubuntu-32" x="112.799988"/>
        <use xlink:href="#Ubuntu-34" x="169.199982"/>
       </g>
      </g>
     </g>
    </g>
    <g id="matplotlib.axis_2"/>
   </g>
   <g id="matplotlib.axis_3">
    <g id="xtick_5">
     <g id="line2d_5">
      <defs>
       <path id="m7b584715fb" d="M 0 0 
L 0 3 
" style="stroke: #aaaaaa; stroke-width: 0.75"/>
      </defs>
      <g>
       <use xlink:href="#m7b584715fb" x="37.116029" y="217.106875" style="fill: #aaaaaa; stroke: #aaaaaa; stroke-width: 0.75"/>
      </g>
     </g>
     <g id="text_5">
      <!-- Янв -->
      <g style="fill: #808080" transform="translate(30.040404 232.314375) scale(0.08 -0.08)">
       <defs>
        <path id="Ubuntu-42f" d="M 2272 3936 
Q 2029 3936 1808 3897 
Q 1587 3859 1414 3763 
Q 1242 3667 1139 3500 
Q 1037 3334 1037 3085 
Q 1037 2611 1341 2428 
Q 1645 2246 2253 2246 
L 2893 2246 
L 2893 3917 
Q 2822 3917 2726 3923 
Q 2643 3930 2531 3933 
Q 2419 3936 2272 3936 
z
M 2323 4480 
Q 2458 4480 2611 4473 
Q 2765 4467 2921 4454 
Q 3078 4442 3232 4422 
Q 3386 4403 3514 4371 
L 3514 0 
L 2893 0 
L 2893 1734 
L 2362 1734 
Q 2272 1734 2173 1737 
Q 2074 1741 1907 1760 
Q 1792 1606 1657 1401 
Q 1523 1197 1388 966 
Q 1254 736 1123 486 
Q 992 237 883 0 
L 230 0 
Q 333 250 473 518 
Q 614 787 764 1030 
Q 915 1274 1052 1482 
Q 1190 1690 1293 1824 
Q 1146 1869 986 1952 
Q 826 2035 691 2182 
Q 557 2330 470 2550 
Q 384 2771 384 3078 
Q 384 3424 518 3686 
Q 653 3949 905 4125 
Q 1158 4301 1516 4390 
Q 1875 4480 2323 4480 
z
" transform="scale(0.015625)"/>
        <path id="Ubuntu-43d" d="M 3238 0 
L 2643 0 
L 2643 1472 
L 1107 1472 
L 1107 0 
L 512 0 
L 512 3328 
L 1107 3328 
L 1107 1971 
L 2643 1971 
L 2643 3328 
L 3238 3328 
L 3238 0 
z
" transform="scale(0.015625)"/>
        <path id="Ubuntu-432" d="M 1094 448 
Q 1133 442 1203 435 
Q 1274 429 1363 425 
Q 1453 422 1552 419 
Q 1651 416 1741 416 
Q 1926 416 2096 441 
Q 2266 467 2390 531 
Q 2515 595 2588 700 
Q 2662 806 2662 973 
Q 2662 1133 2595 1238 
Q 2528 1344 2413 1408 
Q 2298 1472 2141 1497 
Q 1984 1523 1805 1523 
L 1094 1523 
L 1094 448 
z
M 1728 1965 
Q 1901 1965 2045 1987 
Q 2189 2010 2294 2067 
Q 2400 2125 2461 2221 
Q 2522 2317 2522 2464 
Q 2522 2618 2445 2707 
Q 2368 2797 2243 2845 
Q 2118 2893 1961 2909 
Q 1805 2925 1645 2925 
Q 1498 2925 1347 2918 
Q 1197 2912 1094 2906 
L 1094 1965 
L 1728 1965 
z
M 1715 -58 
Q 1338 -58 1018 -22 
Q 698 13 512 58 
L 512 3296 
Q 698 3341 1018 3376 
Q 1338 3411 1715 3411 
Q 1978 3411 2227 3366 
Q 2477 3322 2669 3216 
Q 2861 3110 2979 2928 
Q 3098 2746 3098 2477 
Q 3098 2234 2976 2061 
Q 2854 1888 2650 1792 
Q 2925 1696 3088 1507 
Q 3251 1318 3251 979 
Q 3251 678 3132 480 
Q 3014 282 2806 160 
Q 2598 38 2316 -10 
Q 2035 -58 1715 -58 
z
" transform="scale(0.015625)"/>
       </defs>
       <use xlink:href="#Ubuntu-42f"/>
       <use xlink:href="#Ubuntu-43d" x="63.499985"/>
       <use xlink:href="#Ubuntu-432" x="122.099976"/>
      </g>
     </g>
    </g>
    <g id="xtick_6">
     <g id="line2d_6">
      <g>
       <use xlink:href="#m7b584715fb" x="77.583394" y="217.106875" style="fill: #aaaaaa; stroke: #aaaaaa; stroke-width: 0.75"/>
      </g>
     </g>
     <g id="text_6">
      <!-- Апр -->
      <g style="fill: #808080" transform="translate(70.263394 232.314375) scale(0.08 -0.08)">
       <defs>
        <path id="Ubuntu-410" d="M 3514 0 
Q 3405 288 3309 566 
Q 3213 845 3110 1133 
L 1101 1133 
L 698 0 
L 51 0 
Q 307 704 531 1302 
Q 755 1901 969 2438 
Q 1184 2976 1395 3465 
Q 1606 3955 1837 4435 
L 2406 4435 
Q 2637 3955 2848 3465 
Q 3059 2976 3273 2438 
Q 3488 1901 3712 1302 
Q 3936 704 4192 0 
L 3514 0 
z
M 2931 1645 
Q 2726 2202 2524 2723 
Q 2323 3245 2106 3725 
Q 1882 3245 1680 2723 
Q 1478 2202 1280 1645 
L 2931 1645 
z
" transform="scale(0.015625)"/>
        <path id="Ubuntu-43f" d="M 3187 0 
L 2592 0 
L 2592 2829 
L 1107 2829 
L 1107 0 
L 512 0 
L 512 3328 
L 3187 3328 
L 3187 0 
z
" transform="scale(0.015625)"/>
        <path id="Ubuntu-440" d="M 2822 1658 
Q 2822 2240 2534 2553 
Q 2246 2867 1766 2867 
Q 1498 2867 1347 2848 
Q 1197 2829 1107 2803 
L 1107 704 
Q 1216 614 1421 531 
Q 1626 448 1869 448 
Q 2125 448 2307 541 
Q 2490 634 2605 797 
Q 2720 960 2771 1181 
Q 2822 1402 2822 1658 
z
M 3443 1658 
Q 3443 1280 3344 960 
Q 3245 640 3053 409 
Q 2861 179 2582 51 
Q 2304 -77 1946 -77 
Q 1658 -77 1437 0 
Q 1216 77 1107 147 
L 1107 -1184 
L 512 -1184 
L 512 3226 
Q 723 3277 1040 3337 
Q 1357 3398 1773 3398 
Q 2157 3398 2464 3276 
Q 2771 3155 2988 2931 
Q 3206 2707 3324 2384 
Q 3443 2061 3443 1658 
z
" transform="scale(0.015625)"/>
       </defs>
       <use xlink:href="#Ubuntu-410"/>
       <use xlink:href="#Ubuntu-43f" x="66.299988"/>
       <use xlink:href="#Ubuntu-440" x="124.099976"/>
      </g>
     </g>
    </g>
    <g id="xtick_7">
     <g id="line2d_7">
      <g>
       <use xlink:href="#m7b584715fb" x="118.500397" y="217.106875" style="fill: #aaaaaa; stroke: #aaaaaa; stroke-width: 0.75"/>
      </g>
     </g>
     <g id="text_7">
      <!-- Июл -->
      <g style="fill: #808080" transform="translate(109.952897 232.314375) scale(0.08 -0.08)">
       <defs>
        <path id="Ubuntu-418" d="M 550 0 
L 550 4435 
L 1158 4435 
L 1158 1152 
Q 1363 1491 1660 1926 
Q 1958 2362 2294 2813 
Q 2630 3264 2972 3689 
Q 3315 4115 3616 4435 
L 4109 4435 
L 4109 0 
L 3501 0 
L 3501 3462 
Q 3322 3258 3110 2989 
Q 2899 2720 2675 2416 
Q 2451 2112 2224 1785 
Q 1997 1459 1785 1142 
Q 1574 826 1392 531 
Q 1210 237 1069 0 
L 550 0 
z
" transform="scale(0.015625)"/>
        <path id="Ubuntu-44e" d="M 1107 1952 
L 1837 1952 
Q 1875 2285 2006 2553 
Q 2138 2822 2336 3014 
Q 2534 3206 2790 3308 
Q 3046 3411 3341 3411 
Q 3667 3411 3945 3286 
Q 4224 3162 4429 2931 
Q 4634 2701 4749 2377 
Q 4864 2054 4864 1664 
Q 4864 1267 4749 947 
Q 4634 627 4429 396 
Q 4224 166 3945 41 
Q 3667 -83 3341 -83 
Q 3034 -83 2768 29 
Q 2502 141 2304 342 
Q 2106 544 1981 832 
Q 1856 1120 1830 1472 
L 1107 1472 
L 1107 0 
L 512 0 
L 512 3328 
L 1107 3328 
L 1107 1952 
z
M 4250 1664 
Q 4250 2227 4003 2556 
Q 3757 2886 3341 2886 
Q 2925 2886 2678 2556 
Q 2432 2227 2432 1664 
Q 2432 1101 2678 771 
Q 2925 442 3341 442 
Q 3757 442 4003 771 
Q 4250 1101 4250 1664 
z
" transform="scale(0.015625)"/>
        <path id="Ubuntu-43b" d="M 1670 2829 
Q 1670 2618 1660 2378 
Q 1651 2138 1625 1898 
Q 1600 1658 1555 1424 
Q 1510 1190 1440 986 
Q 1370 781 1264 601 
Q 1158 422 1004 284 
Q 851 147 646 54 
Q 442 -38 166 -64 
L 83 435 
Q 397 499 579 672 
Q 762 845 870 1094 
Q 966 1312 1011 1587 
Q 1056 1862 1075 2160 
Q 1094 2458 1097 2758 
Q 1101 3059 1101 3328 
L 3315 3328 
L 3315 0 
L 2720 0 
L 2720 2829 
L 1670 2829 
z
" transform="scale(0.015625)"/>
       </defs>
       <use xlink:href="#Ubuntu-418"/>
       <use xlink:href="#Ubuntu-44e" x="72.799988"/>
       <use xlink:href="#Ubuntu-43b" x="153.899979"/>
      </g>
     </g>
    </g>
    <g id="xtick_8">
     <g id="line2d_8">
      <g>
       <use xlink:href="#m7b584715fb" x="159.867037" y="217.106875" style="fill: #aaaaaa; stroke: #aaaaaa; stroke-width: 0.75"/>
      </g>
     </g>
     <g id="text_8">
      <!-- Окт -->
      <g style="fill: #808080" transform="translate(152.755162 232.314375) scale(0.08 -0.08)">
       <defs>
        <path id="Ubuntu-41e" d="M 371 2221 
Q 371 2790 540 3225 
Q 710 3661 1001 3952 
Q 1293 4243 1680 4390 
Q 2067 4538 2502 4538 
Q 2931 4538 3312 4390 
Q 3693 4243 3981 3952 
Q 4269 3661 4438 3225 
Q 4608 2790 4608 2221 
Q 4608 1651 4438 1216 
Q 4269 781 3981 489 
Q 3693 198 3312 51 
Q 2931 -96 2502 -96 
Q 2067 -96 1680 51 
Q 1293 198 1001 489 
Q 710 781 540 1216 
Q 371 1651 371 2221 
z
M 1024 2221 
Q 1024 1818 1126 1488 
Q 1229 1158 1417 928 
Q 1606 698 1878 573 
Q 2150 448 2490 448 
Q 2829 448 3097 573 
Q 3366 698 3555 928 
Q 3744 1158 3846 1488 
Q 3949 1818 3949 2221 
Q 3949 2624 3846 2953 
Q 3744 3283 3555 3513 
Q 3366 3744 3097 3869 
Q 2829 3994 2490 3994 
Q 2150 3994 1878 3869 
Q 1606 3744 1417 3513 
Q 1229 3283 1126 2953 
Q 1024 2624 1024 2221 
z
" transform="scale(0.015625)"/>
        <path id="Ubuntu-43a" d="M 1728 1811 
Q 1926 1670 2156 1456 
Q 2387 1242 2608 992 
Q 2829 742 3021 483 
Q 3213 224 3347 0 
L 2643 0 
Q 2502 218 2313 445 
Q 2125 672 1920 883 
Q 1715 1094 1504 1273 
Q 1293 1453 1107 1574 
L 1107 0 
L 512 0 
L 512 3328 
L 1107 3328 
L 1107 1901 
Q 1261 2048 1459 2243 
Q 1658 2438 1859 2640 
Q 2061 2842 2233 3024 
Q 2406 3206 2515 3328 
L 3206 3328 
Q 3066 3174 2877 2979 
Q 2688 2784 2486 2579 
Q 2285 2374 2086 2172 
Q 1888 1971 1728 1811 
z
" transform="scale(0.015625)"/>
        <path id="Ubuntu-442" d="M 2861 3328 
L 2861 2829 
L 1779 2829 
L 1779 0 
L 1184 0 
L 1184 2829 
L 102 2829 
L 102 3328 
L 2861 3328 
z
" transform="scale(0.015625)"/>
       </defs>
       <use xlink:href="#Ubuntu-41e"/>
       <use xlink:href="#Ubuntu-43a" x="77.799988"/>
       <use xlink:href="#Ubuntu-442" x="131.499985"/>
      </g>
     </g>
    </g>
    <g id="xtick_9">
     <g id="line2d_9">
      <g>
       <use xlink:href="#m7b584715fb" x="201.233676" y="217.106875" style="fill: #aaaaaa; stroke: #aaaaaa; stroke-width: 0.75"/>
      </g>
     </g>
     <g id="text_9">
      <!-- Янв -->
      <g style="fill: #808080" transform="translate(194.158051 232.314375) scale(0.08 -0.08)">
       <use xlink:href="#Ubuntu-42f"/>
       <use xlink:href="#Ubuntu-43d" x="63.499985"/>
       <use xlink:href="#Ubuntu-432" x="122.099976"/>
      </g>
     </g>
    </g>
    <g id="xtick_10">
     <g id="line2d_10">
      <g>
       <use xlink:href="#m7b584715fb" x="241.701041" y="217.106875" style="fill: #aaaaaa; stroke: #aaaaaa; stroke-width: 0.75"/>
      </g>
     </g>
     <g id="text_10">
      <!-- Апр -->
      <g style="fill: #808080" transform="translate(234.381041 232.314375) scale(0.08 -0.08)">
       <use xlink:href="#Ubuntu-410"/>
       <use xlink:href="#Ubuntu-43f" x="66.299988"/>
       <use xlink:href="#Ubuntu-440" x="124.099976"/>
      </g>
     </g>
    </g>
    <g id="xtick_11">
     <g id="line2d_11">
      <g>
       <use xlink:href="#m7b584715fb" x="282.618044" y="217.106875" style="fill: #aaaaaa; stroke: #aaaaaa; stroke-width: 0.75"/>
      </g>
     </g>
     <g id="text_11">
      <!-- Июл -->
      <g style="fill: #808080" transform="translate(274.070544 232.314375) scale(0.08 -0.08)">
       <use xlink:href="#Ubuntu-418"/>
       <use xlink:href="#Ubuntu-44e" x="72.799988"/>
       <use xlink:href="#Ubuntu-43b" x="153.899979"/>
      </g>
     </g>
    </g>
    <g id="xtick_12">
     <g id="line2d_12">
      <g>
       <use xlink:href="#m7b584715fb" x="323.984684" y="217.106875" style="fill: #aaaaaa; stroke: #aaaaaa; stroke-width: 0.75"/>
      </g>
     </g>
     <g id="text_12">
      <!-- Окт -->
      <g style="fill: #808080" transform="translate(316.872809 232.314375) scale(0.08 -0.08)">
       <use xlink:href="#Ubuntu-41e"/>
       <use xlink:href="#Ubuntu-43a" x="77.799988"/>
       <use xlink:href="#Ubuntu-442" x="131.499985"/>
      </g>
     </g>
    </g>
    <g id="xtick_13">
     <g id="line2d_13">
      <g>
       <use xlink:href="#m7b584715fb" x="365.351324" y="217.106875" style="fill: #aaaaaa; stroke: #aaaaaa; stroke-width: 0.75"/>
      </g>
     </g>
     <g id="text_13">
      <!-- Янв -->
      <g style="fill: #808080" transform="translate(358.275699 232.314375) scale(0.08 -0.08)">
       <use xlink:href="#Ubuntu-42f"/>
       <use xlink:href="#Ubuntu-43d" x="63.499985"/>
       <use xlink:href="#Ubuntu-432" x="122.099976"/>
      </g>
     </g>
    </g>
    <g id="xtick_14">
     <g id="line2d_14">
      <g>
       <use xlink:href="#m7b584715fb" x="405.818689" y="217.106875" style="fill: #aaaaaa; stroke: #aaaaaa; stroke-width: 0.75"/>
      </g>
     </g>
     <g id="text_14">
      <!-- Апр -->
      <g style="fill: #808080" transform="translate(398.498689 232.314375) scale(0.08 -0.08)">
       <use xlink:href="#Ubuntu-410"/>
       <use xlink:href="#Ubuntu-43f" x="66.299988"/>
       <use xlink:href="#Ubuntu-440" x="124.099976"/>
      </g>
     </g>
    </g>
    <g id="xtick_15">
     <g id="line2d_15">
      <g>
       <use xlink:href="#m7b584715fb" x="446.735691" y="217.106875" style="fill: #aaaaaa; stroke: #aaaaaa; stroke-width: 0.75"/>
      </g>
     </g>
     <g id="text_15">
      <!-- Июл -->
      <g style="fill: #808080" transform="translate(438.188191 232.314375) scale(0.08 -0.08)">
       <use xlink:href="#Ubuntu-418"/>
       <use xlink:href="#Ubuntu-44e" x="72.799988"/>
       <use xlink:href="#Ubuntu-43b" x="153.899979"/>
      </g>
     </g>
    </g>
    <g id="xtick_16">
     <g id="line2d_16">
      <g>
       <use xlink:href="#m7b584715fb" x="488.102331" y="217.106875" style="fill: #aaaaaa; stroke: #aaaaaa; stroke-width: 0.75"/>
      </g>
     </g>
     <g id="text_16">
      <!-- Окт -->
      <g style="fill: #808080" transform="translate(480.990456 232.314375) scale(0.08 -0.08)">
       <use xlink:href="#Ubuntu-41e"/>
       <use xlink:href="#Ubuntu-43a" x="77.799988"/>
       <use xlink:href="#Ubuntu-442" x="131.499985"/>
      </g>
     </g>
    </g>
    <g id="xtick_17">
     <g id="line2d_17">
      <g>
       <use xlink:href="#m7b584715fb" x="529.468971" y="217.106875" style="fill: #aaaaaa; stroke: #aaaaaa; stroke-width: 0.75"/>
      </g>
     </g>
     <g id="text_17">
      <!-- Янв -->
      <g style="fill: #808080" transform="translate(522.393346 232.314375) scale(0.08 -0.08)">
       <use xlink:href="#Ubuntu-42f"/>
       <use xlink:href="#Ubuntu-43d" x="63.499985"/>
       <use xlink:href="#Ubuntu-432" x="122.099976"/>
      </g>
     </g>
    </g>
   </g>
   <g id="matplotlib.axis_4">
    <g id="ytick_1">
     <g id="line2d_18">
      <defs>
       <path id="mab58f9996b" d="M 0 0 
L -3 0 
" style="stroke: #aaaaaa; stroke-width: 0.75"/>
      </defs>
      <g>
       <use xlink:href="#mab58f9996b" x="27.1925" y="207.106875" style="fill: #aaaaaa; stroke: #aaaaaa; stroke-width: 0.75"/>
      </g>
     </g>
     <g id="text_18">
      <!-- 0.0 -->
      <g style="fill: #808080" transform="translate(7.2 210.210625) scale(0.08 -0.08)">
       <defs>
        <path id="Ubuntu-2e" d="M 1216 346 
Q 1216 173 1101 45 
Q 986 -83 787 -83 
Q 589 -83 473 45 
Q 358 173 358 346 
Q 358 518 473 646 
Q 589 774 787 774 
Q 986 774 1101 646 
Q 1216 518 1216 346 
z
" transform="scale(0.015625)"/>
       </defs>
       <use xlink:href="#Ubuntu-30"/>
       <use xlink:href="#Ubuntu-2e" x="56.399994"/>
       <use xlink:href="#Ubuntu-30" x="80.999985"/>
      </g>
     </g>
    </g>
    <g id="ytick_2">
     <g id="line2d_19">
      <g>
       <use xlink:href="#mab58f9996b" x="27.1925" y="179.386875" style="fill: #aaaaaa; stroke: #aaaaaa; stroke-width: 0.75"/>
      </g>
     </g>
     <g id="text_19">
      <!-- 0.5 -->
      <g style="fill: #808080" transform="translate(7.2 182.490625) scale(0.08 -0.08)">
       <defs>
        <path id="Ubuntu-35" d="M 1274 2726 
Q 2240 2688 2691 2304 
Q 3142 1920 3142 1261 
Q 3142 966 3043 716 
Q 2944 467 2742 288 
Q 2541 109 2233 6 
Q 1926 -96 1504 -96 
Q 1338 -96 1165 -70 
Q 992 -45 845 -6 
Q 698 32 582 70 
Q 467 109 416 134 
L 531 653 
Q 640 602 886 518 
Q 1133 435 1491 435 
Q 1779 435 1974 499 
Q 2170 563 2291 672 
Q 2413 781 2467 925 
Q 2522 1069 2522 1229 
Q 2522 1472 2438 1661 
Q 2355 1850 2144 1978 
Q 1933 2106 1581 2173 
Q 1229 2240 691 2240 
Q 730 2554 752 2829 
Q 774 3104 793 3366 
Q 813 3629 825 3888 
Q 838 4147 851 4435 
L 2989 4435 
L 2989 3930 
L 1370 3930 
Q 1363 3834 1350 3670 
Q 1338 3507 1325 3331 
Q 1312 3155 1299 2988 
Q 1286 2822 1274 2726 
z
" transform="scale(0.015625)"/>
       </defs>
       <use xlink:href="#Ubuntu-30"/>
       <use xlink:href="#Ubuntu-2e" x="56.399994"/>
       <use xlink:href="#Ubuntu-35" x="80.999985"/>
      </g>
     </g>
    </g>
    <g id="ytick_3">
     <g id="line2d_20">
      <g>
       <use xlink:href="#mab58f9996b" x="27.1925" y="151.666875" style="fill: #aaaaaa; stroke: #aaaaaa; stroke-width: 0.75"/>
      </g>
     </g>
     <g id="text_20">
      <!-- 1.0 -->
      <g style="fill: #808080" transform="translate(7.2 154.770625) scale(0.08 -0.08)">
       <use xlink:href="#Ubuntu-31"/>
       <use xlink:href="#Ubuntu-2e" x="56.399994"/>
       <use xlink:href="#Ubuntu-30" x="80.999985"/>
      </g>
     </g>
    </g>
    <g id="ytick_4">
     <g id="line2d_21">
      <g>
       <use xlink:href="#mab58f9996b" x="27.1925" y="123.946875" style="fill: #aaaaaa; stroke: #aaaaaa; stroke-width: 0.75"/>
      </g>
     </g>
     <g id="text_21">
      <!-- 1.5 -->
      <g style="fill: #808080" transform="translate(7.2 127.050625) scale(0.08 -0.08)">
       <use xlink:href="#Ubuntu-31"/>
       <use xlink:href="#Ubuntu-2e" x="56.399994"/>
       <use xlink:href="#Ubuntu-35" x="80.999985"/>
      </g>
     </g>
    </g>
    <g id="ytick_5">
     <g id="line2d_22">
      <g>
       <use xlink:href="#mab58f9996b" x="27.1925" y="96.226875" style="fill: #aaaaaa; stroke: #aaaaaa; stroke-width: 0.75"/>
      </g>
     </g>
     <g id="text_22">
      <!-- 2.0 -->
      <g style="fill: #808080" transform="translate(7.2 99.330625) scale(0.08 -0.08)">
       <use xlink:href="#Ubuntu-32"/>
       <use xlink:href="#Ubuntu-2e" x="56.399994"/>
       <use xlink:href="#Ubuntu-30" x="80.999985"/>
      </g>
     </g>
    </g>
    <g id="ytick_6">
     <g id="line2d_23">
      <g>
       <use xlink:href="#mab58f9996b" x="27.1925" y="68.506875" style="fill: #aaaaaa; stroke: #aaaaaa; stroke-width: 0.75"/>
      </g>
     </g>
     <g id="text_23">
      <!-- 2.5 -->
      <g style="fill: #808080" transform="translate(7.2 71.610625) scale(0.08 -0.08)">
       <use xlink:href="#Ubuntu-32"/>
       <use xlink:href="#Ubuntu-2e" x="56.399994"/>
       <use xlink:href="#Ubuntu-35" x="80.999985"/>
      </g>
     </g>
    </g>
    <g id="ytick_7">
     <g id="line2d_24">
      <g>
       <use xlink:href="#mab58f9996b" x="27.1925" y="40.786875" style="fill: #aaaaaa; stroke: #aaaaaa; stroke-width: 0.75"/>
      </g>
     </g>
     <g id="text_24">
      <!-- 3.0 -->
      <g style="fill: #808080" transform="translate(7.2 43.890625) scale(0.08 -0.08)">
       <use xlink:href="#Ubuntu-33"/>
       <use xlink:href="#Ubuntu-2e" x="56.399994"/>
       <use xlink:href="#Ubuntu-30" x="80.999985"/>
      </g>
     </g>
    </g>
   </g>
   <g id="line2d_25">
    <path d="M 37.116029 151.666875 
L 38.762695 148.360679 
L 40.40936 145.922263 
L 42.056025 144.266218 
L 43.702691 143.307138 
L 45.349356 142.959616 
L 46.996022 143.138245 
L 48.642687 143.757619 
L 50.289352 144.73233 
L 51.936018 145.976971 
L 55.229348 148.934418 
L 58.522679 151.946705 
L 60.169344 153.259896 
L 61.81601 154.330576 
L 63.462675 155.073338 
L 65.10934 155.404391 
L 66.756006 155.307017 
L 68.402671 154.854228 
L 70.049337 154.125297 
L 73.342667 152.156098 
L 76.635998 150.033607 
L 78.282663 149.113052 
L 79.929329 148.373635 
L 81.575994 147.819044 
L 83.222659 147.441834 
L 84.869325 147.234562 
L 86.51599 147.189784 
L 88.162655 147.300055 
L 89.809321 147.55793 
L 91.455986 147.955967 
L 93.102651 148.48618 
L 96.395982 149.892022 
L 99.689313 151.66296 
L 102.982644 153.684403 
L 109.569305 158.060891 
L 116.155966 162.709171 
L 122.742628 167.697935 
L 127.682624 171.362294 
L 130.975955 173.51004 
L 134.269285 175.255345 
L 135.915951 175.923793 
L 137.562616 176.419578 
L 139.209281 176.714672 
L 140.855947 176.781043 
L 142.502612 176.590662 
L 144.149277 176.115498 
L 145.795943 175.327523 
L 147.442608 174.202121 
L 149.089274 172.775964 
L 152.382604 169.381889 
L 155.675935 165.87504 
L 157.3226 164.307915 
L 158.969266 162.986904 
L 160.615931 162.002948 
L 162.262596 161.387105 
L 163.909262 161.054124 
L 167.202592 160.8423 
L 168.849258 160.766233 
L 170.495923 160.578581 
L 172.142589 160.18073 
L 173.789254 159.47407 
L 175.435919 158.386162 
L 177.082585 156.968296 
L 180.375915 153.493928 
L 185.315911 148.003013 
L 186.962577 146.44947 
L 188.609242 145.174167 
L 190.255907 144.17471 
L 191.902573 143.390552 
L 195.195904 142.221267 
L 198.489234 141.172566 
L 200.1359 140.539138 
L 201.782565 139.751408 
L 205.075896 137.704241 
L 211.662557 133.15417 
L 213.309222 132.229272 
L 214.955888 131.494873 
L 216.602553 130.986558 
L 218.249218 130.676832 
L 219.895884 130.523691 
L 223.189215 130.519146 
L 228.129211 130.636611 
L 231.422541 130.365399 
L 236.362537 129.55236 
L 239.655868 129.039504 
L 242.949199 128.790091 
L 244.595864 128.825852 
L 246.24253 128.996349 
L 247.889195 129.321427 
L 249.53586 129.82093 
L 251.182526 130.514701 
L 252.829191 131.422586 
L 254.475856 132.564429 
L 256.122522 133.960054 
L 257.769187 135.609761 
L 261.062518 139.437921 
L 266.002514 145.513487 
L 267.649179 147.363951 
L 269.295844 149.017216 
L 270.94251 150.418097 
L 272.589175 151.58923 
L 275.882506 153.470306 
L 280.822502 155.995841 
L 282.469167 156.987236 
L 284.115833 158.14634 
L 287.409163 160.925071 
L 293.995825 166.880514 
L 295.64249 168.147632 
L 297.289156 169.221708 
L 298.935821 170.074791 
L 300.582486 170.733715 
L 302.229152 171.232855 
L 305.522482 171.889297 
L 317.04914 173.466136 
L 318.695805 173.526996 
L 320.34247 173.436659 
L 321.989136 173.153912 
L 323.635801 172.637538 
L 325.282467 171.8488 
L 326.929132 170.788602 
L 328.575797 169.489723 
L 330.222463 167.985851 
L 333.515793 164.497864 
L 336.809124 160.594121 
L 348.335782 146.261847 
L 356.569108 136.110699 
L 361.509104 130.408169 
L 364.802435 126.933709 
L 368.095766 123.839079 
L 369.742431 122.512498 
L 371.389096 121.387758 
L 373.035762 120.505918 
L 374.682427 119.908039 
L 376.329093 119.635182 
L 377.975758 119.728407 
L 379.622423 120.227402 
L 381.269089 121.103856 
L 384.562419 123.47674 
L 386.209085 124.705571 
L 387.85575 125.78426 
L 389.502415 126.579008 
L 391.149081 126.956015 
L 392.795746 126.78149 
L 394.442411 125.984552 
L 396.089077 124.70745 
L 402.675738 118.544094 
L 404.322404 117.676194 
L 405.969069 117.452141 
L 407.615734 118.033998 
L 409.2624 119.36388 
L 410.909065 121.270647 
L 412.55573 123.582226 
L 417.495726 131.225093 
L 419.142392 133.435179 
L 420.789057 135.193699 
L 422.435723 136.453689 
L 424.082388 137.308206 
L 425.729053 137.858105 
L 429.022384 138.447476 
L 432.315715 139.028653 
L 433.96238 139.568241 
L 435.609045 140.370431 
L 437.255711 141.397958 
L 440.549041 143.914155 
L 445.489037 148.03557 
L 447.135703 149.287075 
L 450.429034 151.373613 
L 453.722364 153.065242 
L 458.66236 155.443283 
L 461.955691 157.308454 
L 465.249022 159.560603 
L 476.775679 168.086945 
L 478.422345 169.039998 
L 480.06901 169.802971 
L 481.715675 170.323111 
L 483.362341 170.547662 
L 485.009006 170.423869 
L 486.655671 169.898978 
L 488.302337 168.920233 
L 489.949002 167.450415 
L 491.595667 165.532175 
L 493.242333 163.233764 
L 494.888998 160.62344 
L 498.182329 154.740099 
L 506.415656 139.179972 
L 509.708986 133.412707 
L 513.002317 128.061812 
L 516.295648 123.210836 
L 519.588978 118.943328 
L 521.235644 117.054483 
L 522.882309 115.342836 
L 524.528975 113.818831 
L 526.17564 112.492911 
L 527.822305 111.375519 
L 529.468971 110.4771 
L 529.468971 110.4771 
" clip-path="url(#p175baebfef)" style="fill: none; stroke-dasharray: 5.55,2.4; stroke-dashoffset: 0; stroke: #5d5d5d; stroke-width: 1.5"/>
   </g>
   <g id="line2d_26">
    <path d="M 37.116029 151.666875 
L 38.762695 151.633887 
L 40.40936 151.424952 
L 42.056025 151.057227 
L 43.702691 150.547865 
L 46.996022 149.172849 
L 50.289352 147.437142 
L 55.229348 144.457494 
L 60.169344 141.43825 
L 63.462675 139.632152 
L 66.756006 138.135637 
L 70.049337 136.902542 
L 78.282663 134.008109 
L 81.575994 132.495618 
L 83.222659 131.525275 
L 84.869325 130.350395 
L 86.51599 128.924622 
L 88.162655 127.201602 
L 89.809321 125.13498 
L 91.455986 122.678401 
L 93.102651 119.803953 
L 99.689313 107.198491 
L 101.335978 104.713861 
L 102.982644 102.873558 
L 104.629309 101.866397 
L 106.275974 101.874695 
L 107.92264 102.909739 
L 109.569305 104.798939 
L 111.21597 107.360627 
L 112.862636 110.413133 
L 119.449297 123.898129 
L 121.095963 126.734417 
L 122.742628 129.213439 
L 124.389293 131.360889 
L 126.035959 133.202464 
L 127.682624 134.763862 
L 129.329289 136.070779 
L 130.975955 137.14891 
L 132.62262 138.023954 
L 134.269285 138.718059 
L 135.915951 139.231747 
L 137.562616 139.557393 
L 139.209281 139.687356 
L 140.855947 139.613996 
L 142.502612 139.329672 
L 144.149277 138.826744 
L 145.795943 138.097572 
L 147.442608 137.136337 
L 149.089274 135.969942 
L 152.382604 133.243424 
L 157.3226 129.011403 
L 158.969266 127.787349 
L 160.615931 126.749954 
L 162.262596 125.929032 
L 163.909262 125.303696 
L 165.555927 124.847234 
L 167.202592 124.532933 
L 170.495923 124.223964 
L 175.435919 124.161037 
L 180.375915 124.086471 
L 183.669246 123.86481 
L 186.962577 123.398319 
L 190.255907 122.625555 
L 196.842569 120.852875 
L 200.1359 120.333979 
L 201.782565 120.27115 
L 205.075896 120.507839 
L 208.369226 120.860325 
L 210.015892 120.93795 
L 211.662557 120.874074 
L 213.309222 120.611882 
L 214.955888 120.094556 
L 216.602553 119.285486 
L 218.249218 118.222432 
L 219.895884 116.960254 
L 223.189215 114.057979 
L 228.129211 109.582709 
L 231.422541 107.07829 
L 239.655868 101.511228 
L 241.302533 100.206629 
L 242.949199 98.748992 
L 246.24253 95.44543 
L 251.182526 90.407836 
L 252.829191 88.948002 
L 254.475856 87.698391 
L 256.122522 86.719319 
L 257.769187 86.064008 
L 259.415852 85.765265 
L 261.062518 85.85225 
L 262.709183 86.354123 
L 264.355848 87.300045 
L 266.002514 88.719174 
L 267.649179 90.640671 
L 269.295844 93.093696 
L 270.94251 96.094755 
L 272.589175 99.568487 
L 275.882506 107.470193 
L 280.822502 119.967193 
L 282.469167 123.840401 
L 284.115833 127.377189 
L 285.762498 130.540014 
L 287.409163 133.366594 
L 289.055829 135.897922 
L 290.702494 138.174987 
L 293.995825 142.130293 
L 297.289156 145.560365 
L 300.582486 148.680651 
L 303.875817 151.369902 
L 305.522482 152.495379 
L 307.169148 153.444084 
L 308.815813 154.193014 
L 310.462478 154.719165 
L 312.109144 155.006808 
L 313.755809 155.080925 
L 315.402474 154.980652 
L 318.695805 154.413534 
L 325.282467 152.907483 
L 328.575797 152.449212 
L 333.515793 152.058738 
L 340.102455 151.560863 
L 345.042451 150.91819 
L 349.982447 150.028502 
L 354.922443 148.905697 
L 361.509104 147.133403 
L 371.389096 144.343733 
L 374.682427 143.705229 
L 377.975758 143.430295 
L 379.622423 143.470639 
L 382.915754 143.905078 
L 386.209085 144.662855 
L 394.442411 146.771994 
L 397.735742 147.318375 
L 401.029073 147.635978 
L 404.322404 147.72043 
L 407.615734 147.565139 
L 409.2624 147.372137 
L 410.909065 147.062756 
L 412.55573 146.604816 
L 414.202396 145.966136 
L 415.849061 145.114537 
L 417.495726 144.017837 
L 419.142392 142.643856 
L 420.789057 140.962075 
L 422.435723 138.992373 
L 425.729053 134.505023 
L 430.669049 127.624955 
L 432.315715 125.617408 
L 433.96238 123.888382 
L 435.609045 122.501858 
L 437.255711 121.475706 
L 438.902376 120.820232 
L 440.549041 120.545739 
L 442.195707 120.662534 
L 443.842372 121.180921 
L 445.489037 122.111205 
L 447.135703 123.46369 
L 448.782368 125.238589 
L 450.429034 127.369022 
L 453.722364 132.319398 
L 458.66236 140.053751 
L 460.309026 142.336882 
L 461.955691 144.318724 
L 463.602356 145.977741 
L 465.249022 147.35692 
L 466.895687 148.501699 
L 468.542352 149.45752 
L 471.835683 150.98404 
L 483.362341 155.587351 
L 486.655671 156.615792 
L 489.949002 157.288114 
L 493.242333 157.588588 
L 496.535663 157.625472 
L 504.76899 157.303462 
L 513.002317 156.894879 
L 517.942313 156.361451 
L 521.235644 155.786373 
L 524.528975 154.980097 
L 527.822305 153.894937 
L 529.468971 153.232875 
L 529.468971 153.232875 
" clip-path="url(#p175baebfef)" style="fill: none; stroke: #7e6459; stroke-width: 1.25; stroke-linecap: square"/>
   </g>
   <g id="line2d_27">
    <path d="M 37.116029 151.666875 
L 38.762695 146.983581 
L 40.40936 143.476655 
L 42.056025 141.038684 
L 43.702691 139.562251 
L 45.349356 138.939942 
L 46.996022 139.06434 
L 48.642687 139.828031 
L 50.289352 141.123599 
L 51.936018 142.843629 
L 53.582683 144.880705 
L 56.876014 149.476337 
L 60.169344 154.051171 
L 61.81601 156.06225 
L 63.462675 157.745885 
L 65.10934 158.996516 
L 66.756006 159.785773 
L 68.402671 160.188534 
L 70.049337 160.286881 
L 71.696002 160.1629 
L 78.282663 159.085371 
L 79.929329 159.061454 
L 81.575994 159.207671 
L 83.222659 159.513756 
L 84.869325 159.969446 
L 86.51599 160.564475 
L 89.809321 162.131496 
L 93.102651 164.131812 
L 96.395982 166.44544 
L 104.629309 172.480733 
L 107.92264 174.557198 
L 111.21597 176.347101 
L 114.509301 177.913174 
L 119.449297 179.981396 
L 124.389293 181.805101 
L 127.682624 182.783216 
L 130.975955 183.472628 
L 134.269285 183.787878 
L 135.915951 183.770703 
L 137.562616 183.611339 
L 139.209281 183.289977 
L 140.855947 182.786808 
L 142.502612 182.082021 
L 144.149277 181.155808 
L 145.795943 179.988357 
L 147.442608 178.562575 
L 150.735939 175.104758 
L 155.675935 169.523371 
L 157.3226 167.858445 
L 158.969266 166.416611 
L 160.615931 165.272684 
L 162.262596 164.455381 
L 163.909262 163.90389 
L 165.555927 163.547117 
L 172.142589 162.645263 
L 173.789254 162.195627 
L 175.435919 161.53012 
L 177.082585 160.669214 
L 180.375915 158.532345 
L 186.962577 153.796405 
L 190.255907 151.830322 
L 195.195904 149.369601 
L 198.489234 147.733913 
L 201.782565 145.84559 
L 206.722561 142.673567 
L 208.369226 141.785605 
L 210.015892 141.103529 
L 211.662557 140.700055 
L 213.309222 140.6479 
L 214.955888 141.019782 
L 216.602553 141.85584 
L 218.249218 143.076325 
L 219.895884 144.57391 
L 226.482545 151.188739 
L 228.129211 152.461937 
L 229.775876 153.380724 
L 231.422541 153.969171 
L 233.069207 154.31743 
L 239.655868 155.125757 
L 241.302533 155.635958 
L 242.949199 156.449248 
L 244.595864 157.588402 
L 246.24253 158.993869 
L 249.53586 162.344962 
L 254.475856 167.751556 
L 256.122522 169.396307 
L 257.769187 170.870784 
L 259.415852 172.173307 
L 261.062518 173.310547 
L 262.709183 174.289179 
L 264.355848 175.115874 
L 266.002514 175.797307 
L 267.649179 176.34015 
L 269.295844 176.751076 
L 272.589175 177.237385 
L 279.175837 177.934193 
L 280.822502 178.289125 
L 282.469167 178.798022 
L 284.115833 179.499342 
L 287.409163 181.359751 
L 290.702494 183.348517 
L 292.349159 184.207906 
L 293.995825 184.879629 
L 295.64249 185.290436 
L 297.289156 185.367254 
L 298.935821 185.077729 
L 300.582486 184.481779 
L 302.229152 183.652035 
L 305.522482 181.581682 
L 308.815813 179.447704 
L 310.462478 178.53843 
L 312.109144 177.816703 
L 315.402474 176.817478 
L 320.34247 175.668979 
L 321.989136 175.176802 
L 323.635801 174.545467 
L 325.282467 173.726979 
L 326.929132 172.716518 
L 330.222463 170.240254 
L 333.515793 167.362753 
L 346.689116 155.25262 
L 349.982447 151.594763 
L 351.629112 149.505799 
L 354.922443 144.756943 
L 364.802435 129.442598 
L 366.4491 127.280194 
L 368.095766 125.368997 
L 369.742431 123.762804 
L 371.389096 122.515421 
L 373.035762 121.680654 
L 374.682427 121.312311 
L 376.329093 121.464199 
L 377.975758 122.190124 
L 379.622423 123.542134 
L 381.269089 125.485089 
L 382.915754 127.858343 
L 389.502415 138.246516 
L 391.149081 140.21539 
L 392.795746 141.592224 
L 394.442411 142.27842 
L 396.089077 142.418569 
L 397.735742 142.208706 
L 401.029073 141.523099 
L 402.675738 141.43943 
L 404.322404 141.789898 
L 405.969069 142.770544 
L 407.615734 144.549586 
L 409.2624 147.053141 
L 410.909065 150.082665 
L 417.495726 163.468993 
L 419.142392 166.134765 
L 420.789057 168.133981 
L 422.435723 169.421002 
L 424.082388 170.122473 
L 425.729053 170.374639 
L 427.375719 170.313741 
L 432.315715 169.615098 
L 433.96238 169.664284 
L 435.609045 170.03079 
L 437.255711 170.665698 
L 438.902376 171.498038 
L 445.489037 175.382314 
L 447.135703 176.137262 
L 448.782368 176.672802 
L 450.429034 176.98665 
L 452.075699 177.100877 
L 453.722364 177.037627 
L 455.36903 176.819043 
L 458.66236 176.004446 
L 461.955691 174.83444 
L 468.542352 172.265452 
L 471.835683 171.350647 
L 473.482349 171.092558 
L 475.129014 171.007895 
L 476.775679 171.099689 
L 480.06901 171.588191 
L 483.362341 172.073054 
L 485.009006 172.160301 
L 486.655671 172.062052 
L 488.302337 171.71678 
L 489.949002 171.074102 
L 491.595667 170.140931 
L 493.242333 168.942545 
L 494.888998 167.504229 
L 496.535663 165.85127 
L 499.828994 162.002562 
L 503.122325 157.598603 
L 508.062321 150.373073 
L 514.648982 140.533102 
L 517.942313 135.930812 
L 521.235644 131.780884 
L 522.882309 129.931938 
L 524.528975 128.263741 
L 526.17564 126.798846 
L 527.822305 125.559806 
L 529.468971 124.569174 
L 529.468971 124.569174 
" clip-path="url(#p175baebfef)" style="fill: none; stroke: #489079; stroke-width: 1.25; stroke-linecap: square"/>
   </g>
   <g id="line2d_28">
    <path d="M 37.116029 151.666875 
L 38.762695 150.331949 
L 40.40936 149.280222 
L 42.056025 148.489571 
L 43.702691 147.937871 
L 45.349356 147.602998 
L 46.996022 147.462827 
L 48.642687 147.495233 
L 50.289352 147.678093 
L 53.582683 148.406677 
L 56.876014 149.471581 
L 65.10934 152.444036 
L 68.402671 153.365028 
L 73.342667 154.485372 
L 79.929329 155.913132 
L 84.869325 157.245359 
L 88.162655 158.357619 
L 91.455986 159.707679 
L 94.749317 161.327987 
L 99.689313 164.10861 
L 107.92264 168.843952 
L 116.155966 173.138474 
L 126.035959 178.156802 
L 127.682624 178.806972 
L 129.329289 179.332662 
L 130.975955 179.706538 
L 132.62262 179.901264 
L 134.269285 179.892287 
L 135.915951 179.672016 
L 137.562616 179.239255 
L 139.209281 178.592816 
L 140.855947 177.731512 
L 142.502612 176.654158 
L 144.149277 175.359565 
L 145.795943 173.846549 
L 147.442608 172.115961 
L 150.735939 168.183625 
L 155.675935 162.154815 
L 157.3226 160.391214 
L 158.969266 158.867592 
L 160.615931 157.653838 
L 162.262596 156.783525 
L 163.909262 156.219696 
L 165.555927 155.917292 
L 167.202592 155.831253 
L 168.849258 155.916521 
L 172.142589 156.420739 
L 177.082585 157.36353 
L 180.375915 157.759988 
L 182.022581 157.821443 
L 183.669246 157.76227 
L 185.315911 157.560384 
L 186.962577 157.193701 
L 188.609242 156.64316 
L 191.902573 155.097075 
L 198.489234 151.549836 
L 200.1359 150.845163 
L 201.782565 150.307469 
L 205.075896 149.644774 
L 208.369226 148.975035 
L 210.015892 148.421935 
L 211.662557 147.608365 
L 213.309222 146.448091 
L 214.955888 144.854877 
L 216.602553 142.787486 
L 219.895884 137.765758 
L 223.189215 132.644531 
L 224.83588 130.452768 
L 226.482545 128.723523 
L 228.129211 127.619263 
L 229.775876 127.283546 
L 231.422541 127.679213 
L 233.069207 128.668715 
L 234.715872 130.113427 
L 236.362537 131.874723 
L 241.302533 137.671871 
L 242.949199 139.315852 
L 244.595864 140.680098 
L 247.889195 142.854481 
L 251.182526 144.800823 
L 252.829191 145.880016 
L 254.475856 147.132045 
L 256.122522 148.633488 
L 257.769187 150.425207 
L 261.062518 154.613564 
L 266.002514 161.204689 
L 267.649179 163.163032 
L 269.295844 164.868279 
L 270.94251 166.252335 
L 272.589175 167.33532 
L 274.235841 168.176284 
L 275.882506 168.834446 
L 279.175837 169.839249 
L 282.469167 170.823489 
L 284.115833 171.453974 
L 287.409163 173.05095 
L 293.995825 176.610428 
L 295.64249 177.369306 
L 297.289156 178.00481 
L 298.935821 178.491462 
L 300.582486 178.826414 
L 302.229152 179.009937 
L 303.875817 179.042301 
L 305.522482 178.923777 
L 307.169148 178.654635 
L 308.815813 178.235145 
L 310.462478 177.665578 
L 312.109144 176.948914 
L 315.402474 175.15213 
L 318.695805 173.026841 
L 326.929132 167.497163 
L 330.222463 165.605715 
L 333.515793 164.041234 
L 336.809124 162.88638 
L 338.455789 162.488206 
L 341.74912 161.998858 
L 346.689116 161.411074 
L 348.335782 161.084046 
L 349.982447 160.620594 
L 351.629112 159.978195 
L 353.275778 159.127199 
L 354.922443 158.09394 
L 358.215774 155.646813 
L 364.802435 150.393366 
L 368.095766 148.19231 
L 376.329093 143.173864 
L 377.975758 141.969399 
L 379.622423 140.615908 
L 382.915754 137.518569 
L 387.85575 132.7326 
L 389.502415 131.328233 
L 391.149081 130.114461 
L 392.795746 129.148351 
L 394.442411 128.476044 
L 396.089077 128.106653 
L 397.735742 128.041461 
L 399.382408 128.281751 
L 401.029073 128.828804 
L 402.675738 129.683902 
L 404.322404 130.848328 
L 405.969069 132.323364 
L 407.615734 134.106194 
L 409.2624 136.158341 
L 412.55573 140.843064 
L 420.789057 153.281629 
L 422.435723 155.457532 
L 424.082388 157.448517 
L 425.729053 159.23813 
L 427.375719 160.809913 
L 429.022384 162.147412 
L 430.669049 163.234169 
L 432.315715 164.05373 
L 433.96238 164.589678 
L 435.609045 164.847953 
L 437.255711 164.893823 
L 440.549041 164.648359 
L 443.842372 164.4533 
L 445.489037 164.562178 
L 447.135703 164.908664 
L 448.782368 165.552106 
L 450.429034 166.447794 
L 453.722364 168.647138 
L 457.015695 170.80853 
L 458.66236 171.656778 
L 460.309026 172.233679 
L 461.955691 172.45516 
L 463.602356 172.302248 
L 465.249022 171.816518 
L 466.895687 171.041846 
L 468.542352 170.022111 
L 470.189018 168.801188 
L 473.482349 165.931286 
L 478.422345 161.148056 
L 491.595667 148.132327 
L 494.888998 145.217955 
L 498.182329 142.662294 
L 499.828994 141.558673 
L 501.47566 140.59236 
L 503.122325 139.777633 
L 506.415656 138.551185 
L 509.708986 137.688478 
L 516.295648 136.215711 
L 519.588978 135.186364 
L 521.235644 134.506731 
L 522.882309 133.682184 
L 524.528975 132.686518 
L 526.17564 131.493527 
L 527.822305 130.077007 
L 529.468971 128.410751 
L 529.468971 128.410751 
" clip-path="url(#p175baebfef)" style="fill: none; stroke: #b3625a; stroke-width: 1.25; stroke-linecap: square"/>
   </g>
   <g id="line2d_29">
    <path d="M 37.116029 151.666875 
L 38.762695 151.682933 
L 42.056025 151.358772 
L 45.349356 150.652182 
L 48.642687 149.67429 
L 55.229348 147.34911 
L 60.169344 145.719569 
L 63.462675 144.896021 
L 66.756006 144.391988 
L 73.342667 143.718543 
L 76.635998 143.042673 
L 78.282663 142.50879 
L 79.929329 141.816156 
L 83.222659 140.070672 
L 91.455986 135.261542 
L 93.102651 134.50486 
L 94.749317 133.876693 
L 96.395982 133.382503 
L 98.042648 133.027699 
L 99.689313 132.817689 
L 101.335978 132.757883 
L 102.982644 132.853688 
L 104.629309 133.110513 
L 106.275974 133.532999 
L 109.569305 134.790935 
L 117.802632 138.566453 
L 119.449297 139.122726 
L 121.095963 139.539681 
L 124.389293 140.035039 
L 127.682624 140.241602 
L 134.269285 140.5653 
L 139.209281 141.187104 
L 150.735939 142.897203 
L 177.082585 145.881975 
L 180.375915 146.015271 
L 183.669246 145.956316 
L 186.962577 145.648572 
L 190.255907 145.070894 
L 193.549238 144.44797 
L 196.842569 144.108802 
L 198.489234 144.148558 
L 200.1359 144.382771 
L 201.782565 144.851462 
L 206.722561 146.936351 
L 208.369226 147.38234 
L 210.015892 147.461615 
L 211.662557 147.028837 
L 213.309222 145.938672 
L 214.955888 144.045782 
L 216.602553 141.270123 
L 218.249218 137.771946 
L 221.542549 129.470115 
L 224.83588 120.864447 
L 226.482545 116.986475 
L 228.129211 113.679102 
L 229.775876 111.134658 
L 231.422541 109.323763 
L 233.069207 108.093883 
L 234.715872 107.291164 
L 236.362537 106.761749 
L 239.655868 105.907417 
L 241.302533 105.27479 
L 242.949199 104.303512 
L 244.595864 102.965433 
L 247.889195 99.69375 
L 251.182526 96.516996 
L 252.829191 95.29758 
L 254.475856 94.50193 
L 256.122522 94.263332 
L 257.769187 94.655615 
L 259.415852 95.581588 
L 261.062518 96.913496 
L 264.355848 100.284091 
L 267.649179 103.745358 
L 269.295844 105.190604 
L 270.94251 106.293125 
L 272.589175 107.072797 
L 274.235841 107.606756 
L 277.529171 108.247081 
L 280.822502 108.833195 
L 282.469167 109.299391 
L 284.115833 109.98256 
L 285.762498 110.92088 
L 287.409163 112.114949 
L 289.055829 113.563731 
L 290.702494 115.266192 
L 292.349159 117.221297 
L 293.995825 119.42801 
L 295.64249 121.885297 
L 297.289156 124.592008 
L 300.582486 130.584922 
L 303.875817 136.739606 
L 305.522482 139.640352 
L 307.169148 142.296828 
L 308.815813 144.614131 
L 310.462478 146.497355 
L 312.109144 147.872112 
L 313.755809 148.778815 
L 315.402474 149.297785 
L 317.04914 149.509384 
L 318.695805 149.493973 
L 321.989136 149.103573 
L 325.282467 148.76573 
L 328.575797 148.80921 
L 335.162459 149.149123 
L 336.809124 149.09503 
L 338.455789 148.919711 
L 340.102455 148.604567 
L 341.74912 148.156426 
L 345.042451 146.899104 
L 348.335782 145.223647 
L 351.629112 143.205959 
L 354.922443 140.852467 
L 356.569108 139.465983 
L 358.215774 137.879871 
L 359.862439 136.04928 
L 361.509104 133.929358 
L 363.15577 131.475255 
L 364.802435 128.642117 
L 366.4491 125.394816 
L 369.742431 118.042163 
L 373.035762 110.555601 
L 374.682427 107.142126 
L 376.329093 104.151202 
L 377.975758 101.734838 
L 379.622423 100.042371 
L 381.269089 99.090785 
L 382.915754 98.706527 
L 384.562419 98.701255 
L 387.85575 99.074292 
L 389.502415 99.075913 
L 391.149081 98.703143 
L 392.795746 97.767649 
L 394.442411 96.141929 
L 396.089077 93.904576 
L 397.735742 91.177784 
L 399.382408 88.083746 
L 407.615734 71.376423 
L 409.2624 68.584054 
L 410.909065 66.150258 
L 412.55573 64.123209 
L 414.202396 62.55108 
L 415.849061 61.482045 
L 417.495726 60.964279 
L 419.142392 61.045955 
L 420.789057 61.773005 
L 422.435723 63.123402 
L 424.082388 64.996544 
L 425.729053 67.287454 
L 429.022384 72.702669 
L 433.96238 81.334394 
L 437.255711 86.471598 
L 443.842372 96.381522 
L 445.489037 99.130591 
L 447.135703 102.107445 
L 450.429034 108.831542 
L 457.015695 123.215449 
L 458.66236 126.494726 
L 460.309026 129.471885 
L 461.955691 132.062339 
L 463.602356 134.244858 
L 465.249022 136.057146 
L 466.895687 137.539149 
L 468.542352 138.73081 
L 470.189018 139.672075 
L 471.835683 140.402888 
L 473.482349 140.963193 
L 476.775679 141.722626 
L 480.06901 142.125391 
L 483.362341 142.245496 
L 486.655671 142.154519 
L 491.595667 141.773078 
L 499.828994 140.83987 
L 511.355652 139.434993 
L 514.648982 138.860457 
L 517.942313 138.10799 
L 521.235644 137.122173 
L 524.528975 135.847589 
L 527.822305 134.228818 
L 529.468971 133.273044 
L 529.468971 133.273044 
" clip-path="url(#p175baebfef)" style="fill: none; stroke: #6893b8; stroke-width: 1.25; stroke-linecap: square"/>
   </g>
   <g id="line2d_30">
    <path d="M 37.116029 151.666875 
L 38.762695 151.743591 
L 40.40936 151.633472 
L 42.056025 151.352917 
L 43.702691 150.918321 
L 45.349356 150.346082 
L 48.642687 148.854261 
L 51.936018 147.00863 
L 56.876014 143.863734 
L 63.462675 139.656503 
L 66.756006 137.830075 
L 71.696002 135.473828 
L 81.575994 131.020965 
L 83.222659 129.993546 
L 84.869325 128.708972 
L 86.51599 127.089286 
L 88.162655 125.05653 
L 89.809321 122.532747 
L 91.455986 119.439977 
L 93.102651 115.720919 
L 94.749317 111.482306 
L 101.335978 93.036276 
L 102.982644 88.979073 
L 104.629309 85.514471 
L 106.275974 82.824381 
L 107.92264 80.997899 
L 109.569305 80.024329 
L 111.21597 79.888048 
L 112.862636 80.573436 
L 114.509301 82.064869 
L 116.155966 84.346725 
L 117.802632 87.403383 
L 119.449297 91.219076 
L 121.095963 95.729597 
L 124.389293 106.085434 
L 127.682624 116.882199 
L 129.329289 121.943882 
L 130.975955 126.513338 
L 132.62262 130.38975 
L 134.269285 133.406681 
L 135.915951 135.607304 
L 137.562616 137.11376 
L 139.209281 138.048337 
L 140.855947 138.533321 
L 142.502612 138.691 
L 145.795943 138.513591 
L 149.089274 138.409641 
L 152.382604 138.599508 
L 157.3226 139.214402 
L 163.909262 140.125684 
L 168.849258 140.572543 
L 172.142589 140.674369 
L 175.435919 140.570041 
L 178.72925 140.247282 
L 182.022581 139.725873 
L 185.315911 139.027178 
L 190.255907 137.703731 
L 195.195904 136.314089 
L 198.489234 135.57002 
L 201.782565 135.126956 
L 206.722561 134.757127 
L 208.369226 134.441907 
L 210.015892 133.906237 
L 211.662557 133.075431 
L 213.309222 131.874801 
L 214.955888 130.229662 
L 216.602553 128.099387 
L 218.249218 125.568703 
L 221.542549 119.760345 
L 224.83588 113.713063 
L 226.482545 110.883724 
L 228.129211 108.335331 
L 229.775876 106.171467 
L 231.422541 104.400342 
L 233.069207 102.977184 
L 234.715872 101.856657 
L 236.362537 100.993422 
L 238.009203 100.342141 
L 239.655868 99.857477 
L 242.949199 99.207486 
L 246.24253 98.842135 
L 247.889195 98.809768 
L 249.53586 98.910062 
L 251.182526 99.167358 
L 252.829191 99.605999 
L 254.475856 100.250327 
L 256.122522 101.124667 
L 257.769187 102.237657 
L 259.415852 103.552808 
L 262.709183 106.611379 
L 269.295844 113.194091 
L 272.589175 116.090031 
L 277.529171 120.215879 
L 280.822502 123.307958 
L 282.469167 125.081678 
L 284.115833 127.060895 
L 287.409163 131.571102 
L 295.64249 143.674846 
L 297.289156 145.823962 
L 298.935821 147.777952 
L 300.582486 149.537303 
L 302.229152 151.107487 
L 303.875817 152.493972 
L 305.522482 153.702228 
L 307.169148 154.737726 
L 308.815813 155.605934 
L 310.462478 156.312323 
L 312.109144 156.864102 
L 313.755809 157.278215 
L 317.04914 157.77476 
L 320.34247 157.964609 
L 330.222463 158.059109 
L 333.515793 157.92127 
L 336.809124 157.528716 
L 340.102455 156.777848 
L 343.395785 155.648125 
L 346.689116 154.176701 
L 349.982447 152.401895 
L 353.275778 150.364329 
L 363.15577 143.884593 
L 366.4491 142.126996 
L 369.742431 140.754365 
L 373.035762 139.723641 
L 376.329093 138.981289 
L 379.622423 138.473797 
L 382.915754 138.154235 
L 387.85575 137.959229 
L 392.795746 138.017871 
L 397.735742 138.096967 
L 399.382408 138.005434 
L 401.029073 137.801656 
L 402.675738 137.453656 
L 404.322404 136.929457 
L 405.969069 136.197081 
L 407.615734 135.227574 
L 409.2624 134.018293 
L 410.909065 132.580143 
L 412.55573 130.924142 
L 414.202396 129.061306 
L 415.849061 127.002652 
L 419.142392 122.341959 
L 422.435723 117.064823 
L 427.375719 109.043228 
L 429.022384 106.660138 
L 430.669049 104.555686 
L 432.315715 102.809822 
L 433.96238 101.502446 
L 435.609045 100.685992 
L 437.255711 100.339993 
L 438.902376 100.432025 
L 440.549041 100.929663 
L 442.195707 101.800481 
L 443.842372 103.012055 
L 445.489037 104.531959 
L 447.135703 106.327768 
L 448.782368 108.365596 
L 452.075699 112.988907 
L 461.955691 127.815262 
L 465.249022 131.934381 
L 468.542352 135.428697 
L 470.189018 136.942492 
L 471.835683 138.301213 
L 473.482349 139.505236 
L 475.129014 140.554963 
L 476.775679 141.455119 
L 480.06901 142.863041 
L 483.362341 143.847346 
L 486.655671 144.527521 
L 491.595667 145.221017 
L 496.535663 145.636009 
L 501.47566 145.767206 
L 506.415656 145.597409 
L 509.708986 145.284296 
L 513.002317 144.781038 
L 516.295648 144.06173 
L 519.588978 143.100462 
L 522.882309 141.871327 
L 526.17564 140.348417 
L 529.468971 138.505823 
L 529.468971 138.505823 
" clip-path="url(#p175baebfef)" style="fill: none; stroke: #d8805d; stroke-width: 1.25; stroke-linecap: square"/>
   </g>
   <g id="patch_4">
    <path d="M 27.1925 207.106875 
L 27.1925 40.786875 
" style="fill: none; stroke: #aaaaaa; stroke-width: 0.75; stroke-linejoin: miter; stroke-linecap: square"/>
   </g>
   <g id="patch_5">
    <path d="M 37.116029 217.106875 
L 529.468971 217.106875 
" style="fill: none; stroke: #aaaaaa; stroke-width: 0.75; stroke-linejoin: miter; stroke-linecap: square"/>
   </g>
   <g id="legend_1">
    <g id="line2d_31">
     <path d="M 40.2925 14.696719 
L 49.2925 14.696719 
L 58.2925 14.696719 
" style="fill: none; stroke-dasharray: 5.55,2.4; stroke-dashoffset: 0; stroke: #5d5d5d; stroke-width: 1.5"/>
    </g>
    <g id="text_25">
     <!-- Овощи (средняя цена у производителей) -->
     <g style="fill: #4b4b4b" transform="translate(65.4925 17.846719) scale(0.09 -0.09)">
      <defs>
       <path id="Ubuntu-43e" d="M 3450 1664 
Q 3450 1267 3334 947 
Q 3219 627 3011 396 
Q 2803 166 2515 41 
Q 2227 -83 1888 -83 
Q 1549 -83 1261 41 
Q 973 166 765 396 
Q 557 627 441 947 
Q 326 1267 326 1664 
Q 326 2054 441 2377 
Q 557 2701 765 2931 
Q 973 3162 1261 3286 
Q 1549 3411 1888 3411 
Q 2227 3411 2515 3286 
Q 2803 3162 3011 2931 
Q 3219 2701 3334 2377 
Q 3450 2054 3450 1664 
z
M 2829 1664 
Q 2829 2227 2576 2556 
Q 2323 2886 1888 2886 
Q 1453 2886 1200 2556 
Q 947 2227 947 1664 
Q 947 1101 1200 771 
Q 1453 442 1888 442 
Q 2323 442 2576 771 
Q 2829 1101 2829 1664 
z
" transform="scale(0.015625)"/>
       <path id="Ubuntu-449" d="M 512 0 
L 512 3328 
L 1107 3328 
L 1107 493 
L 2336 493 
L 2336 3328 
L 2931 3328 
L 2931 493 
L 4160 493 
L 4160 3328 
L 4755 3328 
L 4755 493 
L 5203 493 
L 5203 -928 
L 4640 -928 
L 4640 0 
L 512 0 
z
" transform="scale(0.015625)"/>
       <path id="Ubuntu-438" d="M 3309 3328 
L 3309 0 
L 2733 0 
L 2733 2534 
Q 2541 2291 2310 1964 
Q 2080 1638 1849 1289 
Q 1619 941 1408 601 
Q 1197 262 1043 0 
L 512 0 
L 512 3328 
L 1088 3328 
L 1088 934 
Q 1254 1210 1465 1539 
Q 1677 1869 1904 2192 
Q 2131 2515 2358 2812 
Q 2586 3110 2784 3328 
L 3309 3328 
z
" transform="scale(0.015625)"/>
       <path id="Ubuntu-20" transform="scale(0.015625)"/>
       <path id="Ubuntu-28" d="M 1094 1914 
Q 1094 1094 1331 396 
Q 1568 -301 2029 -896 
L 1606 -1184 
Q 1107 -576 803 214 
Q 499 1005 499 1914 
Q 499 2822 803 3612 
Q 1107 4403 1606 5011 
L 2029 4723 
Q 1568 4128 1331 3430 
Q 1094 2733 1094 1914 
z
" transform="scale(0.015625)"/>
       <path id="Ubuntu-441" d="M 1958 -77 
Q 1555 -77 1251 51 
Q 947 179 739 409 
Q 531 640 428 957 
Q 326 1274 326 1658 
Q 326 2042 438 2362 
Q 550 2682 755 2915 
Q 960 3149 1257 3280 
Q 1555 3411 1920 3411 
Q 2144 3411 2368 3372 
Q 2592 3334 2797 3251 
L 2662 2746 
Q 2528 2810 2352 2848 
Q 2176 2886 1978 2886 
Q 1478 2886 1212 2572 
Q 947 2259 947 1658 
Q 947 1389 1008 1165 
Q 1069 941 1200 781 
Q 1331 621 1536 534 
Q 1741 448 2035 448 
Q 2272 448 2464 493 
Q 2656 538 2765 589 
L 2848 90 
Q 2797 58 2701 29 
Q 2605 0 2483 -22 
Q 2362 -45 2224 -61 
Q 2086 -77 1958 -77 
z
" transform="scale(0.015625)"/>
       <path id="Ubuntu-435" d="M 326 1658 
Q 326 2099 454 2428 
Q 582 2758 793 2976 
Q 1005 3194 1280 3302 
Q 1555 3411 1843 3411 
Q 2515 3411 2873 2992 
Q 3232 2573 3232 1715 
Q 3232 1677 3232 1616 
Q 3232 1555 3226 1504 
L 947 1504 
Q 986 986 1248 717 
Q 1510 448 2067 448 
Q 2381 448 2595 502 
Q 2810 557 2918 608 
L 3002 109 
Q 2893 51 2621 -13 
Q 2349 -77 2003 -77 
Q 1568 -77 1251 54 
Q 934 186 729 416 
Q 525 646 425 963 
Q 326 1280 326 1658 
z
M 2611 1984 
Q 2618 2387 2410 2646 
Q 2202 2906 1837 2906 
Q 1632 2906 1475 2826 
Q 1318 2746 1209 2618 
Q 1101 2490 1040 2323 
Q 979 2157 960 1984 
L 2611 1984 
z
" transform="scale(0.015625)"/>
       <path id="Ubuntu-434" d="M 102 486 
L 461 486 
Q 672 794 797 1120 
Q 922 1446 986 1795 
Q 1050 2144 1069 2525 
Q 1088 2906 1094 3328 
L 3277 3328 
L 3277 486 
L 3725 486 
L 3725 -928 
L 3162 -928 
L 3162 0 
L 666 0 
L 666 -928 
L 102 -928 
L 102 486 
z
M 2682 486 
L 2682 2829 
L 1638 2829 
Q 1632 2528 1606 2224 
Q 1581 1920 1523 1622 
Q 1466 1325 1360 1040 
Q 1254 755 1094 486 
L 2682 486 
z
" transform="scale(0.015625)"/>
       <path id="Ubuntu-44f" d="M 1888 1293 
Q 1792 1293 1702 1296 
Q 1613 1299 1530 1306 
Q 1325 998 1136 649 
Q 947 301 800 0 
L 198 0 
Q 275 186 377 381 
Q 480 576 585 761 
Q 691 947 800 1113 
Q 909 1280 1005 1414 
Q 826 1478 710 1571 
Q 595 1664 524 1779 
Q 454 1894 425 2025 
Q 397 2157 397 2291 
Q 397 2573 502 2784 
Q 608 2995 793 3132 
Q 979 3270 1232 3340 
Q 1485 3411 1786 3411 
Q 2208 3411 2502 3372 
Q 2797 3334 2995 3283 
L 2995 0 
L 2406 0 
L 2406 1293 
L 1888 1293 
z
M 2406 2886 
Q 2336 2899 2173 2912 
Q 2010 2925 1798 2925 
Q 1434 2925 1210 2774 
Q 986 2624 986 2298 
Q 986 1978 1216 1856 
Q 1446 1734 1811 1734 
L 2406 1734 
L 2406 2886 
z
" transform="scale(0.015625)"/>
       <path id="Ubuntu-446" d="M 3168 493 
L 3616 493 
L 3616 -928 
L 3053 -928 
L 3053 0 
L 512 0 
L 512 3328 
L 1107 3328 
L 1107 493 
L 2573 493 
L 2573 3328 
L 3168 3328 
L 3168 493 
z
" transform="scale(0.015625)"/>
       <path id="Ubuntu-430" d="M 1638 429 
Q 1850 429 2013 438 
Q 2176 448 2285 474 
L 2285 1466 
Q 2221 1498 2077 1520 
Q 1933 1542 1728 1542 
Q 1594 1542 1443 1523 
Q 1293 1504 1168 1443 
Q 1043 1382 960 1276 
Q 877 1171 877 998 
Q 877 678 1081 553 
Q 1286 429 1638 429 
z
M 1587 3411 
Q 1946 3411 2192 3318 
Q 2438 3226 2588 3056 
Q 2739 2886 2803 2652 
Q 2867 2419 2867 2138 
L 2867 58 
Q 2790 45 2652 22 
Q 2515 0 2342 -19 
Q 2170 -38 1968 -54 
Q 1766 -70 1568 -70 
Q 1286 -70 1049 -12 
Q 813 45 640 169 
Q 467 294 371 499 
Q 275 704 275 992 
Q 275 1267 387 1465 
Q 499 1664 691 1785 
Q 883 1907 1139 1964 
Q 1395 2022 1677 2022 
Q 1766 2022 1862 2012 
Q 1958 2003 2044 1987 
Q 2131 1971 2195 1958 
Q 2259 1946 2285 1939 
L 2285 2106 
Q 2285 2253 2253 2397 
Q 2221 2541 2137 2653 
Q 2054 2765 1910 2832 
Q 1766 2899 1536 2899 
Q 1242 2899 1021 2857 
Q 800 2816 691 2771 
L 621 3264 
Q 736 3315 1005 3363 
Q 1274 3411 1587 3411 
z
" transform="scale(0.015625)"/>
       <path id="Ubuntu-443" d="M 122 -621 
Q 192 -653 304 -681 
Q 416 -710 525 -710 
Q 877 -710 1075 -553 
Q 1274 -397 1434 -45 
Q 1030 723 681 1584 
Q 333 2445 102 3328 
L 742 3328 
Q 813 3040 912 2707 
Q 1011 2374 1132 2022 
Q 1254 1670 1395 1318 
Q 1536 966 1690 640 
Q 1933 1312 2112 1971 
Q 2291 2630 2451 3328 
L 3066 3328 
Q 2835 2387 2553 1520 
Q 2272 653 1946 -102 
Q 1818 -390 1680 -598 
Q 1542 -806 1376 -940 
Q 1210 -1075 1002 -1139 
Q 794 -1203 531 -1203 
Q 461 -1203 384 -1193 
Q 307 -1184 233 -1168 
Q 160 -1152 99 -1133 
Q 38 -1114 13 -1101 
L 122 -621 
z
" transform="scale(0.015625)"/>
       <path id="Ubuntu-437" d="M 1357 3411 
Q 1645 3411 1894 3353 
Q 2144 3296 2323 3181 
Q 2502 3066 2604 2893 
Q 2707 2720 2707 2490 
Q 2707 2342 2656 2220 
Q 2605 2099 2528 2003 
Q 2451 1907 2358 1840 
Q 2266 1773 2182 1747 
Q 2477 1658 2646 1430 
Q 2816 1203 2816 858 
Q 2816 384 2432 153 
Q 2048 -77 1389 -77 
Q 986 -77 694 -13 
Q 403 51 282 109 
L 384 614 
Q 486 576 752 509 
Q 1018 442 1389 442 
Q 1792 442 2003 566 
Q 2214 691 2214 941 
Q 2214 1120 2134 1232 
Q 2054 1344 1932 1401 
Q 1811 1459 1670 1478 
Q 1530 1498 1408 1498 
L 851 1498 
L 851 1971 
L 1389 1971 
Q 1504 1971 1629 1987 
Q 1754 2003 1859 2054 
Q 1965 2106 2035 2198 
Q 2106 2291 2106 2445 
Q 2106 2566 2045 2652 
Q 1984 2739 1881 2796 
Q 1779 2854 1641 2883 
Q 1504 2912 1357 2912 
Q 1242 2912 1107 2893 
Q 973 2874 845 2845 
Q 717 2816 614 2784 
Q 512 2752 467 2726 
L 358 3238 
Q 410 3258 518 3290 
Q 627 3322 764 3347 
Q 902 3373 1056 3392 
Q 1210 3411 1357 3411 
z
" transform="scale(0.015625)"/>
       <path id="Ubuntu-439" d="M 3309 3328 
L 3309 0 
L 2733 0 
L 2733 2534 
Q 2541 2291 2310 1964 
Q 2080 1638 1849 1289 
Q 1619 941 1408 601 
Q 1197 262 1043 0 
L 512 0 
L 512 3328 
L 1088 3328 
L 1088 934 
Q 1254 1210 1465 1539 
Q 1677 1869 1904 2192 
Q 2131 2515 2358 2812 
Q 2586 3110 2784 3328 
L 3309 3328 
z
M 1917 3866 
Q 1514 3866 1261 4070 
Q 1008 4275 957 4640 
L 1411 4762 
Q 1462 4557 1584 4429 
Q 1706 4301 1917 4301 
Q 2128 4301 2249 4429 
Q 2371 4557 2422 4762 
L 2870 4640 
Q 2819 4275 2569 4070 
Q 2320 3866 1917 3866 
z
" transform="scale(0.015625)"/>
       <path id="Ubuntu-29" d="M 979 1914 
Q 979 2733 742 3430 
Q 506 4128 45 4723 
L 467 5011 
Q 966 4403 1270 3612 
Q 1574 2822 1574 1914 
Q 1574 1005 1270 214 
Q 966 -576 467 -1184 
L 45 -896 
Q 506 -301 742 396 
Q 979 1094 979 1914 
z
" transform="scale(0.015625)"/>
      </defs>
      <use xlink:href="#Ubuntu-41e"/>
      <use xlink:href="#Ubuntu-432" x="77.799988"/>
      <use xlink:href="#Ubuntu-43e" x="132.599976"/>
      <use xlink:href="#Ubuntu-449" x="191.59996"/>
      <use xlink:href="#Ubuntu-438" x="274.999954"/>
      <use xlink:href="#Ubuntu-20" x="334.699951"/>
      <use xlink:href="#Ubuntu-28" x="357.799942"/>
      <use xlink:href="#Ubuntu-441" x="390.199936"/>
      <use xlink:href="#Ubuntu-440" x="436.699921"/>
      <use xlink:href="#Ubuntu-435" x="495.599915"/>
      <use xlink:href="#Ubuntu-434" x="551.499908"/>
      <use xlink:href="#Ubuntu-43d" x="611.799896"/>
      <use xlink:href="#Ubuntu-44f" x="670.399887"/>
      <use xlink:href="#Ubuntu-44f" x="725.199875"/>
      <use xlink:href="#Ubuntu-20" x="779.999863"/>
      <use xlink:href="#Ubuntu-446" x="803.099854"/>
      <use xlink:href="#Ubuntu-435" x="861.699844"/>
      <use xlink:href="#Ubuntu-43d" x="917.599838"/>
      <use xlink:href="#Ubuntu-430" x="976.199829"/>
      <use xlink:href="#Ubuntu-20" x="1028.399826"/>
      <use xlink:href="#Ubuntu-443" x="1051.499817"/>
      <use xlink:href="#Ubuntu-20" x="1101.199814"/>
      <use xlink:href="#Ubuntu-43f" x="1124.299805"/>
      <use xlink:href="#Ubuntu-440" x="1182.099792"/>
      <use xlink:href="#Ubuntu-43e" x="1240.999786"/>
      <use xlink:href="#Ubuntu-438" x="1299.999771"/>
      <use xlink:href="#Ubuntu-437" x="1359.699768"/>
      <use xlink:href="#Ubuntu-432" x="1408.599762"/>
      <use xlink:href="#Ubuntu-43e" x="1463.39975"/>
      <use xlink:href="#Ubuntu-434" x="1522.399734"/>
      <use xlink:href="#Ubuntu-438" x="1582.699722"/>
      <use xlink:href="#Ubuntu-442" x="1642.399719"/>
      <use xlink:href="#Ubuntu-435" x="1688.699707"/>
      <use xlink:href="#Ubuntu-43b" x="1744.599701"/>
      <use xlink:href="#Ubuntu-435" x="1804.399689"/>
      <use xlink:href="#Ubuntu-439" x="1860.299683"/>
      <use xlink:href="#Ubuntu-29" x="1919.99968"/>
     </g>
    </g>
    <g id="line2d_32">
     <path d="M 40.2925 27.871875 
L 49.2925 27.871875 
L 58.2925 27.871875 
" style="fill: none; stroke: #7e6459; stroke-width: 1.25; stroke-linecap: square"/>
    </g>
    <g id="text_26">
     <!-- Картофель -->
     <g style="fill: #4b4b4b" transform="translate(65.4925 31.021875) scale(0.09 -0.09)">
      <defs>
       <path id="Ubuntu-41a" d="M 3834 4435 
Q 3635 4218 3385 3952 
Q 3136 3686 2864 3408 
Q 2592 3130 2323 2861 
Q 2054 2592 1818 2362 
Q 2093 2170 2400 1888 
Q 2707 1606 3001 1286 
Q 3296 966 3555 633 
Q 3814 301 3987 0 
L 3258 0 
Q 3066 301 2816 605 
Q 2566 909 2288 1187 
Q 2010 1466 1725 1702 
Q 1440 1939 1171 2106 
L 1171 0 
L 550 0 
L 550 4435 
L 1171 4435 
L 1171 2477 
Q 1395 2688 1664 2953 
Q 1933 3219 2195 3488 
Q 2458 3757 2691 4003 
Q 2925 4250 3085 4435 
L 3834 4435 
z
" transform="scale(0.015625)"/>
       <path id="Ubuntu-444" d="M 928 1664 
Q 928 1382 1021 1164 
Q 1114 947 1280 796 
Q 1446 646 1673 566 
Q 1901 486 2163 480 
L 2163 2848 
Q 1901 2842 1673 2758 
Q 1446 2675 1280 2524 
Q 1114 2374 1021 2156 
Q 928 1939 928 1664 
z
M 2739 480 
Q 3002 486 3229 566 
Q 3456 646 3622 796 
Q 3789 947 3881 1164 
Q 3974 1382 3974 1664 
Q 3974 1939 3881 2156 
Q 3789 2374 3622 2524 
Q 3456 2675 3229 2758 
Q 3002 2842 2739 2848 
L 2739 480 
z
M 2739 -1184 
L 2163 -1184 
L 2163 -19 
Q 1786 -13 1453 102 
Q 1120 218 867 432 
Q 614 646 467 956 
Q 320 1267 320 1664 
Q 320 2061 467 2371 
Q 614 2682 867 2896 
Q 1120 3110 1453 3225 
Q 1786 3341 2163 3347 
L 2163 4864 
L 2739 4966 
L 2739 3347 
Q 3110 3341 3446 3225 
Q 3782 3110 4035 2896 
Q 4288 2682 4435 2371 
Q 4582 2061 4582 1664 
Q 4582 1267 4435 956 
Q 4288 646 4035 432 
Q 3782 218 3446 102 
Q 3110 -13 2739 -19 
L 2739 -1184 
z
" transform="scale(0.015625)"/>
       <path id="Ubuntu-44c" d="M 1773 416 
Q 2150 416 2368 563 
Q 2586 710 2586 1037 
Q 2586 1197 2522 1312 
Q 2458 1427 2346 1500 
Q 2234 1574 2086 1609 
Q 1939 1645 1773 1645 
Q 1600 1645 1417 1635 
Q 1235 1626 1107 1594 
L 1107 448 
Q 1146 442 1222 435 
Q 1299 429 1392 425 
Q 1485 422 1584 419 
Q 1683 416 1773 416 
z
M 512 70 
L 512 3328 
L 1107 3328 
L 1107 2054 
Q 1158 2067 1244 2080 
Q 1331 2093 1430 2105 
Q 1530 2118 1638 2124 
Q 1747 2131 1843 2131 
Q 2118 2131 2361 2070 
Q 2605 2010 2787 1878 
Q 2970 1747 3078 1539 
Q 3187 1331 3187 1043 
Q 3187 742 3084 531 
Q 2982 320 2790 185 
Q 2598 51 2332 -9 
Q 2067 -70 1741 -70 
Q 1421 -70 1113 -35 
Q 806 0 512 70 
z
" transform="scale(0.015625)"/>
      </defs>
      <use xlink:href="#Ubuntu-41a"/>
      <use xlink:href="#Ubuntu-430" x="62.899994"/>
      <use xlink:href="#Ubuntu-440" x="115.099991"/>
      <use xlink:href="#Ubuntu-442" x="173.999985"/>
      <use xlink:href="#Ubuntu-43e" x="220.299973"/>
      <use xlink:href="#Ubuntu-444" x="279.299957"/>
      <use xlink:href="#Ubuntu-435" x="355.899948"/>
      <use xlink:href="#Ubuntu-43b" x="411.799942"/>
      <use xlink:href="#Ubuntu-44c" x="471.59993"/>
     </g>
    </g>
    <g id="line2d_33">
     <path d="M 259.209062 14.696719 
L 268.209062 14.696719 
L 277.209062 14.696719 
" style="fill: none; stroke: #489079; stroke-width: 1.25; stroke-linecap: square"/>
    </g>
    <g id="text_27">
     <!-- Огурцы -->
     <g style="fill: #4b4b4b" transform="translate(284.409062 17.846719) scale(0.09 -0.09)">
      <defs>
       <path id="Ubuntu-433" d="M 2573 2829 
L 1107 2829 
L 1107 0 
L 512 0 
L 512 3328 
L 2573 3328 
L 2573 2829 
z
" transform="scale(0.015625)"/>
       <path id="Ubuntu-44b" d="M 1734 1645 
Q 1562 1645 1398 1635 
Q 1235 1626 1107 1594 
L 1107 448 
Q 1146 442 1219 435 
Q 1293 429 1379 425 
Q 1466 422 1555 419 
Q 1645 416 1715 416 
Q 2106 416 2317 563 
Q 2528 710 2528 1037 
Q 2528 1197 2461 1312 
Q 2394 1427 2282 1500 
Q 2170 1574 2029 1609 
Q 1888 1645 1734 1645 
z
M 512 3328 
L 1107 3328 
L 1107 2054 
Q 1216 2080 1424 2105 
Q 1632 2131 1824 2131 
Q 2086 2131 2323 2070 
Q 2560 2010 2739 1878 
Q 2918 1747 3024 1539 
Q 3130 1331 3130 1043 
Q 3130 742 3027 531 
Q 2925 320 2739 185 
Q 2554 51 2291 -9 
Q 2029 -70 1715 -70 
Q 1414 -70 1107 -35 
Q 800 0 512 70 
L 512 3328 
z
M 4339 0 
L 3744 0 
L 3744 3328 
L 4339 3328 
L 4339 0 
z
" transform="scale(0.015625)"/>
      </defs>
      <use xlink:href="#Ubuntu-41e"/>
      <use xlink:href="#Ubuntu-433" x="77.799988"/>
      <use xlink:href="#Ubuntu-443" x="121.849976"/>
      <use xlink:href="#Ubuntu-440" x="171.549973"/>
      <use xlink:href="#Ubuntu-446" x="230.449966"/>
      <use xlink:href="#Ubuntu-44b" x="289.049957"/>
     </g>
    </g>
    <g id="line2d_34">
     <path d="M 259.209062 27.871875 
L 268.209062 27.871875 
L 277.209062 27.871875 
" style="fill: none; stroke: #b3625a; stroke-width: 1.25; stroke-linecap: square"/>
    </g>
    <g id="text_28">
     <!-- Помидоры -->
     <g style="fill: #4b4b4b" transform="translate(284.409062 31.021875) scale(0.09 -0.09)">
      <defs>
       <path id="Ubuntu-41f" d="M 3923 4435 
L 3923 0 
L 3302 0 
L 3302 3904 
L 1171 3904 
L 1171 0 
L 550 0 
L 550 4435 
L 3923 4435 
z
" transform="scale(0.015625)"/>
       <path id="Ubuntu-43c" d="M 1146 2451 
Q 1082 1818 1050 1187 
Q 1018 557 998 0 
L 429 0 
Q 442 390 467 816 
Q 493 1242 525 1674 
Q 557 2106 595 2525 
Q 634 2944 678 3328 
L 1222 3328 
Q 1427 2995 1702 2416 
Q 1978 1837 2336 1082 
Q 2694 1837 2969 2416 
Q 3245 2995 3450 3328 
L 4000 3328 
Q 4045 2944 4083 2525 
Q 4122 2106 4154 1674 
Q 4186 1242 4211 816 
Q 4237 390 4250 0 
L 3661 0 
Q 3642 557 3610 1187 
Q 3578 1818 3514 2451 
Q 3411 2253 3276 1974 
Q 3142 1696 3011 1408 
Q 2880 1120 2765 857 
Q 2650 595 2586 442 
L 2086 442 
Q 2016 602 1897 864 
Q 1779 1126 1648 1417 
Q 1517 1709 1382 1987 
Q 1248 2266 1146 2451 
z
" transform="scale(0.015625)"/>
      </defs>
      <use xlink:href="#Ubuntu-41f"/>
      <use xlink:href="#Ubuntu-43e" x="69.899994"/>
      <use xlink:href="#Ubuntu-43c" x="128.899979"/>
      <use xlink:href="#Ubuntu-438" x="201.999969"/>
      <use xlink:href="#Ubuntu-434" x="261.699966"/>
      <use xlink:href="#Ubuntu-43e" x="321.999954"/>
      <use xlink:href="#Ubuntu-440" x="380.999939"/>
      <use xlink:href="#Ubuntu-44b" x="439.899933"/>
     </g>
    </g>
    <g id="line2d_35">
     <path d="M 348.822344 14.696719 
L 357.822344 14.696719 
L 366.822344 14.696719 
" style="fill: none; stroke: #6893b8; stroke-width: 1.25; stroke-linecap: square"/>
    </g>
    <g id="text_29">
     <!-- Лук -->
     <g style="fill: #4b4b4b" transform="translate(374.022344 17.846719) scale(0.09 -0.09)">
      <defs>
       <path id="Ubuntu-41b" d="M 2067 3904 
Q 2054 3546 2041 3210 
Q 2029 2874 2003 2557 
Q 1978 2240 1926 1939 
Q 1875 1638 1786 1350 
Q 1696 1062 1565 809 
Q 1434 557 1238 368 
Q 1043 179 777 64 
Q 512 -51 154 -64 
L 83 474 
Q 531 525 777 755 
Q 1024 986 1184 1459 
Q 1363 1997 1411 2755 
Q 1459 3514 1459 4435 
L 3974 4435 
L 3974 0 
L 3354 0 
L 3354 3904 
L 2067 3904 
z
" transform="scale(0.015625)"/>
      </defs>
      <use xlink:href="#Ubuntu-41b"/>
      <use xlink:href="#Ubuntu-443" x="70.699982"/>
      <use xlink:href="#Ubuntu-43a" x="120.399979"/>
     </g>
    </g>
    <g id="line2d_36">
     <path d="M 407.692187 14.696719 
L 416.692187 14.696719 
L 425.692187 14.696719 
" style="fill: none; stroke: #d8805d; stroke-width: 1.25; stroke-linecap: square"/>
    </g>
    <g id="text_30">
     <!-- Морковь -->
     <g style="fill: #4b4b4b" transform="translate(432.892187 17.846719) scale(0.09 -0.09)">
      <defs>
       <path id="Ubuntu-41c" d="M 2541 614 
Q 2477 768 2371 1005 
Q 2266 1242 2144 1517 
Q 2022 1792 1884 2083 
Q 1747 2374 1625 2633 
Q 1504 2893 1398 3097 
Q 1293 3302 1229 3411 
Q 1158 2656 1113 1776 
Q 1069 896 1037 0 
L 429 0 
Q 454 576 486 1161 
Q 518 1747 560 2313 
Q 602 2880 650 3417 
Q 698 3955 755 4435 
L 1299 4435 
Q 1472 4154 1670 3770 
Q 1869 3386 2067 2966 
Q 2266 2547 2451 2128 
Q 2637 1709 2790 1363 
Q 2944 1709 3129 2128 
Q 3315 2547 3513 2966 
Q 3712 3386 3910 3770 
Q 4109 4154 4282 4435 
L 4826 4435 
Q 5043 2291 5152 0 
L 4544 0 
Q 4512 896 4467 1776 
Q 4422 2656 4352 3411 
Q 4288 3302 4182 3097 
Q 4077 2893 3955 2633 
Q 3834 2374 3696 2083 
Q 3558 1792 3436 1517 
Q 3315 1242 3209 1005 
Q 3104 768 3040 614 
L 2541 614 
z
" transform="scale(0.015625)"/>
      </defs>
      <use xlink:href="#Ubuntu-41c"/>
      <use xlink:href="#Ubuntu-43e" x="87.099991"/>
      <use xlink:href="#Ubuntu-440" x="146.099976"/>
      <use xlink:href="#Ubuntu-43a" x="204.999969"/>
      <use xlink:href="#Ubuntu-43e" x="255.824966"/>
      <use xlink:href="#Ubuntu-432" x="314.824951"/>
      <use xlink:href="#Ubuntu-44c" x="369.624939"/>
     </g>
    </g>
   </g>
   <g id="line2d_37">
    <path d="M 44.7475 151.666875 
L 521.8375 151.666875 
" clip-path="url(#p175baebfef)" style="fill: none; stroke-dasharray: 2.775,1.2; stroke-dashoffset: 0; stroke: #c5c5c5; stroke-width: 0.75"/>
   </g>
  </g>
 </g>
 <defs>
  <clipPath id="p63d61a3f81">
   <rect x="32.1925" y="207.106875" width="502.2" height="0"/>
  </clipPath>
  <clipPath id="p175baebfef">
   <rect x="32.1925" y="40.786875" width="502.2" height="166.32"/>
  </clipPath>
 </defs>
</svg>
