<?xml version="1.0" encoding="utf-8" standalone="no"?>
<!DOCTYPE svg PUBLIC "-//W3C//DTD SVG 1.1//EN"
  "http://www.w3.org/Graphics/SVG/1.1/DTD/svg11.dtd">
<svg xmlns:xlink="http://www.w3.org/1999/xlink" width="548.9125pt" height="243.2075pt" viewBox="0 0 548.9125 243.2075" xmlns="http://www.w3.org/2000/svg" version="1.1">
 <metadata>
  <rdf:RDF xmlns:dc="http://purl.org/dc/elements/1.1/" xmlns:cc="http://creativecommons.org/ns#" xmlns:rdf="http://www.w3.org/1999/02/22-rdf-syntax-ns#">
   <cc:Work>
    <dc:type rdf:resource="http://purl.org/dc/dcmitype/StillImage"/>
    <dc:date>2024-05-29T17:10:02.105642</dc:date>
    <dc:format>image/svg+xml</dc:format>
    <dc:creator>
     <cc:Agent>
      <dc:title>Matplotlib v3.9.0, https://matplotlib.org/</dc:title>
     </cc:Agent>
    </dc:creator>
   </cc:Work>
  </rdf:RDF>
 </metadata>
 <defs>
  <style type="text/css">*{stroke-linejoin: round; stroke-linecap: butt}</style>
 </defs>
 <g id="figure_1">
  <g id="patch_1">
   <path d="M 0 243.2075 
L 548.9125 243.2075 
L 548.9125 0 
L 0 0 
L 0 243.2075 
z
" style="fill: none"/>
  </g>
  <g id="axes_1">
   <g id="patch_2">
    <path d="M 32.1925 204.32 
L 534.3925 204.32 
L 534.3925 38 
L 32.1925 38 
L 32.1925 204.32 
z
" style="fill: none"/>
   </g>
   <g id="line2d_1">
    <path d="M 70.302112 199.584005 
L 70.302112 46.189426 
" clip-path="url(#p0d8babfea2)" style="fill: none; stroke-dasharray: 0.5,0.825; stroke-dashoffset: 0; stroke: #d9d9d9; stroke-width: 0.5"/>
   </g>
   <g id="line2d_2">
    <path d="M 108.835164 199.584005 
L 108.835164 46.189426 
" clip-path="url(#p0d8babfea2)" style="fill: none; stroke-dasharray: 0.5,0.825; stroke-dashoffset: 0; stroke: #d9d9d9; stroke-width: 0.5"/>
   </g>
   <g id="line2d_3">
    <path d="M 147.791657 199.584005 
L 147.791657 46.189426 
" clip-path="url(#p0d8babfea2)" style="fill: none; stroke-dasharray: 0.5,0.825; stroke-dashoffset: 0; stroke: #d9d9d9; stroke-width: 0.5"/>
   </g>
   <g id="line2d_4">
    <path d="M 186.748149 199.584005 
L 186.748149 46.189426 
" clip-path="url(#p0d8babfea2)" style="fill: none; stroke-dasharray: 0.5,0.825; stroke-dashoffset: 0; stroke: #d9d9d9; stroke-width: 0.5"/>
   </g>
   <g id="line2d_5">
    <path d="M 224.857761 199.584005 
L 224.857761 46.189426 
" clip-path="url(#p0d8babfea2)" style="fill: none; stroke-dasharray: 0.5,0.825; stroke-dashoffset: 0; stroke: #d9d9d9; stroke-width: 0.5"/>
   </g>
   <g id="line2d_6">
    <path d="M 263.390814 199.584005 
L 263.390814 46.189426 
" clip-path="url(#p0d8babfea2)" style="fill: none; stroke-dasharray: 0.5,0.825; stroke-dashoffset: 0; stroke: #d9d9d9; stroke-width: 0.5"/>
   </g>
   <g id="line2d_7">
    <path d="M 302.347306 199.584005 
L 302.347306 46.189426 
" clip-path="url(#p0d8babfea2)" style="fill: none; stroke-dasharray: 0.5,0.825; stroke-dashoffset: 0; stroke: #d9d9d9; stroke-width: 0.5"/>
   </g>
   <g id="line2d_8">
    <path d="M 341.303798 199.584005 
L 341.303798 46.189426 
" clip-path="url(#p0d8babfea2)" style="fill: none; stroke-dasharray: 0.5,0.825; stroke-dashoffset: 0; stroke: #d9d9d9; stroke-width: 0.5"/>
   </g>
   <g id="line2d_9">
    <path d="M 379.413411 199.584005 
L 379.413411 46.189426 
" clip-path="url(#p0d8babfea2)" style="fill: none; stroke-dasharray: 0.5,0.825; stroke-dashoffset: 0; stroke: #d9d9d9; stroke-width: 0.5"/>
   </g>
   <g id="line2d_10">
    <path d="M 417.946463 199.584005 
L 417.946463 46.189426 
" clip-path="url(#p0d8babfea2)" style="fill: none; stroke-dasharray: 0.5,0.825; stroke-dashoffset: 0; stroke: #d9d9d9; stroke-width: 0.5"/>
   </g>
   <g id="line2d_11">
    <path d="M 456.902955 199.584005 
L 456.902955 46.189426 
" clip-path="url(#p0d8babfea2)" style="fill: none; stroke-dasharray: 0.5,0.825; stroke-dashoffset: 0; stroke: #d9d9d9; stroke-width: 0.5"/>
   </g>
   <g id="line2d_12">
    <path d="M 495.859448 199.584005 
L 495.859448 46.189426 
" clip-path="url(#p0d8babfea2)" style="fill: none; stroke-dasharray: 0.5,0.825; stroke-dashoffset: 0; stroke: #d9d9d9; stroke-width: 0.5"/>
   </g>
   <g id="line2d_13">
    <path d="M 32.1925 168.905089 
L 534.3925 168.905089 
" clip-path="url(#p0d8babfea2)" style="fill: none; stroke-dasharray: 0.5,0.825; stroke-dashoffset: 0; stroke: #d9d9d9; stroke-width: 0.5"/>
   </g>
   <g id="line2d_14">
    <path d="M 32.1925 138.226173 
L 534.3925 138.226173 
" clip-path="url(#p0d8babfea2)" style="fill: none; stroke-dasharray: 0.5,0.825; stroke-dashoffset: 0; stroke: #d9d9d9; stroke-width: 0.5"/>
   </g>
   <g id="line2d_15">
    <path d="M 32.1925 107.547257 
L 534.3925 107.547257 
" clip-path="url(#p0d8babfea2)" style="fill: none; stroke-dasharray: 0.5,0.825; stroke-dashoffset: 0; stroke: #d9d9d9; stroke-width: 0.5"/>
   </g>
   <g id="line2d_16">
    <path d="M 32.1925 76.868342 
L 534.3925 76.868342 
" clip-path="url(#p0d8babfea2)" style="fill: none; stroke-dasharray: 0.5,0.825; stroke-dashoffset: 0; stroke: #d9d9d9; stroke-width: 0.5"/>
   </g>
   <g id="line2d_17">
    <path d="M 37.2145 168.905089 
L 529.3705 168.905089 
" clip-path="url(#p0d8babfea2)" style="fill: none; stroke-dasharray: 2.775,1.2; stroke-dashoffset: 0; stroke: #cccccc; stroke-width: 0.75"/>
   </g>
   <g id="axes_2">
    <g id="patch_3">
     <path d="M 32.1925 204.32 
L 534.3925 204.32 
L 534.3925 204.32 
L 32.1925 204.32 
L 32.1925 204.32 
z
" style="fill: none"/>
    </g>
    <g id="matplotlib.axis_1">
     <g id="xtick_1">
      <g id="line2d_18">
       <path d="M 32.1925 204.32 
L 32.1925 204.32 
" clip-path="url(#p0bd8c49673)" style="fill: none; stroke-dasharray: 0.5,0.825; stroke-dashoffset: 0; stroke: #d9d9d9; stroke-width: 0.5"/>
      </g>
      <g id="text_1">
       <!-- 2021 -->
       <g style="fill: #808080" transform="translate(23.1675 234.5275) scale(0.08 -0.08)">
        <defs>
         <path id="Ubuntu-32" d="M 2989 3302 
Q 2989 3072 2896 2857 
Q 2803 2643 2649 2435 
Q 2496 2227 2304 2025 
Q 2112 1824 1920 1632 
Q 1811 1523 1667 1376 
Q 1523 1229 1395 1069 
Q 1267 909 1180 761 
Q 1094 614 1094 506 
L 3136 506 
L 3136 0 
L 448 0 
Q 442 38 442 76 
Q 442 115 442 147 
Q 442 448 541 707 
Q 640 966 800 1196 
Q 960 1427 1158 1632 
Q 1357 1837 1549 2029 
Q 1709 2182 1853 2332 
Q 1997 2483 2109 2633 
Q 2221 2784 2288 2944 
Q 2355 3104 2355 3283 
Q 2355 3475 2294 3609 
Q 2234 3744 2131 3833 
Q 2029 3923 1891 3964 
Q 1754 4006 1600 4006 
Q 1414 4006 1260 3955 
Q 1107 3904 985 3837 
Q 864 3770 781 3696 
Q 698 3622 653 3584 
L 358 4006 
Q 416 4070 531 4163 
Q 646 4256 806 4339 
Q 966 4422 1164 4480 
Q 1363 4538 1594 4538 
Q 2291 4538 2640 4214 
Q 2989 3891 2989 3302 
z
" transform="scale(0.015625)"/>
         <path id="Ubuntu-30" d="M 320 2221 
Q 320 3334 713 3936 
Q 1107 4538 1805 4538 
Q 2502 4538 2896 3936 
Q 3290 3334 3290 2221 
Q 3290 1107 2896 505 
Q 2502 -96 1805 -96 
Q 1107 -96 713 505 
Q 320 1107 320 2221 
z
M 2662 2221 
Q 2662 2586 2620 2912 
Q 2579 3238 2480 3481 
Q 2381 3725 2214 3869 
Q 2048 4013 1805 4013 
Q 1562 4013 1395 3869 
Q 1229 3725 1129 3481 
Q 1030 3238 988 2912 
Q 947 2586 947 2221 
Q 947 1856 988 1529 
Q 1030 1203 1129 960 
Q 1229 717 1395 573 
Q 1562 429 1805 429 
Q 2048 429 2214 573 
Q 2381 717 2480 960 
Q 2579 1203 2620 1529 
Q 2662 1856 2662 2221 
z
" transform="scale(0.015625)"/>
         <path id="Ubuntu-31" d="M 595 3520 
Q 960 3661 1305 3881 
Q 1651 4102 1939 4435 
L 2362 4435 
L 2362 0 
L 1766 0 
L 1766 3610 
Q 1690 3539 1578 3462 
Q 1466 3386 1334 3315 
Q 1203 3245 1059 3181 
Q 915 3117 781 3072 
L 595 3520 
z
" transform="scale(0.015625)"/>
        </defs>
        <use xlink:href="#Ubuntu-32"/>
        <use xlink:href="#Ubuntu-30" x="56.399994"/>
        <use xlink:href="#Ubuntu-32" x="112.799988"/>
        <use xlink:href="#Ubuntu-31" x="169.199982"/>
       </g>
      </g>
     </g>
     <g id="xtick_2">
      <g id="line2d_19">
       <path d="M 186.748149 204.32 
L 186.748149 204.32 
" clip-path="url(#p0bd8c49673)" style="fill: none; stroke-dasharray: 0.5,0.825; stroke-dashoffset: 0; stroke: #d9d9d9; stroke-width: 0.5"/>
      </g>
      <g id="text_2">
       <!-- 2022 -->
       <g style="fill: #808080" transform="translate(177.723149 234.5275) scale(0.08 -0.08)">
        <use xlink:href="#Ubuntu-32"/>
        <use xlink:href="#Ubuntu-30" x="56.399994"/>
        <use xlink:href="#Ubuntu-32" x="112.799988"/>
        <use xlink:href="#Ubuntu-32" x="169.199982"/>
       </g>
      </g>
     </g>
     <g id="xtick_3">
      <g id="line2d_20">
       <path d="M 341.303798 204.32 
L 341.303798 204.32 
" clip-path="url(#p0bd8c49673)" style="fill: none; stroke-dasharray: 0.5,0.825; stroke-dashoffset: 0; stroke: #d9d9d9; stroke-width: 0.5"/>
      </g>
      <g id="text_3">
       <!-- 2023 -->
       <g style="fill: #808080" transform="translate(332.278798 234.5275) scale(0.08 -0.08)">
        <defs>
         <path id="Ubuntu-33" d="M 1446 435 
Q 2016 435 2262 659 
Q 2509 883 2509 1261 
Q 2509 1504 2406 1670 
Q 2304 1837 2137 1936 
Q 1971 2035 1750 2076 
Q 1530 2118 1299 2118 
L 1146 2118 
L 1146 2605 
L 1357 2605 
Q 1517 2605 1686 2637 
Q 1856 2669 1997 2752 
Q 2138 2835 2227 2979 
Q 2317 3123 2317 3341 
Q 2317 3520 2253 3648 
Q 2189 3776 2083 3859 
Q 1978 3942 1840 3977 
Q 1702 4013 1549 4013 
Q 1242 4013 1027 3923 
Q 813 3834 666 3738 
L 435 4192 
Q 512 4243 630 4304 
Q 749 4365 896 4416 
Q 1043 4467 1212 4502 
Q 1382 4538 1568 4538 
Q 1920 4538 2176 4451 
Q 2432 4365 2598 4208 
Q 2765 4051 2848 3836 
Q 2931 3622 2931 3373 
Q 2931 3027 2732 2780 
Q 2534 2534 2253 2406 
Q 2426 2355 2586 2259 
Q 2746 2163 2864 2016 
Q 2982 1869 3056 1677 
Q 3130 1485 3130 1248 
Q 3130 960 3030 713 
Q 2931 467 2723 288 
Q 2515 109 2201 6 
Q 1888 -96 1459 -96 
Q 1293 -96 1117 -70 
Q 941 -45 787 -6 
Q 634 32 518 70 
Q 403 109 352 134 
L 467 653 
Q 576 602 829 518 
Q 1082 435 1446 435 
z
" transform="scale(0.015625)"/>
        </defs>
        <use xlink:href="#Ubuntu-32"/>
        <use xlink:href="#Ubuntu-30" x="56.399994"/>
        <use xlink:href="#Ubuntu-32" x="112.799988"/>
        <use xlink:href="#Ubuntu-33" x="169.199982"/>
       </g>
      </g>
     </g>
     <g id="xtick_4">
      <g id="line2d_21">
       <path d="M 495.859448 204.32 
L 495.859448 204.32 
" clip-path="url(#p0bd8c49673)" style="fill: none; stroke-dasharray: 0.5,0.825; stroke-dashoffset: 0; stroke: #d9d9d9; stroke-width: 0.5"/>
      </g>
      <g id="text_4">
       <!-- 2024 -->
       <g style="fill: #808080" transform="translate(486.834448 234.5275) scale(0.08 -0.08)">
        <defs>
         <path id="Ubuntu-34" d="M 256 1536 
Q 378 1818 589 2192 
Q 800 2566 1065 2963 
Q 1331 3360 1635 3744 
Q 1939 4128 2246 4435 
L 2816 4435 
L 2816 1619 
L 3341 1619 
L 3341 1133 
L 2816 1133 
L 2816 0 
L 2240 0 
L 2240 1133 
L 256 1133 
L 256 1536 
z
M 2240 3731 
Q 2048 3526 1853 3273 
Q 1658 3021 1472 2745 
Q 1286 2470 1123 2182 
Q 960 1894 832 1619 
L 2240 1619 
L 2240 3731 
z
" transform="scale(0.015625)"/>
        </defs>
        <use xlink:href="#Ubuntu-32"/>
        <use xlink:href="#Ubuntu-30" x="56.399994"/>
        <use xlink:href="#Ubuntu-32" x="112.799988"/>
        <use xlink:href="#Ubuntu-34" x="169.199982"/>
       </g>
      </g>
     </g>
    </g>
    <g id="matplotlib.axis_2"/>
   </g>
   <g id="matplotlib.axis_3">
    <g id="xtick_5">
     <g id="line2d_22">
      <defs>
       <path id="madd940fb83" d="M 0 0 
L 0 3 
" style="stroke: #cecece; stroke-width: 0.75"/>
      </defs>
      <g>
       <use xlink:href="#madd940fb83" x="32.1925" y="209.32" style="fill: #cecece; stroke: #cecece; stroke-width: 0.75"/>
      </g>
     </g>
     <g id="text_5">
      <!-- Янв -->
      <g style="fill: #808080" transform="translate(25.116875 224.5275) scale(0.08 -0.08)">
       <defs>
        <path id="Ubuntu-42f" d="M 2272 3936 
Q 2029 3936 1808 3897 
Q 1587 3859 1414 3763 
Q 1242 3667 1139 3500 
Q 1037 3334 1037 3085 
Q 1037 2611 1341 2428 
Q 1645 2246 2253 2246 
L 2893 2246 
L 2893 3917 
Q 2822 3917 2726 3923 
Q 2643 3930 2531 3933 
Q 2419 3936 2272 3936 
z
M 2323 4480 
Q 2458 4480 2611 4473 
Q 2765 4467 2921 4454 
Q 3078 4442 3232 4422 
Q 3386 4403 3514 4371 
L 3514 0 
L 2893 0 
L 2893 1734 
L 2362 1734 
Q 2272 1734 2173 1737 
Q 2074 1741 1907 1760 
Q 1792 1606 1657 1401 
Q 1523 1197 1388 966 
Q 1254 736 1123 486 
Q 992 237 883 0 
L 230 0 
Q 333 250 473 518 
Q 614 787 764 1030 
Q 915 1274 1052 1482 
Q 1190 1690 1293 1824 
Q 1146 1869 986 1952 
Q 826 2035 691 2182 
Q 557 2330 470 2550 
Q 384 2771 384 3078 
Q 384 3424 518 3686 
Q 653 3949 905 4125 
Q 1158 4301 1516 4390 
Q 1875 4480 2323 4480 
z
" transform="scale(0.015625)"/>
        <path id="Ubuntu-43d" d="M 3238 0 
L 2643 0 
L 2643 1472 
L 1107 1472 
L 1107 0 
L 512 0 
L 512 3328 
L 1107 3328 
L 1107 1971 
L 2643 1971 
L 2643 3328 
L 3238 3328 
L 3238 0 
z
" transform="scale(0.015625)"/>
        <path id="Ubuntu-432" d="M 1094 448 
Q 1133 442 1203 435 
Q 1274 429 1363 425 
Q 1453 422 1552 419 
Q 1651 416 1741 416 
Q 1926 416 2096 441 
Q 2266 467 2390 531 
Q 2515 595 2588 700 
Q 2662 806 2662 973 
Q 2662 1133 2595 1238 
Q 2528 1344 2413 1408 
Q 2298 1472 2141 1497 
Q 1984 1523 1805 1523 
L 1094 1523 
L 1094 448 
z
M 1728 1965 
Q 1901 1965 2045 1987 
Q 2189 2010 2294 2067 
Q 2400 2125 2461 2221 
Q 2522 2317 2522 2464 
Q 2522 2618 2445 2707 
Q 2368 2797 2243 2845 
Q 2118 2893 1961 2909 
Q 1805 2925 1645 2925 
Q 1498 2925 1347 2918 
Q 1197 2912 1094 2906 
L 1094 1965 
L 1728 1965 
z
M 1715 -58 
Q 1338 -58 1018 -22 
Q 698 13 512 58 
L 512 3296 
Q 698 3341 1018 3376 
Q 1338 3411 1715 3411 
Q 1978 3411 2227 3366 
Q 2477 3322 2669 3216 
Q 2861 3110 2979 2928 
Q 3098 2746 3098 2477 
Q 3098 2234 2976 2061 
Q 2854 1888 2650 1792 
Q 2925 1696 3088 1507 
Q 3251 1318 3251 979 
Q 3251 678 3132 480 
Q 3014 282 2806 160 
Q 2598 38 2316 -10 
Q 2035 -58 1715 -58 
z
" transform="scale(0.015625)"/>
       </defs>
       <use xlink:href="#Ubuntu-42f"/>
       <use xlink:href="#Ubuntu-43d" x="63.499985"/>
       <use xlink:href="#Ubuntu-432" x="122.099976"/>
      </g>
     </g>
    </g>
    <g id="xtick_6">
     <g id="line2d_23">
      <g>
       <use xlink:href="#madd940fb83" x="70.302112" y="209.32" style="fill: #cecece; stroke: #cecece; stroke-width: 0.75"/>
      </g>
     </g>
     <g id="text_6">
      <!-- Апр -->
      <g style="fill: #808080" transform="translate(62.982112 224.5275) scale(0.08 -0.08)">
       <defs>
        <path id="Ubuntu-410" d="M 3514 0 
Q 3405 288 3309 566 
Q 3213 845 3110 1133 
L 1101 1133 
L 698 0 
L 51 0 
Q 307 704 531 1302 
Q 755 1901 969 2438 
Q 1184 2976 1395 3465 
Q 1606 3955 1837 4435 
L 2406 4435 
Q 2637 3955 2848 3465 
Q 3059 2976 3273 2438 
Q 3488 1901 3712 1302 
Q 3936 704 4192 0 
L 3514 0 
z
M 2931 1645 
Q 2726 2202 2524 2723 
Q 2323 3245 2106 3725 
Q 1882 3245 1680 2723 
Q 1478 2202 1280 1645 
L 2931 1645 
z
" transform="scale(0.015625)"/>
        <path id="Ubuntu-43f" d="M 3187 0 
L 2592 0 
L 2592 2829 
L 1107 2829 
L 1107 0 
L 512 0 
L 512 3328 
L 3187 3328 
L 3187 0 
z
" transform="scale(0.015625)"/>
        <path id="Ubuntu-440" d="M 2822 1658 
Q 2822 2240 2534 2553 
Q 2246 2867 1766 2867 
Q 1498 2867 1347 2848 
Q 1197 2829 1107 2803 
L 1107 704 
Q 1216 614 1421 531 
Q 1626 448 1869 448 
Q 2125 448 2307 541 
Q 2490 634 2605 797 
Q 2720 960 2771 1181 
Q 2822 1402 2822 1658 
z
M 3443 1658 
Q 3443 1280 3344 960 
Q 3245 640 3053 409 
Q 2861 179 2582 51 
Q 2304 -77 1946 -77 
Q 1658 -77 1437 0 
Q 1216 77 1107 147 
L 1107 -1184 
L 512 -1184 
L 512 3226 
Q 723 3277 1040 3337 
Q 1357 3398 1773 3398 
Q 2157 3398 2464 3276 
Q 2771 3155 2988 2931 
Q 3206 2707 3324 2384 
Q 3443 2061 3443 1658 
z
" transform="scale(0.015625)"/>
       </defs>
       <use xlink:href="#Ubuntu-410"/>
       <use xlink:href="#Ubuntu-43f" x="66.299988"/>
       <use xlink:href="#Ubuntu-440" x="124.099976"/>
      </g>
     </g>
    </g>
    <g id="xtick_7">
     <g id="line2d_24">
      <g>
       <use xlink:href="#madd940fb83" x="108.835164" y="209.32" style="fill: #cecece; stroke: #cecece; stroke-width: 0.75"/>
      </g>
     </g>
     <g id="text_7">
      <!-- Июл -->
      <g style="fill: #808080" transform="translate(100.287664 224.5275) scale(0.08 -0.08)">
       <defs>
        <path id="Ubuntu-418" d="M 550 0 
L 550 4435 
L 1158 4435 
L 1158 1152 
Q 1363 1491 1660 1926 
Q 1958 2362 2294 2813 
Q 2630 3264 2972 3689 
Q 3315 4115 3616 4435 
L 4109 4435 
L 4109 0 
L 3501 0 
L 3501 3462 
Q 3322 3258 3110 2989 
Q 2899 2720 2675 2416 
Q 2451 2112 2224 1785 
Q 1997 1459 1785 1142 
Q 1574 826 1392 531 
Q 1210 237 1069 0 
L 550 0 
z
" transform="scale(0.015625)"/>
        <path id="Ubuntu-44e" d="M 1107 1952 
L 1837 1952 
Q 1875 2285 2006 2553 
Q 2138 2822 2336 3014 
Q 2534 3206 2790 3308 
Q 3046 3411 3341 3411 
Q 3667 3411 3945 3286 
Q 4224 3162 4429 2931 
Q 4634 2701 4749 2377 
Q 4864 2054 4864 1664 
Q 4864 1267 4749 947 
Q 4634 627 4429 396 
Q 4224 166 3945 41 
Q 3667 -83 3341 -83 
Q 3034 -83 2768 29 
Q 2502 141 2304 342 
Q 2106 544 1981 832 
Q 1856 1120 1830 1472 
L 1107 1472 
L 1107 0 
L 512 0 
L 512 3328 
L 1107 3328 
L 1107 1952 
z
M 4250 1664 
Q 4250 2227 4003 2556 
Q 3757 2886 3341 2886 
Q 2925 2886 2678 2556 
Q 2432 2227 2432 1664 
Q 2432 1101 2678 771 
Q 2925 442 3341 442 
Q 3757 442 4003 771 
Q 4250 1101 4250 1664 
z
" transform="scale(0.015625)"/>
        <path id="Ubuntu-43b" d="M 1670 2829 
Q 1670 2618 1660 2378 
Q 1651 2138 1625 1898 
Q 1600 1658 1555 1424 
Q 1510 1190 1440 986 
Q 1370 781 1264 601 
Q 1158 422 1004 284 
Q 851 147 646 54 
Q 442 -38 166 -64 
L 83 435 
Q 397 499 579 672 
Q 762 845 870 1094 
Q 966 1312 1011 1587 
Q 1056 1862 1075 2160 
Q 1094 2458 1097 2758 
Q 1101 3059 1101 3328 
L 3315 3328 
L 3315 0 
L 2720 0 
L 2720 2829 
L 1670 2829 
z
" transform="scale(0.015625)"/>
       </defs>
       <use xlink:href="#Ubuntu-418"/>
       <use xlink:href="#Ubuntu-44e" x="72.799988"/>
       <use xlink:href="#Ubuntu-43b" x="153.899979"/>
      </g>
     </g>
    </g>
    <g id="xtick_8">
     <g id="line2d_25">
      <g>
       <use xlink:href="#madd940fb83" x="147.791657" y="209.32" style="fill: #cecece; stroke: #cecece; stroke-width: 0.75"/>
      </g>
     </g>
     <g id="text_8">
      <!-- Окт -->
      <g style="fill: #808080" transform="translate(140.679782 224.5275) scale(0.08 -0.08)">
       <defs>
        <path id="Ubuntu-41e" d="M 371 2221 
Q 371 2790 540 3225 
Q 710 3661 1001 3952 
Q 1293 4243 1680 4390 
Q 2067 4538 2502 4538 
Q 2931 4538 3312 4390 
Q 3693 4243 3981 3952 
Q 4269 3661 4438 3225 
Q 4608 2790 4608 2221 
Q 4608 1651 4438 1216 
Q 4269 781 3981 489 
Q 3693 198 3312 51 
Q 2931 -96 2502 -96 
Q 2067 -96 1680 51 
Q 1293 198 1001 489 
Q 710 781 540 1216 
Q 371 1651 371 2221 
z
M 1024 2221 
Q 1024 1818 1126 1488 
Q 1229 1158 1417 928 
Q 1606 698 1878 573 
Q 2150 448 2490 448 
Q 2829 448 3097 573 
Q 3366 698 3555 928 
Q 3744 1158 3846 1488 
Q 3949 1818 3949 2221 
Q 3949 2624 3846 2953 
Q 3744 3283 3555 3513 
Q 3366 3744 3097 3869 
Q 2829 3994 2490 3994 
Q 2150 3994 1878 3869 
Q 1606 3744 1417 3513 
Q 1229 3283 1126 2953 
Q 1024 2624 1024 2221 
z
" transform="scale(0.015625)"/>
        <path id="Ubuntu-43a" d="M 1728 1811 
Q 1926 1670 2156 1456 
Q 2387 1242 2608 992 
Q 2829 742 3021 483 
Q 3213 224 3347 0 
L 2643 0 
Q 2502 218 2313 445 
Q 2125 672 1920 883 
Q 1715 1094 1504 1273 
Q 1293 1453 1107 1574 
L 1107 0 
L 512 0 
L 512 3328 
L 1107 3328 
L 1107 1901 
Q 1261 2048 1459 2243 
Q 1658 2438 1859 2640 
Q 2061 2842 2233 3024 
Q 2406 3206 2515 3328 
L 3206 3328 
Q 3066 3174 2877 2979 
Q 2688 2784 2486 2579 
Q 2285 2374 2086 2172 
Q 1888 1971 1728 1811 
z
" transform="scale(0.015625)"/>
        <path id="Ubuntu-442" d="M 2861 3328 
L 2861 2829 
L 1779 2829 
L 1779 0 
L 1184 0 
L 1184 2829 
L 102 2829 
L 102 3328 
L 2861 3328 
z
" transform="scale(0.015625)"/>
       </defs>
       <use xlink:href="#Ubuntu-41e"/>
       <use xlink:href="#Ubuntu-43a" x="77.799988"/>
       <use xlink:href="#Ubuntu-442" x="131.499985"/>
      </g>
     </g>
    </g>
    <g id="xtick_9">
     <g id="line2d_26">
      <g>
       <use xlink:href="#madd940fb83" x="186.748149" y="209.32" style="fill: #cecece; stroke: #cecece; stroke-width: 0.75"/>
      </g>
     </g>
     <g id="text_9">
      <!-- Янв -->
      <g style="fill: #808080" transform="translate(179.672524 224.5275) scale(0.08 -0.08)">
       <use xlink:href="#Ubuntu-42f"/>
       <use xlink:href="#Ubuntu-43d" x="63.499985"/>
       <use xlink:href="#Ubuntu-432" x="122.099976"/>
      </g>
     </g>
    </g>
    <g id="xtick_10">
     <g id="line2d_27">
      <g>
       <use xlink:href="#madd940fb83" x="224.857761" y="209.32" style="fill: #cecece; stroke: #cecece; stroke-width: 0.75"/>
      </g>
     </g>
     <g id="text_10">
      <!-- Апр -->
      <g style="fill: #808080" transform="translate(217.537761 224.5275) scale(0.08 -0.08)">
       <use xlink:href="#Ubuntu-410"/>
       <use xlink:href="#Ubuntu-43f" x="66.299988"/>
       <use xlink:href="#Ubuntu-440" x="124.099976"/>
      </g>
     </g>
    </g>
    <g id="xtick_11">
     <g id="line2d_28">
      <g>
       <use xlink:href="#madd940fb83" x="263.390814" y="209.32" style="fill: #cecece; stroke: #cecece; stroke-width: 0.75"/>
      </g>
     </g>
     <g id="text_11">
      <!-- Июл -->
      <g style="fill: #808080" transform="translate(254.843314 224.5275) scale(0.08 -0.08)">
       <use xlink:href="#Ubuntu-418"/>
       <use xlink:href="#Ubuntu-44e" x="72.799988"/>
       <use xlink:href="#Ubuntu-43b" x="153.899979"/>
      </g>
     </g>
    </g>
    <g id="xtick_12">
     <g id="line2d_29">
      <g>
       <use xlink:href="#madd940fb83" x="302.347306" y="209.32" style="fill: #cecece; stroke: #cecece; stroke-width: 0.75"/>
      </g>
     </g>
     <g id="text_12">
      <!-- Окт -->
      <g style="fill: #808080" transform="translate(295.235431 224.5275) scale(0.08 -0.08)">
       <use xlink:href="#Ubuntu-41e"/>
       <use xlink:href="#Ubuntu-43a" x="77.799988"/>
       <use xlink:href="#Ubuntu-442" x="131.499985"/>
      </g>
     </g>
    </g>
    <g id="xtick_13">
     <g id="line2d_30">
      <g>
       <use xlink:href="#madd940fb83" x="341.303798" y="209.32" style="fill: #cecece; stroke: #cecece; stroke-width: 0.75"/>
      </g>
     </g>
     <g id="text_13">
      <!-- Янв -->
      <g style="fill: #808080" transform="translate(334.228173 224.5275) scale(0.08 -0.08)">
       <use xlink:href="#Ubuntu-42f"/>
       <use xlink:href="#Ubuntu-43d" x="63.499985"/>
       <use xlink:href="#Ubuntu-432" x="122.099976"/>
      </g>
     </g>
    </g>
    <g id="xtick_14">
     <g id="line2d_31">
      <g>
       <use xlink:href="#madd940fb83" x="379.413411" y="209.32" style="fill: #cecece; stroke: #cecece; stroke-width: 0.75"/>
      </g>
     </g>
     <g id="text_14">
      <!-- Апр -->
      <g style="fill: #808080" transform="translate(372.093411 224.5275) scale(0.08 -0.08)">
       <use xlink:href="#Ubuntu-410"/>
       <use xlink:href="#Ubuntu-43f" x="66.299988"/>
       <use xlink:href="#Ubuntu-440" x="124.099976"/>
      </g>
     </g>
    </g>
    <g id="xtick_15">
     <g id="line2d_32">
      <g>
       <use xlink:href="#madd940fb83" x="417.946463" y="209.32" style="fill: #cecece; stroke: #cecece; stroke-width: 0.75"/>
      </g>
     </g>
     <g id="text_15">
      <!-- Июл -->
      <g style="fill: #808080" transform="translate(409.398963 224.5275) scale(0.08 -0.08)">
       <use xlink:href="#Ubuntu-418"/>
       <use xlink:href="#Ubuntu-44e" x="72.799988"/>
       <use xlink:href="#Ubuntu-43b" x="153.899979"/>
      </g>
     </g>
    </g>
    <g id="xtick_16">
     <g id="line2d_33">
      <g>
       <use xlink:href="#madd940fb83" x="456.902955" y="209.32" style="fill: #cecece; stroke: #cecece; stroke-width: 0.75"/>
      </g>
     </g>
     <g id="text_16">
      <!-- Окт -->
      <g style="fill: #808080" transform="translate(449.79108 224.5275) scale(0.08 -0.08)">
       <use xlink:href="#Ubuntu-41e"/>
       <use xlink:href="#Ubuntu-43a" x="77.799988"/>
       <use xlink:href="#Ubuntu-442" x="131.499985"/>
      </g>
     </g>
    </g>
    <g id="xtick_17">
     <g id="line2d_34">
      <g>
       <use xlink:href="#madd940fb83" x="495.859448" y="209.32" style="fill: #cecece; stroke: #cecece; stroke-width: 0.75"/>
      </g>
     </g>
     <g id="text_17">
      <!-- Янв -->
      <g style="fill: #808080" transform="translate(488.783823 224.5275) scale(0.08 -0.08)">
       <use xlink:href="#Ubuntu-42f"/>
       <use xlink:href="#Ubuntu-43d" x="63.499985"/>
       <use xlink:href="#Ubuntu-432" x="122.099976"/>
      </g>
     </g>
    </g>
    <g id="xtick_18">
     <g id="line2d_35">
      <g>
       <use xlink:href="#madd940fb83" x="534.3925" y="209.32" style="fill: #cecece; stroke: #cecece; stroke-width: 0.75"/>
      </g>
     </g>
     <g id="text_18">
      <!-- Апр -->
      <g style="fill: #808080" transform="translate(527.0725 224.5275) scale(0.08 -0.08)">
       <use xlink:href="#Ubuntu-410"/>
       <use xlink:href="#Ubuntu-43f" x="66.299988"/>
       <use xlink:href="#Ubuntu-440" x="124.099976"/>
      </g>
     </g>
    </g>
   </g>
   <g id="matplotlib.axis_4">
    <g id="ytick_1">
     <g id="line2d_36">
      <defs>
       <path id="mb0e4e25dd2" d="M 0 0 
L -3 0 
" style="stroke: #cecece; stroke-width: 0.75"/>
      </defs>
      <g>
       <use xlink:href="#mb0e4e25dd2" x="27.1925" y="199.584005" style="fill: #cecece; stroke: #cecece; stroke-width: 0.75"/>
      </g>
     </g>
     <g id="text_19">
      <!-- 0.9 -->
      <g style="fill: #808080" transform="translate(7.2 202.687755) scale(0.08 -0.08)">
       <defs>
        <path id="Ubuntu-2e" d="M 1216 346 
Q 1216 173 1101 45 
Q 986 -83 787 -83 
Q 589 -83 473 45 
Q 358 173 358 346 
Q 358 518 473 646 
Q 589 774 787 774 
Q 986 774 1101 646 
Q 1216 518 1216 346 
z
" transform="scale(0.015625)"/>
        <path id="Ubuntu-39" d="M 3206 2662 
Q 3206 1344 2550 669 
Q 1894 -6 602 -13 
L 582 486 
Q 986 486 1309 563 
Q 1632 640 1875 809 
Q 2118 979 2281 1248 
Q 2445 1517 2522 1907 
Q 2355 1830 2144 1782 
Q 1933 1734 1709 1734 
Q 1331 1734 1068 1846 
Q 806 1958 640 2147 
Q 474 2336 400 2582 
Q 326 2829 326 3098 
Q 326 3334 409 3590 
Q 493 3846 662 4057 
Q 832 4269 1094 4403 
Q 1357 4538 1715 4538 
Q 2080 4538 2358 4410 
Q 2637 4282 2825 4038 
Q 3014 3795 3110 3446 
Q 3206 3098 3206 2662 
z
M 1773 2221 
Q 1997 2221 2195 2262 
Q 2394 2304 2579 2387 
Q 2586 2458 2586 2525 
Q 2586 2592 2586 2662 
Q 2586 2938 2547 3190 
Q 2509 3443 2409 3632 
Q 2310 3821 2144 3933 
Q 1978 4045 1722 4045 
Q 1510 4045 1363 3955 
Q 1216 3866 1120 3728 
Q 1024 3590 982 3427 
Q 941 3264 941 3110 
Q 941 2675 1149 2448 
Q 1357 2221 1773 2221 
z
" transform="scale(0.015625)"/>
       </defs>
       <use xlink:href="#Ubuntu-30"/>
       <use xlink:href="#Ubuntu-2e" x="56.399994"/>
       <use xlink:href="#Ubuntu-39" x="80.999985"/>
      </g>
     </g>
    </g>
    <g id="ytick_2">
     <g id="line2d_37">
      <g>
       <use xlink:href="#mb0e4e25dd2" x="27.1925" y="168.905089" style="fill: #cecece; stroke: #cecece; stroke-width: 0.75"/>
      </g>
     </g>
     <g id="text_20">
      <!-- 1.0 -->
      <g style="fill: #808080" transform="translate(7.2 172.008839) scale(0.08 -0.08)">
       <use xlink:href="#Ubuntu-31"/>
       <use xlink:href="#Ubuntu-2e" x="56.399994"/>
       <use xlink:href="#Ubuntu-30" x="80.999985"/>
      </g>
     </g>
    </g>
    <g id="ytick_3">
     <g id="line2d_38">
      <g>
       <use xlink:href="#mb0e4e25dd2" x="27.1925" y="138.226173" style="fill: #cecece; stroke: #cecece; stroke-width: 0.75"/>
      </g>
     </g>
     <g id="text_21">
      <!-- 1.1 -->
      <g style="fill: #808080" transform="translate(7.2 141.329923) scale(0.08 -0.08)">
       <use xlink:href="#Ubuntu-31"/>
       <use xlink:href="#Ubuntu-2e" x="56.399994"/>
       <use xlink:href="#Ubuntu-31" x="80.999985"/>
      </g>
     </g>
    </g>
    <g id="ytick_4">
     <g id="line2d_39">
      <g>
       <use xlink:href="#mb0e4e25dd2" x="27.1925" y="107.547257" style="fill: #cecece; stroke: #cecece; stroke-width: 0.75"/>
      </g>
     </g>
     <g id="text_22">
      <!-- 1.2 -->
      <g style="fill: #808080" transform="translate(7.2 110.651007) scale(0.08 -0.08)">
       <use xlink:href="#Ubuntu-31"/>
       <use xlink:href="#Ubuntu-2e" x="56.399994"/>
       <use xlink:href="#Ubuntu-32" x="80.999985"/>
      </g>
     </g>
    </g>
    <g id="ytick_5">
     <g id="line2d_40">
      <g>
       <use xlink:href="#mb0e4e25dd2" x="27.1925" y="76.868342" style="fill: #cecece; stroke: #cecece; stroke-width: 0.75"/>
      </g>
     </g>
     <g id="text_23">
      <!-- 1.3 -->
      <g style="fill: #808080" transform="translate(7.2 79.972092) scale(0.08 -0.08)">
       <use xlink:href="#Ubuntu-31"/>
       <use xlink:href="#Ubuntu-2e" x="56.399994"/>
       <use xlink:href="#Ubuntu-33" x="80.999985"/>
      </g>
     </g>
    </g>
    <g id="ytick_6">
     <g id="line2d_41">
      <g>
       <use xlink:href="#mb0e4e25dd2" x="27.1925" y="46.189426" style="fill: #cecece; stroke: #cecece; stroke-width: 0.75"/>
      </g>
     </g>
     <g id="text_24">
      <!-- 1.4 -->
      <g style="fill: #808080" transform="translate(7.2 49.293176) scale(0.08 -0.08)">
       <use xlink:href="#Ubuntu-31"/>
       <use xlink:href="#Ubuntu-2e" x="56.399994"/>
       <use xlink:href="#Ubuntu-34" x="80.999985"/>
      </g>
     </g>
    </g>
   </g>
   <g id="line2d_42">
    <path d="M 32.1925 168.905089 
L 40.370984 168.13341 
L 46.913772 167.741994 
L 51.820862 167.641805 
L 56.727953 167.751351 
L 61.635043 168.109804 
L 66.542134 168.752781 
L 71.449224 169.713979 
L 76.356315 170.958198 
L 82.899102 172.668446 
L 87.806193 173.698051 
L 94.34898 174.750493 
L 102.527464 175.852904 
L 107.434555 176.28027 
L 110.705948 176.369822 
L 113.977342 176.277732 
L 118.884433 175.846585 
L 123.791523 175.133658 
L 127.062917 174.475911 
L 130.334311 173.554568 
L 133.605704 172.257126 
L 135.241401 171.43221 
L 138.512795 169.40821 
L 141.784188 167.003332 
L 148.326976 161.67849 
L 154.869763 156.478349 
L 161.412551 151.606511 
L 172.862428 143.350355 
L 177.769519 139.382222 
L 182.676609 135.03857 
L 187.5837 130.37703 
L 194.126487 124.068679 
L 197.397881 121.230061 
L 200.669275 118.825173 
L 203.940668 116.891651 
L 207.212062 115.278159 
L 223.569031 107.941038 
L 226.840424 106.780865 
L 230.111818 105.868074 
L 233.383212 105.166833 
L 238.290302 104.426597 
L 243.197393 103.984228 
L 246.468786 103.880075 
L 249.74018 103.958995 
L 253.011574 104.239688 
L 261.190058 105.103525 
L 264.461452 105.090904 
L 267.732845 104.71497 
L 272.639936 103.735771 
L 277.547026 102.69365 
L 285.725511 101.146844 
L 288.996904 100.226825 
L 292.268298 98.950626 
L 302.082479 94.62928 
L 305.353873 93.722096 
L 315.168054 91.578275 
L 318.439447 90.32455 
L 324.982235 87.431645 
L 328.253628 86.341064 
L 329.889325 85.994664 
L 333.160719 85.662902 
L 336.432113 85.667886 
L 352.789081 86.479409 
L 356.060475 86.844403 
L 359.331868 87.467819 
L 360.967565 87.920806 
L 362.603262 88.491762 
L 364.238959 89.198524 
L 365.874656 90.058929 
L 367.510353 91.090557 
L 369.146049 92.30212 
L 370.781746 93.691432 
L 372.417443 95.255636 
L 374.05314 96.991876 
L 377.324534 100.969037 
L 380.595927 105.599087 
L 383.867321 110.76553 
L 392.045805 124.126288 
L 395.317199 128.888911 
L 398.588593 133.120245 
L 401.859986 136.841025 
L 405.13138 140.072196 
L 408.402774 142.828316 
L 411.674167 145.090212 
L 413.309864 146.026369 
L 414.945561 146.827621 
L 416.581258 147.490183 
L 418.216955 148.010271 
L 419.852652 148.387138 
L 423.124045 148.769274 
L 426.395439 148.773541 
L 431.302529 148.380117 
L 434.573923 147.993073 
L 437.845317 147.3666 
L 439.481014 146.900815 
L 441.116711 146.299856 
L 442.752407 145.538617 
L 444.388104 144.592057 
L 446.023801 143.446765 
L 447.659498 142.114536 
L 449.295195 140.610461 
L 452.566588 137.147134 
L 455.837982 133.17751 
L 460.745073 126.601668 
L 464.016466 122.237298 
L 467.28786 118.306799 
L 468.923557 116.616485 
L 470.559254 115.167456 
L 472.194951 113.95404 
L 475.466344 112.000172 
L 480.373435 109.345951 
L 482.009132 108.293412 
L 483.644828 107.060421 
L 486.916222 104.11346 
L 493.45901 97.697595 
L 495.094706 96.27886 
L 496.730403 95.030512 
L 498.3661 93.957542 
L 500.001797 93.043108 
L 501.637494 92.270162 
L 504.908887 91.080544 
L 508.180281 90.252308 
L 513.087372 89.389214 
L 517.994462 88.57209 
L 521.265856 87.825579 
L 521.265856 87.825579 
" clip-path="url(#p0d8babfea2)" style="fill: none; stroke-dasharray: 5.55,2.4; stroke-dashoffset: 0; stroke: #4f4f4f; stroke-width: 1.5"/>
   </g>
   <g id="line2d_43">
    <path d="M 32.1925 168.905089 
L 35.551697 169.240476 
L 38.910895 169.276847 
L 42.270092 169.084754 
L 47.308888 168.522583 
L 55.706881 167.442821 
L 59.066079 167.165846 
L 64.104875 166.99541 
L 72.502868 166.808808 
L 77.541664 166.444954 
L 82.58046 165.80991 
L 87.619256 164.895952 
L 94.337651 163.671853 
L 97.696848 163.291184 
L 102.735644 163.079062 
L 109.454038 162.871257 
L 112.813236 162.5587 
L 117.852032 161.819286 
L 124.570426 160.560654 
L 129.609222 159.441807 
L 132.96842 158.511801 
L 136.327617 157.363379 
L 141.366413 155.260142 
L 149.764406 151.554893 
L 154.803202 149.438027 
L 158.1624 147.826569 
L 161.521597 145.869606 
L 166.560393 142.347548 
L 169.91959 140.102155 
L 171.599189 139.15043 
L 173.278788 138.374986 
L 174.958386 137.817706 
L 176.637985 137.464176 
L 179.997182 137.164815 
L 185.035978 136.964899 
L 186.715577 136.759328 
L 188.395176 136.405785 
L 190.074774 135.888244 
L 191.754373 135.197742 
L 193.433972 134.325315 
L 195.11357 133.262 
L 196.793169 131.998835 
L 198.472768 130.526855 
L 200.152366 128.837413 
L 203.511564 124.876676 
L 206.870761 120.414578 
L 213.589156 111.334604 
L 216.948353 107.307689 
L 220.30755 103.836891 
L 221.987149 102.346997 
L 223.666747 101.040487 
L 225.346346 99.932145 
L 227.025945 99.029527 
L 228.705543 98.311266 
L 230.385142 97.748766 
L 233.744339 96.976668 
L 238.783135 96.272069 
L 245.50153 95.494726 
L 248.860727 95.278771 
L 252.219925 95.278755 
L 257.258721 95.652865 
L 263.977115 96.239024 
L 269.015911 96.330341 
L 277.413905 96.304256 
L 284.132299 96.638818 
L 289.171095 96.854301 
L 294.209891 96.801226 
L 319.403871 95.761309 
L 322.763069 95.386781 
L 326.122266 94.718806 
L 329.481463 93.646114 
L 332.840661 92.197774 
L 337.879457 89.866206 
L 341.238654 88.592702 
L 342.918253 88.131171 
L 346.27745 87.536657 
L 349.636647 87.260002 
L 356.355042 87.091567 
L 366.432634 86.974715 
L 371.47143 87.108838 
L 376.510226 87.504199 
L 379.869423 87.968512 
L 384.908219 88.986041 
L 396.66541 91.628459 
L 405.063403 93.077809 
L 413.461396 94.380315 
L 418.500192 94.886613 
L 423.538988 95.041812 
L 435.296179 94.896855 
L 440.334975 94.734169 
L 443.694172 94.437371 
L 447.05337 93.911559 
L 450.412567 93.181059 
L 455.451363 91.834682 
L 472.247349 87.074185 
L 480.645343 84.882812 
L 485.684139 83.322184 
L 495.761731 79.95808 
L 500.800527 78.596057 
L 524.314908 72.856468 
L 532.712901 70.43323 
L 534.3925 69.919032 
L 534.3925 69.919032 
" clip-path="url(#p0d8babfea2)" style="fill: none; stroke: #4f4f4f; stroke-opacity: 0.95; stroke-width: 1.2; stroke-linecap: square"/>
   </g>
   <g id="line2d_44">
    <path d="M 32.1925 168.905089 
L 37.231296 168.585317 
L 42.270092 168.042141 
L 54.027283 166.430234 
L 60.745677 165.640876 
L 72.502868 164.38719 
L 85.939657 162.621999 
L 92.658052 162.140145 
L 107.77444 161.258036 
L 112.813236 160.632432 
L 117.852032 159.75613 
L 124.570426 158.307124 
L 132.96842 156.236393 
L 139.686814 154.467714 
L 143.046012 153.417126 
L 146.405209 152.115482 
L 149.764406 150.459974 
L 153.123604 148.436553 
L 156.482801 146.119921 
L 161.521597 142.267054 
L 176.637985 130.243987 
L 181.676781 126.722013 
L 185.035978 124.58374 
L 193.433972 119.560321 
L 195.11357 118.334414 
L 196.793169 116.930352 
L 198.472768 115.303165 
L 200.152366 113.408488 
L 201.831965 111.238233 
L 205.191162 106.268401 
L 215.268754 90.118492 
L 218.627952 85.550809 
L 220.30755 83.561478 
L 221.987149 81.80378 
L 223.666747 80.304182 
L 225.346346 79.089155 
L 227.025945 78.172563 
L 228.705543 77.517864 
L 230.385142 77.075911 
L 232.064741 76.797556 
L 235.423938 76.535054 
L 238.783135 76.337613 
L 243.821931 75.729791 
L 248.860727 75.137301 
L 252.219925 75.018917 
L 255.579122 75.204527 
L 260.617918 75.818317 
L 267.336313 76.659171 
L 272.375109 77.073691 
L 279.093503 77.393787 
L 284.132299 77.399618 
L 287.491497 77.188677 
L 290.850694 76.736888 
L 299.248687 75.193085 
L 302.607885 74.964515 
L 305.967082 75.208079 
L 309.326279 75.765771 
L 314.365075 76.681802 
L 317.724273 77.022079 
L 321.08347 77.082784 
L 326.122266 76.856441 
L 334.520259 76.394573 
L 337.879457 76.3823 
L 341.238654 76.55422 
L 344.597851 76.934941 
L 352.995844 78.046427 
L 356.355042 78.209565 
L 361.393838 78.111915 
L 368.112232 77.953248 
L 371.47143 78.073173 
L 376.510226 78.512932 
L 381.549022 79.203991 
L 388.267416 80.204724 
L 391.626614 80.526642 
L 394.985811 80.612566 
L 403.383804 80.47146 
L 406.743002 80.717823 
L 410.102199 81.262737 
L 418.500192 82.860526 
L 421.85939 83.178747 
L 425.218587 83.285397 
L 431.936982 83.198417 
L 436.975778 83.047855 
L 440.334975 82.765909 
L 443.694172 82.205953 
L 447.05337 81.275305 
L 450.412567 80.021606 
L 455.451363 77.764832 
L 467.208554 72.050405 
L 475.606547 67.673657 
L 489.043336 60.564834 
L 494.082132 58.11297 
L 499.120928 55.893028 
L 504.159724 53.945884 
L 509.19852 52.291623 
L 517.596513 49.971337 
L 522.635309 48.440414 
L 525.994507 47.197454 
L 529.353704 45.684483 
L 532.712901 43.822524 
L 534.3925 42.735995 
L 534.3925 42.735995 
" clip-path="url(#p0d8babfea2)" style="fill: none; stroke: #ba5b58; stroke-opacity: 0.95; stroke-width: 1.2; stroke-linecap: square"/>
   </g>
   <g id="line2d_45">
    <path d="M 32.1925 168.905089 
L 38.910895 167.660263 
L 48.988487 165.700295 
L 54.027283 164.935356 
L 57.38648 164.585513 
L 62.425276 164.343187 
L 72.502868 164.050564 
L 89.298855 162.898814 
L 109.454038 162.364072 
L 114.492834 161.873168 
L 121.211229 160.955686 
L 131.288821 159.288776 
L 141.366413 157.420788 
L 144.72561 156.591603 
L 148.084808 155.524331 
L 151.444005 154.179083 
L 159.841998 150.573106 
L 163.201196 149.474468 
L 168.239992 147.997415 
L 169.91959 147.393149 
L 171.599189 146.666796 
L 173.278788 145.778679 
L 174.958386 144.693991 
L 178.317584 142.058808 
L 183.35638 137.823366 
L 185.035978 136.572147 
L 186.715577 135.499548 
L 188.395176 134.641271 
L 191.754373 133.31458 
L 195.11357 131.969409 
L 196.793169 131.088032 
L 198.472768 129.959803 
L 200.152366 128.504944 
L 201.831965 126.701686 
L 203.511564 124.618173 
L 206.870761 119.913905 
L 211.909557 112.652582 
L 213.589156 110.475998 
L 216.948353 106.645467 
L 220.30755 103.342218 
L 225.346346 98.926506 
L 230.385142 94.735831 
L 233.744339 92.192832 
L 237.103537 90.014132 
L 238.783135 89.105109 
L 240.462734 88.33192 
L 242.142333 87.692608 
L 243.821931 87.184202 
L 245.50153 86.803731 
L 247.181129 86.548223 
L 248.860727 86.414707 
L 250.540326 86.400213 
L 253.899523 86.693963 
L 262.297517 87.945597 
L 263.977115 88.028244 
L 267.336313 87.846363 
L 270.69551 87.346919 
L 277.413905 86.215877 
L 280.773102 85.935082 
L 284.132299 85.893377 
L 287.491497 86.069601 
L 290.850694 86.442027 
L 302.607885 88.126102 
L 305.967082 88.280097 
L 309.326279 88.232743 
L 314.365075 87.895148 
L 321.08347 87.158892 
L 326.122266 86.374894 
L 331.161062 85.322241 
L 337.879457 83.599725 
L 346.27745 81.417322 
L 351.316246 80.364796 
L 354.675443 79.868035 
L 358.03464 79.566642 
L 363.073436 79.404176 
L 369.791831 79.504954 
L 378.189824 79.644761 
L 383.22862 79.48561 
L 389.947015 79.210788 
L 393.306212 79.252575 
L 396.66541 79.497568 
L 401.704206 80.147038 
L 411.781798 81.813487 
L 426.898186 84.41951 
L 430.257383 84.67417 
L 433.61658 84.61078 
L 436.975778 84.27966 
L 445.373771 83.212015 
L 452.092166 82.778186 
L 457.130962 82.357646 
L 460.490159 81.854771 
L 463.849356 81.12565 
L 467.208554 80.149846 
L 470.567751 78.907099 
L 480.645343 74.609965 
L 482.324941 74.081362 
L 484.00454 73.675351 
L 487.363737 73.208879 
L 490.722935 73.081558 
L 497.441329 73.258226 
L 502.480125 73.253546 
L 505.839323 72.992899 
L 509.19852 72.413016 
L 512.557717 71.477928 
L 517.596513 69.664984 
L 524.314908 67.196768 
L 527.674105 66.247232 
L 531.033303 65.668989 
L 532.712901 65.561659 
L 534.3925 65.598221 
L 534.3925 65.598221 
" clip-path="url(#p0d8babfea2)" style="fill: none; stroke: #5b89af; stroke-width: 1.2; stroke-linecap: square"/>
   </g>
   <g id="line2d_46">
    <path d="M 32.1925 168.905089 
L 35.551697 168.825732 
L 40.590493 168.411397 
L 54.027283 167.022739 
L 57.38648 166.940324 
L 60.745677 167.066432 
L 69.143671 167.629658 
L 72.502868 167.602859 
L 75.862065 167.340712 
L 80.900861 166.682949 
L 90.978453 165.299622 
L 111.133637 162.884458 
L 117.852032 162.057876 
L 122.890828 161.17311 
L 126.250025 160.371803 
L 129.609222 159.385776 
L 132.96842 158.210265 
L 136.327617 156.84091 
L 141.366413 154.478927 
L 159.841998 145.116268 
L 168.239992 140.793155 
L 171.599189 139.370001 
L 174.958386 138.336126 
L 178.317584 137.686075 
L 185.035978 136.580102 
L 186.715577 136.158766 
L 188.395176 135.619045 
L 190.074774 134.944562 
L 191.754373 134.122019 
L 193.433972 133.138116 
L 195.11357 131.979557 
L 196.793169 130.633042 
L 198.472768 129.085272 
L 200.152366 127.323293 
L 203.511564 123.219266 
L 206.870761 118.616789 
L 213.589156 109.269833 
L 216.948353 105.097393 
L 220.30755 101.41405 
L 223.666747 98.282939 
L 225.346346 96.944201 
L 227.025945 95.7639 
L 228.705543 94.733451 
L 230.385142 93.840969 
L 233.744339 92.422377 
L 237.103537 91.41306 
L 240.462734 90.723037 
L 243.821931 90.321419 
L 247.181129 90.215442 
L 250.540326 90.412975 
L 253.899523 90.909782 
L 258.938319 92.020548 
L 265.656714 93.568827 
L 270.69551 94.406743 
L 274.054707 94.775029 
L 277.413905 94.982252 
L 282.452701 95.048757 
L 289.171095 95.123095 
L 294.209891 95.475312 
L 299.248687 95.858699 
L 302.607885 95.931428 
L 305.967082 95.762685 
L 314.365075 95.07108 
L 317.724273 95.066305 
L 322.763069 95.398327 
L 327.801865 95.759561 
L 331.161062 95.82348 
L 336.199858 95.668174 
L 352.995844 94.770417 
L 359.714239 93.990707 
L 363.073436 93.670957 
L 366.432634 93.589198 
L 369.791831 93.860111 
L 373.151028 94.405191 
L 381.549022 95.940113 
L 393.306212 97.495417 
L 398.345008 98.635554 
L 403.383804 99.802184 
L 406.743002 100.375059 
L 410.102199 100.722163 
L 421.85939 101.665565 
L 431.936982 102.876812 
L 435.296179 103.046964 
L 438.655376 103.044951 
L 442.014574 102.869755 
L 445.373771 102.520738 
L 450.412567 101.73136 
L 468.888152 98.349467 
L 473.926948 97.059867 
L 478.965744 95.514931 
L 499.120928 89.034021 
L 504.159724 87.688586 
L 507.518921 87.00644 
L 510.878119 86.557523 
L 517.596513 86.058165 
L 520.955711 85.75047 
L 524.314908 85.231812 
L 527.674105 84.37298 
L 529.353704 83.775619 
L 531.033303 83.044759 
L 532.712901 82.164249 
L 534.3925 81.117937 
L 534.3925 81.117937 
" clip-path="url(#p0d8babfea2)" style="fill: none; stroke: #5a9e88; stroke-width: 1.2; stroke-linecap: square"/>
   </g>
   <g id="line2d_47">
    <path d="M 32.1925 168.905089 
L 35.551697 167.908956 
L 38.910895 167.227481 
L 42.270092 166.78214 
L 47.308888 166.385113 
L 55.706881 165.791668 
L 59.066079 165.350211 
L 64.104875 164.395395 
L 70.823269 163.035687 
L 75.862065 162.280942 
L 82.58046 161.561856 
L 122.890828 157.642183 
L 126.250025 157.012629 
L 129.609222 156.221184 
L 134.648018 154.752902 
L 139.686814 152.999495 
L 149.764406 149.381204 
L 156.482801 147.318598 
L 169.91959 143.455816 
L 173.278788 142.80025 
L 176.637985 142.4344 
L 179.997182 142.300607 
L 190.074774 142.141517 
L 191.754373 141.941943 
L 193.433972 141.607494 
L 195.11357 141.10189 
L 196.793169 140.388857 
L 198.472768 139.432116 
L 200.152366 138.195839 
L 201.831965 136.670991 
L 203.511564 134.890077 
L 205.191162 132.889172 
L 208.55036 128.371698 
L 213.589156 120.847143 
L 218.627952 113.237288 
L 221.987149 108.51754 
L 225.346346 104.35577 
L 227.025945 102.551551 
L 228.705543 100.93756 
L 230.385142 99.505562 
L 232.064741 98.247323 
L 233.744339 97.154607 
L 235.423938 96.219181 
L 237.103537 95.432808 
L 238.783135 94.78721 
L 242.142333 93.87064 
L 245.50153 93.3523 
L 248.860727 93.109542 
L 253.899523 93.002803 
L 269.015911 92.909912 
L 272.375109 92.699881 
L 275.734306 92.314109 
L 279.093503 91.710289 
L 287.491497 89.987991 
L 290.850694 89.654403 
L 294.209891 89.635507 
L 300.928286 89.774675 
L 304.287483 89.529578 
L 307.646681 88.999063 
L 314.365075 87.80154 
L 317.724273 87.490168 
L 322.763069 87.401442 
L 327.801865 87.3269 
L 331.161062 87.048403 
L 334.520259 86.490667 
L 337.879457 85.606556 
L 341.238654 84.349008 
L 344.597851 82.739079 
L 347.957048 81.070284 
L 351.316246 79.704257 
L 352.995844 79.247791 
L 354.675443 79.002022 
L 356.355042 78.975171 
L 358.03464 79.119077 
L 361.393838 79.707103 
L 364.753035 80.341999 
L 366.432634 80.544491 
L 368.112232 80.604219 
L 371.47143 80.347712 
L 378.189824 79.426438 
L 379.869423 79.340263 
L 381.549022 79.379728 
L 384.908219 79.770131 
L 389.947015 80.769743 
L 393.306212 81.428691 
L 396.66541 81.913116 
L 400.024607 82.22939 
L 405.063403 82.449357 
L 416.820594 82.622648 
L 420.179791 82.94109 
L 430.257383 84.301822 
L 433.61658 84.431081 
L 436.975778 84.317806 
L 453.771764 83.196697 
L 463.849356 83.04216 
L 468.888152 82.87757 
L 473.926948 82.476791 
L 484.00454 81.281837 
L 494.082132 80.02727 
L 499.120928 79.140315 
L 502.480125 78.333851 
L 505.839323 77.275499 
L 509.19852 75.896797 
L 512.557717 74.192739 
L 522.635309 68.7274 
L 525.994507 67.367685 
L 527.674105 66.872303 
L 529.353704 66.528894 
L 531.033303 66.359201 
L 532.712901 66.384964 
L 534.3925 66.627927 
L 534.3925 66.627927 
" clip-path="url(#p0d8babfea2)" style="fill: none; stroke: #f3d963; stroke-opacity: 0.95; stroke-width: 1.2; stroke-linecap: square"/>
   </g>
   <g id="line2d_48">
    <path d="M 32.1925 168.905089 
L 42.270092 167.978141 
L 50.668085 167.456856 
L 57.38648 167.25703 
L 92.658052 166.873651 
L 96.017249 166.631399 
L 99.376446 166.147096 
L 109.454038 164.361505 
L 112.813236 164.105178 
L 121.211229 163.700575 
L 124.570426 163.22221 
L 127.929624 162.479822 
L 132.96842 161.054104 
L 146.405209 156.811904 
L 153.123604 154.445895 
L 164.880794 149.981448 
L 168.239992 148.554836 
L 171.599189 146.90171 
L 174.958386 144.919402 
L 179.997182 141.440867 
L 183.35638 139.113263 
L 186.715577 137.054787 
L 190.074774 135.396009 
L 195.11357 132.982307 
L 196.793169 131.997893 
L 198.472768 130.840346 
L 200.152366 129.460351 
L 201.831965 127.845307 
L 205.191162 124.092194 
L 213.589156 113.952183 
L 216.948353 110.483516 
L 220.30755 107.526545 
L 223.666747 105.102448 
L 225.346346 104.096846 
L 227.025945 103.229622 
L 230.385142 101.862491 
L 233.744339 100.891503 
L 237.103537 100.204327 
L 242.142333 99.500303 
L 245.50153 99.249137 
L 248.860727 99.218692 
L 252.219925 99.447953 
L 255.579122 99.914527 
L 265.656714 101.533393 
L 269.015911 101.810937 
L 274.054707 101.966603 
L 280.773102 101.864119 
L 290.850694 101.656306 
L 297.569089 101.811279 
L 309.326279 102.208892 
L 312.685477 102.142711 
L 316.044674 101.886486 
L 326.122266 100.66223 
L 329.481463 100.691315 
L 332.840661 101.094805 
L 341.238654 102.415041 
L 344.597851 102.563267 
L 349.636647 102.437302 
L 354.675443 102.339652 
L 359.714239 102.560642 
L 364.753035 102.781453 
L 368.112232 102.719054 
L 373.151028 102.268721 
L 378.189824 101.807329 
L 381.549022 101.734695 
L 384.908219 101.922518 
L 388.267416 102.325348 
L 393.306212 103.224327 
L 405.063403 105.628398 
L 410.102199 106.263339 
L 418.500192 107.171112 
L 428.577784 108.650619 
L 431.936982 108.728904 
L 435.296179 108.433581 
L 442.014574 107.545023 
L 445.373771 107.41764 
L 448.732968 107.630835 
L 453.771764 108.08806 
L 457.130962 108.120518 
L 460.490159 107.719239 
L 463.849356 107.011309 
L 470.567751 105.484938 
L 473.926948 104.987531 
L 485.684139 103.541256 
L 494.082132 102.076297 
L 497.441329 101.703927 
L 502.480125 101.427715 
L 507.518921 101.150736 
L 510.878119 100.781021 
L 515.916915 99.921586 
L 529.353704 97.247621 
L 532.712901 96.814081 
L 534.3925 96.673397 
L 534.3925 96.673397 
" clip-path="url(#p0d8babfea2)" style="fill: none; stroke: #635f84; stroke-width: 1.2; stroke-linecap: square"/>
   </g>
   <g id="patch_4">
    <path d="M 27.1925 199.584005 
L 27.1925 46.189426 
" style="fill: none; stroke: #cccccc; stroke-width: 0.75; stroke-linejoin: miter; stroke-linecap: square"/>
   </g>
   <g id="patch_5">
    <path d="M 32.1925 209.32 
L 534.3925 209.32 
" style="fill: none; stroke: #cccccc; stroke-width: 0.75; stroke-linejoin: miter; stroke-linecap: square"/>
   </g>
   <g id="legend_1">
    <g id="line2d_49">
     <path d="M 39.3925 14.8325 
L 44.7925 14.8325 
L 50.1925 14.8325 
" style="fill: none; stroke-dasharray: 5.55,2.4; stroke-dashoffset: 0; stroke: #4f4f4f; stroke-width: 1.5"/>
    </g>
    <g id="text_25">
     <!-- Сырое молоко -->
     <g style="fill: #4b4b4b" transform="translate(56.5925 17.6325) scale(0.08 -0.08)">
      <defs>
       <path id="Ubuntu-421" d="M 2458 -96 
Q 1990 -96 1606 57 
Q 1222 211 947 505 
Q 672 800 521 1232 
Q 371 1664 371 2221 
Q 371 2778 540 3210 
Q 710 3642 998 3936 
Q 1286 4230 1670 4384 
Q 2054 4538 2490 4538 
Q 2765 4538 2985 4499 
Q 3206 4461 3369 4409 
Q 3533 4358 3635 4307 
Q 3738 4256 3776 4230 
L 3597 3718 
Q 3539 3757 3430 3801 
Q 3322 3846 3184 3891 
Q 3046 3936 2883 3965 
Q 2720 3994 2554 3994 
Q 2202 3994 1920 3872 
Q 1638 3750 1440 3520 
Q 1242 3290 1136 2960 
Q 1030 2630 1030 2221 
Q 1030 1824 1123 1497 
Q 1216 1171 1401 937 
Q 1587 704 1865 576 
Q 2144 448 2515 448 
Q 2944 448 3225 537 
Q 3507 627 3648 698 
L 3808 186 
Q 3763 154 3648 106 
Q 3533 58 3360 13 
Q 3187 -32 2956 -64 
Q 2726 -96 2458 -96 
z
" transform="scale(0.015625)"/>
       <path id="Ubuntu-44b" d="M 1734 1645 
Q 1562 1645 1398 1635 
Q 1235 1626 1107 1594 
L 1107 448 
Q 1146 442 1219 435 
Q 1293 429 1379 425 
Q 1466 422 1555 419 
Q 1645 416 1715 416 
Q 2106 416 2317 563 
Q 2528 710 2528 1037 
Q 2528 1197 2461 1312 
Q 2394 1427 2282 1500 
Q 2170 1574 2029 1609 
Q 1888 1645 1734 1645 
z
M 512 3328 
L 1107 3328 
L 1107 2054 
Q 1216 2080 1424 2105 
Q 1632 2131 1824 2131 
Q 2086 2131 2323 2070 
Q 2560 2010 2739 1878 
Q 2918 1747 3024 1539 
Q 3130 1331 3130 1043 
Q 3130 742 3027 531 
Q 2925 320 2739 185 
Q 2554 51 2291 -9 
Q 2029 -70 1715 -70 
Q 1414 -70 1107 -35 
Q 800 0 512 70 
L 512 3328 
z
M 4339 0 
L 3744 0 
L 3744 3328 
L 4339 3328 
L 4339 0 
z
" transform="scale(0.015625)"/>
       <path id="Ubuntu-43e" d="M 3450 1664 
Q 3450 1267 3334 947 
Q 3219 627 3011 396 
Q 2803 166 2515 41 
Q 2227 -83 1888 -83 
Q 1549 -83 1261 41 
Q 973 166 765 396 
Q 557 627 441 947 
Q 326 1267 326 1664 
Q 326 2054 441 2377 
Q 557 2701 765 2931 
Q 973 3162 1261 3286 
Q 1549 3411 1888 3411 
Q 2227 3411 2515 3286 
Q 2803 3162 3011 2931 
Q 3219 2701 3334 2377 
Q 3450 2054 3450 1664 
z
M 2829 1664 
Q 2829 2227 2576 2556 
Q 2323 2886 1888 2886 
Q 1453 2886 1200 2556 
Q 947 2227 947 1664 
Q 947 1101 1200 771 
Q 1453 442 1888 442 
Q 2323 442 2576 771 
Q 2829 1101 2829 1664 
z
" transform="scale(0.015625)"/>
       <path id="Ubuntu-435" d="M 326 1658 
Q 326 2099 454 2428 
Q 582 2758 793 2976 
Q 1005 3194 1280 3302 
Q 1555 3411 1843 3411 
Q 2515 3411 2873 2992 
Q 3232 2573 3232 1715 
Q 3232 1677 3232 1616 
Q 3232 1555 3226 1504 
L 947 1504 
Q 986 986 1248 717 
Q 1510 448 2067 448 
Q 2381 448 2595 502 
Q 2810 557 2918 608 
L 3002 109 
Q 2893 51 2621 -13 
Q 2349 -77 2003 -77 
Q 1568 -77 1251 54 
Q 934 186 729 416 
Q 525 646 425 963 
Q 326 1280 326 1658 
z
M 2611 1984 
Q 2618 2387 2410 2646 
Q 2202 2906 1837 2906 
Q 1632 2906 1475 2826 
Q 1318 2746 1209 2618 
Q 1101 2490 1040 2323 
Q 979 2157 960 1984 
L 2611 1984 
z
" transform="scale(0.015625)"/>
       <path id="Ubuntu-20" transform="scale(0.015625)"/>
       <path id="Ubuntu-43c" d="M 1146 2451 
Q 1082 1818 1050 1187 
Q 1018 557 998 0 
L 429 0 
Q 442 390 467 816 
Q 493 1242 525 1674 
Q 557 2106 595 2525 
Q 634 2944 678 3328 
L 1222 3328 
Q 1427 2995 1702 2416 
Q 1978 1837 2336 1082 
Q 2694 1837 2969 2416 
Q 3245 2995 3450 3328 
L 4000 3328 
Q 4045 2944 4083 2525 
Q 4122 2106 4154 1674 
Q 4186 1242 4211 816 
Q 4237 390 4250 0 
L 3661 0 
Q 3642 557 3610 1187 
Q 3578 1818 3514 2451 
Q 3411 2253 3276 1974 
Q 3142 1696 3011 1408 
Q 2880 1120 2765 857 
Q 2650 595 2586 442 
L 2086 442 
Q 2016 602 1897 864 
Q 1779 1126 1648 1417 
Q 1517 1709 1382 1987 
Q 1248 2266 1146 2451 
z
" transform="scale(0.015625)"/>
      </defs>
      <use xlink:href="#Ubuntu-421"/>
      <use xlink:href="#Ubuntu-44b" x="61.999985"/>
      <use xlink:href="#Ubuntu-440" x="137.799973"/>
      <use xlink:href="#Ubuntu-43e" x="196.699966"/>
      <use xlink:href="#Ubuntu-435" x="255.699951"/>
      <use xlink:href="#Ubuntu-20" x="311.599945"/>
      <use xlink:href="#Ubuntu-43c" x="334.699936"/>
      <use xlink:href="#Ubuntu-43e" x="407.799927"/>
      <use xlink:href="#Ubuntu-43b" x="466.799911"/>
      <use xlink:href="#Ubuntu-43e" x="526.599899"/>
      <use xlink:href="#Ubuntu-43a" x="585.599884"/>
      <use xlink:href="#Ubuntu-43e" x="636.424881"/>
     </g>
    </g>
    <g id="line2d_50">
     <path d="M 39.3925 26.52 
L 44.7925 26.52 
L 50.1925 26.52 
" style="fill: none; stroke: #4f4f4f; stroke-opacity: 0.95; stroke-width: 1.2; stroke-linecap: square"/>
    </g>
    <g id="text_26">
     <!-- Пастеризованное молоко -->
     <g style="fill: #4b4b4b" transform="translate(56.5925 29.32) scale(0.08 -0.08)">
      <defs>
       <path id="Ubuntu-41f" d="M 3923 4435 
L 3923 0 
L 3302 0 
L 3302 3904 
L 1171 3904 
L 1171 0 
L 550 0 
L 550 4435 
L 3923 4435 
z
" transform="scale(0.015625)"/>
       <path id="Ubuntu-430" d="M 1638 429 
Q 1850 429 2013 438 
Q 2176 448 2285 474 
L 2285 1466 
Q 2221 1498 2077 1520 
Q 1933 1542 1728 1542 
Q 1594 1542 1443 1523 
Q 1293 1504 1168 1443 
Q 1043 1382 960 1276 
Q 877 1171 877 998 
Q 877 678 1081 553 
Q 1286 429 1638 429 
z
M 1587 3411 
Q 1946 3411 2192 3318 
Q 2438 3226 2588 3056 
Q 2739 2886 2803 2652 
Q 2867 2419 2867 2138 
L 2867 58 
Q 2790 45 2652 22 
Q 2515 0 2342 -19 
Q 2170 -38 1968 -54 
Q 1766 -70 1568 -70 
Q 1286 -70 1049 -12 
Q 813 45 640 169 
Q 467 294 371 499 
Q 275 704 275 992 
Q 275 1267 387 1465 
Q 499 1664 691 1785 
Q 883 1907 1139 1964 
Q 1395 2022 1677 2022 
Q 1766 2022 1862 2012 
Q 1958 2003 2044 1987 
Q 2131 1971 2195 1958 
Q 2259 1946 2285 1939 
L 2285 2106 
Q 2285 2253 2253 2397 
Q 2221 2541 2137 2653 
Q 2054 2765 1910 2832 
Q 1766 2899 1536 2899 
Q 1242 2899 1021 2857 
Q 800 2816 691 2771 
L 621 3264 
Q 736 3315 1005 3363 
Q 1274 3411 1587 3411 
z
" transform="scale(0.015625)"/>
       <path id="Ubuntu-441" d="M 1958 -77 
Q 1555 -77 1251 51 
Q 947 179 739 409 
Q 531 640 428 957 
Q 326 1274 326 1658 
Q 326 2042 438 2362 
Q 550 2682 755 2915 
Q 960 3149 1257 3280 
Q 1555 3411 1920 3411 
Q 2144 3411 2368 3372 
Q 2592 3334 2797 3251 
L 2662 2746 
Q 2528 2810 2352 2848 
Q 2176 2886 1978 2886 
Q 1478 2886 1212 2572 
Q 947 2259 947 1658 
Q 947 1389 1008 1165 
Q 1069 941 1200 781 
Q 1331 621 1536 534 
Q 1741 448 2035 448 
Q 2272 448 2464 493 
Q 2656 538 2765 589 
L 2848 90 
Q 2797 58 2701 29 
Q 2605 0 2483 -22 
Q 2362 -45 2224 -61 
Q 2086 -77 1958 -77 
z
" transform="scale(0.015625)"/>
       <path id="Ubuntu-438" d="M 3309 3328 
L 3309 0 
L 2733 0 
L 2733 2534 
Q 2541 2291 2310 1964 
Q 2080 1638 1849 1289 
Q 1619 941 1408 601 
Q 1197 262 1043 0 
L 512 0 
L 512 3328 
L 1088 3328 
L 1088 934 
Q 1254 1210 1465 1539 
Q 1677 1869 1904 2192 
Q 2131 2515 2358 2812 
Q 2586 3110 2784 3328 
L 3309 3328 
z
" transform="scale(0.015625)"/>
       <path id="Ubuntu-437" d="M 1357 3411 
Q 1645 3411 1894 3353 
Q 2144 3296 2323 3181 
Q 2502 3066 2604 2893 
Q 2707 2720 2707 2490 
Q 2707 2342 2656 2220 
Q 2605 2099 2528 2003 
Q 2451 1907 2358 1840 
Q 2266 1773 2182 1747 
Q 2477 1658 2646 1430 
Q 2816 1203 2816 858 
Q 2816 384 2432 153 
Q 2048 -77 1389 -77 
Q 986 -77 694 -13 
Q 403 51 282 109 
L 384 614 
Q 486 576 752 509 
Q 1018 442 1389 442 
Q 1792 442 2003 566 
Q 2214 691 2214 941 
Q 2214 1120 2134 1232 
Q 2054 1344 1932 1401 
Q 1811 1459 1670 1478 
Q 1530 1498 1408 1498 
L 851 1498 
L 851 1971 
L 1389 1971 
Q 1504 1971 1629 1987 
Q 1754 2003 1859 2054 
Q 1965 2106 2035 2198 
Q 2106 2291 2106 2445 
Q 2106 2566 2045 2652 
Q 1984 2739 1881 2796 
Q 1779 2854 1641 2883 
Q 1504 2912 1357 2912 
Q 1242 2912 1107 2893 
Q 973 2874 845 2845 
Q 717 2816 614 2784 
Q 512 2752 467 2726 
L 358 3238 
Q 410 3258 518 3290 
Q 627 3322 764 3347 
Q 902 3373 1056 3392 
Q 1210 3411 1357 3411 
z
" transform="scale(0.015625)"/>
      </defs>
      <use xlink:href="#Ubuntu-41f"/>
      <use xlink:href="#Ubuntu-430" x="69.899994"/>
      <use xlink:href="#Ubuntu-441" x="122.099991"/>
      <use xlink:href="#Ubuntu-442" x="170.099976"/>
      <use xlink:href="#Ubuntu-435" x="216.399963"/>
      <use xlink:href="#Ubuntu-440" x="272.299957"/>
      <use xlink:href="#Ubuntu-438" x="331.199951"/>
      <use xlink:href="#Ubuntu-437" x="390.899948"/>
      <use xlink:href="#Ubuntu-43e" x="439.799942"/>
      <use xlink:href="#Ubuntu-432" x="498.799927"/>
      <use xlink:href="#Ubuntu-430" x="553.599915"/>
      <use xlink:href="#Ubuntu-43d" x="605.799911"/>
      <use xlink:href="#Ubuntu-43d" x="664.399902"/>
      <use xlink:href="#Ubuntu-43e" x="722.999893"/>
      <use xlink:href="#Ubuntu-435" x="781.999878"/>
      <use xlink:href="#Ubuntu-20" x="837.899872"/>
      <use xlink:href="#Ubuntu-43c" x="860.999863"/>
      <use xlink:href="#Ubuntu-43e" x="934.099854"/>
      <use xlink:href="#Ubuntu-43b" x="993.099838"/>
      <use xlink:href="#Ubuntu-43e" x="1052.899826"/>
      <use xlink:href="#Ubuntu-43a" x="1111.899811"/>
      <use xlink:href="#Ubuntu-43e" x="1162.724808"/>
     </g>
    </g>
    <g id="line2d_51">
     <path d="M 170.33125 14.8325 
L 175.73125 14.8325 
L 181.13125 14.8325 
" style="fill: none; stroke: #ba5b58; stroke-opacity: 0.95; stroke-width: 1.2; stroke-linecap: square"/>
    </g>
    <g id="text_27">
     <!-- Масло сливочное -->
     <g style="fill: #4b4b4b" transform="translate(187.53125 17.6325) scale(0.08 -0.08)">
      <defs>
       <path id="Ubuntu-41c" d="M 2541 614 
Q 2477 768 2371 1005 
Q 2266 1242 2144 1517 
Q 2022 1792 1884 2083 
Q 1747 2374 1625 2633 
Q 1504 2893 1398 3097 
Q 1293 3302 1229 3411 
Q 1158 2656 1113 1776 
Q 1069 896 1037 0 
L 429 0 
Q 454 576 486 1161 
Q 518 1747 560 2313 
Q 602 2880 650 3417 
Q 698 3955 755 4435 
L 1299 4435 
Q 1472 4154 1670 3770 
Q 1869 3386 2067 2966 
Q 2266 2547 2451 2128 
Q 2637 1709 2790 1363 
Q 2944 1709 3129 2128 
Q 3315 2547 3513 2966 
Q 3712 3386 3910 3770 
Q 4109 4154 4282 4435 
L 4826 4435 
Q 5043 2291 5152 0 
L 4544 0 
Q 4512 896 4467 1776 
Q 4422 2656 4352 3411 
Q 4288 3302 4182 3097 
Q 4077 2893 3955 2633 
Q 3834 2374 3696 2083 
Q 3558 1792 3436 1517 
Q 3315 1242 3209 1005 
Q 3104 768 3040 614 
L 2541 614 
z
" transform="scale(0.015625)"/>
       <path id="Ubuntu-447" d="M 890 3328 
L 890 2349 
Q 890 1971 1082 1820 
Q 1274 1670 1606 1670 
Q 1850 1670 2013 1696 
Q 2176 1722 2304 1754 
L 2304 3328 
L 2899 3328 
L 2899 0 
L 2304 0 
L 2304 1293 
Q 2253 1280 2169 1261 
Q 2086 1242 1980 1226 
Q 1875 1210 1760 1197 
Q 1645 1184 1536 1184 
Q 1261 1184 1033 1241 
Q 806 1299 643 1433 
Q 480 1568 387 1789 
Q 294 2010 294 2342 
L 294 3328 
L 890 3328 
z
" transform="scale(0.015625)"/>
      </defs>
      <use xlink:href="#Ubuntu-41c"/>
      <use xlink:href="#Ubuntu-430" x="87.099991"/>
      <use xlink:href="#Ubuntu-441" x="139.299988"/>
      <use xlink:href="#Ubuntu-43b" x="187.674973"/>
      <use xlink:href="#Ubuntu-43e" x="247.47496"/>
      <use xlink:href="#Ubuntu-20" x="306.474945"/>
      <use xlink:href="#Ubuntu-441" x="329.574936"/>
      <use xlink:href="#Ubuntu-43b" x="377.949921"/>
      <use xlink:href="#Ubuntu-438" x="437.749908"/>
      <use xlink:href="#Ubuntu-432" x="497.449905"/>
      <use xlink:href="#Ubuntu-43e" x="552.249893"/>
      <use xlink:href="#Ubuntu-447" x="611.249878"/>
      <use xlink:href="#Ubuntu-43d" x="664.549866"/>
      <use xlink:href="#Ubuntu-43e" x="723.149857"/>
      <use xlink:href="#Ubuntu-435" x="782.149841"/>
     </g>
    </g>
    <g id="line2d_52">
     <path d="M 270.57375 14.8325 
L 275.97375 14.8325 
L 281.37375 14.8325 
" style="fill: none; stroke: #5b89af; stroke-width: 1.2; stroke-linecap: square"/>
    </g>
    <g id="text_28">
     <!-- Сыр -->
     <g style="fill: #4b4b4b" transform="translate(287.77375 17.6325) scale(0.08 -0.08)">
      <use xlink:href="#Ubuntu-421"/>
      <use xlink:href="#Ubuntu-44b" x="61.999985"/>
      <use xlink:href="#Ubuntu-440" x="137.799973"/>
     </g>
    </g>
    <g id="line2d_53">
     <path d="M 319.51 14.8325 
L 324.91 14.8325 
L 330.31 14.8325 
" style="fill: none; stroke: #5a9e88; stroke-width: 1.2; stroke-linecap: square"/>
    </g>
    <g id="text_29">
     <!-- Сметана -->
     <g style="fill: #4b4b4b" transform="translate(336.71 17.6325) scale(0.08 -0.08)">
      <use xlink:href="#Ubuntu-421"/>
      <use xlink:href="#Ubuntu-43c" x="61.999985"/>
      <use xlink:href="#Ubuntu-435" x="135.099976"/>
      <use xlink:href="#Ubuntu-442" x="190.999969"/>
      <use xlink:href="#Ubuntu-430" x="237.299957"/>
      <use xlink:href="#Ubuntu-43d" x="289.499954"/>
      <use xlink:href="#Ubuntu-430" x="348.099945"/>
     </g>
    </g>
    <g id="line2d_54">
     <path d="M 384.73375 14.8325 
L 390.13375 14.8325 
L 395.53375 14.8325 
" style="fill: none; stroke: #f3d963; stroke-opacity: 0.95; stroke-width: 1.2; stroke-linecap: square"/>
    </g>
    <g id="text_30">
     <!-- Йогрут -->
     <g style="fill: #4b4b4b" transform="translate(401.93375 17.6325) scale(0.08 -0.08)">
      <defs>
       <path id="Ubuntu-419" d="M 550 0 
L 550 4435 
L 1158 4435 
L 1158 1152 
Q 1363 1491 1660 1926 
Q 1958 2362 2294 2813 
Q 2630 3264 2972 3689 
Q 3315 4115 3616 4435 
L 4109 4435 
L 4109 0 
L 3501 0 
L 3501 3462 
Q 3322 3258 3110 2989 
Q 2899 2720 2675 2416 
Q 2451 2112 2224 1785 
Q 1997 1459 1785 1142 
Q 1574 826 1392 531 
Q 1210 237 1069 0 
L 550 0 
z
M 2333 4890 
Q 1930 4890 1677 5094 
Q 1424 5299 1373 5664 
L 1827 5786 
Q 1878 5581 2000 5453 
Q 2122 5325 2333 5325 
Q 2544 5325 2665 5453 
Q 2787 5581 2838 5786 
L 3286 5664 
Q 3235 5299 2985 5094 
Q 2736 4890 2333 4890 
z
" transform="scale(0.015625)"/>
       <path id="Ubuntu-433" d="M 2573 2829 
L 1107 2829 
L 1107 0 
L 512 0 
L 512 3328 
L 2573 3328 
L 2573 2829 
z
" transform="scale(0.015625)"/>
       <path id="Ubuntu-443" d="M 122 -621 
Q 192 -653 304 -681 
Q 416 -710 525 -710 
Q 877 -710 1075 -553 
Q 1274 -397 1434 -45 
Q 1030 723 681 1584 
Q 333 2445 102 3328 
L 742 3328 
Q 813 3040 912 2707 
Q 1011 2374 1132 2022 
Q 1254 1670 1395 1318 
Q 1536 966 1690 640 
Q 1933 1312 2112 1971 
Q 2291 2630 2451 3328 
L 3066 3328 
Q 2835 2387 2553 1520 
Q 2272 653 1946 -102 
Q 1818 -390 1680 -598 
Q 1542 -806 1376 -940 
Q 1210 -1075 1002 -1139 
Q 794 -1203 531 -1203 
Q 461 -1203 384 -1193 
Q 307 -1184 233 -1168 
Q 160 -1152 99 -1133 
Q 38 -1114 13 -1101 
L 122 -621 
z
" transform="scale(0.015625)"/>
      </defs>
      <use xlink:href="#Ubuntu-419"/>
      <use xlink:href="#Ubuntu-43e" x="72.799988"/>
      <use xlink:href="#Ubuntu-433" x="131.799973"/>
      <use xlink:href="#Ubuntu-440" x="173.59996"/>
      <use xlink:href="#Ubuntu-443" x="231.124954"/>
      <use xlink:href="#Ubuntu-442" x="282.949951"/>
     </g>
    </g>
    <g id="line2d_55">
     <path d="M 444.27375 14.8325 
L 449.67375 14.8325 
L 455.07375 14.8325 
" style="fill: none; stroke: #635f84; stroke-width: 1.2; stroke-linecap: square"/>
    </g>
    <g id="text_31">
     <!-- Творог -->
     <g style="fill: #4b4b4b" transform="translate(461.47375 17.6325) scale(0.08 -0.08)">
      <defs>
       <path id="Ubuntu-422" d="M 3514 4435 
L 3514 3898 
L 2118 3898 
L 2118 0 
L 1498 0 
L 1498 3898 
L 102 3898 
L 102 4435 
L 3514 4435 
z
" transform="scale(0.015625)"/>
      </defs>
      <use xlink:href="#Ubuntu-422"/>
      <use xlink:href="#Ubuntu-432" x="49.124985"/>
      <use xlink:href="#Ubuntu-43e" x="103.924973"/>
      <use xlink:href="#Ubuntu-440" x="162.924957"/>
      <use xlink:href="#Ubuntu-43e" x="221.824951"/>
      <use xlink:href="#Ubuntu-433" x="280.824936"/>
     </g>
    </g>
   </g>
  </g>
 </g>
 <defs>
  <clipPath id="p0d8babfea2">
   <rect x="32.1925" y="38" width="502.2" height="166.32"/>
  </clipPath>
  <clipPath id="p0bd8c49673">
   <rect x="32.1925" y="204.32" width="502.2" height="0"/>
  </clipPath>
 </defs>
</svg>
