<?xml version="1.0" encoding="utf-8" standalone="no"?>
<!DOCTYPE svg PUBLIC "-//W3C//DTD SVG 1.1//EN"
  "http://www.w3.org/Graphics/SVG/1.1/DTD/svg11.dtd">
<svg xmlns:xlink="http://www.w3.org/1999/xlink" width="558.425pt" height="251.584219pt" viewBox="0 0 558.425 251.584219" xmlns="http://www.w3.org/2000/svg" version="1.1">
 <metadata>
  <rdf:RDF xmlns:dc="http://purl.org/dc/elements/1.1/" xmlns:cc="http://creativecommons.org/ns#" xmlns:rdf="http://www.w3.org/1999/02/22-rdf-syntax-ns#">
   <cc:Work>
    <dc:type rdf:resource="http://purl.org/dc/dcmitype/StillImage"/>
    <dc:date>2024-04-10T20:49:32.546457</dc:date>
    <dc:format>image/svg+xml</dc:format>
    <dc:creator>
     <cc:Agent>
      <dc:title>Matplotlib v3.8.0, https://matplotlib.org/</dc:title>
     </cc:Agent>
    </dc:creator>
   </cc:Work>
  </rdf:RDF>
 </metadata>
 <defs>
  <style type="text/css">*{stroke-linejoin: round; stroke-linecap: butt}</style>
 </defs>
 <g id="figure_1">
  <g id="patch_1">
   <path d="M 0 251.584219 
L 558.425 251.584219 
L 558.425 0 
L 0 0 
L 0 251.584219 
z
" style="fill: none"/>
  </g>
  <g id="axes_1">
   <g id="patch_2">
    <path d="M 41.705 208.196719 
L 543.905 208.196719 
L 543.905 41.876719 
L 41.705 41.876719 
L 41.705 208.196719 
z
" style="fill: none"/>
   </g>
   <g id="axes_2">
    <g id="patch_3">
     <path d="M 41.705 208.196719 
L 543.905 208.196719 
L 543.905 208.196719 
L 41.705 208.196719 
L 41.705 208.196719 
z
" style="fill: none"/>
    </g>
    <g id="matplotlib.axis_1">
     <g id="xtick_1">
      <g id="line2d_1">
       <path d="M 41.705 208.196719 
L 41.705 208.196719 
" clip-path="url(#p6d4fdff72e)" style="fill: none; stroke-dasharray: 0.5,0.825; stroke-dashoffset: 0; stroke: #d9d9d9; stroke-width: 0.5"/>
      </g>
      <g id="text_1">
       <!-- 2021 -->
       <g style="fill: #808080" transform="translate(32.68 242.904219) scale(0.08 -0.08)">
        <defs>
         <path id="Ubuntu-32" d="M 2989 3302 
Q 2989 3072 2896 2857 
Q 2803 2643 2649 2435 
Q 2496 2227 2304 2025 
Q 2112 1824 1920 1632 
Q 1811 1523 1667 1376 
Q 1523 1229 1395 1069 
Q 1267 909 1180 761 
Q 1094 614 1094 506 
L 3136 506 
L 3136 0 
L 448 0 
Q 442 38 442 76 
Q 442 115 442 147 
Q 442 448 541 707 
Q 640 966 800 1196 
Q 960 1427 1158 1632 
Q 1357 1837 1549 2029 
Q 1709 2182 1853 2332 
Q 1997 2483 2109 2633 
Q 2221 2784 2288 2944 
Q 2355 3104 2355 3283 
Q 2355 3475 2294 3609 
Q 2234 3744 2131 3833 
Q 2029 3923 1891 3964 
Q 1754 4006 1600 4006 
Q 1414 4006 1260 3955 
Q 1107 3904 985 3837 
Q 864 3770 781 3696 
Q 698 3622 653 3584 
L 358 4006 
Q 416 4070 531 4163 
Q 646 4256 806 4339 
Q 966 4422 1164 4480 
Q 1363 4538 1594 4538 
Q 2291 4538 2640 4214 
Q 2989 3891 2989 3302 
z
" transform="scale(0.015625)"/>
         <path id="Ubuntu-30" d="M 320 2221 
Q 320 3334 713 3936 
Q 1107 4538 1805 4538 
Q 2502 4538 2896 3936 
Q 3290 3334 3290 2221 
Q 3290 1107 2896 505 
Q 2502 -96 1805 -96 
Q 1107 -96 713 505 
Q 320 1107 320 2221 
z
M 2662 2221 
Q 2662 2586 2620 2912 
Q 2579 3238 2480 3481 
Q 2381 3725 2214 3869 
Q 2048 4013 1805 4013 
Q 1562 4013 1395 3869 
Q 1229 3725 1129 3481 
Q 1030 3238 988 2912 
Q 947 2586 947 2221 
Q 947 1856 988 1529 
Q 1030 1203 1129 960 
Q 1229 717 1395 573 
Q 1562 429 1805 429 
Q 2048 429 2214 573 
Q 2381 717 2480 960 
Q 2579 1203 2620 1529 
Q 2662 1856 2662 2221 
z
" transform="scale(0.015625)"/>
         <path id="Ubuntu-31" d="M 595 3520 
Q 960 3661 1305 3881 
Q 1651 4102 1939 4435 
L 2362 4435 
L 2362 0 
L 1766 0 
L 1766 3610 
Q 1690 3539 1578 3462 
Q 1466 3386 1334 3315 
Q 1203 3245 1059 3181 
Q 915 3117 781 3072 
L 595 3520 
z
" transform="scale(0.015625)"/>
        </defs>
        <use xlink:href="#Ubuntu-32"/>
        <use xlink:href="#Ubuntu-30" x="56.399994"/>
        <use xlink:href="#Ubuntu-32" x="112.799988"/>
        <use xlink:href="#Ubuntu-31" x="169.199982"/>
       </g>
      </g>
     </g>
     <g id="xtick_2">
      <g id="line2d_2">
       <path d="M 196.260649 208.196719 
L 196.260649 208.196719 
" clip-path="url(#p6d4fdff72e)" style="fill: none; stroke-dasharray: 0.5,0.825; stroke-dashoffset: 0; stroke: #d9d9d9; stroke-width: 0.5"/>
      </g>
      <g id="text_2">
       <!-- 2022 -->
       <g style="fill: #808080" transform="translate(187.235649 242.904219) scale(0.08 -0.08)">
        <use xlink:href="#Ubuntu-32"/>
        <use xlink:href="#Ubuntu-30" x="56.399994"/>
        <use xlink:href="#Ubuntu-32" x="112.799988"/>
        <use xlink:href="#Ubuntu-32" x="169.199982"/>
       </g>
      </g>
     </g>
     <g id="xtick_3">
      <g id="line2d_3">
       <path d="M 350.816298 208.196719 
L 350.816298 208.196719 
" clip-path="url(#p6d4fdff72e)" style="fill: none; stroke-dasharray: 0.5,0.825; stroke-dashoffset: 0; stroke: #d9d9d9; stroke-width: 0.5"/>
      </g>
      <g id="text_3">
       <!-- 2023 -->
       <g style="fill: #808080" transform="translate(341.791298 242.904219) scale(0.08 -0.08)">
        <defs>
         <path id="Ubuntu-33" d="M 1446 435 
Q 2016 435 2262 659 
Q 2509 883 2509 1261 
Q 2509 1504 2406 1670 
Q 2304 1837 2137 1936 
Q 1971 2035 1750 2076 
Q 1530 2118 1299 2118 
L 1146 2118 
L 1146 2605 
L 1357 2605 
Q 1517 2605 1686 2637 
Q 1856 2669 1997 2752 
Q 2138 2835 2227 2979 
Q 2317 3123 2317 3341 
Q 2317 3520 2253 3648 
Q 2189 3776 2083 3859 
Q 1978 3942 1840 3977 
Q 1702 4013 1549 4013 
Q 1242 4013 1027 3923 
Q 813 3834 666 3738 
L 435 4192 
Q 512 4243 630 4304 
Q 749 4365 896 4416 
Q 1043 4467 1212 4502 
Q 1382 4538 1568 4538 
Q 1920 4538 2176 4451 
Q 2432 4365 2598 4208 
Q 2765 4051 2848 3836 
Q 2931 3622 2931 3373 
Q 2931 3027 2732 2780 
Q 2534 2534 2253 2406 
Q 2426 2355 2586 2259 
Q 2746 2163 2864 2016 
Q 2982 1869 3056 1677 
Q 3130 1485 3130 1248 
Q 3130 960 3030 713 
Q 2931 467 2723 288 
Q 2515 109 2201 6 
Q 1888 -96 1459 -96 
Q 1293 -96 1117 -70 
Q 941 -45 787 -6 
Q 634 32 518 70 
Q 403 109 352 134 
L 467 653 
Q 576 602 829 518 
Q 1082 435 1446 435 
z
" transform="scale(0.015625)"/>
        </defs>
        <use xlink:href="#Ubuntu-32"/>
        <use xlink:href="#Ubuntu-30" x="56.399994"/>
        <use xlink:href="#Ubuntu-32" x="112.799988"/>
        <use xlink:href="#Ubuntu-33" x="169.199982"/>
       </g>
      </g>
     </g>
     <g id="xtick_4">
      <g id="line2d_4">
       <path d="M 505.371948 208.196719 
L 505.371948 208.196719 
" clip-path="url(#p6d4fdff72e)" style="fill: none; stroke-dasharray: 0.5,0.825; stroke-dashoffset: 0; stroke: #d9d9d9; stroke-width: 0.5"/>
      </g>
      <g id="text_4">
       <!-- 2024 -->
       <g style="fill: #808080" transform="translate(496.346948 242.904219) scale(0.08 -0.08)">
        <defs>
         <path id="Ubuntu-34" d="M 256 1536 
Q 378 1818 589 2192 
Q 800 2566 1065 2963 
Q 1331 3360 1635 3744 
Q 1939 4128 2246 4435 
L 2816 4435 
L 2816 1619 
L 3341 1619 
L 3341 1133 
L 2816 1133 
L 2816 0 
L 2240 0 
L 2240 1133 
L 256 1133 
L 256 1536 
z
M 2240 3731 
Q 2048 3526 1853 3273 
Q 1658 3021 1472 2745 
Q 1286 2470 1123 2182 
Q 960 1894 832 1619 
L 2240 1619 
L 2240 3731 
z
" transform="scale(0.015625)"/>
        </defs>
        <use xlink:href="#Ubuntu-32"/>
        <use xlink:href="#Ubuntu-30" x="56.399994"/>
        <use xlink:href="#Ubuntu-32" x="112.799988"/>
        <use xlink:href="#Ubuntu-34" x="169.199982"/>
       </g>
      </g>
     </g>
    </g>
    <g id="matplotlib.axis_2"/>
   </g>
   <g id="matplotlib.axis_3">
    <g id="xtick_5">
     <g id="line2d_5">
      <defs>
       <path id="m4e99975fd3" d="M 0 0 
L 0 3 
" style="stroke: #aaaaaa; stroke-width: 0.75"/>
      </defs>
      <g>
       <use xlink:href="#m4e99975fd3" x="41.705" y="218.196719" style="fill: #aaaaaa; stroke: #aaaaaa; stroke-width: 0.75"/>
      </g>
     </g>
     <g id="text_5">
      <!-- Янв -->
      <g style="fill: #808080" transform="translate(34.629375 233.404219) scale(0.08 -0.08)">
       <defs>
        <path id="Ubuntu-42f" d="M 2272 3936 
Q 2029 3936 1808 3897 
Q 1587 3859 1414 3763 
Q 1242 3667 1139 3500 
Q 1037 3334 1037 3085 
Q 1037 2611 1341 2428 
Q 1645 2246 2253 2246 
L 2893 2246 
L 2893 3917 
Q 2822 3917 2726 3923 
Q 2643 3930 2531 3933 
Q 2419 3936 2272 3936 
z
M 2323 4480 
Q 2458 4480 2611 4473 
Q 2765 4467 2921 4454 
Q 3078 4442 3232 4422 
Q 3386 4403 3514 4371 
L 3514 0 
L 2893 0 
L 2893 1734 
L 2362 1734 
Q 2272 1734 2173 1737 
Q 2074 1741 1907 1760 
Q 1792 1606 1657 1401 
Q 1523 1197 1388 966 
Q 1254 736 1123 486 
Q 992 237 883 0 
L 230 0 
Q 333 250 473 518 
Q 614 787 764 1030 
Q 915 1274 1052 1482 
Q 1190 1690 1293 1824 
Q 1146 1869 986 1952 
Q 826 2035 691 2182 
Q 557 2330 470 2550 
Q 384 2771 384 3078 
Q 384 3424 518 3686 
Q 653 3949 905 4125 
Q 1158 4301 1516 4390 
Q 1875 4480 2323 4480 
z
" transform="scale(0.015625)"/>
        <path id="Ubuntu-43d" d="M 3238 0 
L 2643 0 
L 2643 1472 
L 1107 1472 
L 1107 0 
L 512 0 
L 512 3328 
L 1107 3328 
L 1107 1971 
L 2643 1971 
L 2643 3328 
L 3238 3328 
L 3238 0 
z
" transform="scale(0.015625)"/>
        <path id="Ubuntu-432" d="M 1094 448 
Q 1133 442 1203 435 
Q 1274 429 1363 425 
Q 1453 422 1552 419 
Q 1651 416 1741 416 
Q 1926 416 2096 441 
Q 2266 467 2390 531 
Q 2515 595 2588 700 
Q 2662 806 2662 973 
Q 2662 1133 2595 1238 
Q 2528 1344 2413 1408 
Q 2298 1472 2141 1497 
Q 1984 1523 1805 1523 
L 1094 1523 
L 1094 448 
z
M 1728 1965 
Q 1901 1965 2045 1987 
Q 2189 2010 2294 2067 
Q 2400 2125 2461 2221 
Q 2522 2317 2522 2464 
Q 2522 2618 2445 2707 
Q 2368 2797 2243 2845 
Q 2118 2893 1961 2909 
Q 1805 2925 1645 2925 
Q 1498 2925 1347 2918 
Q 1197 2912 1094 2906 
L 1094 1965 
L 1728 1965 
z
M 1715 -58 
Q 1338 -58 1018 -22 
Q 698 13 512 58 
L 512 3296 
Q 698 3341 1018 3376 
Q 1338 3411 1715 3411 
Q 1978 3411 2227 3366 
Q 2477 3322 2669 3216 
Q 2861 3110 2979 2928 
Q 3098 2746 3098 2477 
Q 3098 2234 2976 2061 
Q 2854 1888 2650 1792 
Q 2925 1696 3088 1507 
Q 3251 1318 3251 979 
Q 3251 678 3132 480 
Q 3014 282 2806 160 
Q 2598 38 2316 -10 
Q 2035 -58 1715 -58 
z
" transform="scale(0.015625)"/>
       </defs>
       <use xlink:href="#Ubuntu-42f"/>
       <use xlink:href="#Ubuntu-43d" x="63.499985"/>
       <use xlink:href="#Ubuntu-432" x="122.099976"/>
      </g>
     </g>
    </g>
    <g id="xtick_6">
     <g id="line2d_6">
      <g>
       <use xlink:href="#m4e99975fd3" x="79.814612" y="218.196719" style="fill: #aaaaaa; stroke: #aaaaaa; stroke-width: 0.75"/>
      </g>
     </g>
     <g id="text_6">
      <!-- Апр -->
      <g style="fill: #808080" transform="translate(72.494612 233.404219) scale(0.08 -0.08)">
       <defs>
        <path id="Ubuntu-410" d="M 3514 0 
Q 3405 288 3309 566 
Q 3213 845 3110 1133 
L 1101 1133 
L 698 0 
L 51 0 
Q 307 704 531 1302 
Q 755 1901 969 2438 
Q 1184 2976 1395 3465 
Q 1606 3955 1837 4435 
L 2406 4435 
Q 2637 3955 2848 3465 
Q 3059 2976 3273 2438 
Q 3488 1901 3712 1302 
Q 3936 704 4192 0 
L 3514 0 
z
M 2931 1645 
Q 2726 2202 2524 2723 
Q 2323 3245 2106 3725 
Q 1882 3245 1680 2723 
Q 1478 2202 1280 1645 
L 2931 1645 
z
" transform="scale(0.015625)"/>
        <path id="Ubuntu-43f" d="M 3187 0 
L 2592 0 
L 2592 2829 
L 1107 2829 
L 1107 0 
L 512 0 
L 512 3328 
L 3187 3328 
L 3187 0 
z
" transform="scale(0.015625)"/>
        <path id="Ubuntu-440" d="M 2822 1658 
Q 2822 2240 2534 2553 
Q 2246 2867 1766 2867 
Q 1498 2867 1347 2848 
Q 1197 2829 1107 2803 
L 1107 704 
Q 1216 614 1421 531 
Q 1626 448 1869 448 
Q 2125 448 2307 541 
Q 2490 634 2605 797 
Q 2720 960 2771 1181 
Q 2822 1402 2822 1658 
z
M 3443 1658 
Q 3443 1280 3344 960 
Q 3245 640 3053 409 
Q 2861 179 2582 51 
Q 2304 -77 1946 -77 
Q 1658 -77 1437 0 
Q 1216 77 1107 147 
L 1107 -1184 
L 512 -1184 
L 512 3226 
Q 723 3277 1040 3337 
Q 1357 3398 1773 3398 
Q 2157 3398 2464 3276 
Q 2771 3155 2988 2931 
Q 3206 2707 3324 2384 
Q 3443 2061 3443 1658 
z
" transform="scale(0.015625)"/>
       </defs>
       <use xlink:href="#Ubuntu-410"/>
       <use xlink:href="#Ubuntu-43f" x="66.299988"/>
       <use xlink:href="#Ubuntu-440" x="124.099976"/>
      </g>
     </g>
    </g>
    <g id="xtick_7">
     <g id="line2d_7">
      <g>
       <use xlink:href="#m4e99975fd3" x="118.347664" y="218.196719" style="fill: #aaaaaa; stroke: #aaaaaa; stroke-width: 0.75"/>
      </g>
     </g>
     <g id="text_7">
      <!-- Июл -->
      <g style="fill: #808080" transform="translate(109.800164 233.404219) scale(0.08 -0.08)">
       <defs>
        <path id="Ubuntu-418" d="M 550 0 
L 550 4435 
L 1158 4435 
L 1158 1152 
Q 1363 1491 1660 1926 
Q 1958 2362 2294 2813 
Q 2630 3264 2972 3689 
Q 3315 4115 3616 4435 
L 4109 4435 
L 4109 0 
L 3501 0 
L 3501 3462 
Q 3322 3258 3110 2989 
Q 2899 2720 2675 2416 
Q 2451 2112 2224 1785 
Q 1997 1459 1785 1142 
Q 1574 826 1392 531 
Q 1210 237 1069 0 
L 550 0 
z
" transform="scale(0.015625)"/>
        <path id="Ubuntu-44e" d="M 1107 1952 
L 1837 1952 
Q 1875 2285 2006 2553 
Q 2138 2822 2336 3014 
Q 2534 3206 2790 3308 
Q 3046 3411 3341 3411 
Q 3667 3411 3945 3286 
Q 4224 3162 4429 2931 
Q 4634 2701 4749 2377 
Q 4864 2054 4864 1664 
Q 4864 1267 4749 947 
Q 4634 627 4429 396 
Q 4224 166 3945 41 
Q 3667 -83 3341 -83 
Q 3034 -83 2768 29 
Q 2502 141 2304 342 
Q 2106 544 1981 832 
Q 1856 1120 1830 1472 
L 1107 1472 
L 1107 0 
L 512 0 
L 512 3328 
L 1107 3328 
L 1107 1952 
z
M 4250 1664 
Q 4250 2227 4003 2556 
Q 3757 2886 3341 2886 
Q 2925 2886 2678 2556 
Q 2432 2227 2432 1664 
Q 2432 1101 2678 771 
Q 2925 442 3341 442 
Q 3757 442 4003 771 
Q 4250 1101 4250 1664 
z
" transform="scale(0.015625)"/>
        <path id="Ubuntu-43b" d="M 1670 2829 
Q 1670 2618 1660 2378 
Q 1651 2138 1625 1898 
Q 1600 1658 1555 1424 
Q 1510 1190 1440 986 
Q 1370 781 1264 601 
Q 1158 422 1004 284 
Q 851 147 646 54 
Q 442 -38 166 -64 
L 83 435 
Q 397 499 579 672 
Q 762 845 870 1094 
Q 966 1312 1011 1587 
Q 1056 1862 1075 2160 
Q 1094 2458 1097 2758 
Q 1101 3059 1101 3328 
L 3315 3328 
L 3315 0 
L 2720 0 
L 2720 2829 
L 1670 2829 
z
" transform="scale(0.015625)"/>
       </defs>
       <use xlink:href="#Ubuntu-418"/>
       <use xlink:href="#Ubuntu-44e" x="72.799988"/>
       <use xlink:href="#Ubuntu-43b" x="153.899979"/>
      </g>
     </g>
    </g>
    <g id="xtick_8">
     <g id="line2d_8">
      <g>
       <use xlink:href="#m4e99975fd3" x="157.304157" y="218.196719" style="fill: #aaaaaa; stroke: #aaaaaa; stroke-width: 0.75"/>
      </g>
     </g>
     <g id="text_8">
      <!-- Окт -->
      <g style="fill: #808080" transform="translate(150.192282 233.404219) scale(0.08 -0.08)">
       <defs>
        <path id="Ubuntu-41e" d="M 371 2221 
Q 371 2790 540 3225 
Q 710 3661 1001 3952 
Q 1293 4243 1680 4390 
Q 2067 4538 2502 4538 
Q 2931 4538 3312 4390 
Q 3693 4243 3981 3952 
Q 4269 3661 4438 3225 
Q 4608 2790 4608 2221 
Q 4608 1651 4438 1216 
Q 4269 781 3981 489 
Q 3693 198 3312 51 
Q 2931 -96 2502 -96 
Q 2067 -96 1680 51 
Q 1293 198 1001 489 
Q 710 781 540 1216 
Q 371 1651 371 2221 
z
M 1024 2221 
Q 1024 1818 1126 1488 
Q 1229 1158 1417 928 
Q 1606 698 1878 573 
Q 2150 448 2490 448 
Q 2829 448 3097 573 
Q 3366 698 3555 928 
Q 3744 1158 3846 1488 
Q 3949 1818 3949 2221 
Q 3949 2624 3846 2953 
Q 3744 3283 3555 3513 
Q 3366 3744 3097 3869 
Q 2829 3994 2490 3994 
Q 2150 3994 1878 3869 
Q 1606 3744 1417 3513 
Q 1229 3283 1126 2953 
Q 1024 2624 1024 2221 
z
" transform="scale(0.015625)"/>
        <path id="Ubuntu-43a" d="M 1728 1811 
Q 1926 1670 2156 1456 
Q 2387 1242 2608 992 
Q 2829 742 3021 483 
Q 3213 224 3347 0 
L 2643 0 
Q 2502 218 2313 445 
Q 2125 672 1920 883 
Q 1715 1094 1504 1273 
Q 1293 1453 1107 1574 
L 1107 0 
L 512 0 
L 512 3328 
L 1107 3328 
L 1107 1901 
Q 1261 2048 1459 2243 
Q 1658 2438 1859 2640 
Q 2061 2842 2233 3024 
Q 2406 3206 2515 3328 
L 3206 3328 
Q 3066 3174 2877 2979 
Q 2688 2784 2486 2579 
Q 2285 2374 2086 2172 
Q 1888 1971 1728 1811 
z
" transform="scale(0.015625)"/>
        <path id="Ubuntu-442" d="M 2861 3328 
L 2861 2829 
L 1779 2829 
L 1779 0 
L 1184 0 
L 1184 2829 
L 102 2829 
L 102 3328 
L 2861 3328 
z
" transform="scale(0.015625)"/>
       </defs>
       <use xlink:href="#Ubuntu-41e"/>
       <use xlink:href="#Ubuntu-43a" x="77.799988"/>
       <use xlink:href="#Ubuntu-442" x="131.499985"/>
      </g>
     </g>
    </g>
    <g id="xtick_9">
     <g id="line2d_9">
      <g>
       <use xlink:href="#m4e99975fd3" x="196.260649" y="218.196719" style="fill: #aaaaaa; stroke: #aaaaaa; stroke-width: 0.75"/>
      </g>
     </g>
     <g id="text_9">
      <!-- Янв -->
      <g style="fill: #808080" transform="translate(189.185024 233.404219) scale(0.08 -0.08)">
       <use xlink:href="#Ubuntu-42f"/>
       <use xlink:href="#Ubuntu-43d" x="63.499985"/>
       <use xlink:href="#Ubuntu-432" x="122.099976"/>
      </g>
     </g>
    </g>
    <g id="xtick_10">
     <g id="line2d_10">
      <g>
       <use xlink:href="#m4e99975fd3" x="234.370261" y="218.196719" style="fill: #aaaaaa; stroke: #aaaaaa; stroke-width: 0.75"/>
      </g>
     </g>
     <g id="text_10">
      <!-- Апр -->
      <g style="fill: #808080" transform="translate(227.050261 233.404219) scale(0.08 -0.08)">
       <use xlink:href="#Ubuntu-410"/>
       <use xlink:href="#Ubuntu-43f" x="66.299988"/>
       <use xlink:href="#Ubuntu-440" x="124.099976"/>
      </g>
     </g>
    </g>
    <g id="xtick_11">
     <g id="line2d_11">
      <g>
       <use xlink:href="#m4e99975fd3" x="272.903314" y="218.196719" style="fill: #aaaaaa; stroke: #aaaaaa; stroke-width: 0.75"/>
      </g>
     </g>
     <g id="text_11">
      <!-- Июл -->
      <g style="fill: #808080" transform="translate(264.355814 233.404219) scale(0.08 -0.08)">
       <use xlink:href="#Ubuntu-418"/>
       <use xlink:href="#Ubuntu-44e" x="72.799988"/>
       <use xlink:href="#Ubuntu-43b" x="153.899979"/>
      </g>
     </g>
    </g>
    <g id="xtick_12">
     <g id="line2d_12">
      <g>
       <use xlink:href="#m4e99975fd3" x="311.859806" y="218.196719" style="fill: #aaaaaa; stroke: #aaaaaa; stroke-width: 0.75"/>
      </g>
     </g>
     <g id="text_12">
      <!-- Окт -->
      <g style="fill: #808080" transform="translate(304.747931 233.404219) scale(0.08 -0.08)">
       <use xlink:href="#Ubuntu-41e"/>
       <use xlink:href="#Ubuntu-43a" x="77.799988"/>
       <use xlink:href="#Ubuntu-442" x="131.499985"/>
      </g>
     </g>
    </g>
    <g id="xtick_13">
     <g id="line2d_13">
      <g>
       <use xlink:href="#m4e99975fd3" x="350.816298" y="218.196719" style="fill: #aaaaaa; stroke: #aaaaaa; stroke-width: 0.75"/>
      </g>
     </g>
     <g id="text_13">
      <!-- Янв -->
      <g style="fill: #808080" transform="translate(343.740673 233.404219) scale(0.08 -0.08)">
       <use xlink:href="#Ubuntu-42f"/>
       <use xlink:href="#Ubuntu-43d" x="63.499985"/>
       <use xlink:href="#Ubuntu-432" x="122.099976"/>
      </g>
     </g>
    </g>
    <g id="xtick_14">
     <g id="line2d_14">
      <g>
       <use xlink:href="#m4e99975fd3" x="388.925911" y="218.196719" style="fill: #aaaaaa; stroke: #aaaaaa; stroke-width: 0.75"/>
      </g>
     </g>
     <g id="text_14">
      <!-- Апр -->
      <g style="fill: #808080" transform="translate(381.605911 233.404219) scale(0.08 -0.08)">
       <use xlink:href="#Ubuntu-410"/>
       <use xlink:href="#Ubuntu-43f" x="66.299988"/>
       <use xlink:href="#Ubuntu-440" x="124.099976"/>
      </g>
     </g>
    </g>
    <g id="xtick_15">
     <g id="line2d_15">
      <g>
       <use xlink:href="#m4e99975fd3" x="427.458963" y="218.196719" style="fill: #aaaaaa; stroke: #aaaaaa; stroke-width: 0.75"/>
      </g>
     </g>
     <g id="text_15">
      <!-- Июл -->
      <g style="fill: #808080" transform="translate(418.911463 233.404219) scale(0.08 -0.08)">
       <use xlink:href="#Ubuntu-418"/>
       <use xlink:href="#Ubuntu-44e" x="72.799988"/>
       <use xlink:href="#Ubuntu-43b" x="153.899979"/>
      </g>
     </g>
    </g>
    <g id="xtick_16">
     <g id="line2d_16">
      <g>
       <use xlink:href="#m4e99975fd3" x="466.415455" y="218.196719" style="fill: #aaaaaa; stroke: #aaaaaa; stroke-width: 0.75"/>
      </g>
     </g>
     <g id="text_16">
      <!-- Окт -->
      <g style="fill: #808080" transform="translate(459.30358 233.404219) scale(0.08 -0.08)">
       <use xlink:href="#Ubuntu-41e"/>
       <use xlink:href="#Ubuntu-43a" x="77.799988"/>
       <use xlink:href="#Ubuntu-442" x="131.499985"/>
      </g>
     </g>
    </g>
    <g id="xtick_17">
     <g id="line2d_17">
      <g>
       <use xlink:href="#m4e99975fd3" x="505.371948" y="218.196719" style="fill: #aaaaaa; stroke: #aaaaaa; stroke-width: 0.75"/>
      </g>
     </g>
     <g id="text_17">
      <!-- Янв -->
      <g style="fill: #808080" transform="translate(498.296323 233.404219) scale(0.08 -0.08)">
       <use xlink:href="#Ubuntu-42f"/>
       <use xlink:href="#Ubuntu-43d" x="63.499985"/>
       <use xlink:href="#Ubuntu-432" x="122.099976"/>
      </g>
     </g>
    </g>
    <g id="xtick_18">
     <g id="line2d_18">
      <g>
       <use xlink:href="#m4e99975fd3" x="543.905" y="218.196719" style="fill: #aaaaaa; stroke: #aaaaaa; stroke-width: 0.75"/>
      </g>
     </g>
     <g id="text_18">
      <!-- Апр -->
      <g style="fill: #808080" transform="translate(536.585 233.404219) scale(0.08 -0.08)">
       <use xlink:href="#Ubuntu-410"/>
       <use xlink:href="#Ubuntu-43f" x="66.299988"/>
       <use xlink:href="#Ubuntu-440" x="124.099976"/>
      </g>
     </g>
    </g>
   </g>
   <g id="matplotlib.axis_4">
    <g id="ytick_1">
     <g id="line2d_19">
      <defs>
       <path id="m954bfcc6bf" d="M 0 0 
L -3 0 
" style="stroke: #aaaaaa; stroke-width: 0.75"/>
      </defs>
      <g>
       <use xlink:href="#m954bfcc6bf" x="31.705" y="208.196719" style="fill: #aaaaaa; stroke: #aaaaaa; stroke-width: 0.75"/>
      </g>
     </g>
     <g id="text_19">
      <!-- 0.95 -->
      <g style="fill: #808080" transform="translate(7.2 211.300469) scale(0.08 -0.08)">
       <defs>
        <path id="Ubuntu-2e" d="M 1216 346 
Q 1216 173 1101 45 
Q 986 -83 787 -83 
Q 589 -83 473 45 
Q 358 173 358 346 
Q 358 518 473 646 
Q 589 774 787 774 
Q 986 774 1101 646 
Q 1216 518 1216 346 
z
" transform="scale(0.015625)"/>
        <path id="Ubuntu-39" d="M 3206 2662 
Q 3206 1344 2550 669 
Q 1894 -6 602 -13 
L 582 486 
Q 986 486 1309 563 
Q 1632 640 1875 809 
Q 2118 979 2281 1248 
Q 2445 1517 2522 1907 
Q 2355 1830 2144 1782 
Q 1933 1734 1709 1734 
Q 1331 1734 1068 1846 
Q 806 1958 640 2147 
Q 474 2336 400 2582 
Q 326 2829 326 3098 
Q 326 3334 409 3590 
Q 493 3846 662 4057 
Q 832 4269 1094 4403 
Q 1357 4538 1715 4538 
Q 2080 4538 2358 4410 
Q 2637 4282 2825 4038 
Q 3014 3795 3110 3446 
Q 3206 3098 3206 2662 
z
M 1773 2221 
Q 1997 2221 2195 2262 
Q 2394 2304 2579 2387 
Q 2586 2458 2586 2525 
Q 2586 2592 2586 2662 
Q 2586 2938 2547 3190 
Q 2509 3443 2409 3632 
Q 2310 3821 2144 3933 
Q 1978 4045 1722 4045 
Q 1510 4045 1363 3955 
Q 1216 3866 1120 3728 
Q 1024 3590 982 3427 
Q 941 3264 941 3110 
Q 941 2675 1149 2448 
Q 1357 2221 1773 2221 
z
" transform="scale(0.015625)"/>
        <path id="Ubuntu-35" d="M 1274 2726 
Q 2240 2688 2691 2304 
Q 3142 1920 3142 1261 
Q 3142 966 3043 716 
Q 2944 467 2742 288 
Q 2541 109 2233 6 
Q 1926 -96 1504 -96 
Q 1338 -96 1165 -70 
Q 992 -45 845 -6 
Q 698 32 582 70 
Q 467 109 416 134 
L 531 653 
Q 640 602 886 518 
Q 1133 435 1491 435 
Q 1779 435 1974 499 
Q 2170 563 2291 672 
Q 2413 781 2467 925 
Q 2522 1069 2522 1229 
Q 2522 1472 2438 1661 
Q 2355 1850 2144 1978 
Q 1933 2106 1581 2173 
Q 1229 2240 691 2240 
Q 730 2554 752 2829 
Q 774 3104 793 3366 
Q 813 3629 825 3888 
Q 838 4147 851 4435 
L 2989 4435 
L 2989 3930 
L 1370 3930 
Q 1363 3834 1350 3670 
Q 1338 3507 1325 3331 
Q 1312 3155 1299 2988 
Q 1286 2822 1274 2726 
z
" transform="scale(0.015625)"/>
       </defs>
       <use xlink:href="#Ubuntu-30"/>
       <use xlink:href="#Ubuntu-2e" x="56.399994"/>
       <use xlink:href="#Ubuntu-39" x="80.999985"/>
       <use xlink:href="#Ubuntu-35" x="137.399979"/>
      </g>
     </g>
    </g>
    <g id="ytick_2">
     <g id="line2d_20">
      <g>
       <use xlink:href="#m954bfcc6bf" x="31.705" y="174.932719" style="fill: #aaaaaa; stroke: #aaaaaa; stroke-width: 0.75"/>
      </g>
     </g>
     <g id="text_20">
      <!-- 1.05 -->
      <g style="fill: #808080" transform="translate(7.2 178.036469) scale(0.08 -0.08)">
       <use xlink:href="#Ubuntu-31"/>
       <use xlink:href="#Ubuntu-2e" x="56.399994"/>
       <use xlink:href="#Ubuntu-30" x="80.999985"/>
       <use xlink:href="#Ubuntu-35" x="137.399979"/>
      </g>
     </g>
    </g>
    <g id="ytick_3">
     <g id="line2d_21">
      <g>
       <use xlink:href="#m954bfcc6bf" x="31.705" y="141.668719" style="fill: #aaaaaa; stroke: #aaaaaa; stroke-width: 0.75"/>
      </g>
     </g>
     <g id="text_21">
      <!-- 1.15 -->
      <g style="fill: #808080" transform="translate(7.2 144.772469) scale(0.08 -0.08)">
       <use xlink:href="#Ubuntu-31"/>
       <use xlink:href="#Ubuntu-2e" x="56.399994"/>
       <use xlink:href="#Ubuntu-31" x="80.999985"/>
       <use xlink:href="#Ubuntu-35" x="137.399979"/>
      </g>
     </g>
    </g>
    <g id="ytick_4">
     <g id="line2d_22">
      <g>
       <use xlink:href="#m954bfcc6bf" x="31.705" y="108.404719" style="fill: #aaaaaa; stroke: #aaaaaa; stroke-width: 0.75"/>
      </g>
     </g>
     <g id="text_22">
      <!-- 1.25 -->
      <g style="fill: #808080" transform="translate(7.2 111.508469) scale(0.08 -0.08)">
       <use xlink:href="#Ubuntu-31"/>
       <use xlink:href="#Ubuntu-2e" x="56.399994"/>
       <use xlink:href="#Ubuntu-32" x="80.999985"/>
       <use xlink:href="#Ubuntu-35" x="137.399979"/>
      </g>
     </g>
    </g>
    <g id="ytick_5">
     <g id="line2d_23">
      <g>
       <use xlink:href="#m954bfcc6bf" x="31.705" y="75.140719" style="fill: #aaaaaa; stroke: #aaaaaa; stroke-width: 0.75"/>
      </g>
     </g>
     <g id="text_23">
      <!-- 1.35 -->
      <g style="fill: #808080" transform="translate(7.2 78.244469) scale(0.08 -0.08)">
       <use xlink:href="#Ubuntu-31"/>
       <use xlink:href="#Ubuntu-2e" x="56.399994"/>
       <use xlink:href="#Ubuntu-33" x="80.999985"/>
       <use xlink:href="#Ubuntu-35" x="137.399979"/>
      </g>
     </g>
    </g>
    <g id="ytick_6">
     <g id="line2d_24">
      <g>
       <use xlink:href="#m954bfcc6bf" x="31.705" y="41.876719" style="fill: #aaaaaa; stroke: #aaaaaa; stroke-width: 0.75"/>
      </g>
     </g>
     <g id="text_24">
      <!-- 1.45 -->
      <g style="fill: #808080" transform="translate(7.2 44.980469) scale(0.08 -0.08)">
       <use xlink:href="#Ubuntu-31"/>
       <use xlink:href="#Ubuntu-2e" x="56.399994"/>
       <use xlink:href="#Ubuntu-34" x="80.999985"/>
       <use xlink:href="#Ubuntu-35" x="137.399979"/>
      </g>
     </g>
    </g>
   </g>
   <g id="line2d_25">
    <path d="M 41.705 191.564719 
L 49.678137 190.746376 
L 56.056647 190.320613 
L 60.840529 190.196458 
L 65.624411 190.283615 
L 70.408293 190.621486 
L 75.192175 191.246306 
L 79.976058 192.191953 
L 84.75994 193.455094 
L 92.733077 195.711723 
L 97.516959 196.787175 
L 103.895469 197.895897 
L 111.868605 199.065762 
L 116.652488 199.537102 
L 119.841742 199.656962 
L 123.030997 199.588721 
L 126.220252 199.3515 
L 131.004134 198.731422 
L 135.788016 197.8254 
L 138.977271 196.945739 
L 142.166526 195.714467 
L 143.761153 194.931787 
L 145.355781 194.019221 
L 148.545036 191.819694 
L 151.73429 189.247745 
L 158.1128 183.61464 
L 164.49131 178.126831 
L 170.869819 172.976365 
L 182.032211 164.284252 
L 186.816093 160.144875 
L 191.599975 155.612704 
L 196.383858 150.743824 
L 204.356995 142.44036 
L 207.546249 139.49875 
L 210.735504 137.022557 
L 213.924759 135.020123 
L 217.114014 133.333163 
L 233.060288 125.574292 
L 236.249543 124.324992 
L 239.438797 123.332254 
L 242.628052 122.562237 
L 245.817307 121.976033 
L 250.601189 121.362956 
L 253.790444 121.128167 
L 256.979699 121.061434 
L 260.168953 121.188894 
L 264.952836 121.730722 
L 269.736718 122.301201 
L 272.925973 122.427436 
L 276.115227 122.184749 
L 279.304482 121.625194 
L 296.845384 117.743648 
L 300.034638 116.634184 
L 303.223893 115.172284 
L 309.602403 111.994628 
L 312.791658 110.729745 
L 315.980912 109.864239 
L 323.954049 108.07188 
L 327.143304 106.888407 
L 331.927186 104.595047 
L 335.116441 103.115914 
L 336.711069 102.494237 
L 338.305696 101.996888 
L 339.900323 101.644596 
L 343.089578 101.306444 
L 346.278833 101.312102 
L 362.225107 102.151411 
L 365.414362 102.506047 
L 368.603617 103.102418 
L 371.792871 104.081559 
L 373.387499 104.759301 
L 374.982126 105.586294 
L 376.576754 106.580392 
L 378.171381 107.756999 
L 379.766008 109.11794 
L 381.360636 110.66036 
L 382.955263 112.381402 
L 384.549891 114.278205 
L 387.739145 118.587664 
L 390.9284 123.562769 
L 394.117655 129.060873 
L 402.090792 143.15612 
L 405.280047 148.176661 
L 408.469301 152.650982 
L 411.658556 156.599926 
L 414.847811 160.044469 
L 418.037066 163.000798 
L 421.226321 165.452329 
L 422.820948 166.47933 
L 424.415575 167.368764 
L 426.010203 168.116838 
L 427.60483 168.719758 
L 429.199458 169.174387 
L 430.794085 169.488751 
L 433.98334 169.766524 
L 437.172595 169.694201 
L 441.956477 169.237802 
L 445.145732 168.799861 
L 448.334986 168.080235 
L 449.929614 167.551769 
L 451.524241 166.877256 
L 453.118869 166.031487 
L 454.713496 164.989705 
L 456.308123 163.744139 
L 457.902751 162.30877 
L 459.497378 160.699003 
L 462.686633 157.017892 
L 465.875888 152.824045 
L 470.65977 145.900929 
L 473.849025 141.287811 
L 477.03828 137.084664 
L 478.632907 135.24636 
L 480.227534 133.641746 
L 481.822162 132.283304 
L 483.416789 131.122007 
L 486.606044 129.165816 
L 489.795299 127.323117 
L 491.389926 126.303686 
L 492.984554 125.143922 
L 494.579181 123.8112 
L 497.768436 120.739377 
L 507.3362 110.779878 
L 508.930828 109.37706 
L 510.525455 108.140551 
L 512.120082 107.105169 
L 513.71471 106.305735 
L 515.309337 105.777067 
L 516.903965 105.553985 
L 518.498592 105.671309 
L 518.498592 105.671309 
" clip-path="url(#pffc140f2f8)" style="fill: none; stroke-dasharray: 5.55,2.4; stroke-dashoffset: 0; stroke: #5d5d5d; stroke-width: 1.5"/>
   </g>
   <g id="line2d_26">
    <path d="M 41.705 191.564719 
L 44.894255 191.918257 
L 48.08351 191.976451 
L 51.272764 191.804625 
L 56.056647 191.25849 
L 67.219038 189.781475 
L 72.002921 189.530299 
L 83.165312 189.227407 
L 87.949195 188.801573 
L 92.733077 188.104671 
L 99.111586 186.803467 
L 103.895469 185.890517 
L 107.084723 185.492645 
L 111.868605 185.257327 
L 118.247115 185.072468 
L 121.43637 184.797946 
L 126.220252 184.098584 
L 132.598762 182.848102 
L 137.382644 181.771957 
L 140.571899 180.914829 
L 143.761153 179.879148 
L 146.950408 178.615476 
L 151.73429 176.39399 
L 159.707427 172.598171 
L 164.49131 170.415777 
L 167.680564 168.758817 
L 170.869819 166.76833 
L 174.059074 164.404567 
L 178.842956 160.801645 
L 180.437584 159.758443 
L 182.032211 158.866229 
L 183.626838 158.168246 
L 185.221466 157.687222 
L 186.816093 157.386358 
L 190.005348 157.134972 
L 194.78923 156.920721 
L 196.383858 156.702585 
L 197.978485 156.338949 
L 199.573112 155.815489 
L 201.16774 155.123908 
L 202.762367 154.255907 
L 204.356995 153.203188 
L 205.951622 151.95745 
L 207.546249 150.510397 
L 209.140877 148.853728 
L 210.735504 146.985826 
L 213.924759 142.744805 
L 218.708641 135.705973 
L 223.492523 128.788844 
L 226.681778 124.67239 
L 229.871033 121.101614 
L 231.46566 119.555077 
L 233.060288 118.186025 
L 234.654915 117.008148 
L 236.249543 116.03191 
L 237.84417 115.242677 
L 239.438797 114.614039 
L 242.628052 113.732646 
L 245.817307 113.175925 
L 255.385071 111.948143 
L 258.574326 111.732808 
L 261.763581 111.729441 
L 264.952836 111.94278 
L 274.5206 112.817813 
L 279.304482 112.869467 
L 287.277619 112.851559 
L 293.656129 113.198365 
L 298.440011 113.432368 
L 303.223893 113.409376 
L 311.19703 113.002014 
L 319.170167 112.698396 
L 327.143304 112.397842 
L 330.332559 112.140736 
L 333.521814 111.668327 
L 336.711069 110.875427 
L 339.900323 109.667538 
L 343.089578 108.132631 
L 347.87346 105.745582 
L 351.062715 104.455985 
L 354.25197 103.625924 
L 357.441225 103.180058 
L 360.63048 102.984836 
L 373.387499 102.729094 
L 379.766008 102.810062 
L 384.549891 103.118768 
L 387.739145 103.49995 
L 390.9284 104.056315 
L 395.712282 105.171544 
L 405.280047 107.532652 
L 411.658556 108.776045 
L 422.820948 110.698538 
L 427.60483 111.256521 
L 430.794085 111.434949 
L 435.577967 111.46584 
L 449.929614 111.157945 
L 453.118869 110.871212 
L 456.308123 110.363847 
L 459.497378 109.647202 
L 464.28126 108.303271 
L 485.011417 102.01962 
L 491.389926 100.172351 
L 496.173808 98.56827 
L 510.525455 93.504228 
L 513.71471 92.626366 
L 516.903965 91.93961 
L 518.498592 91.682481 
L 518.498592 91.682481 
" clip-path="url(#pffc140f2f8)" style="fill: none; stroke: #5d5d5d; stroke-opacity: 0.95; stroke-width: 1.25; stroke-linecap: square"/>
   </g>
   <g id="line2d_27">
    <path d="M 41.705 191.564719 
L 46.488882 191.242538 
L 51.272764 190.697664 
L 59.245901 189.529378 
L 67.219038 188.382624 
L 76.786803 187.334194 
L 83.165312 186.499865 
L 94.327704 184.875734 
L 99.111586 184.436638 
L 107.084723 183.97064 
L 115.05786 183.486695 
L 119.841742 182.97492 
L 124.625625 182.202262 
L 129.409507 181.211764 
L 135.788016 179.654123 
L 145.355781 177.050025 
L 150.139663 175.638276 
L 153.328918 174.508178 
L 156.518173 173.111718 
L 159.707427 171.357464 
L 162.896682 169.249646 
L 166.085937 166.859614 
L 170.869819 162.90453 
L 186.816093 149.202485 
L 191.599975 145.611425 
L 196.383858 142.395169 
L 201.16774 139.390786 
L 204.356995 137.054938 
L 205.951622 135.662229 
L 207.546249 134.064149 
L 209.140877 132.219062 
L 210.735504 130.098125 
L 213.924759 125.171833 
L 217.114014 119.659993 
L 223.492523 108.446716 
L 226.681778 103.439222 
L 228.276406 101.186793 
L 229.871033 99.134585 
L 231.46566 97.307103 
L 233.060288 95.728855 
L 234.654915 94.424346 
L 236.249543 93.412467 
L 237.84417 92.66835 
L 239.438797 92.14661 
L 241.033425 91.801745 
L 244.22268 91.460626 
L 249.006562 91.141642 
L 253.790444 90.493442 
L 258.574326 89.892107 
L 261.763581 89.765773 
L 264.952836 89.939929 
L 269.736718 90.549886 
L 276.115227 91.444255 
L 280.89911 91.90796 
L 287.277619 92.287311 
L 292.061501 92.385709 
L 295.250756 92.27988 
L 298.440011 91.971452 
L 301.629266 91.41832 
L 308.007775 90.101153 
L 311.19703 89.73677 
L 312.791658 89.715606 
L 315.980912 90.01666 
L 320.764795 90.937403 
L 323.954049 91.549526 
L 327.143304 91.920122 
L 330.332559 92.010523 
L 335.116441 91.810023 
L 344.684206 91.248309 
L 347.87346 91.252185 
L 351.062715 91.44008 
L 355.846597 92.075875 
L 362.225107 92.998522 
L 365.414362 93.212469 
L 368.603617 93.209741 
L 378.171381 92.953875 
L 382.955263 93.206765 
L 387.739145 93.749061 
L 394.117655 94.782787 
L 398.901537 95.499627 
L 402.090792 95.78094 
L 405.280047 95.826258 
L 413.253184 95.682043 
L 416.442438 95.93511 
L 419.631693 96.484107 
L 427.60483 98.162853 
L 430.794085 98.551871 
L 433.98334 98.713885 
L 438.767222 98.699943 
L 446.740359 98.475469 
L 449.929614 98.194598 
L 453.118869 97.649501 
L 456.308123 96.746531 
L 459.497378 95.51192 
L 462.686633 94.04211 
L 469.065143 90.780902 
L 478.632907 85.674239 
L 486.606044 81.125177 
L 497.768436 74.718931 
L 504.146945 71.332949 
L 508.930828 69.033452 
L 513.71471 67.005438 
L 516.903965 65.833487 
L 518.498592 65.308107 
L 518.498592 65.308107 
" clip-path="url(#pffc140f2f8)" style="fill: none; stroke: #af5a51; stroke-opacity: 0.95; stroke-width: 1.25; stroke-linecap: square"/>
   </g>
   <g id="line2d_28">
    <path d="M 41.705 191.564719 
L 48.08351 190.289352 
L 59.245901 187.954013 
L 64.029784 187.197318 
L 67.219038 186.855521 
L 72.002921 186.617306 
L 81.570685 186.333504 
L 87.949195 185.774616 
L 94.327704 185.240921 
L 100.706214 185.010557 
L 115.05786 184.725249 
L 119.841742 184.401952 
L 124.625625 183.868085 
L 131.004134 182.909807 
L 140.571899 181.195091 
L 150.139663 179.302856 
L 153.328918 178.501556 
L 156.518173 177.491883 
L 159.707427 176.206997 
L 170.869819 171.144508 
L 180.437584 167.835249 
L 182.032211 167.008014 
L 183.626838 166.004066 
L 185.221466 164.807328 
L 188.410721 162.021557 
L 193.194603 157.681448 
L 194.78923 156.410169 
L 196.383858 155.317635 
L 197.978485 154.435107 
L 201.16774 153.060622 
L 204.356995 151.708511 
L 205.951622 150.853952 
L 207.546249 149.780712 
L 209.140877 148.414034 
L 210.735504 146.699618 
L 212.330132 144.679425 
L 215.519386 140.002711 
L 221.897896 130.071081 
L 225.087151 125.838582 
L 228.276406 122.210607 
L 231.46566 118.996945 
L 237.84417 113.089418 
L 241.033425 110.300649 
L 244.22268 107.770864 
L 247.411934 105.62995 
L 249.006562 104.744813 
L 250.601189 103.992177 
L 252.195816 103.369375 
L 253.790444 102.873655 
L 255.385071 102.502267 
L 256.979699 102.252461 
L 258.574326 102.121484 
L 260.168953 102.106587 
L 263.358208 102.394891 
L 272.925973 103.849298 
L 274.5206 103.867568 
L 277.709855 103.585479 
L 282.493737 102.717636 
L 287.277619 101.88562 
L 290.466874 101.603446 
L 293.656129 101.554602 
L 296.845384 101.719495 
L 300.034638 102.078441 
L 306.413148 103.151352 
L 311.19703 103.866507 
L 314.386285 104.110678 
L 317.57554 104.140409 
L 322.359422 103.88361 
L 328.737932 103.210251 
L 333.521814 102.505165 
L 338.305696 101.562866 
L 343.089578 100.357582 
L 359.035852 95.981527 
L 362.225107 95.353696 
L 365.414362 94.907883 
L 368.603617 94.64707 
L 373.387499 94.520234 
L 379.766008 94.637821 
L 387.739145 94.784691 
L 392.523027 94.635276 
L 400.496164 94.304917 
L 403.685419 94.389964 
L 406.874674 94.671409 
L 411.658556 95.356135 
L 422.820948 97.369322 
L 437.172595 100.016618 
L 440.361849 100.245233 
L 443.551104 100.158105 
L 446.740359 99.814226 
L 456.308123 98.551265 
L 467.470515 97.655641 
L 470.65977 97.108873 
L 473.849025 96.339479 
L 477.03828 95.329234 
L 480.227534 94.059974 
L 485.011417 91.781979 
L 488.200671 90.274499 
L 491.389926 89.00372 
L 492.984554 88.518071 
L 496.173808 87.900721 
L 499.363063 87.660635 
L 502.552318 87.671606 
L 512.120082 87.948808 
L 515.309337 87.701953 
L 518.498592 87.075127 
L 518.498592 87.075127 
" clip-path="url(#pffc140f2f8)" style="fill: none; stroke: #608eb4; stroke-width: 1.25; stroke-linecap: square"/>
   </g>
   <g id="line2d_29">
    <path d="M 41.705 191.564719 
L 44.894255 191.488071 
L 49.678137 191.078258 
L 64.029784 189.49869 
L 67.219038 189.43746 
L 70.408293 189.580023 
L 78.38143 190.171318 
L 81.570685 190.174028 
L 84.75994 189.939089 
L 89.543822 189.297371 
L 100.706214 187.632035 
L 121.43637 184.948335 
L 127.814879 184.078671 
L 132.598762 183.151448 
L 135.788016 182.324791 
L 138.977271 181.317925 
L 142.166526 180.126437 
L 145.355781 178.74597 
L 150.139663 176.358912 
L 159.707427 171.112452 
L 172.464447 164.049701 
L 177.248329 161.393857 
L 180.437584 159.865035 
L 183.626838 158.685917 
L 186.816093 157.918446 
L 194.78923 156.484695 
L 196.383858 156.045808 
L 197.978485 155.490676 
L 199.573112 154.804361 
L 201.16774 153.974552 
L 202.762367 152.988935 
L 204.356995 151.835198 
L 205.951622 150.501028 
L 207.546249 148.974114 
L 209.140877 147.242142 
L 210.735504 145.300067 
L 213.924759 140.912279 
L 218.708641 133.659583 
L 223.492523 126.539172 
L 226.681778 122.271103 
L 229.871033 118.481927 
L 233.060288 115.230099 
L 234.654915 113.823958 
L 236.249543 112.572604 
L 237.84417 111.470434 
L 241.033425 109.669728 
L 244.22268 108.333855 
L 247.411934 107.374797 
L 250.601189 106.71434 
L 253.790444 106.335856 
L 256.979699 106.246578 
L 260.168953 106.453794 
L 263.358208 106.954465 
L 268.14209 108.077806 
L 274.5206 109.699436 
L 279.304482 110.625341 
L 282.493737 111.059768 
L 285.682992 111.3397 
L 290.466874 111.482267 
L 298.440011 111.547999 
L 303.223893 111.883519 
L 309.602403 112.396444 
L 312.791658 112.431377 
L 315.980912 112.233075 
L 323.954049 111.515091 
L 327.143304 111.493669 
L 331.927186 111.814026 
L 338.305696 112.289232 
L 341.494951 112.318885 
L 346.278833 112.1382 
L 363.819734 111.070638 
L 373.387499 109.954262 
L 376.576754 109.915965 
L 379.766008 110.227036 
L 382.955263 110.796033 
L 390.9284 112.392507 
L 397.30691 113.217282 
L 402.090792 113.939962 
L 405.280047 114.642094 
L 414.847811 116.983142 
L 418.037066 117.453616 
L 422.820948 117.850064 
L 429.199458 118.350697 
L 435.577967 119.224443 
L 440.361849 119.843532 
L 443.551104 120.09515 
L 446.740359 120.179427 
L 449.929614 120.095251 
L 453.118869 119.84173 
L 457.902751 119.158628 
L 464.28126 117.922338 
L 480.227534 114.684009 
L 485.011417 113.275809 
L 491.389926 111.078945 
L 504.146945 106.557229 
L 510.525455 104.555994 
L 515.309337 103.282264 
L 518.498592 102.573746 
L 518.498592 102.573746 
" clip-path="url(#pffc140f2f8)" style="fill: none; stroke: #489079; stroke-width: 1.25; stroke-linecap: square"/>
   </g>
   <g id="line2d_30">
    <path d="M 41.705 191.564719 
L 44.894255 190.531012 
L 48.08351 189.808312 
L 51.272764 189.323917 
L 56.056647 188.885113 
L 65.624411 188.143866 
L 68.813666 187.672551 
L 73.597548 186.684769 
L 81.570685 184.978041 
L 86.354567 184.256688 
L 94.327704 183.376842 
L 131.004134 179.592796 
L 134.193389 179.025335 
L 137.382644 178.295246 
L 142.166526 176.915508 
L 146.950408 175.225309 
L 161.302055 169.72454 
L 174.059074 165.57893 
L 178.842956 164.148932 
L 182.032211 163.414596 
L 185.221466 162.953187 
L 188.410721 162.749233 
L 194.78923 162.706926 
L 197.978485 162.657211 
L 201.16774 162.364677 
L 202.762367 162.044572 
L 204.356995 161.56379 
L 205.951622 160.888746 
L 207.546249 159.985852 
L 209.140877 158.82152 
L 210.735504 157.371614 
L 212.330132 155.656466 
L 213.924759 153.709475 
L 217.114014 149.253574 
L 220.303269 144.271123 
L 229.871033 128.719488 
L 233.060288 124.091005 
L 234.654915 122.003836 
L 236.249543 120.101643 
L 237.84417 118.387098 
L 239.438797 116.852633 
L 241.033425 115.490626 
L 242.628052 114.293451 
L 244.22268 113.253485 
L 245.817307 112.363104 
L 247.411934 111.614681 
L 249.006562 111.000215 
L 252.195816 110.123313 
L 255.385071 109.621236 
L 258.574326 109.38043 
L 263.358208 109.268355 
L 279.304482 109.136567 
L 282.493737 108.896502 
L 285.682992 108.478262 
L 288.872247 107.845844 
L 296.845384 106.055521 
L 300.034638 105.665802 
L 303.223893 105.601304 
L 311.19703 105.748196 
L 314.386285 105.44687 
L 317.57554 104.88261 
L 323.954049 103.646494 
L 327.143304 103.307587 
L 331.927186 103.1934 
L 336.711069 103.147159 
L 339.900323 102.928789 
L 343.089578 102.452632 
L 346.278833 101.67386 
L 349.468088 100.548902 
L 352.657343 99.043417 
L 359.035852 95.678894 
L 360.63048 95.005467 
L 362.225107 94.482826 
L 363.819734 94.152823 
L 365.414362 94.043353 
L 367.008989 94.121749 
L 370.198244 94.645811 
L 374.982126 95.613841 
L 376.576754 95.788704 
L 378.171381 95.817962 
L 381.360636 95.527176 
L 387.739145 94.566843 
L 389.333773 94.460057 
L 390.9284 94.474115 
L 394.117655 94.823709 
L 397.30691 95.452057 
L 403.685419 96.826381 
L 406.874674 97.296097 
L 411.658556 97.707556 
L 416.442438 97.844835 
L 426.010203 97.973917 
L 429.199458 98.257146 
L 433.98334 98.983786 
L 438.767222 99.699144 
L 441.956477 99.949865 
L 445.145732 99.935964 
L 449.929614 99.591936 
L 457.902751 98.902855 
L 464.28126 98.613142 
L 480.227534 98.187557 
L 485.011417 97.706735 
L 502.552318 95.425963 
L 507.3362 94.571815 
L 510.525455 93.819949 
L 513.71471 92.873146 
L 516.903965 91.689415 
L 518.498592 90.99558 
L 518.498592 90.99558 
" clip-path="url(#pffc140f2f8)" style="fill: none; stroke: #eea92b; stroke-opacity: 0.95; stroke-width: 1.25; stroke-linecap: square"/>
   </g>
   <g id="line2d_31">
    <path d="M 41.705 191.564719 
L 51.272764 190.603518 
L 59.245901 190.043062 
L 65.624411 189.801029 
L 73.597548 189.772756 
L 81.570685 189.742968 
L 97.516959 189.440727 
L 102.300841 189.358128 
L 105.490096 189.109338 
L 108.679351 188.622791 
L 118.247115 186.740906 
L 121.43637 186.416405 
L 131.004134 185.898156 
L 134.193389 185.394291 
L 137.382644 184.633212 
L 142.166526 183.179674 
L 154.923545 178.840714 
L 161.302055 176.448658 
L 170.869819 172.567968 
L 175.653701 170.531791 
L 178.842956 169.001797 
L 182.032211 167.220595 
L 185.221466 165.100136 
L 196.383858 157.005026 
L 199.573112 155.29635 
L 204.356995 152.840363 
L 205.951622 151.865344 
L 207.546249 150.735104 
L 209.140877 149.40342 
L 210.735504 147.837014 
L 213.924759 144.12853 
L 218.708641 137.809913 
L 221.897896 133.625031 
L 225.087151 129.840747 
L 228.276406 126.54654 
L 231.46566 123.762036 
L 234.654915 121.506842 
L 237.84417 119.785949 
L 241.033425 118.523308 
L 244.22268 117.614941 
L 247.411934 116.956845 
L 252.195816 116.269462 
L 255.385071 116.029621 
L 258.574326 116.007686 
L 261.763581 116.239932 
L 264.952836 116.708108 
L 274.5206 118.414978 
L 277.709855 118.74622 
L 282.493737 118.97023 
L 287.277619 118.959307 
L 303.223893 118.687344 
L 311.19703 118.989124 
L 319.170167 119.248775 
L 322.359422 119.178854 
L 325.548677 118.924102 
L 330.332559 118.228335 
L 333.521814 117.777657 
L 336.711069 117.536883 
L 339.900323 117.665622 
L 343.089578 118.130928 
L 349.468088 119.288858 
L 352.657343 119.591031 
L 355.846597 119.621033 
L 365.414362 119.415412 
L 376.576754 119.859728 
L 379.766008 119.653649 
L 389.333773 118.745269 
L 392.523027 118.777278 
L 395.712282 119.050083 
L 398.901537 119.517836 
L 403.685419 120.484457 
L 414.847811 122.956169 
L 419.631693 123.615848 
L 427.60483 124.525862 
L 433.98334 125.63301 
L 437.172595 126.109878 
L 440.361849 126.335555 
L 443.551104 126.185013 
L 448.334986 125.505885 
L 451.524241 125.066078 
L 454.713496 124.888958 
L 457.902751 125.063578 
L 464.28126 125.660353 
L 467.470515 125.622317 
L 470.65977 125.160665 
L 473.849025 124.419046 
L 480.227534 122.832956 
L 483.416789 122.29135 
L 489.795299 121.541374 
L 494.579181 120.89819 
L 500.957691 119.73337 
L 507.3362 118.593634 
L 510.525455 118.171584 
L 513.71471 117.921899 
L 516.903965 117.899944 
L 518.498592 117.991666 
L 518.498592 117.991666 
" clip-path="url(#pffc140f2f8)" style="fill: none; stroke: #676391; stroke-width: 1.25; stroke-linecap: square"/>
   </g>
   <g id="patch_4">
    <path d="M 31.705 208.196719 
L 31.705 41.876719 
" style="fill: none; stroke: #aaaaaa; stroke-width: 0.75; stroke-linejoin: miter; stroke-linecap: square"/>
   </g>
   <g id="patch_5">
    <path d="M 41.705 218.196719 
L 543.905 218.196719 
" style="fill: none; stroke: #aaaaaa; stroke-width: 0.75; stroke-linejoin: miter; stroke-linecap: square"/>
   </g>
   <g id="legend_1">
    <g id="line2d_32">
     <path d="M 49.805 14.633438 
L 58.805 14.633438 
L 67.805 14.633438 
" style="fill: none; stroke-dasharray: 5.55,2.4; stroke-dashoffset: 0; stroke: #5d5d5d; stroke-width: 1.5"/>
    </g>
    <g id="text_25">
     <!-- Сырое молоко -->
     <g style="fill: #4b4b4b" transform="translate(75.005 17.783438) scale(0.09 -0.09)">
      <defs>
       <path id="Ubuntu-421" d="M 2458 -96 
Q 1990 -96 1606 57 
Q 1222 211 947 505 
Q 672 800 521 1232 
Q 371 1664 371 2221 
Q 371 2778 540 3210 
Q 710 3642 998 3936 
Q 1286 4230 1670 4384 
Q 2054 4538 2490 4538 
Q 2765 4538 2985 4499 
Q 3206 4461 3369 4409 
Q 3533 4358 3635 4307 
Q 3738 4256 3776 4230 
L 3597 3718 
Q 3539 3757 3430 3801 
Q 3322 3846 3184 3891 
Q 3046 3936 2883 3965 
Q 2720 3994 2554 3994 
Q 2202 3994 1920 3872 
Q 1638 3750 1440 3520 
Q 1242 3290 1136 2960 
Q 1030 2630 1030 2221 
Q 1030 1824 1123 1497 
Q 1216 1171 1401 937 
Q 1587 704 1865 576 
Q 2144 448 2515 448 
Q 2944 448 3225 537 
Q 3507 627 3648 698 
L 3808 186 
Q 3763 154 3648 106 
Q 3533 58 3360 13 
Q 3187 -32 2956 -64 
Q 2726 -96 2458 -96 
z
" transform="scale(0.015625)"/>
       <path id="Ubuntu-44b" d="M 1734 1645 
Q 1562 1645 1398 1635 
Q 1235 1626 1107 1594 
L 1107 448 
Q 1146 442 1219 435 
Q 1293 429 1379 425 
Q 1466 422 1555 419 
Q 1645 416 1715 416 
Q 2106 416 2317 563 
Q 2528 710 2528 1037 
Q 2528 1197 2461 1312 
Q 2394 1427 2282 1500 
Q 2170 1574 2029 1609 
Q 1888 1645 1734 1645 
z
M 512 3328 
L 1107 3328 
L 1107 2054 
Q 1216 2080 1424 2105 
Q 1632 2131 1824 2131 
Q 2086 2131 2323 2070 
Q 2560 2010 2739 1878 
Q 2918 1747 3024 1539 
Q 3130 1331 3130 1043 
Q 3130 742 3027 531 
Q 2925 320 2739 185 
Q 2554 51 2291 -9 
Q 2029 -70 1715 -70 
Q 1414 -70 1107 -35 
Q 800 0 512 70 
L 512 3328 
z
M 4339 0 
L 3744 0 
L 3744 3328 
L 4339 3328 
L 4339 0 
z
" transform="scale(0.015625)"/>
       <path id="Ubuntu-43e" d="M 3450 1664 
Q 3450 1267 3334 947 
Q 3219 627 3011 396 
Q 2803 166 2515 41 
Q 2227 -83 1888 -83 
Q 1549 -83 1261 41 
Q 973 166 765 396 
Q 557 627 441 947 
Q 326 1267 326 1664 
Q 326 2054 441 2377 
Q 557 2701 765 2931 
Q 973 3162 1261 3286 
Q 1549 3411 1888 3411 
Q 2227 3411 2515 3286 
Q 2803 3162 3011 2931 
Q 3219 2701 3334 2377 
Q 3450 2054 3450 1664 
z
M 2829 1664 
Q 2829 2227 2576 2556 
Q 2323 2886 1888 2886 
Q 1453 2886 1200 2556 
Q 947 2227 947 1664 
Q 947 1101 1200 771 
Q 1453 442 1888 442 
Q 2323 442 2576 771 
Q 2829 1101 2829 1664 
z
" transform="scale(0.015625)"/>
       <path id="Ubuntu-435" d="M 326 1658 
Q 326 2099 454 2428 
Q 582 2758 793 2976 
Q 1005 3194 1280 3302 
Q 1555 3411 1843 3411 
Q 2515 3411 2873 2992 
Q 3232 2573 3232 1715 
Q 3232 1677 3232 1616 
Q 3232 1555 3226 1504 
L 947 1504 
Q 986 986 1248 717 
Q 1510 448 2067 448 
Q 2381 448 2595 502 
Q 2810 557 2918 608 
L 3002 109 
Q 2893 51 2621 -13 
Q 2349 -77 2003 -77 
Q 1568 -77 1251 54 
Q 934 186 729 416 
Q 525 646 425 963 
Q 326 1280 326 1658 
z
M 2611 1984 
Q 2618 2387 2410 2646 
Q 2202 2906 1837 2906 
Q 1632 2906 1475 2826 
Q 1318 2746 1209 2618 
Q 1101 2490 1040 2323 
Q 979 2157 960 1984 
L 2611 1984 
z
" transform="scale(0.015625)"/>
       <path id="Ubuntu-20" transform="scale(0.015625)"/>
       <path id="Ubuntu-43c" d="M 1146 2451 
Q 1082 1818 1050 1187 
Q 1018 557 998 0 
L 429 0 
Q 442 390 467 816 
Q 493 1242 525 1674 
Q 557 2106 595 2525 
Q 634 2944 678 3328 
L 1222 3328 
Q 1427 2995 1702 2416 
Q 1978 1837 2336 1082 
Q 2694 1837 2969 2416 
Q 3245 2995 3450 3328 
L 4000 3328 
Q 4045 2944 4083 2525 
Q 4122 2106 4154 1674 
Q 4186 1242 4211 816 
Q 4237 390 4250 0 
L 3661 0 
Q 3642 557 3610 1187 
Q 3578 1818 3514 2451 
Q 3411 2253 3276 1974 
Q 3142 1696 3011 1408 
Q 2880 1120 2765 857 
Q 2650 595 2586 442 
L 2086 442 
Q 2016 602 1897 864 
Q 1779 1126 1648 1417 
Q 1517 1709 1382 1987 
Q 1248 2266 1146 2451 
z
" transform="scale(0.015625)"/>
      </defs>
      <use xlink:href="#Ubuntu-421"/>
      <use xlink:href="#Ubuntu-44b" x="61.999985"/>
      <use xlink:href="#Ubuntu-440" x="137.799973"/>
      <use xlink:href="#Ubuntu-43e" x="196.699966"/>
      <use xlink:href="#Ubuntu-435" x="255.699951"/>
      <use xlink:href="#Ubuntu-20" x="311.599945"/>
      <use xlink:href="#Ubuntu-43c" x="334.699936"/>
      <use xlink:href="#Ubuntu-43e" x="407.799927"/>
      <use xlink:href="#Ubuntu-43b" x="466.799911"/>
      <use xlink:href="#Ubuntu-43e" x="526.599899"/>
      <use xlink:href="#Ubuntu-43a" x="585.599884"/>
      <use xlink:href="#Ubuntu-43e" x="636.424881"/>
     </g>
    </g>
    <g id="line2d_33">
     <path d="M 49.805 27.781875 
L 58.805 27.781875 
L 67.805 27.781875 
" style="fill: none; stroke: #5d5d5d; stroke-opacity: 0.95; stroke-width: 1.25; stroke-linecap: square"/>
    </g>
    <g id="text_26">
     <!-- Пастеризованное молоко -->
     <g style="fill: #4b4b4b" transform="translate(75.005 30.931875) scale(0.09 -0.09)">
      <defs>
       <path id="Ubuntu-41f" d="M 3923 4435 
L 3923 0 
L 3302 0 
L 3302 3904 
L 1171 3904 
L 1171 0 
L 550 0 
L 550 4435 
L 3923 4435 
z
" transform="scale(0.015625)"/>
       <path id="Ubuntu-430" d="M 1638 429 
Q 1850 429 2013 438 
Q 2176 448 2285 474 
L 2285 1466 
Q 2221 1498 2077 1520 
Q 1933 1542 1728 1542 
Q 1594 1542 1443 1523 
Q 1293 1504 1168 1443 
Q 1043 1382 960 1276 
Q 877 1171 877 998 
Q 877 678 1081 553 
Q 1286 429 1638 429 
z
M 1587 3411 
Q 1946 3411 2192 3318 
Q 2438 3226 2588 3056 
Q 2739 2886 2803 2652 
Q 2867 2419 2867 2138 
L 2867 58 
Q 2790 45 2652 22 
Q 2515 0 2342 -19 
Q 2170 -38 1968 -54 
Q 1766 -70 1568 -70 
Q 1286 -70 1049 -12 
Q 813 45 640 169 
Q 467 294 371 499 
Q 275 704 275 992 
Q 275 1267 387 1465 
Q 499 1664 691 1785 
Q 883 1907 1139 1964 
Q 1395 2022 1677 2022 
Q 1766 2022 1862 2012 
Q 1958 2003 2044 1987 
Q 2131 1971 2195 1958 
Q 2259 1946 2285 1939 
L 2285 2106 
Q 2285 2253 2253 2397 
Q 2221 2541 2137 2653 
Q 2054 2765 1910 2832 
Q 1766 2899 1536 2899 
Q 1242 2899 1021 2857 
Q 800 2816 691 2771 
L 621 3264 
Q 736 3315 1005 3363 
Q 1274 3411 1587 3411 
z
" transform="scale(0.015625)"/>
       <path id="Ubuntu-441" d="M 1958 -77 
Q 1555 -77 1251 51 
Q 947 179 739 409 
Q 531 640 428 957 
Q 326 1274 326 1658 
Q 326 2042 438 2362 
Q 550 2682 755 2915 
Q 960 3149 1257 3280 
Q 1555 3411 1920 3411 
Q 2144 3411 2368 3372 
Q 2592 3334 2797 3251 
L 2662 2746 
Q 2528 2810 2352 2848 
Q 2176 2886 1978 2886 
Q 1478 2886 1212 2572 
Q 947 2259 947 1658 
Q 947 1389 1008 1165 
Q 1069 941 1200 781 
Q 1331 621 1536 534 
Q 1741 448 2035 448 
Q 2272 448 2464 493 
Q 2656 538 2765 589 
L 2848 90 
Q 2797 58 2701 29 
Q 2605 0 2483 -22 
Q 2362 -45 2224 -61 
Q 2086 -77 1958 -77 
z
" transform="scale(0.015625)"/>
       <path id="Ubuntu-438" d="M 3309 3328 
L 3309 0 
L 2733 0 
L 2733 2534 
Q 2541 2291 2310 1964 
Q 2080 1638 1849 1289 
Q 1619 941 1408 601 
Q 1197 262 1043 0 
L 512 0 
L 512 3328 
L 1088 3328 
L 1088 934 
Q 1254 1210 1465 1539 
Q 1677 1869 1904 2192 
Q 2131 2515 2358 2812 
Q 2586 3110 2784 3328 
L 3309 3328 
z
" transform="scale(0.015625)"/>
       <path id="Ubuntu-437" d="M 1357 3411 
Q 1645 3411 1894 3353 
Q 2144 3296 2323 3181 
Q 2502 3066 2604 2893 
Q 2707 2720 2707 2490 
Q 2707 2342 2656 2220 
Q 2605 2099 2528 2003 
Q 2451 1907 2358 1840 
Q 2266 1773 2182 1747 
Q 2477 1658 2646 1430 
Q 2816 1203 2816 858 
Q 2816 384 2432 153 
Q 2048 -77 1389 -77 
Q 986 -77 694 -13 
Q 403 51 282 109 
L 384 614 
Q 486 576 752 509 
Q 1018 442 1389 442 
Q 1792 442 2003 566 
Q 2214 691 2214 941 
Q 2214 1120 2134 1232 
Q 2054 1344 1932 1401 
Q 1811 1459 1670 1478 
Q 1530 1498 1408 1498 
L 851 1498 
L 851 1971 
L 1389 1971 
Q 1504 1971 1629 1987 
Q 1754 2003 1859 2054 
Q 1965 2106 2035 2198 
Q 2106 2291 2106 2445 
Q 2106 2566 2045 2652 
Q 1984 2739 1881 2796 
Q 1779 2854 1641 2883 
Q 1504 2912 1357 2912 
Q 1242 2912 1107 2893 
Q 973 2874 845 2845 
Q 717 2816 614 2784 
Q 512 2752 467 2726 
L 358 3238 
Q 410 3258 518 3290 
Q 627 3322 764 3347 
Q 902 3373 1056 3392 
Q 1210 3411 1357 3411 
z
" transform="scale(0.015625)"/>
      </defs>
      <use xlink:href="#Ubuntu-41f"/>
      <use xlink:href="#Ubuntu-430" x="69.899994"/>
      <use xlink:href="#Ubuntu-441" x="122.099991"/>
      <use xlink:href="#Ubuntu-442" x="170.099976"/>
      <use xlink:href="#Ubuntu-435" x="216.399963"/>
      <use xlink:href="#Ubuntu-440" x="272.299957"/>
      <use xlink:href="#Ubuntu-438" x="331.199951"/>
      <use xlink:href="#Ubuntu-437" x="390.899948"/>
      <use xlink:href="#Ubuntu-43e" x="439.799942"/>
      <use xlink:href="#Ubuntu-432" x="498.799927"/>
      <use xlink:href="#Ubuntu-430" x="553.599915"/>
      <use xlink:href="#Ubuntu-43d" x="605.799911"/>
      <use xlink:href="#Ubuntu-43d" x="664.399902"/>
      <use xlink:href="#Ubuntu-43e" x="722.999893"/>
      <use xlink:href="#Ubuntu-435" x="781.999878"/>
      <use xlink:href="#Ubuntu-20" x="837.899872"/>
      <use xlink:href="#Ubuntu-43c" x="860.999863"/>
      <use xlink:href="#Ubuntu-43e" x="934.099854"/>
      <use xlink:href="#Ubuntu-43b" x="993.099838"/>
      <use xlink:href="#Ubuntu-43e" x="1052.899826"/>
      <use xlink:href="#Ubuntu-43a" x="1111.899811"/>
      <use xlink:href="#Ubuntu-43e" x="1162.724808"/>
     </g>
    </g>
    <g id="line2d_34">
     <path d="M 202.961094 14.633438 
L 211.961094 14.633438 
L 220.961094 14.633438 
" style="fill: none; stroke: #af5a51; stroke-opacity: 0.95; stroke-width: 1.25; stroke-linecap: square"/>
    </g>
    <g id="text_27">
     <!-- Масло сливочное -->
     <g style="fill: #4b4b4b" transform="translate(228.161094 17.783438) scale(0.09 -0.09)">
      <defs>
       <path id="Ubuntu-41c" d="M 2541 614 
Q 2477 768 2371 1005 
Q 2266 1242 2144 1517 
Q 2022 1792 1884 2083 
Q 1747 2374 1625 2633 
Q 1504 2893 1398 3097 
Q 1293 3302 1229 3411 
Q 1158 2656 1113 1776 
Q 1069 896 1037 0 
L 429 0 
Q 454 576 486 1161 
Q 518 1747 560 2313 
Q 602 2880 650 3417 
Q 698 3955 755 4435 
L 1299 4435 
Q 1472 4154 1670 3770 
Q 1869 3386 2067 2966 
Q 2266 2547 2451 2128 
Q 2637 1709 2790 1363 
Q 2944 1709 3129 2128 
Q 3315 2547 3513 2966 
Q 3712 3386 3910 3770 
Q 4109 4154 4282 4435 
L 4826 4435 
Q 5043 2291 5152 0 
L 4544 0 
Q 4512 896 4467 1776 
Q 4422 2656 4352 3411 
Q 4288 3302 4182 3097 
Q 4077 2893 3955 2633 
Q 3834 2374 3696 2083 
Q 3558 1792 3436 1517 
Q 3315 1242 3209 1005 
Q 3104 768 3040 614 
L 2541 614 
z
" transform="scale(0.015625)"/>
       <path id="Ubuntu-447" d="M 890 3328 
L 890 2349 
Q 890 1971 1082 1820 
Q 1274 1670 1606 1670 
Q 1850 1670 2013 1696 
Q 2176 1722 2304 1754 
L 2304 3328 
L 2899 3328 
L 2899 0 
L 2304 0 
L 2304 1293 
Q 2253 1280 2169 1261 
Q 2086 1242 1980 1226 
Q 1875 1210 1760 1197 
Q 1645 1184 1536 1184 
Q 1261 1184 1033 1241 
Q 806 1299 643 1433 
Q 480 1568 387 1789 
Q 294 2010 294 2342 
L 294 3328 
L 890 3328 
z
" transform="scale(0.015625)"/>
      </defs>
      <use xlink:href="#Ubuntu-41c"/>
      <use xlink:href="#Ubuntu-430" x="87.099991"/>
      <use xlink:href="#Ubuntu-441" x="139.299988"/>
      <use xlink:href="#Ubuntu-43b" x="187.674973"/>
      <use xlink:href="#Ubuntu-43e" x="247.47496"/>
      <use xlink:href="#Ubuntu-20" x="306.474945"/>
      <use xlink:href="#Ubuntu-441" x="329.574936"/>
      <use xlink:href="#Ubuntu-43b" x="377.949921"/>
      <use xlink:href="#Ubuntu-438" x="437.749908"/>
      <use xlink:href="#Ubuntu-432" x="497.449905"/>
      <use xlink:href="#Ubuntu-43e" x="552.249893"/>
      <use xlink:href="#Ubuntu-447" x="611.249878"/>
      <use xlink:href="#Ubuntu-43d" x="664.549866"/>
      <use xlink:href="#Ubuntu-43e" x="723.149857"/>
      <use xlink:href="#Ubuntu-435" x="782.149841"/>
     </g>
    </g>
    <g id="line2d_35">
     <path d="M 202.961094 27.781875 
L 211.961094 27.781875 
L 220.961094 27.781875 
" style="fill: none; stroke: #608eb4; stroke-width: 1.25; stroke-linecap: square"/>
    </g>
    <g id="text_28">
     <!-- Сыр -->
     <g style="fill: #4b4b4b" transform="translate(228.161094 30.931875) scale(0.09 -0.09)">
      <use xlink:href="#Ubuntu-421"/>
      <use xlink:href="#Ubuntu-44b" x="61.999985"/>
      <use xlink:href="#Ubuntu-440" x="137.799973"/>
     </g>
    </g>
    <g id="line2d_36">
     <path d="M 321.583906 14.633438 
L 330.583906 14.633438 
L 339.583906 14.633438 
" style="fill: none; stroke: #489079; stroke-width: 1.25; stroke-linecap: square"/>
    </g>
    <g id="text_29">
     <!-- Сметана -->
     <g style="fill: #4b4b4b" transform="translate(346.783906 17.783438) scale(0.09 -0.09)">
      <use xlink:href="#Ubuntu-421"/>
      <use xlink:href="#Ubuntu-43c" x="61.999985"/>
      <use xlink:href="#Ubuntu-435" x="135.099976"/>
      <use xlink:href="#Ubuntu-442" x="190.999969"/>
      <use xlink:href="#Ubuntu-430" x="237.299957"/>
      <use xlink:href="#Ubuntu-43d" x="289.499954"/>
      <use xlink:href="#Ubuntu-430" x="348.099945"/>
     </g>
    </g>
    <g id="line2d_37">
     <path d="M 321.583906 28.935 
L 330.583906 28.935 
L 339.583906 28.935 
" style="fill: none; stroke: #eea92b; stroke-opacity: 0.95; stroke-width: 1.25; stroke-linecap: square"/>
    </g>
    <g id="text_30">
     <!-- Йогрут -->
     <g style="fill: #4b4b4b" transform="translate(346.783906 32.085) scale(0.09 -0.09)">
      <defs>
       <path id="Ubuntu-419" d="M 550 0 
L 550 4435 
L 1158 4435 
L 1158 1152 
Q 1363 1491 1660 1926 
Q 1958 2362 2294 2813 
Q 2630 3264 2972 3689 
Q 3315 4115 3616 4435 
L 4109 4435 
L 4109 0 
L 3501 0 
L 3501 3462 
Q 3322 3258 3110 2989 
Q 2899 2720 2675 2416 
Q 2451 2112 2224 1785 
Q 1997 1459 1785 1142 
Q 1574 826 1392 531 
Q 1210 237 1069 0 
L 550 0 
z
M 2333 4890 
Q 1930 4890 1677 5094 
Q 1424 5299 1373 5664 
L 1827 5786 
Q 1878 5581 2000 5453 
Q 2122 5325 2333 5325 
Q 2544 5325 2665 5453 
Q 2787 5581 2838 5786 
L 3286 5664 
Q 3235 5299 2985 5094 
Q 2736 4890 2333 4890 
z
" transform="scale(0.015625)"/>
       <path id="Ubuntu-433" d="M 2573 2829 
L 1107 2829 
L 1107 0 
L 512 0 
L 512 3328 
L 2573 3328 
L 2573 2829 
z
" transform="scale(0.015625)"/>
       <path id="Ubuntu-443" d="M 122 -621 
Q 192 -653 304 -681 
Q 416 -710 525 -710 
Q 877 -710 1075 -553 
Q 1274 -397 1434 -45 
Q 1030 723 681 1584 
Q 333 2445 102 3328 
L 742 3328 
Q 813 3040 912 2707 
Q 1011 2374 1132 2022 
Q 1254 1670 1395 1318 
Q 1536 966 1690 640 
Q 1933 1312 2112 1971 
Q 2291 2630 2451 3328 
L 3066 3328 
Q 2835 2387 2553 1520 
Q 2272 653 1946 -102 
Q 1818 -390 1680 -598 
Q 1542 -806 1376 -940 
Q 1210 -1075 1002 -1139 
Q 794 -1203 531 -1203 
Q 461 -1203 384 -1193 
Q 307 -1184 233 -1168 
Q 160 -1152 99 -1133 
Q 38 -1114 13 -1101 
L 122 -621 
z
" transform="scale(0.015625)"/>
      </defs>
      <use xlink:href="#Ubuntu-419"/>
      <use xlink:href="#Ubuntu-43e" x="72.799988"/>
      <use xlink:href="#Ubuntu-433" x="131.799973"/>
      <use xlink:href="#Ubuntu-440" x="173.59996"/>
      <use xlink:href="#Ubuntu-443" x="231.124954"/>
      <use xlink:href="#Ubuntu-442" x="282.949951"/>
     </g>
    </g>
    <g id="line2d_38">
     <path d="M 400.810625 14.633438 
L 409.810625 14.633438 
L 418.810625 14.633438 
" style="fill: none; stroke: #676391; stroke-width: 1.25; stroke-linecap: square"/>
    </g>
    <g id="text_31">
     <!-- Творог -->
     <g style="fill: #4b4b4b" transform="translate(426.010625 17.783438) scale(0.09 -0.09)">
      <defs>
       <path id="Ubuntu-422" d="M 3514 4435 
L 3514 3898 
L 2118 3898 
L 2118 0 
L 1498 0 
L 1498 3898 
L 102 3898 
L 102 4435 
L 3514 4435 
z
" transform="scale(0.015625)"/>
      </defs>
      <use xlink:href="#Ubuntu-422"/>
      <use xlink:href="#Ubuntu-432" x="49.124985"/>
      <use xlink:href="#Ubuntu-43e" x="103.924973"/>
      <use xlink:href="#Ubuntu-440" x="162.924957"/>
      <use xlink:href="#Ubuntu-43e" x="221.824951"/>
      <use xlink:href="#Ubuntu-433" x="280.824936"/>
     </g>
    </g>
   </g>
   <g id="line2d_39">
    <path d="M 54.26 191.564719 
L 531.35 191.564719 
" clip-path="url(#pffc140f2f8)" style="fill: none; stroke-dasharray: 2.775,1.2; stroke-dashoffset: 0; stroke: #c5c5c5; stroke-width: 0.75"/>
   </g>
  </g>
 </g>
 <defs>
  <clipPath id="p6d4fdff72e">
   <rect x="41.705" y="208.196719" width="502.2" height="0"/>
  </clipPath>
  <clipPath id="pffc140f2f8">
   <rect x="41.705" y="41.876719" width="502.2" height="166.32"/>
  </clipPath>
 </defs>
</svg>
