<?xml version="1.0" encoding="utf-8" standalone="no"?>
<!DOCTYPE svg PUBLIC "-//W3C//DTD SVG 1.1//EN"
  "http://www.w3.org/Graphics/SVG/1.1/DTD/svg11.dtd">
<svg xmlns:xlink="http://www.w3.org/1999/xlink" width="548.9125pt" height="242.2625pt" viewBox="0 0 548.9125 242.2625" xmlns="http://www.w3.org/2000/svg" version="1.1">
 <metadata>
  <rdf:RDF xmlns:dc="http://purl.org/dc/elements/1.1/" xmlns:cc="http://creativecommons.org/ns#" xmlns:rdf="http://www.w3.org/1999/02/22-rdf-syntax-ns#">
   <cc:Work>
    <dc:type rdf:resource="http://purl.org/dc/dcmitype/StillImage"/>
    <dc:date>2024-05-29T16:44:05.403078</dc:date>
    <dc:format>image/svg+xml</dc:format>
    <dc:creator>
     <cc:Agent>
      <dc:title>Matplotlib v3.9.0, https://matplotlib.org/</dc:title>
     </cc:Agent>
    </dc:creator>
   </cc:Work>
  </rdf:RDF>
 </metadata>
 <defs>
  <style type="text/css">*{stroke-linejoin: round; stroke-linecap: butt}</style>
 </defs>
 <g id="figure_1">
  <g id="patch_1">
   <path d="M 0 242.2625 
L 548.9125 242.2625 
L 548.9125 0 
L 0 0 
L 0 242.2625 
z
" style="fill: none"/>
  </g>
  <g id="axes_1">
   <g id="patch_2">
    <path d="M 32.1925 203.375 
L 534.3925 203.375 
L 534.3925 37.055 
L 32.1925 37.055 
L 32.1925 203.375 
z
" style="fill: none"/>
   </g>
   <g id="line2d_1">
    <path d="M 70.302112 203.375 
L 70.302112 37.055 
" clip-path="url(#p66de7adac8)" style="fill: none; stroke-dasharray: 0.5,0.825; stroke-dashoffset: 0; stroke: #d9d9d9; stroke-width: 0.5"/>
   </g>
   <g id="line2d_2">
    <path d="M 108.835164 203.375 
L 108.835164 37.055 
" clip-path="url(#p66de7adac8)" style="fill: none; stroke-dasharray: 0.5,0.825; stroke-dashoffset: 0; stroke: #d9d9d9; stroke-width: 0.5"/>
   </g>
   <g id="line2d_3">
    <path d="M 147.791657 203.375 
L 147.791657 37.055 
" clip-path="url(#p66de7adac8)" style="fill: none; stroke-dasharray: 0.5,0.825; stroke-dashoffset: 0; stroke: #d9d9d9; stroke-width: 0.5"/>
   </g>
   <g id="line2d_4">
    <path d="M 186.748149 203.375 
L 186.748149 37.055 
" clip-path="url(#p66de7adac8)" style="fill: none; stroke-dasharray: 0.5,0.825; stroke-dashoffset: 0; stroke: #d9d9d9; stroke-width: 0.5"/>
   </g>
   <g id="line2d_5">
    <path d="M 224.857761 203.375 
L 224.857761 37.055 
" clip-path="url(#p66de7adac8)" style="fill: none; stroke-dasharray: 0.5,0.825; stroke-dashoffset: 0; stroke: #d9d9d9; stroke-width: 0.5"/>
   </g>
   <g id="line2d_6">
    <path d="M 263.390814 203.375 
L 263.390814 37.055 
" clip-path="url(#p66de7adac8)" style="fill: none; stroke-dasharray: 0.5,0.825; stroke-dashoffset: 0; stroke: #d9d9d9; stroke-width: 0.5"/>
   </g>
   <g id="line2d_7">
    <path d="M 302.347306 203.375 
L 302.347306 37.055 
" clip-path="url(#p66de7adac8)" style="fill: none; stroke-dasharray: 0.5,0.825; stroke-dashoffset: 0; stroke: #d9d9d9; stroke-width: 0.5"/>
   </g>
   <g id="line2d_8">
    <path d="M 341.303798 203.375 
L 341.303798 37.055 
" clip-path="url(#p66de7adac8)" style="fill: none; stroke-dasharray: 0.5,0.825; stroke-dashoffset: 0; stroke: #d9d9d9; stroke-width: 0.5"/>
   </g>
   <g id="line2d_9">
    <path d="M 379.413411 203.375 
L 379.413411 37.055 
" clip-path="url(#p66de7adac8)" style="fill: none; stroke-dasharray: 0.5,0.825; stroke-dashoffset: 0; stroke: #d9d9d9; stroke-width: 0.5"/>
   </g>
   <g id="line2d_10">
    <path d="M 417.946463 203.375 
L 417.946463 37.055 
" clip-path="url(#p66de7adac8)" style="fill: none; stroke-dasharray: 0.5,0.825; stroke-dashoffset: 0; stroke: #d9d9d9; stroke-width: 0.5"/>
   </g>
   <g id="line2d_11">
    <path d="M 456.902955 203.375 
L 456.902955 37.055 
" clip-path="url(#p66de7adac8)" style="fill: none; stroke-dasharray: 0.5,0.825; stroke-dashoffset: 0; stroke: #d9d9d9; stroke-width: 0.5"/>
   </g>
   <g id="line2d_12">
    <path d="M 495.859448 203.375 
L 495.859448 37.055 
" clip-path="url(#p66de7adac8)" style="fill: none; stroke-dasharray: 0.5,0.825; stroke-dashoffset: 0; stroke: #d9d9d9; stroke-width: 0.5"/>
   </g>
   <g id="line2d_13">
    <path d="M 32.1925 175.655 
L 534.3925 175.655 
" clip-path="url(#p66de7adac8)" style="fill: none; stroke-dasharray: 0.5,0.825; stroke-dashoffset: 0; stroke: #d9d9d9; stroke-width: 0.5"/>
   </g>
   <g id="line2d_14">
    <path d="M 32.1925 147.935 
L 534.3925 147.935 
" clip-path="url(#p66de7adac8)" style="fill: none; stroke-dasharray: 0.5,0.825; stroke-dashoffset: 0; stroke: #d9d9d9; stroke-width: 0.5"/>
   </g>
   <g id="line2d_15">
    <path d="M 32.1925 120.215 
L 534.3925 120.215 
" clip-path="url(#p66de7adac8)" style="fill: none; stroke-dasharray: 0.5,0.825; stroke-dashoffset: 0; stroke: #d9d9d9; stroke-width: 0.5"/>
   </g>
   <g id="line2d_16">
    <path d="M 32.1925 92.495 
L 534.3925 92.495 
" clip-path="url(#p66de7adac8)" style="fill: none; stroke-dasharray: 0.5,0.825; stroke-dashoffset: 0; stroke: #d9d9d9; stroke-width: 0.5"/>
   </g>
   <g id="line2d_17">
    <path d="M 32.1925 64.775 
L 534.3925 64.775 
" clip-path="url(#p66de7adac8)" style="fill: none; stroke-dasharray: 0.5,0.825; stroke-dashoffset: 0; stroke: #d9d9d9; stroke-width: 0.5"/>
   </g>
   <g id="line2d_18">
    <path d="M 37.2145 147.935 
L 529.3705 147.935 
" clip-path="url(#p66de7adac8)" style="fill: none; stroke-dasharray: 2.775,1.2; stroke-dashoffset: 0; stroke: #cccccc; stroke-width: 0.75"/>
   </g>
   <g id="axes_2">
    <g id="patch_3">
     <path d="M 32.1925 203.375 
L 534.3925 203.375 
L 534.3925 203.375 
L 32.1925 203.375 
L 32.1925 203.375 
z
" style="fill: none"/>
    </g>
    <g id="matplotlib.axis_1">
     <g id="xtick_1">
      <g id="line2d_19">
       <path d="M 32.1925 203.375 
L 32.1925 203.375 
" clip-path="url(#pf00cb799a8)" style="fill: none; stroke-dasharray: 0.5,0.825; stroke-dashoffset: 0; stroke: #d9d9d9; stroke-width: 0.5"/>
      </g>
      <g id="text_1">
       <!-- 2021 -->
       <g style="fill: #808080" transform="translate(23.1675 233.5825) scale(0.08 -0.08)">
        <defs>
         <path id="Ubuntu-32" d="M 2989 3302 
Q 2989 3072 2896 2857 
Q 2803 2643 2649 2435 
Q 2496 2227 2304 2025 
Q 2112 1824 1920 1632 
Q 1811 1523 1667 1376 
Q 1523 1229 1395 1069 
Q 1267 909 1180 761 
Q 1094 614 1094 506 
L 3136 506 
L 3136 0 
L 448 0 
Q 442 38 442 76 
Q 442 115 442 147 
Q 442 448 541 707 
Q 640 966 800 1196 
Q 960 1427 1158 1632 
Q 1357 1837 1549 2029 
Q 1709 2182 1853 2332 
Q 1997 2483 2109 2633 
Q 2221 2784 2288 2944 
Q 2355 3104 2355 3283 
Q 2355 3475 2294 3609 
Q 2234 3744 2131 3833 
Q 2029 3923 1891 3964 
Q 1754 4006 1600 4006 
Q 1414 4006 1260 3955 
Q 1107 3904 985 3837 
Q 864 3770 781 3696 
Q 698 3622 653 3584 
L 358 4006 
Q 416 4070 531 4163 
Q 646 4256 806 4339 
Q 966 4422 1164 4480 
Q 1363 4538 1594 4538 
Q 2291 4538 2640 4214 
Q 2989 3891 2989 3302 
z
" transform="scale(0.015625)"/>
         <path id="Ubuntu-30" d="M 320 2221 
Q 320 3334 713 3936 
Q 1107 4538 1805 4538 
Q 2502 4538 2896 3936 
Q 3290 3334 3290 2221 
Q 3290 1107 2896 505 
Q 2502 -96 1805 -96 
Q 1107 -96 713 505 
Q 320 1107 320 2221 
z
M 2662 2221 
Q 2662 2586 2620 2912 
Q 2579 3238 2480 3481 
Q 2381 3725 2214 3869 
Q 2048 4013 1805 4013 
Q 1562 4013 1395 3869 
Q 1229 3725 1129 3481 
Q 1030 3238 988 2912 
Q 947 2586 947 2221 
Q 947 1856 988 1529 
Q 1030 1203 1129 960 
Q 1229 717 1395 573 
Q 1562 429 1805 429 
Q 2048 429 2214 573 
Q 2381 717 2480 960 
Q 2579 1203 2620 1529 
Q 2662 1856 2662 2221 
z
" transform="scale(0.015625)"/>
         <path id="Ubuntu-31" d="M 595 3520 
Q 960 3661 1305 3881 
Q 1651 4102 1939 4435 
L 2362 4435 
L 2362 0 
L 1766 0 
L 1766 3610 
Q 1690 3539 1578 3462 
Q 1466 3386 1334 3315 
Q 1203 3245 1059 3181 
Q 915 3117 781 3072 
L 595 3520 
z
" transform="scale(0.015625)"/>
        </defs>
        <use xlink:href="#Ubuntu-32"/>
        <use xlink:href="#Ubuntu-30" x="56.399994"/>
        <use xlink:href="#Ubuntu-32" x="112.799988"/>
        <use xlink:href="#Ubuntu-31" x="169.199982"/>
       </g>
      </g>
     </g>
     <g id="xtick_2">
      <g id="line2d_20">
       <path d="M 186.748149 203.375 
L 186.748149 203.375 
" clip-path="url(#pf00cb799a8)" style="fill: none; stroke-dasharray: 0.5,0.825; stroke-dashoffset: 0; stroke: #d9d9d9; stroke-width: 0.5"/>
      </g>
      <g id="text_2">
       <!-- 2022 -->
       <g style="fill: #808080" transform="translate(177.723149 233.5825) scale(0.08 -0.08)">
        <use xlink:href="#Ubuntu-32"/>
        <use xlink:href="#Ubuntu-30" x="56.399994"/>
        <use xlink:href="#Ubuntu-32" x="112.799988"/>
        <use xlink:href="#Ubuntu-32" x="169.199982"/>
       </g>
      </g>
     </g>
     <g id="xtick_3">
      <g id="line2d_21">
       <path d="M 341.303798 203.375 
L 341.303798 203.375 
" clip-path="url(#pf00cb799a8)" style="fill: none; stroke-dasharray: 0.5,0.825; stroke-dashoffset: 0; stroke: #d9d9d9; stroke-width: 0.5"/>
      </g>
      <g id="text_3">
       <!-- 2023 -->
       <g style="fill: #808080" transform="translate(332.278798 233.5825) scale(0.08 -0.08)">
        <defs>
         <path id="Ubuntu-33" d="M 1446 435 
Q 2016 435 2262 659 
Q 2509 883 2509 1261 
Q 2509 1504 2406 1670 
Q 2304 1837 2137 1936 
Q 1971 2035 1750 2076 
Q 1530 2118 1299 2118 
L 1146 2118 
L 1146 2605 
L 1357 2605 
Q 1517 2605 1686 2637 
Q 1856 2669 1997 2752 
Q 2138 2835 2227 2979 
Q 2317 3123 2317 3341 
Q 2317 3520 2253 3648 
Q 2189 3776 2083 3859 
Q 1978 3942 1840 3977 
Q 1702 4013 1549 4013 
Q 1242 4013 1027 3923 
Q 813 3834 666 3738 
L 435 4192 
Q 512 4243 630 4304 
Q 749 4365 896 4416 
Q 1043 4467 1212 4502 
Q 1382 4538 1568 4538 
Q 1920 4538 2176 4451 
Q 2432 4365 2598 4208 
Q 2765 4051 2848 3836 
Q 2931 3622 2931 3373 
Q 2931 3027 2732 2780 
Q 2534 2534 2253 2406 
Q 2426 2355 2586 2259 
Q 2746 2163 2864 2016 
Q 2982 1869 3056 1677 
Q 3130 1485 3130 1248 
Q 3130 960 3030 713 
Q 2931 467 2723 288 
Q 2515 109 2201 6 
Q 1888 -96 1459 -96 
Q 1293 -96 1117 -70 
Q 941 -45 787 -6 
Q 634 32 518 70 
Q 403 109 352 134 
L 467 653 
Q 576 602 829 518 
Q 1082 435 1446 435 
z
" transform="scale(0.015625)"/>
        </defs>
        <use xlink:href="#Ubuntu-32"/>
        <use xlink:href="#Ubuntu-30" x="56.399994"/>
        <use xlink:href="#Ubuntu-32" x="112.799988"/>
        <use xlink:href="#Ubuntu-33" x="169.199982"/>
       </g>
      </g>
     </g>
     <g id="xtick_4">
      <g id="line2d_22">
       <path d="M 495.859448 203.375 
L 495.859448 203.375 
" clip-path="url(#pf00cb799a8)" style="fill: none; stroke-dasharray: 0.5,0.825; stroke-dashoffset: 0; stroke: #d9d9d9; stroke-width: 0.5"/>
      </g>
      <g id="text_4">
       <!-- 2024 -->
       <g style="fill: #808080" transform="translate(486.834448 233.5825) scale(0.08 -0.08)">
        <defs>
         <path id="Ubuntu-34" d="M 256 1536 
Q 378 1818 589 2192 
Q 800 2566 1065 2963 
Q 1331 3360 1635 3744 
Q 1939 4128 2246 4435 
L 2816 4435 
L 2816 1619 
L 3341 1619 
L 3341 1133 
L 2816 1133 
L 2816 0 
L 2240 0 
L 2240 1133 
L 256 1133 
L 256 1536 
z
M 2240 3731 
Q 2048 3526 1853 3273 
Q 1658 3021 1472 2745 
Q 1286 2470 1123 2182 
Q 960 1894 832 1619 
L 2240 1619 
L 2240 3731 
z
" transform="scale(0.015625)"/>
        </defs>
        <use xlink:href="#Ubuntu-32"/>
        <use xlink:href="#Ubuntu-30" x="56.399994"/>
        <use xlink:href="#Ubuntu-32" x="112.799988"/>
        <use xlink:href="#Ubuntu-34" x="169.199982"/>
       </g>
      </g>
     </g>
    </g>
    <g id="matplotlib.axis_2"/>
   </g>
   <g id="matplotlib.axis_3">
    <g id="xtick_5">
     <g id="line2d_23">
      <defs>
       <path id="m8c332c375c" d="M 0 0 
L 0 3 
" style="stroke: #cecece; stroke-width: 0.75"/>
      </defs>
      <g>
       <use xlink:href="#m8c332c375c" x="32.1925" y="208.375" style="fill: #cecece; stroke: #cecece; stroke-width: 0.75"/>
      </g>
     </g>
     <g id="text_5">
      <!-- Янв -->
      <g style="fill: #808080" transform="translate(25.116875 223.5825) scale(0.08 -0.08)">
       <defs>
        <path id="Ubuntu-42f" d="M 2272 3936 
Q 2029 3936 1808 3897 
Q 1587 3859 1414 3763 
Q 1242 3667 1139 3500 
Q 1037 3334 1037 3085 
Q 1037 2611 1341 2428 
Q 1645 2246 2253 2246 
L 2893 2246 
L 2893 3917 
Q 2822 3917 2726 3923 
Q 2643 3930 2531 3933 
Q 2419 3936 2272 3936 
z
M 2323 4480 
Q 2458 4480 2611 4473 
Q 2765 4467 2921 4454 
Q 3078 4442 3232 4422 
Q 3386 4403 3514 4371 
L 3514 0 
L 2893 0 
L 2893 1734 
L 2362 1734 
Q 2272 1734 2173 1737 
Q 2074 1741 1907 1760 
Q 1792 1606 1657 1401 
Q 1523 1197 1388 966 
Q 1254 736 1123 486 
Q 992 237 883 0 
L 230 0 
Q 333 250 473 518 
Q 614 787 764 1030 
Q 915 1274 1052 1482 
Q 1190 1690 1293 1824 
Q 1146 1869 986 1952 
Q 826 2035 691 2182 
Q 557 2330 470 2550 
Q 384 2771 384 3078 
Q 384 3424 518 3686 
Q 653 3949 905 4125 
Q 1158 4301 1516 4390 
Q 1875 4480 2323 4480 
z
" transform="scale(0.015625)"/>
        <path id="Ubuntu-43d" d="M 3238 0 
L 2643 0 
L 2643 1472 
L 1107 1472 
L 1107 0 
L 512 0 
L 512 3328 
L 1107 3328 
L 1107 1971 
L 2643 1971 
L 2643 3328 
L 3238 3328 
L 3238 0 
z
" transform="scale(0.015625)"/>
        <path id="Ubuntu-432" d="M 1094 448 
Q 1133 442 1203 435 
Q 1274 429 1363 425 
Q 1453 422 1552 419 
Q 1651 416 1741 416 
Q 1926 416 2096 441 
Q 2266 467 2390 531 
Q 2515 595 2588 700 
Q 2662 806 2662 973 
Q 2662 1133 2595 1238 
Q 2528 1344 2413 1408 
Q 2298 1472 2141 1497 
Q 1984 1523 1805 1523 
L 1094 1523 
L 1094 448 
z
M 1728 1965 
Q 1901 1965 2045 1987 
Q 2189 2010 2294 2067 
Q 2400 2125 2461 2221 
Q 2522 2317 2522 2464 
Q 2522 2618 2445 2707 
Q 2368 2797 2243 2845 
Q 2118 2893 1961 2909 
Q 1805 2925 1645 2925 
Q 1498 2925 1347 2918 
Q 1197 2912 1094 2906 
L 1094 1965 
L 1728 1965 
z
M 1715 -58 
Q 1338 -58 1018 -22 
Q 698 13 512 58 
L 512 3296 
Q 698 3341 1018 3376 
Q 1338 3411 1715 3411 
Q 1978 3411 2227 3366 
Q 2477 3322 2669 3216 
Q 2861 3110 2979 2928 
Q 3098 2746 3098 2477 
Q 3098 2234 2976 2061 
Q 2854 1888 2650 1792 
Q 2925 1696 3088 1507 
Q 3251 1318 3251 979 
Q 3251 678 3132 480 
Q 3014 282 2806 160 
Q 2598 38 2316 -10 
Q 2035 -58 1715 -58 
z
" transform="scale(0.015625)"/>
       </defs>
       <use xlink:href="#Ubuntu-42f"/>
       <use xlink:href="#Ubuntu-43d" x="63.499985"/>
       <use xlink:href="#Ubuntu-432" x="122.099976"/>
      </g>
     </g>
    </g>
    <g id="xtick_6">
     <g id="line2d_24">
      <g>
       <use xlink:href="#m8c332c375c" x="70.302112" y="208.375" style="fill: #cecece; stroke: #cecece; stroke-width: 0.75"/>
      </g>
     </g>
     <g id="text_6">
      <!-- Апр -->
      <g style="fill: #808080" transform="translate(62.982112 223.5825) scale(0.08 -0.08)">
       <defs>
        <path id="Ubuntu-410" d="M 3514 0 
Q 3405 288 3309 566 
Q 3213 845 3110 1133 
L 1101 1133 
L 698 0 
L 51 0 
Q 307 704 531 1302 
Q 755 1901 969 2438 
Q 1184 2976 1395 3465 
Q 1606 3955 1837 4435 
L 2406 4435 
Q 2637 3955 2848 3465 
Q 3059 2976 3273 2438 
Q 3488 1901 3712 1302 
Q 3936 704 4192 0 
L 3514 0 
z
M 2931 1645 
Q 2726 2202 2524 2723 
Q 2323 3245 2106 3725 
Q 1882 3245 1680 2723 
Q 1478 2202 1280 1645 
L 2931 1645 
z
" transform="scale(0.015625)"/>
        <path id="Ubuntu-43f" d="M 3187 0 
L 2592 0 
L 2592 2829 
L 1107 2829 
L 1107 0 
L 512 0 
L 512 3328 
L 3187 3328 
L 3187 0 
z
" transform="scale(0.015625)"/>
        <path id="Ubuntu-440" d="M 2822 1658 
Q 2822 2240 2534 2553 
Q 2246 2867 1766 2867 
Q 1498 2867 1347 2848 
Q 1197 2829 1107 2803 
L 1107 704 
Q 1216 614 1421 531 
Q 1626 448 1869 448 
Q 2125 448 2307 541 
Q 2490 634 2605 797 
Q 2720 960 2771 1181 
Q 2822 1402 2822 1658 
z
M 3443 1658 
Q 3443 1280 3344 960 
Q 3245 640 3053 409 
Q 2861 179 2582 51 
Q 2304 -77 1946 -77 
Q 1658 -77 1437 0 
Q 1216 77 1107 147 
L 1107 -1184 
L 512 -1184 
L 512 3226 
Q 723 3277 1040 3337 
Q 1357 3398 1773 3398 
Q 2157 3398 2464 3276 
Q 2771 3155 2988 2931 
Q 3206 2707 3324 2384 
Q 3443 2061 3443 1658 
z
" transform="scale(0.015625)"/>
       </defs>
       <use xlink:href="#Ubuntu-410"/>
       <use xlink:href="#Ubuntu-43f" x="66.299988"/>
       <use xlink:href="#Ubuntu-440" x="124.099976"/>
      </g>
     </g>
    </g>
    <g id="xtick_7">
     <g id="line2d_25">
      <g>
       <use xlink:href="#m8c332c375c" x="108.835164" y="208.375" style="fill: #cecece; stroke: #cecece; stroke-width: 0.75"/>
      </g>
     </g>
     <g id="text_7">
      <!-- Июл -->
      <g style="fill: #808080" transform="translate(100.287664 223.5825) scale(0.08 -0.08)">
       <defs>
        <path id="Ubuntu-418" d="M 550 0 
L 550 4435 
L 1158 4435 
L 1158 1152 
Q 1363 1491 1660 1926 
Q 1958 2362 2294 2813 
Q 2630 3264 2972 3689 
Q 3315 4115 3616 4435 
L 4109 4435 
L 4109 0 
L 3501 0 
L 3501 3462 
Q 3322 3258 3110 2989 
Q 2899 2720 2675 2416 
Q 2451 2112 2224 1785 
Q 1997 1459 1785 1142 
Q 1574 826 1392 531 
Q 1210 237 1069 0 
L 550 0 
z
" transform="scale(0.015625)"/>
        <path id="Ubuntu-44e" d="M 1107 1952 
L 1837 1952 
Q 1875 2285 2006 2553 
Q 2138 2822 2336 3014 
Q 2534 3206 2790 3308 
Q 3046 3411 3341 3411 
Q 3667 3411 3945 3286 
Q 4224 3162 4429 2931 
Q 4634 2701 4749 2377 
Q 4864 2054 4864 1664 
Q 4864 1267 4749 947 
Q 4634 627 4429 396 
Q 4224 166 3945 41 
Q 3667 -83 3341 -83 
Q 3034 -83 2768 29 
Q 2502 141 2304 342 
Q 2106 544 1981 832 
Q 1856 1120 1830 1472 
L 1107 1472 
L 1107 0 
L 512 0 
L 512 3328 
L 1107 3328 
L 1107 1952 
z
M 4250 1664 
Q 4250 2227 4003 2556 
Q 3757 2886 3341 2886 
Q 2925 2886 2678 2556 
Q 2432 2227 2432 1664 
Q 2432 1101 2678 771 
Q 2925 442 3341 442 
Q 3757 442 4003 771 
Q 4250 1101 4250 1664 
z
" transform="scale(0.015625)"/>
        <path id="Ubuntu-43b" d="M 1670 2829 
Q 1670 2618 1660 2378 
Q 1651 2138 1625 1898 
Q 1600 1658 1555 1424 
Q 1510 1190 1440 986 
Q 1370 781 1264 601 
Q 1158 422 1004 284 
Q 851 147 646 54 
Q 442 -38 166 -64 
L 83 435 
Q 397 499 579 672 
Q 762 845 870 1094 
Q 966 1312 1011 1587 
Q 1056 1862 1075 2160 
Q 1094 2458 1097 2758 
Q 1101 3059 1101 3328 
L 3315 3328 
L 3315 0 
L 2720 0 
L 2720 2829 
L 1670 2829 
z
" transform="scale(0.015625)"/>
       </defs>
       <use xlink:href="#Ubuntu-418"/>
       <use xlink:href="#Ubuntu-44e" x="72.799988"/>
       <use xlink:href="#Ubuntu-43b" x="153.899979"/>
      </g>
     </g>
    </g>
    <g id="xtick_8">
     <g id="line2d_26">
      <g>
       <use xlink:href="#m8c332c375c" x="147.791657" y="208.375" style="fill: #cecece; stroke: #cecece; stroke-width: 0.75"/>
      </g>
     </g>
     <g id="text_8">
      <!-- Окт -->
      <g style="fill: #808080" transform="translate(140.679782 223.5825) scale(0.08 -0.08)">
       <defs>
        <path id="Ubuntu-41e" d="M 371 2221 
Q 371 2790 540 3225 
Q 710 3661 1001 3952 
Q 1293 4243 1680 4390 
Q 2067 4538 2502 4538 
Q 2931 4538 3312 4390 
Q 3693 4243 3981 3952 
Q 4269 3661 4438 3225 
Q 4608 2790 4608 2221 
Q 4608 1651 4438 1216 
Q 4269 781 3981 489 
Q 3693 198 3312 51 
Q 2931 -96 2502 -96 
Q 2067 -96 1680 51 
Q 1293 198 1001 489 
Q 710 781 540 1216 
Q 371 1651 371 2221 
z
M 1024 2221 
Q 1024 1818 1126 1488 
Q 1229 1158 1417 928 
Q 1606 698 1878 573 
Q 2150 448 2490 448 
Q 2829 448 3097 573 
Q 3366 698 3555 928 
Q 3744 1158 3846 1488 
Q 3949 1818 3949 2221 
Q 3949 2624 3846 2953 
Q 3744 3283 3555 3513 
Q 3366 3744 3097 3869 
Q 2829 3994 2490 3994 
Q 2150 3994 1878 3869 
Q 1606 3744 1417 3513 
Q 1229 3283 1126 2953 
Q 1024 2624 1024 2221 
z
" transform="scale(0.015625)"/>
        <path id="Ubuntu-43a" d="M 1728 1811 
Q 1926 1670 2156 1456 
Q 2387 1242 2608 992 
Q 2829 742 3021 483 
Q 3213 224 3347 0 
L 2643 0 
Q 2502 218 2313 445 
Q 2125 672 1920 883 
Q 1715 1094 1504 1273 
Q 1293 1453 1107 1574 
L 1107 0 
L 512 0 
L 512 3328 
L 1107 3328 
L 1107 1901 
Q 1261 2048 1459 2243 
Q 1658 2438 1859 2640 
Q 2061 2842 2233 3024 
Q 2406 3206 2515 3328 
L 3206 3328 
Q 3066 3174 2877 2979 
Q 2688 2784 2486 2579 
Q 2285 2374 2086 2172 
Q 1888 1971 1728 1811 
z
" transform="scale(0.015625)"/>
        <path id="Ubuntu-442" d="M 2861 3328 
L 2861 2829 
L 1779 2829 
L 1779 0 
L 1184 0 
L 1184 2829 
L 102 2829 
L 102 3328 
L 2861 3328 
z
" transform="scale(0.015625)"/>
       </defs>
       <use xlink:href="#Ubuntu-41e"/>
       <use xlink:href="#Ubuntu-43a" x="77.799988"/>
       <use xlink:href="#Ubuntu-442" x="131.499985"/>
      </g>
     </g>
    </g>
    <g id="xtick_9">
     <g id="line2d_27">
      <g>
       <use xlink:href="#m8c332c375c" x="186.748149" y="208.375" style="fill: #cecece; stroke: #cecece; stroke-width: 0.75"/>
      </g>
     </g>
     <g id="text_9">
      <!-- Янв -->
      <g style="fill: #808080" transform="translate(179.672524 223.5825) scale(0.08 -0.08)">
       <use xlink:href="#Ubuntu-42f"/>
       <use xlink:href="#Ubuntu-43d" x="63.499985"/>
       <use xlink:href="#Ubuntu-432" x="122.099976"/>
      </g>
     </g>
    </g>
    <g id="xtick_10">
     <g id="line2d_28">
      <g>
       <use xlink:href="#m8c332c375c" x="224.857761" y="208.375" style="fill: #cecece; stroke: #cecece; stroke-width: 0.75"/>
      </g>
     </g>
     <g id="text_10">
      <!-- Апр -->
      <g style="fill: #808080" transform="translate(217.537761 223.5825) scale(0.08 -0.08)">
       <use xlink:href="#Ubuntu-410"/>
       <use xlink:href="#Ubuntu-43f" x="66.299988"/>
       <use xlink:href="#Ubuntu-440" x="124.099976"/>
      </g>
     </g>
    </g>
    <g id="xtick_11">
     <g id="line2d_29">
      <g>
       <use xlink:href="#m8c332c375c" x="263.390814" y="208.375" style="fill: #cecece; stroke: #cecece; stroke-width: 0.75"/>
      </g>
     </g>
     <g id="text_11">
      <!-- Июл -->
      <g style="fill: #808080" transform="translate(254.843314 223.5825) scale(0.08 -0.08)">
       <use xlink:href="#Ubuntu-418"/>
       <use xlink:href="#Ubuntu-44e" x="72.799988"/>
       <use xlink:href="#Ubuntu-43b" x="153.899979"/>
      </g>
     </g>
    </g>
    <g id="xtick_12">
     <g id="line2d_30">
      <g>
       <use xlink:href="#m8c332c375c" x="302.347306" y="208.375" style="fill: #cecece; stroke: #cecece; stroke-width: 0.75"/>
      </g>
     </g>
     <g id="text_12">
      <!-- Окт -->
      <g style="fill: #808080" transform="translate(295.235431 223.5825) scale(0.08 -0.08)">
       <use xlink:href="#Ubuntu-41e"/>
       <use xlink:href="#Ubuntu-43a" x="77.799988"/>
       <use xlink:href="#Ubuntu-442" x="131.499985"/>
      </g>
     </g>
    </g>
    <g id="xtick_13">
     <g id="line2d_31">
      <g>
       <use xlink:href="#m8c332c375c" x="341.303798" y="208.375" style="fill: #cecece; stroke: #cecece; stroke-width: 0.75"/>
      </g>
     </g>
     <g id="text_13">
      <!-- Янв -->
      <g style="fill: #808080" transform="translate(334.228173 223.5825) scale(0.08 -0.08)">
       <use xlink:href="#Ubuntu-42f"/>
       <use xlink:href="#Ubuntu-43d" x="63.499985"/>
       <use xlink:href="#Ubuntu-432" x="122.099976"/>
      </g>
     </g>
    </g>
    <g id="xtick_14">
     <g id="line2d_32">
      <g>
       <use xlink:href="#m8c332c375c" x="379.413411" y="208.375" style="fill: #cecece; stroke: #cecece; stroke-width: 0.75"/>
      </g>
     </g>
     <g id="text_14">
      <!-- Апр -->
      <g style="fill: #808080" transform="translate(372.093411 223.5825) scale(0.08 -0.08)">
       <use xlink:href="#Ubuntu-410"/>
       <use xlink:href="#Ubuntu-43f" x="66.299988"/>
       <use xlink:href="#Ubuntu-440" x="124.099976"/>
      </g>
     </g>
    </g>
    <g id="xtick_15">
     <g id="line2d_33">
      <g>
       <use xlink:href="#m8c332c375c" x="417.946463" y="208.375" style="fill: #cecece; stroke: #cecece; stroke-width: 0.75"/>
      </g>
     </g>
     <g id="text_15">
      <!-- Июл -->
      <g style="fill: #808080" transform="translate(409.398963 223.5825) scale(0.08 -0.08)">
       <use xlink:href="#Ubuntu-418"/>
       <use xlink:href="#Ubuntu-44e" x="72.799988"/>
       <use xlink:href="#Ubuntu-43b" x="153.899979"/>
      </g>
     </g>
    </g>
    <g id="xtick_16">
     <g id="line2d_34">
      <g>
       <use xlink:href="#m8c332c375c" x="456.902955" y="208.375" style="fill: #cecece; stroke: #cecece; stroke-width: 0.75"/>
      </g>
     </g>
     <g id="text_16">
      <!-- Окт -->
      <g style="fill: #808080" transform="translate(449.79108 223.5825) scale(0.08 -0.08)">
       <use xlink:href="#Ubuntu-41e"/>
       <use xlink:href="#Ubuntu-43a" x="77.799988"/>
       <use xlink:href="#Ubuntu-442" x="131.499985"/>
      </g>
     </g>
    </g>
    <g id="xtick_17">
     <g id="line2d_35">
      <g>
       <use xlink:href="#m8c332c375c" x="495.859448" y="208.375" style="fill: #cecece; stroke: #cecece; stroke-width: 0.75"/>
      </g>
     </g>
     <g id="text_17">
      <!-- Янв -->
      <g style="fill: #808080" transform="translate(488.783823 223.5825) scale(0.08 -0.08)">
       <use xlink:href="#Ubuntu-42f"/>
       <use xlink:href="#Ubuntu-43d" x="63.499985"/>
       <use xlink:href="#Ubuntu-432" x="122.099976"/>
      </g>
     </g>
    </g>
    <g id="xtick_18">
     <g id="line2d_36">
      <g>
       <use xlink:href="#m8c332c375c" x="534.3925" y="208.375" style="fill: #cecece; stroke: #cecece; stroke-width: 0.75"/>
      </g>
     </g>
     <g id="text_18">
      <!-- Апр -->
      <g style="fill: #808080" transform="translate(527.0725 223.5825) scale(0.08 -0.08)">
       <use xlink:href="#Ubuntu-410"/>
       <use xlink:href="#Ubuntu-43f" x="66.299988"/>
       <use xlink:href="#Ubuntu-440" x="124.099976"/>
      </g>
     </g>
    </g>
   </g>
   <g id="matplotlib.axis_4">
    <g id="ytick_1">
     <g id="line2d_37">
      <defs>
       <path id="mb82a4f3885" d="M 0 0 
L -3 0 
" style="stroke: #cecece; stroke-width: 0.75"/>
      </defs>
      <g>
       <use xlink:href="#mb82a4f3885" x="27.1925" y="203.375" style="fill: #cecece; stroke: #cecece; stroke-width: 0.75"/>
      </g>
     </g>
     <g id="text_19">
      <!-- 0.0 -->
      <g style="fill: #808080" transform="translate(7.2 206.47875) scale(0.08 -0.08)">
       <defs>
        <path id="Ubuntu-2e" d="M 1216 346 
Q 1216 173 1101 45 
Q 986 -83 787 -83 
Q 589 -83 473 45 
Q 358 173 358 346 
Q 358 518 473 646 
Q 589 774 787 774 
Q 986 774 1101 646 
Q 1216 518 1216 346 
z
" transform="scale(0.015625)"/>
       </defs>
       <use xlink:href="#Ubuntu-30"/>
       <use xlink:href="#Ubuntu-2e" x="56.399994"/>
       <use xlink:href="#Ubuntu-30" x="80.999985"/>
      </g>
     </g>
    </g>
    <g id="ytick_2">
     <g id="line2d_38">
      <g>
       <use xlink:href="#mb82a4f3885" x="27.1925" y="175.655" style="fill: #cecece; stroke: #cecece; stroke-width: 0.75"/>
      </g>
     </g>
     <g id="text_20">
      <!-- 0.5 -->
      <g style="fill: #808080" transform="translate(7.2 178.75875) scale(0.08 -0.08)">
       <defs>
        <path id="Ubuntu-35" d="M 1274 2726 
Q 2240 2688 2691 2304 
Q 3142 1920 3142 1261 
Q 3142 966 3043 716 
Q 2944 467 2742 288 
Q 2541 109 2233 6 
Q 1926 -96 1504 -96 
Q 1338 -96 1165 -70 
Q 992 -45 845 -6 
Q 698 32 582 70 
Q 467 109 416 134 
L 531 653 
Q 640 602 886 518 
Q 1133 435 1491 435 
Q 1779 435 1974 499 
Q 2170 563 2291 672 
Q 2413 781 2467 925 
Q 2522 1069 2522 1229 
Q 2522 1472 2438 1661 
Q 2355 1850 2144 1978 
Q 1933 2106 1581 2173 
Q 1229 2240 691 2240 
Q 730 2554 752 2829 
Q 774 3104 793 3366 
Q 813 3629 825 3888 
Q 838 4147 851 4435 
L 2989 4435 
L 2989 3930 
L 1370 3930 
Q 1363 3834 1350 3670 
Q 1338 3507 1325 3331 
Q 1312 3155 1299 2988 
Q 1286 2822 1274 2726 
z
" transform="scale(0.015625)"/>
       </defs>
       <use xlink:href="#Ubuntu-30"/>
       <use xlink:href="#Ubuntu-2e" x="56.399994"/>
       <use xlink:href="#Ubuntu-35" x="80.999985"/>
      </g>
     </g>
    </g>
    <g id="ytick_3">
     <g id="line2d_39">
      <g>
       <use xlink:href="#mb82a4f3885" x="27.1925" y="147.935" style="fill: #cecece; stroke: #cecece; stroke-width: 0.75"/>
      </g>
     </g>
     <g id="text_21">
      <!-- 1.0 -->
      <g style="fill: #808080" transform="translate(7.2 151.03875) scale(0.08 -0.08)">
       <use xlink:href="#Ubuntu-31"/>
       <use xlink:href="#Ubuntu-2e" x="56.399994"/>
       <use xlink:href="#Ubuntu-30" x="80.999985"/>
      </g>
     </g>
    </g>
    <g id="ytick_4">
     <g id="line2d_40">
      <g>
       <use xlink:href="#mb82a4f3885" x="27.1925" y="120.215" style="fill: #cecece; stroke: #cecece; stroke-width: 0.75"/>
      </g>
     </g>
     <g id="text_22">
      <!-- 1.5 -->
      <g style="fill: #808080" transform="translate(7.2 123.31875) scale(0.08 -0.08)">
       <use xlink:href="#Ubuntu-31"/>
       <use xlink:href="#Ubuntu-2e" x="56.399994"/>
       <use xlink:href="#Ubuntu-35" x="80.999985"/>
      </g>
     </g>
    </g>
    <g id="ytick_5">
     <g id="line2d_41">
      <g>
       <use xlink:href="#mb82a4f3885" x="27.1925" y="92.495" style="fill: #cecece; stroke: #cecece; stroke-width: 0.75"/>
      </g>
     </g>
     <g id="text_23">
      <!-- 2.0 -->
      <g style="fill: #808080" transform="translate(7.2 95.59875) scale(0.08 -0.08)">
       <use xlink:href="#Ubuntu-32"/>
       <use xlink:href="#Ubuntu-2e" x="56.399994"/>
       <use xlink:href="#Ubuntu-30" x="80.999985"/>
      </g>
     </g>
    </g>
    <g id="ytick_6">
     <g id="line2d_42">
      <g>
       <use xlink:href="#mb82a4f3885" x="27.1925" y="64.775" style="fill: #cecece; stroke: #cecece; stroke-width: 0.75"/>
      </g>
     </g>
     <g id="text_24">
      <!-- 2.5 -->
      <g style="fill: #808080" transform="translate(7.2 67.87875) scale(0.08 -0.08)">
       <use xlink:href="#Ubuntu-32"/>
       <use xlink:href="#Ubuntu-2e" x="56.399994"/>
       <use xlink:href="#Ubuntu-35" x="80.999985"/>
      </g>
     </g>
    </g>
    <g id="ytick_7">
     <g id="line2d_43">
      <g>
       <use xlink:href="#mb82a4f3885" x="27.1925" y="37.055" style="fill: #cecece; stroke: #cecece; stroke-width: 0.75"/>
      </g>
     </g>
     <g id="text_25">
      <!-- 3.0 -->
      <g style="fill: #808080" transform="translate(7.2 40.15875) scale(0.08 -0.08)">
       <use xlink:href="#Ubuntu-33"/>
       <use xlink:href="#Ubuntu-2e" x="56.399994"/>
       <use xlink:href="#Ubuntu-30" x="80.999985"/>
      </g>
     </g>
    </g>
   </g>
   <g id="line2d_44">
    <path d="M 32.1925 147.935 
L 33.828197 144.471359 
L 35.463894 141.969309 
L 37.099591 140.328402 
L 38.735287 139.448192 
L 40.370984 139.228231 
L 42.006681 139.568074 
L 43.642378 140.367273 
L 45.278075 141.525381 
L 46.913772 142.941951 
L 53.456559 149.183923 
L 55.092256 150.386104 
L 56.727953 151.244066 
L 58.363649 151.657952 
L 59.999346 151.590608 
L 61.635043 151.122353 
L 63.27074 150.346421 
L 66.542134 148.244457 
L 69.813527 146.030578 
L 71.449224 145.113709 
L 73.084921 144.404533 
L 74.720618 143.898064 
L 76.356315 143.585546 
L 77.992012 143.458226 
L 79.627708 143.507348 
L 81.263405 143.724156 
L 82.899102 144.099895 
L 84.534799 144.625615 
L 86.170496 145.288353 
L 89.441889 146.957935 
L 92.713283 148.974013 
L 97.620374 152.353901 
L 104.163161 157.131374 
L 109.070252 160.948764 
L 117.248736 167.502177 
L 120.520129 169.778165 
L 122.155826 170.758878 
L 123.791523 171.605397 
L 125.42722 172.287296 
L 127.062917 172.77161 
L 128.698614 173.025373 
L 130.334311 173.015619 
L 131.970007 172.709383 
L 133.605704 172.073697 
L 135.241401 171.075601 
L 136.877098 169.709429 
L 138.512795 168.06281 
L 145.055582 160.822605 
L 146.691279 159.386811 
L 148.326976 158.315562 
L 149.962673 157.65523 
L 151.598369 157.310062 
L 154.869763 157.101311 
L 156.50546 157.005773 
L 158.141157 156.76149 
L 159.776854 156.252484 
L 161.412551 155.363929 
L 163.048247 154.059641 
L 164.683944 152.431193 
L 167.955338 148.614932 
L 171.226732 144.741378 
L 172.862428 143.041312 
L 174.498125 141.634134 
L 176.133822 140.542125 
L 177.769519 139.697643 
L 181.040913 138.460917 
L 184.312306 137.343265 
L 185.948003 136.647624 
L 187.5837 135.768345 
L 190.855094 133.527184 
L 195.762184 129.880718 
L 197.397881 128.837343 
L 199.033578 127.983377 
L 200.669275 127.374167 
L 202.304972 126.998774 
L 203.940668 126.808248 
L 207.212062 126.784191 
L 212.119153 126.899582 
L 215.390546 126.584147 
L 225.204727 125.080381 
L 226.840424 125.065151 
L 228.476121 125.191446 
L 230.111818 125.482604 
L 231.747515 125.961964 
L 233.383212 126.652865 
L 235.018908 127.578645 
L 236.654605 128.762643 
L 238.290302 130.228179 
L 239.925999 131.975957 
L 243.197393 136.044322 
L 248.104483 142.416276 
L 249.74018 144.302071 
L 251.375877 145.93991 
L 253.011574 147.296955 
L 254.647271 148.429673 
L 257.918664 150.290871 
L 261.190058 152.060994 
L 262.825755 153.079867 
L 264.461452 154.276458 
L 267.732845 157.193196 
L 272.639936 161.98284 
L 274.275633 163.444238 
L 275.911329 164.735688 
L 277.547026 165.797889 
L 279.182723 166.620344 
L 280.81842 167.241363 
L 282.454117 167.701375 
L 285.725511 168.300104 
L 292.268298 169.280085 
L 295.539692 169.727274 
L 297.175388 169.795121 
L 298.811085 169.694504 
L 300.446782 169.376953 
L 302.082479 168.793993 
L 303.718176 167.903677 
L 305.353873 166.718429 
L 306.989569 165.277671 
L 308.625266 163.621019 
L 311.89666 159.818503 
L 316.803751 153.481574 
L 334.796416 129.89173 
L 338.067809 125.976633 
L 341.339203 122.385704 
L 342.9749 120.750844 
L 344.610597 119.27479 
L 346.246294 118.005835 
L 347.881991 116.992269 
L 349.517687 116.282383 
L 351.153384 115.92447 
L 352.789081 115.966819 
L 354.424778 116.45689 
L 356.060475 117.371981 
L 359.331868 119.884657 
L 360.967565 121.167518 
L 362.603262 122.258246 
L 364.238959 122.999478 
L 365.874656 123.233852 
L 367.510353 122.808706 
L 369.146049 121.733219 
L 370.781746 120.215502 
L 374.05314 116.734674 
L 375.688837 115.212212 
L 377.324534 114.12882 
L 378.960231 113.70482 
L 380.595927 114.148647 
L 382.231624 115.452611 
L 383.867321 117.420642 
L 385.503018 119.850365 
L 390.410108 127.885911 
L 392.045805 130.13863 
L 393.681502 131.858293 
L 395.317199 133.046701 
L 396.952896 133.820789 
L 398.588593 134.299177 
L 403.495683 135.146342 
L 405.13138 135.628131 
L 406.767077 136.390869 
L 408.402774 137.421121 
L 410.038471 138.65589 
L 413.309864 141.486231 
L 416.581258 144.376396 
L 418.216955 145.685946 
L 419.852652 146.835386 
L 423.124045 148.750713 
L 429.666833 152.141972 
L 432.938226 154.229707 
L 436.20962 156.711563 
L 444.388104 163.264195 
L 446.023801 164.408801 
L 447.659498 165.396864 
L 449.295195 166.166941 
L 450.930892 166.657587 
L 452.566588 166.80736 
L 454.202285 166.554816 
L 455.837982 165.838512 
L 457.473679 164.597935 
L 459.109376 162.825048 
L 460.745073 160.591265 
L 462.380769 157.974624 
L 465.652163 151.904904 
L 475.466344 132.222015 
L 478.737738 126.35058 
L 482.009132 121.125107 
L 483.644828 118.804798 
L 486.916222 114.742737 
L 490.187616 111.326397 
L 493.45901 108.403648 
L 496.730403 105.824994 
L 500.001797 103.56536 
L 501.637494 102.601407 
L 503.273191 101.775342 
L 504.908887 101.107647 
L 506.544584 100.618807 
L 508.180281 100.329303 
L 509.815978 100.25962 
L 511.451675 100.430241 
L 513.087372 100.861648 
L 514.723068 101.574325 
L 516.358765 102.588756 
L 517.994462 103.925424 
L 519.630159 105.604811 
L 521.265856 107.647401 
L 521.265856 107.647401 
" clip-path="url(#p66de7adac8)" style="fill: none; stroke-dasharray: 5.55,2.4; stroke-dashoffset: 0; stroke: #4f4f4f; stroke-width: 1.5"/>
   </g>
   <g id="line2d_45">
    <path d="M 32.1925 147.935 
L 33.872099 147.891084 
L 35.551697 147.642354 
L 37.231296 147.21062 
L 38.910895 146.617692 
L 42.270092 145.035501 
L 45.629289 143.070265 
L 57.38648 135.694586 
L 60.745677 134.129943 
L 65.784473 132.2387 
L 70.823269 130.331 
L 72.502868 129.575903 
L 74.182467 128.689562 
L 75.862065 127.613043 
L 77.541664 126.287409 
L 79.221263 124.653724 
L 80.900861 122.653052 
L 82.58046 120.226458 
L 84.260059 117.31685 
L 87.619256 110.434845 
L 89.298855 106.927808 
L 90.978453 103.696834 
L 92.658052 100.981986 
L 94.337651 99.023327 
L 96.017249 98.06092 
L 97.696848 98.311569 
L 99.376446 99.721663 
L 101.056045 102.063134 
L 102.735644 105.105007 
L 106.094841 112.366055 
L 109.454038 119.657 
L 111.133637 122.780185 
L 112.813236 125.481564 
L 114.492834 127.793807 
L 116.172433 129.749585 
L 117.852032 131.38157 
L 119.53163 132.722432 
L 121.211229 133.804843 
L 122.890828 134.661212 
L 124.570426 135.308249 
L 126.250025 135.738335 
L 127.929624 135.941753 
L 129.609222 135.908792 
L 131.288821 135.629735 
L 132.96842 135.094869 
L 134.648018 134.294481 
L 136.327617 133.222858 
L 138.007216 131.920844 
L 141.366413 128.909638 
L 144.72561 125.831357 
L 146.405209 124.445501 
L 148.084808 123.257 
L 149.764406 122.319673 
L 151.444005 121.617114 
L 153.123604 121.115359 
L 154.803202 120.780446 
L 158.1624 120.475294 
L 169.91959 120.15949 
L 173.278788 119.666444 
L 176.637985 118.818942 
L 181.676781 117.344304 
L 185.035978 116.671537 
L 186.715577 116.543 
L 188.395176 116.585611 
L 195.11357 117.20694 
L 196.793169 117.113807 
L 198.472768 116.776813 
L 200.152366 116.124598 
L 201.831965 115.13839 
L 203.511564 113.880929 
L 206.870761 110.831263 
L 211.909557 105.966195 
L 215.268754 103.251015 
L 223.666747 97.143908 
L 225.346346 95.645 
L 228.705543 92.143195 
L 233.744339 86.675961 
L 235.423938 85.103132 
L 237.103537 83.782921 
L 238.783135 82.791782 
L 240.462734 82.191493 
L 242.142333 82.021083 
L 243.821931 82.317628 
L 245.50153 83.118201 
L 247.181129 84.459877 
L 248.860727 86.37973 
L 250.540326 88.914835 
L 252.219925 92.093146 
L 253.899523 95.836612 
L 257.258721 104.432102 
L 262.297517 117.882991 
L 263.977115 121.925 
L 265.656714 125.53351 
L 267.336313 128.727356 
L 269.015911 131.558653 
L 270.69551 134.079518 
L 272.375109 136.342068 
L 275.734306 140.300686 
L 279.093503 143.819296 
L 282.452701 146.909013 
L 284.132299 148.221424 
L 285.811898 149.339873 
L 287.491497 150.235113 
L 289.171095 150.877896 
L 290.850694 151.242876 
L 292.530293 151.350074 
L 294.209891 151.248777 
L 297.569089 150.619798 
L 302.607885 149.357 
L 305.967082 148.794955 
L 311.005878 148.344064 
L 317.724273 147.799952 
L 322.763069 147.077268 
L 327.801865 146.066484 
L 332.840661 144.790623 
L 339.559055 142.806941 
L 346.27745 140.778254 
L 349.636647 140.036027 
L 351.316246 139.806942 
L 352.995844 139.700875 
L 354.675443 139.738763 
L 356.355042 139.922874 
L 359.714239 140.62057 
L 369.791831 143.271546 
L 373.151028 143.760734 
L 376.510226 143.979072 
L 379.869423 143.921 
L 383.22862 143.527335 
L 384.908219 143.122481 
L 386.587818 142.524393 
L 388.267416 141.692158 
L 389.947015 140.584863 
L 391.626614 139.161592 
L 393.306212 137.382325 
L 394.985811 135.260516 
L 398.345008 130.381781 
L 401.704206 125.346056 
L 403.383804 123.028011 
L 405.063403 120.981143 
L 406.743002 119.304466 
L 408.4226 118.045118 
L 410.102199 117.216769 
L 411.781798 116.832535 
L 413.461396 116.905527 
L 415.140995 117.44886 
L 416.820594 118.475647 
L 418.500192 119.999 
L 420.179791 122.009852 
L 421.85939 124.410405 
L 425.218587 129.900701 
L 428.577784 135.510058 
L 430.257383 138.059437 
L 431.936982 140.279742 
L 433.61658 142.117988 
L 435.296179 143.623321 
L 436.975778 144.853677 
L 438.655376 145.866988 
L 442.014574 147.474217 
L 453.771764 152.372848 
L 457.130962 153.299 
L 460.490159 153.760644 
L 463.849356 153.865849 
L 475.606547 153.568682 
L 478.965744 153.401471 
L 482.324941 153.001317 
L 485.684139 152.271046 
L 495.761731 149.501 
L 499.120928 148.974066 
L 502.480125 148.717184 
L 507.518921 148.669058 
L 522.635309 148.941991 
L 525.994507 148.795889 
L 529.353704 148.48347 
L 532.712901 147.962678 
L 534.3925 147.611 
L 534.3925 147.611 
" clip-path="url(#p66de7adac8)" style="fill: none; stroke: #88695b; stroke-width: 1.2; stroke-linecap: square"/>
   </g>
   <g id="line2d_46">
    <path d="M 32.1925 147.935 
L 33.872099 142.916013 
L 35.551697 139.26712 
L 37.231296 136.851753 
L 38.910895 135.533342 
L 40.590493 135.175318 
L 42.270092 135.641112 
L 43.949691 136.794155 
L 45.629289 138.497879 
L 47.308888 140.615712 
L 50.668085 145.547435 
L 54.027283 150.496771 
L 55.706881 152.636621 
L 57.38648 154.371167 
L 59.066079 155.575738 
L 60.745677 156.263975 
L 62.425276 156.538754 
L 64.104875 156.504438 
L 67.464072 155.925975 
L 70.823269 155.363491 
L 72.502868 155.329579 
L 74.182467 155.495338 
L 75.862065 155.847717 
L 77.541664 156.373666 
L 79.221263 157.060134 
L 80.900861 157.89407 
L 84.260059 159.952059 
L 87.619256 162.412948 
L 96.017249 168.933986 
L 99.376446 171.141877 
L 102.735644 173.02525 
L 106.094841 174.664551 
L 111.133637 176.838433 
L 114.492834 178.118644 
L 117.852032 179.155038 
L 121.211229 179.840215 
L 122.890828 180.017461 
L 124.570426 180.062127 
L 126.250025 179.949606 
L 127.929624 179.654713 
L 129.609222 179.15226 
L 131.288821 178.417062 
L 132.96842 177.423933 
L 134.648018 176.147684 
L 136.327617 174.569097 
L 139.686814 170.750123 
L 143.046012 166.68412 
L 144.72561 164.797492 
L 146.405209 163.135918 
L 148.084808 161.795 
L 149.764406 160.839344 
L 151.444005 160.209555 
L 153.123604 159.815242 
L 159.841998 158.784883 
L 161.521597 158.212947 
L 163.201196 157.389543 
L 164.880794 156.361922 
L 168.239992 153.911623 
L 173.278788 150.06453 
L 176.637985 147.951035 
L 181.676781 145.30699 
L 185.035978 143.487059 
L 188.395176 141.31572 
L 191.754373 139.022703 
L 193.433972 138.05373 
L 195.11357 137.326387 
L 196.793169 136.933127 
L 198.472768 136.966402 
L 200.152366 137.517254 
L 201.831965 138.591941 
L 203.511564 140.065313 
L 206.870761 143.662288 
L 210.229958 147.216533 
L 211.909557 148.636494 
L 213.589156 149.648849 
L 215.268754 150.274239 
L 216.948353 150.626626 
L 221.987149 151.200969 
L 223.666747 151.616541 
L 225.346346 152.336707 
L 227.025945 153.444024 
L 228.705543 154.889199 
L 230.385142 156.589977 
L 233.744339 160.42932 
L 237.103537 164.304013 
L 238.783135 166.049537 
L 240.462734 167.59186 
L 242.142333 168.934985 
L 243.821931 170.087397 
L 245.50153 171.057579 
L 247.181129 171.854016 
L 248.860727 172.485192 
L 250.540326 172.959591 
L 253.899523 173.50551 
L 258.938319 174.012591 
L 260.617918 174.306042 
L 262.297517 174.748236 
L 263.977115 175.391093 
L 265.656714 176.262356 
L 272.375109 180.410572 
L 274.054707 181.147754 
L 275.734306 181.578721 
L 277.413905 181.611487 
L 279.093503 181.222756 
L 280.773102 180.495713 
L 282.452701 179.522699 
L 289.171095 175.017775 
L 290.850694 174.192294 
L 292.530293 173.569397 
L 295.88949 172.676462 
L 299.248687 171.824334 
L 300.928286 171.252447 
L 302.607885 170.497412 
L 304.287483 169.512063 
L 305.967082 168.318379 
L 309.326279 165.463066 
L 319.403871 155.812622 
L 322.763069 152.485366 
L 326.122266 148.677215 
L 327.801865 146.49262 
L 329.481463 144.072822 
L 332.840661 138.671329 
L 339.559055 127.465376 
L 341.238654 124.965324 
L 342.918253 122.718371 
L 344.597851 120.792537 
L 346.27745 119.256232 
L 347.957048 118.177867 
L 349.636647 117.625852 
L 351.316246 117.668598 
L 352.995844 118.374517 
L 354.675443 119.810259 
L 356.355042 121.936901 
L 358.03464 124.551882 
L 363.073436 133.16048 
L 364.753035 135.562437 
L 366.432634 137.369542 
L 368.112232 138.388165 
L 369.791831 138.692124 
L 371.47143 138.52779 
L 374.830627 137.791217 
L 376.510226 137.717468 
L 378.189824 138.172403 
L 379.869423 139.405268 
L 381.549022 141.581476 
L 383.22862 144.531116 
L 384.908219 148.000447 
L 389.947015 158.989169 
L 391.626614 161.999848 
L 393.306212 164.264145 
L 394.985811 165.689091 
L 396.66541 166.426828 
L 398.345008 166.650584 
L 400.024607 166.533585 
L 403.383804 165.970233 
L 405.063403 165.870333 
L 406.743002 166.109575 
L 408.4226 166.696917 
L 410.102199 167.54373 
L 413.461396 169.654747 
L 416.820594 171.720585 
L 418.500192 172.510924 
L 420.179791 173.038951 
L 421.85939 173.313157 
L 423.538988 173.361781 
L 425.218587 173.213063 
L 426.898186 172.895241 
L 430.257383 171.865245 
L 435.296179 169.779701 
L 438.655376 168.446964 
L 440.334975 167.913306 
L 442.014574 167.519466 
L 443.694172 167.303953 
L 445.373771 167.299569 
L 448.732968 167.747296 
L 452.092166 168.292046 
L 453.771764 168.408228 
L 455.451363 168.317574 
L 457.130962 167.943054 
L 458.81056 167.225088 
L 460.490159 166.173904 
L 462.169758 164.817182 
L 463.849356 163.182603 
L 465.528955 161.297845 
L 467.208554 159.190588 
L 470.567751 154.419406 
L 473.926948 149.127585 
L 480.645343 138.392363 
L 484.00454 133.670688 
L 487.363737 129.624358 
L 490.722935 126.016014 
L 500.800527 115.759089 
L 502.480125 114.441751 
L 504.159724 113.487852 
L 505.839323 113.002839 
L 507.518921 113.092155 
L 509.19852 113.859846 
L 510.878119 115.326014 
L 512.557717 117.380649 
L 514.237316 119.902547 
L 515.916915 122.770505 
L 524.314908 138.059097 
L 525.994507 140.458153 
L 527.674105 142.354848 
L 529.353704 143.627979 
L 531.033303 144.156343 
L 532.712901 143.818736 
L 534.3925 142.493956 
L 534.3925 142.493956 
" clip-path="url(#p66de7adac8)" style="fill: none; stroke: #5a9e88; stroke-width: 1.2; stroke-linecap: square"/>
   </g>
   <g id="line2d_47">
    <path d="M 32.1925 147.935 
L 33.872099 146.501918 
L 35.551697 145.39904 
L 37.231296 144.598234 
L 38.910895 144.071373 
L 40.590493 143.790326 
L 42.270092 143.726965 
L 43.949691 143.853161 
L 45.629289 144.140785 
L 48.988487 145.087797 
L 52.347684 146.342968 
L 57.38648 148.311264 
L 60.745677 149.383879 
L 65.784473 150.637539 
L 72.502868 152.181257 
L 75.862065 153.108302 
L 79.221263 154.231045 
L 82.58046 155.613253 
L 85.939657 157.309194 
L 89.298855 159.262719 
L 99.376446 165.408245 
L 112.813236 172.860495 
L 116.172433 174.540773 
L 117.852032 175.219257 
L 119.53163 175.743631 
L 121.211229 176.07914 
L 122.890828 176.191234 
L 124.570426 176.057676 
L 126.250025 175.675317 
L 127.929624 175.042648 
L 129.609222 174.158159 
L 131.288821 173.020343 
L 132.96842 171.62769 
L 134.648018 169.978692 
L 136.327617 168.076322 
L 139.686814 163.765342 
L 143.046012 159.3728 
L 144.72561 157.369036 
L 146.405209 155.612594 
L 148.084808 154.19271 
L 149.764406 153.174202 
L 151.444005 152.5242 
L 153.123604 152.185417 
L 154.803202 152.100563 
L 156.482801 152.212349 
L 159.841998 152.796685 
L 164.880794 153.777614 
L 168.239992 154.084651 
L 169.91959 154.049571 
L 171.599189 153.851322 
L 173.278788 153.461826 
L 174.958386 152.857371 
L 176.637985 152.065018 
L 179.997182 150.156425 
L 183.35638 148.218389 
L 185.035978 147.389233 
L 186.715577 146.7338 
L 188.395176 146.284117 
L 193.433972 145.24316 
L 195.11357 144.6334 
L 196.793169 143.709517 
L 198.472768 142.361869 
L 200.152366 140.482768 
L 201.831965 138.081634 
L 208.55036 127.231819 
L 210.229958 125.240842 
L 211.909557 123.951574 
L 213.589156 123.551671 
L 215.268754 124.009028 
L 216.948353 125.149757 
L 218.627952 126.797611 
L 221.987149 130.909692 
L 223.666747 133.021421 
L 225.346346 134.935276 
L 227.025945 136.520618 
L 228.705543 137.829247 
L 232.064741 140.006002 
L 235.423938 142.244819 
L 237.103537 143.631024 
L 238.783135 145.323743 
L 240.462734 147.345287 
L 243.821931 151.996289 
L 247.181129 156.77766 
L 248.860727 158.962164 
L 250.540326 160.873178 
L 252.219925 162.41743 
L 253.899523 163.603445 
L 255.579122 164.505421 
L 257.258721 165.198651 
L 263.977115 167.389979 
L 265.656714 168.148805 
L 269.015911 169.989025 
L 274.054707 172.878553 
L 275.734306 173.695589 
L 277.413905 174.36459 
L 279.093503 174.857536 
L 280.773102 175.172525 
L 282.452701 175.309901 
L 284.132299 175.270008 
L 285.811898 175.053189 
L 287.491497 174.659788 
L 289.171095 174.09015 
L 290.850694 173.34607 
L 292.530293 172.446241 
L 295.88949 170.297884 
L 305.967082 163.184703 
L 309.326279 161.244403 
L 312.685477 159.724216 
L 314.365075 159.154505 
L 316.044674 158.728818 
L 319.403871 158.222262 
L 322.763069 157.823875 
L 324.442667 157.530081 
L 326.122266 157.101131 
L 327.801865 156.482961 
L 329.481463 155.626782 
L 331.161062 154.545169 
L 334.520259 151.914938 
L 341.238654 146.265428 
L 344.597851 143.960667 
L 349.636647 140.791058 
L 352.995844 138.343127 
L 354.675443 136.884033 
L 358.03464 133.515479 
L 361.393838 130.01467 
L 363.073436 128.396067 
L 364.753035 126.962079 
L 366.432634 125.785264 
L 368.112232 124.934679 
L 369.791831 124.438661 
L 371.47143 124.299279 
L 373.151028 124.518162 
L 374.830627 125.096939 
L 376.510226 126.037239 
L 378.189824 127.340694 
L 379.869423 129.008931 
L 381.549022 131.031233 
L 383.22862 133.347488 
L 386.587818 138.572018 
L 391.626614 146.80197 
L 394.985811 151.725704 
L 396.66541 153.87378 
L 398.345008 155.783908 
L 400.024607 157.435158 
L 401.704206 158.806597 
L 403.383804 159.877297 
L 405.063403 160.626327 
L 406.743002 161.0385 
L 408.4226 161.165406 
L 411.781798 160.942817 
L 415.140995 160.720947 
L 416.820594 160.848753 
L 418.500192 161.262903 
L 420.179791 162.024374 
L 421.85939 163.05649 
L 426.898186 166.66582 
L 428.577784 167.669629 
L 430.257383 168.388641 
L 431.936982 168.7128 
L 433.61658 168.594009 
L 435.296179 168.080208 
L 436.975778 167.227599 
L 438.655376 166.092384 
L 440.334975 164.730764 
L 443.694172 161.553118 
L 448.732968 156.341563 
L 460.490159 143.968275 
L 463.849356 140.823444 
L 465.528955 139.428239 
L 467.208554 138.185817 
L 468.888152 137.122157 
L 470.567751 136.262741 
L 472.247349 135.603079 
L 475.606547 134.675229 
L 480.645343 133.437984 
L 482.324941 132.847002 
L 484.00454 132.080217 
L 487.363737 130.092572 
L 494.082132 125.622861 
L 495.761731 124.678876 
L 497.441329 123.886461 
L 500.800527 122.68156 
L 504.159724 121.795653 
L 509.19852 120.572791 
L 515.916915 118.564298 
L 519.276112 117.616432 
L 522.635309 116.88347 
L 525.994507 116.498401 
L 527.674105 116.477885 
L 529.353704 116.594212 
L 531.033303 116.864006 
L 532.712901 117.303891 
L 534.3925 117.93049 
L 534.3925 117.93049 
" clip-path="url(#p66de7adac8)" style="fill: none; stroke: #bd6360; stroke-width: 1.2; stroke-linecap: square"/>
   </g>
   <g id="line2d_48">
    <path d="M 32.1925 147.935 
L 33.872099 147.946635 
L 35.551697 147.814817 
L 38.910895 147.191469 
L 42.270092 146.206245 
L 47.308888 144.35896 
L 52.347684 142.492203 
L 55.706881 141.472361 
L 59.066079 140.794222 
L 67.464072 139.783287 
L 69.143671 139.385192 
L 70.823269 138.827568 
L 72.502868 138.084281 
L 75.862065 136.178423 
L 82.58046 131.952726 
L 84.260059 131.072978 
L 85.939657 130.339588 
L 87.619256 129.761319 
L 89.298855 129.345049 
L 90.978453 129.097653 
L 92.658052 129.026008 
L 94.337651 129.136991 
L 96.017249 129.437477 
L 97.696848 129.931595 
L 101.056045 131.368792 
L 107.77444 134.675669 
L 109.454038 135.307884 
L 111.133637 135.778017 
L 112.813236 136.10378 
L 116.172433 136.44624 
L 124.570426 136.929916 
L 129.609222 137.667699 
L 138.007216 139.012799 
L 159.841998 141.770823 
L 164.880794 142.205512 
L 168.239992 142.286854 
L 171.599189 142.117686 
L 174.958386 141.629153 
L 179.997182 140.630966 
L 181.676781 140.427164 
L 183.35638 140.375071 
L 185.035978 140.527035 
L 186.715577 140.935402 
L 188.395176 141.612998 
L 191.754373 143.155313 
L 193.433972 143.650465 
L 195.11357 143.715237 
L 196.793169 143.164845 
L 198.472768 141.814507 
L 200.152366 139.482271 
L 201.831965 136.156112 
L 203.511564 132.087388 
L 210.229958 113.867124 
L 211.909557 110.195788 
L 213.589156 107.402783 
L 215.268754 105.469329 
L 216.948353 104.202713 
L 218.627952 103.407322 
L 223.666747 101.892376 
L 225.346346 101.02576 
L 227.025945 99.713164 
L 228.705543 98.063266 
L 232.064741 94.429709 
L 233.744339 92.785121 
L 235.423938 91.481376 
L 237.103537 90.688009 
L 238.783135 90.572508 
L 240.462734 91.179408 
L 242.142333 92.362674 
L 243.821931 93.959876 
L 250.540326 101.239446 
L 252.219925 102.48276 
L 253.899523 103.340922 
L 255.579122 103.910712 
L 258.938319 104.578739 
L 262.297517 105.273965 
L 263.977115 105.877755 
L 265.656714 106.766898 
L 267.336313 107.956698 
L 269.015911 109.445838 
L 270.69551 111.233001 
L 272.375109 113.316872 
L 274.054707 115.696135 
L 275.734306 118.369474 
L 277.413905 121.334837 
L 280.773102 127.888097 
L 284.132299 134.482707 
L 285.811898 137.493861 
L 287.491497 140.153366 
L 289.171095 142.340558 
L 290.850694 143.945781 
L 292.530293 144.987299 
L 294.209891 145.56591 
L 295.88949 145.783787 
L 297.569089 145.743102 
L 304.287483 145.014219 
L 307.646681 145.143035 
L 312.685477 145.417307 
L 314.365075 145.363155 
L 316.044674 145.166886 
L 317.724273 144.806982 
L 319.403871 144.292847 
L 321.08347 143.636544 
L 324.442667 141.945686 
L 327.801865 139.830911 
L 331.161062 137.335414 
L 332.840661 135.856654 
L 334.520259 134.147996 
L 336.199858 132.152414 
L 337.879457 129.812884 
L 339.559055 127.072382 
L 341.238654 123.873881 
L 342.918253 120.202073 
L 349.636647 104.229944 
L 351.316246 100.88202 
L 352.995844 98.178672 
L 354.675443 96.310496 
L 356.355042 95.307817 
L 358.03464 94.952541 
L 359.714239 95.005206 
L 363.073436 95.37651 
L 364.753035 95.216223 
L 366.432634 94.506026 
L 368.112232 93.025955 
L 369.791831 90.782699 
L 371.47143 87.929181 
L 373.151028 84.620757 
L 376.510226 77.260622 
L 379.869423 69.945158 
L 381.549022 66.676887 
L 383.22862 63.791748 
L 384.908219 61.350992 
L 386.587818 59.415868 
L 388.267416 58.047626 
L 389.947015 57.307516 
L 391.626614 57.256788 
L 393.306212 57.955488 
L 394.985811 59.391547 
L 396.66541 61.441106 
L 398.345008 63.970694 
L 401.704206 69.93606 
L 405.063403 76.219865 
L 408.4226 81.915767 
L 415.140995 92.649441 
L 416.820594 95.63713 
L 418.500192 98.898042 
L 421.85939 106.292791 
L 426.898186 118.04973 
L 428.577784 121.699699 
L 430.257383 125.029207 
L 431.936982 127.927682 
L 433.61658 130.344755 
L 435.296179 132.323363 
L 436.975778 133.914471 
L 438.655376 135.169045 
L 440.334975 136.13805 
L 442.014574 136.872451 
L 443.694172 137.423212 
L 447.05337 138.146614 
L 450.412567 138.478408 
L 453.771764 138.504501 
L 457.130962 138.310552 
L 462.169758 137.780497 
L 472.247349 136.62508 
L 477.286145 136.082132 
L 480.645343 135.481629 
L 484.00454 134.5234 
L 487.363737 133.195197 
L 495.761731 129.541169 
L 499.120928 128.445375 
L 502.480125 127.624025 
L 505.839323 127.012947 
L 510.878119 126.354766 
L 515.916915 125.956009 
L 519.276112 125.87616 
L 522.635309 125.977868 
L 525.994507 126.289219 
L 529.353704 126.838297 
L 532.712901 127.653187 
L 534.3925 128.169089 
L 534.3925 128.169089 
" clip-path="url(#p66de7adac8)" style="fill: none; stroke: #638fb3; stroke-width: 1.2; stroke-linecap: square"/>
   </g>
   <g id="line2d_49">
    <path d="M 32.1925 147.935 
L 33.872099 148.009449 
L 35.551697 147.866231 
L 37.231296 147.526194 
L 38.910895 147.010184 
L 40.590493 146.339049 
L 43.949691 144.614791 
L 47.308888 142.5202 
L 59.066079 134.678919 
L 62.425276 132.875917 
L 67.464072 130.48404 
L 72.502868 128.137313 
L 74.182467 127.211391 
L 75.862065 126.067538 
L 77.541664 124.606637 
L 79.221263 122.729572 
L 80.900861 120.337226 
L 82.58046 117.330482 
L 84.260059 113.612292 
L 85.939657 109.209637 
L 89.298855 99.244402 
L 92.658052 89.304401 
L 94.337651 84.93329 
L 96.017249 81.275797 
L 97.696848 78.555071 
L 99.376446 76.847504 
L 101.056045 76.134813 
L 102.735644 76.397135 
L 104.415242 77.614609 
L 106.094841 79.767371 
L 107.77444 82.83556 
L 109.454038 86.799313 
L 111.133637 91.599525 
L 114.492834 102.805758 
L 117.852032 114.450909 
L 119.53163 119.799768 
L 121.211229 124.492384 
L 122.890828 128.275968 
L 124.570426 131.049881 
L 126.250025 132.949314 
L 127.929624 134.129744 
L 129.609222 134.746647 
L 131.288821 134.955502 
L 134.648018 134.770975 
L 138.007216 134.687428 
L 141.366413 134.93491 
L 146.405209 135.643343 
L 153.123604 136.574774 
L 156.482801 136.856016 
L 159.841998 136.94048 
L 163.201196 136.777268 
L 166.560393 136.362621 
L 169.91959 135.723195 
L 173.278788 134.886148 
L 183.35638 132.001102 
L 186.715577 131.44279 
L 191.754373 131.04391 
L 193.433972 130.710032 
L 195.11357 130.117431 
L 196.793169 129.17115 
L 198.472768 127.776232 
L 200.152366 125.839195 
L 201.831965 123.355204 
L 203.511564 120.45682 
L 211.909557 104.80232 
L 213.589156 102.439592 
L 215.268754 100.537205 
L 216.948353 99.038763 
L 218.627952 97.886623 
L 220.30755 97.023142 
L 221.987149 96.390676 
L 223.666747 95.931583 
L 227.025945 95.317706 
L 228.705543 95.136228 
L 230.385142 95.074732 
L 232.064741 95.164168 
L 233.744339 95.435483 
L 235.423938 95.919627 
L 237.103537 96.647546 
L 238.783135 97.64965 
L 240.462734 98.923904 
L 242.142333 100.417986 
L 245.50153 103.839053 
L 250.540326 109.203217 
L 253.899523 112.358156 
L 258.938319 116.845681 
L 260.617918 118.488236 
L 262.297517 120.2926 
L 263.977115 122.311845 
L 265.656714 124.579241 
L 269.015911 129.654906 
L 274.054707 137.634411 
L 277.413905 142.431501 
L 279.093503 144.503948 
L 280.773102 146.349571 
L 282.452701 147.975324 
L 284.132299 149.388162 
L 285.811898 150.595038 
L 287.491497 151.602906 
L 289.171095 152.418722 
L 290.850694 153.050373 
L 292.530293 153.516593 
L 294.209891 153.843116 
L 297.569089 154.18047 
L 302.607885 154.285021 
L 309.326279 154.298409 
L 312.685477 154.047733 
L 316.044674 153.439071 
L 319.403871 152.381997 
L 322.763069 150.907034 
L 326.122266 149.062903 
L 329.481463 146.899265 
L 339.559055 139.913111 
L 342.918253 138.078324 
L 346.27745 136.688925 
L 349.636647 135.682466 
L 352.995844 134.990883 
L 356.355042 134.547636 
L 359.714239 134.303963 
L 364.753035 134.231125 
L 371.47143 134.371683 
L 373.151028 134.285036 
L 374.830627 134.069785 
L 376.510226 133.685272 
L 378.189824 133.090842 
L 379.869423 132.245837 
L 381.549022 131.118712 
L 383.22862 129.714363 
L 384.908219 128.046799 
L 386.587818 126.130029 
L 388.267416 123.978058 
L 389.947015 121.604897 
L 393.306212 116.251572 
L 400.024607 104.693884 
L 401.704206 102.191924 
L 403.383804 100.048241 
L 405.063403 98.364483 
L 406.743002 97.235241 
L 408.4226 96.673093 
L 410.102199 96.637709 
L 411.781798 97.087874 
L 413.461396 97.982373 
L 415.140995 99.279994 
L 416.820594 100.939522 
L 418.500192 102.919742 
L 420.179791 105.176221 
L 423.538988 110.285437 
L 430.257383 121.193659 
L 433.61658 126.048125 
L 435.296179 128.200784 
L 436.975778 130.170239 
L 438.655376 131.95713 
L 440.334975 133.562094 
L 442.014574 134.985771 
L 443.694172 136.228802 
L 445.373771 137.2927 
L 447.05337 138.18917 
L 448.732968 138.936489 
L 452.092166 140.057222 
L 455.451363 140.801991 
L 458.81056 141.315134 
L 463.849356 141.807967 
L 468.888152 142.017872 
L 473.926948 141.964349 
L 477.286145 141.679756 
L 480.645343 141.07961 
L 484.00454 140.065755 
L 487.363737 138.657773 
L 495.761731 134.773948 
L 499.120928 133.594725 
L 502.480125 132.674881 
L 507.518921 131.578036 
L 515.916915 129.815541 
L 520.955711 128.513689 
L 524.314908 127.455916 
L 527.674105 126.196979 
L 531.033303 124.694649 
L 534.3925 122.906695 
L 534.3925 122.906695 
" clip-path="url(#p66de7adac8)" style="fill: none; stroke: #c98d65; stroke-width: 1.2; stroke-linecap: square"/>
   </g>
   <g id="patch_4">
    <path d="M 27.1925 203.375 
L 27.1925 37.055 
" style="fill: none; stroke: #cccccc; stroke-width: 0.75; stroke-linejoin: miter; stroke-linecap: square"/>
   </g>
   <g id="patch_5">
    <path d="M 32.1925 208.375 
L 534.3925 208.375 
" style="fill: none; stroke: #cccccc; stroke-width: 0.75; stroke-linejoin: miter; stroke-linecap: square"/>
   </g>
   <g id="legend_1">
    <g id="line2d_50">
     <path d="M 39.3925 13.86375 
L 44.7925 13.86375 
L 50.1925 13.86375 
" style="fill: none; stroke-dasharray: 5.55,2.4; stroke-dashoffset: 0; stroke: #4f4f4f; stroke-width: 1.5"/>
    </g>
    <g id="text_26">
     <!-- Овощи (средняя цена у производителей) -->
     <g style="fill: #4b4b4b" transform="translate(56.5925 16.66375) scale(0.08 -0.08)">
      <defs>
       <path id="Ubuntu-43e" d="M 3450 1664 
Q 3450 1267 3334 947 
Q 3219 627 3011 396 
Q 2803 166 2515 41 
Q 2227 -83 1888 -83 
Q 1549 -83 1261 41 
Q 973 166 765 396 
Q 557 627 441 947 
Q 326 1267 326 1664 
Q 326 2054 441 2377 
Q 557 2701 765 2931 
Q 973 3162 1261 3286 
Q 1549 3411 1888 3411 
Q 2227 3411 2515 3286 
Q 2803 3162 3011 2931 
Q 3219 2701 3334 2377 
Q 3450 2054 3450 1664 
z
M 2829 1664 
Q 2829 2227 2576 2556 
Q 2323 2886 1888 2886 
Q 1453 2886 1200 2556 
Q 947 2227 947 1664 
Q 947 1101 1200 771 
Q 1453 442 1888 442 
Q 2323 442 2576 771 
Q 2829 1101 2829 1664 
z
" transform="scale(0.015625)"/>
       <path id="Ubuntu-449" d="M 512 0 
L 512 3328 
L 1107 3328 
L 1107 493 
L 2336 493 
L 2336 3328 
L 2931 3328 
L 2931 493 
L 4160 493 
L 4160 3328 
L 4755 3328 
L 4755 493 
L 5203 493 
L 5203 -928 
L 4640 -928 
L 4640 0 
L 512 0 
z
" transform="scale(0.015625)"/>
       <path id="Ubuntu-438" d="M 3309 3328 
L 3309 0 
L 2733 0 
L 2733 2534 
Q 2541 2291 2310 1964 
Q 2080 1638 1849 1289 
Q 1619 941 1408 601 
Q 1197 262 1043 0 
L 512 0 
L 512 3328 
L 1088 3328 
L 1088 934 
Q 1254 1210 1465 1539 
Q 1677 1869 1904 2192 
Q 2131 2515 2358 2812 
Q 2586 3110 2784 3328 
L 3309 3328 
z
" transform="scale(0.015625)"/>
       <path id="Ubuntu-20" transform="scale(0.015625)"/>
       <path id="Ubuntu-28" d="M 1094 1914 
Q 1094 1094 1331 396 
Q 1568 -301 2029 -896 
L 1606 -1184 
Q 1107 -576 803 214 
Q 499 1005 499 1914 
Q 499 2822 803 3612 
Q 1107 4403 1606 5011 
L 2029 4723 
Q 1568 4128 1331 3430 
Q 1094 2733 1094 1914 
z
" transform="scale(0.015625)"/>
       <path id="Ubuntu-441" d="M 1958 -77 
Q 1555 -77 1251 51 
Q 947 179 739 409 
Q 531 640 428 957 
Q 326 1274 326 1658 
Q 326 2042 438 2362 
Q 550 2682 755 2915 
Q 960 3149 1257 3280 
Q 1555 3411 1920 3411 
Q 2144 3411 2368 3372 
Q 2592 3334 2797 3251 
L 2662 2746 
Q 2528 2810 2352 2848 
Q 2176 2886 1978 2886 
Q 1478 2886 1212 2572 
Q 947 2259 947 1658 
Q 947 1389 1008 1165 
Q 1069 941 1200 781 
Q 1331 621 1536 534 
Q 1741 448 2035 448 
Q 2272 448 2464 493 
Q 2656 538 2765 589 
L 2848 90 
Q 2797 58 2701 29 
Q 2605 0 2483 -22 
Q 2362 -45 2224 -61 
Q 2086 -77 1958 -77 
z
" transform="scale(0.015625)"/>
       <path id="Ubuntu-435" d="M 326 1658 
Q 326 2099 454 2428 
Q 582 2758 793 2976 
Q 1005 3194 1280 3302 
Q 1555 3411 1843 3411 
Q 2515 3411 2873 2992 
Q 3232 2573 3232 1715 
Q 3232 1677 3232 1616 
Q 3232 1555 3226 1504 
L 947 1504 
Q 986 986 1248 717 
Q 1510 448 2067 448 
Q 2381 448 2595 502 
Q 2810 557 2918 608 
L 3002 109 
Q 2893 51 2621 -13 
Q 2349 -77 2003 -77 
Q 1568 -77 1251 54 
Q 934 186 729 416 
Q 525 646 425 963 
Q 326 1280 326 1658 
z
M 2611 1984 
Q 2618 2387 2410 2646 
Q 2202 2906 1837 2906 
Q 1632 2906 1475 2826 
Q 1318 2746 1209 2618 
Q 1101 2490 1040 2323 
Q 979 2157 960 1984 
L 2611 1984 
z
" transform="scale(0.015625)"/>
       <path id="Ubuntu-434" d="M 102 486 
L 461 486 
Q 672 794 797 1120 
Q 922 1446 986 1795 
Q 1050 2144 1069 2525 
Q 1088 2906 1094 3328 
L 3277 3328 
L 3277 486 
L 3725 486 
L 3725 -928 
L 3162 -928 
L 3162 0 
L 666 0 
L 666 -928 
L 102 -928 
L 102 486 
z
M 2682 486 
L 2682 2829 
L 1638 2829 
Q 1632 2528 1606 2224 
Q 1581 1920 1523 1622 
Q 1466 1325 1360 1040 
Q 1254 755 1094 486 
L 2682 486 
z
" transform="scale(0.015625)"/>
       <path id="Ubuntu-44f" d="M 1888 1293 
Q 1792 1293 1702 1296 
Q 1613 1299 1530 1306 
Q 1325 998 1136 649 
Q 947 301 800 0 
L 198 0 
Q 275 186 377 381 
Q 480 576 585 761 
Q 691 947 800 1113 
Q 909 1280 1005 1414 
Q 826 1478 710 1571 
Q 595 1664 524 1779 
Q 454 1894 425 2025 
Q 397 2157 397 2291 
Q 397 2573 502 2784 
Q 608 2995 793 3132 
Q 979 3270 1232 3340 
Q 1485 3411 1786 3411 
Q 2208 3411 2502 3372 
Q 2797 3334 2995 3283 
L 2995 0 
L 2406 0 
L 2406 1293 
L 1888 1293 
z
M 2406 2886 
Q 2336 2899 2173 2912 
Q 2010 2925 1798 2925 
Q 1434 2925 1210 2774 
Q 986 2624 986 2298 
Q 986 1978 1216 1856 
Q 1446 1734 1811 1734 
L 2406 1734 
L 2406 2886 
z
" transform="scale(0.015625)"/>
       <path id="Ubuntu-446" d="M 3168 493 
L 3616 493 
L 3616 -928 
L 3053 -928 
L 3053 0 
L 512 0 
L 512 3328 
L 1107 3328 
L 1107 493 
L 2573 493 
L 2573 3328 
L 3168 3328 
L 3168 493 
z
" transform="scale(0.015625)"/>
       <path id="Ubuntu-430" d="M 1638 429 
Q 1850 429 2013 438 
Q 2176 448 2285 474 
L 2285 1466 
Q 2221 1498 2077 1520 
Q 1933 1542 1728 1542 
Q 1594 1542 1443 1523 
Q 1293 1504 1168 1443 
Q 1043 1382 960 1276 
Q 877 1171 877 998 
Q 877 678 1081 553 
Q 1286 429 1638 429 
z
M 1587 3411 
Q 1946 3411 2192 3318 
Q 2438 3226 2588 3056 
Q 2739 2886 2803 2652 
Q 2867 2419 2867 2138 
L 2867 58 
Q 2790 45 2652 22 
Q 2515 0 2342 -19 
Q 2170 -38 1968 -54 
Q 1766 -70 1568 -70 
Q 1286 -70 1049 -12 
Q 813 45 640 169 
Q 467 294 371 499 
Q 275 704 275 992 
Q 275 1267 387 1465 
Q 499 1664 691 1785 
Q 883 1907 1139 1964 
Q 1395 2022 1677 2022 
Q 1766 2022 1862 2012 
Q 1958 2003 2044 1987 
Q 2131 1971 2195 1958 
Q 2259 1946 2285 1939 
L 2285 2106 
Q 2285 2253 2253 2397 
Q 2221 2541 2137 2653 
Q 2054 2765 1910 2832 
Q 1766 2899 1536 2899 
Q 1242 2899 1021 2857 
Q 800 2816 691 2771 
L 621 3264 
Q 736 3315 1005 3363 
Q 1274 3411 1587 3411 
z
" transform="scale(0.015625)"/>
       <path id="Ubuntu-443" d="M 122 -621 
Q 192 -653 304 -681 
Q 416 -710 525 -710 
Q 877 -710 1075 -553 
Q 1274 -397 1434 -45 
Q 1030 723 681 1584 
Q 333 2445 102 3328 
L 742 3328 
Q 813 3040 912 2707 
Q 1011 2374 1132 2022 
Q 1254 1670 1395 1318 
Q 1536 966 1690 640 
Q 1933 1312 2112 1971 
Q 2291 2630 2451 3328 
L 3066 3328 
Q 2835 2387 2553 1520 
Q 2272 653 1946 -102 
Q 1818 -390 1680 -598 
Q 1542 -806 1376 -940 
Q 1210 -1075 1002 -1139 
Q 794 -1203 531 -1203 
Q 461 -1203 384 -1193 
Q 307 -1184 233 -1168 
Q 160 -1152 99 -1133 
Q 38 -1114 13 -1101 
L 122 -621 
z
" transform="scale(0.015625)"/>
       <path id="Ubuntu-437" d="M 1357 3411 
Q 1645 3411 1894 3353 
Q 2144 3296 2323 3181 
Q 2502 3066 2604 2893 
Q 2707 2720 2707 2490 
Q 2707 2342 2656 2220 
Q 2605 2099 2528 2003 
Q 2451 1907 2358 1840 
Q 2266 1773 2182 1747 
Q 2477 1658 2646 1430 
Q 2816 1203 2816 858 
Q 2816 384 2432 153 
Q 2048 -77 1389 -77 
Q 986 -77 694 -13 
Q 403 51 282 109 
L 384 614 
Q 486 576 752 509 
Q 1018 442 1389 442 
Q 1792 442 2003 566 
Q 2214 691 2214 941 
Q 2214 1120 2134 1232 
Q 2054 1344 1932 1401 
Q 1811 1459 1670 1478 
Q 1530 1498 1408 1498 
L 851 1498 
L 851 1971 
L 1389 1971 
Q 1504 1971 1629 1987 
Q 1754 2003 1859 2054 
Q 1965 2106 2035 2198 
Q 2106 2291 2106 2445 
Q 2106 2566 2045 2652 
Q 1984 2739 1881 2796 
Q 1779 2854 1641 2883 
Q 1504 2912 1357 2912 
Q 1242 2912 1107 2893 
Q 973 2874 845 2845 
Q 717 2816 614 2784 
Q 512 2752 467 2726 
L 358 3238 
Q 410 3258 518 3290 
Q 627 3322 764 3347 
Q 902 3373 1056 3392 
Q 1210 3411 1357 3411 
z
" transform="scale(0.015625)"/>
       <path id="Ubuntu-439" d="M 3309 3328 
L 3309 0 
L 2733 0 
L 2733 2534 
Q 2541 2291 2310 1964 
Q 2080 1638 1849 1289 
Q 1619 941 1408 601 
Q 1197 262 1043 0 
L 512 0 
L 512 3328 
L 1088 3328 
L 1088 934 
Q 1254 1210 1465 1539 
Q 1677 1869 1904 2192 
Q 2131 2515 2358 2812 
Q 2586 3110 2784 3328 
L 3309 3328 
z
M 1917 3866 
Q 1514 3866 1261 4070 
Q 1008 4275 957 4640 
L 1411 4762 
Q 1462 4557 1584 4429 
Q 1706 4301 1917 4301 
Q 2128 4301 2249 4429 
Q 2371 4557 2422 4762 
L 2870 4640 
Q 2819 4275 2569 4070 
Q 2320 3866 1917 3866 
z
" transform="scale(0.015625)"/>
       <path id="Ubuntu-29" d="M 979 1914 
Q 979 2733 742 3430 
Q 506 4128 45 4723 
L 467 5011 
Q 966 4403 1270 3612 
Q 1574 2822 1574 1914 
Q 1574 1005 1270 214 
Q 966 -576 467 -1184 
L 45 -896 
Q 506 -301 742 396 
Q 979 1094 979 1914 
z
" transform="scale(0.015625)"/>
      </defs>
      <use xlink:href="#Ubuntu-41e"/>
      <use xlink:href="#Ubuntu-432" x="77.799988"/>
      <use xlink:href="#Ubuntu-43e" x="132.599976"/>
      <use xlink:href="#Ubuntu-449" x="191.59996"/>
      <use xlink:href="#Ubuntu-438" x="274.999954"/>
      <use xlink:href="#Ubuntu-20" x="334.699951"/>
      <use xlink:href="#Ubuntu-28" x="357.799942"/>
      <use xlink:href="#Ubuntu-441" x="390.199936"/>
      <use xlink:href="#Ubuntu-440" x="436.699921"/>
      <use xlink:href="#Ubuntu-435" x="495.599915"/>
      <use xlink:href="#Ubuntu-434" x="551.499908"/>
      <use xlink:href="#Ubuntu-43d" x="611.799896"/>
      <use xlink:href="#Ubuntu-44f" x="670.399887"/>
      <use xlink:href="#Ubuntu-44f" x="725.199875"/>
      <use xlink:href="#Ubuntu-20" x="779.999863"/>
      <use xlink:href="#Ubuntu-446" x="803.099854"/>
      <use xlink:href="#Ubuntu-435" x="861.699844"/>
      <use xlink:href="#Ubuntu-43d" x="917.599838"/>
      <use xlink:href="#Ubuntu-430" x="976.199829"/>
      <use xlink:href="#Ubuntu-20" x="1028.399826"/>
      <use xlink:href="#Ubuntu-443" x="1051.499817"/>
      <use xlink:href="#Ubuntu-20" x="1101.199814"/>
      <use xlink:href="#Ubuntu-43f" x="1124.299805"/>
      <use xlink:href="#Ubuntu-440" x="1182.099792"/>
      <use xlink:href="#Ubuntu-43e" x="1240.999786"/>
      <use xlink:href="#Ubuntu-438" x="1299.999771"/>
      <use xlink:href="#Ubuntu-437" x="1359.699768"/>
      <use xlink:href="#Ubuntu-432" x="1408.599762"/>
      <use xlink:href="#Ubuntu-43e" x="1463.39975"/>
      <use xlink:href="#Ubuntu-434" x="1522.399734"/>
      <use xlink:href="#Ubuntu-438" x="1582.699722"/>
      <use xlink:href="#Ubuntu-442" x="1642.399719"/>
      <use xlink:href="#Ubuntu-435" x="1688.699707"/>
      <use xlink:href="#Ubuntu-43b" x="1744.599701"/>
      <use xlink:href="#Ubuntu-435" x="1804.399689"/>
      <use xlink:href="#Ubuntu-439" x="1860.299683"/>
      <use xlink:href="#Ubuntu-29" x="1919.99968"/>
     </g>
    </g>
    <g id="line2d_51">
     <path d="M 39.3925 25.575 
L 44.7925 25.575 
L 50.1925 25.575 
" style="fill: none; stroke: #88695b; stroke-width: 1.2; stroke-linecap: square"/>
    </g>
    <g id="text_27">
     <!-- Картофель -->
     <g style="fill: #4b4b4b" transform="translate(56.5925 28.375) scale(0.08 -0.08)">
      <defs>
       <path id="Ubuntu-41a" d="M 3834 4435 
Q 3635 4218 3385 3952 
Q 3136 3686 2864 3408 
Q 2592 3130 2323 2861 
Q 2054 2592 1818 2362 
Q 2093 2170 2400 1888 
Q 2707 1606 3001 1286 
Q 3296 966 3555 633 
Q 3814 301 3987 0 
L 3258 0 
Q 3066 301 2816 605 
Q 2566 909 2288 1187 
Q 2010 1466 1725 1702 
Q 1440 1939 1171 2106 
L 1171 0 
L 550 0 
L 550 4435 
L 1171 4435 
L 1171 2477 
Q 1395 2688 1664 2953 
Q 1933 3219 2195 3488 
Q 2458 3757 2691 4003 
Q 2925 4250 3085 4435 
L 3834 4435 
z
" transform="scale(0.015625)"/>
       <path id="Ubuntu-444" d="M 928 1664 
Q 928 1382 1021 1164 
Q 1114 947 1280 796 
Q 1446 646 1673 566 
Q 1901 486 2163 480 
L 2163 2848 
Q 1901 2842 1673 2758 
Q 1446 2675 1280 2524 
Q 1114 2374 1021 2156 
Q 928 1939 928 1664 
z
M 2739 480 
Q 3002 486 3229 566 
Q 3456 646 3622 796 
Q 3789 947 3881 1164 
Q 3974 1382 3974 1664 
Q 3974 1939 3881 2156 
Q 3789 2374 3622 2524 
Q 3456 2675 3229 2758 
Q 3002 2842 2739 2848 
L 2739 480 
z
M 2739 -1184 
L 2163 -1184 
L 2163 -19 
Q 1786 -13 1453 102 
Q 1120 218 867 432 
Q 614 646 467 956 
Q 320 1267 320 1664 
Q 320 2061 467 2371 
Q 614 2682 867 2896 
Q 1120 3110 1453 3225 
Q 1786 3341 2163 3347 
L 2163 4864 
L 2739 4966 
L 2739 3347 
Q 3110 3341 3446 3225 
Q 3782 3110 4035 2896 
Q 4288 2682 4435 2371 
Q 4582 2061 4582 1664 
Q 4582 1267 4435 956 
Q 4288 646 4035 432 
Q 3782 218 3446 102 
Q 3110 -13 2739 -19 
L 2739 -1184 
z
" transform="scale(0.015625)"/>
       <path id="Ubuntu-44c" d="M 1773 416 
Q 2150 416 2368 563 
Q 2586 710 2586 1037 
Q 2586 1197 2522 1312 
Q 2458 1427 2346 1500 
Q 2234 1574 2086 1609 
Q 1939 1645 1773 1645 
Q 1600 1645 1417 1635 
Q 1235 1626 1107 1594 
L 1107 448 
Q 1146 442 1222 435 
Q 1299 429 1392 425 
Q 1485 422 1584 419 
Q 1683 416 1773 416 
z
M 512 70 
L 512 3328 
L 1107 3328 
L 1107 2054 
Q 1158 2067 1244 2080 
Q 1331 2093 1430 2105 
Q 1530 2118 1638 2124 
Q 1747 2131 1843 2131 
Q 2118 2131 2361 2070 
Q 2605 2010 2787 1878 
Q 2970 1747 3078 1539 
Q 3187 1331 3187 1043 
Q 3187 742 3084 531 
Q 2982 320 2790 185 
Q 2598 51 2332 -9 
Q 2067 -70 1741 -70 
Q 1421 -70 1113 -35 
Q 806 0 512 70 
z
" transform="scale(0.015625)"/>
      </defs>
      <use xlink:href="#Ubuntu-41a"/>
      <use xlink:href="#Ubuntu-430" x="62.899994"/>
      <use xlink:href="#Ubuntu-440" x="115.099991"/>
      <use xlink:href="#Ubuntu-442" x="173.999985"/>
      <use xlink:href="#Ubuntu-43e" x="220.299973"/>
      <use xlink:href="#Ubuntu-444" x="279.299957"/>
      <use xlink:href="#Ubuntu-435" x="355.899948"/>
      <use xlink:href="#Ubuntu-43b" x="411.799942"/>
      <use xlink:href="#Ubuntu-44c" x="471.59993"/>
     </g>
    </g>
    <g id="line2d_52">
     <path d="M 228.785 13.86375 
L 234.185 13.86375 
L 239.585 13.86375 
" style="fill: none; stroke: #5a9e88; stroke-width: 1.2; stroke-linecap: square"/>
    </g>
    <g id="text_28">
     <!-- Огурцы -->
     <g style="fill: #4b4b4b" transform="translate(245.985 16.66375) scale(0.08 -0.08)">
      <defs>
       <path id="Ubuntu-433" d="M 2573 2829 
L 1107 2829 
L 1107 0 
L 512 0 
L 512 3328 
L 2573 3328 
L 2573 2829 
z
" transform="scale(0.015625)"/>
       <path id="Ubuntu-44b" d="M 1734 1645 
Q 1562 1645 1398 1635 
Q 1235 1626 1107 1594 
L 1107 448 
Q 1146 442 1219 435 
Q 1293 429 1379 425 
Q 1466 422 1555 419 
Q 1645 416 1715 416 
Q 2106 416 2317 563 
Q 2528 710 2528 1037 
Q 2528 1197 2461 1312 
Q 2394 1427 2282 1500 
Q 2170 1574 2029 1609 
Q 1888 1645 1734 1645 
z
M 512 3328 
L 1107 3328 
L 1107 2054 
Q 1216 2080 1424 2105 
Q 1632 2131 1824 2131 
Q 2086 2131 2323 2070 
Q 2560 2010 2739 1878 
Q 2918 1747 3024 1539 
Q 3130 1331 3130 1043 
Q 3130 742 3027 531 
Q 2925 320 2739 185 
Q 2554 51 2291 -9 
Q 2029 -70 1715 -70 
Q 1414 -70 1107 -35 
Q 800 0 512 70 
L 512 3328 
z
M 4339 0 
L 3744 0 
L 3744 3328 
L 4339 3328 
L 4339 0 
z
" transform="scale(0.015625)"/>
      </defs>
      <use xlink:href="#Ubuntu-41e"/>
      <use xlink:href="#Ubuntu-433" x="77.799988"/>
      <use xlink:href="#Ubuntu-443" x="121.849976"/>
      <use xlink:href="#Ubuntu-440" x="171.549973"/>
      <use xlink:href="#Ubuntu-446" x="230.449966"/>
      <use xlink:href="#Ubuntu-44b" x="289.049957"/>
     </g>
    </g>
    <g id="line2d_53">
     <path d="M 291.1725 13.86375 
L 296.5725 13.86375 
L 301.9725 13.86375 
" style="fill: none; stroke: #bd6360; stroke-width: 1.2; stroke-linecap: square"/>
    </g>
    <g id="text_29">
     <!-- Помидоры -->
     <g style="fill: #4b4b4b" transform="translate(308.3725 16.66375) scale(0.08 -0.08)">
      <defs>
       <path id="Ubuntu-41f" d="M 3923 4435 
L 3923 0 
L 3302 0 
L 3302 3904 
L 1171 3904 
L 1171 0 
L 550 0 
L 550 4435 
L 3923 4435 
z
" transform="scale(0.015625)"/>
       <path id="Ubuntu-43c" d="M 1146 2451 
Q 1082 1818 1050 1187 
Q 1018 557 998 0 
L 429 0 
Q 442 390 467 816 
Q 493 1242 525 1674 
Q 557 2106 595 2525 
Q 634 2944 678 3328 
L 1222 3328 
Q 1427 2995 1702 2416 
Q 1978 1837 2336 1082 
Q 2694 1837 2969 2416 
Q 3245 2995 3450 3328 
L 4000 3328 
Q 4045 2944 4083 2525 
Q 4122 2106 4154 1674 
Q 4186 1242 4211 816 
Q 4237 390 4250 0 
L 3661 0 
Q 3642 557 3610 1187 
Q 3578 1818 3514 2451 
Q 3411 2253 3276 1974 
Q 3142 1696 3011 1408 
Q 2880 1120 2765 857 
Q 2650 595 2586 442 
L 2086 442 
Q 2016 602 1897 864 
Q 1779 1126 1648 1417 
Q 1517 1709 1382 1987 
Q 1248 2266 1146 2451 
z
" transform="scale(0.015625)"/>
      </defs>
      <use xlink:href="#Ubuntu-41f"/>
      <use xlink:href="#Ubuntu-43e" x="69.899994"/>
      <use xlink:href="#Ubuntu-43c" x="128.899979"/>
      <use xlink:href="#Ubuntu-438" x="201.999969"/>
      <use xlink:href="#Ubuntu-434" x="261.699966"/>
      <use xlink:href="#Ubuntu-43e" x="321.999954"/>
      <use xlink:href="#Ubuntu-440" x="380.999939"/>
      <use xlink:href="#Ubuntu-44b" x="439.899933"/>
     </g>
    </g>
    <g id="line2d_54">
     <path d="M 365.62875 13.86375 
L 371.02875 13.86375 
L 376.42875 13.86375 
" style="fill: none; stroke: #638fb3; stroke-width: 1.2; stroke-linecap: square"/>
    </g>
    <g id="text_30">
     <!-- Лук -->
     <g style="fill: #4b4b4b" transform="translate(382.82875 16.66375) scale(0.08 -0.08)">
      <defs>
       <path id="Ubuntu-41b" d="M 2067 3904 
Q 2054 3546 2041 3210 
Q 2029 2874 2003 2557 
Q 1978 2240 1926 1939 
Q 1875 1638 1786 1350 
Q 1696 1062 1565 809 
Q 1434 557 1238 368 
Q 1043 179 777 64 
Q 512 -51 154 -64 
L 83 474 
Q 531 525 777 755 
Q 1024 986 1184 1459 
Q 1363 1997 1411 2755 
Q 1459 3514 1459 4435 
L 3974 4435 
L 3974 0 
L 3354 0 
L 3354 3904 
L 2067 3904 
z
" transform="scale(0.015625)"/>
      </defs>
      <use xlink:href="#Ubuntu-41b"/>
      <use xlink:href="#Ubuntu-443" x="70.699982"/>
      <use xlink:href="#Ubuntu-43a" x="120.399979"/>
     </g>
    </g>
    <g id="line2d_55">
     <path d="M 412.7575 13.86375 
L 418.1575 13.86375 
L 423.5575 13.86375 
" style="fill: none; stroke: #c98d65; stroke-width: 1.2; stroke-linecap: square"/>
    </g>
    <g id="text_31">
     <!-- Морковь -->
     <g style="fill: #4b4b4b" transform="translate(429.9575 16.66375) scale(0.08 -0.08)">
      <defs>
       <path id="Ubuntu-41c" d="M 2541 614 
Q 2477 768 2371 1005 
Q 2266 1242 2144 1517 
Q 2022 1792 1884 2083 
Q 1747 2374 1625 2633 
Q 1504 2893 1398 3097 
Q 1293 3302 1229 3411 
Q 1158 2656 1113 1776 
Q 1069 896 1037 0 
L 429 0 
Q 454 576 486 1161 
Q 518 1747 560 2313 
Q 602 2880 650 3417 
Q 698 3955 755 4435 
L 1299 4435 
Q 1472 4154 1670 3770 
Q 1869 3386 2067 2966 
Q 2266 2547 2451 2128 
Q 2637 1709 2790 1363 
Q 2944 1709 3129 2128 
Q 3315 2547 3513 2966 
Q 3712 3386 3910 3770 
Q 4109 4154 4282 4435 
L 4826 4435 
Q 5043 2291 5152 0 
L 4544 0 
Q 4512 896 4467 1776 
Q 4422 2656 4352 3411 
Q 4288 3302 4182 3097 
Q 4077 2893 3955 2633 
Q 3834 2374 3696 2083 
Q 3558 1792 3436 1517 
Q 3315 1242 3209 1005 
Q 3104 768 3040 614 
L 2541 614 
z
" transform="scale(0.015625)"/>
      </defs>
      <use xlink:href="#Ubuntu-41c"/>
      <use xlink:href="#Ubuntu-43e" x="87.099991"/>
      <use xlink:href="#Ubuntu-440" x="146.099976"/>
      <use xlink:href="#Ubuntu-43a" x="204.999969"/>
      <use xlink:href="#Ubuntu-43e" x="255.824966"/>
      <use xlink:href="#Ubuntu-432" x="314.824951"/>
      <use xlink:href="#Ubuntu-44c" x="369.624939"/>
     </g>
    </g>
   </g>
  </g>
 </g>
 <defs>
  <clipPath id="p66de7adac8">
   <rect x="32.1925" y="37.055" width="502.2" height="166.32"/>
  </clipPath>
  <clipPath id="pf00cb799a8">
   <rect x="32.1925" y="203.375" width="502.2" height="0"/>
  </clipPath>
 </defs>
</svg>
