<?xml version="1.0" encoding="utf-8" standalone="no"?>
<!DOCTYPE svg PUBLIC "-//W3C//DTD SVG 1.1//EN"
  "http://www.w3.org/Graphics/SVG/1.1/DTD/svg11.dtd">
<svg xmlns:xlink="http://www.w3.org/1999/xlink" width="548.9125pt" height="246.994375pt" viewBox="0 0 548.9125 246.994375" xmlns="http://www.w3.org/2000/svg" version="1.1">
 <metadata>
  <rdf:RDF xmlns:dc="http://purl.org/dc/elements/1.1/" xmlns:cc="http://creativecommons.org/ns#" xmlns:rdf="http://www.w3.org/1999/02/22-rdf-syntax-ns#">
   <cc:Work>
    <dc:type rdf:resource="http://purl.org/dc/dcmitype/StillImage"/>
    <dc:date>2024-05-22T18:50:41.910251</dc:date>
    <dc:format>image/svg+xml</dc:format>
    <dc:creator>
     <cc:Agent>
      <dc:title>Matplotlib v3.8.0, https://matplotlib.org/</dc:title>
     </cc:Agent>
    </dc:creator>
   </cc:Work>
  </rdf:RDF>
 </metadata>
 <defs>
  <style type="text/css">*{stroke-linejoin: round; stroke-linecap: butt}</style>
 </defs>
 <g id="figure_1">
  <g id="patch_1">
   <path d="M 0 246.994375 
L 548.9125 246.994375 
L 548.9125 0 
L 0 0 
L 0 246.994375 
z
" style="fill: none"/>
  </g>
  <g id="axes_1">
   <g id="patch_2">
    <path d="M 32.1925 207.106875 
L 534.3925 207.106875 
L 534.3925 40.786875 
L 32.1925 40.786875 
L 32.1925 207.106875 
z
" style="fill: none"/>
   </g>
   <g id="line2d_1">
    <path d="M 70.302112 207.106875 
L 70.302112 40.786875 
" clip-path="url(#peedce8da8e)" style="fill: none; stroke-dasharray: 0.5,0.825; stroke-dashoffset: 0; stroke: #d9d9d9; stroke-width: 0.5"/>
   </g>
   <g id="line2d_2">
    <path d="M 108.835164 207.106875 
L 108.835164 40.786875 
" clip-path="url(#peedce8da8e)" style="fill: none; stroke-dasharray: 0.5,0.825; stroke-dashoffset: 0; stroke: #d9d9d9; stroke-width: 0.5"/>
   </g>
   <g id="line2d_3">
    <path d="M 147.791657 207.106875 
L 147.791657 40.786875 
" clip-path="url(#peedce8da8e)" style="fill: none; stroke-dasharray: 0.5,0.825; stroke-dashoffset: 0; stroke: #d9d9d9; stroke-width: 0.5"/>
   </g>
   <g id="line2d_4">
    <path d="M 186.748149 207.106875 
L 186.748149 40.786875 
" clip-path="url(#peedce8da8e)" style="fill: none; stroke-dasharray: 0.5,0.825; stroke-dashoffset: 0; stroke: #d9d9d9; stroke-width: 0.5"/>
   </g>
   <g id="line2d_5">
    <path d="M 224.857761 207.106875 
L 224.857761 40.786875 
" clip-path="url(#peedce8da8e)" style="fill: none; stroke-dasharray: 0.5,0.825; stroke-dashoffset: 0; stroke: #d9d9d9; stroke-width: 0.5"/>
   </g>
   <g id="line2d_6">
    <path d="M 263.390814 207.106875 
L 263.390814 40.786875 
" clip-path="url(#peedce8da8e)" style="fill: none; stroke-dasharray: 0.5,0.825; stroke-dashoffset: 0; stroke: #d9d9d9; stroke-width: 0.5"/>
   </g>
   <g id="line2d_7">
    <path d="M 302.347306 207.106875 
L 302.347306 40.786875 
" clip-path="url(#peedce8da8e)" style="fill: none; stroke-dasharray: 0.5,0.825; stroke-dashoffset: 0; stroke: #d9d9d9; stroke-width: 0.5"/>
   </g>
   <g id="line2d_8">
    <path d="M 341.303798 207.106875 
L 341.303798 40.786875 
" clip-path="url(#peedce8da8e)" style="fill: none; stroke-dasharray: 0.5,0.825; stroke-dashoffset: 0; stroke: #d9d9d9; stroke-width: 0.5"/>
   </g>
   <g id="line2d_9">
    <path d="M 379.413411 207.106875 
L 379.413411 40.786875 
" clip-path="url(#peedce8da8e)" style="fill: none; stroke-dasharray: 0.5,0.825; stroke-dashoffset: 0; stroke: #d9d9d9; stroke-width: 0.5"/>
   </g>
   <g id="line2d_10">
    <path d="M 417.946463 207.106875 
L 417.946463 40.786875 
" clip-path="url(#peedce8da8e)" style="fill: none; stroke-dasharray: 0.5,0.825; stroke-dashoffset: 0; stroke: #d9d9d9; stroke-width: 0.5"/>
   </g>
   <g id="line2d_11">
    <path d="M 456.902955 207.106875 
L 456.902955 40.786875 
" clip-path="url(#peedce8da8e)" style="fill: none; stroke-dasharray: 0.5,0.825; stroke-dashoffset: 0; stroke: #d9d9d9; stroke-width: 0.5"/>
   </g>
   <g id="line2d_12">
    <path d="M 495.859448 207.106875 
L 495.859448 40.786875 
" clip-path="url(#peedce8da8e)" style="fill: none; stroke-dasharray: 0.5,0.825; stroke-dashoffset: 0; stroke: #d9d9d9; stroke-width: 0.5"/>
   </g>
   <g id="line2d_13">
    <path d="M 32.1925 179.386875 
L 534.3925 179.386875 
" clip-path="url(#peedce8da8e)" style="fill: none; stroke-dasharray: 0.5,0.825; stroke-dashoffset: 0; stroke: #d9d9d9; stroke-width: 0.5"/>
   </g>
   <g id="line2d_14">
    <path d="M 32.1925 151.666875 
L 534.3925 151.666875 
" clip-path="url(#peedce8da8e)" style="fill: none; stroke-dasharray: 0.5,0.825; stroke-dashoffset: 0; stroke: #d9d9d9; stroke-width: 0.5"/>
   </g>
   <g id="line2d_15">
    <path d="M 32.1925 123.946875 
L 534.3925 123.946875 
" clip-path="url(#peedce8da8e)" style="fill: none; stroke-dasharray: 0.5,0.825; stroke-dashoffset: 0; stroke: #d9d9d9; stroke-width: 0.5"/>
   </g>
   <g id="line2d_16">
    <path d="M 32.1925 96.226875 
L 534.3925 96.226875 
" clip-path="url(#peedce8da8e)" style="fill: none; stroke-dasharray: 0.5,0.825; stroke-dashoffset: 0; stroke: #d9d9d9; stroke-width: 0.5"/>
   </g>
   <g id="line2d_17">
    <path d="M 32.1925 68.506875 
L 534.3925 68.506875 
" clip-path="url(#peedce8da8e)" style="fill: none; stroke-dasharray: 0.5,0.825; stroke-dashoffset: 0; stroke: #d9d9d9; stroke-width: 0.5"/>
   </g>
   <g id="line2d_18">
    <path d="M 37.2145 151.666875 
L 529.3705 151.666875 
" clip-path="url(#peedce8da8e)" style="fill: none; stroke-dasharray: 2.775,1.2; stroke-dashoffset: 0; stroke: #cccccc; stroke-width: 0.75"/>
   </g>
   <g id="axes_2">
    <g id="patch_3">
     <path d="M 32.1925 207.106875 
L 534.3925 207.106875 
L 534.3925 207.106875 
L 32.1925 207.106875 
L 32.1925 207.106875 
z
" style="fill: none"/>
    </g>
    <g id="matplotlib.axis_1">
     <g id="xtick_1">
      <g id="line2d_19">
       <path d="M 32.1925 207.106875 
L 32.1925 207.106875 
" clip-path="url(#pc066eb54ba)" style="fill: none; stroke-dasharray: 0.5,0.825; stroke-dashoffset: 0; stroke: #d9d9d9; stroke-width: 0.5"/>
      </g>
      <g id="text_1">
       <!-- 2021 -->
       <g style="fill: #808080" transform="translate(23.1675 238.314375) scale(0.08 -0.08)">
        <defs>
         <path id="Ubuntu-32" d="M 2989 3302 
Q 2989 3072 2896 2857 
Q 2803 2643 2649 2435 
Q 2496 2227 2304 2025 
Q 2112 1824 1920 1632 
Q 1811 1523 1667 1376 
Q 1523 1229 1395 1069 
Q 1267 909 1180 761 
Q 1094 614 1094 506 
L 3136 506 
L 3136 0 
L 448 0 
Q 442 38 442 76 
Q 442 115 442 147 
Q 442 448 541 707 
Q 640 966 800 1196 
Q 960 1427 1158 1632 
Q 1357 1837 1549 2029 
Q 1709 2182 1853 2332 
Q 1997 2483 2109 2633 
Q 2221 2784 2288 2944 
Q 2355 3104 2355 3283 
Q 2355 3475 2294 3609 
Q 2234 3744 2131 3833 
Q 2029 3923 1891 3964 
Q 1754 4006 1600 4006 
Q 1414 4006 1260 3955 
Q 1107 3904 985 3837 
Q 864 3770 781 3696 
Q 698 3622 653 3584 
L 358 4006 
Q 416 4070 531 4163 
Q 646 4256 806 4339 
Q 966 4422 1164 4480 
Q 1363 4538 1594 4538 
Q 2291 4538 2640 4214 
Q 2989 3891 2989 3302 
z
" transform="scale(0.015625)"/>
         <path id="Ubuntu-30" d="M 320 2221 
Q 320 3334 713 3936 
Q 1107 4538 1805 4538 
Q 2502 4538 2896 3936 
Q 3290 3334 3290 2221 
Q 3290 1107 2896 505 
Q 2502 -96 1805 -96 
Q 1107 -96 713 505 
Q 320 1107 320 2221 
z
M 2662 2221 
Q 2662 2586 2620 2912 
Q 2579 3238 2480 3481 
Q 2381 3725 2214 3869 
Q 2048 4013 1805 4013 
Q 1562 4013 1395 3869 
Q 1229 3725 1129 3481 
Q 1030 3238 988 2912 
Q 947 2586 947 2221 
Q 947 1856 988 1529 
Q 1030 1203 1129 960 
Q 1229 717 1395 573 
Q 1562 429 1805 429 
Q 2048 429 2214 573 
Q 2381 717 2480 960 
Q 2579 1203 2620 1529 
Q 2662 1856 2662 2221 
z
" transform="scale(0.015625)"/>
         <path id="Ubuntu-31" d="M 595 3520 
Q 960 3661 1305 3881 
Q 1651 4102 1939 4435 
L 2362 4435 
L 2362 0 
L 1766 0 
L 1766 3610 
Q 1690 3539 1578 3462 
Q 1466 3386 1334 3315 
Q 1203 3245 1059 3181 
Q 915 3117 781 3072 
L 595 3520 
z
" transform="scale(0.015625)"/>
        </defs>
        <use xlink:href="#Ubuntu-32"/>
        <use xlink:href="#Ubuntu-30" x="56.399994"/>
        <use xlink:href="#Ubuntu-32" x="112.799988"/>
        <use xlink:href="#Ubuntu-31" x="169.199982"/>
       </g>
      </g>
     </g>
     <g id="xtick_2">
      <g id="line2d_20">
       <path d="M 186.748149 207.106875 
L 186.748149 207.106875 
" clip-path="url(#pc066eb54ba)" style="fill: none; stroke-dasharray: 0.5,0.825; stroke-dashoffset: 0; stroke: #d9d9d9; stroke-width: 0.5"/>
      </g>
      <g id="text_2">
       <!-- 2022 -->
       <g style="fill: #808080" transform="translate(177.723149 238.314375) scale(0.08 -0.08)">
        <use xlink:href="#Ubuntu-32"/>
        <use xlink:href="#Ubuntu-30" x="56.399994"/>
        <use xlink:href="#Ubuntu-32" x="112.799988"/>
        <use xlink:href="#Ubuntu-32" x="169.199982"/>
       </g>
      </g>
     </g>
     <g id="xtick_3">
      <g id="line2d_21">
       <path d="M 341.303798 207.106875 
L 341.303798 207.106875 
" clip-path="url(#pc066eb54ba)" style="fill: none; stroke-dasharray: 0.5,0.825; stroke-dashoffset: 0; stroke: #d9d9d9; stroke-width: 0.5"/>
      </g>
      <g id="text_3">
       <!-- 2023 -->
       <g style="fill: #808080" transform="translate(332.278798 238.314375) scale(0.08 -0.08)">
        <defs>
         <path id="Ubuntu-33" d="M 1446 435 
Q 2016 435 2262 659 
Q 2509 883 2509 1261 
Q 2509 1504 2406 1670 
Q 2304 1837 2137 1936 
Q 1971 2035 1750 2076 
Q 1530 2118 1299 2118 
L 1146 2118 
L 1146 2605 
L 1357 2605 
Q 1517 2605 1686 2637 
Q 1856 2669 1997 2752 
Q 2138 2835 2227 2979 
Q 2317 3123 2317 3341 
Q 2317 3520 2253 3648 
Q 2189 3776 2083 3859 
Q 1978 3942 1840 3977 
Q 1702 4013 1549 4013 
Q 1242 4013 1027 3923 
Q 813 3834 666 3738 
L 435 4192 
Q 512 4243 630 4304 
Q 749 4365 896 4416 
Q 1043 4467 1212 4502 
Q 1382 4538 1568 4538 
Q 1920 4538 2176 4451 
Q 2432 4365 2598 4208 
Q 2765 4051 2848 3836 
Q 2931 3622 2931 3373 
Q 2931 3027 2732 2780 
Q 2534 2534 2253 2406 
Q 2426 2355 2586 2259 
Q 2746 2163 2864 2016 
Q 2982 1869 3056 1677 
Q 3130 1485 3130 1248 
Q 3130 960 3030 713 
Q 2931 467 2723 288 
Q 2515 109 2201 6 
Q 1888 -96 1459 -96 
Q 1293 -96 1117 -70 
Q 941 -45 787 -6 
Q 634 32 518 70 
Q 403 109 352 134 
L 467 653 
Q 576 602 829 518 
Q 1082 435 1446 435 
z
" transform="scale(0.015625)"/>
        </defs>
        <use xlink:href="#Ubuntu-32"/>
        <use xlink:href="#Ubuntu-30" x="56.399994"/>
        <use xlink:href="#Ubuntu-32" x="112.799988"/>
        <use xlink:href="#Ubuntu-33" x="169.199982"/>
       </g>
      </g>
     </g>
     <g id="xtick_4">
      <g id="line2d_22">
       <path d="M 495.859448 207.106875 
L 495.859448 207.106875 
" clip-path="url(#pc066eb54ba)" style="fill: none; stroke-dasharray: 0.5,0.825; stroke-dashoffset: 0; stroke: #d9d9d9; stroke-width: 0.5"/>
      </g>
      <g id="text_4">
       <!-- 2024 -->
       <g style="fill: #808080" transform="translate(486.834448 238.314375) scale(0.08 -0.08)">
        <defs>
         <path id="Ubuntu-34" d="M 256 1536 
Q 378 1818 589 2192 
Q 800 2566 1065 2963 
Q 1331 3360 1635 3744 
Q 1939 4128 2246 4435 
L 2816 4435 
L 2816 1619 
L 3341 1619 
L 3341 1133 
L 2816 1133 
L 2816 0 
L 2240 0 
L 2240 1133 
L 256 1133 
L 256 1536 
z
M 2240 3731 
Q 2048 3526 1853 3273 
Q 1658 3021 1472 2745 
Q 1286 2470 1123 2182 
Q 960 1894 832 1619 
L 2240 1619 
L 2240 3731 
z
" transform="scale(0.015625)"/>
        </defs>
        <use xlink:href="#Ubuntu-32"/>
        <use xlink:href="#Ubuntu-30" x="56.399994"/>
        <use xlink:href="#Ubuntu-32" x="112.799988"/>
        <use xlink:href="#Ubuntu-34" x="169.199982"/>
       </g>
      </g>
     </g>
    </g>
    <g id="matplotlib.axis_2"/>
   </g>
   <g id="matplotlib.axis_3">
    <g id="xtick_5">
     <g id="line2d_23">
      <defs>
       <path id="m2aa2df44c4" d="M 0 0 
L 0 3 
" style="stroke: #cecece; stroke-width: 0.75"/>
      </defs>
      <g>
       <use xlink:href="#m2aa2df44c4" x="32.1925" y="212.106875" style="fill: #cecece; stroke: #cecece; stroke-width: 0.75"/>
      </g>
     </g>
     <g id="text_5">
      <!-- Янв -->
      <g style="fill: #808080" transform="translate(25.116875 227.314375) scale(0.08 -0.08)">
       <defs>
        <path id="Ubuntu-42f" d="M 2272 3936 
Q 2029 3936 1808 3897 
Q 1587 3859 1414 3763 
Q 1242 3667 1139 3500 
Q 1037 3334 1037 3085 
Q 1037 2611 1341 2428 
Q 1645 2246 2253 2246 
L 2893 2246 
L 2893 3917 
Q 2822 3917 2726 3923 
Q 2643 3930 2531 3933 
Q 2419 3936 2272 3936 
z
M 2323 4480 
Q 2458 4480 2611 4473 
Q 2765 4467 2921 4454 
Q 3078 4442 3232 4422 
Q 3386 4403 3514 4371 
L 3514 0 
L 2893 0 
L 2893 1734 
L 2362 1734 
Q 2272 1734 2173 1737 
Q 2074 1741 1907 1760 
Q 1792 1606 1657 1401 
Q 1523 1197 1388 966 
Q 1254 736 1123 486 
Q 992 237 883 0 
L 230 0 
Q 333 250 473 518 
Q 614 787 764 1030 
Q 915 1274 1052 1482 
Q 1190 1690 1293 1824 
Q 1146 1869 986 1952 
Q 826 2035 691 2182 
Q 557 2330 470 2550 
Q 384 2771 384 3078 
Q 384 3424 518 3686 
Q 653 3949 905 4125 
Q 1158 4301 1516 4390 
Q 1875 4480 2323 4480 
z
" transform="scale(0.015625)"/>
        <path id="Ubuntu-43d" d="M 3238 0 
L 2643 0 
L 2643 1472 
L 1107 1472 
L 1107 0 
L 512 0 
L 512 3328 
L 1107 3328 
L 1107 1971 
L 2643 1971 
L 2643 3328 
L 3238 3328 
L 3238 0 
z
" transform="scale(0.015625)"/>
        <path id="Ubuntu-432" d="M 1094 448 
Q 1133 442 1203 435 
Q 1274 429 1363 425 
Q 1453 422 1552 419 
Q 1651 416 1741 416 
Q 1926 416 2096 441 
Q 2266 467 2390 531 
Q 2515 595 2588 700 
Q 2662 806 2662 973 
Q 2662 1133 2595 1238 
Q 2528 1344 2413 1408 
Q 2298 1472 2141 1497 
Q 1984 1523 1805 1523 
L 1094 1523 
L 1094 448 
z
M 1728 1965 
Q 1901 1965 2045 1987 
Q 2189 2010 2294 2067 
Q 2400 2125 2461 2221 
Q 2522 2317 2522 2464 
Q 2522 2618 2445 2707 
Q 2368 2797 2243 2845 
Q 2118 2893 1961 2909 
Q 1805 2925 1645 2925 
Q 1498 2925 1347 2918 
Q 1197 2912 1094 2906 
L 1094 1965 
L 1728 1965 
z
M 1715 -58 
Q 1338 -58 1018 -22 
Q 698 13 512 58 
L 512 3296 
Q 698 3341 1018 3376 
Q 1338 3411 1715 3411 
Q 1978 3411 2227 3366 
Q 2477 3322 2669 3216 
Q 2861 3110 2979 2928 
Q 3098 2746 3098 2477 
Q 3098 2234 2976 2061 
Q 2854 1888 2650 1792 
Q 2925 1696 3088 1507 
Q 3251 1318 3251 979 
Q 3251 678 3132 480 
Q 3014 282 2806 160 
Q 2598 38 2316 -10 
Q 2035 -58 1715 -58 
z
" transform="scale(0.015625)"/>
       </defs>
       <use xlink:href="#Ubuntu-42f"/>
       <use xlink:href="#Ubuntu-43d" x="63.499985"/>
       <use xlink:href="#Ubuntu-432" x="122.099976"/>
      </g>
     </g>
    </g>
    <g id="xtick_6">
     <g id="line2d_24">
      <g>
       <use xlink:href="#m2aa2df44c4" x="70.302112" y="212.106875" style="fill: #cecece; stroke: #cecece; stroke-width: 0.75"/>
      </g>
     </g>
     <g id="text_6">
      <!-- Апр -->
      <g style="fill: #808080" transform="translate(62.982112 227.314375) scale(0.08 -0.08)">
       <defs>
        <path id="Ubuntu-410" d="M 3514 0 
Q 3405 288 3309 566 
Q 3213 845 3110 1133 
L 1101 1133 
L 698 0 
L 51 0 
Q 307 704 531 1302 
Q 755 1901 969 2438 
Q 1184 2976 1395 3465 
Q 1606 3955 1837 4435 
L 2406 4435 
Q 2637 3955 2848 3465 
Q 3059 2976 3273 2438 
Q 3488 1901 3712 1302 
Q 3936 704 4192 0 
L 3514 0 
z
M 2931 1645 
Q 2726 2202 2524 2723 
Q 2323 3245 2106 3725 
Q 1882 3245 1680 2723 
Q 1478 2202 1280 1645 
L 2931 1645 
z
" transform="scale(0.015625)"/>
        <path id="Ubuntu-43f" d="M 3187 0 
L 2592 0 
L 2592 2829 
L 1107 2829 
L 1107 0 
L 512 0 
L 512 3328 
L 3187 3328 
L 3187 0 
z
" transform="scale(0.015625)"/>
        <path id="Ubuntu-440" d="M 2822 1658 
Q 2822 2240 2534 2553 
Q 2246 2867 1766 2867 
Q 1498 2867 1347 2848 
Q 1197 2829 1107 2803 
L 1107 704 
Q 1216 614 1421 531 
Q 1626 448 1869 448 
Q 2125 448 2307 541 
Q 2490 634 2605 797 
Q 2720 960 2771 1181 
Q 2822 1402 2822 1658 
z
M 3443 1658 
Q 3443 1280 3344 960 
Q 3245 640 3053 409 
Q 2861 179 2582 51 
Q 2304 -77 1946 -77 
Q 1658 -77 1437 0 
Q 1216 77 1107 147 
L 1107 -1184 
L 512 -1184 
L 512 3226 
Q 723 3277 1040 3337 
Q 1357 3398 1773 3398 
Q 2157 3398 2464 3276 
Q 2771 3155 2988 2931 
Q 3206 2707 3324 2384 
Q 3443 2061 3443 1658 
z
" transform="scale(0.015625)"/>
       </defs>
       <use xlink:href="#Ubuntu-410"/>
       <use xlink:href="#Ubuntu-43f" x="66.299988"/>
       <use xlink:href="#Ubuntu-440" x="124.099976"/>
      </g>
     </g>
    </g>
    <g id="xtick_7">
     <g id="line2d_25">
      <g>
       <use xlink:href="#m2aa2df44c4" x="108.835164" y="212.106875" style="fill: #cecece; stroke: #cecece; stroke-width: 0.75"/>
      </g>
     </g>
     <g id="text_7">
      <!-- Июл -->
      <g style="fill: #808080" transform="translate(100.287664 227.314375) scale(0.08 -0.08)">
       <defs>
        <path id="Ubuntu-418" d="M 550 0 
L 550 4435 
L 1158 4435 
L 1158 1152 
Q 1363 1491 1660 1926 
Q 1958 2362 2294 2813 
Q 2630 3264 2972 3689 
Q 3315 4115 3616 4435 
L 4109 4435 
L 4109 0 
L 3501 0 
L 3501 3462 
Q 3322 3258 3110 2989 
Q 2899 2720 2675 2416 
Q 2451 2112 2224 1785 
Q 1997 1459 1785 1142 
Q 1574 826 1392 531 
Q 1210 237 1069 0 
L 550 0 
z
" transform="scale(0.015625)"/>
        <path id="Ubuntu-44e" d="M 1107 1952 
L 1837 1952 
Q 1875 2285 2006 2553 
Q 2138 2822 2336 3014 
Q 2534 3206 2790 3308 
Q 3046 3411 3341 3411 
Q 3667 3411 3945 3286 
Q 4224 3162 4429 2931 
Q 4634 2701 4749 2377 
Q 4864 2054 4864 1664 
Q 4864 1267 4749 947 
Q 4634 627 4429 396 
Q 4224 166 3945 41 
Q 3667 -83 3341 -83 
Q 3034 -83 2768 29 
Q 2502 141 2304 342 
Q 2106 544 1981 832 
Q 1856 1120 1830 1472 
L 1107 1472 
L 1107 0 
L 512 0 
L 512 3328 
L 1107 3328 
L 1107 1952 
z
M 4250 1664 
Q 4250 2227 4003 2556 
Q 3757 2886 3341 2886 
Q 2925 2886 2678 2556 
Q 2432 2227 2432 1664 
Q 2432 1101 2678 771 
Q 2925 442 3341 442 
Q 3757 442 4003 771 
Q 4250 1101 4250 1664 
z
" transform="scale(0.015625)"/>
        <path id="Ubuntu-43b" d="M 1670 2829 
Q 1670 2618 1660 2378 
Q 1651 2138 1625 1898 
Q 1600 1658 1555 1424 
Q 1510 1190 1440 986 
Q 1370 781 1264 601 
Q 1158 422 1004 284 
Q 851 147 646 54 
Q 442 -38 166 -64 
L 83 435 
Q 397 499 579 672 
Q 762 845 870 1094 
Q 966 1312 1011 1587 
Q 1056 1862 1075 2160 
Q 1094 2458 1097 2758 
Q 1101 3059 1101 3328 
L 3315 3328 
L 3315 0 
L 2720 0 
L 2720 2829 
L 1670 2829 
z
" transform="scale(0.015625)"/>
       </defs>
       <use xlink:href="#Ubuntu-418"/>
       <use xlink:href="#Ubuntu-44e" x="72.799988"/>
       <use xlink:href="#Ubuntu-43b" x="153.899979"/>
      </g>
     </g>
    </g>
    <g id="xtick_8">
     <g id="line2d_26">
      <g>
       <use xlink:href="#m2aa2df44c4" x="147.791657" y="212.106875" style="fill: #cecece; stroke: #cecece; stroke-width: 0.75"/>
      </g>
     </g>
     <g id="text_8">
      <!-- Окт -->
      <g style="fill: #808080" transform="translate(140.679782 227.314375) scale(0.08 -0.08)">
       <defs>
        <path id="Ubuntu-41e" d="M 371 2221 
Q 371 2790 540 3225 
Q 710 3661 1001 3952 
Q 1293 4243 1680 4390 
Q 2067 4538 2502 4538 
Q 2931 4538 3312 4390 
Q 3693 4243 3981 3952 
Q 4269 3661 4438 3225 
Q 4608 2790 4608 2221 
Q 4608 1651 4438 1216 
Q 4269 781 3981 489 
Q 3693 198 3312 51 
Q 2931 -96 2502 -96 
Q 2067 -96 1680 51 
Q 1293 198 1001 489 
Q 710 781 540 1216 
Q 371 1651 371 2221 
z
M 1024 2221 
Q 1024 1818 1126 1488 
Q 1229 1158 1417 928 
Q 1606 698 1878 573 
Q 2150 448 2490 448 
Q 2829 448 3097 573 
Q 3366 698 3555 928 
Q 3744 1158 3846 1488 
Q 3949 1818 3949 2221 
Q 3949 2624 3846 2953 
Q 3744 3283 3555 3513 
Q 3366 3744 3097 3869 
Q 2829 3994 2490 3994 
Q 2150 3994 1878 3869 
Q 1606 3744 1417 3513 
Q 1229 3283 1126 2953 
Q 1024 2624 1024 2221 
z
" transform="scale(0.015625)"/>
        <path id="Ubuntu-43a" d="M 1728 1811 
Q 1926 1670 2156 1456 
Q 2387 1242 2608 992 
Q 2829 742 3021 483 
Q 3213 224 3347 0 
L 2643 0 
Q 2502 218 2313 445 
Q 2125 672 1920 883 
Q 1715 1094 1504 1273 
Q 1293 1453 1107 1574 
L 1107 0 
L 512 0 
L 512 3328 
L 1107 3328 
L 1107 1901 
Q 1261 2048 1459 2243 
Q 1658 2438 1859 2640 
Q 2061 2842 2233 3024 
Q 2406 3206 2515 3328 
L 3206 3328 
Q 3066 3174 2877 2979 
Q 2688 2784 2486 2579 
Q 2285 2374 2086 2172 
Q 1888 1971 1728 1811 
z
" transform="scale(0.015625)"/>
        <path id="Ubuntu-442" d="M 2861 3328 
L 2861 2829 
L 1779 2829 
L 1779 0 
L 1184 0 
L 1184 2829 
L 102 2829 
L 102 3328 
L 2861 3328 
z
" transform="scale(0.015625)"/>
       </defs>
       <use xlink:href="#Ubuntu-41e"/>
       <use xlink:href="#Ubuntu-43a" x="77.799988"/>
       <use xlink:href="#Ubuntu-442" x="131.499985"/>
      </g>
     </g>
    </g>
    <g id="xtick_9">
     <g id="line2d_27">
      <g>
       <use xlink:href="#m2aa2df44c4" x="186.748149" y="212.106875" style="fill: #cecece; stroke: #cecece; stroke-width: 0.75"/>
      </g>
     </g>
     <g id="text_9">
      <!-- Янв -->
      <g style="fill: #808080" transform="translate(179.672524 227.314375) scale(0.08 -0.08)">
       <use xlink:href="#Ubuntu-42f"/>
       <use xlink:href="#Ubuntu-43d" x="63.499985"/>
       <use xlink:href="#Ubuntu-432" x="122.099976"/>
      </g>
     </g>
    </g>
    <g id="xtick_10">
     <g id="line2d_28">
      <g>
       <use xlink:href="#m2aa2df44c4" x="224.857761" y="212.106875" style="fill: #cecece; stroke: #cecece; stroke-width: 0.75"/>
      </g>
     </g>
     <g id="text_10">
      <!-- Апр -->
      <g style="fill: #808080" transform="translate(217.537761 227.314375) scale(0.08 -0.08)">
       <use xlink:href="#Ubuntu-410"/>
       <use xlink:href="#Ubuntu-43f" x="66.299988"/>
       <use xlink:href="#Ubuntu-440" x="124.099976"/>
      </g>
     </g>
    </g>
    <g id="xtick_11">
     <g id="line2d_29">
      <g>
       <use xlink:href="#m2aa2df44c4" x="263.390814" y="212.106875" style="fill: #cecece; stroke: #cecece; stroke-width: 0.75"/>
      </g>
     </g>
     <g id="text_11">
      <!-- Июл -->
      <g style="fill: #808080" transform="translate(254.843314 227.314375) scale(0.08 -0.08)">
       <use xlink:href="#Ubuntu-418"/>
       <use xlink:href="#Ubuntu-44e" x="72.799988"/>
       <use xlink:href="#Ubuntu-43b" x="153.899979"/>
      </g>
     </g>
    </g>
    <g id="xtick_12">
     <g id="line2d_30">
      <g>
       <use xlink:href="#m2aa2df44c4" x="302.347306" y="212.106875" style="fill: #cecece; stroke: #cecece; stroke-width: 0.75"/>
      </g>
     </g>
     <g id="text_12">
      <!-- Окт -->
      <g style="fill: #808080" transform="translate(295.235431 227.314375) scale(0.08 -0.08)">
       <use xlink:href="#Ubuntu-41e"/>
       <use xlink:href="#Ubuntu-43a" x="77.799988"/>
       <use xlink:href="#Ubuntu-442" x="131.499985"/>
      </g>
     </g>
    </g>
    <g id="xtick_13">
     <g id="line2d_31">
      <g>
       <use xlink:href="#m2aa2df44c4" x="341.303798" y="212.106875" style="fill: #cecece; stroke: #cecece; stroke-width: 0.75"/>
      </g>
     </g>
     <g id="text_13">
      <!-- Янв -->
      <g style="fill: #808080" transform="translate(334.228173 227.314375) scale(0.08 -0.08)">
       <use xlink:href="#Ubuntu-42f"/>
       <use xlink:href="#Ubuntu-43d" x="63.499985"/>
       <use xlink:href="#Ubuntu-432" x="122.099976"/>
      </g>
     </g>
    </g>
    <g id="xtick_14">
     <g id="line2d_32">
      <g>
       <use xlink:href="#m2aa2df44c4" x="379.413411" y="212.106875" style="fill: #cecece; stroke: #cecece; stroke-width: 0.75"/>
      </g>
     </g>
     <g id="text_14">
      <!-- Апр -->
      <g style="fill: #808080" transform="translate(372.093411 227.314375) scale(0.08 -0.08)">
       <use xlink:href="#Ubuntu-410"/>
       <use xlink:href="#Ubuntu-43f" x="66.299988"/>
       <use xlink:href="#Ubuntu-440" x="124.099976"/>
      </g>
     </g>
    </g>
    <g id="xtick_15">
     <g id="line2d_33">
      <g>
       <use xlink:href="#m2aa2df44c4" x="417.946463" y="212.106875" style="fill: #cecece; stroke: #cecece; stroke-width: 0.75"/>
      </g>
     </g>
     <g id="text_15">
      <!-- Июл -->
      <g style="fill: #808080" transform="translate(409.398963 227.314375) scale(0.08 -0.08)">
       <use xlink:href="#Ubuntu-418"/>
       <use xlink:href="#Ubuntu-44e" x="72.799988"/>
       <use xlink:href="#Ubuntu-43b" x="153.899979"/>
      </g>
     </g>
    </g>
    <g id="xtick_16">
     <g id="line2d_34">
      <g>
       <use xlink:href="#m2aa2df44c4" x="456.902955" y="212.106875" style="fill: #cecece; stroke: #cecece; stroke-width: 0.75"/>
      </g>
     </g>
     <g id="text_16">
      <!-- Окт -->
      <g style="fill: #808080" transform="translate(449.79108 227.314375) scale(0.08 -0.08)">
       <use xlink:href="#Ubuntu-41e"/>
       <use xlink:href="#Ubuntu-43a" x="77.799988"/>
       <use xlink:href="#Ubuntu-442" x="131.499985"/>
      </g>
     </g>
    </g>
    <g id="xtick_17">
     <g id="line2d_35">
      <g>
       <use xlink:href="#m2aa2df44c4" x="495.859448" y="212.106875" style="fill: #cecece; stroke: #cecece; stroke-width: 0.75"/>
      </g>
     </g>
     <g id="text_17">
      <!-- Янв -->
      <g style="fill: #808080" transform="translate(488.783823 227.314375) scale(0.08 -0.08)">
       <use xlink:href="#Ubuntu-42f"/>
       <use xlink:href="#Ubuntu-43d" x="63.499985"/>
       <use xlink:href="#Ubuntu-432" x="122.099976"/>
      </g>
     </g>
    </g>
    <g id="xtick_18">
     <g id="line2d_36">
      <g>
       <use xlink:href="#m2aa2df44c4" x="534.3925" y="212.106875" style="fill: #cecece; stroke: #cecece; stroke-width: 0.75"/>
      </g>
     </g>
     <g id="text_18">
      <!-- Апр -->
      <g style="fill: #808080" transform="translate(527.0725 227.314375) scale(0.08 -0.08)">
       <use xlink:href="#Ubuntu-410"/>
       <use xlink:href="#Ubuntu-43f" x="66.299988"/>
       <use xlink:href="#Ubuntu-440" x="124.099976"/>
      </g>
     </g>
    </g>
   </g>
   <g id="matplotlib.axis_4">
    <g id="ytick_1">
     <g id="line2d_37">
      <defs>
       <path id="ma2a8324f55" d="M 0 0 
L -3 0 
" style="stroke: #cecece; stroke-width: 0.75"/>
      </defs>
      <g>
       <use xlink:href="#ma2a8324f55" x="27.1925" y="207.106875" style="fill: #cecece; stroke: #cecece; stroke-width: 0.75"/>
      </g>
     </g>
     <g id="text_19">
      <!-- 0.0 -->
      <g style="fill: #808080" transform="translate(7.2 210.210625) scale(0.08 -0.08)">
       <defs>
        <path id="Ubuntu-2e" d="M 1216 346 
Q 1216 173 1101 45 
Q 986 -83 787 -83 
Q 589 -83 473 45 
Q 358 173 358 346 
Q 358 518 473 646 
Q 589 774 787 774 
Q 986 774 1101 646 
Q 1216 518 1216 346 
z
" transform="scale(0.015625)"/>
       </defs>
       <use xlink:href="#Ubuntu-30"/>
       <use xlink:href="#Ubuntu-2e" x="56.399994"/>
       <use xlink:href="#Ubuntu-30" x="80.999985"/>
      </g>
     </g>
    </g>
    <g id="ytick_2">
     <g id="line2d_38">
      <g>
       <use xlink:href="#ma2a8324f55" x="27.1925" y="179.386875" style="fill: #cecece; stroke: #cecece; stroke-width: 0.75"/>
      </g>
     </g>
     <g id="text_20">
      <!-- 0.5 -->
      <g style="fill: #808080" transform="translate(7.2 182.490625) scale(0.08 -0.08)">
       <defs>
        <path id="Ubuntu-35" d="M 1274 2726 
Q 2240 2688 2691 2304 
Q 3142 1920 3142 1261 
Q 3142 966 3043 716 
Q 2944 467 2742 288 
Q 2541 109 2233 6 
Q 1926 -96 1504 -96 
Q 1338 -96 1165 -70 
Q 992 -45 845 -6 
Q 698 32 582 70 
Q 467 109 416 134 
L 531 653 
Q 640 602 886 518 
Q 1133 435 1491 435 
Q 1779 435 1974 499 
Q 2170 563 2291 672 
Q 2413 781 2467 925 
Q 2522 1069 2522 1229 
Q 2522 1472 2438 1661 
Q 2355 1850 2144 1978 
Q 1933 2106 1581 2173 
Q 1229 2240 691 2240 
Q 730 2554 752 2829 
Q 774 3104 793 3366 
Q 813 3629 825 3888 
Q 838 4147 851 4435 
L 2989 4435 
L 2989 3930 
L 1370 3930 
Q 1363 3834 1350 3670 
Q 1338 3507 1325 3331 
Q 1312 3155 1299 2988 
Q 1286 2822 1274 2726 
z
" transform="scale(0.015625)"/>
       </defs>
       <use xlink:href="#Ubuntu-30"/>
       <use xlink:href="#Ubuntu-2e" x="56.399994"/>
       <use xlink:href="#Ubuntu-35" x="80.999985"/>
      </g>
     </g>
    </g>
    <g id="ytick_3">
     <g id="line2d_39">
      <g>
       <use xlink:href="#ma2a8324f55" x="27.1925" y="151.666875" style="fill: #cecece; stroke: #cecece; stroke-width: 0.75"/>
      </g>
     </g>
     <g id="text_21">
      <!-- 1.0 -->
      <g style="fill: #808080" transform="translate(7.2 154.770625) scale(0.08 -0.08)">
       <use xlink:href="#Ubuntu-31"/>
       <use xlink:href="#Ubuntu-2e" x="56.399994"/>
       <use xlink:href="#Ubuntu-30" x="80.999985"/>
      </g>
     </g>
    </g>
    <g id="ytick_4">
     <g id="line2d_40">
      <g>
       <use xlink:href="#ma2a8324f55" x="27.1925" y="123.946875" style="fill: #cecece; stroke: #cecece; stroke-width: 0.75"/>
      </g>
     </g>
     <g id="text_22">
      <!-- 1.5 -->
      <g style="fill: #808080" transform="translate(7.2 127.050625) scale(0.08 -0.08)">
       <use xlink:href="#Ubuntu-31"/>
       <use xlink:href="#Ubuntu-2e" x="56.399994"/>
       <use xlink:href="#Ubuntu-35" x="80.999985"/>
      </g>
     </g>
    </g>
    <g id="ytick_5">
     <g id="line2d_41">
      <g>
       <use xlink:href="#ma2a8324f55" x="27.1925" y="96.226875" style="fill: #cecece; stroke: #cecece; stroke-width: 0.75"/>
      </g>
     </g>
     <g id="text_23">
      <!-- 2.0 -->
      <g style="fill: #808080" transform="translate(7.2 99.330625) scale(0.08 -0.08)">
       <use xlink:href="#Ubuntu-32"/>
       <use xlink:href="#Ubuntu-2e" x="56.399994"/>
       <use xlink:href="#Ubuntu-30" x="80.999985"/>
      </g>
     </g>
    </g>
    <g id="ytick_6">
     <g id="line2d_42">
      <g>
       <use xlink:href="#ma2a8324f55" x="27.1925" y="68.506875" style="fill: #cecece; stroke: #cecece; stroke-width: 0.75"/>
      </g>
     </g>
     <g id="text_24">
      <!-- 2.5 -->
      <g style="fill: #808080" transform="translate(7.2 71.610625) scale(0.08 -0.08)">
       <use xlink:href="#Ubuntu-32"/>
       <use xlink:href="#Ubuntu-2e" x="56.399994"/>
       <use xlink:href="#Ubuntu-35" x="80.999985"/>
      </g>
     </g>
    </g>
    <g id="ytick_7">
     <g id="line2d_43">
      <g>
       <use xlink:href="#ma2a8324f55" x="27.1925" y="40.786875" style="fill: #cecece; stroke: #cecece; stroke-width: 0.75"/>
      </g>
     </g>
     <g id="text_25">
      <!-- 3.0 -->
      <g style="fill: #808080" transform="translate(7.2 43.890625) scale(0.08 -0.08)">
       <use xlink:href="#Ubuntu-33"/>
       <use xlink:href="#Ubuntu-2e" x="56.399994"/>
       <use xlink:href="#Ubuntu-30" x="80.999985"/>
      </g>
     </g>
    </g>
   </g>
   <g id="line2d_44">
    <path d="M 32.1925 151.666875 
L 33.828197 148.203234 
L 35.463894 145.701184 
L 37.099591 144.060277 
L 38.735287 143.180067 
L 40.370984 142.960106 
L 42.006681 143.299949 
L 43.642378 144.099148 
L 45.278075 145.257256 
L 46.913772 146.673826 
L 53.456559 152.915798 
L 55.092256 154.117979 
L 56.727953 154.975941 
L 58.363649 155.389827 
L 59.999346 155.322483 
L 61.635043 154.854228 
L 63.27074 154.078296 
L 66.542134 151.976332 
L 69.813527 149.762453 
L 71.449224 148.845584 
L 73.084921 148.136408 
L 74.720618 147.629939 
L 76.356315 147.317421 
L 77.992012 147.190101 
L 79.627708 147.239223 
L 81.263405 147.456031 
L 82.899102 147.83177 
L 84.534799 148.35749 
L 86.170496 149.020228 
L 89.441889 150.68981 
L 92.713283 152.705888 
L 97.620374 156.085776 
L 104.163161 160.863249 
L 109.070252 164.680639 
L 117.248736 171.234052 
L 120.520129 173.51004 
L 122.155826 174.490753 
L 123.791523 175.337272 
L 125.42722 176.019171 
L 127.062917 176.503485 
L 128.698614 176.757248 
L 130.334311 176.747494 
L 131.970007 176.441258 
L 133.605704 175.805572 
L 135.241401 174.807476 
L 136.877098 173.441304 
L 138.512795 171.794685 
L 145.055582 164.55448 
L 146.691279 163.118686 
L 148.326976 162.047437 
L 149.962673 161.387105 
L 151.598369 161.041937 
L 154.869763 160.833186 
L 156.50546 160.737648 
L 158.141157 160.493365 
L 159.776854 159.984359 
L 161.412551 159.095804 
L 163.048247 157.791516 
L 164.683944 156.163068 
L 167.955338 152.346807 
L 171.226732 148.473253 
L 172.862428 146.773187 
L 174.498125 145.366009 
L 176.133822 144.274 
L 177.769519 143.429518 
L 181.040913 142.192792 
L 184.312306 141.07514 
L 185.948003 140.379499 
L 187.5837 139.50022 
L 190.855094 137.259059 
L 195.762184 133.612593 
L 197.397881 132.569218 
L 199.033578 131.715252 
L 200.669275 131.106042 
L 202.304972 130.730649 
L 203.940668 130.540123 
L 207.212062 130.516066 
L 212.119153 130.631457 
L 215.390546 130.316022 
L 225.204727 128.812256 
L 226.840424 128.797026 
L 228.476121 128.923321 
L 230.111818 129.214479 
L 231.747515 129.693839 
L 233.383212 130.38474 
L 235.018908 131.31052 
L 236.654605 132.494518 
L 238.290302 133.960054 
L 239.925999 135.707832 
L 243.197393 139.776197 
L 248.104483 146.148151 
L 249.74018 148.033946 
L 251.375877 149.671785 
L 253.011574 151.02883 
L 254.647271 152.161548 
L 257.918664 154.022746 
L 261.190058 155.792869 
L 262.825755 156.811742 
L 264.461452 158.008333 
L 267.732845 160.925071 
L 272.639936 165.714715 
L 274.275633 167.176113 
L 275.911329 168.467563 
L 277.547026 169.529764 
L 279.182723 170.352219 
L 280.81842 170.973238 
L 282.454117 171.43325 
L 285.725511 172.031979 
L 292.268298 173.01196 
L 295.539692 173.459149 
L 297.175388 173.526996 
L 298.811085 173.426379 
L 300.446782 173.108828 
L 302.082479 172.525868 
L 303.718176 171.635552 
L 305.353873 170.450304 
L 306.989569 169.009546 
L 308.625266 167.352894 
L 311.89666 163.550378 
L 316.803751 157.213449 
L 334.796416 133.623605 
L 338.067809 129.708508 
L 341.339203 126.117579 
L 342.9749 124.482719 
L 344.610597 123.006665 
L 346.246294 121.73771 
L 347.881991 120.724144 
L 349.517687 120.014258 
L 351.153384 119.656345 
L 352.789081 119.698694 
L 354.424778 120.188765 
L 356.060475 121.103856 
L 359.331868 123.616532 
L 360.967565 124.899393 
L 362.603262 125.990121 
L 364.238959 126.731353 
L 365.874656 126.965727 
L 367.510353 126.540581 
L 369.146049 125.465094 
L 370.781746 123.947377 
L 374.05314 120.466549 
L 375.688837 118.944087 
L 377.324534 117.860695 
L 378.960231 117.436695 
L 380.595927 117.880522 
L 382.231624 119.184486 
L 383.867321 121.152517 
L 385.503018 123.58224 
L 390.410108 131.617786 
L 392.045805 133.870505 
L 393.681502 135.590168 
L 395.317199 136.778576 
L 396.952896 137.552664 
L 398.588593 138.031052 
L 403.495683 138.878217 
L 405.13138 139.360006 
L 406.767077 140.122744 
L 408.402774 141.152996 
L 410.038471 142.387765 
L 413.309864 145.218106 
L 416.581258 148.108271 
L 418.216955 149.417821 
L 419.852652 150.567261 
L 423.124045 152.482588 
L 429.666833 155.873847 
L 432.938226 157.961582 
L 436.20962 160.443438 
L 444.388104 166.99607 
L 446.023801 168.140676 
L 447.659498 169.128739 
L 449.295195 169.898816 
L 450.930892 170.389462 
L 452.566588 170.539235 
L 454.202285 170.286691 
L 455.837982 169.570387 
L 457.473679 168.32981 
L 459.109376 166.556923 
L 460.745073 164.32314 
L 462.380769 161.706499 
L 465.652163 155.636779 
L 475.466344 135.95389 
L 478.737738 130.082455 
L 482.009132 124.856982 
L 483.644828 122.536673 
L 486.916222 118.474612 
L 490.187616 115.058272 
L 493.45901 112.135523 
L 496.730403 109.556869 
L 500.001797 107.297235 
L 501.637494 106.333282 
L 503.273191 105.507217 
L 504.908887 104.839522 
L 506.544584 104.350682 
L 508.180281 104.061178 
L 509.815978 103.991495 
L 511.451675 104.162116 
L 513.087372 104.593523 
L 514.723068 105.3062 
L 516.358765 106.320631 
L 517.994462 107.657299 
L 519.630159 109.336686 
L 521.265856 111.379276 
L 521.265856 111.379276 
" clip-path="url(#peedce8da8e)" style="fill: none; stroke-dasharray: 5.55,2.4; stroke-dashoffset: 0; stroke: #5d5d5d; stroke-width: 1.5"/>
   </g>
   <g id="line2d_45">
    <path d="M 32.1925 151.666875 
L 33.872099 151.622959 
L 35.551697 151.374229 
L 37.231296 150.942495 
L 38.910895 150.349567 
L 42.270092 148.767376 
L 45.629289 146.80214 
L 57.38648 139.426461 
L 60.745677 137.861818 
L 65.784473 135.970575 
L 70.823269 134.062875 
L 72.502868 133.307778 
L 74.182467 132.421437 
L 75.862065 131.344918 
L 77.541664 130.019284 
L 79.221263 128.385599 
L 80.900861 126.384927 
L 82.58046 123.958333 
L 84.260059 121.048725 
L 87.619256 114.16672 
L 89.298855 110.659683 
L 90.978453 107.428709 
L 92.658052 104.713861 
L 94.337651 102.755202 
L 96.017249 101.792795 
L 97.696848 102.043444 
L 99.376446 103.453538 
L 101.056045 105.795009 
L 102.735644 108.836882 
L 106.094841 116.09793 
L 109.454038 123.388875 
L 111.133637 126.51206 
L 112.813236 129.213439 
L 114.492834 131.525682 
L 116.172433 133.48146 
L 117.852032 135.113445 
L 119.53163 136.454307 
L 121.211229 137.536718 
L 122.890828 138.393087 
L 124.570426 139.040124 
L 126.250025 139.47021 
L 127.929624 139.673628 
L 129.609222 139.640667 
L 131.288821 139.36161 
L 132.96842 138.826744 
L 134.648018 138.026356 
L 136.327617 136.954733 
L 138.007216 135.652719 
L 141.366413 132.641513 
L 144.72561 129.563232 
L 146.405209 128.177376 
L 148.084808 126.988875 
L 149.764406 126.051548 
L 151.444005 125.348989 
L 153.123604 124.847234 
L 154.803202 124.512321 
L 158.1624 124.207169 
L 169.91959 123.891365 
L 173.278788 123.398319 
L 176.637985 122.550817 
L 181.676781 121.076179 
L 185.035978 120.403412 
L 186.715577 120.274875 
L 188.395176 120.317486 
L 195.11357 120.938815 
L 196.793169 120.845682 
L 198.472768 120.508688 
L 200.152366 119.856473 
L 201.831965 118.870265 
L 203.511564 117.612804 
L 206.870761 114.563138 
L 211.909557 109.69807 
L 215.268754 106.98289 
L 223.666747 100.875783 
L 225.346346 99.376875 
L 228.705543 95.87507 
L 233.744339 90.407836 
L 235.423938 88.835007 
L 237.103537 87.514796 
L 238.783135 86.523657 
L 240.462734 85.923368 
L 242.142333 85.752958 
L 243.821931 86.049503 
L 245.50153 86.850076 
L 247.181129 88.191752 
L 248.860727 90.111605 
L 250.540326 92.64671 
L 252.219925 95.825021 
L 253.899523 99.568487 
L 257.258721 108.163977 
L 262.297517 121.614866 
L 263.977115 125.656875 
L 265.656714 129.265385 
L 267.336313 132.459231 
L 269.015911 135.290528 
L 270.69551 137.811393 
L 272.375109 140.073943 
L 275.734306 144.032561 
L 279.093503 147.551171 
L 282.452701 150.640888 
L 284.132299 151.953299 
L 285.811898 153.071748 
L 287.491497 153.966988 
L 289.171095 154.609771 
L 290.850694 154.974751 
L 292.530293 155.081949 
L 294.209891 154.980652 
L 297.569089 154.351673 
L 302.607885 153.088875 
L 305.967082 152.52683 
L 311.005878 152.075939 
L 317.724273 151.531827 
L 322.763069 150.809143 
L 327.801865 149.798359 
L 332.840661 148.522498 
L 339.559055 146.538816 
L 346.27745 144.510129 
L 349.636647 143.767902 
L 351.316246 143.538817 
L 352.995844 143.43275 
L 354.675443 143.470638 
L 356.355042 143.654749 
L 359.714239 144.352445 
L 369.791831 147.003421 
L 373.151028 147.492609 
L 376.510226 147.710947 
L 379.869423 147.652875 
L 383.22862 147.25921 
L 384.908219 146.854356 
L 386.587818 146.256268 
L 388.267416 145.424033 
L 389.947015 144.316738 
L 391.626614 142.893467 
L 393.306212 141.1142 
L 394.985811 138.992391 
L 398.345008 134.113656 
L 401.704206 129.077931 
L 403.383804 126.759886 
L 405.063403 124.713018 
L 406.743002 123.036341 
L 408.4226 121.776993 
L 410.102199 120.948644 
L 411.781798 120.56441 
L 413.461396 120.637402 
L 415.140995 121.180735 
L 416.820594 122.207522 
L 418.500192 123.730875 
L 420.179791 125.741727 
L 421.85939 128.14228 
L 425.218587 133.632576 
L 428.577784 139.241933 
L 430.257383 141.791312 
L 431.936982 144.011617 
L 433.61658 145.849863 
L 435.296179 147.355196 
L 436.975778 148.585552 
L 438.655376 149.598863 
L 442.014574 151.206092 
L 453.771764 156.104723 
L 457.130962 157.030875 
L 460.490159 157.492519 
L 463.849356 157.597724 
L 475.606547 157.300557 
L 478.965744 157.133346 
L 482.324941 156.733192 
L 485.684139 156.002921 
L 495.761731 153.232875 
L 499.120928 152.705941 
L 502.480125 152.449059 
L 507.518921 152.400933 
L 522.635309 152.673866 
L 525.994507 152.527764 
L 529.353704 152.215345 
L 532.712901 151.694553 
L 534.3925 151.342875 
L 534.3925 151.342875 
" clip-path="url(#peedce8da8e)" style="fill: none; stroke: #7e6459; stroke-width: 1.25; stroke-linecap: square"/>
   </g>
   <g id="line2d_46">
    <path d="M 32.1925 151.666875 
L 33.872099 146.647888 
L 35.551697 142.998995 
L 37.231296 140.583628 
L 38.910895 139.265217 
L 40.590493 138.907193 
L 42.270092 139.372987 
L 43.949691 140.52603 
L 45.629289 142.229754 
L 47.308888 144.347587 
L 50.668085 149.27931 
L 54.027283 154.228646 
L 55.706881 156.368496 
L 57.38648 158.103042 
L 59.066079 159.307613 
L 60.745677 159.99585 
L 62.425276 160.270629 
L 64.104875 160.236313 
L 67.464072 159.65785 
L 70.823269 159.095366 
L 72.502868 159.061454 
L 74.182467 159.227213 
L 75.862065 159.579592 
L 77.541664 160.105541 
L 79.221263 160.792009 
L 80.900861 161.625945 
L 84.260059 163.683934 
L 87.619256 166.144823 
L 96.017249 172.665861 
L 99.376446 174.873752 
L 102.735644 176.757125 
L 106.094841 178.396426 
L 111.133637 180.570308 
L 114.492834 181.850519 
L 117.852032 182.886913 
L 121.211229 183.57209 
L 122.890828 183.749336 
L 124.570426 183.794002 
L 126.250025 183.681481 
L 127.929624 183.386588 
L 129.609222 182.884135 
L 131.288821 182.148937 
L 132.96842 181.155808 
L 134.648018 179.879559 
L 136.327617 178.300972 
L 139.686814 174.481998 
L 143.046012 170.415995 
L 144.72561 168.529367 
L 146.405209 166.867793 
L 148.084808 165.526875 
L 149.764406 164.571219 
L 151.444005 163.94143 
L 153.123604 163.547117 
L 159.841998 162.516758 
L 161.521597 161.944822 
L 163.201196 161.121418 
L 164.880794 160.093797 
L 168.239992 157.643498 
L 173.278788 153.796405 
L 176.637985 151.68291 
L 181.676781 149.038865 
L 185.035978 147.218934 
L 188.395176 145.047595 
L 191.754373 142.754578 
L 193.433972 141.785605 
L 195.11357 141.058262 
L 196.793169 140.665002 
L 198.472768 140.698277 
L 200.152366 141.249129 
L 201.831965 142.323816 
L 203.511564 143.797188 
L 206.870761 147.394163 
L 210.229958 150.948408 
L 211.909557 152.368369 
L 213.589156 153.380724 
L 215.268754 154.006114 
L 216.948353 154.358501 
L 221.987149 154.932844 
L 223.666747 155.348416 
L 225.346346 156.068582 
L 227.025945 157.175899 
L 228.705543 158.621074 
L 230.385142 160.321852 
L 233.744339 164.161195 
L 237.103537 168.035888 
L 238.783135 169.781412 
L 240.462734 171.323735 
L 242.142333 172.66686 
L 243.821931 173.819272 
L 245.50153 174.789454 
L 247.181129 175.585891 
L 248.860727 176.217067 
L 250.540326 176.691466 
L 253.899523 177.237385 
L 258.938319 177.744466 
L 260.617918 178.037917 
L 262.297517 178.480111 
L 263.977115 179.122968 
L 265.656714 179.994231 
L 272.375109 184.142447 
L 274.054707 184.879629 
L 275.734306 185.310596 
L 277.413905 185.343362 
L 279.093503 184.954631 
L 280.773102 184.227588 
L 282.452701 183.254574 
L 289.171095 178.74965 
L 290.850694 177.924169 
L 292.530293 177.301272 
L 295.88949 176.408337 
L 299.248687 175.556209 
L 300.928286 174.984322 
L 302.607885 174.229287 
L 304.287483 173.243938 
L 305.967082 172.050254 
L 309.326279 169.194941 
L 319.403871 159.544497 
L 322.763069 156.217241 
L 326.122266 152.40909 
L 327.801865 150.224495 
L 329.481463 147.804697 
L 332.840661 142.403204 
L 339.559055 131.197251 
L 341.238654 128.697199 
L 342.918253 126.450246 
L 344.597851 124.524412 
L 346.27745 122.988107 
L 347.957048 121.909742 
L 349.636647 121.357727 
L 351.316246 121.400473 
L 352.995844 122.106392 
L 354.675443 123.542134 
L 356.355042 125.668776 
L 358.03464 128.283757 
L 363.073436 136.892355 
L 364.753035 139.294312 
L 366.432634 141.101417 
L 368.112232 142.12004 
L 369.791831 142.423999 
L 371.47143 142.259665 
L 374.830627 141.523092 
L 376.510226 141.449343 
L 378.189824 141.904278 
L 379.869423 143.137143 
L 381.549022 145.313351 
L 383.22862 148.262991 
L 384.908219 151.732322 
L 389.947015 162.721044 
L 391.626614 165.731723 
L 393.306212 167.99602 
L 394.985811 169.420966 
L 396.66541 170.158703 
L 398.345008 170.382459 
L 400.024607 170.26546 
L 403.383804 169.702108 
L 405.063403 169.602208 
L 406.743002 169.84145 
L 408.4226 170.428792 
L 410.102199 171.275605 
L 413.461396 173.386622 
L 416.820594 175.45246 
L 418.500192 176.242799 
L 420.179791 176.770826 
L 421.85939 177.045032 
L 423.538988 177.093656 
L 425.218587 176.944938 
L 426.898186 176.627116 
L 430.257383 175.59712 
L 435.296179 173.511576 
L 438.655376 172.178839 
L 440.334975 171.645181 
L 442.014574 171.251341 
L 443.694172 171.035828 
L 445.373771 171.031444 
L 448.732968 171.479171 
L 452.092166 172.023921 
L 453.771764 172.140103 
L 455.451363 172.049449 
L 457.130962 171.674929 
L 458.81056 170.956963 
L 460.490159 169.905779 
L 462.169758 168.549057 
L 463.849356 166.914478 
L 465.528955 165.02972 
L 467.208554 162.922463 
L 470.567751 158.151281 
L 473.926948 152.85946 
L 480.645343 142.124238 
L 484.00454 137.402563 
L 487.363737 133.356233 
L 490.722935 129.747889 
L 500.800527 119.490964 
L 502.480125 118.173626 
L 504.159724 117.219727 
L 505.839323 116.734714 
L 507.518921 116.82403 
L 509.19852 117.591721 
L 510.878119 119.057889 
L 512.557717 121.112524 
L 514.237316 123.634422 
L 515.916915 126.50238 
L 524.314908 141.790972 
L 525.994507 144.190028 
L 527.674105 146.086723 
L 529.353704 147.359854 
L 531.033303 147.888218 
L 532.712901 147.550611 
L 534.3925 146.225831 
L 534.3925 146.225831 
" clip-path="url(#peedce8da8e)" style="fill: none; stroke: #489079; stroke-width: 1.25; stroke-linecap: square"/>
   </g>
   <g id="line2d_47">
    <path d="M 32.1925 151.666875 
L 33.872099 150.233793 
L 35.551697 149.130915 
L 37.231296 148.330109 
L 38.910895 147.803248 
L 40.590493 147.522201 
L 42.270092 147.45884 
L 43.949691 147.585036 
L 45.629289 147.87266 
L 48.988487 148.819672 
L 52.347684 150.074843 
L 57.38648 152.043139 
L 60.745677 153.115754 
L 65.784473 154.369414 
L 72.502868 155.913132 
L 75.862065 156.840177 
L 79.221263 157.96292 
L 82.58046 159.345128 
L 85.939657 161.041069 
L 89.298855 162.994594 
L 99.376446 169.14012 
L 112.813236 176.59237 
L 116.172433 178.272648 
L 117.852032 178.951132 
L 119.53163 179.475506 
L 121.211229 179.811015 
L 122.890828 179.923109 
L 124.570426 179.789551 
L 126.250025 179.407192 
L 127.929624 178.774523 
L 129.609222 177.890034 
L 131.288821 176.752218 
L 132.96842 175.359565 
L 134.648018 173.710567 
L 136.327617 171.808197 
L 139.686814 167.497217 
L 143.046012 163.104675 
L 144.72561 161.100911 
L 146.405209 159.344469 
L 148.084808 157.924585 
L 149.764406 156.906077 
L 151.444005 156.256075 
L 153.123604 155.917292 
L 154.803202 155.832438 
L 156.482801 155.944224 
L 159.841998 156.52856 
L 164.880794 157.509489 
L 168.239992 157.816526 
L 169.91959 157.781446 
L 171.599189 157.583197 
L 173.278788 157.193701 
L 174.958386 156.589246 
L 176.637985 155.796893 
L 179.997182 153.8883 
L 183.35638 151.950264 
L 185.035978 151.121108 
L 186.715577 150.465675 
L 188.395176 150.015992 
L 193.433972 148.975035 
L 195.11357 148.365275 
L 196.793169 147.441392 
L 198.472768 146.093744 
L 200.152366 144.214643 
L 201.831965 141.813509 
L 208.55036 130.963694 
L 210.229958 128.972717 
L 211.909557 127.683449 
L 213.589156 127.283546 
L 215.268754 127.740903 
L 216.948353 128.881632 
L 218.627952 130.529486 
L 221.987149 134.641567 
L 223.666747 136.753296 
L 225.346346 138.667151 
L 227.025945 140.252493 
L 228.705543 141.561122 
L 232.064741 143.737877 
L 235.423938 145.976694 
L 237.103537 147.362899 
L 238.783135 149.055618 
L 240.462734 151.077162 
L 243.821931 155.728164 
L 247.181129 160.509535 
L 248.860727 162.694039 
L 250.540326 164.605053 
L 252.219925 166.149305 
L 253.899523 167.33532 
L 255.579122 168.237296 
L 257.258721 168.930526 
L 263.977115 171.121854 
L 265.656714 171.88068 
L 269.015911 173.7209 
L 274.054707 176.610428 
L 275.734306 177.427464 
L 277.413905 178.096465 
L 279.093503 178.589411 
L 280.773102 178.9044 
L 282.452701 179.041776 
L 284.132299 179.001883 
L 285.811898 178.785064 
L 287.491497 178.391663 
L 289.171095 177.822025 
L 290.850694 177.077945 
L 292.530293 176.178116 
L 295.88949 174.029759 
L 305.967082 166.916578 
L 309.326279 164.976278 
L 312.685477 163.456091 
L 314.365075 162.88638 
L 316.044674 162.460693 
L 319.403871 161.954137 
L 322.763069 161.55575 
L 324.442667 161.261956 
L 326.122266 160.833006 
L 327.801865 160.214836 
L 329.481463 159.358657 
L 331.161062 158.277044 
L 334.520259 155.646813 
L 341.238654 149.997303 
L 344.597851 147.692542 
L 349.636647 144.522933 
L 352.995844 142.075002 
L 354.675443 140.615908 
L 358.03464 137.247354 
L 361.393838 133.746545 
L 363.073436 132.127942 
L 364.753035 130.693954 
L 366.432634 129.517139 
L 368.112232 128.666554 
L 369.791831 128.170536 
L 371.47143 128.031154 
L 373.151028 128.250037 
L 374.830627 128.828814 
L 376.510226 129.769114 
L 378.189824 131.072569 
L 379.869423 132.740806 
L 381.549022 134.763108 
L 383.22862 137.079363 
L 386.587818 142.303893 
L 391.626614 150.533845 
L 394.985811 155.457579 
L 396.66541 157.605655 
L 398.345008 159.515783 
L 400.024607 161.167033 
L 401.704206 162.538472 
L 403.383804 163.609172 
L 405.063403 164.358202 
L 406.743002 164.770375 
L 408.4226 164.897281 
L 411.781798 164.674692 
L 415.140995 164.452822 
L 416.820594 164.580628 
L 418.500192 164.994778 
L 420.179791 165.756249 
L 421.85939 166.788365 
L 426.898186 170.397695 
L 428.577784 171.401504 
L 430.257383 172.120516 
L 431.936982 172.444675 
L 433.61658 172.325884 
L 435.296179 171.812083 
L 436.975778 170.959474 
L 438.655376 169.824259 
L 440.334975 168.462639 
L 443.694172 165.284993 
L 448.732968 160.073438 
L 460.490159 147.70015 
L 463.849356 144.555319 
L 465.528955 143.160114 
L 467.208554 141.917692 
L 468.888152 140.854032 
L 470.567751 139.994616 
L 472.247349 139.334954 
L 475.606547 138.407104 
L 480.645343 137.169859 
L 482.324941 136.578877 
L 484.00454 135.812092 
L 487.363737 133.824447 
L 494.082132 129.354736 
L 495.761731 128.410751 
L 497.441329 127.618336 
L 500.800527 126.413435 
L 504.159724 125.527528 
L 509.19852 124.304666 
L 515.916915 122.296173 
L 519.276112 121.348307 
L 522.635309 120.615345 
L 525.994507 120.230276 
L 527.674105 120.20976 
L 529.353704 120.326087 
L 531.033303 120.595881 
L 532.712901 121.035766 
L 534.3925 121.662365 
L 534.3925 121.662365 
" clip-path="url(#peedce8da8e)" style="fill: none; stroke: #b3625a; stroke-width: 1.25; stroke-linecap: square"/>
   </g>
   <g id="line2d_48">
    <path d="M 32.1925 151.666875 
L 33.872099 151.67851 
L 35.551697 151.546692 
L 38.910895 150.923344 
L 42.270092 149.93812 
L 47.308888 148.090835 
L 52.347684 146.224078 
L 55.706881 145.204236 
L 59.066079 144.526097 
L 67.464072 143.515162 
L 69.143671 143.117067 
L 70.823269 142.559443 
L 72.502868 141.816156 
L 75.862065 139.910298 
L 82.58046 135.684601 
L 84.260059 134.804853 
L 85.939657 134.071463 
L 87.619256 133.493194 
L 89.298855 133.076924 
L 90.978453 132.829528 
L 92.658052 132.757883 
L 94.337651 132.868866 
L 96.017249 133.169352 
L 97.696848 133.66347 
L 101.056045 135.100667 
L 107.77444 138.407544 
L 109.454038 139.039759 
L 111.133637 139.509892 
L 112.813236 139.835655 
L 116.172433 140.178115 
L 124.570426 140.661791 
L 129.609222 141.399574 
L 138.007216 142.744674 
L 159.841998 145.502698 
L 164.880794 145.937387 
L 168.239992 146.018729 
L 171.599189 145.849561 
L 174.958386 145.361028 
L 179.997182 144.362841 
L 181.676781 144.159039 
L 183.35638 144.106946 
L 185.035978 144.25891 
L 186.715577 144.667277 
L 188.395176 145.344873 
L 191.754373 146.887188 
L 193.433972 147.38234 
L 195.11357 147.447112 
L 196.793169 146.89672 
L 198.472768 145.546382 
L 200.152366 143.214146 
L 201.831965 139.887987 
L 203.511564 135.819263 
L 210.229958 117.598999 
L 211.909557 113.927663 
L 213.589156 111.134658 
L 215.268754 109.201204 
L 216.948353 107.934588 
L 218.627952 107.139197 
L 223.666747 105.624251 
L 225.346346 104.757635 
L 227.025945 103.445039 
L 228.705543 101.795141 
L 232.064741 98.161584 
L 233.744339 96.516996 
L 235.423938 95.213251 
L 237.103537 94.419884 
L 238.783135 94.304383 
L 240.462734 94.911283 
L 242.142333 96.094549 
L 243.821931 97.691751 
L 250.540326 104.971321 
L 252.219925 106.214635 
L 253.899523 107.072797 
L 255.579122 107.642587 
L 258.938319 108.310614 
L 262.297517 109.00584 
L 263.977115 109.60963 
L 265.656714 110.498773 
L 267.336313 111.688573 
L 269.015911 113.177713 
L 270.69551 114.964876 
L 272.375109 117.048747 
L 274.054707 119.42801 
L 275.734306 122.101349 
L 277.413905 125.066712 
L 280.773102 131.619972 
L 284.132299 138.214582 
L 285.811898 141.225736 
L 287.491497 143.885241 
L 289.171095 146.072433 
L 290.850694 147.677656 
L 292.530293 148.719174 
L 294.209891 149.297785 
L 295.88949 149.515662 
L 297.569089 149.474977 
L 304.287483 148.746094 
L 307.646681 148.87491 
L 312.685477 149.149182 
L 314.365075 149.09503 
L 316.044674 148.898761 
L 317.724273 148.538857 
L 319.403871 148.024722 
L 321.08347 147.368419 
L 324.442667 145.677561 
L 327.801865 143.562786 
L 331.161062 141.067289 
L 332.840661 139.588529 
L 334.520259 137.879871 
L 336.199858 135.884289 
L 337.879457 133.544759 
L 339.559055 130.804257 
L 341.238654 127.605756 
L 342.918253 123.933948 
L 349.636647 107.961819 
L 351.316246 104.613895 
L 352.995844 101.910547 
L 354.675443 100.042371 
L 356.355042 99.039692 
L 358.03464 98.684416 
L 359.714239 98.737081 
L 363.073436 99.108385 
L 364.753035 98.948098 
L 366.432634 98.237901 
L 368.112232 96.75783 
L 369.791831 94.514574 
L 371.47143 91.661056 
L 373.151028 88.352632 
L 376.510226 80.992497 
L 379.869423 73.677033 
L 381.549022 70.408762 
L 383.22862 67.523623 
L 384.908219 65.082867 
L 386.587818 63.147743 
L 388.267416 61.779501 
L 389.947015 61.039391 
L 391.626614 60.988663 
L 393.306212 61.687363 
L 394.985811 63.123422 
L 396.66541 65.172981 
L 398.345008 67.702569 
L 401.704206 73.667935 
L 405.063403 79.95174 
L 408.4226 85.647642 
L 415.140995 96.381316 
L 416.820594 99.369005 
L 418.500192 102.629917 
L 421.85939 110.024666 
L 426.898186 121.781605 
L 428.577784 125.431574 
L 430.257383 128.761082 
L 431.936982 131.659557 
L 433.61658 134.07663 
L 435.296179 136.055238 
L 436.975778 137.646346 
L 438.655376 138.90092 
L 440.334975 139.869925 
L 442.014574 140.604326 
L 443.694172 141.155087 
L 447.05337 141.878489 
L 450.412567 142.210283 
L 453.771764 142.236376 
L 457.130962 142.042427 
L 462.169758 141.512372 
L 472.247349 140.356955 
L 477.286145 139.814007 
L 480.645343 139.213504 
L 484.00454 138.255275 
L 487.363737 136.927072 
L 495.761731 133.273044 
L 499.120928 132.17725 
L 502.480125 131.3559 
L 505.839323 130.744822 
L 510.878119 130.086641 
L 515.916915 129.687884 
L 519.276112 129.608035 
L 522.635309 129.709743 
L 525.994507 130.021094 
L 529.353704 130.570172 
L 532.712901 131.385062 
L 534.3925 131.900964 
L 534.3925 131.900964 
" clip-path="url(#peedce8da8e)" style="fill: none; stroke: #6893b8; stroke-width: 1.25; stroke-linecap: square"/>
   </g>
   <g id="line2d_49">
    <path d="M 32.1925 151.666875 
L 33.872099 151.741324 
L 35.551697 151.598106 
L 37.231296 151.258069 
L 38.910895 150.742059 
L 40.590493 150.070924 
L 43.949691 148.346666 
L 47.308888 146.252075 
L 59.066079 138.410794 
L 62.425276 136.607792 
L 67.464072 134.215915 
L 72.502868 131.869188 
L 74.182467 130.943266 
L 75.862065 129.799413 
L 77.541664 128.338512 
L 79.221263 126.461447 
L 80.900861 124.069101 
L 82.58046 121.062357 
L 84.260059 117.344167 
L 85.939657 112.941512 
L 89.298855 102.976277 
L 92.658052 93.036276 
L 94.337651 88.665165 
L 96.017249 85.007672 
L 97.696848 82.286946 
L 99.376446 80.579379 
L 101.056045 79.866688 
L 102.735644 80.12901 
L 104.415242 81.346484 
L 106.094841 83.499246 
L 107.77444 86.567435 
L 109.454038 90.531188 
L 111.133637 95.3314 
L 114.492834 106.537633 
L 117.852032 118.182784 
L 119.53163 123.531643 
L 121.211229 128.224259 
L 122.890828 132.007843 
L 124.570426 134.781756 
L 126.250025 136.681189 
L 127.929624 137.861619 
L 129.609222 138.478522 
L 131.288821 138.687377 
L 134.648018 138.50285 
L 138.007216 138.419303 
L 141.366413 138.666785 
L 146.405209 139.375218 
L 153.123604 140.306649 
L 156.482801 140.587891 
L 159.841998 140.672355 
L 163.201196 140.509143 
L 166.560393 140.094496 
L 169.91959 139.45507 
L 173.278788 138.618023 
L 183.35638 135.732977 
L 186.715577 135.174665 
L 191.754373 134.775785 
L 193.433972 134.441907 
L 195.11357 133.849306 
L 196.793169 132.903025 
L 198.472768 131.508107 
L 200.152366 129.57107 
L 201.831965 127.087079 
L 203.511564 124.188695 
L 211.909557 108.534195 
L 213.589156 106.171467 
L 215.268754 104.26908 
L 216.948353 102.770638 
L 218.627952 101.618498 
L 220.30755 100.755017 
L 221.987149 100.122551 
L 223.666747 99.663458 
L 227.025945 99.049581 
L 228.705543 98.868103 
L 230.385142 98.806607 
L 232.064741 98.896043 
L 233.744339 99.167358 
L 235.423938 99.651502 
L 237.103537 100.379421 
L 238.783135 101.381525 
L 240.462734 102.655779 
L 242.142333 104.149861 
L 245.50153 107.570928 
L 250.540326 112.935092 
L 253.899523 116.090031 
L 258.938319 120.577556 
L 260.617918 122.220111 
L 262.297517 124.024475 
L 263.977115 126.04372 
L 265.656714 128.311116 
L 269.015911 133.386781 
L 274.054707 141.366286 
L 277.413905 146.163376 
L 279.093503 148.235823 
L 280.773102 150.081446 
L 282.452701 151.707199 
L 284.132299 153.120037 
L 285.811898 154.326913 
L 287.491497 155.334781 
L 289.171095 156.150597 
L 290.850694 156.782248 
L 292.530293 157.248468 
L 294.209891 157.574991 
L 297.569089 157.912345 
L 302.607885 158.016896 
L 309.326279 158.030284 
L 312.685477 157.779608 
L 316.044674 157.170946 
L 319.403871 156.113872 
L 322.763069 154.638909 
L 326.122266 152.794778 
L 329.481463 150.63114 
L 339.559055 143.644986 
L 342.918253 141.810199 
L 346.27745 140.4208 
L 349.636647 139.414341 
L 352.995844 138.722758 
L 356.355042 138.279511 
L 359.714239 138.035838 
L 364.753035 137.963 
L 371.47143 138.103558 
L 373.151028 138.016911 
L 374.830627 137.80166 
L 376.510226 137.417147 
L 378.189824 136.822717 
L 379.869423 135.977712 
L 381.549022 134.850587 
L 383.22862 133.446238 
L 384.908219 131.778674 
L 386.587818 129.861904 
L 388.267416 127.709933 
L 389.947015 125.336772 
L 393.306212 119.983447 
L 400.024607 108.425759 
L 401.704206 105.923799 
L 403.383804 103.780116 
L 405.063403 102.096358 
L 406.743002 100.967116 
L 408.4226 100.404968 
L 410.102199 100.369584 
L 411.781798 100.819749 
L 413.461396 101.714248 
L 415.140995 103.011869 
L 416.820594 104.671397 
L 418.500192 106.651617 
L 420.179791 108.908096 
L 423.538988 114.017312 
L 430.257383 124.925534 
L 433.61658 129.78 
L 435.296179 131.932659 
L 436.975778 133.902114 
L 438.655376 135.689005 
L 440.334975 137.293969 
L 442.014574 138.717646 
L 443.694172 139.960677 
L 445.373771 141.024575 
L 447.05337 141.921045 
L 448.732968 142.668364 
L 452.092166 143.789097 
L 455.451363 144.533866 
L 458.81056 145.047009 
L 463.849356 145.539842 
L 468.888152 145.749747 
L 473.926948 145.696224 
L 477.286145 145.411631 
L 480.645343 144.811485 
L 484.00454 143.79763 
L 487.363737 142.389648 
L 495.761731 138.505823 
L 499.120928 137.3266 
L 502.480125 136.406756 
L 507.518921 135.309911 
L 515.916915 133.547416 
L 520.955711 132.245564 
L 524.314908 131.187791 
L 527.674105 129.928854 
L 531.033303 128.426524 
L 534.3925 126.63857 
L 534.3925 126.63857 
" clip-path="url(#peedce8da8e)" style="fill: none; stroke: #d8805d; stroke-width: 1.25; stroke-linecap: square"/>
   </g>
   <g id="patch_4">
    <path d="M 27.1925 207.106875 
L 27.1925 40.786875 
" style="fill: none; stroke: #cccccc; stroke-width: 0.75; stroke-linejoin: miter; stroke-linecap: square"/>
   </g>
   <g id="patch_5">
    <path d="M 32.1925 212.106875 
L 534.3925 212.106875 
" style="fill: none; stroke: #cccccc; stroke-width: 0.75; stroke-linejoin: miter; stroke-linecap: square"/>
   </g>
   <g id="legend_1">
    <g id="line2d_50">
     <path d="M 40.2925 14.696719 
L 46.3675 14.696719 
L 52.4425 14.696719 
" style="fill: none; stroke-dasharray: 5.55,2.4; stroke-dashoffset: 0; stroke: #5d5d5d; stroke-width: 1.5"/>
    </g>
    <g id="text_26">
     <!-- Овощи (средняя цена у производителей) -->
     <g style="fill: #4b4b4b" transform="translate(59.6425 17.846719) scale(0.09 -0.09)">
      <defs>
       <path id="Ubuntu-43e" d="M 3450 1664 
Q 3450 1267 3334 947 
Q 3219 627 3011 396 
Q 2803 166 2515 41 
Q 2227 -83 1888 -83 
Q 1549 -83 1261 41 
Q 973 166 765 396 
Q 557 627 441 947 
Q 326 1267 326 1664 
Q 326 2054 441 2377 
Q 557 2701 765 2931 
Q 973 3162 1261 3286 
Q 1549 3411 1888 3411 
Q 2227 3411 2515 3286 
Q 2803 3162 3011 2931 
Q 3219 2701 3334 2377 
Q 3450 2054 3450 1664 
z
M 2829 1664 
Q 2829 2227 2576 2556 
Q 2323 2886 1888 2886 
Q 1453 2886 1200 2556 
Q 947 2227 947 1664 
Q 947 1101 1200 771 
Q 1453 442 1888 442 
Q 2323 442 2576 771 
Q 2829 1101 2829 1664 
z
" transform="scale(0.015625)"/>
       <path id="Ubuntu-449" d="M 512 0 
L 512 3328 
L 1107 3328 
L 1107 493 
L 2336 493 
L 2336 3328 
L 2931 3328 
L 2931 493 
L 4160 493 
L 4160 3328 
L 4755 3328 
L 4755 493 
L 5203 493 
L 5203 -928 
L 4640 -928 
L 4640 0 
L 512 0 
z
" transform="scale(0.015625)"/>
       <path id="Ubuntu-438" d="M 3309 3328 
L 3309 0 
L 2733 0 
L 2733 2534 
Q 2541 2291 2310 1964 
Q 2080 1638 1849 1289 
Q 1619 941 1408 601 
Q 1197 262 1043 0 
L 512 0 
L 512 3328 
L 1088 3328 
L 1088 934 
Q 1254 1210 1465 1539 
Q 1677 1869 1904 2192 
Q 2131 2515 2358 2812 
Q 2586 3110 2784 3328 
L 3309 3328 
z
" transform="scale(0.015625)"/>
       <path id="Ubuntu-20" transform="scale(0.015625)"/>
       <path id="Ubuntu-28" d="M 1094 1914 
Q 1094 1094 1331 396 
Q 1568 -301 2029 -896 
L 1606 -1184 
Q 1107 -576 803 214 
Q 499 1005 499 1914 
Q 499 2822 803 3612 
Q 1107 4403 1606 5011 
L 2029 4723 
Q 1568 4128 1331 3430 
Q 1094 2733 1094 1914 
z
" transform="scale(0.015625)"/>
       <path id="Ubuntu-441" d="M 1958 -77 
Q 1555 -77 1251 51 
Q 947 179 739 409 
Q 531 640 428 957 
Q 326 1274 326 1658 
Q 326 2042 438 2362 
Q 550 2682 755 2915 
Q 960 3149 1257 3280 
Q 1555 3411 1920 3411 
Q 2144 3411 2368 3372 
Q 2592 3334 2797 3251 
L 2662 2746 
Q 2528 2810 2352 2848 
Q 2176 2886 1978 2886 
Q 1478 2886 1212 2572 
Q 947 2259 947 1658 
Q 947 1389 1008 1165 
Q 1069 941 1200 781 
Q 1331 621 1536 534 
Q 1741 448 2035 448 
Q 2272 448 2464 493 
Q 2656 538 2765 589 
L 2848 90 
Q 2797 58 2701 29 
Q 2605 0 2483 -22 
Q 2362 -45 2224 -61 
Q 2086 -77 1958 -77 
z
" transform="scale(0.015625)"/>
       <path id="Ubuntu-435" d="M 326 1658 
Q 326 2099 454 2428 
Q 582 2758 793 2976 
Q 1005 3194 1280 3302 
Q 1555 3411 1843 3411 
Q 2515 3411 2873 2992 
Q 3232 2573 3232 1715 
Q 3232 1677 3232 1616 
Q 3232 1555 3226 1504 
L 947 1504 
Q 986 986 1248 717 
Q 1510 448 2067 448 
Q 2381 448 2595 502 
Q 2810 557 2918 608 
L 3002 109 
Q 2893 51 2621 -13 
Q 2349 -77 2003 -77 
Q 1568 -77 1251 54 
Q 934 186 729 416 
Q 525 646 425 963 
Q 326 1280 326 1658 
z
M 2611 1984 
Q 2618 2387 2410 2646 
Q 2202 2906 1837 2906 
Q 1632 2906 1475 2826 
Q 1318 2746 1209 2618 
Q 1101 2490 1040 2323 
Q 979 2157 960 1984 
L 2611 1984 
z
" transform="scale(0.015625)"/>
       <path id="Ubuntu-434" d="M 102 486 
L 461 486 
Q 672 794 797 1120 
Q 922 1446 986 1795 
Q 1050 2144 1069 2525 
Q 1088 2906 1094 3328 
L 3277 3328 
L 3277 486 
L 3725 486 
L 3725 -928 
L 3162 -928 
L 3162 0 
L 666 0 
L 666 -928 
L 102 -928 
L 102 486 
z
M 2682 486 
L 2682 2829 
L 1638 2829 
Q 1632 2528 1606 2224 
Q 1581 1920 1523 1622 
Q 1466 1325 1360 1040 
Q 1254 755 1094 486 
L 2682 486 
z
" transform="scale(0.015625)"/>
       <path id="Ubuntu-44f" d="M 1888 1293 
Q 1792 1293 1702 1296 
Q 1613 1299 1530 1306 
Q 1325 998 1136 649 
Q 947 301 800 0 
L 198 0 
Q 275 186 377 381 
Q 480 576 585 761 
Q 691 947 800 1113 
Q 909 1280 1005 1414 
Q 826 1478 710 1571 
Q 595 1664 524 1779 
Q 454 1894 425 2025 
Q 397 2157 397 2291 
Q 397 2573 502 2784 
Q 608 2995 793 3132 
Q 979 3270 1232 3340 
Q 1485 3411 1786 3411 
Q 2208 3411 2502 3372 
Q 2797 3334 2995 3283 
L 2995 0 
L 2406 0 
L 2406 1293 
L 1888 1293 
z
M 2406 2886 
Q 2336 2899 2173 2912 
Q 2010 2925 1798 2925 
Q 1434 2925 1210 2774 
Q 986 2624 986 2298 
Q 986 1978 1216 1856 
Q 1446 1734 1811 1734 
L 2406 1734 
L 2406 2886 
z
" transform="scale(0.015625)"/>
       <path id="Ubuntu-446" d="M 3168 493 
L 3616 493 
L 3616 -928 
L 3053 -928 
L 3053 0 
L 512 0 
L 512 3328 
L 1107 3328 
L 1107 493 
L 2573 493 
L 2573 3328 
L 3168 3328 
L 3168 493 
z
" transform="scale(0.015625)"/>
       <path id="Ubuntu-430" d="M 1638 429 
Q 1850 429 2013 438 
Q 2176 448 2285 474 
L 2285 1466 
Q 2221 1498 2077 1520 
Q 1933 1542 1728 1542 
Q 1594 1542 1443 1523 
Q 1293 1504 1168 1443 
Q 1043 1382 960 1276 
Q 877 1171 877 998 
Q 877 678 1081 553 
Q 1286 429 1638 429 
z
M 1587 3411 
Q 1946 3411 2192 3318 
Q 2438 3226 2588 3056 
Q 2739 2886 2803 2652 
Q 2867 2419 2867 2138 
L 2867 58 
Q 2790 45 2652 22 
Q 2515 0 2342 -19 
Q 2170 -38 1968 -54 
Q 1766 -70 1568 -70 
Q 1286 -70 1049 -12 
Q 813 45 640 169 
Q 467 294 371 499 
Q 275 704 275 992 
Q 275 1267 387 1465 
Q 499 1664 691 1785 
Q 883 1907 1139 1964 
Q 1395 2022 1677 2022 
Q 1766 2022 1862 2012 
Q 1958 2003 2044 1987 
Q 2131 1971 2195 1958 
Q 2259 1946 2285 1939 
L 2285 2106 
Q 2285 2253 2253 2397 
Q 2221 2541 2137 2653 
Q 2054 2765 1910 2832 
Q 1766 2899 1536 2899 
Q 1242 2899 1021 2857 
Q 800 2816 691 2771 
L 621 3264 
Q 736 3315 1005 3363 
Q 1274 3411 1587 3411 
z
" transform="scale(0.015625)"/>
       <path id="Ubuntu-443" d="M 122 -621 
Q 192 -653 304 -681 
Q 416 -710 525 -710 
Q 877 -710 1075 -553 
Q 1274 -397 1434 -45 
Q 1030 723 681 1584 
Q 333 2445 102 3328 
L 742 3328 
Q 813 3040 912 2707 
Q 1011 2374 1132 2022 
Q 1254 1670 1395 1318 
Q 1536 966 1690 640 
Q 1933 1312 2112 1971 
Q 2291 2630 2451 3328 
L 3066 3328 
Q 2835 2387 2553 1520 
Q 2272 653 1946 -102 
Q 1818 -390 1680 -598 
Q 1542 -806 1376 -940 
Q 1210 -1075 1002 -1139 
Q 794 -1203 531 -1203 
Q 461 -1203 384 -1193 
Q 307 -1184 233 -1168 
Q 160 -1152 99 -1133 
Q 38 -1114 13 -1101 
L 122 -621 
z
" transform="scale(0.015625)"/>
       <path id="Ubuntu-437" d="M 1357 3411 
Q 1645 3411 1894 3353 
Q 2144 3296 2323 3181 
Q 2502 3066 2604 2893 
Q 2707 2720 2707 2490 
Q 2707 2342 2656 2220 
Q 2605 2099 2528 2003 
Q 2451 1907 2358 1840 
Q 2266 1773 2182 1747 
Q 2477 1658 2646 1430 
Q 2816 1203 2816 858 
Q 2816 384 2432 153 
Q 2048 -77 1389 -77 
Q 986 -77 694 -13 
Q 403 51 282 109 
L 384 614 
Q 486 576 752 509 
Q 1018 442 1389 442 
Q 1792 442 2003 566 
Q 2214 691 2214 941 
Q 2214 1120 2134 1232 
Q 2054 1344 1932 1401 
Q 1811 1459 1670 1478 
Q 1530 1498 1408 1498 
L 851 1498 
L 851 1971 
L 1389 1971 
Q 1504 1971 1629 1987 
Q 1754 2003 1859 2054 
Q 1965 2106 2035 2198 
Q 2106 2291 2106 2445 
Q 2106 2566 2045 2652 
Q 1984 2739 1881 2796 
Q 1779 2854 1641 2883 
Q 1504 2912 1357 2912 
Q 1242 2912 1107 2893 
Q 973 2874 845 2845 
Q 717 2816 614 2784 
Q 512 2752 467 2726 
L 358 3238 
Q 410 3258 518 3290 
Q 627 3322 764 3347 
Q 902 3373 1056 3392 
Q 1210 3411 1357 3411 
z
" transform="scale(0.015625)"/>
       <path id="Ubuntu-439" d="M 3309 3328 
L 3309 0 
L 2733 0 
L 2733 2534 
Q 2541 2291 2310 1964 
Q 2080 1638 1849 1289 
Q 1619 941 1408 601 
Q 1197 262 1043 0 
L 512 0 
L 512 3328 
L 1088 3328 
L 1088 934 
Q 1254 1210 1465 1539 
Q 1677 1869 1904 2192 
Q 2131 2515 2358 2812 
Q 2586 3110 2784 3328 
L 3309 3328 
z
M 1917 3866 
Q 1514 3866 1261 4070 
Q 1008 4275 957 4640 
L 1411 4762 
Q 1462 4557 1584 4429 
Q 1706 4301 1917 4301 
Q 2128 4301 2249 4429 
Q 2371 4557 2422 4762 
L 2870 4640 
Q 2819 4275 2569 4070 
Q 2320 3866 1917 3866 
z
" transform="scale(0.015625)"/>
       <path id="Ubuntu-29" d="M 979 1914 
Q 979 2733 742 3430 
Q 506 4128 45 4723 
L 467 5011 
Q 966 4403 1270 3612 
Q 1574 2822 1574 1914 
Q 1574 1005 1270 214 
Q 966 -576 467 -1184 
L 45 -896 
Q 506 -301 742 396 
Q 979 1094 979 1914 
z
" transform="scale(0.015625)"/>
      </defs>
      <use xlink:href="#Ubuntu-41e"/>
      <use xlink:href="#Ubuntu-432" x="77.799988"/>
      <use xlink:href="#Ubuntu-43e" x="132.599976"/>
      <use xlink:href="#Ubuntu-449" x="191.59996"/>
      <use xlink:href="#Ubuntu-438" x="274.999954"/>
      <use xlink:href="#Ubuntu-20" x="334.699951"/>
      <use xlink:href="#Ubuntu-28" x="357.799942"/>
      <use xlink:href="#Ubuntu-441" x="390.199936"/>
      <use xlink:href="#Ubuntu-440" x="436.699921"/>
      <use xlink:href="#Ubuntu-435" x="495.599915"/>
      <use xlink:href="#Ubuntu-434" x="551.499908"/>
      <use xlink:href="#Ubuntu-43d" x="611.799896"/>
      <use xlink:href="#Ubuntu-44f" x="670.399887"/>
      <use xlink:href="#Ubuntu-44f" x="725.199875"/>
      <use xlink:href="#Ubuntu-20" x="779.999863"/>
      <use xlink:href="#Ubuntu-446" x="803.099854"/>
      <use xlink:href="#Ubuntu-435" x="861.699844"/>
      <use xlink:href="#Ubuntu-43d" x="917.599838"/>
      <use xlink:href="#Ubuntu-430" x="976.199829"/>
      <use xlink:href="#Ubuntu-20" x="1028.399826"/>
      <use xlink:href="#Ubuntu-443" x="1051.499817"/>
      <use xlink:href="#Ubuntu-20" x="1101.199814"/>
      <use xlink:href="#Ubuntu-43f" x="1124.299805"/>
      <use xlink:href="#Ubuntu-440" x="1182.099792"/>
      <use xlink:href="#Ubuntu-43e" x="1240.999786"/>
      <use xlink:href="#Ubuntu-438" x="1299.999771"/>
      <use xlink:href="#Ubuntu-437" x="1359.699768"/>
      <use xlink:href="#Ubuntu-432" x="1408.599762"/>
      <use xlink:href="#Ubuntu-43e" x="1463.39975"/>
      <use xlink:href="#Ubuntu-434" x="1522.399734"/>
      <use xlink:href="#Ubuntu-438" x="1582.699722"/>
      <use xlink:href="#Ubuntu-442" x="1642.399719"/>
      <use xlink:href="#Ubuntu-435" x="1688.699707"/>
      <use xlink:href="#Ubuntu-43b" x="1744.599701"/>
      <use xlink:href="#Ubuntu-435" x="1804.399689"/>
      <use xlink:href="#Ubuntu-439" x="1860.299683"/>
      <use xlink:href="#Ubuntu-29" x="1919.99968"/>
     </g>
    </g>
    <g id="line2d_51">
     <path d="M 40.2925 27.871875 
L 46.3675 27.871875 
L 52.4425 27.871875 
" style="fill: none; stroke: #7e6459; stroke-width: 1.25; stroke-linecap: square"/>
    </g>
    <g id="text_27">
     <!-- Картофель -->
     <g style="fill: #4b4b4b" transform="translate(59.6425 31.021875) scale(0.09 -0.09)">
      <defs>
       <path id="Ubuntu-41a" d="M 3834 4435 
Q 3635 4218 3385 3952 
Q 3136 3686 2864 3408 
Q 2592 3130 2323 2861 
Q 2054 2592 1818 2362 
Q 2093 2170 2400 1888 
Q 2707 1606 3001 1286 
Q 3296 966 3555 633 
Q 3814 301 3987 0 
L 3258 0 
Q 3066 301 2816 605 
Q 2566 909 2288 1187 
Q 2010 1466 1725 1702 
Q 1440 1939 1171 2106 
L 1171 0 
L 550 0 
L 550 4435 
L 1171 4435 
L 1171 2477 
Q 1395 2688 1664 2953 
Q 1933 3219 2195 3488 
Q 2458 3757 2691 4003 
Q 2925 4250 3085 4435 
L 3834 4435 
z
" transform="scale(0.015625)"/>
       <path id="Ubuntu-444" d="M 928 1664 
Q 928 1382 1021 1164 
Q 1114 947 1280 796 
Q 1446 646 1673 566 
Q 1901 486 2163 480 
L 2163 2848 
Q 1901 2842 1673 2758 
Q 1446 2675 1280 2524 
Q 1114 2374 1021 2156 
Q 928 1939 928 1664 
z
M 2739 480 
Q 3002 486 3229 566 
Q 3456 646 3622 796 
Q 3789 947 3881 1164 
Q 3974 1382 3974 1664 
Q 3974 1939 3881 2156 
Q 3789 2374 3622 2524 
Q 3456 2675 3229 2758 
Q 3002 2842 2739 2848 
L 2739 480 
z
M 2739 -1184 
L 2163 -1184 
L 2163 -19 
Q 1786 -13 1453 102 
Q 1120 218 867 432 
Q 614 646 467 956 
Q 320 1267 320 1664 
Q 320 2061 467 2371 
Q 614 2682 867 2896 
Q 1120 3110 1453 3225 
Q 1786 3341 2163 3347 
L 2163 4864 
L 2739 4966 
L 2739 3347 
Q 3110 3341 3446 3225 
Q 3782 3110 4035 2896 
Q 4288 2682 4435 2371 
Q 4582 2061 4582 1664 
Q 4582 1267 4435 956 
Q 4288 646 4035 432 
Q 3782 218 3446 102 
Q 3110 -13 2739 -19 
L 2739 -1184 
z
" transform="scale(0.015625)"/>
       <path id="Ubuntu-44c" d="M 1773 416 
Q 2150 416 2368 563 
Q 2586 710 2586 1037 
Q 2586 1197 2522 1312 
Q 2458 1427 2346 1500 
Q 2234 1574 2086 1609 
Q 1939 1645 1773 1645 
Q 1600 1645 1417 1635 
Q 1235 1626 1107 1594 
L 1107 448 
Q 1146 442 1222 435 
Q 1299 429 1392 425 
Q 1485 422 1584 419 
Q 1683 416 1773 416 
z
M 512 70 
L 512 3328 
L 1107 3328 
L 1107 2054 
Q 1158 2067 1244 2080 
Q 1331 2093 1430 2105 
Q 1530 2118 1638 2124 
Q 1747 2131 1843 2131 
Q 2118 2131 2361 2070 
Q 2605 2010 2787 1878 
Q 2970 1747 3078 1539 
Q 3187 1331 3187 1043 
Q 3187 742 3084 531 
Q 2982 320 2790 185 
Q 2598 51 2332 -9 
Q 2067 -70 1741 -70 
Q 1421 -70 1113 -35 
Q 806 0 512 70 
z
" transform="scale(0.015625)"/>
      </defs>
      <use xlink:href="#Ubuntu-41a"/>
      <use xlink:href="#Ubuntu-430" x="62.899994"/>
      <use xlink:href="#Ubuntu-440" x="115.099991"/>
      <use xlink:href="#Ubuntu-442" x="173.999985"/>
      <use xlink:href="#Ubuntu-43e" x="220.299973"/>
      <use xlink:href="#Ubuntu-444" x="279.299957"/>
      <use xlink:href="#Ubuntu-435" x="355.899948"/>
      <use xlink:href="#Ubuntu-43b" x="411.799942"/>
      <use xlink:href="#Ubuntu-44c" x="471.59993"/>
     </g>
    </g>
    <g id="line2d_52">
     <path d="M 253.359062 14.696719 
L 259.434062 14.696719 
L 265.509062 14.696719 
" style="fill: none; stroke: #489079; stroke-width: 1.25; stroke-linecap: square"/>
    </g>
    <g id="text_28">
     <!-- Огурцы -->
     <g style="fill: #4b4b4b" transform="translate(272.709063 17.846719) scale(0.09 -0.09)">
      <defs>
       <path id="Ubuntu-433" d="M 2573 2829 
L 1107 2829 
L 1107 0 
L 512 0 
L 512 3328 
L 2573 3328 
L 2573 2829 
z
" transform="scale(0.015625)"/>
       <path id="Ubuntu-44b" d="M 1734 1645 
Q 1562 1645 1398 1635 
Q 1235 1626 1107 1594 
L 1107 448 
Q 1146 442 1219 435 
Q 1293 429 1379 425 
Q 1466 422 1555 419 
Q 1645 416 1715 416 
Q 2106 416 2317 563 
Q 2528 710 2528 1037 
Q 2528 1197 2461 1312 
Q 2394 1427 2282 1500 
Q 2170 1574 2029 1609 
Q 1888 1645 1734 1645 
z
M 512 3328 
L 1107 3328 
L 1107 2054 
Q 1216 2080 1424 2105 
Q 1632 2131 1824 2131 
Q 2086 2131 2323 2070 
Q 2560 2010 2739 1878 
Q 2918 1747 3024 1539 
Q 3130 1331 3130 1043 
Q 3130 742 3027 531 
Q 2925 320 2739 185 
Q 2554 51 2291 -9 
Q 2029 -70 1715 -70 
Q 1414 -70 1107 -35 
Q 800 0 512 70 
L 512 3328 
z
M 4339 0 
L 3744 0 
L 3744 3328 
L 4339 3328 
L 4339 0 
z
" transform="scale(0.015625)"/>
      </defs>
      <use xlink:href="#Ubuntu-41e"/>
      <use xlink:href="#Ubuntu-433" x="77.799988"/>
      <use xlink:href="#Ubuntu-443" x="121.849976"/>
      <use xlink:href="#Ubuntu-440" x="171.549973"/>
      <use xlink:href="#Ubuntu-446" x="230.449966"/>
      <use xlink:href="#Ubuntu-44b" x="289.049957"/>
     </g>
    </g>
    <g id="line2d_53">
     <path d="M 253.359062 27.871875 
L 259.434062 27.871875 
L 265.509062 27.871875 
" style="fill: none; stroke: #b3625a; stroke-width: 1.25; stroke-linecap: square"/>
    </g>
    <g id="text_29">
     <!-- Помидоры -->
     <g style="fill: #4b4b4b" transform="translate(272.709063 31.021875) scale(0.09 -0.09)">
      <defs>
       <path id="Ubuntu-41f" d="M 3923 4435 
L 3923 0 
L 3302 0 
L 3302 3904 
L 1171 3904 
L 1171 0 
L 550 0 
L 550 4435 
L 3923 4435 
z
" transform="scale(0.015625)"/>
       <path id="Ubuntu-43c" d="M 1146 2451 
Q 1082 1818 1050 1187 
Q 1018 557 998 0 
L 429 0 
Q 442 390 467 816 
Q 493 1242 525 1674 
Q 557 2106 595 2525 
Q 634 2944 678 3328 
L 1222 3328 
Q 1427 2995 1702 2416 
Q 1978 1837 2336 1082 
Q 2694 1837 2969 2416 
Q 3245 2995 3450 3328 
L 4000 3328 
Q 4045 2944 4083 2525 
Q 4122 2106 4154 1674 
Q 4186 1242 4211 816 
Q 4237 390 4250 0 
L 3661 0 
Q 3642 557 3610 1187 
Q 3578 1818 3514 2451 
Q 3411 2253 3276 1974 
Q 3142 1696 3011 1408 
Q 2880 1120 2765 857 
Q 2650 595 2586 442 
L 2086 442 
Q 2016 602 1897 864 
Q 1779 1126 1648 1417 
Q 1517 1709 1382 1987 
Q 1248 2266 1146 2451 
z
" transform="scale(0.015625)"/>
      </defs>
      <use xlink:href="#Ubuntu-41f"/>
      <use xlink:href="#Ubuntu-43e" x="69.899994"/>
      <use xlink:href="#Ubuntu-43c" x="128.899979"/>
      <use xlink:href="#Ubuntu-438" x="201.999969"/>
      <use xlink:href="#Ubuntu-434" x="261.699966"/>
      <use xlink:href="#Ubuntu-43e" x="321.999954"/>
      <use xlink:href="#Ubuntu-440" x="380.999939"/>
      <use xlink:href="#Ubuntu-44b" x="439.899933"/>
     </g>
    </g>
    <g id="line2d_54">
     <path d="M 337.122344 14.696719 
L 343.197344 14.696719 
L 349.272344 14.696719 
" style="fill: none; stroke: #6893b8; stroke-width: 1.25; stroke-linecap: square"/>
    </g>
    <g id="text_30">
     <!-- Лук -->
     <g style="fill: #4b4b4b" transform="translate(356.472344 17.846719) scale(0.09 -0.09)">
      <defs>
       <path id="Ubuntu-41b" d="M 2067 3904 
Q 2054 3546 2041 3210 
Q 2029 2874 2003 2557 
Q 1978 2240 1926 1939 
Q 1875 1638 1786 1350 
Q 1696 1062 1565 809 
Q 1434 557 1238 368 
Q 1043 179 777 64 
Q 512 -51 154 -64 
L 83 474 
Q 531 525 777 755 
Q 1024 986 1184 1459 
Q 1363 1997 1411 2755 
Q 1459 3514 1459 4435 
L 3974 4435 
L 3974 0 
L 3354 0 
L 3354 3904 
L 2067 3904 
z
" transform="scale(0.015625)"/>
      </defs>
      <use xlink:href="#Ubuntu-41b"/>
      <use xlink:href="#Ubuntu-443" x="70.699982"/>
      <use xlink:href="#Ubuntu-43a" x="120.399979"/>
     </g>
    </g>
    <g id="line2d_55">
     <path d="M 390.142187 14.696719 
L 396.217187 14.696719 
L 402.292187 14.696719 
" style="fill: none; stroke: #d8805d; stroke-width: 1.25; stroke-linecap: square"/>
    </g>
    <g id="text_31">
     <!-- Морковь -->
     <g style="fill: #4b4b4b" transform="translate(409.492188 17.846719) scale(0.09 -0.09)">
      <defs>
       <path id="Ubuntu-41c" d="M 2541 614 
Q 2477 768 2371 1005 
Q 2266 1242 2144 1517 
Q 2022 1792 1884 2083 
Q 1747 2374 1625 2633 
Q 1504 2893 1398 3097 
Q 1293 3302 1229 3411 
Q 1158 2656 1113 1776 
Q 1069 896 1037 0 
L 429 0 
Q 454 576 486 1161 
Q 518 1747 560 2313 
Q 602 2880 650 3417 
Q 698 3955 755 4435 
L 1299 4435 
Q 1472 4154 1670 3770 
Q 1869 3386 2067 2966 
Q 2266 2547 2451 2128 
Q 2637 1709 2790 1363 
Q 2944 1709 3129 2128 
Q 3315 2547 3513 2966 
Q 3712 3386 3910 3770 
Q 4109 4154 4282 4435 
L 4826 4435 
Q 5043 2291 5152 0 
L 4544 0 
Q 4512 896 4467 1776 
Q 4422 2656 4352 3411 
Q 4288 3302 4182 3097 
Q 4077 2893 3955 2633 
Q 3834 2374 3696 2083 
Q 3558 1792 3436 1517 
Q 3315 1242 3209 1005 
Q 3104 768 3040 614 
L 2541 614 
z
" transform="scale(0.015625)"/>
      </defs>
      <use xlink:href="#Ubuntu-41c"/>
      <use xlink:href="#Ubuntu-43e" x="87.099991"/>
      <use xlink:href="#Ubuntu-440" x="146.099976"/>
      <use xlink:href="#Ubuntu-43a" x="204.999969"/>
      <use xlink:href="#Ubuntu-43e" x="255.824966"/>
      <use xlink:href="#Ubuntu-432" x="314.824951"/>
      <use xlink:href="#Ubuntu-44c" x="369.624939"/>
     </g>
    </g>
   </g>
  </g>
 </g>
 <defs>
  <clipPath id="peedce8da8e">
   <rect x="32.1925" y="40.786875" width="502.2" height="166.32"/>
  </clipPath>
  <clipPath id="pc066eb54ba">
   <rect x="32.1925" y="207.106875" width="502.2" height="0"/>
  </clipPath>
 </defs>
</svg>
