<?xml version="1.0" encoding="utf-8" standalone="no"?>
<!DOCTYPE svg PUBLIC "-//W3C//DTD SVG 1.1//EN"
  "http://www.w3.org/Graphics/SVG/1.1/DTD/svg11.dtd">
<svg xmlns:xlink="http://www.w3.org/1999/xlink" width="548.9125pt" height="206.035938pt" viewBox="0 0 548.9125 206.035938" xmlns="http://www.w3.org/2000/svg" version="1.1">
 <metadata>
  <rdf:RDF xmlns:dc="http://purl.org/dc/elements/1.1/" xmlns:cc="http://creativecommons.org/ns#" xmlns:rdf="http://www.w3.org/1999/02/22-rdf-syntax-ns#">
   <cc:Work>
    <dc:type rdf:resource="http://purl.org/dc/dcmitype/StillImage"/>
    <dc:date>2024-05-22T10:56:42.438914</dc:date>
    <dc:format>image/svg+xml</dc:format>
    <dc:creator>
     <cc:Agent>
      <dc:title>Matplotlib v3.8.0, https://matplotlib.org/</dc:title>
     </cc:Agent>
    </dc:creator>
   </cc:Work>
  </rdf:RDF>
 </metadata>
 <defs>
  <style type="text/css">*{stroke-linejoin: round; stroke-linecap: butt}</style>
 </defs>
 <g id="figure_1">
  <g id="patch_1">
   <path d="M 0 206.035938 
L 548.9125 206.035938 
L 548.9125 0 
L 0 0 
L 0 206.035938 
z
" style="fill: none"/>
  </g>
  <g id="axes_1">
   <g id="patch_2">
    <path d="M 32.1925 166.148438 
L 534.3925 166.148438 
L 534.3925 27.548437 
L 32.1925 27.548437 
L 32.1925 166.148438 
z
" style="fill: none"/>
   </g>
   <g id="line2d_1">
    <path d="M 37.2145 126.548438 
L 529.3705 126.548438 
" clip-path="url(#p6f1aa8732b)" style="fill: none; stroke-dasharray: 2.775,1.2; stroke-dashoffset: 0; stroke: #cccccc; stroke-width: 0.75"/>
   </g>
   <g id="axes_2">
    <g id="patch_3">
     <path d="M 32.1925 166.148438 
L 534.3925 166.148438 
L 534.3925 166.148437 
L 32.1925 166.148437 
L 32.1925 166.148438 
z
" style="fill: none"/>
    </g>
    <g id="matplotlib.axis_1">
     <g id="xtick_1">
      <g id="line2d_2">
       <path d="M 32.1925 166.148438 
L 32.1925 166.148437 
" clip-path="url(#pfe47635eff)" style="fill: none; stroke-dasharray: 0.5,0.825; stroke-dashoffset: 0; stroke: #d9d9d9; stroke-width: 0.5"/>
      </g>
      <g id="text_1">
       <!-- 2021 -->
       <g style="fill: #808080" transform="translate(23.1675 197.355938) scale(0.08 -0.08)">
        <defs>
         <path id="Ubuntu-32" d="M 2989 3302 
Q 2989 3072 2896 2857 
Q 2803 2643 2649 2435 
Q 2496 2227 2304 2025 
Q 2112 1824 1920 1632 
Q 1811 1523 1667 1376 
Q 1523 1229 1395 1069 
Q 1267 909 1180 761 
Q 1094 614 1094 506 
L 3136 506 
L 3136 0 
L 448 0 
Q 442 38 442 76 
Q 442 115 442 147 
Q 442 448 541 707 
Q 640 966 800 1196 
Q 960 1427 1158 1632 
Q 1357 1837 1549 2029 
Q 1709 2182 1853 2332 
Q 1997 2483 2109 2633 
Q 2221 2784 2288 2944 
Q 2355 3104 2355 3283 
Q 2355 3475 2294 3609 
Q 2234 3744 2131 3833 
Q 2029 3923 1891 3964 
Q 1754 4006 1600 4006 
Q 1414 4006 1260 3955 
Q 1107 3904 985 3837 
Q 864 3770 781 3696 
Q 698 3622 653 3584 
L 358 4006 
Q 416 4070 531 4163 
Q 646 4256 806 4339 
Q 966 4422 1164 4480 
Q 1363 4538 1594 4538 
Q 2291 4538 2640 4214 
Q 2989 3891 2989 3302 
z
" transform="scale(0.015625)"/>
         <path id="Ubuntu-30" d="M 320 2221 
Q 320 3334 713 3936 
Q 1107 4538 1805 4538 
Q 2502 4538 2896 3936 
Q 3290 3334 3290 2221 
Q 3290 1107 2896 505 
Q 2502 -96 1805 -96 
Q 1107 -96 713 505 
Q 320 1107 320 2221 
z
M 2662 2221 
Q 2662 2586 2620 2912 
Q 2579 3238 2480 3481 
Q 2381 3725 2214 3869 
Q 2048 4013 1805 4013 
Q 1562 4013 1395 3869 
Q 1229 3725 1129 3481 
Q 1030 3238 988 2912 
Q 947 2586 947 2221 
Q 947 1856 988 1529 
Q 1030 1203 1129 960 
Q 1229 717 1395 573 
Q 1562 429 1805 429 
Q 2048 429 2214 573 
Q 2381 717 2480 960 
Q 2579 1203 2620 1529 
Q 2662 1856 2662 2221 
z
" transform="scale(0.015625)"/>
         <path id="Ubuntu-31" d="M 595 3520 
Q 960 3661 1305 3881 
Q 1651 4102 1939 4435 
L 2362 4435 
L 2362 0 
L 1766 0 
L 1766 3610 
Q 1690 3539 1578 3462 
Q 1466 3386 1334 3315 
Q 1203 3245 1059 3181 
Q 915 3117 781 3072 
L 595 3520 
z
" transform="scale(0.015625)"/>
        </defs>
        <use xlink:href="#Ubuntu-32"/>
        <use xlink:href="#Ubuntu-30" x="56.399994"/>
        <use xlink:href="#Ubuntu-32" x="112.799988"/>
        <use xlink:href="#Ubuntu-31" x="169.199982"/>
       </g>
      </g>
     </g>
     <g id="xtick_2">
      <g id="line2d_3">
       <path d="M 186.748149 166.148438 
L 186.748149 166.148437 
" clip-path="url(#pfe47635eff)" style="fill: none; stroke-dasharray: 0.5,0.825; stroke-dashoffset: 0; stroke: #d9d9d9; stroke-width: 0.5"/>
      </g>
      <g id="text_2">
       <!-- 2022 -->
       <g style="fill: #808080" transform="translate(177.723149 197.355938) scale(0.08 -0.08)">
        <use xlink:href="#Ubuntu-32"/>
        <use xlink:href="#Ubuntu-30" x="56.399994"/>
        <use xlink:href="#Ubuntu-32" x="112.799988"/>
        <use xlink:href="#Ubuntu-32" x="169.199982"/>
       </g>
      </g>
     </g>
     <g id="xtick_3">
      <g id="line2d_4">
       <path d="M 341.303798 166.148438 
L 341.303798 166.148437 
" clip-path="url(#pfe47635eff)" style="fill: none; stroke-dasharray: 0.5,0.825; stroke-dashoffset: 0; stroke: #d9d9d9; stroke-width: 0.5"/>
      </g>
      <g id="text_3">
       <!-- 2023 -->
       <g style="fill: #808080" transform="translate(332.278798 197.355938) scale(0.08 -0.08)">
        <defs>
         <path id="Ubuntu-33" d="M 1446 435 
Q 2016 435 2262 659 
Q 2509 883 2509 1261 
Q 2509 1504 2406 1670 
Q 2304 1837 2137 1936 
Q 1971 2035 1750 2076 
Q 1530 2118 1299 2118 
L 1146 2118 
L 1146 2605 
L 1357 2605 
Q 1517 2605 1686 2637 
Q 1856 2669 1997 2752 
Q 2138 2835 2227 2979 
Q 2317 3123 2317 3341 
Q 2317 3520 2253 3648 
Q 2189 3776 2083 3859 
Q 1978 3942 1840 3977 
Q 1702 4013 1549 4013 
Q 1242 4013 1027 3923 
Q 813 3834 666 3738 
L 435 4192 
Q 512 4243 630 4304 
Q 749 4365 896 4416 
Q 1043 4467 1212 4502 
Q 1382 4538 1568 4538 
Q 1920 4538 2176 4451 
Q 2432 4365 2598 4208 
Q 2765 4051 2848 3836 
Q 2931 3622 2931 3373 
Q 2931 3027 2732 2780 
Q 2534 2534 2253 2406 
Q 2426 2355 2586 2259 
Q 2746 2163 2864 2016 
Q 2982 1869 3056 1677 
Q 3130 1485 3130 1248 
Q 3130 960 3030 713 
Q 2931 467 2723 288 
Q 2515 109 2201 6 
Q 1888 -96 1459 -96 
Q 1293 -96 1117 -70 
Q 941 -45 787 -6 
Q 634 32 518 70 
Q 403 109 352 134 
L 467 653 
Q 576 602 829 518 
Q 1082 435 1446 435 
z
" transform="scale(0.015625)"/>
        </defs>
        <use xlink:href="#Ubuntu-32"/>
        <use xlink:href="#Ubuntu-30" x="56.399994"/>
        <use xlink:href="#Ubuntu-32" x="112.799988"/>
        <use xlink:href="#Ubuntu-33" x="169.199982"/>
       </g>
      </g>
     </g>
     <g id="xtick_4">
      <g id="line2d_5">
       <path d="M 495.859448 166.148438 
L 495.859448 166.148437 
" clip-path="url(#pfe47635eff)" style="fill: none; stroke-dasharray: 0.5,0.825; stroke-dashoffset: 0; stroke: #d9d9d9; stroke-width: 0.5"/>
      </g>
      <g id="text_4">
       <!-- 2024 -->
       <g style="fill: #808080" transform="translate(486.834448 197.355938) scale(0.08 -0.08)">
        <defs>
         <path id="Ubuntu-34" d="M 256 1536 
Q 378 1818 589 2192 
Q 800 2566 1065 2963 
Q 1331 3360 1635 3744 
Q 1939 4128 2246 4435 
L 2816 4435 
L 2816 1619 
L 3341 1619 
L 3341 1133 
L 2816 1133 
L 2816 0 
L 2240 0 
L 2240 1133 
L 256 1133 
L 256 1536 
z
M 2240 3731 
Q 2048 3526 1853 3273 
Q 1658 3021 1472 2745 
Q 1286 2470 1123 2182 
Q 960 1894 832 1619 
L 2240 1619 
L 2240 3731 
z
" transform="scale(0.015625)"/>
        </defs>
        <use xlink:href="#Ubuntu-32"/>
        <use xlink:href="#Ubuntu-30" x="56.399994"/>
        <use xlink:href="#Ubuntu-32" x="112.799988"/>
        <use xlink:href="#Ubuntu-34" x="169.199982"/>
       </g>
      </g>
     </g>
    </g>
    <g id="matplotlib.axis_2"/>
   </g>
   <g id="matplotlib.axis_3">
    <g id="xtick_5">
     <g id="line2d_6">
      <defs>
       <path id="me6eeb7bc2c" d="M 0 0 
L 0 3 
" style="stroke: #cecece; stroke-width: 0.75"/>
      </defs>
      <g>
       <use xlink:href="#me6eeb7bc2c" x="32.1925" y="171.148438" style="fill: #cecece; stroke: #cecece; stroke-width: 0.75"/>
      </g>
     </g>
     <g id="text_5">
      <!-- Янв -->
      <g style="fill: #808080" transform="translate(25.116875 186.355938) scale(0.08 -0.08)">
       <defs>
        <path id="Ubuntu-42f" d="M 2272 3936 
Q 2029 3936 1808 3897 
Q 1587 3859 1414 3763 
Q 1242 3667 1139 3500 
Q 1037 3334 1037 3085 
Q 1037 2611 1341 2428 
Q 1645 2246 2253 2246 
L 2893 2246 
L 2893 3917 
Q 2822 3917 2726 3923 
Q 2643 3930 2531 3933 
Q 2419 3936 2272 3936 
z
M 2323 4480 
Q 2458 4480 2611 4473 
Q 2765 4467 2921 4454 
Q 3078 4442 3232 4422 
Q 3386 4403 3514 4371 
L 3514 0 
L 2893 0 
L 2893 1734 
L 2362 1734 
Q 2272 1734 2173 1737 
Q 2074 1741 1907 1760 
Q 1792 1606 1657 1401 
Q 1523 1197 1388 966 
Q 1254 736 1123 486 
Q 992 237 883 0 
L 230 0 
Q 333 250 473 518 
Q 614 787 764 1030 
Q 915 1274 1052 1482 
Q 1190 1690 1293 1824 
Q 1146 1869 986 1952 
Q 826 2035 691 2182 
Q 557 2330 470 2550 
Q 384 2771 384 3078 
Q 384 3424 518 3686 
Q 653 3949 905 4125 
Q 1158 4301 1516 4390 
Q 1875 4480 2323 4480 
z
" transform="scale(0.015625)"/>
        <path id="Ubuntu-43d" d="M 3238 0 
L 2643 0 
L 2643 1472 
L 1107 1472 
L 1107 0 
L 512 0 
L 512 3328 
L 1107 3328 
L 1107 1971 
L 2643 1971 
L 2643 3328 
L 3238 3328 
L 3238 0 
z
" transform="scale(0.015625)"/>
        <path id="Ubuntu-432" d="M 1094 448 
Q 1133 442 1203 435 
Q 1274 429 1363 425 
Q 1453 422 1552 419 
Q 1651 416 1741 416 
Q 1926 416 2096 441 
Q 2266 467 2390 531 
Q 2515 595 2588 700 
Q 2662 806 2662 973 
Q 2662 1133 2595 1238 
Q 2528 1344 2413 1408 
Q 2298 1472 2141 1497 
Q 1984 1523 1805 1523 
L 1094 1523 
L 1094 448 
z
M 1728 1965 
Q 1901 1965 2045 1987 
Q 2189 2010 2294 2067 
Q 2400 2125 2461 2221 
Q 2522 2317 2522 2464 
Q 2522 2618 2445 2707 
Q 2368 2797 2243 2845 
Q 2118 2893 1961 2909 
Q 1805 2925 1645 2925 
Q 1498 2925 1347 2918 
Q 1197 2912 1094 2906 
L 1094 1965 
L 1728 1965 
z
M 1715 -58 
Q 1338 -58 1018 -22 
Q 698 13 512 58 
L 512 3296 
Q 698 3341 1018 3376 
Q 1338 3411 1715 3411 
Q 1978 3411 2227 3366 
Q 2477 3322 2669 3216 
Q 2861 3110 2979 2928 
Q 3098 2746 3098 2477 
Q 3098 2234 2976 2061 
Q 2854 1888 2650 1792 
Q 2925 1696 3088 1507 
Q 3251 1318 3251 979 
Q 3251 678 3132 480 
Q 3014 282 2806 160 
Q 2598 38 2316 -10 
Q 2035 -58 1715 -58 
z
" transform="scale(0.015625)"/>
       </defs>
       <use xlink:href="#Ubuntu-42f"/>
       <use xlink:href="#Ubuntu-43d" x="63.499985"/>
       <use xlink:href="#Ubuntu-432" x="122.099976"/>
      </g>
     </g>
    </g>
    <g id="xtick_6">
     <g id="line2d_7">
      <g>
       <use xlink:href="#me6eeb7bc2c" x="70.302112" y="171.148438" style="fill: #cecece; stroke: #cecece; stroke-width: 0.75"/>
      </g>
     </g>
     <g id="text_6">
      <!-- Апр -->
      <g style="fill: #808080" transform="translate(62.982112 186.355938) scale(0.08 -0.08)">
       <defs>
        <path id="Ubuntu-410" d="M 3514 0 
Q 3405 288 3309 566 
Q 3213 845 3110 1133 
L 1101 1133 
L 698 0 
L 51 0 
Q 307 704 531 1302 
Q 755 1901 969 2438 
Q 1184 2976 1395 3465 
Q 1606 3955 1837 4435 
L 2406 4435 
Q 2637 3955 2848 3465 
Q 3059 2976 3273 2438 
Q 3488 1901 3712 1302 
Q 3936 704 4192 0 
L 3514 0 
z
M 2931 1645 
Q 2726 2202 2524 2723 
Q 2323 3245 2106 3725 
Q 1882 3245 1680 2723 
Q 1478 2202 1280 1645 
L 2931 1645 
z
" transform="scale(0.015625)"/>
        <path id="Ubuntu-43f" d="M 3187 0 
L 2592 0 
L 2592 2829 
L 1107 2829 
L 1107 0 
L 512 0 
L 512 3328 
L 3187 3328 
L 3187 0 
z
" transform="scale(0.015625)"/>
        <path id="Ubuntu-440" d="M 2822 1658 
Q 2822 2240 2534 2553 
Q 2246 2867 1766 2867 
Q 1498 2867 1347 2848 
Q 1197 2829 1107 2803 
L 1107 704 
Q 1216 614 1421 531 
Q 1626 448 1869 448 
Q 2125 448 2307 541 
Q 2490 634 2605 797 
Q 2720 960 2771 1181 
Q 2822 1402 2822 1658 
z
M 3443 1658 
Q 3443 1280 3344 960 
Q 3245 640 3053 409 
Q 2861 179 2582 51 
Q 2304 -77 1946 -77 
Q 1658 -77 1437 0 
Q 1216 77 1107 147 
L 1107 -1184 
L 512 -1184 
L 512 3226 
Q 723 3277 1040 3337 
Q 1357 3398 1773 3398 
Q 2157 3398 2464 3276 
Q 2771 3155 2988 2931 
Q 3206 2707 3324 2384 
Q 3443 2061 3443 1658 
z
" transform="scale(0.015625)"/>
       </defs>
       <use xlink:href="#Ubuntu-410"/>
       <use xlink:href="#Ubuntu-43f" x="66.299988"/>
       <use xlink:href="#Ubuntu-440" x="124.099976"/>
      </g>
     </g>
    </g>
    <g id="xtick_7">
     <g id="line2d_8">
      <g>
       <use xlink:href="#me6eeb7bc2c" x="108.835164" y="171.148438" style="fill: #cecece; stroke: #cecece; stroke-width: 0.75"/>
      </g>
     </g>
     <g id="text_7">
      <!-- Июл -->
      <g style="fill: #808080" transform="translate(100.287664 186.355938) scale(0.08 -0.08)">
       <defs>
        <path id="Ubuntu-418" d="M 550 0 
L 550 4435 
L 1158 4435 
L 1158 1152 
Q 1363 1491 1660 1926 
Q 1958 2362 2294 2813 
Q 2630 3264 2972 3689 
Q 3315 4115 3616 4435 
L 4109 4435 
L 4109 0 
L 3501 0 
L 3501 3462 
Q 3322 3258 3110 2989 
Q 2899 2720 2675 2416 
Q 2451 2112 2224 1785 
Q 1997 1459 1785 1142 
Q 1574 826 1392 531 
Q 1210 237 1069 0 
L 550 0 
z
" transform="scale(0.015625)"/>
        <path id="Ubuntu-44e" d="M 1107 1952 
L 1837 1952 
Q 1875 2285 2006 2553 
Q 2138 2822 2336 3014 
Q 2534 3206 2790 3308 
Q 3046 3411 3341 3411 
Q 3667 3411 3945 3286 
Q 4224 3162 4429 2931 
Q 4634 2701 4749 2377 
Q 4864 2054 4864 1664 
Q 4864 1267 4749 947 
Q 4634 627 4429 396 
Q 4224 166 3945 41 
Q 3667 -83 3341 -83 
Q 3034 -83 2768 29 
Q 2502 141 2304 342 
Q 2106 544 1981 832 
Q 1856 1120 1830 1472 
L 1107 1472 
L 1107 0 
L 512 0 
L 512 3328 
L 1107 3328 
L 1107 1952 
z
M 4250 1664 
Q 4250 2227 4003 2556 
Q 3757 2886 3341 2886 
Q 2925 2886 2678 2556 
Q 2432 2227 2432 1664 
Q 2432 1101 2678 771 
Q 2925 442 3341 442 
Q 3757 442 4003 771 
Q 4250 1101 4250 1664 
z
" transform="scale(0.015625)"/>
        <path id="Ubuntu-43b" d="M 1670 2829 
Q 1670 2618 1660 2378 
Q 1651 2138 1625 1898 
Q 1600 1658 1555 1424 
Q 1510 1190 1440 986 
Q 1370 781 1264 601 
Q 1158 422 1004 284 
Q 851 147 646 54 
Q 442 -38 166 -64 
L 83 435 
Q 397 499 579 672 
Q 762 845 870 1094 
Q 966 1312 1011 1587 
Q 1056 1862 1075 2160 
Q 1094 2458 1097 2758 
Q 1101 3059 1101 3328 
L 3315 3328 
L 3315 0 
L 2720 0 
L 2720 2829 
L 1670 2829 
z
" transform="scale(0.015625)"/>
       </defs>
       <use xlink:href="#Ubuntu-418"/>
       <use xlink:href="#Ubuntu-44e" x="72.799988"/>
       <use xlink:href="#Ubuntu-43b" x="153.899979"/>
      </g>
     </g>
    </g>
    <g id="xtick_8">
     <g id="line2d_9">
      <g>
       <use xlink:href="#me6eeb7bc2c" x="147.791657" y="171.148438" style="fill: #cecece; stroke: #cecece; stroke-width: 0.75"/>
      </g>
     </g>
     <g id="text_8">
      <!-- Окт -->
      <g style="fill: #808080" transform="translate(140.679782 186.355938) scale(0.08 -0.08)">
       <defs>
        <path id="Ubuntu-41e" d="M 371 2221 
Q 371 2790 540 3225 
Q 710 3661 1001 3952 
Q 1293 4243 1680 4390 
Q 2067 4538 2502 4538 
Q 2931 4538 3312 4390 
Q 3693 4243 3981 3952 
Q 4269 3661 4438 3225 
Q 4608 2790 4608 2221 
Q 4608 1651 4438 1216 
Q 4269 781 3981 489 
Q 3693 198 3312 51 
Q 2931 -96 2502 -96 
Q 2067 -96 1680 51 
Q 1293 198 1001 489 
Q 710 781 540 1216 
Q 371 1651 371 2221 
z
M 1024 2221 
Q 1024 1818 1126 1488 
Q 1229 1158 1417 928 
Q 1606 698 1878 573 
Q 2150 448 2490 448 
Q 2829 448 3097 573 
Q 3366 698 3555 928 
Q 3744 1158 3846 1488 
Q 3949 1818 3949 2221 
Q 3949 2624 3846 2953 
Q 3744 3283 3555 3513 
Q 3366 3744 3097 3869 
Q 2829 3994 2490 3994 
Q 2150 3994 1878 3869 
Q 1606 3744 1417 3513 
Q 1229 3283 1126 2953 
Q 1024 2624 1024 2221 
z
" transform="scale(0.015625)"/>
        <path id="Ubuntu-43a" d="M 1728 1811 
Q 1926 1670 2156 1456 
Q 2387 1242 2608 992 
Q 2829 742 3021 483 
Q 3213 224 3347 0 
L 2643 0 
Q 2502 218 2313 445 
Q 2125 672 1920 883 
Q 1715 1094 1504 1273 
Q 1293 1453 1107 1574 
L 1107 0 
L 512 0 
L 512 3328 
L 1107 3328 
L 1107 1901 
Q 1261 2048 1459 2243 
Q 1658 2438 1859 2640 
Q 2061 2842 2233 3024 
Q 2406 3206 2515 3328 
L 3206 3328 
Q 3066 3174 2877 2979 
Q 2688 2784 2486 2579 
Q 2285 2374 2086 2172 
Q 1888 1971 1728 1811 
z
" transform="scale(0.015625)"/>
        <path id="Ubuntu-442" d="M 2861 3328 
L 2861 2829 
L 1779 2829 
L 1779 0 
L 1184 0 
L 1184 2829 
L 102 2829 
L 102 3328 
L 2861 3328 
z
" transform="scale(0.015625)"/>
       </defs>
       <use xlink:href="#Ubuntu-41e"/>
       <use xlink:href="#Ubuntu-43a" x="77.799988"/>
       <use xlink:href="#Ubuntu-442" x="131.499985"/>
      </g>
     </g>
    </g>
    <g id="xtick_9">
     <g id="line2d_10">
      <g>
       <use xlink:href="#me6eeb7bc2c" x="186.748149" y="171.148438" style="fill: #cecece; stroke: #cecece; stroke-width: 0.75"/>
      </g>
     </g>
     <g id="text_9">
      <!-- Янв -->
      <g style="fill: #808080" transform="translate(179.672524 186.355938) scale(0.08 -0.08)">
       <use xlink:href="#Ubuntu-42f"/>
       <use xlink:href="#Ubuntu-43d" x="63.499985"/>
       <use xlink:href="#Ubuntu-432" x="122.099976"/>
      </g>
     </g>
    </g>
    <g id="xtick_10">
     <g id="line2d_11">
      <g>
       <use xlink:href="#me6eeb7bc2c" x="224.857761" y="171.148438" style="fill: #cecece; stroke: #cecece; stroke-width: 0.75"/>
      </g>
     </g>
     <g id="text_10">
      <!-- Апр -->
      <g style="fill: #808080" transform="translate(217.537761 186.355938) scale(0.08 -0.08)">
       <use xlink:href="#Ubuntu-410"/>
       <use xlink:href="#Ubuntu-43f" x="66.299988"/>
       <use xlink:href="#Ubuntu-440" x="124.099976"/>
      </g>
     </g>
    </g>
    <g id="xtick_11">
     <g id="line2d_12">
      <g>
       <use xlink:href="#me6eeb7bc2c" x="263.390814" y="171.148438" style="fill: #cecece; stroke: #cecece; stroke-width: 0.75"/>
      </g>
     </g>
     <g id="text_11">
      <!-- Июл -->
      <g style="fill: #808080" transform="translate(254.843314 186.355938) scale(0.08 -0.08)">
       <use xlink:href="#Ubuntu-418"/>
       <use xlink:href="#Ubuntu-44e" x="72.799988"/>
       <use xlink:href="#Ubuntu-43b" x="153.899979"/>
      </g>
     </g>
    </g>
    <g id="xtick_12">
     <g id="line2d_13">
      <g>
       <use xlink:href="#me6eeb7bc2c" x="302.347306" y="171.148438" style="fill: #cecece; stroke: #cecece; stroke-width: 0.75"/>
      </g>
     </g>
     <g id="text_12">
      <!-- Окт -->
      <g style="fill: #808080" transform="translate(295.235431 186.355938) scale(0.08 -0.08)">
       <use xlink:href="#Ubuntu-41e"/>
       <use xlink:href="#Ubuntu-43a" x="77.799988"/>
       <use xlink:href="#Ubuntu-442" x="131.499985"/>
      </g>
     </g>
    </g>
    <g id="xtick_13">
     <g id="line2d_14">
      <g>
       <use xlink:href="#me6eeb7bc2c" x="341.303798" y="171.148438" style="fill: #cecece; stroke: #cecece; stroke-width: 0.75"/>
      </g>
     </g>
     <g id="text_13">
      <!-- Янв -->
      <g style="fill: #808080" transform="translate(334.228173 186.355938) scale(0.08 -0.08)">
       <use xlink:href="#Ubuntu-42f"/>
       <use xlink:href="#Ubuntu-43d" x="63.499985"/>
       <use xlink:href="#Ubuntu-432" x="122.099976"/>
      </g>
     </g>
    </g>
    <g id="xtick_14">
     <g id="line2d_15">
      <g>
       <use xlink:href="#me6eeb7bc2c" x="379.413411" y="171.148438" style="fill: #cecece; stroke: #cecece; stroke-width: 0.75"/>
      </g>
     </g>
     <g id="text_14">
      <!-- Апр -->
      <g style="fill: #808080" transform="translate(372.093411 186.355938) scale(0.08 -0.08)">
       <use xlink:href="#Ubuntu-410"/>
       <use xlink:href="#Ubuntu-43f" x="66.299988"/>
       <use xlink:href="#Ubuntu-440" x="124.099976"/>
      </g>
     </g>
    </g>
    <g id="xtick_15">
     <g id="line2d_16">
      <g>
       <use xlink:href="#me6eeb7bc2c" x="417.946463" y="171.148438" style="fill: #cecece; stroke: #cecece; stroke-width: 0.75"/>
      </g>
     </g>
     <g id="text_15">
      <!-- Июл -->
      <g style="fill: #808080" transform="translate(409.398963 186.355938) scale(0.08 -0.08)">
       <use xlink:href="#Ubuntu-418"/>
       <use xlink:href="#Ubuntu-44e" x="72.799988"/>
       <use xlink:href="#Ubuntu-43b" x="153.899979"/>
      </g>
     </g>
    </g>
    <g id="xtick_16">
     <g id="line2d_17">
      <g>
       <use xlink:href="#me6eeb7bc2c" x="456.902955" y="171.148438" style="fill: #cecece; stroke: #cecece; stroke-width: 0.75"/>
      </g>
     </g>
     <g id="text_16">
      <!-- Окт -->
      <g style="fill: #808080" transform="translate(449.79108 186.355938) scale(0.08 -0.08)">
       <use xlink:href="#Ubuntu-41e"/>
       <use xlink:href="#Ubuntu-43a" x="77.799988"/>
       <use xlink:href="#Ubuntu-442" x="131.499985"/>
      </g>
     </g>
    </g>
    <g id="xtick_17">
     <g id="line2d_18">
      <g>
       <use xlink:href="#me6eeb7bc2c" x="495.859448" y="171.148438" style="fill: #cecece; stroke: #cecece; stroke-width: 0.75"/>
      </g>
     </g>
     <g id="text_17">
      <!-- Янв -->
      <g style="fill: #808080" transform="translate(488.783823 186.355938) scale(0.08 -0.08)">
       <use xlink:href="#Ubuntu-42f"/>
       <use xlink:href="#Ubuntu-43d" x="63.499985"/>
       <use xlink:href="#Ubuntu-432" x="122.099976"/>
      </g>
     </g>
    </g>
    <g id="xtick_18">
     <g id="line2d_19">
      <g>
       <use xlink:href="#me6eeb7bc2c" x="534.3925" y="171.148438" style="fill: #cecece; stroke: #cecece; stroke-width: 0.75"/>
      </g>
     </g>
     <g id="text_18">
      <!-- Апр -->
      <g style="fill: #808080" transform="translate(527.0725 186.355938) scale(0.08 -0.08)">
       <use xlink:href="#Ubuntu-410"/>
       <use xlink:href="#Ubuntu-43f" x="66.299988"/>
       <use xlink:href="#Ubuntu-440" x="124.099976"/>
      </g>
     </g>
    </g>
   </g>
   <g id="matplotlib.axis_4">
    <g id="ytick_1">
     <g id="line2d_20">
      <defs>
       <path id="m662b025f7b" d="M 0 0 
L -3 0 
" style="stroke: #cecece; stroke-width: 0.75"/>
      </defs>
      <g>
       <use xlink:href="#m662b025f7b" x="27.1925" y="166.148438" style="fill: #cecece; stroke: #cecece; stroke-width: 0.75"/>
      </g>
     </g>
     <g id="text_19">
      <!-- 0.6 -->
      <g style="fill: #808080" transform="translate(7.2 169.252188) scale(0.08 -0.08)">
       <defs>
        <path id="Ubuntu-2e" d="M 1216 346 
Q 1216 173 1101 45 
Q 986 -83 787 -83 
Q 589 -83 473 45 
Q 358 173 358 346 
Q 358 518 473 646 
Q 589 774 787 774 
Q 986 774 1101 646 
Q 1216 518 1216 346 
z
" transform="scale(0.015625)"/>
        <path id="Ubuntu-36" d="M 403 1779 
Q 403 2426 582 2922 
Q 762 3418 1091 3757 
Q 1421 4096 1891 4272 
Q 2362 4448 2950 4454 
L 2995 3955 
Q 2618 3949 2307 3872 
Q 1997 3795 1753 3628 
Q 1510 3462 1344 3196 
Q 1178 2931 1094 2541 
Q 1261 2618 1469 2669 
Q 1677 2720 1901 2720 
Q 2278 2720 2540 2605 
Q 2803 2490 2969 2301 
Q 3136 2112 3209 1865 
Q 3283 1619 3283 1350 
Q 3283 1107 3200 851 
Q 3117 595 2947 384 
Q 2778 173 2515 38 
Q 2253 -96 1894 -96 
Q 1165 -96 784 403 
Q 403 902 403 1779 
z
M 1837 2234 
Q 1613 2234 1421 2192 
Q 1229 2150 1037 2067 
Q 1030 1997 1027 1923 
Q 1024 1850 1024 1779 
Q 1024 1498 1062 1248 
Q 1101 998 1200 809 
Q 1299 621 1465 509 
Q 1632 397 1888 397 
Q 2099 397 2246 486 
Q 2394 576 2490 717 
Q 2586 858 2627 1021 
Q 2669 1184 2669 1338 
Q 2669 1773 2461 2003 
Q 2253 2234 1837 2234 
z
" transform="scale(0.015625)"/>
       </defs>
       <use xlink:href="#Ubuntu-30"/>
       <use xlink:href="#Ubuntu-2e" x="56.399994"/>
       <use xlink:href="#Ubuntu-36" x="80.999985"/>
      </g>
     </g>
    </g>
    <g id="ytick_2">
     <g id="line2d_21">
      <g>
       <use xlink:href="#m662b025f7b" x="27.1925" y="146.348438" style="fill: #cecece; stroke: #cecece; stroke-width: 0.75"/>
      </g>
     </g>
     <g id="text_20">
      <!-- 0.8 -->
      <g style="fill: #808080" transform="translate(7.2 149.452188) scale(0.08 -0.08)">
       <defs>
        <path id="Ubuntu-38" d="M 3258 1152 
Q 3258 883 3165 656 
Q 3072 429 2889 259 
Q 2707 90 2432 -3 
Q 2157 -96 1798 -96 
Q 1382 -96 1104 22 
Q 826 141 659 320 
Q 493 499 422 713 
Q 352 928 352 1120 
Q 352 1306 413 1475 
Q 474 1645 573 1792 
Q 672 1939 803 2057 
Q 934 2176 1082 2266 
Q 454 2624 454 3322 
Q 454 3565 550 3785 
Q 646 4006 822 4172 
Q 998 4339 1248 4438 
Q 1498 4538 1805 4538 
Q 2163 4538 2419 4429 
Q 2675 4320 2838 4150 
Q 3002 3981 3075 3776 
Q 3149 3571 3149 3379 
Q 3149 3194 3094 3030 
Q 3040 2867 2947 2726 
Q 2854 2586 2736 2477 
Q 2618 2368 2490 2285 
Q 3245 1926 3258 1152 
z
M 954 1114 
Q 954 998 995 873 
Q 1037 749 1139 643 
Q 1242 538 1402 467 
Q 1562 397 1805 397 
Q 2022 397 2185 461 
Q 2349 525 2451 624 
Q 2554 723 2605 851 
Q 2656 979 2656 1114 
Q 2656 1318 2579 1472 
Q 2502 1626 2358 1741 
Q 2214 1856 2012 1936 
Q 1811 2016 1555 2074 
Q 1267 1914 1110 1677 
Q 954 1440 954 1114 
z
M 2554 3386 
Q 2554 3482 2512 3597 
Q 2470 3712 2380 3811 
Q 2291 3910 2150 3977 
Q 2010 4045 1805 4045 
Q 1600 4045 1456 3981 
Q 1312 3917 1222 3817 
Q 1133 3718 1091 3600 
Q 1050 3482 1050 3366 
Q 1050 3226 1101 3085 
Q 1152 2944 1261 2822 
Q 1370 2701 1546 2605 
Q 1722 2509 1965 2451 
Q 2234 2611 2394 2825 
Q 2554 3040 2554 3386 
z
" transform="scale(0.015625)"/>
       </defs>
       <use xlink:href="#Ubuntu-30"/>
       <use xlink:href="#Ubuntu-2e" x="56.399994"/>
       <use xlink:href="#Ubuntu-38" x="80.999985"/>
      </g>
     </g>
    </g>
    <g id="ytick_3">
     <g id="line2d_22">
      <g>
       <use xlink:href="#m662b025f7b" x="27.1925" y="126.548438" style="fill: #cecece; stroke: #cecece; stroke-width: 0.75"/>
      </g>
     </g>
     <g id="text_21">
      <!-- 1.0 -->
      <g style="fill: #808080" transform="translate(7.2 129.652188) scale(0.08 -0.08)">
       <use xlink:href="#Ubuntu-31"/>
       <use xlink:href="#Ubuntu-2e" x="56.399994"/>
       <use xlink:href="#Ubuntu-30" x="80.999985"/>
      </g>
     </g>
    </g>
    <g id="ytick_4">
     <g id="line2d_23">
      <g>
       <use xlink:href="#m662b025f7b" x="27.1925" y="106.748437" style="fill: #cecece; stroke: #cecece; stroke-width: 0.75"/>
      </g>
     </g>
     <g id="text_22">
      <!-- 1.2 -->
      <g style="fill: #808080" transform="translate(7.2 109.852187) scale(0.08 -0.08)">
       <use xlink:href="#Ubuntu-31"/>
       <use xlink:href="#Ubuntu-2e" x="56.399994"/>
       <use xlink:href="#Ubuntu-32" x="80.999985"/>
      </g>
     </g>
    </g>
    <g id="ytick_5">
     <g id="line2d_24">
      <g>
       <use xlink:href="#m662b025f7b" x="27.1925" y="86.948438" style="fill: #cecece; stroke: #cecece; stroke-width: 0.75"/>
      </g>
     </g>
     <g id="text_23">
      <!-- 1.4 -->
      <g style="fill: #808080" transform="translate(7.2 90.052188) scale(0.08 -0.08)">
       <use xlink:href="#Ubuntu-31"/>
       <use xlink:href="#Ubuntu-2e" x="56.399994"/>
       <use xlink:href="#Ubuntu-34" x="80.999985"/>
      </g>
     </g>
    </g>
    <g id="ytick_6">
     <g id="line2d_25">
      <g>
       <use xlink:href="#m662b025f7b" x="27.1925" y="67.148438" style="fill: #cecece; stroke: #cecece; stroke-width: 0.75"/>
      </g>
     </g>
     <g id="text_24">
      <!-- 1.6 -->
      <g style="fill: #808080" transform="translate(7.2 70.252187) scale(0.08 -0.08)">
       <use xlink:href="#Ubuntu-31"/>
       <use xlink:href="#Ubuntu-2e" x="56.399994"/>
       <use xlink:href="#Ubuntu-36" x="80.999985"/>
      </g>
     </g>
    </g>
    <g id="ytick_7">
     <g id="line2d_26">
      <g>
       <use xlink:href="#m662b025f7b" x="27.1925" y="47.348437" style="fill: #cecece; stroke: #cecece; stroke-width: 0.75"/>
      </g>
     </g>
     <g id="text_25">
      <!-- 1.8 -->
      <g style="fill: #808080" transform="translate(7.2 50.452187) scale(0.08 -0.08)">
       <use xlink:href="#Ubuntu-31"/>
       <use xlink:href="#Ubuntu-2e" x="56.399994"/>
       <use xlink:href="#Ubuntu-38" x="80.999985"/>
      </g>
     </g>
    </g>
    <g id="ytick_8">
     <g id="line2d_27">
      <g>
       <use xlink:href="#m662b025f7b" x="27.1925" y="27.548438" style="fill: #cecece; stroke: #cecece; stroke-width: 0.75"/>
      </g>
     </g>
     <g id="text_26">
      <!-- 2.0 -->
      <g style="fill: #808080" transform="translate(7.2 30.652187) scale(0.08 -0.08)">
       <use xlink:href="#Ubuntu-32"/>
       <use xlink:href="#Ubuntu-2e" x="56.399994"/>
       <use xlink:href="#Ubuntu-30" x="80.999985"/>
      </g>
     </g>
    </g>
   </g>
   <g id="line2d_28">
    <path d="M 32.1925 126.548438 
L 43.949691 124.507623 
L 47.308888 123.658808 
L 50.668085 122.533377 
L 54.027283 121.044867 
L 57.38648 119.106816 
L 60.745677 116.695884 
L 64.104875 114.208386 
L 65.784473 113.113239 
L 67.464072 112.211829 
L 69.143671 111.575158 
L 70.823269 111.274227 
L 72.502868 111.362016 
L 74.182467 111.819421 
L 75.862065 112.609314 
L 77.541664 113.694569 
L 79.221263 115.03806 
L 80.900861 116.602659 
L 84.260059 120.246512 
L 90.978453 128.192862 
L 92.658052 129.95314 
L 94.337651 131.495317 
L 96.017249 132.755604 
L 97.696848 133.676873 
L 99.376446 134.279416 
L 101.056045 134.633471 
L 104.415242 134.880413 
L 107.77444 134.986276 
L 109.454038 135.163985 
L 111.133637 135.499142 
L 114.492834 136.495586 
L 117.852032 137.58068 
L 119.53163 138.02665 
L 121.211229 138.338997 
L 122.890828 138.466149 
L 124.570426 138.377931 
L 126.250025 138.077329 
L 127.929624 137.570184 
L 129.609222 136.862336 
L 131.288821 135.959624 
L 132.96842 134.867889 
L 134.648018 133.59297 
L 138.007216 130.552022 
L 146.405209 122.274967 
L 148.084808 120.914184 
L 149.764406 119.756356 
L 151.444005 118.77799 
L 154.803202 117.205846 
L 163.201196 113.75706 
L 168.239992 111.520469 
L 169.91959 110.941977 
L 171.599189 110.51991 
L 173.278788 110.298009 
L 174.958386 110.315451 
L 176.637985 110.55832 
L 178.317584 110.978452 
L 181.676781 112.155554 
L 186.715577 114.032253 
L 188.395176 114.49981 
L 190.074774 114.847432 
L 191.754373 115.070339 
L 193.433972 115.163754 
L 195.11357 115.122899 
L 196.793169 114.942997 
L 198.472768 114.619269 
L 200.152366 114.147193 
L 203.511564 112.824484 
L 211.909557 108.983089 
L 213.589156 108.41392 
L 215.268754 107.993158 
L 216.948353 107.752892 
L 218.627952 107.725184 
L 220.30755 107.942094 
L 221.987149 108.435684 
L 223.666747 109.238017 
L 225.346346 110.381152 
L 227.025945 111.875447 
L 228.705543 113.644439 
L 235.423938 121.504028 
L 237.103537 123.173994 
L 238.783135 124.530677 
L 240.462734 125.538501 
L 242.142333 126.257311 
L 243.821931 126.755161 
L 247.181129 127.360198 
L 250.540326 127.898047 
L 252.219925 128.306735 
L 255.579122 129.43847 
L 262.297517 131.934778 
L 263.977115 132.392826 
L 265.656714 132.720012 
L 269.015911 133.025894 
L 272.375109 132.986146 
L 277.413905 132.590665 
L 282.452701 131.986972 
L 285.811898 131.267231 
L 287.491497 130.751812 
L 289.171095 130.105867 
L 290.850694 129.312592 
L 294.209891 127.396012 
L 299.248687 124.400018 
L 300.928286 123.557326 
L 302.607885 122.871069 
L 304.287483 122.373487 
L 305.967082 122.03751 
L 309.326279 121.682782 
L 314.365075 121.315288 
L 317.724273 120.721259 
L 327.801865 118.310115 
L 329.481463 118.169985 
L 332.840661 118.221092 
L 339.559055 118.720508 
L 342.918253 118.643825 
L 346.27745 118.173448 
L 349.636647 117.388543 
L 352.995844 116.375626 
L 363.073436 113.002184 
L 366.432634 112.211466 
L 369.791831 111.813151 
L 371.47143 111.788542 
L 373.151028 111.890948 
L 374.830627 112.128343 
L 376.510226 112.508698 
L 378.189824 113.039988 
L 379.869423 113.730183 
L 381.549022 114.579014 
L 384.908219 116.611355 
L 389.947015 119.874222 
L 393.306212 121.708635 
L 394.985811 122.418307 
L 396.66541 122.988069 
L 398.345008 123.426394 
L 400.024607 123.741756 
L 403.383804 124.037481 
L 406.743002 123.943648 
L 410.102199 123.565967 
L 416.820594 122.618128 
L 420.179791 122.376145 
L 426.898186 122.139938 
L 428.577784 121.950282 
L 430.257383 121.644648 
L 431.936982 121.19139 
L 433.61658 120.572188 
L 435.296179 119.789377 
L 436.975778 118.84707 
L 438.655376 117.749378 
L 440.334975 116.500413 
L 443.694172 113.565113 
L 447.05337 110.088322 
L 450.412567 106.211978 
L 460.490159 93.878259 
L 463.849356 89.413278 
L 465.528955 86.88871 
L 467.208554 84.085663 
L 468.888152 80.941316 
L 470.567751 77.394375 
L 473.926948 69.355079 
L 477.286145 61.250051 
L 478.965744 57.633138 
L 480.645343 54.552091 
L 482.324941 52.191012 
L 484.00454 50.716523 
L 485.684139 50.092095 
L 487.363737 50.150125 
L 489.043336 50.720829 
L 490.722935 51.634423 
L 494.082132 53.81114 
L 495.761731 54.734694 
L 497.441329 55.361485 
L 499.120928 55.719163 
L 500.800527 55.874865 
L 504.159724 55.848889 
L 507.518921 55.820654 
L 509.19852 55.972937 
L 510.878119 56.289209 
L 514.237316 57.311327 
L 517.596513 58.658439 
L 522.635309 60.778074 
L 525.994507 61.916877 
L 527.674105 62.316497 
L 529.353704 62.564041 
L 531.033303 62.630343 
L 532.712901 62.486239 
L 534.3925 62.102563 
L 534.3925 62.102563 
" clip-path="url(#p6f1aa8732b)" style="fill: none; stroke: #5d5d5d; stroke-linecap: square"/>
   </g>
   <g id="line2d_29">
    <path d="M 32.1925 126.548438 
L 42.006681 126.741106 
L 45.278075 126.449647 
L 46.913772 126.164362 
L 48.549468 125.764449 
L 50.185165 125.233716 
L 51.820862 124.555971 
L 53.456559 123.715021 
L 55.092256 122.694674 
L 56.727953 121.478738 
L 58.363649 120.051341 
L 61.635043 116.700385 
L 64.906437 113.268194 
L 66.542134 111.746325 
L 68.177831 110.473777 
L 69.813527 109.540426 
L 71.449224 109.035077 
L 73.084921 109.003598 
L 74.720618 109.435299 
L 76.356315 110.315633 
L 77.992012 111.63005 
L 79.627708 113.364003 
L 81.263405 115.502943 
L 82.899102 118.032322 
L 84.534799 120.934988 
L 87.806193 127.529731 
L 91.077586 134.370924 
L 92.713283 137.579753 
L 94.34898 140.485173 
L 95.984677 142.965509 
L 97.620374 144.908677 
L 99.256071 146.317682 
L 100.891767 147.271543 
L 102.527464 147.850625 
L 104.163161 148.135295 
L 105.798858 148.205919 
L 115.613039 147.863328 
L 122.155826 148.116247 
L 125.42722 148.252848 
L 127.062917 148.216763 
L 128.698614 148.047036 
L 130.334311 147.695628 
L 131.970007 147.114499 
L 133.605704 146.255609 
L 135.241401 145.070922 
L 136.877098 143.536899 
L 138.512795 141.713713 
L 141.784188 137.512015 
L 146.691279 130.991767 
L 148.326976 129.072339 
L 149.962673 127.378077 
L 151.598369 125.88121 
L 154.869763 123.326473 
L 164.683944 116.60773 
L 167.955338 114.579445 
L 169.591035 113.799538 
L 171.226732 113.247685 
L 172.862428 112.977809 
L 174.498125 113.042068 
L 176.133822 113.43985 
L 177.769519 114.110002 
L 179.405216 114.98804 
L 182.676609 117.109847 
L 185.948003 119.289406 
L 187.5837 120.241509 
L 189.219397 121.048869 
L 190.855094 121.704231 
L 192.490791 122.201056 
L 194.126487 122.532809 
L 195.762184 122.692954 
L 197.397881 122.674954 
L 199.033578 122.472272 
L 200.669275 122.080782 
L 202.304972 121.520323 
L 205.576365 120.027 
L 213.754849 115.699011 
L 215.390546 115.02696 
L 217.026243 114.541417 
L 218.66194 114.304312 
L 220.297637 114.377574 
L 221.933334 114.823133 
L 223.569031 115.702916 
L 225.204727 117.078854 
L 226.840424 118.983294 
L 228.476121 121.320529 
L 231.747515 126.772002 
L 235.018908 132.390497 
L 236.654605 134.93651 
L 238.290302 137.133275 
L 239.925999 138.893934 
L 241.561696 140.25877 
L 243.197393 141.291195 
L 244.833089 142.054624 
L 246.468786 142.612468 
L 249.74018 143.36506 
L 256.282967 144.752268 
L 261.190058 145.689112 
L 264.461452 146.047006 
L 267.732845 146.093101 
L 271.004239 145.837016 
L 274.275633 145.300976 
L 277.547026 144.50707 
L 280.81842 143.46108 
L 284.089814 142.137119 
L 287.361207 140.50566 
L 290.632601 138.538384 
L 295.539692 135.118107 
L 300.446782 131.715897 
L 303.718176 129.789818 
L 306.989569 128.227432 
L 311.89666 126.266651 
L 318.439447 123.646565 
L 321.710841 122.403012 
L 323.346538 121.906858 
L 324.982235 121.539872 
L 326.617932 121.336122 
L 328.253628 121.329672 
L 329.889325 121.539523 
L 331.525022 121.928975 
L 334.796416 123.048432 
L 339.703506 124.835534 
L 341.339203 125.261794 
L 342.9749 125.535468 
L 344.610597 125.658614 
L 346.246294 125.639001 
L 347.881991 125.484395 
L 349.517687 125.202563 
L 352.789081 124.288286 
L 356.060475 122.964035 
L 360.967565 120.530749 
L 365.874656 118.130718 
L 369.146049 116.870672 
L 370.781746 116.427032 
L 372.417443 116.150796 
L 374.05314 116.074398 
L 375.688837 116.230269 
L 377.324534 116.650841 
L 378.960231 117.368547 
L 380.595927 118.412839 
L 382.231624 119.758998 
L 383.867321 121.335088 
L 387.138715 124.882998 
L 390.410108 128.468438 
L 392.045805 130.091441 
L 393.681502 131.507551 
L 395.317199 132.694158 
L 396.952896 133.657358 
L 398.588593 134.403669 
L 400.224289 134.939606 
L 401.859986 135.271686 
L 403.495683 135.406427 
L 405.13138 135.350344 
L 406.767077 135.112621 
L 408.402774 134.721181 
L 411.674167 133.621016 
L 418.216955 131.159222 
L 421.488348 130.30196 
L 426.395439 129.389158 
L 429.666833 128.771934 
L 432.938226 127.940901 
L 434.573923 127.385173 
L 436.20962 126.700864 
L 437.845317 125.861502 
L 439.481014 124.840612 
L 441.116711 123.611721 
L 442.752407 122.148357 
L 444.388104 120.424161 
L 446.023801 118.434315 
L 449.295195 113.831126 
L 454.202285 106.086737 
L 459.109376 98.444834 
L 464.016466 90.947002 
L 467.28786 85.366919 
L 468.923557 82.244003 
L 472.194951 75.172447 
L 477.102041 64.099462 
L 478.737738 60.851471 
L 480.373435 58.062096 
L 482.009132 55.873607 
L 483.644828 54.418332 
L 485.280525 53.682955 
L 486.916222 53.543576 
L 488.551919 53.873543 
L 490.187616 54.546202 
L 493.45901 56.41298 
L 495.094706 57.353792 
L 496.730403 58.141193 
L 498.3661 58.754675 
L 501.637494 59.582524 
L 504.908887 60.085009 
L 509.815978 60.771512 
L 513.087372 61.54625 
L 514.723068 62.121797 
L 516.358765 62.864154 
L 517.994462 63.80434 
L 519.630159 64.973374 
L 521.265856 66.402276 
L 521.265856 66.402276 
" clip-path="url(#p6f1aa8732b)" style="fill: none; stroke-dasharray: 3.7,1.6; stroke-dashoffset: 0; stroke: #5d5d5d"/>
   </g>
   <g id="patch_4">
    <path d="M 27.1925 166.148438 
L 27.1925 27.548438 
" style="fill: none; stroke: #cccccc; stroke-width: 0.75; stroke-linejoin: miter; stroke-linecap: square"/>
   </g>
   <g id="patch_5">
    <path d="M 32.1925 171.148438 
L 534.3925 171.148438 
" style="fill: none; stroke: #cccccc; stroke-width: 0.75; stroke-linejoin: miter; stroke-linecap: square"/>
   </g>
   <g id="legend_1">
    <g id="line2d_30">
     <path d="M 40.2925 14.633438 
L 46.3675 14.633438 
L 52.4425 14.633438 
" style="fill: none; stroke: #5d5d5d; stroke-linecap: square"/>
    </g>
    <g id="text_27">
     <!-- Цены для потребителей -->
     <g style="fill: #4b4b4b" transform="translate(59.6425 17.783438) scale(0.09 -0.09)">
      <defs>
       <path id="Ubuntu-426" d="M 3923 531 
L 4480 531 
L 4480 -1184 
L 3891 -1184 
L 3891 0 
L 550 0 
L 550 4435 
L 1171 4435 
L 1171 531 
L 3302 531 
L 3302 4435 
L 3923 4435 
L 3923 531 
z
" transform="scale(0.015625)"/>
       <path id="Ubuntu-435" d="M 326 1658 
Q 326 2099 454 2428 
Q 582 2758 793 2976 
Q 1005 3194 1280 3302 
Q 1555 3411 1843 3411 
Q 2515 3411 2873 2992 
Q 3232 2573 3232 1715 
Q 3232 1677 3232 1616 
Q 3232 1555 3226 1504 
L 947 1504 
Q 986 986 1248 717 
Q 1510 448 2067 448 
Q 2381 448 2595 502 
Q 2810 557 2918 608 
L 3002 109 
Q 2893 51 2621 -13 
Q 2349 -77 2003 -77 
Q 1568 -77 1251 54 
Q 934 186 729 416 
Q 525 646 425 963 
Q 326 1280 326 1658 
z
M 2611 1984 
Q 2618 2387 2410 2646 
Q 2202 2906 1837 2906 
Q 1632 2906 1475 2826 
Q 1318 2746 1209 2618 
Q 1101 2490 1040 2323 
Q 979 2157 960 1984 
L 2611 1984 
z
" transform="scale(0.015625)"/>
       <path id="Ubuntu-44b" d="M 1734 1645 
Q 1562 1645 1398 1635 
Q 1235 1626 1107 1594 
L 1107 448 
Q 1146 442 1219 435 
Q 1293 429 1379 425 
Q 1466 422 1555 419 
Q 1645 416 1715 416 
Q 2106 416 2317 563 
Q 2528 710 2528 1037 
Q 2528 1197 2461 1312 
Q 2394 1427 2282 1500 
Q 2170 1574 2029 1609 
Q 1888 1645 1734 1645 
z
M 512 3328 
L 1107 3328 
L 1107 2054 
Q 1216 2080 1424 2105 
Q 1632 2131 1824 2131 
Q 2086 2131 2323 2070 
Q 2560 2010 2739 1878 
Q 2918 1747 3024 1539 
Q 3130 1331 3130 1043 
Q 3130 742 3027 531 
Q 2925 320 2739 185 
Q 2554 51 2291 -9 
Q 2029 -70 1715 -70 
Q 1414 -70 1107 -35 
Q 800 0 512 70 
L 512 3328 
z
M 4339 0 
L 3744 0 
L 3744 3328 
L 4339 3328 
L 4339 0 
z
" transform="scale(0.015625)"/>
       <path id="Ubuntu-20" transform="scale(0.015625)"/>
       <path id="Ubuntu-434" d="M 102 486 
L 461 486 
Q 672 794 797 1120 
Q 922 1446 986 1795 
Q 1050 2144 1069 2525 
Q 1088 2906 1094 3328 
L 3277 3328 
L 3277 486 
L 3725 486 
L 3725 -928 
L 3162 -928 
L 3162 0 
L 666 0 
L 666 -928 
L 102 -928 
L 102 486 
z
M 2682 486 
L 2682 2829 
L 1638 2829 
Q 1632 2528 1606 2224 
Q 1581 1920 1523 1622 
Q 1466 1325 1360 1040 
Q 1254 755 1094 486 
L 2682 486 
z
" transform="scale(0.015625)"/>
       <path id="Ubuntu-44f" d="M 1888 1293 
Q 1792 1293 1702 1296 
Q 1613 1299 1530 1306 
Q 1325 998 1136 649 
Q 947 301 800 0 
L 198 0 
Q 275 186 377 381 
Q 480 576 585 761 
Q 691 947 800 1113 
Q 909 1280 1005 1414 
Q 826 1478 710 1571 
Q 595 1664 524 1779 
Q 454 1894 425 2025 
Q 397 2157 397 2291 
Q 397 2573 502 2784 
Q 608 2995 793 3132 
Q 979 3270 1232 3340 
Q 1485 3411 1786 3411 
Q 2208 3411 2502 3372 
Q 2797 3334 2995 3283 
L 2995 0 
L 2406 0 
L 2406 1293 
L 1888 1293 
z
M 2406 2886 
Q 2336 2899 2173 2912 
Q 2010 2925 1798 2925 
Q 1434 2925 1210 2774 
Q 986 2624 986 2298 
Q 986 1978 1216 1856 
Q 1446 1734 1811 1734 
L 2406 1734 
L 2406 2886 
z
" transform="scale(0.015625)"/>
       <path id="Ubuntu-43e" d="M 3450 1664 
Q 3450 1267 3334 947 
Q 3219 627 3011 396 
Q 2803 166 2515 41 
Q 2227 -83 1888 -83 
Q 1549 -83 1261 41 
Q 973 166 765 396 
Q 557 627 441 947 
Q 326 1267 326 1664 
Q 326 2054 441 2377 
Q 557 2701 765 2931 
Q 973 3162 1261 3286 
Q 1549 3411 1888 3411 
Q 2227 3411 2515 3286 
Q 2803 3162 3011 2931 
Q 3219 2701 3334 2377 
Q 3450 2054 3450 1664 
z
M 2829 1664 
Q 2829 2227 2576 2556 
Q 2323 2886 1888 2886 
Q 1453 2886 1200 2556 
Q 947 2227 947 1664 
Q 947 1101 1200 771 
Q 1453 442 1888 442 
Q 2323 442 2576 771 
Q 2829 1101 2829 1664 
z
" transform="scale(0.015625)"/>
       <path id="Ubuntu-431" d="M 1050 2944 
Q 1248 3104 1513 3190 
Q 1779 3277 2022 3277 
Q 2739 3277 3107 2838 
Q 3475 2400 3475 1619 
Q 3475 1286 3385 979 
Q 3296 672 3107 435 
Q 2918 198 2630 57 
Q 2342 -83 1946 -83 
Q 1491 -83 1190 83 
Q 890 250 714 538 
Q 538 826 467 1210 
Q 397 1594 397 2022 
Q 397 2579 477 3059 
Q 557 3539 768 3904 
Q 979 4269 1353 4509 
Q 1728 4749 2317 4832 
Q 2490 4858 2621 4874 
Q 2752 4890 2851 4902 
Q 2950 4915 3033 4931 
Q 3117 4947 3206 4966 
L 3270 4429 
Q 3226 4416 3178 4409 
Q 3130 4403 3043 4390 
Q 2957 4378 2813 4358 
Q 2669 4339 2438 4314 
Q 1805 4243 1465 3929 
Q 1126 3616 1050 2944 
z
M 1011 1926 
Q 1011 1626 1052 1357 
Q 1094 1088 1200 883 
Q 1306 678 1485 560 
Q 1664 442 1946 442 
Q 2189 442 2361 534 
Q 2534 627 2643 787 
Q 2752 947 2803 1161 
Q 2854 1376 2854 1619 
Q 2854 1837 2812 2041 
Q 2771 2246 2662 2406 
Q 2554 2566 2371 2662 
Q 2189 2758 1914 2758 
Q 1645 2758 1398 2643 
Q 1152 2528 1018 2362 
Q 1011 2291 1011 2163 
Q 1011 2035 1011 1926 
z
" transform="scale(0.015625)"/>
       <path id="Ubuntu-438" d="M 3309 3328 
L 3309 0 
L 2733 0 
L 2733 2534 
Q 2541 2291 2310 1964 
Q 2080 1638 1849 1289 
Q 1619 941 1408 601 
Q 1197 262 1043 0 
L 512 0 
L 512 3328 
L 1088 3328 
L 1088 934 
Q 1254 1210 1465 1539 
Q 1677 1869 1904 2192 
Q 2131 2515 2358 2812 
Q 2586 3110 2784 3328 
L 3309 3328 
z
" transform="scale(0.015625)"/>
       <path id="Ubuntu-439" d="M 3309 3328 
L 3309 0 
L 2733 0 
L 2733 2534 
Q 2541 2291 2310 1964 
Q 2080 1638 1849 1289 
Q 1619 941 1408 601 
Q 1197 262 1043 0 
L 512 0 
L 512 3328 
L 1088 3328 
L 1088 934 
Q 1254 1210 1465 1539 
Q 1677 1869 1904 2192 
Q 2131 2515 2358 2812 
Q 2586 3110 2784 3328 
L 3309 3328 
z
M 1917 3866 
Q 1514 3866 1261 4070 
Q 1008 4275 957 4640 
L 1411 4762 
Q 1462 4557 1584 4429 
Q 1706 4301 1917 4301 
Q 2128 4301 2249 4429 
Q 2371 4557 2422 4762 
L 2870 4640 
Q 2819 4275 2569 4070 
Q 2320 3866 1917 3866 
z
" transform="scale(0.015625)"/>
      </defs>
      <use xlink:href="#Ubuntu-426"/>
      <use xlink:href="#Ubuntu-435" x="71.799988"/>
      <use xlink:href="#Ubuntu-43d" x="127.699982"/>
      <use xlink:href="#Ubuntu-44b" x="186.299973"/>
      <use xlink:href="#Ubuntu-20" x="262.09996"/>
      <use xlink:href="#Ubuntu-434" x="285.199951"/>
      <use xlink:href="#Ubuntu-43b" x="347.624939"/>
      <use xlink:href="#Ubuntu-44f" x="407.424927"/>
      <use xlink:href="#Ubuntu-20" x="462.224915"/>
      <use xlink:href="#Ubuntu-43f" x="485.324905"/>
      <use xlink:href="#Ubuntu-43e" x="543.124893"/>
      <use xlink:href="#Ubuntu-442" x="602.124878"/>
      <use xlink:href="#Ubuntu-440" x="648.424866"/>
      <use xlink:href="#Ubuntu-435" x="707.32486"/>
      <use xlink:href="#Ubuntu-431" x="763.224854"/>
      <use xlink:href="#Ubuntu-438" x="822.724838"/>
      <use xlink:href="#Ubuntu-442" x="882.424835"/>
      <use xlink:href="#Ubuntu-435" x="928.724823"/>
      <use xlink:href="#Ubuntu-43b" x="984.624817"/>
      <use xlink:href="#Ubuntu-435" x="1044.424805"/>
      <use xlink:href="#Ubuntu-439" x="1100.324799"/>
     </g>
    </g>
    <g id="line2d_31">
     <path d="M 182.043906 14.633438 
L 188.118906 14.633438 
L 194.193906 14.633438 
" style="fill: none; stroke-dasharray: 3.7,1.6; stroke-dashoffset: 0; stroke: #5d5d5d"/>
    </g>
    <g id="text_28">
     <!-- Цены производителей -->
     <g style="fill: #4b4b4b" transform="translate(201.393906 17.783438) scale(0.09 -0.09)">
      <defs>
       <path id="Ubuntu-437" d="M 1357 3411 
Q 1645 3411 1894 3353 
Q 2144 3296 2323 3181 
Q 2502 3066 2604 2893 
Q 2707 2720 2707 2490 
Q 2707 2342 2656 2220 
Q 2605 2099 2528 2003 
Q 2451 1907 2358 1840 
Q 2266 1773 2182 1747 
Q 2477 1658 2646 1430 
Q 2816 1203 2816 858 
Q 2816 384 2432 153 
Q 2048 -77 1389 -77 
Q 986 -77 694 -13 
Q 403 51 282 109 
L 384 614 
Q 486 576 752 509 
Q 1018 442 1389 442 
Q 1792 442 2003 566 
Q 2214 691 2214 941 
Q 2214 1120 2134 1232 
Q 2054 1344 1932 1401 
Q 1811 1459 1670 1478 
Q 1530 1498 1408 1498 
L 851 1498 
L 851 1971 
L 1389 1971 
Q 1504 1971 1629 1987 
Q 1754 2003 1859 2054 
Q 1965 2106 2035 2198 
Q 2106 2291 2106 2445 
Q 2106 2566 2045 2652 
Q 1984 2739 1881 2796 
Q 1779 2854 1641 2883 
Q 1504 2912 1357 2912 
Q 1242 2912 1107 2893 
Q 973 2874 845 2845 
Q 717 2816 614 2784 
Q 512 2752 467 2726 
L 358 3238 
Q 410 3258 518 3290 
Q 627 3322 764 3347 
Q 902 3373 1056 3392 
Q 1210 3411 1357 3411 
z
" transform="scale(0.015625)"/>
      </defs>
      <use xlink:href="#Ubuntu-426"/>
      <use xlink:href="#Ubuntu-435" x="71.799988"/>
      <use xlink:href="#Ubuntu-43d" x="127.699982"/>
      <use xlink:href="#Ubuntu-44b" x="186.299973"/>
      <use xlink:href="#Ubuntu-20" x="262.09996"/>
      <use xlink:href="#Ubuntu-43f" x="285.199951"/>
      <use xlink:href="#Ubuntu-440" x="342.999939"/>
      <use xlink:href="#Ubuntu-43e" x="401.899933"/>
      <use xlink:href="#Ubuntu-438" x="460.899918"/>
      <use xlink:href="#Ubuntu-437" x="520.599915"/>
      <use xlink:href="#Ubuntu-432" x="569.499908"/>
      <use xlink:href="#Ubuntu-43e" x="624.299896"/>
      <use xlink:href="#Ubuntu-434" x="683.299881"/>
      <use xlink:href="#Ubuntu-438" x="743.599869"/>
      <use xlink:href="#Ubuntu-442" x="803.299866"/>
      <use xlink:href="#Ubuntu-435" x="849.599854"/>
      <use xlink:href="#Ubuntu-43b" x="905.499847"/>
      <use xlink:href="#Ubuntu-435" x="965.299835"/>
      <use xlink:href="#Ubuntu-439" x="1021.199829"/>
     </g>
    </g>
   </g>
  </g>
 </g>
 <defs>
  <clipPath id="p6f1aa8732b">
   <rect x="32.1925" y="27.548438" width="502.2" height="138.6"/>
  </clipPath>
  <clipPath id="pfe47635eff">
   <rect x="32.1925" y="166.148437" width="502.2" height="0"/>
  </clipPath>
 </defs>
</svg>
