<?xml version="1.0" encoding="utf-8" standalone="no"?>
<!DOCTYPE svg PUBLIC "-//W3C//DTD SVG 1.1//EN"
  "http://www.w3.org/Graphics/SVG/1.1/DTD/svg11.dtd">
<svg xmlns:xlink="http://www.w3.org/1999/xlink" width="548.9125pt" height="248.084219pt" viewBox="0 0 548.9125 248.084219" xmlns="http://www.w3.org/2000/svg" version="1.1">
 <metadata>
  <rdf:RDF xmlns:dc="http://purl.org/dc/elements/1.1/" xmlns:cc="http://creativecommons.org/ns#" xmlns:rdf="http://www.w3.org/1999/02/22-rdf-syntax-ns#">
   <cc:Work>
    <dc:type rdf:resource="http://purl.org/dc/dcmitype/StillImage"/>
    <dc:date>2024-05-22T18:50:48.780774</dc:date>
    <dc:format>image/svg+xml</dc:format>
    <dc:creator>
     <cc:Agent>
      <dc:title>Matplotlib v3.8.0, https://matplotlib.org/</dc:title>
     </cc:Agent>
    </dc:creator>
   </cc:Work>
  </rdf:RDF>
 </metadata>
 <defs>
  <style type="text/css">*{stroke-linejoin: round; stroke-linecap: butt}</style>
 </defs>
 <g id="figure_1">
  <g id="patch_1">
   <path d="M 0 248.084219 
L 548.9125 248.084219 
L 548.9125 0 
L 0 0 
L 0 248.084219 
z
" style="fill: none"/>
  </g>
  <g id="axes_1">
   <g id="patch_2">
    <path d="M 32.1925 208.196719 
L 534.3925 208.196719 
L 534.3925 41.876719 
L 32.1925 41.876719 
L 32.1925 208.196719 
z
" style="fill: none"/>
   </g>
   <g id="line2d_1">
    <path d="M 70.302112 203.460724 
L 70.302112 50.066145 
" clip-path="url(#p06662f6d1f)" style="fill: none; stroke-dasharray: 0.5,0.825; stroke-dashoffset: 0; stroke: #d9d9d9; stroke-width: 0.5"/>
   </g>
   <g id="line2d_2">
    <path d="M 108.835164 203.460724 
L 108.835164 50.066145 
" clip-path="url(#p06662f6d1f)" style="fill: none; stroke-dasharray: 0.5,0.825; stroke-dashoffset: 0; stroke: #d9d9d9; stroke-width: 0.5"/>
   </g>
   <g id="line2d_3">
    <path d="M 147.791657 203.460724 
L 147.791657 50.066145 
" clip-path="url(#p06662f6d1f)" style="fill: none; stroke-dasharray: 0.5,0.825; stroke-dashoffset: 0; stroke: #d9d9d9; stroke-width: 0.5"/>
   </g>
   <g id="line2d_4">
    <path d="M 186.748149 203.460724 
L 186.748149 50.066145 
" clip-path="url(#p06662f6d1f)" style="fill: none; stroke-dasharray: 0.5,0.825; stroke-dashoffset: 0; stroke: #d9d9d9; stroke-width: 0.5"/>
   </g>
   <g id="line2d_5">
    <path d="M 224.857761 203.460724 
L 224.857761 50.066145 
" clip-path="url(#p06662f6d1f)" style="fill: none; stroke-dasharray: 0.5,0.825; stroke-dashoffset: 0; stroke: #d9d9d9; stroke-width: 0.5"/>
   </g>
   <g id="line2d_6">
    <path d="M 263.390814 203.460724 
L 263.390814 50.066145 
" clip-path="url(#p06662f6d1f)" style="fill: none; stroke-dasharray: 0.5,0.825; stroke-dashoffset: 0; stroke: #d9d9d9; stroke-width: 0.5"/>
   </g>
   <g id="line2d_7">
    <path d="M 302.347306 203.460724 
L 302.347306 50.066145 
" clip-path="url(#p06662f6d1f)" style="fill: none; stroke-dasharray: 0.5,0.825; stroke-dashoffset: 0; stroke: #d9d9d9; stroke-width: 0.5"/>
   </g>
   <g id="line2d_8">
    <path d="M 341.303798 203.460724 
L 341.303798 50.066145 
" clip-path="url(#p06662f6d1f)" style="fill: none; stroke-dasharray: 0.5,0.825; stroke-dashoffset: 0; stroke: #d9d9d9; stroke-width: 0.5"/>
   </g>
   <g id="line2d_9">
    <path d="M 379.413411 203.460724 
L 379.413411 50.066145 
" clip-path="url(#p06662f6d1f)" style="fill: none; stroke-dasharray: 0.5,0.825; stroke-dashoffset: 0; stroke: #d9d9d9; stroke-width: 0.5"/>
   </g>
   <g id="line2d_10">
    <path d="M 417.946463 203.460724 
L 417.946463 50.066145 
" clip-path="url(#p06662f6d1f)" style="fill: none; stroke-dasharray: 0.5,0.825; stroke-dashoffset: 0; stroke: #d9d9d9; stroke-width: 0.5"/>
   </g>
   <g id="line2d_11">
    <path d="M 456.902955 203.460724 
L 456.902955 50.066145 
" clip-path="url(#p06662f6d1f)" style="fill: none; stroke-dasharray: 0.5,0.825; stroke-dashoffset: 0; stroke: #d9d9d9; stroke-width: 0.5"/>
   </g>
   <g id="line2d_12">
    <path d="M 495.859448 203.460724 
L 495.859448 50.066145 
" clip-path="url(#p06662f6d1f)" style="fill: none; stroke-dasharray: 0.5,0.825; stroke-dashoffset: 0; stroke: #d9d9d9; stroke-width: 0.5"/>
   </g>
   <g id="line2d_13">
    <path d="M 32.1925 172.781808 
L 534.3925 172.781808 
" clip-path="url(#p06662f6d1f)" style="fill: none; stroke-dasharray: 0.5,0.825; stroke-dashoffset: 0; stroke: #d9d9d9; stroke-width: 0.5"/>
   </g>
   <g id="line2d_14">
    <path d="M 32.1925 142.102892 
L 534.3925 142.102892 
" clip-path="url(#p06662f6d1f)" style="fill: none; stroke-dasharray: 0.5,0.825; stroke-dashoffset: 0; stroke: #d9d9d9; stroke-width: 0.5"/>
   </g>
   <g id="line2d_15">
    <path d="M 32.1925 111.423976 
L 534.3925 111.423976 
" clip-path="url(#p06662f6d1f)" style="fill: none; stroke-dasharray: 0.5,0.825; stroke-dashoffset: 0; stroke: #d9d9d9; stroke-width: 0.5"/>
   </g>
   <g id="line2d_16">
    <path d="M 32.1925 80.74506 
L 534.3925 80.74506 
" clip-path="url(#p06662f6d1f)" style="fill: none; stroke-dasharray: 0.5,0.825; stroke-dashoffset: 0; stroke: #d9d9d9; stroke-width: 0.5"/>
   </g>
   <g id="line2d_17">
    <path d="M 37.2145 172.781808 
L 529.3705 172.781808 
" clip-path="url(#p06662f6d1f)" style="fill: none; stroke-dasharray: 2.775,1.2; stroke-dashoffset: 0; stroke: #cccccc; stroke-width: 0.75"/>
   </g>
   <g id="axes_2">
    <g id="patch_3">
     <path d="M 32.1925 208.196719 
L 534.3925 208.196719 
L 534.3925 208.196719 
L 32.1925 208.196719 
L 32.1925 208.196719 
z
" style="fill: none"/>
    </g>
    <g id="matplotlib.axis_1">
     <g id="xtick_1">
      <g id="line2d_18">
       <path d="M 32.1925 208.196719 
L 32.1925 208.196719 
" clip-path="url(#p661626c90c)" style="fill: none; stroke-dasharray: 0.5,0.825; stroke-dashoffset: 0; stroke: #d9d9d9; stroke-width: 0.5"/>
      </g>
      <g id="text_1">
       <!-- 2021 -->
       <g style="fill: #808080" transform="translate(23.1675 239.404219) scale(0.08 -0.08)">
        <defs>
         <path id="Ubuntu-32" d="M 2989 3302 
Q 2989 3072 2896 2857 
Q 2803 2643 2649 2435 
Q 2496 2227 2304 2025 
Q 2112 1824 1920 1632 
Q 1811 1523 1667 1376 
Q 1523 1229 1395 1069 
Q 1267 909 1180 761 
Q 1094 614 1094 506 
L 3136 506 
L 3136 0 
L 448 0 
Q 442 38 442 76 
Q 442 115 442 147 
Q 442 448 541 707 
Q 640 966 800 1196 
Q 960 1427 1158 1632 
Q 1357 1837 1549 2029 
Q 1709 2182 1853 2332 
Q 1997 2483 2109 2633 
Q 2221 2784 2288 2944 
Q 2355 3104 2355 3283 
Q 2355 3475 2294 3609 
Q 2234 3744 2131 3833 
Q 2029 3923 1891 3964 
Q 1754 4006 1600 4006 
Q 1414 4006 1260 3955 
Q 1107 3904 985 3837 
Q 864 3770 781 3696 
Q 698 3622 653 3584 
L 358 4006 
Q 416 4070 531 4163 
Q 646 4256 806 4339 
Q 966 4422 1164 4480 
Q 1363 4538 1594 4538 
Q 2291 4538 2640 4214 
Q 2989 3891 2989 3302 
z
" transform="scale(0.015625)"/>
         <path id="Ubuntu-30" d="M 320 2221 
Q 320 3334 713 3936 
Q 1107 4538 1805 4538 
Q 2502 4538 2896 3936 
Q 3290 3334 3290 2221 
Q 3290 1107 2896 505 
Q 2502 -96 1805 -96 
Q 1107 -96 713 505 
Q 320 1107 320 2221 
z
M 2662 2221 
Q 2662 2586 2620 2912 
Q 2579 3238 2480 3481 
Q 2381 3725 2214 3869 
Q 2048 4013 1805 4013 
Q 1562 4013 1395 3869 
Q 1229 3725 1129 3481 
Q 1030 3238 988 2912 
Q 947 2586 947 2221 
Q 947 1856 988 1529 
Q 1030 1203 1129 960 
Q 1229 717 1395 573 
Q 1562 429 1805 429 
Q 2048 429 2214 573 
Q 2381 717 2480 960 
Q 2579 1203 2620 1529 
Q 2662 1856 2662 2221 
z
" transform="scale(0.015625)"/>
         <path id="Ubuntu-31" d="M 595 3520 
Q 960 3661 1305 3881 
Q 1651 4102 1939 4435 
L 2362 4435 
L 2362 0 
L 1766 0 
L 1766 3610 
Q 1690 3539 1578 3462 
Q 1466 3386 1334 3315 
Q 1203 3245 1059 3181 
Q 915 3117 781 3072 
L 595 3520 
z
" transform="scale(0.015625)"/>
        </defs>
        <use xlink:href="#Ubuntu-32"/>
        <use xlink:href="#Ubuntu-30" x="56.399994"/>
        <use xlink:href="#Ubuntu-32" x="112.799988"/>
        <use xlink:href="#Ubuntu-31" x="169.199982"/>
       </g>
      </g>
     </g>
     <g id="xtick_2">
      <g id="line2d_19">
       <path d="M 186.748149 208.196719 
L 186.748149 208.196719 
" clip-path="url(#p661626c90c)" style="fill: none; stroke-dasharray: 0.5,0.825; stroke-dashoffset: 0; stroke: #d9d9d9; stroke-width: 0.5"/>
      </g>
      <g id="text_2">
       <!-- 2022 -->
       <g style="fill: #808080" transform="translate(177.723149 239.404219) scale(0.08 -0.08)">
        <use xlink:href="#Ubuntu-32"/>
        <use xlink:href="#Ubuntu-30" x="56.399994"/>
        <use xlink:href="#Ubuntu-32" x="112.799988"/>
        <use xlink:href="#Ubuntu-32" x="169.199982"/>
       </g>
      </g>
     </g>
     <g id="xtick_3">
      <g id="line2d_20">
       <path d="M 341.303798 208.196719 
L 341.303798 208.196719 
" clip-path="url(#p661626c90c)" style="fill: none; stroke-dasharray: 0.5,0.825; stroke-dashoffset: 0; stroke: #d9d9d9; stroke-width: 0.5"/>
      </g>
      <g id="text_3">
       <!-- 2023 -->
       <g style="fill: #808080" transform="translate(332.278798 239.404219) scale(0.08 -0.08)">
        <defs>
         <path id="Ubuntu-33" d="M 1446 435 
Q 2016 435 2262 659 
Q 2509 883 2509 1261 
Q 2509 1504 2406 1670 
Q 2304 1837 2137 1936 
Q 1971 2035 1750 2076 
Q 1530 2118 1299 2118 
L 1146 2118 
L 1146 2605 
L 1357 2605 
Q 1517 2605 1686 2637 
Q 1856 2669 1997 2752 
Q 2138 2835 2227 2979 
Q 2317 3123 2317 3341 
Q 2317 3520 2253 3648 
Q 2189 3776 2083 3859 
Q 1978 3942 1840 3977 
Q 1702 4013 1549 4013 
Q 1242 4013 1027 3923 
Q 813 3834 666 3738 
L 435 4192 
Q 512 4243 630 4304 
Q 749 4365 896 4416 
Q 1043 4467 1212 4502 
Q 1382 4538 1568 4538 
Q 1920 4538 2176 4451 
Q 2432 4365 2598 4208 
Q 2765 4051 2848 3836 
Q 2931 3622 2931 3373 
Q 2931 3027 2732 2780 
Q 2534 2534 2253 2406 
Q 2426 2355 2586 2259 
Q 2746 2163 2864 2016 
Q 2982 1869 3056 1677 
Q 3130 1485 3130 1248 
Q 3130 960 3030 713 
Q 2931 467 2723 288 
Q 2515 109 2201 6 
Q 1888 -96 1459 -96 
Q 1293 -96 1117 -70 
Q 941 -45 787 -6 
Q 634 32 518 70 
Q 403 109 352 134 
L 467 653 
Q 576 602 829 518 
Q 1082 435 1446 435 
z
" transform="scale(0.015625)"/>
        </defs>
        <use xlink:href="#Ubuntu-32"/>
        <use xlink:href="#Ubuntu-30" x="56.399994"/>
        <use xlink:href="#Ubuntu-32" x="112.799988"/>
        <use xlink:href="#Ubuntu-33" x="169.199982"/>
       </g>
      </g>
     </g>
     <g id="xtick_4">
      <g id="line2d_21">
       <path d="M 495.859448 208.196719 
L 495.859448 208.196719 
" clip-path="url(#p661626c90c)" style="fill: none; stroke-dasharray: 0.5,0.825; stroke-dashoffset: 0; stroke: #d9d9d9; stroke-width: 0.5"/>
      </g>
      <g id="text_4">
       <!-- 2024 -->
       <g style="fill: #808080" transform="translate(486.834448 239.404219) scale(0.08 -0.08)">
        <defs>
         <path id="Ubuntu-34" d="M 256 1536 
Q 378 1818 589 2192 
Q 800 2566 1065 2963 
Q 1331 3360 1635 3744 
Q 1939 4128 2246 4435 
L 2816 4435 
L 2816 1619 
L 3341 1619 
L 3341 1133 
L 2816 1133 
L 2816 0 
L 2240 0 
L 2240 1133 
L 256 1133 
L 256 1536 
z
M 2240 3731 
Q 2048 3526 1853 3273 
Q 1658 3021 1472 2745 
Q 1286 2470 1123 2182 
Q 960 1894 832 1619 
L 2240 1619 
L 2240 3731 
z
" transform="scale(0.015625)"/>
        </defs>
        <use xlink:href="#Ubuntu-32"/>
        <use xlink:href="#Ubuntu-30" x="56.399994"/>
        <use xlink:href="#Ubuntu-32" x="112.799988"/>
        <use xlink:href="#Ubuntu-34" x="169.199982"/>
       </g>
      </g>
     </g>
    </g>
    <g id="matplotlib.axis_2"/>
   </g>
   <g id="matplotlib.axis_3">
    <g id="xtick_5">
     <g id="line2d_22">
      <defs>
       <path id="m6c1e2f06d2" d="M 0 0 
L 0 3 
" style="stroke: #cecece; stroke-width: 0.75"/>
      </defs>
      <g>
       <use xlink:href="#m6c1e2f06d2" x="32.1925" y="213.196719" style="fill: #cecece; stroke: #cecece; stroke-width: 0.75"/>
      </g>
     </g>
     <g id="text_5">
      <!-- Янв -->
      <g style="fill: #808080" transform="translate(25.116875 228.404219) scale(0.08 -0.08)">
       <defs>
        <path id="Ubuntu-42f" d="M 2272 3936 
Q 2029 3936 1808 3897 
Q 1587 3859 1414 3763 
Q 1242 3667 1139 3500 
Q 1037 3334 1037 3085 
Q 1037 2611 1341 2428 
Q 1645 2246 2253 2246 
L 2893 2246 
L 2893 3917 
Q 2822 3917 2726 3923 
Q 2643 3930 2531 3933 
Q 2419 3936 2272 3936 
z
M 2323 4480 
Q 2458 4480 2611 4473 
Q 2765 4467 2921 4454 
Q 3078 4442 3232 4422 
Q 3386 4403 3514 4371 
L 3514 0 
L 2893 0 
L 2893 1734 
L 2362 1734 
Q 2272 1734 2173 1737 
Q 2074 1741 1907 1760 
Q 1792 1606 1657 1401 
Q 1523 1197 1388 966 
Q 1254 736 1123 486 
Q 992 237 883 0 
L 230 0 
Q 333 250 473 518 
Q 614 787 764 1030 
Q 915 1274 1052 1482 
Q 1190 1690 1293 1824 
Q 1146 1869 986 1952 
Q 826 2035 691 2182 
Q 557 2330 470 2550 
Q 384 2771 384 3078 
Q 384 3424 518 3686 
Q 653 3949 905 4125 
Q 1158 4301 1516 4390 
Q 1875 4480 2323 4480 
z
" transform="scale(0.015625)"/>
        <path id="Ubuntu-43d" d="M 3238 0 
L 2643 0 
L 2643 1472 
L 1107 1472 
L 1107 0 
L 512 0 
L 512 3328 
L 1107 3328 
L 1107 1971 
L 2643 1971 
L 2643 3328 
L 3238 3328 
L 3238 0 
z
" transform="scale(0.015625)"/>
        <path id="Ubuntu-432" d="M 1094 448 
Q 1133 442 1203 435 
Q 1274 429 1363 425 
Q 1453 422 1552 419 
Q 1651 416 1741 416 
Q 1926 416 2096 441 
Q 2266 467 2390 531 
Q 2515 595 2588 700 
Q 2662 806 2662 973 
Q 2662 1133 2595 1238 
Q 2528 1344 2413 1408 
Q 2298 1472 2141 1497 
Q 1984 1523 1805 1523 
L 1094 1523 
L 1094 448 
z
M 1728 1965 
Q 1901 1965 2045 1987 
Q 2189 2010 2294 2067 
Q 2400 2125 2461 2221 
Q 2522 2317 2522 2464 
Q 2522 2618 2445 2707 
Q 2368 2797 2243 2845 
Q 2118 2893 1961 2909 
Q 1805 2925 1645 2925 
Q 1498 2925 1347 2918 
Q 1197 2912 1094 2906 
L 1094 1965 
L 1728 1965 
z
M 1715 -58 
Q 1338 -58 1018 -22 
Q 698 13 512 58 
L 512 3296 
Q 698 3341 1018 3376 
Q 1338 3411 1715 3411 
Q 1978 3411 2227 3366 
Q 2477 3322 2669 3216 
Q 2861 3110 2979 2928 
Q 3098 2746 3098 2477 
Q 3098 2234 2976 2061 
Q 2854 1888 2650 1792 
Q 2925 1696 3088 1507 
Q 3251 1318 3251 979 
Q 3251 678 3132 480 
Q 3014 282 2806 160 
Q 2598 38 2316 -10 
Q 2035 -58 1715 -58 
z
" transform="scale(0.015625)"/>
       </defs>
       <use xlink:href="#Ubuntu-42f"/>
       <use xlink:href="#Ubuntu-43d" x="63.499985"/>
       <use xlink:href="#Ubuntu-432" x="122.099976"/>
      </g>
     </g>
    </g>
    <g id="xtick_6">
     <g id="line2d_23">
      <g>
       <use xlink:href="#m6c1e2f06d2" x="70.302112" y="213.196719" style="fill: #cecece; stroke: #cecece; stroke-width: 0.75"/>
      </g>
     </g>
     <g id="text_6">
      <!-- Апр -->
      <g style="fill: #808080" transform="translate(62.982112 228.404219) scale(0.08 -0.08)">
       <defs>
        <path id="Ubuntu-410" d="M 3514 0 
Q 3405 288 3309 566 
Q 3213 845 3110 1133 
L 1101 1133 
L 698 0 
L 51 0 
Q 307 704 531 1302 
Q 755 1901 969 2438 
Q 1184 2976 1395 3465 
Q 1606 3955 1837 4435 
L 2406 4435 
Q 2637 3955 2848 3465 
Q 3059 2976 3273 2438 
Q 3488 1901 3712 1302 
Q 3936 704 4192 0 
L 3514 0 
z
M 2931 1645 
Q 2726 2202 2524 2723 
Q 2323 3245 2106 3725 
Q 1882 3245 1680 2723 
Q 1478 2202 1280 1645 
L 2931 1645 
z
" transform="scale(0.015625)"/>
        <path id="Ubuntu-43f" d="M 3187 0 
L 2592 0 
L 2592 2829 
L 1107 2829 
L 1107 0 
L 512 0 
L 512 3328 
L 3187 3328 
L 3187 0 
z
" transform="scale(0.015625)"/>
        <path id="Ubuntu-440" d="M 2822 1658 
Q 2822 2240 2534 2553 
Q 2246 2867 1766 2867 
Q 1498 2867 1347 2848 
Q 1197 2829 1107 2803 
L 1107 704 
Q 1216 614 1421 531 
Q 1626 448 1869 448 
Q 2125 448 2307 541 
Q 2490 634 2605 797 
Q 2720 960 2771 1181 
Q 2822 1402 2822 1658 
z
M 3443 1658 
Q 3443 1280 3344 960 
Q 3245 640 3053 409 
Q 2861 179 2582 51 
Q 2304 -77 1946 -77 
Q 1658 -77 1437 0 
Q 1216 77 1107 147 
L 1107 -1184 
L 512 -1184 
L 512 3226 
Q 723 3277 1040 3337 
Q 1357 3398 1773 3398 
Q 2157 3398 2464 3276 
Q 2771 3155 2988 2931 
Q 3206 2707 3324 2384 
Q 3443 2061 3443 1658 
z
" transform="scale(0.015625)"/>
       </defs>
       <use xlink:href="#Ubuntu-410"/>
       <use xlink:href="#Ubuntu-43f" x="66.299988"/>
       <use xlink:href="#Ubuntu-440" x="124.099976"/>
      </g>
     </g>
    </g>
    <g id="xtick_7">
     <g id="line2d_24">
      <g>
       <use xlink:href="#m6c1e2f06d2" x="108.835164" y="213.196719" style="fill: #cecece; stroke: #cecece; stroke-width: 0.75"/>
      </g>
     </g>
     <g id="text_7">
      <!-- Июл -->
      <g style="fill: #808080" transform="translate(100.287664 228.404219) scale(0.08 -0.08)">
       <defs>
        <path id="Ubuntu-418" d="M 550 0 
L 550 4435 
L 1158 4435 
L 1158 1152 
Q 1363 1491 1660 1926 
Q 1958 2362 2294 2813 
Q 2630 3264 2972 3689 
Q 3315 4115 3616 4435 
L 4109 4435 
L 4109 0 
L 3501 0 
L 3501 3462 
Q 3322 3258 3110 2989 
Q 2899 2720 2675 2416 
Q 2451 2112 2224 1785 
Q 1997 1459 1785 1142 
Q 1574 826 1392 531 
Q 1210 237 1069 0 
L 550 0 
z
" transform="scale(0.015625)"/>
        <path id="Ubuntu-44e" d="M 1107 1952 
L 1837 1952 
Q 1875 2285 2006 2553 
Q 2138 2822 2336 3014 
Q 2534 3206 2790 3308 
Q 3046 3411 3341 3411 
Q 3667 3411 3945 3286 
Q 4224 3162 4429 2931 
Q 4634 2701 4749 2377 
Q 4864 2054 4864 1664 
Q 4864 1267 4749 947 
Q 4634 627 4429 396 
Q 4224 166 3945 41 
Q 3667 -83 3341 -83 
Q 3034 -83 2768 29 
Q 2502 141 2304 342 
Q 2106 544 1981 832 
Q 1856 1120 1830 1472 
L 1107 1472 
L 1107 0 
L 512 0 
L 512 3328 
L 1107 3328 
L 1107 1952 
z
M 4250 1664 
Q 4250 2227 4003 2556 
Q 3757 2886 3341 2886 
Q 2925 2886 2678 2556 
Q 2432 2227 2432 1664 
Q 2432 1101 2678 771 
Q 2925 442 3341 442 
Q 3757 442 4003 771 
Q 4250 1101 4250 1664 
z
" transform="scale(0.015625)"/>
        <path id="Ubuntu-43b" d="M 1670 2829 
Q 1670 2618 1660 2378 
Q 1651 2138 1625 1898 
Q 1600 1658 1555 1424 
Q 1510 1190 1440 986 
Q 1370 781 1264 601 
Q 1158 422 1004 284 
Q 851 147 646 54 
Q 442 -38 166 -64 
L 83 435 
Q 397 499 579 672 
Q 762 845 870 1094 
Q 966 1312 1011 1587 
Q 1056 1862 1075 2160 
Q 1094 2458 1097 2758 
Q 1101 3059 1101 3328 
L 3315 3328 
L 3315 0 
L 2720 0 
L 2720 2829 
L 1670 2829 
z
" transform="scale(0.015625)"/>
       </defs>
       <use xlink:href="#Ubuntu-418"/>
       <use xlink:href="#Ubuntu-44e" x="72.799988"/>
       <use xlink:href="#Ubuntu-43b" x="153.899979"/>
      </g>
     </g>
    </g>
    <g id="xtick_8">
     <g id="line2d_25">
      <g>
       <use xlink:href="#m6c1e2f06d2" x="147.791657" y="213.196719" style="fill: #cecece; stroke: #cecece; stroke-width: 0.75"/>
      </g>
     </g>
     <g id="text_8">
      <!-- Окт -->
      <g style="fill: #808080" transform="translate(140.679782 228.404219) scale(0.08 -0.08)">
       <defs>
        <path id="Ubuntu-41e" d="M 371 2221 
Q 371 2790 540 3225 
Q 710 3661 1001 3952 
Q 1293 4243 1680 4390 
Q 2067 4538 2502 4538 
Q 2931 4538 3312 4390 
Q 3693 4243 3981 3952 
Q 4269 3661 4438 3225 
Q 4608 2790 4608 2221 
Q 4608 1651 4438 1216 
Q 4269 781 3981 489 
Q 3693 198 3312 51 
Q 2931 -96 2502 -96 
Q 2067 -96 1680 51 
Q 1293 198 1001 489 
Q 710 781 540 1216 
Q 371 1651 371 2221 
z
M 1024 2221 
Q 1024 1818 1126 1488 
Q 1229 1158 1417 928 
Q 1606 698 1878 573 
Q 2150 448 2490 448 
Q 2829 448 3097 573 
Q 3366 698 3555 928 
Q 3744 1158 3846 1488 
Q 3949 1818 3949 2221 
Q 3949 2624 3846 2953 
Q 3744 3283 3555 3513 
Q 3366 3744 3097 3869 
Q 2829 3994 2490 3994 
Q 2150 3994 1878 3869 
Q 1606 3744 1417 3513 
Q 1229 3283 1126 2953 
Q 1024 2624 1024 2221 
z
" transform="scale(0.015625)"/>
        <path id="Ubuntu-43a" d="M 1728 1811 
Q 1926 1670 2156 1456 
Q 2387 1242 2608 992 
Q 2829 742 3021 483 
Q 3213 224 3347 0 
L 2643 0 
Q 2502 218 2313 445 
Q 2125 672 1920 883 
Q 1715 1094 1504 1273 
Q 1293 1453 1107 1574 
L 1107 0 
L 512 0 
L 512 3328 
L 1107 3328 
L 1107 1901 
Q 1261 2048 1459 2243 
Q 1658 2438 1859 2640 
Q 2061 2842 2233 3024 
Q 2406 3206 2515 3328 
L 3206 3328 
Q 3066 3174 2877 2979 
Q 2688 2784 2486 2579 
Q 2285 2374 2086 2172 
Q 1888 1971 1728 1811 
z
" transform="scale(0.015625)"/>
        <path id="Ubuntu-442" d="M 2861 3328 
L 2861 2829 
L 1779 2829 
L 1779 0 
L 1184 0 
L 1184 2829 
L 102 2829 
L 102 3328 
L 2861 3328 
z
" transform="scale(0.015625)"/>
       </defs>
       <use xlink:href="#Ubuntu-41e"/>
       <use xlink:href="#Ubuntu-43a" x="77.799988"/>
       <use xlink:href="#Ubuntu-442" x="131.499985"/>
      </g>
     </g>
    </g>
    <g id="xtick_9">
     <g id="line2d_26">
      <g>
       <use xlink:href="#m6c1e2f06d2" x="186.748149" y="213.196719" style="fill: #cecece; stroke: #cecece; stroke-width: 0.75"/>
      </g>
     </g>
     <g id="text_9">
      <!-- Янв -->
      <g style="fill: #808080" transform="translate(179.672524 228.404219) scale(0.08 -0.08)">
       <use xlink:href="#Ubuntu-42f"/>
       <use xlink:href="#Ubuntu-43d" x="63.499985"/>
       <use xlink:href="#Ubuntu-432" x="122.099976"/>
      </g>
     </g>
    </g>
    <g id="xtick_10">
     <g id="line2d_27">
      <g>
       <use xlink:href="#m6c1e2f06d2" x="224.857761" y="213.196719" style="fill: #cecece; stroke: #cecece; stroke-width: 0.75"/>
      </g>
     </g>
     <g id="text_10">
      <!-- Апр -->
      <g style="fill: #808080" transform="translate(217.537761 228.404219) scale(0.08 -0.08)">
       <use xlink:href="#Ubuntu-410"/>
       <use xlink:href="#Ubuntu-43f" x="66.299988"/>
       <use xlink:href="#Ubuntu-440" x="124.099976"/>
      </g>
     </g>
    </g>
    <g id="xtick_11">
     <g id="line2d_28">
      <g>
       <use xlink:href="#m6c1e2f06d2" x="263.390814" y="213.196719" style="fill: #cecece; stroke: #cecece; stroke-width: 0.75"/>
      </g>
     </g>
     <g id="text_11">
      <!-- Июл -->
      <g style="fill: #808080" transform="translate(254.843314 228.404219) scale(0.08 -0.08)">
       <use xlink:href="#Ubuntu-418"/>
       <use xlink:href="#Ubuntu-44e" x="72.799988"/>
       <use xlink:href="#Ubuntu-43b" x="153.899979"/>
      </g>
     </g>
    </g>
    <g id="xtick_12">
     <g id="line2d_29">
      <g>
       <use xlink:href="#m6c1e2f06d2" x="302.347306" y="213.196719" style="fill: #cecece; stroke: #cecece; stroke-width: 0.75"/>
      </g>
     </g>
     <g id="text_12">
      <!-- Окт -->
      <g style="fill: #808080" transform="translate(295.235431 228.404219) scale(0.08 -0.08)">
       <use xlink:href="#Ubuntu-41e"/>
       <use xlink:href="#Ubuntu-43a" x="77.799988"/>
       <use xlink:href="#Ubuntu-442" x="131.499985"/>
      </g>
     </g>
    </g>
    <g id="xtick_13">
     <g id="line2d_30">
      <g>
       <use xlink:href="#m6c1e2f06d2" x="341.303798" y="213.196719" style="fill: #cecece; stroke: #cecece; stroke-width: 0.75"/>
      </g>
     </g>
     <g id="text_13">
      <!-- Янв -->
      <g style="fill: #808080" transform="translate(334.228173 228.404219) scale(0.08 -0.08)">
       <use xlink:href="#Ubuntu-42f"/>
       <use xlink:href="#Ubuntu-43d" x="63.499985"/>
       <use xlink:href="#Ubuntu-432" x="122.099976"/>
      </g>
     </g>
    </g>
    <g id="xtick_14">
     <g id="line2d_31">
      <g>
       <use xlink:href="#m6c1e2f06d2" x="379.413411" y="213.196719" style="fill: #cecece; stroke: #cecece; stroke-width: 0.75"/>
      </g>
     </g>
     <g id="text_14">
      <!-- Апр -->
      <g style="fill: #808080" transform="translate(372.093411 228.404219) scale(0.08 -0.08)">
       <use xlink:href="#Ubuntu-410"/>
       <use xlink:href="#Ubuntu-43f" x="66.299988"/>
       <use xlink:href="#Ubuntu-440" x="124.099976"/>
      </g>
     </g>
    </g>
    <g id="xtick_15">
     <g id="line2d_32">
      <g>
       <use xlink:href="#m6c1e2f06d2" x="417.946463" y="213.196719" style="fill: #cecece; stroke: #cecece; stroke-width: 0.75"/>
      </g>
     </g>
     <g id="text_15">
      <!-- Июл -->
      <g style="fill: #808080" transform="translate(409.398963 228.404219) scale(0.08 -0.08)">
       <use xlink:href="#Ubuntu-418"/>
       <use xlink:href="#Ubuntu-44e" x="72.799988"/>
       <use xlink:href="#Ubuntu-43b" x="153.899979"/>
      </g>
     </g>
    </g>
    <g id="xtick_16">
     <g id="line2d_33">
      <g>
       <use xlink:href="#m6c1e2f06d2" x="456.902955" y="213.196719" style="fill: #cecece; stroke: #cecece; stroke-width: 0.75"/>
      </g>
     </g>
     <g id="text_16">
      <!-- Окт -->
      <g style="fill: #808080" transform="translate(449.79108 228.404219) scale(0.08 -0.08)">
       <use xlink:href="#Ubuntu-41e"/>
       <use xlink:href="#Ubuntu-43a" x="77.799988"/>
       <use xlink:href="#Ubuntu-442" x="131.499985"/>
      </g>
     </g>
    </g>
    <g id="xtick_17">
     <g id="line2d_34">
      <g>
       <use xlink:href="#m6c1e2f06d2" x="495.859448" y="213.196719" style="fill: #cecece; stroke: #cecece; stroke-width: 0.75"/>
      </g>
     </g>
     <g id="text_17">
      <!-- Янв -->
      <g style="fill: #808080" transform="translate(488.783823 228.404219) scale(0.08 -0.08)">
       <use xlink:href="#Ubuntu-42f"/>
       <use xlink:href="#Ubuntu-43d" x="63.499985"/>
       <use xlink:href="#Ubuntu-432" x="122.099976"/>
      </g>
     </g>
    </g>
    <g id="xtick_18">
     <g id="line2d_35">
      <g>
       <use xlink:href="#m6c1e2f06d2" x="534.3925" y="213.196719" style="fill: #cecece; stroke: #cecece; stroke-width: 0.75"/>
      </g>
     </g>
     <g id="text_18">
      <!-- Апр -->
      <g style="fill: #808080" transform="translate(527.0725 228.404219) scale(0.08 -0.08)">
       <use xlink:href="#Ubuntu-410"/>
       <use xlink:href="#Ubuntu-43f" x="66.299988"/>
       <use xlink:href="#Ubuntu-440" x="124.099976"/>
      </g>
     </g>
    </g>
   </g>
   <g id="matplotlib.axis_4">
    <g id="ytick_1">
     <g id="line2d_36">
      <defs>
       <path id="m961b899920" d="M 0 0 
L -3 0 
" style="stroke: #cecece; stroke-width: 0.75"/>
      </defs>
      <g>
       <use xlink:href="#m961b899920" x="27.1925" y="203.460724" style="fill: #cecece; stroke: #cecece; stroke-width: 0.75"/>
      </g>
     </g>
     <g id="text_19">
      <!-- 0.9 -->
      <g style="fill: #808080" transform="translate(7.2 206.564474) scale(0.08 -0.08)">
       <defs>
        <path id="Ubuntu-2e" d="M 1216 346 
Q 1216 173 1101 45 
Q 986 -83 787 -83 
Q 589 -83 473 45 
Q 358 173 358 346 
Q 358 518 473 646 
Q 589 774 787 774 
Q 986 774 1101 646 
Q 1216 518 1216 346 
z
" transform="scale(0.015625)"/>
        <path id="Ubuntu-39" d="M 3206 2662 
Q 3206 1344 2550 669 
Q 1894 -6 602 -13 
L 582 486 
Q 986 486 1309 563 
Q 1632 640 1875 809 
Q 2118 979 2281 1248 
Q 2445 1517 2522 1907 
Q 2355 1830 2144 1782 
Q 1933 1734 1709 1734 
Q 1331 1734 1068 1846 
Q 806 1958 640 2147 
Q 474 2336 400 2582 
Q 326 2829 326 3098 
Q 326 3334 409 3590 
Q 493 3846 662 4057 
Q 832 4269 1094 4403 
Q 1357 4538 1715 4538 
Q 2080 4538 2358 4410 
Q 2637 4282 2825 4038 
Q 3014 3795 3110 3446 
Q 3206 3098 3206 2662 
z
M 1773 2221 
Q 1997 2221 2195 2262 
Q 2394 2304 2579 2387 
Q 2586 2458 2586 2525 
Q 2586 2592 2586 2662 
Q 2586 2938 2547 3190 
Q 2509 3443 2409 3632 
Q 2310 3821 2144 3933 
Q 1978 4045 1722 4045 
Q 1510 4045 1363 3955 
Q 1216 3866 1120 3728 
Q 1024 3590 982 3427 
Q 941 3264 941 3110 
Q 941 2675 1149 2448 
Q 1357 2221 1773 2221 
z
" transform="scale(0.015625)"/>
       </defs>
       <use xlink:href="#Ubuntu-30"/>
       <use xlink:href="#Ubuntu-2e" x="56.399994"/>
       <use xlink:href="#Ubuntu-39" x="80.999985"/>
      </g>
     </g>
    </g>
    <g id="ytick_2">
     <g id="line2d_37">
      <g>
       <use xlink:href="#m961b899920" x="27.1925" y="172.781808" style="fill: #cecece; stroke: #cecece; stroke-width: 0.75"/>
      </g>
     </g>
     <g id="text_20">
      <!-- 1.0 -->
      <g style="fill: #808080" transform="translate(7.2 175.885558) scale(0.08 -0.08)">
       <use xlink:href="#Ubuntu-31"/>
       <use xlink:href="#Ubuntu-2e" x="56.399994"/>
       <use xlink:href="#Ubuntu-30" x="80.999985"/>
      </g>
     </g>
    </g>
    <g id="ytick_3">
     <g id="line2d_38">
      <g>
       <use xlink:href="#m961b899920" x="27.1925" y="142.102892" style="fill: #cecece; stroke: #cecece; stroke-width: 0.75"/>
      </g>
     </g>
     <g id="text_21">
      <!-- 1.1 -->
      <g style="fill: #808080" transform="translate(7.2 145.206642) scale(0.08 -0.08)">
       <use xlink:href="#Ubuntu-31"/>
       <use xlink:href="#Ubuntu-2e" x="56.399994"/>
       <use xlink:href="#Ubuntu-31" x="80.999985"/>
      </g>
     </g>
    </g>
    <g id="ytick_4">
     <g id="line2d_39">
      <g>
       <use xlink:href="#m961b899920" x="27.1925" y="111.423976" style="fill: #cecece; stroke: #cecece; stroke-width: 0.75"/>
      </g>
     </g>
     <g id="text_22">
      <!-- 1.2 -->
      <g style="fill: #808080" transform="translate(7.2 114.527726) scale(0.08 -0.08)">
       <use xlink:href="#Ubuntu-31"/>
       <use xlink:href="#Ubuntu-2e" x="56.399994"/>
       <use xlink:href="#Ubuntu-32" x="80.999985"/>
      </g>
     </g>
    </g>
    <g id="ytick_5">
     <g id="line2d_40">
      <g>
       <use xlink:href="#m961b899920" x="27.1925" y="80.74506" style="fill: #cecece; stroke: #cecece; stroke-width: 0.75"/>
      </g>
     </g>
     <g id="text_23">
      <!-- 1.3 -->
      <g style="fill: #808080" transform="translate(7.2 83.84881) scale(0.08 -0.08)">
       <use xlink:href="#Ubuntu-31"/>
       <use xlink:href="#Ubuntu-2e" x="56.399994"/>
       <use xlink:href="#Ubuntu-33" x="80.999985"/>
      </g>
     </g>
    </g>
    <g id="ytick_6">
     <g id="line2d_41">
      <g>
       <use xlink:href="#m961b899920" x="27.1925" y="50.066145" style="fill: #cecece; stroke: #cecece; stroke-width: 0.75"/>
      </g>
     </g>
     <g id="text_24">
      <!-- 1.4 -->
      <g style="fill: #808080" transform="translate(7.2 53.169895) scale(0.08 -0.08)">
       <use xlink:href="#Ubuntu-31"/>
       <use xlink:href="#Ubuntu-2e" x="56.399994"/>
       <use xlink:href="#Ubuntu-34" x="80.999985"/>
      </g>
     </g>
    </g>
   </g>
   <g id="line2d_42">
    <path d="M 32.1925 172.781808 
L 40.370984 172.010128 
L 46.913772 171.618713 
L 51.820862 171.518524 
L 56.727953 171.628069 
L 61.635043 171.986523 
L 66.542134 172.6295 
L 71.449224 173.590697 
L 76.356315 174.834916 
L 82.899102 176.545165 
L 87.806193 177.57477 
L 94.34898 178.627211 
L 102.527464 179.729623 
L 107.434555 180.156988 
L 110.705948 180.246541 
L 113.977342 180.154451 
L 118.884433 179.723304 
L 123.791523 179.010377 
L 127.062917 178.35263 
L 130.334311 177.431287 
L 133.605704 176.133845 
L 135.241401 175.308929 
L 138.512795 173.284928 
L 141.784188 170.880051 
L 148.326976 165.555209 
L 154.869763 160.355067 
L 161.412551 155.48323 
L 172.862428 147.227074 
L 177.769519 143.258941 
L 182.676609 138.915289 
L 187.5837 134.253748 
L 194.126487 127.945397 
L 197.397881 125.10678 
L 200.669275 122.701891 
L 203.940668 120.76837 
L 207.212062 119.154878 
L 223.569031 111.817757 
L 226.840424 110.657584 
L 230.111818 109.744793 
L 233.383212 109.043552 
L 238.290302 108.303316 
L 243.197393 107.860947 
L 246.468786 107.756794 
L 249.74018 107.835714 
L 253.011574 108.116407 
L 261.190058 108.980244 
L 264.461452 108.967623 
L 267.732845 108.591688 
L 272.639936 107.61249 
L 277.547026 106.570369 
L 285.725511 105.023563 
L 288.996904 104.103544 
L 292.268298 102.827345 
L 302.082479 98.505999 
L 305.353873 97.598814 
L 315.168054 95.454994 
L 318.439447 94.201269 
L 324.982235 91.308364 
L 328.253628 90.217783 
L 329.889325 89.871383 
L 333.160719 89.539621 
L 336.432113 89.544604 
L 352.789081 90.356128 
L 356.060475 90.721121 
L 359.331868 91.344538 
L 360.967565 91.797524 
L 362.603262 92.36848 
L 364.238959 93.075242 
L 365.874656 93.935647 
L 367.510353 94.967276 
L 369.146049 96.178839 
L 370.781746 97.568151 
L 372.417443 99.132355 
L 374.05314 100.868595 
L 377.324534 104.845756 
L 380.595927 109.475805 
L 383.867321 114.642249 
L 392.045805 128.003007 
L 395.317199 132.765629 
L 398.588593 136.996964 
L 401.859986 140.717743 
L 405.13138 143.948915 
L 408.402774 146.705034 
L 411.674167 148.966931 
L 413.309864 149.903088 
L 414.945561 150.70434 
L 416.581258 151.366901 
L 418.216955 151.88699 
L 419.852652 152.263856 
L 423.124045 152.645993 
L 426.395439 152.650259 
L 431.302529 152.256836 
L 434.573923 151.869792 
L 437.845317 151.243319 
L 439.481014 150.777534 
L 441.116711 150.176574 
L 442.752407 149.415336 
L 444.388104 148.468775 
L 446.023801 147.323484 
L 447.659498 145.991255 
L 449.295195 144.48718 
L 452.566588 141.023853 
L 455.837982 137.054229 
L 460.745073 130.478387 
L 464.016466 126.114016 
L 467.28786 122.183517 
L 468.923557 120.493204 
L 470.559254 119.044175 
L 472.194951 117.830759 
L 475.466344 115.876891 
L 480.373435 113.22267 
L 482.009132 112.170131 
L 483.644828 110.93714 
L 486.916222 107.990179 
L 493.45901 101.574313 
L 495.094706 100.155579 
L 496.730403 98.907231 
L 498.3661 97.834261 
L 500.001797 96.919827 
L 501.637494 96.146881 
L 504.908887 94.957263 
L 508.180281 94.129027 
L 513.087372 93.265933 
L 517.994462 92.448809 
L 521.265856 91.702298 
L 521.265856 91.702298 
" clip-path="url(#p06662f6d1f)" style="fill: none; stroke-dasharray: 5.55,2.4; stroke-dashoffset: 0; stroke: #5d5d5d; stroke-width: 1.5"/>
   </g>
   <g id="line2d_43">
    <path d="M 32.1925 172.781808 
L 35.551697 173.117195 
L 38.910895 173.153566 
L 42.270092 172.961473 
L 47.308888 172.399301 
L 55.706881 171.31954 
L 59.066079 171.042565 
L 64.104875 170.872128 
L 72.502868 170.685527 
L 77.541664 170.321673 
L 82.58046 169.686629 
L 87.619256 168.772671 
L 94.337651 167.548572 
L 97.696848 167.167903 
L 102.735644 166.955781 
L 109.454038 166.747976 
L 112.813236 166.435419 
L 117.852032 165.696005 
L 124.570426 164.437373 
L 129.609222 163.318525 
L 132.96842 162.38852 
L 136.327617 161.240098 
L 141.366413 159.136861 
L 149.764406 155.431612 
L 154.803202 153.314746 
L 158.1624 151.703288 
L 161.521597 149.746325 
L 166.560393 146.224266 
L 169.91959 143.978874 
L 171.599189 143.027149 
L 173.278788 142.251705 
L 174.958386 141.694425 
L 176.637985 141.340895 
L 179.997182 141.041534 
L 185.035978 140.841617 
L 186.715577 140.636047 
L 188.395176 140.282504 
L 190.074774 139.764963 
L 191.754373 139.074461 
L 193.433972 138.202034 
L 195.11357 137.138719 
L 196.793169 135.875553 
L 198.472768 134.403574 
L 200.152366 132.714132 
L 203.511564 128.753395 
L 206.870761 124.291297 
L 213.589156 115.211322 
L 216.948353 111.184408 
L 220.30755 107.713609 
L 221.987149 106.223716 
L 223.666747 104.917206 
L 225.346346 103.808864 
L 227.025945 102.906245 
L 228.705543 102.187984 
L 230.385142 101.625485 
L 233.744339 100.853386 
L 238.783135 100.148788 
L 245.50153 99.371445 
L 248.860727 99.15549 
L 252.219925 99.155473 
L 257.258721 99.529584 
L 263.977115 100.115742 
L 269.015911 100.20706 
L 277.413905 100.180975 
L 284.132299 100.515537 
L 289.171095 100.731019 
L 294.209891 100.677945 
L 319.403871 99.638028 
L 322.763069 99.2635 
L 326.122266 98.595525 
L 329.481463 97.522833 
L 332.840661 96.074493 
L 337.879457 93.742925 
L 341.238654 92.469421 
L 342.918253 92.00789 
L 346.27745 91.413376 
L 349.636647 91.136721 
L 356.355042 90.968286 
L 366.432634 90.851434 
L 371.47143 90.985557 
L 376.510226 91.380918 
L 379.869423 91.845231 
L 384.908219 92.86276 
L 396.66541 95.505177 
L 405.063403 96.954527 
L 413.461396 98.257034 
L 418.500192 98.763332 
L 423.538988 98.918531 
L 435.296179 98.773574 
L 440.334975 98.610888 
L 443.694172 98.31409 
L 447.05337 97.788277 
L 450.412567 97.057778 
L 455.451363 95.711401 
L 472.247349 90.950904 
L 480.645343 88.75953 
L 485.684139 87.198902 
L 495.761731 83.834799 
L 500.800527 82.472776 
L 524.314908 76.733186 
L 532.712901 74.309949 
L 534.3925 73.79575 
L 534.3925 73.79575 
" clip-path="url(#p06662f6d1f)" style="fill: none; stroke: #5d5d5d; stroke-opacity: 0.95; stroke-width: 1.25; stroke-linecap: square"/>
   </g>
   <g id="line2d_44">
    <path d="M 32.1925 172.781808 
L 37.231296 172.462036 
L 42.270092 171.91886 
L 54.027283 170.306952 
L 60.745677 169.517595 
L 72.502868 168.263909 
L 85.939657 166.498718 
L 92.658052 166.016863 
L 107.77444 165.134754 
L 112.813236 164.509151 
L 117.852032 163.632849 
L 124.570426 162.183843 
L 132.96842 160.113111 
L 139.686814 158.344433 
L 143.046012 157.293845 
L 146.405209 155.9922 
L 149.764406 154.336693 
L 153.123604 152.313271 
L 156.482801 149.99664 
L 161.521597 146.143772 
L 176.637985 134.120706 
L 181.676781 130.598732 
L 185.035978 128.460459 
L 193.433972 123.43704 
L 195.11357 122.211133 
L 196.793169 120.807071 
L 198.472768 119.179884 
L 200.152366 117.285206 
L 201.831965 115.114951 
L 205.191162 110.14512 
L 215.268754 93.995211 
L 218.627952 89.427528 
L 220.30755 87.438197 
L 221.987149 85.680498 
L 223.666747 84.180901 
L 225.346346 82.965873 
L 227.025945 82.049282 
L 228.705543 81.394583 
L 230.385142 80.95263 
L 232.064741 80.674275 
L 235.423938 80.411773 
L 238.783135 80.214331 
L 243.821931 79.60651 
L 248.860727 79.01402 
L 252.219925 78.895636 
L 255.579122 79.081246 
L 260.617918 79.695035 
L 267.336313 80.53589 
L 272.375109 80.95041 
L 279.093503 81.270506 
L 284.132299 81.276337 
L 287.491497 81.065396 
L 290.850694 80.613606 
L 299.248687 79.069804 
L 302.607885 78.841234 
L 305.967082 79.084798 
L 309.326279 79.642489 
L 314.365075 80.558521 
L 317.724273 80.898798 
L 321.08347 80.959502 
L 326.122266 80.73316 
L 334.520259 80.271292 
L 337.879457 80.259019 
L 341.238654 80.430939 
L 344.597851 80.81166 
L 352.995844 81.923146 
L 356.355042 82.086284 
L 361.393838 81.988633 
L 368.112232 81.829967 
L 371.47143 81.949891 
L 376.510226 82.389651 
L 381.549022 83.08071 
L 388.267416 84.081443 
L 391.626614 84.403361 
L 394.985811 84.489285 
L 403.383804 84.348179 
L 406.743002 84.594542 
L 410.102199 85.139455 
L 418.500192 86.737245 
L 421.85939 87.055466 
L 425.218587 87.162116 
L 431.936982 87.075136 
L 436.975778 86.924574 
L 440.334975 86.642628 
L 443.694172 86.082672 
L 447.05337 85.152024 
L 450.412567 83.898325 
L 455.451363 81.641551 
L 467.208554 75.927123 
L 475.606547 71.550376 
L 489.043336 64.441552 
L 494.082132 61.989689 
L 499.120928 59.769747 
L 504.159724 57.822603 
L 509.19852 56.168342 
L 517.596513 53.848056 
L 522.635309 52.317133 
L 525.994507 51.074173 
L 529.353704 49.561201 
L 532.712901 47.699243 
L 534.3925 46.612714 
L 534.3925 46.612714 
" clip-path="url(#p06662f6d1f)" style="fill: none; stroke: #af5a51; stroke-opacity: 0.95; stroke-width: 1.25; stroke-linecap: square"/>
   </g>
   <g id="line2d_45">
    <path d="M 32.1925 172.781808 
L 38.910895 171.536981 
L 48.988487 169.577014 
L 54.027283 168.812075 
L 57.38648 168.462232 
L 62.425276 168.219905 
L 72.502868 167.927283 
L 89.298855 166.775533 
L 109.454038 166.240791 
L 114.492834 165.749887 
L 121.211229 164.832404 
L 131.288821 163.165495 
L 141.366413 161.297507 
L 144.72561 160.468321 
L 148.084808 159.40105 
L 151.444005 158.055801 
L 159.841998 154.449825 
L 163.201196 153.351187 
L 168.239992 151.874134 
L 169.91959 151.269868 
L 171.599189 150.543515 
L 173.278788 149.655397 
L 174.958386 148.57071 
L 178.317584 145.935526 
L 183.35638 141.700085 
L 185.035978 140.448866 
L 186.715577 139.376266 
L 188.395176 138.51799 
L 191.754373 137.191299 
L 195.11357 135.846127 
L 196.793169 134.964751 
L 198.472768 133.836522 
L 200.152366 132.381663 
L 201.831965 130.578404 
L 203.511564 128.494892 
L 206.870761 123.790624 
L 211.909557 116.529301 
L 213.589156 114.352717 
L 216.948353 110.522185 
L 220.30755 107.218937 
L 225.346346 102.803225 
L 230.385142 98.61255 
L 233.744339 96.069551 
L 237.103537 93.890851 
L 238.783135 92.981827 
L 240.462734 92.208639 
L 242.142333 91.569327 
L 243.821931 91.060921 
L 245.50153 90.68045 
L 247.181129 90.424942 
L 248.860727 90.291426 
L 250.540326 90.276932 
L 253.899523 90.570682 
L 262.297517 91.822316 
L 263.977115 91.904963 
L 267.336313 91.723082 
L 270.69551 91.223637 
L 277.413905 90.092596 
L 280.773102 89.811801 
L 284.132299 89.770095 
L 287.491497 89.94632 
L 290.850694 90.318746 
L 302.607885 92.002821 
L 305.967082 92.156815 
L 309.326279 92.109461 
L 314.365075 91.771866 
L 321.08347 91.03561 
L 326.122266 90.251613 
L 331.161062 89.19896 
L 337.879457 87.476444 
L 346.27745 85.294041 
L 351.316246 84.241514 
L 354.675443 83.744754 
L 358.03464 83.443361 
L 363.073436 83.280895 
L 369.791831 83.381672 
L 378.189824 83.52148 
L 383.22862 83.362329 
L 389.947015 83.087507 
L 393.306212 83.129294 
L 396.66541 83.374287 
L 401.704206 84.023757 
L 411.781798 85.690206 
L 426.898186 88.296228 
L 430.257383 88.550889 
L 433.61658 88.487498 
L 436.975778 88.156379 
L 445.373771 87.088733 
L 452.092166 86.654904 
L 457.130962 86.234364 
L 460.490159 85.731489 
L 463.849356 85.002369 
L 467.208554 84.026565 
L 470.567751 82.783818 
L 480.645343 78.486684 
L 482.324941 77.958081 
L 484.00454 77.552069 
L 487.363737 77.085598 
L 490.722935 76.958276 
L 497.441329 77.134945 
L 502.480125 77.130265 
L 505.839323 76.869617 
L 509.19852 76.289734 
L 512.557717 75.354647 
L 517.596513 73.541703 
L 524.314908 71.073486 
L 527.674105 70.123951 
L 531.033303 69.545708 
L 532.712901 69.438378 
L 534.3925 69.474939 
L 534.3925 69.474939 
" clip-path="url(#p06662f6d1f)" style="fill: none; stroke: #608eb4; stroke-width: 1.25; stroke-linecap: square"/>
   </g>
   <g id="line2d_46">
    <path d="M 32.1925 172.781808 
L 35.551697 172.702451 
L 40.590493 172.288116 
L 54.027283 170.899458 
L 57.38648 170.817043 
L 60.745677 170.94315 
L 69.143671 171.506377 
L 72.502868 171.479577 
L 75.862065 171.217431 
L 80.900861 170.559668 
L 90.978453 169.176341 
L 111.133637 166.761177 
L 117.852032 165.934595 
L 122.890828 165.049829 
L 126.250025 164.248521 
L 129.609222 163.262495 
L 132.96842 162.086983 
L 136.327617 160.717628 
L 141.366413 158.355646 
L 159.841998 148.992986 
L 168.239992 144.669874 
L 171.599189 143.246719 
L 174.958386 142.212845 
L 178.317584 141.562793 
L 185.035978 140.45682 
L 186.715577 140.035485 
L 188.395176 139.495764 
L 190.074774 138.821281 
L 191.754373 137.998737 
L 193.433972 137.014835 
L 195.11357 135.856276 
L 196.793169 134.50976 
L 198.472768 132.961991 
L 200.152366 131.200012 
L 203.511564 127.095985 
L 206.870761 122.493508 
L 213.589156 113.146552 
L 216.948353 108.974112 
L 220.30755 105.290769 
L 223.666747 102.159658 
L 225.346346 100.820919 
L 227.025945 99.640619 
L 228.705543 98.610169 
L 230.385142 97.717688 
L 233.744339 96.299096 
L 237.103537 95.289778 
L 240.462734 94.599756 
L 243.821931 94.198138 
L 247.181129 94.092161 
L 250.540326 94.289694 
L 253.899523 94.786501 
L 258.938319 95.897267 
L 265.656714 97.445545 
L 270.69551 98.283461 
L 274.054707 98.651748 
L 277.413905 98.858971 
L 282.452701 98.925476 
L 289.171095 98.999814 
L 294.209891 99.35203 
L 299.248687 99.735418 
L 302.607885 99.808147 
L 305.967082 99.639404 
L 314.365075 98.947799 
L 317.724273 98.943024 
L 322.763069 99.275046 
L 327.801865 99.636279 
L 331.161062 99.700199 
L 336.199858 99.544893 
L 352.995844 98.647136 
L 359.714239 97.867426 
L 363.073436 97.547676 
L 366.432634 97.465916 
L 369.791831 97.73683 
L 373.151028 98.28191 
L 381.549022 99.816832 
L 393.306212 101.372136 
L 398.345008 102.512272 
L 403.383804 103.678902 
L 406.743002 104.251778 
L 410.102199 104.598882 
L 421.85939 105.542284 
L 431.936982 106.753531 
L 435.296179 106.923682 
L 438.655376 106.92167 
L 442.014574 106.746474 
L 445.373771 106.397457 
L 450.412567 105.608079 
L 468.888152 102.226185 
L 473.926948 100.936586 
L 478.965744 99.39165 
L 499.120928 92.91074 
L 504.159724 91.565305 
L 507.518921 90.883159 
L 510.878119 90.434242 
L 517.596513 89.934884 
L 520.955711 89.627188 
L 524.314908 89.108531 
L 527.674105 88.249699 
L 529.353704 87.652338 
L 531.033303 86.921478 
L 532.712901 86.040968 
L 534.3925 84.994655 
L 534.3925 84.994655 
" clip-path="url(#p06662f6d1f)" style="fill: none; stroke: #489079; stroke-width: 1.25; stroke-linecap: square"/>
   </g>
   <g id="line2d_47">
    <path d="M 32.1925 172.781808 
L 35.551697 171.785675 
L 38.910895 171.1042 
L 42.270092 170.658859 
L 47.308888 170.261832 
L 55.706881 169.668387 
L 59.066079 169.22693 
L 64.104875 168.272114 
L 70.823269 166.912405 
L 75.862065 166.157661 
L 82.58046 165.438575 
L 122.890828 161.518902 
L 126.250025 160.889348 
L 129.609222 160.097903 
L 134.648018 158.629621 
L 139.686814 156.876213 
L 149.764406 153.257923 
L 156.482801 151.195316 
L 169.91959 147.332535 
L 173.278788 146.676969 
L 176.637985 146.311119 
L 179.997182 146.177326 
L 190.074774 146.018235 
L 191.754373 145.818662 
L 193.433972 145.484212 
L 195.11357 144.978609 
L 196.793169 144.265576 
L 198.472768 143.308835 
L 200.152366 142.072557 
L 201.831965 140.54771 
L 203.511564 138.766796 
L 205.191162 136.765891 
L 208.55036 132.248417 
L 213.589156 124.723862 
L 218.627952 117.114006 
L 221.987149 112.394259 
L 225.346346 108.232489 
L 227.025945 106.428269 
L 228.705543 104.814278 
L 230.385142 103.382281 
L 232.064741 102.124042 
L 233.744339 101.031326 
L 235.423938 100.095899 
L 237.103537 99.309526 
L 238.783135 98.663929 
L 242.142333 97.747359 
L 245.50153 97.229018 
L 248.860727 96.986261 
L 253.899523 96.879522 
L 269.015911 96.78663 
L 272.375109 96.5766 
L 275.734306 96.190828 
L 279.093503 95.587008 
L 287.491497 93.864709 
L 290.850694 93.531122 
L 294.209891 93.512225 
L 300.928286 93.651393 
L 304.287483 93.406297 
L 307.646681 92.875781 
L 314.365075 91.678258 
L 317.724273 91.366886 
L 322.763069 91.278161 
L 327.801865 91.203619 
L 331.161062 90.925121 
L 334.520259 90.367386 
L 337.879457 89.483275 
L 341.238654 88.225727 
L 344.597851 86.615798 
L 347.957048 84.947003 
L 351.316246 83.580976 
L 352.995844 83.124509 
L 354.675443 82.87874 
L 356.355042 82.85189 
L 358.03464 82.995795 
L 361.393838 83.583822 
L 364.753035 84.218718 
L 366.432634 84.421209 
L 368.112232 84.480938 
L 371.47143 84.224431 
L 378.189824 83.303156 
L 379.869423 83.216982 
L 381.549022 83.256447 
L 384.908219 83.64685 
L 389.947015 84.646462 
L 393.306212 85.305409 
L 396.66541 85.789835 
L 400.024607 86.106109 
L 405.063403 86.326075 
L 416.820594 86.499366 
L 420.179791 86.817808 
L 430.257383 88.178541 
L 433.61658 88.3078 
L 436.975778 88.194524 
L 453.771764 87.073416 
L 463.849356 86.918879 
L 468.888152 86.754288 
L 473.926948 86.35351 
L 484.00454 85.158556 
L 494.082132 83.903989 
L 499.120928 83.017033 
L 502.480125 82.21057 
L 505.839323 81.152217 
L 509.19852 79.773516 
L 512.557717 78.069458 
L 522.635309 72.604119 
L 525.994507 71.244403 
L 527.674105 70.749022 
L 529.353704 70.405613 
L 531.033303 70.235919 
L 532.712901 70.261683 
L 534.3925 70.504646 
L 534.3925 70.504646 
" clip-path="url(#p06662f6d1f)" style="fill: none; stroke: #eea92b; stroke-opacity: 0.95; stroke-width: 1.25; stroke-linecap: square"/>
   </g>
   <g id="line2d_48">
    <path d="M 32.1925 172.781808 
L 42.270092 171.85486 
L 50.668085 171.333575 
L 57.38648 171.133748 
L 92.658052 170.750369 
L 96.017249 170.508118 
L 99.376446 170.023815 
L 109.454038 168.238223 
L 112.813236 167.981896 
L 121.211229 167.577294 
L 124.570426 167.098929 
L 127.929624 166.35654 
L 132.96842 164.930823 
L 146.405209 160.688623 
L 153.123604 158.322614 
L 164.880794 153.858166 
L 168.239992 152.431555 
L 171.599189 150.778429 
L 174.958386 148.79612 
L 179.997182 145.317586 
L 183.35638 142.989982 
L 186.715577 140.931506 
L 190.074774 139.272728 
L 195.11357 136.859026 
L 196.793169 135.874612 
L 198.472768 134.717065 
L 200.152366 133.337069 
L 201.831965 131.722026 
L 205.191162 127.968913 
L 213.589156 117.828902 
L 216.948353 114.360234 
L 220.30755 111.403263 
L 223.666747 108.979167 
L 225.346346 107.973565 
L 227.025945 107.106341 
L 230.385142 105.73921 
L 233.744339 104.768222 
L 237.103537 104.081046 
L 242.142333 103.377022 
L 245.50153 103.125856 
L 248.860727 103.095411 
L 252.219925 103.324672 
L 255.579122 103.791246 
L 265.656714 105.410112 
L 269.015911 105.687655 
L 274.054707 105.843322 
L 280.773102 105.740838 
L 290.850694 105.533025 
L 297.569089 105.687998 
L 309.326279 106.085611 
L 312.685477 106.01943 
L 316.044674 105.763205 
L 326.122266 104.538949 
L 329.481463 104.568034 
L 332.840661 104.971524 
L 341.238654 106.29176 
L 344.597851 106.439985 
L 349.636647 106.31402 
L 354.675443 106.21637 
L 359.714239 106.43736 
L 364.753035 106.658172 
L 368.112232 106.595773 
L 373.151028 106.145439 
L 378.189824 105.684047 
L 381.549022 105.611414 
L 384.908219 105.799237 
L 388.267416 106.202067 
L 393.306212 107.101046 
L 405.063403 109.505117 
L 410.102199 110.140058 
L 418.500192 111.047831 
L 428.577784 112.527338 
L 431.936982 112.605623 
L 435.296179 112.3103 
L 442.014574 111.421742 
L 445.373771 111.294358 
L 448.732968 111.507554 
L 453.771764 111.964779 
L 457.130962 111.997236 
L 460.490159 111.595957 
L 463.849356 110.888028 
L 470.567751 109.361657 
L 473.926948 108.86425 
L 485.684139 107.417975 
L 494.082132 105.953016 
L 497.441329 105.580646 
L 502.480125 105.304434 
L 507.518921 105.027455 
L 510.878119 104.65774 
L 515.916915 103.798305 
L 529.353704 101.12434 
L 532.712901 100.6908 
L 534.3925 100.550116 
L 534.3925 100.550116 
" clip-path="url(#p06662f6d1f)" style="fill: none; stroke: #676391; stroke-width: 1.25; stroke-linecap: square"/>
   </g>
   <g id="patch_4">
    <path d="M 27.1925 203.460724 
L 27.1925 50.066145 
" style="fill: none; stroke: #cccccc; stroke-width: 0.75; stroke-linejoin: miter; stroke-linecap: square"/>
   </g>
   <g id="patch_5">
    <path d="M 32.1925 213.196719 
L 534.3925 213.196719 
" style="fill: none; stroke: #cccccc; stroke-width: 0.75; stroke-linejoin: miter; stroke-linecap: square"/>
   </g>
   <g id="legend_1">
    <g id="line2d_49">
     <path d="M 40.2925 14.633438 
L 46.3675 14.633438 
L 52.4425 14.633438 
" style="fill: none; stroke-dasharray: 5.55,2.4; stroke-dashoffset: 0; stroke: #5d5d5d; stroke-width: 1.5"/>
    </g>
    <g id="text_25">
     <!-- Сырое молоко -->
     <g style="fill: #4b4b4b" transform="translate(59.6425 17.783438) scale(0.09 -0.09)">
      <defs>
       <path id="Ubuntu-421" d="M 2458 -96 
Q 1990 -96 1606 57 
Q 1222 211 947 505 
Q 672 800 521 1232 
Q 371 1664 371 2221 
Q 371 2778 540 3210 
Q 710 3642 998 3936 
Q 1286 4230 1670 4384 
Q 2054 4538 2490 4538 
Q 2765 4538 2985 4499 
Q 3206 4461 3369 4409 
Q 3533 4358 3635 4307 
Q 3738 4256 3776 4230 
L 3597 3718 
Q 3539 3757 3430 3801 
Q 3322 3846 3184 3891 
Q 3046 3936 2883 3965 
Q 2720 3994 2554 3994 
Q 2202 3994 1920 3872 
Q 1638 3750 1440 3520 
Q 1242 3290 1136 2960 
Q 1030 2630 1030 2221 
Q 1030 1824 1123 1497 
Q 1216 1171 1401 937 
Q 1587 704 1865 576 
Q 2144 448 2515 448 
Q 2944 448 3225 537 
Q 3507 627 3648 698 
L 3808 186 
Q 3763 154 3648 106 
Q 3533 58 3360 13 
Q 3187 -32 2956 -64 
Q 2726 -96 2458 -96 
z
" transform="scale(0.015625)"/>
       <path id="Ubuntu-44b" d="M 1734 1645 
Q 1562 1645 1398 1635 
Q 1235 1626 1107 1594 
L 1107 448 
Q 1146 442 1219 435 
Q 1293 429 1379 425 
Q 1466 422 1555 419 
Q 1645 416 1715 416 
Q 2106 416 2317 563 
Q 2528 710 2528 1037 
Q 2528 1197 2461 1312 
Q 2394 1427 2282 1500 
Q 2170 1574 2029 1609 
Q 1888 1645 1734 1645 
z
M 512 3328 
L 1107 3328 
L 1107 2054 
Q 1216 2080 1424 2105 
Q 1632 2131 1824 2131 
Q 2086 2131 2323 2070 
Q 2560 2010 2739 1878 
Q 2918 1747 3024 1539 
Q 3130 1331 3130 1043 
Q 3130 742 3027 531 
Q 2925 320 2739 185 
Q 2554 51 2291 -9 
Q 2029 -70 1715 -70 
Q 1414 -70 1107 -35 
Q 800 0 512 70 
L 512 3328 
z
M 4339 0 
L 3744 0 
L 3744 3328 
L 4339 3328 
L 4339 0 
z
" transform="scale(0.015625)"/>
       <path id="Ubuntu-43e" d="M 3450 1664 
Q 3450 1267 3334 947 
Q 3219 627 3011 396 
Q 2803 166 2515 41 
Q 2227 -83 1888 -83 
Q 1549 -83 1261 41 
Q 973 166 765 396 
Q 557 627 441 947 
Q 326 1267 326 1664 
Q 326 2054 441 2377 
Q 557 2701 765 2931 
Q 973 3162 1261 3286 
Q 1549 3411 1888 3411 
Q 2227 3411 2515 3286 
Q 2803 3162 3011 2931 
Q 3219 2701 3334 2377 
Q 3450 2054 3450 1664 
z
M 2829 1664 
Q 2829 2227 2576 2556 
Q 2323 2886 1888 2886 
Q 1453 2886 1200 2556 
Q 947 2227 947 1664 
Q 947 1101 1200 771 
Q 1453 442 1888 442 
Q 2323 442 2576 771 
Q 2829 1101 2829 1664 
z
" transform="scale(0.015625)"/>
       <path id="Ubuntu-435" d="M 326 1658 
Q 326 2099 454 2428 
Q 582 2758 793 2976 
Q 1005 3194 1280 3302 
Q 1555 3411 1843 3411 
Q 2515 3411 2873 2992 
Q 3232 2573 3232 1715 
Q 3232 1677 3232 1616 
Q 3232 1555 3226 1504 
L 947 1504 
Q 986 986 1248 717 
Q 1510 448 2067 448 
Q 2381 448 2595 502 
Q 2810 557 2918 608 
L 3002 109 
Q 2893 51 2621 -13 
Q 2349 -77 2003 -77 
Q 1568 -77 1251 54 
Q 934 186 729 416 
Q 525 646 425 963 
Q 326 1280 326 1658 
z
M 2611 1984 
Q 2618 2387 2410 2646 
Q 2202 2906 1837 2906 
Q 1632 2906 1475 2826 
Q 1318 2746 1209 2618 
Q 1101 2490 1040 2323 
Q 979 2157 960 1984 
L 2611 1984 
z
" transform="scale(0.015625)"/>
       <path id="Ubuntu-20" transform="scale(0.015625)"/>
       <path id="Ubuntu-43c" d="M 1146 2451 
Q 1082 1818 1050 1187 
Q 1018 557 998 0 
L 429 0 
Q 442 390 467 816 
Q 493 1242 525 1674 
Q 557 2106 595 2525 
Q 634 2944 678 3328 
L 1222 3328 
Q 1427 2995 1702 2416 
Q 1978 1837 2336 1082 
Q 2694 1837 2969 2416 
Q 3245 2995 3450 3328 
L 4000 3328 
Q 4045 2944 4083 2525 
Q 4122 2106 4154 1674 
Q 4186 1242 4211 816 
Q 4237 390 4250 0 
L 3661 0 
Q 3642 557 3610 1187 
Q 3578 1818 3514 2451 
Q 3411 2253 3276 1974 
Q 3142 1696 3011 1408 
Q 2880 1120 2765 857 
Q 2650 595 2586 442 
L 2086 442 
Q 2016 602 1897 864 
Q 1779 1126 1648 1417 
Q 1517 1709 1382 1987 
Q 1248 2266 1146 2451 
z
" transform="scale(0.015625)"/>
      </defs>
      <use xlink:href="#Ubuntu-421"/>
      <use xlink:href="#Ubuntu-44b" x="61.999985"/>
      <use xlink:href="#Ubuntu-440" x="137.799973"/>
      <use xlink:href="#Ubuntu-43e" x="196.699966"/>
      <use xlink:href="#Ubuntu-435" x="255.699951"/>
      <use xlink:href="#Ubuntu-20" x="311.599945"/>
      <use xlink:href="#Ubuntu-43c" x="334.699936"/>
      <use xlink:href="#Ubuntu-43e" x="407.799927"/>
      <use xlink:href="#Ubuntu-43b" x="466.799911"/>
      <use xlink:href="#Ubuntu-43e" x="526.599899"/>
      <use xlink:href="#Ubuntu-43a" x="585.599884"/>
      <use xlink:href="#Ubuntu-43e" x="636.424881"/>
     </g>
    </g>
    <g id="line2d_50">
     <path d="M 40.2925 27.781875 
L 46.3675 27.781875 
L 52.4425 27.781875 
" style="fill: none; stroke: #5d5d5d; stroke-opacity: 0.95; stroke-width: 1.25; stroke-linecap: square"/>
    </g>
    <g id="text_26">
     <!-- Пастеризованное молоко -->
     <g style="fill: #4b4b4b" transform="translate(59.6425 30.931875) scale(0.09 -0.09)">
      <defs>
       <path id="Ubuntu-41f" d="M 3923 4435 
L 3923 0 
L 3302 0 
L 3302 3904 
L 1171 3904 
L 1171 0 
L 550 0 
L 550 4435 
L 3923 4435 
z
" transform="scale(0.015625)"/>
       <path id="Ubuntu-430" d="M 1638 429 
Q 1850 429 2013 438 
Q 2176 448 2285 474 
L 2285 1466 
Q 2221 1498 2077 1520 
Q 1933 1542 1728 1542 
Q 1594 1542 1443 1523 
Q 1293 1504 1168 1443 
Q 1043 1382 960 1276 
Q 877 1171 877 998 
Q 877 678 1081 553 
Q 1286 429 1638 429 
z
M 1587 3411 
Q 1946 3411 2192 3318 
Q 2438 3226 2588 3056 
Q 2739 2886 2803 2652 
Q 2867 2419 2867 2138 
L 2867 58 
Q 2790 45 2652 22 
Q 2515 0 2342 -19 
Q 2170 -38 1968 -54 
Q 1766 -70 1568 -70 
Q 1286 -70 1049 -12 
Q 813 45 640 169 
Q 467 294 371 499 
Q 275 704 275 992 
Q 275 1267 387 1465 
Q 499 1664 691 1785 
Q 883 1907 1139 1964 
Q 1395 2022 1677 2022 
Q 1766 2022 1862 2012 
Q 1958 2003 2044 1987 
Q 2131 1971 2195 1958 
Q 2259 1946 2285 1939 
L 2285 2106 
Q 2285 2253 2253 2397 
Q 2221 2541 2137 2653 
Q 2054 2765 1910 2832 
Q 1766 2899 1536 2899 
Q 1242 2899 1021 2857 
Q 800 2816 691 2771 
L 621 3264 
Q 736 3315 1005 3363 
Q 1274 3411 1587 3411 
z
" transform="scale(0.015625)"/>
       <path id="Ubuntu-441" d="M 1958 -77 
Q 1555 -77 1251 51 
Q 947 179 739 409 
Q 531 640 428 957 
Q 326 1274 326 1658 
Q 326 2042 438 2362 
Q 550 2682 755 2915 
Q 960 3149 1257 3280 
Q 1555 3411 1920 3411 
Q 2144 3411 2368 3372 
Q 2592 3334 2797 3251 
L 2662 2746 
Q 2528 2810 2352 2848 
Q 2176 2886 1978 2886 
Q 1478 2886 1212 2572 
Q 947 2259 947 1658 
Q 947 1389 1008 1165 
Q 1069 941 1200 781 
Q 1331 621 1536 534 
Q 1741 448 2035 448 
Q 2272 448 2464 493 
Q 2656 538 2765 589 
L 2848 90 
Q 2797 58 2701 29 
Q 2605 0 2483 -22 
Q 2362 -45 2224 -61 
Q 2086 -77 1958 -77 
z
" transform="scale(0.015625)"/>
       <path id="Ubuntu-438" d="M 3309 3328 
L 3309 0 
L 2733 0 
L 2733 2534 
Q 2541 2291 2310 1964 
Q 2080 1638 1849 1289 
Q 1619 941 1408 601 
Q 1197 262 1043 0 
L 512 0 
L 512 3328 
L 1088 3328 
L 1088 934 
Q 1254 1210 1465 1539 
Q 1677 1869 1904 2192 
Q 2131 2515 2358 2812 
Q 2586 3110 2784 3328 
L 3309 3328 
z
" transform="scale(0.015625)"/>
       <path id="Ubuntu-437" d="M 1357 3411 
Q 1645 3411 1894 3353 
Q 2144 3296 2323 3181 
Q 2502 3066 2604 2893 
Q 2707 2720 2707 2490 
Q 2707 2342 2656 2220 
Q 2605 2099 2528 2003 
Q 2451 1907 2358 1840 
Q 2266 1773 2182 1747 
Q 2477 1658 2646 1430 
Q 2816 1203 2816 858 
Q 2816 384 2432 153 
Q 2048 -77 1389 -77 
Q 986 -77 694 -13 
Q 403 51 282 109 
L 384 614 
Q 486 576 752 509 
Q 1018 442 1389 442 
Q 1792 442 2003 566 
Q 2214 691 2214 941 
Q 2214 1120 2134 1232 
Q 2054 1344 1932 1401 
Q 1811 1459 1670 1478 
Q 1530 1498 1408 1498 
L 851 1498 
L 851 1971 
L 1389 1971 
Q 1504 1971 1629 1987 
Q 1754 2003 1859 2054 
Q 1965 2106 2035 2198 
Q 2106 2291 2106 2445 
Q 2106 2566 2045 2652 
Q 1984 2739 1881 2796 
Q 1779 2854 1641 2883 
Q 1504 2912 1357 2912 
Q 1242 2912 1107 2893 
Q 973 2874 845 2845 
Q 717 2816 614 2784 
Q 512 2752 467 2726 
L 358 3238 
Q 410 3258 518 3290 
Q 627 3322 764 3347 
Q 902 3373 1056 3392 
Q 1210 3411 1357 3411 
z
" transform="scale(0.015625)"/>
      </defs>
      <use xlink:href="#Ubuntu-41f"/>
      <use xlink:href="#Ubuntu-430" x="69.899994"/>
      <use xlink:href="#Ubuntu-441" x="122.099991"/>
      <use xlink:href="#Ubuntu-442" x="170.099976"/>
      <use xlink:href="#Ubuntu-435" x="216.399963"/>
      <use xlink:href="#Ubuntu-440" x="272.299957"/>
      <use xlink:href="#Ubuntu-438" x="331.199951"/>
      <use xlink:href="#Ubuntu-437" x="390.899948"/>
      <use xlink:href="#Ubuntu-43e" x="439.799942"/>
      <use xlink:href="#Ubuntu-432" x="498.799927"/>
      <use xlink:href="#Ubuntu-430" x="553.599915"/>
      <use xlink:href="#Ubuntu-43d" x="605.799911"/>
      <use xlink:href="#Ubuntu-43d" x="664.399902"/>
      <use xlink:href="#Ubuntu-43e" x="722.999893"/>
      <use xlink:href="#Ubuntu-435" x="781.999878"/>
      <use xlink:href="#Ubuntu-20" x="837.899872"/>
      <use xlink:href="#Ubuntu-43c" x="860.999863"/>
      <use xlink:href="#Ubuntu-43e" x="934.099854"/>
      <use xlink:href="#Ubuntu-43b" x="993.099838"/>
      <use xlink:href="#Ubuntu-43e" x="1052.899826"/>
      <use xlink:href="#Ubuntu-43a" x="1111.899811"/>
      <use xlink:href="#Ubuntu-43e" x="1162.724808"/>
     </g>
    </g>
    <g id="line2d_51">
     <path d="M 187.598594 14.633438 
L 193.673594 14.633438 
L 199.748594 14.633438 
" style="fill: none; stroke: #af5a51; stroke-opacity: 0.95; stroke-width: 1.25; stroke-linecap: square"/>
    </g>
    <g id="text_27">
     <!-- Масло сливочное -->
     <g style="fill: #4b4b4b" transform="translate(206.948594 17.783438) scale(0.09 -0.09)">
      <defs>
       <path id="Ubuntu-41c" d="M 2541 614 
Q 2477 768 2371 1005 
Q 2266 1242 2144 1517 
Q 2022 1792 1884 2083 
Q 1747 2374 1625 2633 
Q 1504 2893 1398 3097 
Q 1293 3302 1229 3411 
Q 1158 2656 1113 1776 
Q 1069 896 1037 0 
L 429 0 
Q 454 576 486 1161 
Q 518 1747 560 2313 
Q 602 2880 650 3417 
Q 698 3955 755 4435 
L 1299 4435 
Q 1472 4154 1670 3770 
Q 1869 3386 2067 2966 
Q 2266 2547 2451 2128 
Q 2637 1709 2790 1363 
Q 2944 1709 3129 2128 
Q 3315 2547 3513 2966 
Q 3712 3386 3910 3770 
Q 4109 4154 4282 4435 
L 4826 4435 
Q 5043 2291 5152 0 
L 4544 0 
Q 4512 896 4467 1776 
Q 4422 2656 4352 3411 
Q 4288 3302 4182 3097 
Q 4077 2893 3955 2633 
Q 3834 2374 3696 2083 
Q 3558 1792 3436 1517 
Q 3315 1242 3209 1005 
Q 3104 768 3040 614 
L 2541 614 
z
" transform="scale(0.015625)"/>
       <path id="Ubuntu-447" d="M 890 3328 
L 890 2349 
Q 890 1971 1082 1820 
Q 1274 1670 1606 1670 
Q 1850 1670 2013 1696 
Q 2176 1722 2304 1754 
L 2304 3328 
L 2899 3328 
L 2899 0 
L 2304 0 
L 2304 1293 
Q 2253 1280 2169 1261 
Q 2086 1242 1980 1226 
Q 1875 1210 1760 1197 
Q 1645 1184 1536 1184 
Q 1261 1184 1033 1241 
Q 806 1299 643 1433 
Q 480 1568 387 1789 
Q 294 2010 294 2342 
L 294 3328 
L 890 3328 
z
" transform="scale(0.015625)"/>
      </defs>
      <use xlink:href="#Ubuntu-41c"/>
      <use xlink:href="#Ubuntu-430" x="87.099991"/>
      <use xlink:href="#Ubuntu-441" x="139.299988"/>
      <use xlink:href="#Ubuntu-43b" x="187.674973"/>
      <use xlink:href="#Ubuntu-43e" x="247.47496"/>
      <use xlink:href="#Ubuntu-20" x="306.474945"/>
      <use xlink:href="#Ubuntu-441" x="329.574936"/>
      <use xlink:href="#Ubuntu-43b" x="377.949921"/>
      <use xlink:href="#Ubuntu-438" x="437.749908"/>
      <use xlink:href="#Ubuntu-432" x="497.449905"/>
      <use xlink:href="#Ubuntu-43e" x="552.249893"/>
      <use xlink:href="#Ubuntu-447" x="611.249878"/>
      <use xlink:href="#Ubuntu-43d" x="664.549866"/>
      <use xlink:href="#Ubuntu-43e" x="723.149857"/>
      <use xlink:href="#Ubuntu-435" x="782.149841"/>
     </g>
    </g>
    <g id="line2d_52">
     <path d="M 187.598594 27.781875 
L 193.673594 27.781875 
L 199.748594 27.781875 
" style="fill: none; stroke: #608eb4; stroke-width: 1.25; stroke-linecap: square"/>
    </g>
    <g id="text_28">
     <!-- Сыр -->
     <g style="fill: #4b4b4b" transform="translate(206.948594 30.931875) scale(0.09 -0.09)">
      <use xlink:href="#Ubuntu-421"/>
      <use xlink:href="#Ubuntu-44b" x="61.999985"/>
      <use xlink:href="#Ubuntu-440" x="137.799973"/>
     </g>
    </g>
    <g id="line2d_53">
     <path d="M 300.371406 14.633438 
L 306.446406 14.633438 
L 312.521406 14.633438 
" style="fill: none; stroke: #489079; stroke-width: 1.25; stroke-linecap: square"/>
    </g>
    <g id="text_29">
     <!-- Сметана -->
     <g style="fill: #4b4b4b" transform="translate(319.721406 17.783438) scale(0.09 -0.09)">
      <use xlink:href="#Ubuntu-421"/>
      <use xlink:href="#Ubuntu-43c" x="61.999985"/>
      <use xlink:href="#Ubuntu-435" x="135.099976"/>
      <use xlink:href="#Ubuntu-442" x="190.999969"/>
      <use xlink:href="#Ubuntu-430" x="237.299957"/>
      <use xlink:href="#Ubuntu-43d" x="289.499954"/>
      <use xlink:href="#Ubuntu-430" x="348.099945"/>
     </g>
    </g>
    <g id="line2d_54">
     <path d="M 300.371406 28.935 
L 306.446406 28.935 
L 312.521406 28.935 
" style="fill: none; stroke: #eea92b; stroke-opacity: 0.95; stroke-width: 1.25; stroke-linecap: square"/>
    </g>
    <g id="text_30">
     <!-- Йогрут -->
     <g style="fill: #4b4b4b" transform="translate(319.721406 32.085) scale(0.09 -0.09)">
      <defs>
       <path id="Ubuntu-419" d="M 550 0 
L 550 4435 
L 1158 4435 
L 1158 1152 
Q 1363 1491 1660 1926 
Q 1958 2362 2294 2813 
Q 2630 3264 2972 3689 
Q 3315 4115 3616 4435 
L 4109 4435 
L 4109 0 
L 3501 0 
L 3501 3462 
Q 3322 3258 3110 2989 
Q 2899 2720 2675 2416 
Q 2451 2112 2224 1785 
Q 1997 1459 1785 1142 
Q 1574 826 1392 531 
Q 1210 237 1069 0 
L 550 0 
z
M 2333 4890 
Q 1930 4890 1677 5094 
Q 1424 5299 1373 5664 
L 1827 5786 
Q 1878 5581 2000 5453 
Q 2122 5325 2333 5325 
Q 2544 5325 2665 5453 
Q 2787 5581 2838 5786 
L 3286 5664 
Q 3235 5299 2985 5094 
Q 2736 4890 2333 4890 
z
" transform="scale(0.015625)"/>
       <path id="Ubuntu-433" d="M 2573 2829 
L 1107 2829 
L 1107 0 
L 512 0 
L 512 3328 
L 2573 3328 
L 2573 2829 
z
" transform="scale(0.015625)"/>
       <path id="Ubuntu-443" d="M 122 -621 
Q 192 -653 304 -681 
Q 416 -710 525 -710 
Q 877 -710 1075 -553 
Q 1274 -397 1434 -45 
Q 1030 723 681 1584 
Q 333 2445 102 3328 
L 742 3328 
Q 813 3040 912 2707 
Q 1011 2374 1132 2022 
Q 1254 1670 1395 1318 
Q 1536 966 1690 640 
Q 1933 1312 2112 1971 
Q 2291 2630 2451 3328 
L 3066 3328 
Q 2835 2387 2553 1520 
Q 2272 653 1946 -102 
Q 1818 -390 1680 -598 
Q 1542 -806 1376 -940 
Q 1210 -1075 1002 -1139 
Q 794 -1203 531 -1203 
Q 461 -1203 384 -1193 
Q 307 -1184 233 -1168 
Q 160 -1152 99 -1133 
Q 38 -1114 13 -1101 
L 122 -621 
z
" transform="scale(0.015625)"/>
      </defs>
      <use xlink:href="#Ubuntu-419"/>
      <use xlink:href="#Ubuntu-43e" x="72.799988"/>
      <use xlink:href="#Ubuntu-433" x="131.799973"/>
      <use xlink:href="#Ubuntu-440" x="173.59996"/>
      <use xlink:href="#Ubuntu-443" x="231.124954"/>
      <use xlink:href="#Ubuntu-442" x="282.949951"/>
     </g>
    </g>
    <g id="line2d_55">
     <path d="M 373.748125 14.633438 
L 379.823125 14.633438 
L 385.898125 14.633438 
" style="fill: none; stroke: #676391; stroke-width: 1.25; stroke-linecap: square"/>
    </g>
    <g id="text_31">
     <!-- Творог -->
     <g style="fill: #4b4b4b" transform="translate(393.098125 17.783438) scale(0.09 -0.09)">
      <defs>
       <path id="Ubuntu-422" d="M 3514 4435 
L 3514 3898 
L 2118 3898 
L 2118 0 
L 1498 0 
L 1498 3898 
L 102 3898 
L 102 4435 
L 3514 4435 
z
" transform="scale(0.015625)"/>
      </defs>
      <use xlink:href="#Ubuntu-422"/>
      <use xlink:href="#Ubuntu-432" x="49.124985"/>
      <use xlink:href="#Ubuntu-43e" x="103.924973"/>
      <use xlink:href="#Ubuntu-440" x="162.924957"/>
      <use xlink:href="#Ubuntu-43e" x="221.824951"/>
      <use xlink:href="#Ubuntu-433" x="280.824936"/>
     </g>
    </g>
   </g>
  </g>
 </g>
 <defs>
  <clipPath id="p06662f6d1f">
   <rect x="32.1925" y="41.876719" width="502.2" height="166.32"/>
  </clipPath>
  <clipPath id="p661626c90c">
   <rect x="32.1925" y="208.196719" width="502.2" height="0"/>
  </clipPath>
 </defs>
</svg>
