<?xml version="1.0" encoding="utf-8" standalone="no"?>
<!DOCTYPE svg PUBLIC "-//W3C//DTD SVG 1.1//EN"
  "http://www.w3.org/Graphics/SVG/1.1/DTD/svg11.dtd">
<svg xmlns:xlink="http://www.w3.org/1999/xlink" width="550.206471pt" height="251.5575pt" viewBox="0 0 550.206471 251.5575" xmlns="http://www.w3.org/2000/svg" version="1.1">
 <metadata>
  <rdf:RDF xmlns:dc="http://purl.org/dc/elements/1.1/" xmlns:cc="http://creativecommons.org/ns#" xmlns:rdf="http://www.w3.org/1999/02/22-rdf-syntax-ns#">
   <cc:Work>
    <dc:type rdf:resource="http://purl.org/dc/dcmitype/StillImage"/>
    <dc:date>2024-03-14T20:38:29.364076</dc:date>
    <dc:format>image/svg+xml</dc:format>
    <dc:creator>
     <cc:Agent>
      <dc:title>Matplotlib v3.8.0, https://matplotlib.org/</dc:title>
     </cc:Agent>
    </dc:creator>
   </cc:Work>
  </rdf:RDF>
 </metadata>
 <defs>
  <style type="text/css">*{stroke-linejoin: round; stroke-linecap: butt}</style>
 </defs>
 <g id="figure_1">
  <g id="patch_1">
   <path d="M 0 251.5575 
L 550.206471 251.5575 
L 550.206471 0 
L 0 0 
L 0 251.5575 
z
" style="fill: none"/>
  </g>
  <g id="axes_1">
   <g id="patch_2">
    <path d="M 36.705 208.17 
L 538.905 208.17 
L 538.905 41.85 
L 36.705 41.85 
L 36.705 208.17 
z
" style="fill: none"/>
   </g>
   <g id="axes_2">
    <g id="patch_3">
     <path d="M 36.705 208.17 
L 538.905 208.17 
L 538.905 208.17 
L 36.705 208.17 
L 36.705 208.17 
z
" style="fill: none"/>
    </g>
    <g id="matplotlib.axis_1">
     <g id="xtick_1">
      <g id="line2d_1">
       <path d="M 41.628529 208.17 
L 41.628529 208.17 
" clip-path="url(#p126e0fcf8c)" style="fill: none; stroke-dasharray: 0.5,0.825; stroke-dashoffset: 0; stroke: #d9d9d9; stroke-width: 0.5"/>
      </g>
      <g id="text_1">
       <!-- 2021 -->
       <g style="fill: #808080" transform="translate(32.603529 242.8775) scale(0.08 -0.08)">
        <defs>
         <path id="Ubuntu-32" d="M 2989 3302 
Q 2989 3072 2896 2857 
Q 2803 2643 2649 2435 
Q 2496 2227 2304 2025 
Q 2112 1824 1920 1632 
Q 1811 1523 1667 1376 
Q 1523 1229 1395 1069 
Q 1267 909 1180 761 
Q 1094 614 1094 506 
L 3136 506 
L 3136 0 
L 448 0 
Q 442 38 442 76 
Q 442 115 442 147 
Q 442 448 541 707 
Q 640 966 800 1196 
Q 960 1427 1158 1632 
Q 1357 1837 1549 2029 
Q 1709 2182 1853 2332 
Q 1997 2483 2109 2633 
Q 2221 2784 2288 2944 
Q 2355 3104 2355 3283 
Q 2355 3475 2294 3609 
Q 2234 3744 2131 3833 
Q 2029 3923 1891 3964 
Q 1754 4006 1600 4006 
Q 1414 4006 1260 3955 
Q 1107 3904 985 3837 
Q 864 3770 781 3696 
Q 698 3622 653 3584 
L 358 4006 
Q 416 4070 531 4163 
Q 646 4256 806 4339 
Q 966 4422 1164 4480 
Q 1363 4538 1594 4538 
Q 2291 4538 2640 4214 
Q 2989 3891 2989 3302 
z
" transform="scale(0.015625)"/>
         <path id="Ubuntu-30" d="M 320 2221 
Q 320 3334 713 3936 
Q 1107 4538 1805 4538 
Q 2502 4538 2896 3936 
Q 3290 3334 3290 2221 
Q 3290 1107 2896 505 
Q 2502 -96 1805 -96 
Q 1107 -96 713 505 
Q 320 1107 320 2221 
z
M 2662 2221 
Q 2662 2586 2620 2912 
Q 2579 3238 2480 3481 
Q 2381 3725 2214 3869 
Q 2048 4013 1805 4013 
Q 1562 4013 1395 3869 
Q 1229 3725 1129 3481 
Q 1030 3238 988 2912 
Q 947 2586 947 2221 
Q 947 1856 988 1529 
Q 1030 1203 1129 960 
Q 1229 717 1395 573 
Q 1562 429 1805 429 
Q 2048 429 2214 573 
Q 2381 717 2480 960 
Q 2579 1203 2620 1529 
Q 2662 1856 2662 2221 
z
" transform="scale(0.015625)"/>
         <path id="Ubuntu-31" d="M 595 3520 
Q 960 3661 1305 3881 
Q 1651 4102 1939 4435 
L 2362 4435 
L 2362 0 
L 1766 0 
L 1766 3610 
Q 1690 3539 1578 3462 
Q 1466 3386 1334 3315 
Q 1203 3245 1059 3181 
Q 915 3117 781 3072 
L 595 3520 
z
" transform="scale(0.015625)"/>
        </defs>
        <use xlink:href="#Ubuntu-32"/>
        <use xlink:href="#Ubuntu-30" x="56.399994"/>
        <use xlink:href="#Ubuntu-32" x="112.799988"/>
        <use xlink:href="#Ubuntu-31" x="169.199982"/>
       </g>
      </g>
     </g>
     <g id="xtick_2">
      <g id="line2d_2">
       <path d="M 205.746176 208.17 
L 205.746176 208.17 
" clip-path="url(#p126e0fcf8c)" style="fill: none; stroke-dasharray: 0.5,0.825; stroke-dashoffset: 0; stroke: #d9d9d9; stroke-width: 0.5"/>
      </g>
      <g id="text_2">
       <!-- 2022 -->
       <g style="fill: #808080" transform="translate(196.721176 242.8775) scale(0.08 -0.08)">
        <use xlink:href="#Ubuntu-32"/>
        <use xlink:href="#Ubuntu-30" x="56.399994"/>
        <use xlink:href="#Ubuntu-32" x="112.799988"/>
        <use xlink:href="#Ubuntu-32" x="169.199982"/>
       </g>
      </g>
     </g>
     <g id="xtick_3">
      <g id="line2d_3">
       <path d="M 369.863824 208.17 
L 369.863824 208.17 
" clip-path="url(#p126e0fcf8c)" style="fill: none; stroke-dasharray: 0.5,0.825; stroke-dashoffset: 0; stroke: #d9d9d9; stroke-width: 0.5"/>
      </g>
      <g id="text_3">
       <!-- 2023 -->
       <g style="fill: #808080" transform="translate(360.838824 242.8775) scale(0.08 -0.08)">
        <defs>
         <path id="Ubuntu-33" d="M 1446 435 
Q 2016 435 2262 659 
Q 2509 883 2509 1261 
Q 2509 1504 2406 1670 
Q 2304 1837 2137 1936 
Q 1971 2035 1750 2076 
Q 1530 2118 1299 2118 
L 1146 2118 
L 1146 2605 
L 1357 2605 
Q 1517 2605 1686 2637 
Q 1856 2669 1997 2752 
Q 2138 2835 2227 2979 
Q 2317 3123 2317 3341 
Q 2317 3520 2253 3648 
Q 2189 3776 2083 3859 
Q 1978 3942 1840 3977 
Q 1702 4013 1549 4013 
Q 1242 4013 1027 3923 
Q 813 3834 666 3738 
L 435 4192 
Q 512 4243 630 4304 
Q 749 4365 896 4416 
Q 1043 4467 1212 4502 
Q 1382 4538 1568 4538 
Q 1920 4538 2176 4451 
Q 2432 4365 2598 4208 
Q 2765 4051 2848 3836 
Q 2931 3622 2931 3373 
Q 2931 3027 2732 2780 
Q 2534 2534 2253 2406 
Q 2426 2355 2586 2259 
Q 2746 2163 2864 2016 
Q 2982 1869 3056 1677 
Q 3130 1485 3130 1248 
Q 3130 960 3030 713 
Q 2931 467 2723 288 
Q 2515 109 2201 6 
Q 1888 -96 1459 -96 
Q 1293 -96 1117 -70 
Q 941 -45 787 -6 
Q 634 32 518 70 
Q 403 109 352 134 
L 467 653 
Q 576 602 829 518 
Q 1082 435 1446 435 
z
" transform="scale(0.015625)"/>
        </defs>
        <use xlink:href="#Ubuntu-32"/>
        <use xlink:href="#Ubuntu-30" x="56.399994"/>
        <use xlink:href="#Ubuntu-32" x="112.799988"/>
        <use xlink:href="#Ubuntu-33" x="169.199982"/>
       </g>
      </g>
     </g>
     <g id="xtick_4">
      <g id="line2d_4">
       <path d="M 533.981471 208.17 
L 533.981471 208.17 
" clip-path="url(#p126e0fcf8c)" style="fill: none; stroke-dasharray: 0.5,0.825; stroke-dashoffset: 0; stroke: #d9d9d9; stroke-width: 0.5"/>
      </g>
      <g id="text_4">
       <!-- 2024 -->
       <g style="fill: #808080" transform="translate(524.956471 242.8775) scale(0.08 -0.08)">
        <defs>
         <path id="Ubuntu-34" d="M 256 1536 
Q 378 1818 589 2192 
Q 800 2566 1065 2963 
Q 1331 3360 1635 3744 
Q 1939 4128 2246 4435 
L 2816 4435 
L 2816 1619 
L 3341 1619 
L 3341 1133 
L 2816 1133 
L 2816 0 
L 2240 0 
L 2240 1133 
L 256 1133 
L 256 1536 
z
M 2240 3731 
Q 2048 3526 1853 3273 
Q 1658 3021 1472 2745 
Q 1286 2470 1123 2182 
Q 960 1894 832 1619 
L 2240 1619 
L 2240 3731 
z
" transform="scale(0.015625)"/>
        </defs>
        <use xlink:href="#Ubuntu-32"/>
        <use xlink:href="#Ubuntu-30" x="56.399994"/>
        <use xlink:href="#Ubuntu-32" x="112.799988"/>
        <use xlink:href="#Ubuntu-34" x="169.199982"/>
       </g>
      </g>
     </g>
    </g>
    <g id="matplotlib.axis_2"/>
   </g>
   <g id="matplotlib.axis_3">
    <g id="xtick_5">
     <g id="line2d_5">
      <defs>
       <path id="m77128f8d94" d="M 0 0 
L 0 3 
" style="stroke: #aaaaaa; stroke-width: 0.75"/>
      </defs>
      <g>
       <use xlink:href="#m77128f8d94" x="41.628529" y="218.17" style="fill: #aaaaaa; stroke: #aaaaaa; stroke-width: 0.75"/>
      </g>
     </g>
     <g id="text_5">
      <!-- Янв -->
      <g style="fill: #808080" transform="translate(34.552904 233.3775) scale(0.08 -0.08)">
       <defs>
        <path id="Ubuntu-42f" d="M 2272 3936 
Q 2029 3936 1808 3897 
Q 1587 3859 1414 3763 
Q 1242 3667 1139 3500 
Q 1037 3334 1037 3085 
Q 1037 2611 1341 2428 
Q 1645 2246 2253 2246 
L 2893 2246 
L 2893 3917 
Q 2822 3917 2726 3923 
Q 2643 3930 2531 3933 
Q 2419 3936 2272 3936 
z
M 2323 4480 
Q 2458 4480 2611 4473 
Q 2765 4467 2921 4454 
Q 3078 4442 3232 4422 
Q 3386 4403 3514 4371 
L 3514 0 
L 2893 0 
L 2893 1734 
L 2362 1734 
Q 2272 1734 2173 1737 
Q 2074 1741 1907 1760 
Q 1792 1606 1657 1401 
Q 1523 1197 1388 966 
Q 1254 736 1123 486 
Q 992 237 883 0 
L 230 0 
Q 333 250 473 518 
Q 614 787 764 1030 
Q 915 1274 1052 1482 
Q 1190 1690 1293 1824 
Q 1146 1869 986 1952 
Q 826 2035 691 2182 
Q 557 2330 470 2550 
Q 384 2771 384 3078 
Q 384 3424 518 3686 
Q 653 3949 905 4125 
Q 1158 4301 1516 4390 
Q 1875 4480 2323 4480 
z
" transform="scale(0.015625)"/>
        <path id="Ubuntu-43d" d="M 3238 0 
L 2643 0 
L 2643 1472 
L 1107 1472 
L 1107 0 
L 512 0 
L 512 3328 
L 1107 3328 
L 1107 1971 
L 2643 1971 
L 2643 3328 
L 3238 3328 
L 3238 0 
z
" transform="scale(0.015625)"/>
        <path id="Ubuntu-432" d="M 1094 448 
Q 1133 442 1203 435 
Q 1274 429 1363 425 
Q 1453 422 1552 419 
Q 1651 416 1741 416 
Q 1926 416 2096 441 
Q 2266 467 2390 531 
Q 2515 595 2588 700 
Q 2662 806 2662 973 
Q 2662 1133 2595 1238 
Q 2528 1344 2413 1408 
Q 2298 1472 2141 1497 
Q 1984 1523 1805 1523 
L 1094 1523 
L 1094 448 
z
M 1728 1965 
Q 1901 1965 2045 1987 
Q 2189 2010 2294 2067 
Q 2400 2125 2461 2221 
Q 2522 2317 2522 2464 
Q 2522 2618 2445 2707 
Q 2368 2797 2243 2845 
Q 2118 2893 1961 2909 
Q 1805 2925 1645 2925 
Q 1498 2925 1347 2918 
Q 1197 2912 1094 2906 
L 1094 1965 
L 1728 1965 
z
M 1715 -58 
Q 1338 -58 1018 -22 
Q 698 13 512 58 
L 512 3296 
Q 698 3341 1018 3376 
Q 1338 3411 1715 3411 
Q 1978 3411 2227 3366 
Q 2477 3322 2669 3216 
Q 2861 3110 2979 2928 
Q 3098 2746 3098 2477 
Q 3098 2234 2976 2061 
Q 2854 1888 2650 1792 
Q 2925 1696 3088 1507 
Q 3251 1318 3251 979 
Q 3251 678 3132 480 
Q 3014 282 2806 160 
Q 2598 38 2316 -10 
Q 2035 -58 1715 -58 
z
" transform="scale(0.015625)"/>
       </defs>
       <use xlink:href="#Ubuntu-42f"/>
       <use xlink:href="#Ubuntu-43d" x="63.499985"/>
       <use xlink:href="#Ubuntu-432" x="122.099976"/>
      </g>
     </g>
    </g>
    <g id="xtick_6">
     <g id="line2d_6">
      <g>
       <use xlink:href="#m77128f8d94" x="82.095894" y="218.17" style="fill: #aaaaaa; stroke: #aaaaaa; stroke-width: 0.75"/>
      </g>
     </g>
     <g id="text_6">
      <!-- Апр -->
      <g style="fill: #808080" transform="translate(74.775894 233.3775) scale(0.08 -0.08)">
       <defs>
        <path id="Ubuntu-410" d="M 3514 0 
Q 3405 288 3309 566 
Q 3213 845 3110 1133 
L 1101 1133 
L 698 0 
L 51 0 
Q 307 704 531 1302 
Q 755 1901 969 2438 
Q 1184 2976 1395 3465 
Q 1606 3955 1837 4435 
L 2406 4435 
Q 2637 3955 2848 3465 
Q 3059 2976 3273 2438 
Q 3488 1901 3712 1302 
Q 3936 704 4192 0 
L 3514 0 
z
M 2931 1645 
Q 2726 2202 2524 2723 
Q 2323 3245 2106 3725 
Q 1882 3245 1680 2723 
Q 1478 2202 1280 1645 
L 2931 1645 
z
" transform="scale(0.015625)"/>
        <path id="Ubuntu-43f" d="M 3187 0 
L 2592 0 
L 2592 2829 
L 1107 2829 
L 1107 0 
L 512 0 
L 512 3328 
L 3187 3328 
L 3187 0 
z
" transform="scale(0.015625)"/>
        <path id="Ubuntu-440" d="M 2822 1658 
Q 2822 2240 2534 2553 
Q 2246 2867 1766 2867 
Q 1498 2867 1347 2848 
Q 1197 2829 1107 2803 
L 1107 704 
Q 1216 614 1421 531 
Q 1626 448 1869 448 
Q 2125 448 2307 541 
Q 2490 634 2605 797 
Q 2720 960 2771 1181 
Q 2822 1402 2822 1658 
z
M 3443 1658 
Q 3443 1280 3344 960 
Q 3245 640 3053 409 
Q 2861 179 2582 51 
Q 2304 -77 1946 -77 
Q 1658 -77 1437 0 
Q 1216 77 1107 147 
L 1107 -1184 
L 512 -1184 
L 512 3226 
Q 723 3277 1040 3337 
Q 1357 3398 1773 3398 
Q 2157 3398 2464 3276 
Q 2771 3155 2988 2931 
Q 3206 2707 3324 2384 
Q 3443 2061 3443 1658 
z
" transform="scale(0.015625)"/>
       </defs>
       <use xlink:href="#Ubuntu-410"/>
       <use xlink:href="#Ubuntu-43f" x="66.299988"/>
       <use xlink:href="#Ubuntu-440" x="124.099976"/>
      </g>
     </g>
    </g>
    <g id="xtick_7">
     <g id="line2d_7">
      <g>
       <use xlink:href="#m77128f8d94" x="123.012897" y="218.17" style="fill: #aaaaaa; stroke: #aaaaaa; stroke-width: 0.75"/>
      </g>
     </g>
     <g id="text_7">
      <!-- Июл -->
      <g style="fill: #808080" transform="translate(114.465397 233.3775) scale(0.08 -0.08)">
       <defs>
        <path id="Ubuntu-418" d="M 550 0 
L 550 4435 
L 1158 4435 
L 1158 1152 
Q 1363 1491 1660 1926 
Q 1958 2362 2294 2813 
Q 2630 3264 2972 3689 
Q 3315 4115 3616 4435 
L 4109 4435 
L 4109 0 
L 3501 0 
L 3501 3462 
Q 3322 3258 3110 2989 
Q 2899 2720 2675 2416 
Q 2451 2112 2224 1785 
Q 1997 1459 1785 1142 
Q 1574 826 1392 531 
Q 1210 237 1069 0 
L 550 0 
z
" transform="scale(0.015625)"/>
        <path id="Ubuntu-44e" d="M 1107 1952 
L 1837 1952 
Q 1875 2285 2006 2553 
Q 2138 2822 2336 3014 
Q 2534 3206 2790 3308 
Q 3046 3411 3341 3411 
Q 3667 3411 3945 3286 
Q 4224 3162 4429 2931 
Q 4634 2701 4749 2377 
Q 4864 2054 4864 1664 
Q 4864 1267 4749 947 
Q 4634 627 4429 396 
Q 4224 166 3945 41 
Q 3667 -83 3341 -83 
Q 3034 -83 2768 29 
Q 2502 141 2304 342 
Q 2106 544 1981 832 
Q 1856 1120 1830 1472 
L 1107 1472 
L 1107 0 
L 512 0 
L 512 3328 
L 1107 3328 
L 1107 1952 
z
M 4250 1664 
Q 4250 2227 4003 2556 
Q 3757 2886 3341 2886 
Q 2925 2886 2678 2556 
Q 2432 2227 2432 1664 
Q 2432 1101 2678 771 
Q 2925 442 3341 442 
Q 3757 442 4003 771 
Q 4250 1101 4250 1664 
z
" transform="scale(0.015625)"/>
        <path id="Ubuntu-43b" d="M 1670 2829 
Q 1670 2618 1660 2378 
Q 1651 2138 1625 1898 
Q 1600 1658 1555 1424 
Q 1510 1190 1440 986 
Q 1370 781 1264 601 
Q 1158 422 1004 284 
Q 851 147 646 54 
Q 442 -38 166 -64 
L 83 435 
Q 397 499 579 672 
Q 762 845 870 1094 
Q 966 1312 1011 1587 
Q 1056 1862 1075 2160 
Q 1094 2458 1097 2758 
Q 1101 3059 1101 3328 
L 3315 3328 
L 3315 0 
L 2720 0 
L 2720 2829 
L 1670 2829 
z
" transform="scale(0.015625)"/>
       </defs>
       <use xlink:href="#Ubuntu-418"/>
       <use xlink:href="#Ubuntu-44e" x="72.799988"/>
       <use xlink:href="#Ubuntu-43b" x="153.899979"/>
      </g>
     </g>
    </g>
    <g id="xtick_8">
     <g id="line2d_8">
      <g>
       <use xlink:href="#m77128f8d94" x="164.379537" y="218.17" style="fill: #aaaaaa; stroke: #aaaaaa; stroke-width: 0.75"/>
      </g>
     </g>
     <g id="text_8">
      <!-- Окт -->
      <g style="fill: #808080" transform="translate(157.267662 233.3775) scale(0.08 -0.08)">
       <defs>
        <path id="Ubuntu-41e" d="M 371 2221 
Q 371 2790 540 3225 
Q 710 3661 1001 3952 
Q 1293 4243 1680 4390 
Q 2067 4538 2502 4538 
Q 2931 4538 3312 4390 
Q 3693 4243 3981 3952 
Q 4269 3661 4438 3225 
Q 4608 2790 4608 2221 
Q 4608 1651 4438 1216 
Q 4269 781 3981 489 
Q 3693 198 3312 51 
Q 2931 -96 2502 -96 
Q 2067 -96 1680 51 
Q 1293 198 1001 489 
Q 710 781 540 1216 
Q 371 1651 371 2221 
z
M 1024 2221 
Q 1024 1818 1126 1488 
Q 1229 1158 1417 928 
Q 1606 698 1878 573 
Q 2150 448 2490 448 
Q 2829 448 3097 573 
Q 3366 698 3555 928 
Q 3744 1158 3846 1488 
Q 3949 1818 3949 2221 
Q 3949 2624 3846 2953 
Q 3744 3283 3555 3513 
Q 3366 3744 3097 3869 
Q 2829 3994 2490 3994 
Q 2150 3994 1878 3869 
Q 1606 3744 1417 3513 
Q 1229 3283 1126 2953 
Q 1024 2624 1024 2221 
z
" transform="scale(0.015625)"/>
        <path id="Ubuntu-43a" d="M 1728 1811 
Q 1926 1670 2156 1456 
Q 2387 1242 2608 992 
Q 2829 742 3021 483 
Q 3213 224 3347 0 
L 2643 0 
Q 2502 218 2313 445 
Q 2125 672 1920 883 
Q 1715 1094 1504 1273 
Q 1293 1453 1107 1574 
L 1107 0 
L 512 0 
L 512 3328 
L 1107 3328 
L 1107 1901 
Q 1261 2048 1459 2243 
Q 1658 2438 1859 2640 
Q 2061 2842 2233 3024 
Q 2406 3206 2515 3328 
L 3206 3328 
Q 3066 3174 2877 2979 
Q 2688 2784 2486 2579 
Q 2285 2374 2086 2172 
Q 1888 1971 1728 1811 
z
" transform="scale(0.015625)"/>
        <path id="Ubuntu-442" d="M 2861 3328 
L 2861 2829 
L 1779 2829 
L 1779 0 
L 1184 0 
L 1184 2829 
L 102 2829 
L 102 3328 
L 2861 3328 
z
" transform="scale(0.015625)"/>
       </defs>
       <use xlink:href="#Ubuntu-41e"/>
       <use xlink:href="#Ubuntu-43a" x="77.799988"/>
       <use xlink:href="#Ubuntu-442" x="131.499985"/>
      </g>
     </g>
    </g>
    <g id="xtick_9">
     <g id="line2d_9">
      <g>
       <use xlink:href="#m77128f8d94" x="205.746176" y="218.17" style="fill: #aaaaaa; stroke: #aaaaaa; stroke-width: 0.75"/>
      </g>
     </g>
     <g id="text_9">
      <!-- Янв -->
      <g style="fill: #808080" transform="translate(198.670551 233.3775) scale(0.08 -0.08)">
       <use xlink:href="#Ubuntu-42f"/>
       <use xlink:href="#Ubuntu-43d" x="63.499985"/>
       <use xlink:href="#Ubuntu-432" x="122.099976"/>
      </g>
     </g>
    </g>
    <g id="xtick_10">
     <g id="line2d_10">
      <g>
       <use xlink:href="#m77128f8d94" x="246.213541" y="218.17" style="fill: #aaaaaa; stroke: #aaaaaa; stroke-width: 0.75"/>
      </g>
     </g>
     <g id="text_10">
      <!-- Апр -->
      <g style="fill: #808080" transform="translate(238.893541 233.3775) scale(0.08 -0.08)">
       <use xlink:href="#Ubuntu-410"/>
       <use xlink:href="#Ubuntu-43f" x="66.299988"/>
       <use xlink:href="#Ubuntu-440" x="124.099976"/>
      </g>
     </g>
    </g>
    <g id="xtick_11">
     <g id="line2d_11">
      <g>
       <use xlink:href="#m77128f8d94" x="287.130544" y="218.17" style="fill: #aaaaaa; stroke: #aaaaaa; stroke-width: 0.75"/>
      </g>
     </g>
     <g id="text_11">
      <!-- Июл -->
      <g style="fill: #808080" transform="translate(278.583044 233.3775) scale(0.08 -0.08)">
       <use xlink:href="#Ubuntu-418"/>
       <use xlink:href="#Ubuntu-44e" x="72.799988"/>
       <use xlink:href="#Ubuntu-43b" x="153.899979"/>
      </g>
     </g>
    </g>
    <g id="xtick_12">
     <g id="line2d_12">
      <g>
       <use xlink:href="#m77128f8d94" x="328.497184" y="218.17" style="fill: #aaaaaa; stroke: #aaaaaa; stroke-width: 0.75"/>
      </g>
     </g>
     <g id="text_12">
      <!-- Окт -->
      <g style="fill: #808080" transform="translate(321.385309 233.3775) scale(0.08 -0.08)">
       <use xlink:href="#Ubuntu-41e"/>
       <use xlink:href="#Ubuntu-43a" x="77.799988"/>
       <use xlink:href="#Ubuntu-442" x="131.499985"/>
      </g>
     </g>
    </g>
    <g id="xtick_13">
     <g id="line2d_13">
      <g>
       <use xlink:href="#m77128f8d94" x="369.863824" y="218.17" style="fill: #aaaaaa; stroke: #aaaaaa; stroke-width: 0.75"/>
      </g>
     </g>
     <g id="text_13">
      <!-- Янв -->
      <g style="fill: #808080" transform="translate(362.788199 233.3775) scale(0.08 -0.08)">
       <use xlink:href="#Ubuntu-42f"/>
       <use xlink:href="#Ubuntu-43d" x="63.499985"/>
       <use xlink:href="#Ubuntu-432" x="122.099976"/>
      </g>
     </g>
    </g>
    <g id="xtick_14">
     <g id="line2d_14">
      <g>
       <use xlink:href="#m77128f8d94" x="410.331189" y="218.17" style="fill: #aaaaaa; stroke: #aaaaaa; stroke-width: 0.75"/>
      </g>
     </g>
     <g id="text_14">
      <!-- Апр -->
      <g style="fill: #808080" transform="translate(403.011189 233.3775) scale(0.08 -0.08)">
       <use xlink:href="#Ubuntu-410"/>
       <use xlink:href="#Ubuntu-43f" x="66.299988"/>
       <use xlink:href="#Ubuntu-440" x="124.099976"/>
      </g>
     </g>
    </g>
    <g id="xtick_15">
     <g id="line2d_15">
      <g>
       <use xlink:href="#m77128f8d94" x="451.248191" y="218.17" style="fill: #aaaaaa; stroke: #aaaaaa; stroke-width: 0.75"/>
      </g>
     </g>
     <g id="text_15">
      <!-- Июл -->
      <g style="fill: #808080" transform="translate(442.700691 233.3775) scale(0.08 -0.08)">
       <use xlink:href="#Ubuntu-418"/>
       <use xlink:href="#Ubuntu-44e" x="72.799988"/>
       <use xlink:href="#Ubuntu-43b" x="153.899979"/>
      </g>
     </g>
    </g>
    <g id="xtick_16">
     <g id="line2d_16">
      <g>
       <use xlink:href="#m77128f8d94" x="492.614831" y="218.17" style="fill: #aaaaaa; stroke: #aaaaaa; stroke-width: 0.75"/>
      </g>
     </g>
     <g id="text_16">
      <!-- Окт -->
      <g style="fill: #808080" transform="translate(485.502956 233.3775) scale(0.08 -0.08)">
       <use xlink:href="#Ubuntu-41e"/>
       <use xlink:href="#Ubuntu-43a" x="77.799988"/>
       <use xlink:href="#Ubuntu-442" x="131.499985"/>
      </g>
     </g>
    </g>
    <g id="xtick_17">
     <g id="line2d_17">
      <g>
       <use xlink:href="#m77128f8d94" x="533.981471" y="218.17" style="fill: #aaaaaa; stroke: #aaaaaa; stroke-width: 0.75"/>
      </g>
     </g>
     <g id="text_17">
      <!-- Янв -->
      <g style="fill: #808080" transform="translate(526.905846 233.3775) scale(0.08 -0.08)">
       <use xlink:href="#Ubuntu-42f"/>
       <use xlink:href="#Ubuntu-43d" x="63.499985"/>
       <use xlink:href="#Ubuntu-432" x="122.099976"/>
      </g>
     </g>
    </g>
   </g>
   <g id="matplotlib.axis_4">
    <g id="ytick_1">
     <g id="line2d_18">
      <defs>
       <path id="mbe8a6ec0a8" d="M 0 0 
L -3 0 
" style="stroke: #aaaaaa; stroke-width: 0.75"/>
      </defs>
      <g>
       <use xlink:href="#mbe8a6ec0a8" x="31.705" y="208.17" style="fill: #aaaaaa; stroke: #aaaaaa; stroke-width: 0.75"/>
      </g>
     </g>
     <g id="text_18">
      <!-- 0.95 -->
      <g style="fill: #808080" transform="translate(7.2 211.27375) scale(0.08 -0.08)">
       <defs>
        <path id="Ubuntu-2e" d="M 1216 346 
Q 1216 173 1101 45 
Q 986 -83 787 -83 
Q 589 -83 473 45 
Q 358 173 358 346 
Q 358 518 473 646 
Q 589 774 787 774 
Q 986 774 1101 646 
Q 1216 518 1216 346 
z
" transform="scale(0.015625)"/>
        <path id="Ubuntu-39" d="M 3206 2662 
Q 3206 1344 2550 669 
Q 1894 -6 602 -13 
L 582 486 
Q 986 486 1309 563 
Q 1632 640 1875 809 
Q 2118 979 2281 1248 
Q 2445 1517 2522 1907 
Q 2355 1830 2144 1782 
Q 1933 1734 1709 1734 
Q 1331 1734 1068 1846 
Q 806 1958 640 2147 
Q 474 2336 400 2582 
Q 326 2829 326 3098 
Q 326 3334 409 3590 
Q 493 3846 662 4057 
Q 832 4269 1094 4403 
Q 1357 4538 1715 4538 
Q 2080 4538 2358 4410 
Q 2637 4282 2825 4038 
Q 3014 3795 3110 3446 
Q 3206 3098 3206 2662 
z
M 1773 2221 
Q 1997 2221 2195 2262 
Q 2394 2304 2579 2387 
Q 2586 2458 2586 2525 
Q 2586 2592 2586 2662 
Q 2586 2938 2547 3190 
Q 2509 3443 2409 3632 
Q 2310 3821 2144 3933 
Q 1978 4045 1722 4045 
Q 1510 4045 1363 3955 
Q 1216 3866 1120 3728 
Q 1024 3590 982 3427 
Q 941 3264 941 3110 
Q 941 2675 1149 2448 
Q 1357 2221 1773 2221 
z
" transform="scale(0.015625)"/>
        <path id="Ubuntu-35" d="M 1274 2726 
Q 2240 2688 2691 2304 
Q 3142 1920 3142 1261 
Q 3142 966 3043 716 
Q 2944 467 2742 288 
Q 2541 109 2233 6 
Q 1926 -96 1504 -96 
Q 1338 -96 1165 -70 
Q 992 -45 845 -6 
Q 698 32 582 70 
Q 467 109 416 134 
L 531 653 
Q 640 602 886 518 
Q 1133 435 1491 435 
Q 1779 435 1974 499 
Q 2170 563 2291 672 
Q 2413 781 2467 925 
Q 2522 1069 2522 1229 
Q 2522 1472 2438 1661 
Q 2355 1850 2144 1978 
Q 1933 2106 1581 2173 
Q 1229 2240 691 2240 
Q 730 2554 752 2829 
Q 774 3104 793 3366 
Q 813 3629 825 3888 
Q 838 4147 851 4435 
L 2989 4435 
L 2989 3930 
L 1370 3930 
Q 1363 3834 1350 3670 
Q 1338 3507 1325 3331 
Q 1312 3155 1299 2988 
Q 1286 2822 1274 2726 
z
" transform="scale(0.015625)"/>
       </defs>
       <use xlink:href="#Ubuntu-30"/>
       <use xlink:href="#Ubuntu-2e" x="56.399994"/>
       <use xlink:href="#Ubuntu-39" x="80.999985"/>
       <use xlink:href="#Ubuntu-35" x="137.399979"/>
      </g>
     </g>
    </g>
    <g id="ytick_2">
     <g id="line2d_19">
      <g>
       <use xlink:href="#mbe8a6ec0a8" x="31.705" y="174.906" style="fill: #aaaaaa; stroke: #aaaaaa; stroke-width: 0.75"/>
      </g>
     </g>
     <g id="text_19">
      <!-- 1.05 -->
      <g style="fill: #808080" transform="translate(7.2 178.00975) scale(0.08 -0.08)">
       <use xlink:href="#Ubuntu-31"/>
       <use xlink:href="#Ubuntu-2e" x="56.399994"/>
       <use xlink:href="#Ubuntu-30" x="80.999985"/>
       <use xlink:href="#Ubuntu-35" x="137.399979"/>
      </g>
     </g>
    </g>
    <g id="ytick_3">
     <g id="line2d_20">
      <g>
       <use xlink:href="#mbe8a6ec0a8" x="31.705" y="141.642" style="fill: #aaaaaa; stroke: #aaaaaa; stroke-width: 0.75"/>
      </g>
     </g>
     <g id="text_20">
      <!-- 1.15 -->
      <g style="fill: #808080" transform="translate(7.2 144.74575) scale(0.08 -0.08)">
       <use xlink:href="#Ubuntu-31"/>
       <use xlink:href="#Ubuntu-2e" x="56.399994"/>
       <use xlink:href="#Ubuntu-31" x="80.999985"/>
       <use xlink:href="#Ubuntu-35" x="137.399979"/>
      </g>
     </g>
    </g>
    <g id="ytick_4">
     <g id="line2d_21">
      <g>
       <use xlink:href="#mbe8a6ec0a8" x="31.705" y="108.378" style="fill: #aaaaaa; stroke: #aaaaaa; stroke-width: 0.75"/>
      </g>
     </g>
     <g id="text_21">
      <!-- 1.25 -->
      <g style="fill: #808080" transform="translate(7.2 111.48175) scale(0.08 -0.08)">
       <use xlink:href="#Ubuntu-31"/>
       <use xlink:href="#Ubuntu-2e" x="56.399994"/>
       <use xlink:href="#Ubuntu-32" x="80.999985"/>
       <use xlink:href="#Ubuntu-35" x="137.399979"/>
      </g>
     </g>
    </g>
    <g id="ytick_5">
     <g id="line2d_22">
      <g>
       <use xlink:href="#mbe8a6ec0a8" x="31.705" y="75.114" style="fill: #aaaaaa; stroke: #aaaaaa; stroke-width: 0.75"/>
      </g>
     </g>
     <g id="text_22">
      <!-- 1.35 -->
      <g style="fill: #808080" transform="translate(7.2 78.21775) scale(0.08 -0.08)">
       <use xlink:href="#Ubuntu-31"/>
       <use xlink:href="#Ubuntu-2e" x="56.399994"/>
       <use xlink:href="#Ubuntu-33" x="80.999985"/>
       <use xlink:href="#Ubuntu-35" x="137.399979"/>
      </g>
     </g>
    </g>
    <g id="ytick_6">
     <g id="line2d_23">
      <g>
       <use xlink:href="#mbe8a6ec0a8" x="31.705" y="41.85" style="fill: #aaaaaa; stroke: #aaaaaa; stroke-width: 0.75"/>
      </g>
     </g>
     <g id="text_23">
      <!-- 1.45 -->
      <g style="fill: #808080" transform="translate(7.2 44.95375) scale(0.08 -0.08)">
       <use xlink:href="#Ubuntu-31"/>
       <use xlink:href="#Ubuntu-2e" x="56.399994"/>
       <use xlink:href="#Ubuntu-34" x="80.999985"/>
       <use xlink:href="#Ubuntu-35" x="137.399979"/>
      </g>
     </g>
    </g>
   </g>
   <g id="line2d_24">
    <path d="M 41.628529 191.538 
L 49.861856 190.73826 
L 56.448518 190.312017 
L 61.388514 190.173679 
L 66.32851 190.23133 
L 71.268506 190.52138 
L 76.208502 191.0778 
L 81.148498 191.931881 
L 86.088494 193.100007 
L 97.615151 196.105392 
L 102.555148 197.063908 
L 109.141809 198.090335 
L 117.375136 199.183789 
L 122.315132 199.571497 
L 125.608463 199.628581 
L 128.901793 199.51081 
L 133.841789 199.05324 
L 138.781785 198.323335 
L 142.075116 197.664647 
L 145.368447 196.76097 
L 148.661777 195.508585 
L 150.308443 194.719214 
L 153.601774 192.768768 
L 156.895104 190.403936 
L 161.8351 186.395266 
L 170.068427 179.587701 
L 176.655089 174.478437 
L 184.888415 168.481218 
L 189.828411 164.821066 
L 194.768407 160.856021 
L 199.708404 156.512828 
L 204.6484 151.840116 
L 214.528392 142.161613 
L 217.821722 139.32493 
L 221.115053 136.936131 
L 224.408384 134.993404 
L 227.701715 133.34933 
L 245.815033 125.114255 
L 249.108364 123.977564 
L 252.401695 123.077084 
L 255.695026 122.377494 
L 260.635022 121.626385 
L 265.575018 121.163275 
L 268.868348 121.03794 
L 272.161679 121.087416 
L 275.45501 121.333888 
L 285.335002 122.376514 
L 288.628333 122.334408 
L 291.921663 121.939056 
L 296.861659 120.939562 
L 303.448321 119.542389 
L 310.034982 118.30257 
L 313.328313 117.453627 
L 316.621644 116.278734 
L 319.914974 114.800718 
L 326.501636 111.737108 
L 329.794967 110.565264 
L 333.088297 109.760579 
L 339.674959 108.438687 
L 342.968289 107.476453 
L 346.26162 106.133039 
L 352.848282 103.162407 
L 356.141612 102.040964 
L 357.788278 101.673943 
L 361.081608 101.299019 
L 364.374939 101.269572 
L 379.194927 101.950026 
L 384.134923 102.349532 
L 387.428254 102.838535 
L 390.721585 103.644218 
L 392.36825 104.206925 
L 394.014915 104.898134 
L 395.661581 105.73429 
L 397.308246 106.731836 
L 398.954911 107.903479 
L 400.601577 109.249265 
L 402.248242 110.76656 
L 403.894908 112.452734 
L 407.188238 116.321182 
L 410.481569 120.833549 
L 413.7749 125.940081 
L 418.714896 134.219612 
L 423.654892 142.408827 
L 426.948223 147.373389 
L 430.241553 151.818563 
L 433.534884 155.76267 
L 436.828215 159.225095 
L 440.121545 162.223757 
L 443.414876 164.751784 
L 446.708207 166.781629 
L 448.354872 167.600926 
L 450.001537 168.285109 
L 451.648203 168.830655 
L 453.294868 169.235963 
L 454.941534 169.512197 
L 458.234864 169.742962 
L 461.528195 169.654051 
L 466.468191 169.207138 
L 469.761522 168.785954 
L 473.054852 168.099437 
L 474.701518 167.597623 
L 476.348183 166.958606 
L 477.994849 166.158765 
L 479.641514 165.174548 
L 481.288179 163.994081 
L 482.934845 162.629977 
L 484.58151 161.09793 
L 487.874841 157.59279 
L 491.168171 153.604222 
L 494.461502 149.260234 
L 501.048163 140.37072 
L 504.341494 136.376906 
L 505.98816 134.614304 
L 507.634825 133.051723 
L 509.28149 131.685677 
L 512.574821 129.421755 
L 515.868152 127.576461 
L 522.454813 124.154878 
L 525.748144 122.08515 
L 527.394809 120.852612 
L 529.041475 119.447172 
L 530.68814 117.837988 
L 532.334805 115.994223 
L 533.981471 113.885035 
L 533.981471 113.885035 
" clip-path="url(#pc31086aa34)" style="fill: none; stroke-dasharray: 5.55,2.4; stroke-dashoffset: 0; stroke: #5d5d5d; stroke-width: 1.5"/>
   </g>
   <g id="line2d_25">
    <path d="M 41.628529 191.538 
L 44.92186 191.88616 
L 48.215191 191.953055 
L 51.508522 191.798851 
L 56.448518 191.284604 
L 67.975175 189.817246 
L 72.915171 189.528532 
L 87.735159 189.054825 
L 92.675155 188.539001 
L 97.615151 187.754481 
L 107.495144 185.884457 
L 110.788474 185.485428 
L 115.72847 185.238962 
L 123.961797 184.976635 
L 127.255128 184.656848 
L 132.195124 183.926182 
L 138.781785 182.684888 
L 143.721781 181.615992 
L 147.015112 180.759853 
L 150.308443 179.727359 
L 153.601774 178.476753 
L 158.54177 176.304286 
L 166.775096 172.610001 
L 173.361758 169.726074 
L 176.655089 167.999915 
L 179.948419 165.911237 
L 188.181746 160.138888 
L 189.828411 159.204029 
L 191.475077 158.435352 
L 193.121742 157.869069 
L 194.768407 157.494575 
L 198.061738 157.147788 
L 204.6484 156.837065 
L 206.295065 156.583961 
L 207.94173 156.186862 
L 209.588396 155.636338 
L 211.235061 154.924748 
L 212.881726 154.044445 
L 214.528392 152.987788 
L 216.175057 151.747131 
L 217.821722 150.314832 
L 219.468388 148.683246 
L 221.115053 146.852621 
L 224.408384 142.718086 
L 229.34838 135.872603 
L 234.288376 129.116478 
L 237.581707 125.066336 
L 240.875037 121.521567 
L 242.521703 119.970218 
L 244.168368 118.583039 
L 245.815033 117.372636 
L 247.461699 116.351173 
L 249.108364 115.515067 
L 250.75503 114.841153 
L 254.04836 113.882359 
L 257.341691 113.279698 
L 265.575018 112.214151 
L 270.515014 111.766359 
L 273.808344 111.674437 
L 277.101675 111.803205 
L 283.688337 112.419371 
L 288.628333 112.787464 
L 293.568329 112.844821 
L 301.801656 112.812516 
L 308.388317 113.133623 
L 314.974978 113.423198 
L 319.914974 113.358481 
L 347.908285 112.11869 
L 351.201616 111.666284 
L 354.494947 110.914513 
L 357.788278 109.772677 
L 361.081608 108.302095 
L 367.66827 105.257798 
L 370.9616 104.134442 
L 374.254931 103.446391 
L 377.548262 103.087878 
L 382.488258 102.898902 
L 397.308246 102.711028 
L 402.248242 102.863438 
L 407.188238 103.262527 
L 410.481569 103.713056 
L 415.421565 104.695004 
L 428.594888 107.723204 
L 436.828215 109.182905 
L 446.708207 110.75183 
L 451.648203 111.263726 
L 456.588199 111.446389 
L 463.17486 111.379845 
L 474.701518 111.142576 
L 477.994849 110.875697 
L 481.288179 110.402078 
L 484.58151 109.724828 
L 489.521506 108.442353 
L 527.394809 97.538004 
L 532.334805 95.754247 
L 533.981471 95.096087 
L 533.981471 95.096087 
" clip-path="url(#pc31086aa34)" style="fill: none; stroke: #5d5d5d; stroke-opacity: 0.95; stroke-width: 1.25; stroke-linecap: square"/>
   </g>
   <g id="line2d_26">
    <path d="M 41.628529 191.538 
L 46.568525 191.227844 
L 51.508522 190.704658 
L 59.741848 189.575474 
L 69.62184 188.249989 
L 87.735159 186.167013 
L 95.968486 185.017262 
L 100.908482 184.533629 
L 107.495144 184.114592 
L 120.668466 183.361542 
L 125.608463 182.808923 
L 130.548459 182.01143 
L 137.13512 180.652651 
L 145.368447 178.653234 
L 155.248439 176.042552 
L 158.54177 175.027803 
L 161.8351 173.803852 
L 165.128431 172.279786 
L 168.421762 170.401972 
L 171.715092 168.219771 
L 175.008423 165.800182 
L 179.948419 161.872067 
L 193.121742 151.083004 
L 198.061738 147.416617 
L 203.001734 144.087419 
L 207.94173 141.112607 
L 211.235061 139.132991 
L 214.528392 136.814593 
L 216.175057 135.432476 
L 217.821722 133.850611 
L 219.468388 132.03065 
L 221.115053 129.949356 
L 224.408384 125.145114 
L 227.701715 119.786549 
L 234.288376 108.850854 
L 237.581707 103.923461 
L 240.875037 99.641379 
L 242.521703 97.798762 
L 244.168368 96.185192 
L 245.815033 94.82324 
L 247.461699 93.734703 
L 249.108364 92.913928 
L 250.75503 92.321137 
L 252.401695 91.914415 
L 255.695026 91.491535 
L 262.281687 91.048 
L 273.808344 89.751833 
L 277.101675 89.806355 
L 280.395006 90.099475 
L 295.214994 91.860568 
L 301.801656 92.242021 
L 306.741652 92.360862 
L 310.034982 92.289167 
L 313.328313 92.036443 
L 316.621644 91.554471 
L 324.85497 89.985693 
L 328.148301 89.690593 
L 329.794967 89.705015 
L 333.088297 90.043468 
L 338.028293 90.955636 
L 341.321624 91.543742 
L 344.614955 91.896312 
L 347.908285 91.984078 
L 352.848282 91.794694 
L 362.728274 91.23231 
L 366.021604 91.213721 
L 369.314935 91.361266 
L 372.608266 91.707495 
L 382.488258 93.035316 
L 385.781589 93.198262 
L 390.721585 93.11556 
L 397.308246 92.916557 
L 402.248242 93.068998 
L 407.188238 93.513209 
L 412.128234 94.192076 
L 420.361561 95.430561 
L 423.654892 95.729563 
L 426.948223 95.805723 
L 436.828215 95.689841 
L 440.121545 96.012733 
L 443.414876 96.592285 
L 451.648203 98.204479 
L 454.941534 98.552256 
L 458.234864 98.692702 
L 463.17486 98.670626 
L 471.408187 98.453624 
L 474.701518 98.188825 
L 477.994849 97.679312 
L 481.288179 96.835147 
L 484.58151 95.66807 
L 487.874841 94.265838 
L 494.461502 91.112642 
L 504.341494 86.168859 
L 512.574821 81.776702 
L 527.394809 73.786086 
L 532.334805 71.344695 
L 533.981471 70.576588 
L 533.981471 70.576588 
" clip-path="url(#pc31086aa34)" style="fill: none; stroke: #af5a51; stroke-opacity: 0.95; stroke-width: 1.25; stroke-linecap: square"/>
   </g>
   <g id="line2d_27">
    <path d="M 41.628529 191.538 
L 48.215191 190.299694 
L 59.741848 188.01471 
L 64.681844 187.251501 
L 69.62184 186.763796 
L 74.561837 186.573346 
L 82.795163 186.371217 
L 87.735159 186.0171 
L 97.615151 185.206615 
L 104.201813 184.984645 
L 120.668466 184.640759 
L 125.608463 184.281045 
L 130.548459 183.725929 
L 137.13512 182.767785 
L 147.015112 181.08694 
L 156.895104 179.236872 
L 160.188435 178.450635 
L 163.481766 177.465165 
L 166.775096 176.218444 
L 173.361758 173.272713 
L 176.655089 171.874094 
L 179.948419 170.719133 
L 186.535081 168.726893 
L 189.828411 167.358554 
L 191.475077 166.462899 
L 193.121742 165.384795 
L 196.415073 162.781667 
L 203.001734 157.191115 
L 204.6484 156.006888 
L 206.295065 155.007909 
L 207.94173 154.199614 
L 216.175057 150.696632 
L 217.821722 149.621722 
L 219.468388 148.261371 
L 221.115053 146.570886 
L 222.761718 144.594521 
L 226.055049 140.04299 
L 232.641711 130.356607 
L 235.935041 126.183376 
L 239.228372 122.599199 
L 242.521703 119.429146 
L 247.461699 115.067665 
L 252.401695 110.89639 
L 255.695026 108.361771 
L 258.988356 106.163717 
L 262.281687 104.417869 
L 263.928352 103.731982 
L 265.575018 103.168091 
L 267.221683 102.723661 
L 268.868348 102.396159 
L 272.161679 102.081803 
L 275.45501 102.202593 
L 278.748341 102.653459 
L 285.335002 103.691814 
L 288.628333 103.842961 
L 291.921663 103.582588 
L 296.861659 102.751287 
L 301.801656 101.915998 
L 305.094986 101.606119 
L 308.388317 101.520135 
L 311.681648 101.64 
L 314.974978 101.947671 
L 319.914974 102.682325 
L 326.501636 103.70714 
L 329.794967 104.021919 
L 333.088297 104.124722 
L 336.381628 104.050517 
L 341.321624 103.701953 
L 347.908285 102.976951 
L 352.848282 102.225956 
L 357.788278 101.23352 
L 362.728274 100.008876 
L 377.548262 96.14034 
L 382.488258 95.220683 
L 385.781589 94.82293 
L 390.721585 94.533802 
L 395.661581 94.50579 
L 412.128234 94.687862 
L 423.654892 94.285717 
L 426.948223 94.438382 
L 431.888219 94.97844 
L 438.47488 96.022105 
L 451.648203 98.360257 
L 458.234864 99.570618 
L 461.528195 100.01 
L 464.821526 100.220795 
L 468.114856 100.1302 
L 471.408187 99.796263 
L 481.288179 98.557004 
L 492.814837 97.71497 
L 496.108167 97.2056 
L 499.401498 96.490795 
L 502.694829 95.570528 
L 505.98816 94.444777 
L 510.928156 92.414307 
L 517.514817 89.592066 
L 520.808148 88.395411 
L 524.101478 87.498066 
L 525.748144 87.198275 
L 527.394809 87.017279 
L 529.041475 86.969736 
L 530.68814 87.070301 
L 532.334805 87.33363 
L 533.981471 87.774379 
L 533.981471 87.774379 
" clip-path="url(#pc31086aa34)" style="fill: none; stroke: #608eb4; stroke-width: 1.25; stroke-linecap: square"/>
   </g>
   <g id="line2d_28">
    <path d="M 41.628529 191.538 
L 44.92186 191.465868 
L 49.861856 191.075401 
L 64.681844 189.504506 
L 67.975175 189.406653 
L 71.268506 189.50312 
L 82.795163 190.175043 
L 86.088494 190.02162 
L 91.02849 189.466173 
L 107.495144 187.195705 
L 135.488455 183.642635 
L 138.781785 182.971512 
L 142.075116 182.134364 
L 145.368447 181.125882 
L 148.661777 179.942002 
L 151.955108 178.578861 
L 156.895104 176.240919 
L 168.421762 170.287597 
L 179.948419 164.270611 
L 184.888415 161.661794 
L 188.181746 160.124294 
L 191.475077 158.892147 
L 194.768407 158.057577 
L 199.708404 157.250268 
L 203.001734 156.692737 
L 206.295065 155.867023 
L 207.94173 155.291917 
L 209.588396 154.589474 
L 211.235061 153.748352 
L 212.881726 152.75721 
L 214.528392 151.604709 
L 216.175057 150.279506 
L 217.821722 148.77026 
L 219.468388 147.065631 
L 222.761718 143.090803 
L 226.055049 138.583248 
L 234.288376 126.877724 
L 237.581707 122.68375 
L 240.875037 118.93715 
L 244.168368 115.691767 
L 247.461699 113.00124 
L 249.108364 111.873262 
L 252.401695 110.012366 
L 255.695026 108.610658 
L 258.988356 107.587066 
L 262.281687 106.863029 
L 265.575018 106.405019 
L 268.868348 106.218463 
L 272.161679 106.310074 
L 275.45501 106.685398 
L 278.748341 107.305396 
L 285.335002 108.889478 
L 290.274998 109.990148 
L 295.214994 110.798964 
L 300.15499 111.287424 
L 305.094986 111.451786 
L 314.974978 111.557265 
L 319.914974 111.920841 
L 326.501636 112.390853 
L 329.794967 112.389925 
L 334.734963 112.022584 
L 341.321624 111.482548 
L 344.614955 111.468326 
L 349.554951 111.779681 
L 356.141612 112.252593 
L 361.081608 112.266245 
L 367.66827 111.960572 
L 384.134923 110.974086 
L 392.36825 110.015889 
L 395.661581 109.865435 
L 398.954911 110.025604 
L 402.248242 110.485155 
L 413.7749 112.572681 
L 423.654892 113.833709 
L 426.948223 114.490077 
L 438.47488 117.093164 
L 441.768211 117.501048 
L 448.354872 117.959285 
L 453.294868 118.368458 
L 461.528195 119.447824 
L 466.468191 119.966767 
L 469.761522 120.130289 
L 473.054852 120.134803 
L 476.348183 119.979562 
L 479.641514 119.663833 
L 484.58151 118.924255 
L 502.694829 115.614129 
L 507.634825 114.509183 
L 512.574821 113.118741 
L 519.161482 110.9638 
L 532.334805 106.536461 
L 533.981471 106.046343 
L 533.981471 106.046343 
" clip-path="url(#pc31086aa34)" style="fill: none; stroke: #489079; stroke-width: 1.25; stroke-linecap: square"/>
   </g>
   <g id="line2d_29">
    <path d="M 41.628529 191.538 
L 44.92186 190.527815 
L 48.215191 189.813913 
L 51.508522 189.329329 
L 56.448518 188.885939 
L 66.32851 188.191029 
L 69.62184 187.770884 
L 74.561837 186.851078 
L 82.795163 185.149236 
L 87.735159 184.391254 
L 94.321821 183.656767 
L 137.13512 179.457478 
L 140.428451 178.872694 
L 145.368447 177.712355 
L 150.308443 176.238446 
L 155.248439 174.496583 
L 166.775096 170.277739 
L 173.361758 168.215339 
L 186.535081 164.285197 
L 189.828411 163.526102 
L 193.121742 163.011477 
L 196.415073 162.757872 
L 201.355069 162.675131 
L 207.94173 162.610907 
L 211.235061 162.280669 
L 212.881726 161.940239 
L 214.528392 161.441686 
L 216.175057 160.754072 
L 217.821722 159.846461 
L 219.468388 158.687917 
L 221.115053 157.258666 
L 222.761718 155.580024 
L 224.408384 153.682757 
L 227.701715 149.355411 
L 230.995045 144.522756 
L 242.521703 127.007073 
L 245.815033 122.69045 
L 247.461699 120.772208 
L 249.108364 119.03333 
L 250.75503 117.467856 
L 252.401695 116.068765 
L 254.04836 114.829033 
L 255.695026 113.741638 
L 257.341691 112.799558 
L 258.988356 111.995769 
L 260.635022 111.323247 
L 263.928352 110.334434 
L 267.221683 109.735322 
L 270.515014 109.421319 
L 275.45501 109.256961 
L 285.335002 109.252885 
L 291.921663 109.184236 
L 296.861659 108.899351 
L 300.15499 108.513577 
L 303.448321 107.924835 
L 313.328313 105.890899 
L 316.621644 105.597887 
L 319.914974 105.588959 
L 326.501636 105.749207 
L 329.794967 105.568989 
L 333.088297 105.09766 
L 341.321624 103.600457 
L 344.614955 103.278168 
L 349.554951 103.16675 
L 356.141612 103.056964 
L 359.434943 102.748744 
L 362.728274 102.179128 
L 366.021604 101.307983 
L 369.314935 100.095176 
L 372.608266 98.534191 
L 377.548262 96.04296 
L 379.194927 95.326707 
L 380.841593 94.731785 
L 382.488258 94.296741 
L 384.134923 94.059469 
L 385.781589 94.02529 
L 387.428254 94.152634 
L 390.721585 94.711055 
L 395.661581 95.629875 
L 397.308246 95.776963 
L 398.954911 95.784534 
L 402.248242 95.481997 
L 408.834904 94.54442 
L 410.481569 94.436214 
L 413.7749 94.557334 
L 417.06823 95.036652 
L 428.594888 97.199232 
L 433.534884 97.64052 
L 438.47488 97.810077 
L 450.001537 97.976452 
L 453.294868 98.279168 
L 459.88153 99.253423 
L 463.17486 99.687589 
L 466.468191 99.924525 
L 469.761522 99.910365 
L 474.701518 99.580529 
L 482.934845 98.903058 
L 489.521506 98.606163 
L 499.401498 98.441142 
L 505.98816 98.227366 
L 510.928156 97.838646 
L 517.514817 97.057791 
L 533.981471 94.885152 
L 533.981471 94.885152 
" clip-path="url(#pc31086aa34)" style="fill: none; stroke: #eea92b; stroke-opacity: 0.95; stroke-width: 1.25; stroke-linecap: square"/>
   </g>
   <g id="line2d_30">
    <path d="M 41.628529 191.538 
L 51.508522 190.59908 
L 59.741848 190.042199 
L 66.32851 189.789355 
L 72.915171 189.733417 
L 84.441829 189.705217 
L 99.261817 189.408142 
L 105.848478 189.335387 
L 109.141809 189.101851 
L 112.43514 188.643458 
L 123.961797 186.581023 
L 127.255128 186.333636 
L 135.488455 185.958459 
L 138.781785 185.547622 
L 142.075116 184.876796 
L 147.015112 183.529381 
L 158.54177 179.888332 
L 166.775096 177.07391 
L 175.008423 173.977378 
L 183.24175 170.736096 
L 186.535081 169.280855 
L 189.828411 167.605174 
L 193.121742 165.621284 
L 198.061738 162.157394 
L 203.001734 158.685538 
L 206.295065 156.702363 
L 209.588396 155.077301 
L 214.528392 152.664154 
L 216.175057 151.695982 
L 217.821722 150.574954 
L 219.468388 149.258493 
L 221.115053 147.719316 
L 224.408384 144.101811 
L 229.34838 137.957056 
L 232.641711 133.871073 
L 235.935041 130.151322 
L 239.228372 126.893634 
L 242.521703 124.116212 
L 245.815033 121.837117 
L 249.108364 120.067664 
L 252.401695 118.751538 
L 255.695026 117.793414 
L 258.988356 117.097496 
L 263.928352 116.361162 
L 267.221683 116.064241 
L 270.515014 115.961286 
L 273.808344 116.086416 
L 277.101675 116.456418 
L 282.041671 117.294264 
L 286.981667 118.14993 
L 290.274998 118.561126 
L 295.214994 118.89032 
L 300.15499 118.958943 
L 308.388317 118.762982 
L 316.621644 118.624221 
L 323.208305 118.780494 
L 336.381628 119.221914 
L 339.674959 119.143601 
L 342.968289 118.887441 
L 354.494947 117.516353 
L 357.788278 117.609456 
L 361.081608 118.036041 
L 369.314935 119.390297 
L 372.608266 119.595097 
L 377.548262 119.518071 
L 384.134923 119.363588 
L 389.074919 119.578865 
L 394.014915 119.824371 
L 397.308246 119.824725 
L 400.601577 119.610602 
L 410.481569 118.721429 
L 413.7749 118.742265 
L 417.06823 118.993374 
L 420.361561 119.432554 
L 425.301557 120.351478 
L 436.828215 122.790387 
L 441.768211 123.48466 
L 453.294868 124.814313 
L 461.528195 126.102724 
L 464.821526 126.309914 
L 468.114856 126.158852 
L 473.054852 125.500966 
L 476.348183 125.064522 
L 479.641514 124.862031 
L 482.934845 124.999386 
L 491.168171 125.661224 
L 494.461502 125.508156 
L 497.754833 124.978257 
L 502.694829 123.812443 
L 507.634825 122.685993 
L 510.928156 122.147143 
L 515.868152 121.572673 
L 525.748144 120.537543 
L 529.041475 120.01055 
L 532.334805 119.294552 
L 533.981471 118.847295 
L 533.981471 118.847295 
" clip-path="url(#pc31086aa34)" style="fill: none; stroke: #676391; stroke-width: 1.25; stroke-linecap: square"/>
   </g>
   <g id="patch_4">
    <path d="M 31.705 208.17 
L 31.705 41.85 
" style="fill: none; stroke: #aaaaaa; stroke-width: 0.75; stroke-linejoin: miter; stroke-linecap: square"/>
   </g>
   <g id="patch_5">
    <path d="M 41.628529 218.17 
L 533.981471 218.17 
" style="fill: none; stroke: #aaaaaa; stroke-width: 0.75; stroke-linejoin: miter; stroke-linecap: square"/>
   </g>
   <g id="legend_1">
    <g id="line2d_31">
     <path d="M 44.805 15.786563 
L 53.805 15.786563 
L 62.805 15.786563 
" style="fill: none; stroke-dasharray: 5.55,2.4; stroke-dashoffset: 0; stroke: #5d5d5d; stroke-width: 1.5"/>
    </g>
    <g id="text_24">
     <!-- Сырое молоко -->
     <g style="fill: #4b4b4b" transform="translate(70.005 18.936563) scale(0.09 -0.09)">
      <defs>
       <path id="Ubuntu-421" d="M 2458 -96 
Q 1990 -96 1606 57 
Q 1222 211 947 505 
Q 672 800 521 1232 
Q 371 1664 371 2221 
Q 371 2778 540 3210 
Q 710 3642 998 3936 
Q 1286 4230 1670 4384 
Q 2054 4538 2490 4538 
Q 2765 4538 2985 4499 
Q 3206 4461 3369 4409 
Q 3533 4358 3635 4307 
Q 3738 4256 3776 4230 
L 3597 3718 
Q 3539 3757 3430 3801 
Q 3322 3846 3184 3891 
Q 3046 3936 2883 3965 
Q 2720 3994 2554 3994 
Q 2202 3994 1920 3872 
Q 1638 3750 1440 3520 
Q 1242 3290 1136 2960 
Q 1030 2630 1030 2221 
Q 1030 1824 1123 1497 
Q 1216 1171 1401 937 
Q 1587 704 1865 576 
Q 2144 448 2515 448 
Q 2944 448 3225 537 
Q 3507 627 3648 698 
L 3808 186 
Q 3763 154 3648 106 
Q 3533 58 3360 13 
Q 3187 -32 2956 -64 
Q 2726 -96 2458 -96 
z
" transform="scale(0.015625)"/>
       <path id="Ubuntu-44b" d="M 1734 1645 
Q 1562 1645 1398 1635 
Q 1235 1626 1107 1594 
L 1107 448 
Q 1146 442 1219 435 
Q 1293 429 1379 425 
Q 1466 422 1555 419 
Q 1645 416 1715 416 
Q 2106 416 2317 563 
Q 2528 710 2528 1037 
Q 2528 1197 2461 1312 
Q 2394 1427 2282 1500 
Q 2170 1574 2029 1609 
Q 1888 1645 1734 1645 
z
M 512 3328 
L 1107 3328 
L 1107 2054 
Q 1216 2080 1424 2105 
Q 1632 2131 1824 2131 
Q 2086 2131 2323 2070 
Q 2560 2010 2739 1878 
Q 2918 1747 3024 1539 
Q 3130 1331 3130 1043 
Q 3130 742 3027 531 
Q 2925 320 2739 185 
Q 2554 51 2291 -9 
Q 2029 -70 1715 -70 
Q 1414 -70 1107 -35 
Q 800 0 512 70 
L 512 3328 
z
M 4339 0 
L 3744 0 
L 3744 3328 
L 4339 3328 
L 4339 0 
z
" transform="scale(0.015625)"/>
       <path id="Ubuntu-43e" d="M 3450 1664 
Q 3450 1267 3334 947 
Q 3219 627 3011 396 
Q 2803 166 2515 41 
Q 2227 -83 1888 -83 
Q 1549 -83 1261 41 
Q 973 166 765 396 
Q 557 627 441 947 
Q 326 1267 326 1664 
Q 326 2054 441 2377 
Q 557 2701 765 2931 
Q 973 3162 1261 3286 
Q 1549 3411 1888 3411 
Q 2227 3411 2515 3286 
Q 2803 3162 3011 2931 
Q 3219 2701 3334 2377 
Q 3450 2054 3450 1664 
z
M 2829 1664 
Q 2829 2227 2576 2556 
Q 2323 2886 1888 2886 
Q 1453 2886 1200 2556 
Q 947 2227 947 1664 
Q 947 1101 1200 771 
Q 1453 442 1888 442 
Q 2323 442 2576 771 
Q 2829 1101 2829 1664 
z
" transform="scale(0.015625)"/>
       <path id="Ubuntu-435" d="M 326 1658 
Q 326 2099 454 2428 
Q 582 2758 793 2976 
Q 1005 3194 1280 3302 
Q 1555 3411 1843 3411 
Q 2515 3411 2873 2992 
Q 3232 2573 3232 1715 
Q 3232 1677 3232 1616 
Q 3232 1555 3226 1504 
L 947 1504 
Q 986 986 1248 717 
Q 1510 448 2067 448 
Q 2381 448 2595 502 
Q 2810 557 2918 608 
L 3002 109 
Q 2893 51 2621 -13 
Q 2349 -77 2003 -77 
Q 1568 -77 1251 54 
Q 934 186 729 416 
Q 525 646 425 963 
Q 326 1280 326 1658 
z
M 2611 1984 
Q 2618 2387 2410 2646 
Q 2202 2906 1837 2906 
Q 1632 2906 1475 2826 
Q 1318 2746 1209 2618 
Q 1101 2490 1040 2323 
Q 979 2157 960 1984 
L 2611 1984 
z
" transform="scale(0.015625)"/>
       <path id="Ubuntu-20" transform="scale(0.015625)"/>
       <path id="Ubuntu-43c" d="M 1146 2451 
Q 1082 1818 1050 1187 
Q 1018 557 998 0 
L 429 0 
Q 442 390 467 816 
Q 493 1242 525 1674 
Q 557 2106 595 2525 
Q 634 2944 678 3328 
L 1222 3328 
Q 1427 2995 1702 2416 
Q 1978 1837 2336 1082 
Q 2694 1837 2969 2416 
Q 3245 2995 3450 3328 
L 4000 3328 
Q 4045 2944 4083 2525 
Q 4122 2106 4154 1674 
Q 4186 1242 4211 816 
Q 4237 390 4250 0 
L 3661 0 
Q 3642 557 3610 1187 
Q 3578 1818 3514 2451 
Q 3411 2253 3276 1974 
Q 3142 1696 3011 1408 
Q 2880 1120 2765 857 
Q 2650 595 2586 442 
L 2086 442 
Q 2016 602 1897 864 
Q 1779 1126 1648 1417 
Q 1517 1709 1382 1987 
Q 1248 2266 1146 2451 
z
" transform="scale(0.015625)"/>
      </defs>
      <use xlink:href="#Ubuntu-421"/>
      <use xlink:href="#Ubuntu-44b" x="61.999985"/>
      <use xlink:href="#Ubuntu-440" x="137.799973"/>
      <use xlink:href="#Ubuntu-43e" x="196.699966"/>
      <use xlink:href="#Ubuntu-435" x="255.699951"/>
      <use xlink:href="#Ubuntu-20" x="311.599945"/>
      <use xlink:href="#Ubuntu-43c" x="334.699936"/>
      <use xlink:href="#Ubuntu-43e" x="407.799927"/>
      <use xlink:href="#Ubuntu-43b" x="466.799911"/>
      <use xlink:href="#Ubuntu-43e" x="526.599899"/>
      <use xlink:href="#Ubuntu-43a" x="585.599884"/>
      <use xlink:href="#Ubuntu-43e" x="636.424881"/>
     </g>
    </g>
    <g id="line2d_32">
     <path d="M 44.805 28.935 
L 53.805 28.935 
L 62.805 28.935 
" style="fill: none; stroke: #5d5d5d; stroke-opacity: 0.95; stroke-width: 1.25; stroke-linecap: square"/>
    </g>
    <g id="text_25">
     <!-- Пастеризованное молоко -->
     <g style="fill: #4b4b4b" transform="translate(70.005 32.085) scale(0.09 -0.09)">
      <defs>
       <path id="Ubuntu-41f" d="M 3923 4435 
L 3923 0 
L 3302 0 
L 3302 3904 
L 1171 3904 
L 1171 0 
L 550 0 
L 550 4435 
L 3923 4435 
z
" transform="scale(0.015625)"/>
       <path id="Ubuntu-430" d="M 1638 429 
Q 1850 429 2013 438 
Q 2176 448 2285 474 
L 2285 1466 
Q 2221 1498 2077 1520 
Q 1933 1542 1728 1542 
Q 1594 1542 1443 1523 
Q 1293 1504 1168 1443 
Q 1043 1382 960 1276 
Q 877 1171 877 998 
Q 877 678 1081 553 
Q 1286 429 1638 429 
z
M 1587 3411 
Q 1946 3411 2192 3318 
Q 2438 3226 2588 3056 
Q 2739 2886 2803 2652 
Q 2867 2419 2867 2138 
L 2867 58 
Q 2790 45 2652 22 
Q 2515 0 2342 -19 
Q 2170 -38 1968 -54 
Q 1766 -70 1568 -70 
Q 1286 -70 1049 -12 
Q 813 45 640 169 
Q 467 294 371 499 
Q 275 704 275 992 
Q 275 1267 387 1465 
Q 499 1664 691 1785 
Q 883 1907 1139 1964 
Q 1395 2022 1677 2022 
Q 1766 2022 1862 2012 
Q 1958 2003 2044 1987 
Q 2131 1971 2195 1958 
Q 2259 1946 2285 1939 
L 2285 2106 
Q 2285 2253 2253 2397 
Q 2221 2541 2137 2653 
Q 2054 2765 1910 2832 
Q 1766 2899 1536 2899 
Q 1242 2899 1021 2857 
Q 800 2816 691 2771 
L 621 3264 
Q 736 3315 1005 3363 
Q 1274 3411 1587 3411 
z
" transform="scale(0.015625)"/>
       <path id="Ubuntu-441" d="M 1958 -77 
Q 1555 -77 1251 51 
Q 947 179 739 409 
Q 531 640 428 957 
Q 326 1274 326 1658 
Q 326 2042 438 2362 
Q 550 2682 755 2915 
Q 960 3149 1257 3280 
Q 1555 3411 1920 3411 
Q 2144 3411 2368 3372 
Q 2592 3334 2797 3251 
L 2662 2746 
Q 2528 2810 2352 2848 
Q 2176 2886 1978 2886 
Q 1478 2886 1212 2572 
Q 947 2259 947 1658 
Q 947 1389 1008 1165 
Q 1069 941 1200 781 
Q 1331 621 1536 534 
Q 1741 448 2035 448 
Q 2272 448 2464 493 
Q 2656 538 2765 589 
L 2848 90 
Q 2797 58 2701 29 
Q 2605 0 2483 -22 
Q 2362 -45 2224 -61 
Q 2086 -77 1958 -77 
z
" transform="scale(0.015625)"/>
       <path id="Ubuntu-438" d="M 3309 3328 
L 3309 0 
L 2733 0 
L 2733 2534 
Q 2541 2291 2310 1964 
Q 2080 1638 1849 1289 
Q 1619 941 1408 601 
Q 1197 262 1043 0 
L 512 0 
L 512 3328 
L 1088 3328 
L 1088 934 
Q 1254 1210 1465 1539 
Q 1677 1869 1904 2192 
Q 2131 2515 2358 2812 
Q 2586 3110 2784 3328 
L 3309 3328 
z
" transform="scale(0.015625)"/>
       <path id="Ubuntu-437" d="M 1357 3411 
Q 1645 3411 1894 3353 
Q 2144 3296 2323 3181 
Q 2502 3066 2604 2893 
Q 2707 2720 2707 2490 
Q 2707 2342 2656 2220 
Q 2605 2099 2528 2003 
Q 2451 1907 2358 1840 
Q 2266 1773 2182 1747 
Q 2477 1658 2646 1430 
Q 2816 1203 2816 858 
Q 2816 384 2432 153 
Q 2048 -77 1389 -77 
Q 986 -77 694 -13 
Q 403 51 282 109 
L 384 614 
Q 486 576 752 509 
Q 1018 442 1389 442 
Q 1792 442 2003 566 
Q 2214 691 2214 941 
Q 2214 1120 2134 1232 
Q 2054 1344 1932 1401 
Q 1811 1459 1670 1478 
Q 1530 1498 1408 1498 
L 851 1498 
L 851 1971 
L 1389 1971 
Q 1504 1971 1629 1987 
Q 1754 2003 1859 2054 
Q 1965 2106 2035 2198 
Q 2106 2291 2106 2445 
Q 2106 2566 2045 2652 
Q 1984 2739 1881 2796 
Q 1779 2854 1641 2883 
Q 1504 2912 1357 2912 
Q 1242 2912 1107 2893 
Q 973 2874 845 2845 
Q 717 2816 614 2784 
Q 512 2752 467 2726 
L 358 3238 
Q 410 3258 518 3290 
Q 627 3322 764 3347 
Q 902 3373 1056 3392 
Q 1210 3411 1357 3411 
z
" transform="scale(0.015625)"/>
      </defs>
      <use xlink:href="#Ubuntu-41f"/>
      <use xlink:href="#Ubuntu-430" x="69.899994"/>
      <use xlink:href="#Ubuntu-441" x="122.099991"/>
      <use xlink:href="#Ubuntu-442" x="170.099976"/>
      <use xlink:href="#Ubuntu-435" x="216.399963"/>
      <use xlink:href="#Ubuntu-440" x="272.299957"/>
      <use xlink:href="#Ubuntu-438" x="331.199951"/>
      <use xlink:href="#Ubuntu-437" x="390.899948"/>
      <use xlink:href="#Ubuntu-43e" x="439.799942"/>
      <use xlink:href="#Ubuntu-432" x="498.799927"/>
      <use xlink:href="#Ubuntu-430" x="553.599915"/>
      <use xlink:href="#Ubuntu-43d" x="605.799911"/>
      <use xlink:href="#Ubuntu-43d" x="664.399902"/>
      <use xlink:href="#Ubuntu-43e" x="722.999893"/>
      <use xlink:href="#Ubuntu-435" x="781.999878"/>
      <use xlink:href="#Ubuntu-20" x="837.899872"/>
      <use xlink:href="#Ubuntu-43c" x="860.999863"/>
      <use xlink:href="#Ubuntu-43e" x="934.099854"/>
      <use xlink:href="#Ubuntu-43b" x="993.099838"/>
      <use xlink:href="#Ubuntu-43e" x="1052.899826"/>
      <use xlink:href="#Ubuntu-43a" x="1111.899811"/>
      <use xlink:href="#Ubuntu-43e" x="1162.724808"/>
     </g>
    </g>
    <g id="line2d_33">
     <path d="M 197.961094 15.786563 
L 206.961094 15.786563 
L 215.961094 15.786563 
" style="fill: none; stroke: #af5a51; stroke-opacity: 0.95; stroke-width: 1.25; stroke-linecap: square"/>
    </g>
    <g id="text_26">
     <!-- Масло сливочное -->
     <g style="fill: #4b4b4b" transform="translate(223.161094 18.936563) scale(0.09 -0.09)">
      <defs>
       <path id="Ubuntu-41c" d="M 2541 614 
Q 2477 768 2371 1005 
Q 2266 1242 2144 1517 
Q 2022 1792 1884 2083 
Q 1747 2374 1625 2633 
Q 1504 2893 1398 3097 
Q 1293 3302 1229 3411 
Q 1158 2656 1113 1776 
Q 1069 896 1037 0 
L 429 0 
Q 454 576 486 1161 
Q 518 1747 560 2313 
Q 602 2880 650 3417 
Q 698 3955 755 4435 
L 1299 4435 
Q 1472 4154 1670 3770 
Q 1869 3386 2067 2966 
Q 2266 2547 2451 2128 
Q 2637 1709 2790 1363 
Q 2944 1709 3129 2128 
Q 3315 2547 3513 2966 
Q 3712 3386 3910 3770 
Q 4109 4154 4282 4435 
L 4826 4435 
Q 5043 2291 5152 0 
L 4544 0 
Q 4512 896 4467 1776 
Q 4422 2656 4352 3411 
Q 4288 3302 4182 3097 
Q 4077 2893 3955 2633 
Q 3834 2374 3696 2083 
Q 3558 1792 3436 1517 
Q 3315 1242 3209 1005 
Q 3104 768 3040 614 
L 2541 614 
z
" transform="scale(0.015625)"/>
       <path id="Ubuntu-447" d="M 890 3328 
L 890 2349 
Q 890 1971 1082 1820 
Q 1274 1670 1606 1670 
Q 1850 1670 2013 1696 
Q 2176 1722 2304 1754 
L 2304 3328 
L 2899 3328 
L 2899 0 
L 2304 0 
L 2304 1293 
Q 2253 1280 2169 1261 
Q 2086 1242 1980 1226 
Q 1875 1210 1760 1197 
Q 1645 1184 1536 1184 
Q 1261 1184 1033 1241 
Q 806 1299 643 1433 
Q 480 1568 387 1789 
Q 294 2010 294 2342 
L 294 3328 
L 890 3328 
z
" transform="scale(0.015625)"/>
      </defs>
      <use xlink:href="#Ubuntu-41c"/>
      <use xlink:href="#Ubuntu-430" x="87.099991"/>
      <use xlink:href="#Ubuntu-441" x="139.299988"/>
      <use xlink:href="#Ubuntu-43b" x="187.674973"/>
      <use xlink:href="#Ubuntu-43e" x="247.47496"/>
      <use xlink:href="#Ubuntu-20" x="306.474945"/>
      <use xlink:href="#Ubuntu-441" x="329.574936"/>
      <use xlink:href="#Ubuntu-43b" x="377.949921"/>
      <use xlink:href="#Ubuntu-438" x="437.749908"/>
      <use xlink:href="#Ubuntu-432" x="497.449905"/>
      <use xlink:href="#Ubuntu-43e" x="552.249893"/>
      <use xlink:href="#Ubuntu-447" x="611.249878"/>
      <use xlink:href="#Ubuntu-43d" x="664.549866"/>
      <use xlink:href="#Ubuntu-43e" x="723.149857"/>
      <use xlink:href="#Ubuntu-435" x="782.149841"/>
     </g>
    </g>
    <g id="line2d_34">
     <path d="M 197.961094 28.935 
L 206.961094 28.935 
L 215.961094 28.935 
" style="fill: none; stroke: #608eb4; stroke-width: 1.25; stroke-linecap: square"/>
    </g>
    <g id="text_27">
     <!-- Сыр -->
     <g style="fill: #4b4b4b" transform="translate(223.161094 32.085) scale(0.09 -0.09)">
      <use xlink:href="#Ubuntu-421"/>
      <use xlink:href="#Ubuntu-44b" x="61.999985"/>
      <use xlink:href="#Ubuntu-440" x="137.799973"/>
     </g>
    </g>
    <g id="line2d_35">
     <path d="M 316.583906 15.786563 
L 325.583906 15.786563 
L 334.583906 15.786563 
" style="fill: none; stroke: #489079; stroke-width: 1.25; stroke-linecap: square"/>
    </g>
    <g id="text_28">
     <!-- Сметана -->
     <g style="fill: #4b4b4b" transform="translate(341.783906 18.936563) scale(0.09 -0.09)">
      <use xlink:href="#Ubuntu-421"/>
      <use xlink:href="#Ubuntu-43c" x="61.999985"/>
      <use xlink:href="#Ubuntu-435" x="135.099976"/>
      <use xlink:href="#Ubuntu-442" x="190.999969"/>
      <use xlink:href="#Ubuntu-430" x="237.299957"/>
      <use xlink:href="#Ubuntu-43d" x="289.499954"/>
      <use xlink:href="#Ubuntu-430" x="348.099945"/>
     </g>
    </g>
    <g id="line2d_36">
     <path d="M 395.810625 15.786563 
L 404.810625 15.786563 
L 413.810625 15.786563 
" style="fill: none; stroke: #eea92b; stroke-opacity: 0.95; stroke-width: 1.25; stroke-linecap: square"/>
    </g>
    <g id="text_29">
     <!-- Йогрут -->
     <g style="fill: #4b4b4b" transform="translate(421.010625 18.936563) scale(0.09 -0.09)">
      <defs>
       <path id="Ubuntu-419" d="M 550 0 
L 550 4435 
L 1158 4435 
L 1158 1152 
Q 1363 1491 1660 1926 
Q 1958 2362 2294 2813 
Q 2630 3264 2972 3689 
Q 3315 4115 3616 4435 
L 4109 4435 
L 4109 0 
L 3501 0 
L 3501 3462 
Q 3322 3258 3110 2989 
Q 2899 2720 2675 2416 
Q 2451 2112 2224 1785 
Q 1997 1459 1785 1142 
Q 1574 826 1392 531 
Q 1210 237 1069 0 
L 550 0 
z
M 2333 4890 
Q 1930 4890 1677 5094 
Q 1424 5299 1373 5664 
L 1827 5786 
Q 1878 5581 2000 5453 
Q 2122 5325 2333 5325 
Q 2544 5325 2665 5453 
Q 2787 5581 2838 5786 
L 3286 5664 
Q 3235 5299 2985 5094 
Q 2736 4890 2333 4890 
z
" transform="scale(0.015625)"/>
       <path id="Ubuntu-433" d="M 2573 2829 
L 1107 2829 
L 1107 0 
L 512 0 
L 512 3328 
L 2573 3328 
L 2573 2829 
z
" transform="scale(0.015625)"/>
       <path id="Ubuntu-443" d="M 122 -621 
Q 192 -653 304 -681 
Q 416 -710 525 -710 
Q 877 -710 1075 -553 
Q 1274 -397 1434 -45 
Q 1030 723 681 1584 
Q 333 2445 102 3328 
L 742 3328 
Q 813 3040 912 2707 
Q 1011 2374 1132 2022 
Q 1254 1670 1395 1318 
Q 1536 966 1690 640 
Q 1933 1312 2112 1971 
Q 2291 2630 2451 3328 
L 3066 3328 
Q 2835 2387 2553 1520 
Q 2272 653 1946 -102 
Q 1818 -390 1680 -598 
Q 1542 -806 1376 -940 
Q 1210 -1075 1002 -1139 
Q 794 -1203 531 -1203 
Q 461 -1203 384 -1193 
Q 307 -1184 233 -1168 
Q 160 -1152 99 -1133 
Q 38 -1114 13 -1101 
L 122 -621 
z
" transform="scale(0.015625)"/>
      </defs>
      <use xlink:href="#Ubuntu-419"/>
      <use xlink:href="#Ubuntu-43e" x="72.799988"/>
      <use xlink:href="#Ubuntu-433" x="131.799973"/>
      <use xlink:href="#Ubuntu-440" x="173.59996"/>
      <use xlink:href="#Ubuntu-443" x="231.124954"/>
      <use xlink:href="#Ubuntu-442" x="282.949951"/>
     </g>
    </g>
    <g id="line2d_37">
     <path d="M 468.643125 15.786563 
L 477.643125 15.786563 
L 486.643125 15.786563 
" style="fill: none; stroke: #676391; stroke-width: 1.25; stroke-linecap: square"/>
    </g>
    <g id="text_30">
     <!-- Творог -->
     <g style="fill: #4b4b4b" transform="translate(493.843125 18.936563) scale(0.09 -0.09)">
      <defs>
       <path id="Ubuntu-422" d="M 3514 4435 
L 3514 3898 
L 2118 3898 
L 2118 0 
L 1498 0 
L 1498 3898 
L 102 3898 
L 102 4435 
L 3514 4435 
z
" transform="scale(0.015625)"/>
      </defs>
      <use xlink:href="#Ubuntu-422"/>
      <use xlink:href="#Ubuntu-432" x="49.124985"/>
      <use xlink:href="#Ubuntu-43e" x="103.924973"/>
      <use xlink:href="#Ubuntu-440" x="162.924957"/>
      <use xlink:href="#Ubuntu-43e" x="221.824951"/>
      <use xlink:href="#Ubuntu-433" x="280.824936"/>
     </g>
    </g>
   </g>
   <g id="line2d_38">
    <path d="M 49.26 191.538 
L 526.35 191.538 
" clip-path="url(#pc31086aa34)" style="fill: none; stroke-dasharray: 2.775,1.2; stroke-dashoffset: 0; stroke: #c5c5c5; stroke-width: 0.75"/>
   </g>
  </g>
 </g>
 <defs>
  <clipPath id="p126e0fcf8c">
   <rect x="36.705" y="208.17" width="502.2" height="0"/>
  </clipPath>
  <clipPath id="pc31086aa34">
   <rect x="36.705" y="41.85" width="502.2" height="166.32"/>
  </clipPath>
 </defs>
</svg>
