<?xml version="1.0" encoding="utf-8" standalone="no"?>
<!DOCTYPE svg PUBLIC "-//W3C//DTD SVG 1.1//EN"
  "http://www.w3.org/Graphics/SVG/1.1/DTD/svg11.dtd">
<svg xmlns:xlink="http://www.w3.org/1999/xlink" width="558.425pt" height="251.584219pt" viewBox="0 0 558.425 251.584219" xmlns="http://www.w3.org/2000/svg" version="1.1">
 <metadata>
  <rdf:RDF xmlns:dc="http://purl.org/dc/elements/1.1/" xmlns:cc="http://creativecommons.org/ns#" xmlns:rdf="http://www.w3.org/1999/02/22-rdf-syntax-ns#">
   <cc:Work>
    <dc:type rdf:resource="http://purl.org/dc/dcmitype/StillImage"/>
    <dc:date>2024-04-19T16:47:46.028297</dc:date>
    <dc:format>image/svg+xml</dc:format>
    <dc:creator>
     <cc:Agent>
      <dc:title>Matplotlib v3.8.0, https://matplotlib.org/</dc:title>
     </cc:Agent>
    </dc:creator>
   </cc:Work>
  </rdf:RDF>
 </metadata>
 <defs>
  <style type="text/css">*{stroke-linejoin: round; stroke-linecap: butt}</style>
 </defs>
 <g id="figure_1">
  <g id="patch_1">
   <path d="M 0 251.584219 
L 558.425 251.584219 
L 558.425 0 
L 0 0 
L 0 251.584219 
z
" style="fill: none"/>
  </g>
  <g id="axes_1">
   <g id="patch_2">
    <path d="M 41.705 208.196719 
L 543.905 208.196719 
L 543.905 41.876719 
L 41.705 41.876719 
L 41.705 208.196719 
z
" style="fill: none"/>
   </g>
   <g id="axes_2">
    <g id="patch_3">
     <path d="M 41.705 208.196719 
L 543.905 208.196719 
L 543.905 208.196719 
L 41.705 208.196719 
L 41.705 208.196719 
z
" style="fill: none"/>
    </g>
    <g id="matplotlib.axis_1">
     <g id="xtick_1">
      <g id="line2d_1">
       <path d="M 41.705 208.196719 
L 41.705 208.196719 
" clip-path="url(#pde18e0f7f5)" style="fill: none; stroke-dasharray: 0.5,0.825; stroke-dashoffset: 0; stroke: #d9d9d9; stroke-width: 0.5"/>
      </g>
      <g id="text_1">
       <!-- 2021 -->
       <g style="fill: #808080" transform="translate(32.68 242.904219) scale(0.08 -0.08)">
        <defs>
         <path id="Ubuntu-32" d="M 2989 3302 
Q 2989 3072 2896 2857 
Q 2803 2643 2649 2435 
Q 2496 2227 2304 2025 
Q 2112 1824 1920 1632 
Q 1811 1523 1667 1376 
Q 1523 1229 1395 1069 
Q 1267 909 1180 761 
Q 1094 614 1094 506 
L 3136 506 
L 3136 0 
L 448 0 
Q 442 38 442 76 
Q 442 115 442 147 
Q 442 448 541 707 
Q 640 966 800 1196 
Q 960 1427 1158 1632 
Q 1357 1837 1549 2029 
Q 1709 2182 1853 2332 
Q 1997 2483 2109 2633 
Q 2221 2784 2288 2944 
Q 2355 3104 2355 3283 
Q 2355 3475 2294 3609 
Q 2234 3744 2131 3833 
Q 2029 3923 1891 3964 
Q 1754 4006 1600 4006 
Q 1414 4006 1260 3955 
Q 1107 3904 985 3837 
Q 864 3770 781 3696 
Q 698 3622 653 3584 
L 358 4006 
Q 416 4070 531 4163 
Q 646 4256 806 4339 
Q 966 4422 1164 4480 
Q 1363 4538 1594 4538 
Q 2291 4538 2640 4214 
Q 2989 3891 2989 3302 
z
" transform="scale(0.015625)"/>
         <path id="Ubuntu-30" d="M 320 2221 
Q 320 3334 713 3936 
Q 1107 4538 1805 4538 
Q 2502 4538 2896 3936 
Q 3290 3334 3290 2221 
Q 3290 1107 2896 505 
Q 2502 -96 1805 -96 
Q 1107 -96 713 505 
Q 320 1107 320 2221 
z
M 2662 2221 
Q 2662 2586 2620 2912 
Q 2579 3238 2480 3481 
Q 2381 3725 2214 3869 
Q 2048 4013 1805 4013 
Q 1562 4013 1395 3869 
Q 1229 3725 1129 3481 
Q 1030 3238 988 2912 
Q 947 2586 947 2221 
Q 947 1856 988 1529 
Q 1030 1203 1129 960 
Q 1229 717 1395 573 
Q 1562 429 1805 429 
Q 2048 429 2214 573 
Q 2381 717 2480 960 
Q 2579 1203 2620 1529 
Q 2662 1856 2662 2221 
z
" transform="scale(0.015625)"/>
         <path id="Ubuntu-31" d="M 595 3520 
Q 960 3661 1305 3881 
Q 1651 4102 1939 4435 
L 2362 4435 
L 2362 0 
L 1766 0 
L 1766 3610 
Q 1690 3539 1578 3462 
Q 1466 3386 1334 3315 
Q 1203 3245 1059 3181 
Q 915 3117 781 3072 
L 595 3520 
z
" transform="scale(0.015625)"/>
        </defs>
        <use xlink:href="#Ubuntu-32"/>
        <use xlink:href="#Ubuntu-30" x="56.399994"/>
        <use xlink:href="#Ubuntu-32" x="112.799988"/>
        <use xlink:href="#Ubuntu-31" x="169.199982"/>
       </g>
      </g>
     </g>
     <g id="xtick_2">
      <g id="line2d_2">
       <path d="M 196.260649 208.196719 
L 196.260649 208.196719 
" clip-path="url(#pde18e0f7f5)" style="fill: none; stroke-dasharray: 0.5,0.825; stroke-dashoffset: 0; stroke: #d9d9d9; stroke-width: 0.5"/>
      </g>
      <g id="text_2">
       <!-- 2022 -->
       <g style="fill: #808080" transform="translate(187.235649 242.904219) scale(0.08 -0.08)">
        <use xlink:href="#Ubuntu-32"/>
        <use xlink:href="#Ubuntu-30" x="56.399994"/>
        <use xlink:href="#Ubuntu-32" x="112.799988"/>
        <use xlink:href="#Ubuntu-32" x="169.199982"/>
       </g>
      </g>
     </g>
     <g id="xtick_3">
      <g id="line2d_3">
       <path d="M 350.816298 208.196719 
L 350.816298 208.196719 
" clip-path="url(#pde18e0f7f5)" style="fill: none; stroke-dasharray: 0.5,0.825; stroke-dashoffset: 0; stroke: #d9d9d9; stroke-width: 0.5"/>
      </g>
      <g id="text_3">
       <!-- 2023 -->
       <g style="fill: #808080" transform="translate(341.791298 242.904219) scale(0.08 -0.08)">
        <defs>
         <path id="Ubuntu-33" d="M 1446 435 
Q 2016 435 2262 659 
Q 2509 883 2509 1261 
Q 2509 1504 2406 1670 
Q 2304 1837 2137 1936 
Q 1971 2035 1750 2076 
Q 1530 2118 1299 2118 
L 1146 2118 
L 1146 2605 
L 1357 2605 
Q 1517 2605 1686 2637 
Q 1856 2669 1997 2752 
Q 2138 2835 2227 2979 
Q 2317 3123 2317 3341 
Q 2317 3520 2253 3648 
Q 2189 3776 2083 3859 
Q 1978 3942 1840 3977 
Q 1702 4013 1549 4013 
Q 1242 4013 1027 3923 
Q 813 3834 666 3738 
L 435 4192 
Q 512 4243 630 4304 
Q 749 4365 896 4416 
Q 1043 4467 1212 4502 
Q 1382 4538 1568 4538 
Q 1920 4538 2176 4451 
Q 2432 4365 2598 4208 
Q 2765 4051 2848 3836 
Q 2931 3622 2931 3373 
Q 2931 3027 2732 2780 
Q 2534 2534 2253 2406 
Q 2426 2355 2586 2259 
Q 2746 2163 2864 2016 
Q 2982 1869 3056 1677 
Q 3130 1485 3130 1248 
Q 3130 960 3030 713 
Q 2931 467 2723 288 
Q 2515 109 2201 6 
Q 1888 -96 1459 -96 
Q 1293 -96 1117 -70 
Q 941 -45 787 -6 
Q 634 32 518 70 
Q 403 109 352 134 
L 467 653 
Q 576 602 829 518 
Q 1082 435 1446 435 
z
" transform="scale(0.015625)"/>
        </defs>
        <use xlink:href="#Ubuntu-32"/>
        <use xlink:href="#Ubuntu-30" x="56.399994"/>
        <use xlink:href="#Ubuntu-32" x="112.799988"/>
        <use xlink:href="#Ubuntu-33" x="169.199982"/>
       </g>
      </g>
     </g>
     <g id="xtick_4">
      <g id="line2d_4">
       <path d="M 505.371948 208.196719 
L 505.371948 208.196719 
" clip-path="url(#pde18e0f7f5)" style="fill: none; stroke-dasharray: 0.5,0.825; stroke-dashoffset: 0; stroke: #d9d9d9; stroke-width: 0.5"/>
      </g>
      <g id="text_4">
       <!-- 2024 -->
       <g style="fill: #808080" transform="translate(496.346948 242.904219) scale(0.08 -0.08)">
        <defs>
         <path id="Ubuntu-34" d="M 256 1536 
Q 378 1818 589 2192 
Q 800 2566 1065 2963 
Q 1331 3360 1635 3744 
Q 1939 4128 2246 4435 
L 2816 4435 
L 2816 1619 
L 3341 1619 
L 3341 1133 
L 2816 1133 
L 2816 0 
L 2240 0 
L 2240 1133 
L 256 1133 
L 256 1536 
z
M 2240 3731 
Q 2048 3526 1853 3273 
Q 1658 3021 1472 2745 
Q 1286 2470 1123 2182 
Q 960 1894 832 1619 
L 2240 1619 
L 2240 3731 
z
" transform="scale(0.015625)"/>
        </defs>
        <use xlink:href="#Ubuntu-32"/>
        <use xlink:href="#Ubuntu-30" x="56.399994"/>
        <use xlink:href="#Ubuntu-32" x="112.799988"/>
        <use xlink:href="#Ubuntu-34" x="169.199982"/>
       </g>
      </g>
     </g>
    </g>
    <g id="matplotlib.axis_2"/>
   </g>
   <g id="matplotlib.axis_3">
    <g id="xtick_5">
     <g id="line2d_5">
      <defs>
       <path id="mdcaac06b34" d="M 0 0 
L 0 3 
" style="stroke: #aaaaaa; stroke-width: 0.75"/>
      </defs>
      <g>
       <use xlink:href="#mdcaac06b34" x="41.705" y="218.196719" style="fill: #aaaaaa; stroke: #aaaaaa; stroke-width: 0.75"/>
      </g>
     </g>
     <g id="text_5">
      <!-- Янв -->
      <g style="fill: #808080" transform="translate(34.629375 233.404219) scale(0.08 -0.08)">
       <defs>
        <path id="Ubuntu-42f" d="M 2272 3936 
Q 2029 3936 1808 3897 
Q 1587 3859 1414 3763 
Q 1242 3667 1139 3500 
Q 1037 3334 1037 3085 
Q 1037 2611 1341 2428 
Q 1645 2246 2253 2246 
L 2893 2246 
L 2893 3917 
Q 2822 3917 2726 3923 
Q 2643 3930 2531 3933 
Q 2419 3936 2272 3936 
z
M 2323 4480 
Q 2458 4480 2611 4473 
Q 2765 4467 2921 4454 
Q 3078 4442 3232 4422 
Q 3386 4403 3514 4371 
L 3514 0 
L 2893 0 
L 2893 1734 
L 2362 1734 
Q 2272 1734 2173 1737 
Q 2074 1741 1907 1760 
Q 1792 1606 1657 1401 
Q 1523 1197 1388 966 
Q 1254 736 1123 486 
Q 992 237 883 0 
L 230 0 
Q 333 250 473 518 
Q 614 787 764 1030 
Q 915 1274 1052 1482 
Q 1190 1690 1293 1824 
Q 1146 1869 986 1952 
Q 826 2035 691 2182 
Q 557 2330 470 2550 
Q 384 2771 384 3078 
Q 384 3424 518 3686 
Q 653 3949 905 4125 
Q 1158 4301 1516 4390 
Q 1875 4480 2323 4480 
z
" transform="scale(0.015625)"/>
        <path id="Ubuntu-43d" d="M 3238 0 
L 2643 0 
L 2643 1472 
L 1107 1472 
L 1107 0 
L 512 0 
L 512 3328 
L 1107 3328 
L 1107 1971 
L 2643 1971 
L 2643 3328 
L 3238 3328 
L 3238 0 
z
" transform="scale(0.015625)"/>
        <path id="Ubuntu-432" d="M 1094 448 
Q 1133 442 1203 435 
Q 1274 429 1363 425 
Q 1453 422 1552 419 
Q 1651 416 1741 416 
Q 1926 416 2096 441 
Q 2266 467 2390 531 
Q 2515 595 2588 700 
Q 2662 806 2662 973 
Q 2662 1133 2595 1238 
Q 2528 1344 2413 1408 
Q 2298 1472 2141 1497 
Q 1984 1523 1805 1523 
L 1094 1523 
L 1094 448 
z
M 1728 1965 
Q 1901 1965 2045 1987 
Q 2189 2010 2294 2067 
Q 2400 2125 2461 2221 
Q 2522 2317 2522 2464 
Q 2522 2618 2445 2707 
Q 2368 2797 2243 2845 
Q 2118 2893 1961 2909 
Q 1805 2925 1645 2925 
Q 1498 2925 1347 2918 
Q 1197 2912 1094 2906 
L 1094 1965 
L 1728 1965 
z
M 1715 -58 
Q 1338 -58 1018 -22 
Q 698 13 512 58 
L 512 3296 
Q 698 3341 1018 3376 
Q 1338 3411 1715 3411 
Q 1978 3411 2227 3366 
Q 2477 3322 2669 3216 
Q 2861 3110 2979 2928 
Q 3098 2746 3098 2477 
Q 3098 2234 2976 2061 
Q 2854 1888 2650 1792 
Q 2925 1696 3088 1507 
Q 3251 1318 3251 979 
Q 3251 678 3132 480 
Q 3014 282 2806 160 
Q 2598 38 2316 -10 
Q 2035 -58 1715 -58 
z
" transform="scale(0.015625)"/>
       </defs>
       <use xlink:href="#Ubuntu-42f"/>
       <use xlink:href="#Ubuntu-43d" x="63.499985"/>
       <use xlink:href="#Ubuntu-432" x="122.099976"/>
      </g>
     </g>
    </g>
    <g id="xtick_6">
     <g id="line2d_6">
      <g>
       <use xlink:href="#mdcaac06b34" x="79.814612" y="218.196719" style="fill: #aaaaaa; stroke: #aaaaaa; stroke-width: 0.75"/>
      </g>
     </g>
     <g id="text_6">
      <!-- Апр -->
      <g style="fill: #808080" transform="translate(72.494612 233.404219) scale(0.08 -0.08)">
       <defs>
        <path id="Ubuntu-410" d="M 3514 0 
Q 3405 288 3309 566 
Q 3213 845 3110 1133 
L 1101 1133 
L 698 0 
L 51 0 
Q 307 704 531 1302 
Q 755 1901 969 2438 
Q 1184 2976 1395 3465 
Q 1606 3955 1837 4435 
L 2406 4435 
Q 2637 3955 2848 3465 
Q 3059 2976 3273 2438 
Q 3488 1901 3712 1302 
Q 3936 704 4192 0 
L 3514 0 
z
M 2931 1645 
Q 2726 2202 2524 2723 
Q 2323 3245 2106 3725 
Q 1882 3245 1680 2723 
Q 1478 2202 1280 1645 
L 2931 1645 
z
" transform="scale(0.015625)"/>
        <path id="Ubuntu-43f" d="M 3187 0 
L 2592 0 
L 2592 2829 
L 1107 2829 
L 1107 0 
L 512 0 
L 512 3328 
L 3187 3328 
L 3187 0 
z
" transform="scale(0.015625)"/>
        <path id="Ubuntu-440" d="M 2822 1658 
Q 2822 2240 2534 2553 
Q 2246 2867 1766 2867 
Q 1498 2867 1347 2848 
Q 1197 2829 1107 2803 
L 1107 704 
Q 1216 614 1421 531 
Q 1626 448 1869 448 
Q 2125 448 2307 541 
Q 2490 634 2605 797 
Q 2720 960 2771 1181 
Q 2822 1402 2822 1658 
z
M 3443 1658 
Q 3443 1280 3344 960 
Q 3245 640 3053 409 
Q 2861 179 2582 51 
Q 2304 -77 1946 -77 
Q 1658 -77 1437 0 
Q 1216 77 1107 147 
L 1107 -1184 
L 512 -1184 
L 512 3226 
Q 723 3277 1040 3337 
Q 1357 3398 1773 3398 
Q 2157 3398 2464 3276 
Q 2771 3155 2988 2931 
Q 3206 2707 3324 2384 
Q 3443 2061 3443 1658 
z
" transform="scale(0.015625)"/>
       </defs>
       <use xlink:href="#Ubuntu-410"/>
       <use xlink:href="#Ubuntu-43f" x="66.299988"/>
       <use xlink:href="#Ubuntu-440" x="124.099976"/>
      </g>
     </g>
    </g>
    <g id="xtick_7">
     <g id="line2d_7">
      <g>
       <use xlink:href="#mdcaac06b34" x="118.347664" y="218.196719" style="fill: #aaaaaa; stroke: #aaaaaa; stroke-width: 0.75"/>
      </g>
     </g>
     <g id="text_7">
      <!-- Июл -->
      <g style="fill: #808080" transform="translate(109.800164 233.404219) scale(0.08 -0.08)">
       <defs>
        <path id="Ubuntu-418" d="M 550 0 
L 550 4435 
L 1158 4435 
L 1158 1152 
Q 1363 1491 1660 1926 
Q 1958 2362 2294 2813 
Q 2630 3264 2972 3689 
Q 3315 4115 3616 4435 
L 4109 4435 
L 4109 0 
L 3501 0 
L 3501 3462 
Q 3322 3258 3110 2989 
Q 2899 2720 2675 2416 
Q 2451 2112 2224 1785 
Q 1997 1459 1785 1142 
Q 1574 826 1392 531 
Q 1210 237 1069 0 
L 550 0 
z
" transform="scale(0.015625)"/>
        <path id="Ubuntu-44e" d="M 1107 1952 
L 1837 1952 
Q 1875 2285 2006 2553 
Q 2138 2822 2336 3014 
Q 2534 3206 2790 3308 
Q 3046 3411 3341 3411 
Q 3667 3411 3945 3286 
Q 4224 3162 4429 2931 
Q 4634 2701 4749 2377 
Q 4864 2054 4864 1664 
Q 4864 1267 4749 947 
Q 4634 627 4429 396 
Q 4224 166 3945 41 
Q 3667 -83 3341 -83 
Q 3034 -83 2768 29 
Q 2502 141 2304 342 
Q 2106 544 1981 832 
Q 1856 1120 1830 1472 
L 1107 1472 
L 1107 0 
L 512 0 
L 512 3328 
L 1107 3328 
L 1107 1952 
z
M 4250 1664 
Q 4250 2227 4003 2556 
Q 3757 2886 3341 2886 
Q 2925 2886 2678 2556 
Q 2432 2227 2432 1664 
Q 2432 1101 2678 771 
Q 2925 442 3341 442 
Q 3757 442 4003 771 
Q 4250 1101 4250 1664 
z
" transform="scale(0.015625)"/>
        <path id="Ubuntu-43b" d="M 1670 2829 
Q 1670 2618 1660 2378 
Q 1651 2138 1625 1898 
Q 1600 1658 1555 1424 
Q 1510 1190 1440 986 
Q 1370 781 1264 601 
Q 1158 422 1004 284 
Q 851 147 646 54 
Q 442 -38 166 -64 
L 83 435 
Q 397 499 579 672 
Q 762 845 870 1094 
Q 966 1312 1011 1587 
Q 1056 1862 1075 2160 
Q 1094 2458 1097 2758 
Q 1101 3059 1101 3328 
L 3315 3328 
L 3315 0 
L 2720 0 
L 2720 2829 
L 1670 2829 
z
" transform="scale(0.015625)"/>
       </defs>
       <use xlink:href="#Ubuntu-418"/>
       <use xlink:href="#Ubuntu-44e" x="72.799988"/>
       <use xlink:href="#Ubuntu-43b" x="153.899979"/>
      </g>
     </g>
    </g>
    <g id="xtick_8">
     <g id="line2d_8">
      <g>
       <use xlink:href="#mdcaac06b34" x="157.304157" y="218.196719" style="fill: #aaaaaa; stroke: #aaaaaa; stroke-width: 0.75"/>
      </g>
     </g>
     <g id="text_8">
      <!-- Окт -->
      <g style="fill: #808080" transform="translate(150.192282 233.404219) scale(0.08 -0.08)">
       <defs>
        <path id="Ubuntu-41e" d="M 371 2221 
Q 371 2790 540 3225 
Q 710 3661 1001 3952 
Q 1293 4243 1680 4390 
Q 2067 4538 2502 4538 
Q 2931 4538 3312 4390 
Q 3693 4243 3981 3952 
Q 4269 3661 4438 3225 
Q 4608 2790 4608 2221 
Q 4608 1651 4438 1216 
Q 4269 781 3981 489 
Q 3693 198 3312 51 
Q 2931 -96 2502 -96 
Q 2067 -96 1680 51 
Q 1293 198 1001 489 
Q 710 781 540 1216 
Q 371 1651 371 2221 
z
M 1024 2221 
Q 1024 1818 1126 1488 
Q 1229 1158 1417 928 
Q 1606 698 1878 573 
Q 2150 448 2490 448 
Q 2829 448 3097 573 
Q 3366 698 3555 928 
Q 3744 1158 3846 1488 
Q 3949 1818 3949 2221 
Q 3949 2624 3846 2953 
Q 3744 3283 3555 3513 
Q 3366 3744 3097 3869 
Q 2829 3994 2490 3994 
Q 2150 3994 1878 3869 
Q 1606 3744 1417 3513 
Q 1229 3283 1126 2953 
Q 1024 2624 1024 2221 
z
" transform="scale(0.015625)"/>
        <path id="Ubuntu-43a" d="M 1728 1811 
Q 1926 1670 2156 1456 
Q 2387 1242 2608 992 
Q 2829 742 3021 483 
Q 3213 224 3347 0 
L 2643 0 
Q 2502 218 2313 445 
Q 2125 672 1920 883 
Q 1715 1094 1504 1273 
Q 1293 1453 1107 1574 
L 1107 0 
L 512 0 
L 512 3328 
L 1107 3328 
L 1107 1901 
Q 1261 2048 1459 2243 
Q 1658 2438 1859 2640 
Q 2061 2842 2233 3024 
Q 2406 3206 2515 3328 
L 3206 3328 
Q 3066 3174 2877 2979 
Q 2688 2784 2486 2579 
Q 2285 2374 2086 2172 
Q 1888 1971 1728 1811 
z
" transform="scale(0.015625)"/>
        <path id="Ubuntu-442" d="M 2861 3328 
L 2861 2829 
L 1779 2829 
L 1779 0 
L 1184 0 
L 1184 2829 
L 102 2829 
L 102 3328 
L 2861 3328 
z
" transform="scale(0.015625)"/>
       </defs>
       <use xlink:href="#Ubuntu-41e"/>
       <use xlink:href="#Ubuntu-43a" x="77.799988"/>
       <use xlink:href="#Ubuntu-442" x="131.499985"/>
      </g>
     </g>
    </g>
    <g id="xtick_9">
     <g id="line2d_9">
      <g>
       <use xlink:href="#mdcaac06b34" x="196.260649" y="218.196719" style="fill: #aaaaaa; stroke: #aaaaaa; stroke-width: 0.75"/>
      </g>
     </g>
     <g id="text_9">
      <!-- Янв -->
      <g style="fill: #808080" transform="translate(189.185024 233.404219) scale(0.08 -0.08)">
       <use xlink:href="#Ubuntu-42f"/>
       <use xlink:href="#Ubuntu-43d" x="63.499985"/>
       <use xlink:href="#Ubuntu-432" x="122.099976"/>
      </g>
     </g>
    </g>
    <g id="xtick_10">
     <g id="line2d_10">
      <g>
       <use xlink:href="#mdcaac06b34" x="234.370261" y="218.196719" style="fill: #aaaaaa; stroke: #aaaaaa; stroke-width: 0.75"/>
      </g>
     </g>
     <g id="text_10">
      <!-- Апр -->
      <g style="fill: #808080" transform="translate(227.050261 233.404219) scale(0.08 -0.08)">
       <use xlink:href="#Ubuntu-410"/>
       <use xlink:href="#Ubuntu-43f" x="66.299988"/>
       <use xlink:href="#Ubuntu-440" x="124.099976"/>
      </g>
     </g>
    </g>
    <g id="xtick_11">
     <g id="line2d_11">
      <g>
       <use xlink:href="#mdcaac06b34" x="272.903314" y="218.196719" style="fill: #aaaaaa; stroke: #aaaaaa; stroke-width: 0.75"/>
      </g>
     </g>
     <g id="text_11">
      <!-- Июл -->
      <g style="fill: #808080" transform="translate(264.355814 233.404219) scale(0.08 -0.08)">
       <use xlink:href="#Ubuntu-418"/>
       <use xlink:href="#Ubuntu-44e" x="72.799988"/>
       <use xlink:href="#Ubuntu-43b" x="153.899979"/>
      </g>
     </g>
    </g>
    <g id="xtick_12">
     <g id="line2d_12">
      <g>
       <use xlink:href="#mdcaac06b34" x="311.859806" y="218.196719" style="fill: #aaaaaa; stroke: #aaaaaa; stroke-width: 0.75"/>
      </g>
     </g>
     <g id="text_12">
      <!-- Окт -->
      <g style="fill: #808080" transform="translate(304.747931 233.404219) scale(0.08 -0.08)">
       <use xlink:href="#Ubuntu-41e"/>
       <use xlink:href="#Ubuntu-43a" x="77.799988"/>
       <use xlink:href="#Ubuntu-442" x="131.499985"/>
      </g>
     </g>
    </g>
    <g id="xtick_13">
     <g id="line2d_13">
      <g>
       <use xlink:href="#mdcaac06b34" x="350.816298" y="218.196719" style="fill: #aaaaaa; stroke: #aaaaaa; stroke-width: 0.75"/>
      </g>
     </g>
     <g id="text_13">
      <!-- Янв -->
      <g style="fill: #808080" transform="translate(343.740673 233.404219) scale(0.08 -0.08)">
       <use xlink:href="#Ubuntu-42f"/>
       <use xlink:href="#Ubuntu-43d" x="63.499985"/>
       <use xlink:href="#Ubuntu-432" x="122.099976"/>
      </g>
     </g>
    </g>
    <g id="xtick_14">
     <g id="line2d_14">
      <g>
       <use xlink:href="#mdcaac06b34" x="388.925911" y="218.196719" style="fill: #aaaaaa; stroke: #aaaaaa; stroke-width: 0.75"/>
      </g>
     </g>
     <g id="text_14">
      <!-- Апр -->
      <g style="fill: #808080" transform="translate(381.605911 233.404219) scale(0.08 -0.08)">
       <use xlink:href="#Ubuntu-410"/>
       <use xlink:href="#Ubuntu-43f" x="66.299988"/>
       <use xlink:href="#Ubuntu-440" x="124.099976"/>
      </g>
     </g>
    </g>
    <g id="xtick_15">
     <g id="line2d_15">
      <g>
       <use xlink:href="#mdcaac06b34" x="427.458963" y="218.196719" style="fill: #aaaaaa; stroke: #aaaaaa; stroke-width: 0.75"/>
      </g>
     </g>
     <g id="text_15">
      <!-- Июл -->
      <g style="fill: #808080" transform="translate(418.911463 233.404219) scale(0.08 -0.08)">
       <use xlink:href="#Ubuntu-418"/>
       <use xlink:href="#Ubuntu-44e" x="72.799988"/>
       <use xlink:href="#Ubuntu-43b" x="153.899979"/>
      </g>
     </g>
    </g>
    <g id="xtick_16">
     <g id="line2d_16">
      <g>
       <use xlink:href="#mdcaac06b34" x="466.415455" y="218.196719" style="fill: #aaaaaa; stroke: #aaaaaa; stroke-width: 0.75"/>
      </g>
     </g>
     <g id="text_16">
      <!-- Окт -->
      <g style="fill: #808080" transform="translate(459.30358 233.404219) scale(0.08 -0.08)">
       <use xlink:href="#Ubuntu-41e"/>
       <use xlink:href="#Ubuntu-43a" x="77.799988"/>
       <use xlink:href="#Ubuntu-442" x="131.499985"/>
      </g>
     </g>
    </g>
    <g id="xtick_17">
     <g id="line2d_17">
      <g>
       <use xlink:href="#mdcaac06b34" x="505.371948" y="218.196719" style="fill: #aaaaaa; stroke: #aaaaaa; stroke-width: 0.75"/>
      </g>
     </g>
     <g id="text_17">
      <!-- Янв -->
      <g style="fill: #808080" transform="translate(498.296323 233.404219) scale(0.08 -0.08)">
       <use xlink:href="#Ubuntu-42f"/>
       <use xlink:href="#Ubuntu-43d" x="63.499985"/>
       <use xlink:href="#Ubuntu-432" x="122.099976"/>
      </g>
     </g>
    </g>
    <g id="xtick_18">
     <g id="line2d_18">
      <g>
       <use xlink:href="#mdcaac06b34" x="543.905" y="218.196719" style="fill: #aaaaaa; stroke: #aaaaaa; stroke-width: 0.75"/>
      </g>
     </g>
     <g id="text_18">
      <!-- Апр -->
      <g style="fill: #808080" transform="translate(536.585 233.404219) scale(0.08 -0.08)">
       <use xlink:href="#Ubuntu-410"/>
       <use xlink:href="#Ubuntu-43f" x="66.299988"/>
       <use xlink:href="#Ubuntu-440" x="124.099976"/>
      </g>
     </g>
    </g>
   </g>
   <g id="matplotlib.axis_4">
    <g id="ytick_1">
     <g id="line2d_19">
      <defs>
       <path id="mdf0a1e41a1" d="M 0 0 
L -3 0 
" style="stroke: #aaaaaa; stroke-width: 0.75"/>
      </defs>
      <g>
       <use xlink:href="#mdf0a1e41a1" x="31.705" y="208.196719" style="fill: #aaaaaa; stroke: #aaaaaa; stroke-width: 0.75"/>
      </g>
     </g>
     <g id="text_19">
      <!-- 0.95 -->
      <g style="fill: #808080" transform="translate(7.2 211.300469) scale(0.08 -0.08)">
       <defs>
        <path id="Ubuntu-2e" d="M 1216 346 
Q 1216 173 1101 45 
Q 986 -83 787 -83 
Q 589 -83 473 45 
Q 358 173 358 346 
Q 358 518 473 646 
Q 589 774 787 774 
Q 986 774 1101 646 
Q 1216 518 1216 346 
z
" transform="scale(0.015625)"/>
        <path id="Ubuntu-39" d="M 3206 2662 
Q 3206 1344 2550 669 
Q 1894 -6 602 -13 
L 582 486 
Q 986 486 1309 563 
Q 1632 640 1875 809 
Q 2118 979 2281 1248 
Q 2445 1517 2522 1907 
Q 2355 1830 2144 1782 
Q 1933 1734 1709 1734 
Q 1331 1734 1068 1846 
Q 806 1958 640 2147 
Q 474 2336 400 2582 
Q 326 2829 326 3098 
Q 326 3334 409 3590 
Q 493 3846 662 4057 
Q 832 4269 1094 4403 
Q 1357 4538 1715 4538 
Q 2080 4538 2358 4410 
Q 2637 4282 2825 4038 
Q 3014 3795 3110 3446 
Q 3206 3098 3206 2662 
z
M 1773 2221 
Q 1997 2221 2195 2262 
Q 2394 2304 2579 2387 
Q 2586 2458 2586 2525 
Q 2586 2592 2586 2662 
Q 2586 2938 2547 3190 
Q 2509 3443 2409 3632 
Q 2310 3821 2144 3933 
Q 1978 4045 1722 4045 
Q 1510 4045 1363 3955 
Q 1216 3866 1120 3728 
Q 1024 3590 982 3427 
Q 941 3264 941 3110 
Q 941 2675 1149 2448 
Q 1357 2221 1773 2221 
z
" transform="scale(0.015625)"/>
        <path id="Ubuntu-35" d="M 1274 2726 
Q 2240 2688 2691 2304 
Q 3142 1920 3142 1261 
Q 3142 966 3043 716 
Q 2944 467 2742 288 
Q 2541 109 2233 6 
Q 1926 -96 1504 -96 
Q 1338 -96 1165 -70 
Q 992 -45 845 -6 
Q 698 32 582 70 
Q 467 109 416 134 
L 531 653 
Q 640 602 886 518 
Q 1133 435 1491 435 
Q 1779 435 1974 499 
Q 2170 563 2291 672 
Q 2413 781 2467 925 
Q 2522 1069 2522 1229 
Q 2522 1472 2438 1661 
Q 2355 1850 2144 1978 
Q 1933 2106 1581 2173 
Q 1229 2240 691 2240 
Q 730 2554 752 2829 
Q 774 3104 793 3366 
Q 813 3629 825 3888 
Q 838 4147 851 4435 
L 2989 4435 
L 2989 3930 
L 1370 3930 
Q 1363 3834 1350 3670 
Q 1338 3507 1325 3331 
Q 1312 3155 1299 2988 
Q 1286 2822 1274 2726 
z
" transform="scale(0.015625)"/>
       </defs>
       <use xlink:href="#Ubuntu-30"/>
       <use xlink:href="#Ubuntu-2e" x="56.399994"/>
       <use xlink:href="#Ubuntu-39" x="80.999985"/>
       <use xlink:href="#Ubuntu-35" x="137.399979"/>
      </g>
     </g>
    </g>
    <g id="ytick_2">
     <g id="line2d_20">
      <g>
       <use xlink:href="#mdf0a1e41a1" x="31.705" y="174.932719" style="fill: #aaaaaa; stroke: #aaaaaa; stroke-width: 0.75"/>
      </g>
     </g>
     <g id="text_20">
      <!-- 1.05 -->
      <g style="fill: #808080" transform="translate(7.2 178.036469) scale(0.08 -0.08)">
       <use xlink:href="#Ubuntu-31"/>
       <use xlink:href="#Ubuntu-2e" x="56.399994"/>
       <use xlink:href="#Ubuntu-30" x="80.999985"/>
       <use xlink:href="#Ubuntu-35" x="137.399979"/>
      </g>
     </g>
    </g>
    <g id="ytick_3">
     <g id="line2d_21">
      <g>
       <use xlink:href="#mdf0a1e41a1" x="31.705" y="141.668719" style="fill: #aaaaaa; stroke: #aaaaaa; stroke-width: 0.75"/>
      </g>
     </g>
     <g id="text_21">
      <!-- 1.15 -->
      <g style="fill: #808080" transform="translate(7.2 144.772469) scale(0.08 -0.08)">
       <use xlink:href="#Ubuntu-31"/>
       <use xlink:href="#Ubuntu-2e" x="56.399994"/>
       <use xlink:href="#Ubuntu-31" x="80.999985"/>
       <use xlink:href="#Ubuntu-35" x="137.399979"/>
      </g>
     </g>
    </g>
    <g id="ytick_4">
     <g id="line2d_22">
      <g>
       <use xlink:href="#mdf0a1e41a1" x="31.705" y="108.404719" style="fill: #aaaaaa; stroke: #aaaaaa; stroke-width: 0.75"/>
      </g>
     </g>
     <g id="text_22">
      <!-- 1.25 -->
      <g style="fill: #808080" transform="translate(7.2 111.508469) scale(0.08 -0.08)">
       <use xlink:href="#Ubuntu-31"/>
       <use xlink:href="#Ubuntu-2e" x="56.399994"/>
       <use xlink:href="#Ubuntu-32" x="80.999985"/>
       <use xlink:href="#Ubuntu-35" x="137.399979"/>
      </g>
     </g>
    </g>
    <g id="ytick_5">
     <g id="line2d_23">
      <g>
       <use xlink:href="#mdf0a1e41a1" x="31.705" y="75.140719" style="fill: #aaaaaa; stroke: #aaaaaa; stroke-width: 0.75"/>
      </g>
     </g>
     <g id="text_23">
      <!-- 1.35 -->
      <g style="fill: #808080" transform="translate(7.2 78.244469) scale(0.08 -0.08)">
       <use xlink:href="#Ubuntu-31"/>
       <use xlink:href="#Ubuntu-2e" x="56.399994"/>
       <use xlink:href="#Ubuntu-33" x="80.999985"/>
       <use xlink:href="#Ubuntu-35" x="137.399979"/>
      </g>
     </g>
    </g>
    <g id="ytick_6">
     <g id="line2d_24">
      <g>
       <use xlink:href="#mdf0a1e41a1" x="31.705" y="41.876719" style="fill: #aaaaaa; stroke: #aaaaaa; stroke-width: 0.75"/>
      </g>
     </g>
     <g id="text_24">
      <!-- 1.45 -->
      <g style="fill: #808080" transform="translate(7.2 44.980469) scale(0.08 -0.08)">
       <use xlink:href="#Ubuntu-31"/>
       <use xlink:href="#Ubuntu-2e" x="56.399994"/>
       <use xlink:href="#Ubuntu-34" x="80.999985"/>
       <use xlink:href="#Ubuntu-35" x="137.399979"/>
      </g>
     </g>
    </g>
   </g>
   <g id="line2d_25">
    <path d="M 41.705 191.564719 
L 49.678137 190.746376 
L 56.056647 190.320613 
L 60.840529 190.196458 
L 65.624411 190.283615 
L 70.408293 190.621486 
L 75.192175 191.246306 
L 79.976058 192.191953 
L 84.75994 193.455094 
L 92.733077 195.711723 
L 97.516959 196.787175 
L 103.895469 197.895897 
L 111.868605 199.065762 
L 116.652488 199.537102 
L 119.841742 199.656962 
L 123.030997 199.588721 
L 126.220252 199.3515 
L 131.004134 198.731422 
L 135.788016 197.8254 
L 138.977271 196.945739 
L 142.166526 195.714467 
L 143.761153 194.931787 
L 145.355781 194.019221 
L 148.545036 191.819694 
L 151.73429 189.247745 
L 158.1128 183.61464 
L 164.49131 178.126831 
L 170.869819 172.976365 
L 182.032211 164.284252 
L 186.816093 160.144875 
L 191.599975 155.612704 
L 196.383858 150.743824 
L 204.356995 142.44036 
L 207.546249 139.49875 
L 210.735504 137.022557 
L 213.924759 135.020123 
L 217.114014 133.333163 
L 233.060288 125.574292 
L 236.249543 124.324992 
L 239.438797 123.332254 
L 242.628052 122.562237 
L 245.817307 121.976033 
L 250.601189 121.362956 
L 253.790444 121.128167 
L 256.979699 121.061434 
L 260.168953 121.188894 
L 264.952836 121.730722 
L 269.736718 122.301201 
L 272.925973 122.427436 
L 276.115227 122.184749 
L 279.304482 121.625194 
L 296.845384 117.743648 
L 300.034638 116.634184 
L 303.223893 115.172284 
L 309.602403 111.994628 
L 312.791658 110.729745 
L 315.980912 109.864239 
L 323.954049 108.07188 
L 327.143304 106.888407 
L 331.927186 104.595047 
L 335.116441 103.115914 
L 336.711069 102.494237 
L 338.305696 101.996888 
L 339.900323 101.644596 
L 343.089578 101.306444 
L 346.278833 101.312102 
L 362.225107 102.151411 
L 365.414362 102.506047 
L 368.603617 103.102418 
L 371.792871 104.081559 
L 373.387499 104.759301 
L 374.982126 105.586294 
L 376.576754 106.580392 
L 378.171381 107.756999 
L 379.766008 109.11794 
L 381.360636 110.66036 
L 382.955263 112.381402 
L 384.549891 114.278205 
L 387.739145 118.587664 
L 390.9284 123.562769 
L 394.117655 129.060873 
L 402.090792 143.15612 
L 405.280047 148.176661 
L 408.469301 152.650982 
L 411.658556 156.599926 
L 414.847811 160.044469 
L 418.037066 163.000798 
L 421.226321 165.452329 
L 422.820948 166.47933 
L 424.415575 167.368764 
L 426.010203 168.116838 
L 427.60483 168.719758 
L 429.199458 169.174387 
L 430.794085 169.488751 
L 433.98334 169.766524 
L 437.172595 169.694201 
L 441.956477 169.237802 
L 445.145732 168.799861 
L 448.334986 168.080235 
L 449.929614 167.551769 
L 451.524241 166.877256 
L 453.118869 166.031487 
L 454.713496 164.989705 
L 456.308123 163.744139 
L 457.902751 162.30877 
L 459.497378 160.699003 
L 462.686633 157.017892 
L 465.875888 152.824045 
L 470.65977 145.900929 
L 473.849025 141.287811 
L 477.03828 137.084664 
L 478.632907 135.24636 
L 480.227534 133.641746 
L 481.822162 132.283304 
L 483.416789 131.122007 
L 486.606044 129.165816 
L 489.795299 127.323117 
L 491.389926 126.303686 
L 492.984554 125.143922 
L 494.579181 123.8112 
L 497.768436 120.739377 
L 507.3362 110.779878 
L 508.930828 109.37706 
L 510.525455 108.140551 
L 512.120082 107.105169 
L 513.71471 106.305735 
L 515.309337 105.777067 
L 516.903965 105.553985 
L 518.498592 105.671309 
L 518.498592 105.671309 
" clip-path="url(#p541984dd3f)" style="fill: none; stroke-dasharray: 5.55,2.4; stroke-dashoffset: 0; stroke: #5d5d5d; stroke-width: 1.5"/>
   </g>
   <g id="line2d_26">
    <path d="M 41.705 191.564719 
L 44.976394 191.923419 
L 48.247787 191.972458 
L 51.519181 191.782598 
L 56.426272 191.20467 
L 66.240453 189.869216 
L 69.511846 189.624388 
L 76.054634 189.457691 
L 82.597421 189.258704 
L 87.504512 188.845721 
L 92.411602 188.149862 
L 97.318693 187.171674 
L 103.86148 185.883698 
L 107.132874 185.48143 
L 112.039964 185.251492 
L 118.582752 185.045997 
L 121.854145 184.737247 
L 126.761236 183.984072 
L 133.304023 182.674901 
L 138.211114 181.532392 
L 141.482507 180.601266 
L 144.753901 179.462219 
L 148.025295 178.082901 
L 154.568082 174.938085 
L 159.475173 172.63672 
L 164.382263 170.394958 
L 167.653657 168.685601 
L 170.925051 166.618418 
L 174.196444 164.170992 
L 177.467838 161.665035 
L 180.739232 159.475464 
L 182.374928 158.616486 
L 184.010625 157.975731 
L 185.646322 157.554762 
L 187.282019 157.304852 
L 190.553413 157.112232 
L 193.824806 156.985916 
L 195.460503 156.818886 
L 197.0962 156.515324 
L 198.731897 156.047497 
L 200.367594 155.405887 
L 202.003291 154.581504 
L 203.638987 153.565358 
L 205.274684 152.348458 
L 206.910381 150.921816 
L 208.546078 149.276441 
L 210.181775 147.406411 
L 213.453168 143.108262 
L 218.360259 135.899322 
L 221.631653 131.079078 
L 224.903046 126.613607 
L 228.17444 122.667496 
L 229.810137 120.92628 
L 231.445834 119.359395 
L 233.081531 117.981671 
L 234.717227 116.807935 
L 236.352924 115.846324 
L 237.988621 115.075994 
L 239.624318 114.468265 
L 242.895712 113.625885 
L 246.167105 113.089736 
L 254.345589 112.024702 
L 257.616983 111.763762 
L 260.888377 111.71116 
L 264.159771 111.897469 
L 275.609648 112.859997 
L 282.152436 112.827271 
L 287.059526 112.854296 
L 293.602314 113.214449 
L 298.509404 113.44182 
L 303.416495 113.391614 
L 329.587644 112.181406 
L 332.859038 111.725095 
L 336.130432 110.941231 
L 339.401825 109.724424 
L 342.673219 108.1545 
L 347.580309 105.70591 
L 350.851703 104.39908 
L 352.4874 103.929896 
L 355.758794 103.323065 
L 359.030187 103.037717 
L 365.572975 102.860287 
L 375.387156 102.727756 
L 380.294246 102.850219 
L 385.201337 103.229736 
L 388.472731 103.68131 
L 391.744124 104.321953 
L 396.651215 105.526772 
L 403.194002 107.171292 
L 409.736789 108.506855 
L 421.186667 110.522955 
L 426.093758 111.162729 
L 429.365152 111.398546 
L 434.272242 111.474177 
L 447.357817 111.256127 
L 450.629211 111.071394 
L 453.900604 110.694171 
L 457.171998 110.07697 
L 460.443392 109.264259 
L 465.350482 107.812485 
L 480.071754 103.248352 
L 491.521632 99.959476 
L 496.428722 98.23747 
L 504.607206 95.265078 
L 509.514297 93.780843 
L 516.057084 92.122631 
L 525.871265 89.701925 
L 530.778356 88.242155 
L 530.778356 88.242155 
" clip-path="url(#p541984dd3f)" style="fill: none; stroke: #5d5d5d; stroke-opacity: 0.95; stroke-width: 1.25; stroke-linecap: square"/>
   </g>
   <g id="line2d_27">
    <path d="M 41.705 191.564719 
L 46.612091 191.230351 
L 51.519181 190.663553 
L 61.333362 189.207125 
L 67.876149 188.297504 
L 84.233118 186.328198 
L 94.047299 184.899965 
L 98.954389 184.44311 
L 107.132874 183.964219 
L 115.311358 183.457598 
L 120.218448 182.909762 
L 125.125539 182.088104 
L 130.032629 181.044612 
L 136.575417 179.417577 
L 146.389598 176.723371 
L 151.296688 175.205905 
L 154.568082 173.942777 
L 157.839476 172.353675 
L 161.110869 170.371874 
L 164.382263 168.053 
L 167.653657 165.475849 
L 172.560747 161.297626 
L 184.010625 151.322638 
L 188.917716 147.443336 
L 193.824806 143.939729 
L 198.731897 140.819896 
L 202.003291 138.68459 
L 203.638987 137.469451 
L 205.274684 136.095849 
L 206.910381 134.518682 
L 208.546078 132.692845 
L 210.181775 130.579107 
L 211.817472 128.196693 
L 215.088865 122.837197 
L 224.903046 105.799642 
L 228.17444 101.01261 
L 229.810137 98.925748 
L 231.445834 97.07872 
L 233.081531 95.498072 
L 234.717227 94.210352 
L 236.352924 93.230441 
L 237.988621 92.522708 
L 239.624318 92.037861 
L 241.260015 91.726607 
L 244.531408 91.427703 
L 249.438499 91.064621 
L 259.25268 89.822503 
L 262.524074 89.793111 
L 265.795467 90.055299 
L 270.702558 90.73877 
L 275.609648 91.419017 
L 280.516739 91.901121 
L 287.059526 92.290893 
L 291.966617 92.383802 
L 295.238011 92.260257 
L 298.509404 91.917416 
L 301.780798 91.319652 
L 308.323585 89.999548 
L 311.594979 89.71125 
L 313.230676 89.750875 
L 316.502069 90.156152 
L 324.680554 91.709917 
L 327.951947 91.981227 
L 331.223341 91.988082 
L 336.130432 91.71373 
L 342.673219 91.300709 
L 347.580309 91.254607 
L 350.851703 91.456489 
L 355.758794 92.123631 
L 360.665884 92.863163 
L 363.937278 93.168645 
L 367.208672 93.227814 
L 380.294246 93.048522 
L 385.201337 93.477921 
L 390.108427 94.176147 
L 398.286912 95.478697 
L 401.558305 95.776385 
L 404.829699 95.826259 
L 413.008183 95.68937 
L 416.279577 95.976188 
L 419.550971 96.564384 
L 427.729455 98.257152 
L 431.000848 98.603522 
L 434.272242 98.727691 
L 440.815029 98.644978 
L 447.357817 98.400199 
L 450.629211 98.025026 
L 453.900604 97.329235 
L 457.171998 96.247962 
L 460.443392 94.860293 
L 465.350482 92.434589 
L 476.80036 86.383583 
L 484.978844 81.75588 
L 498.064419 74.227106 
L 502.97151 71.625537 
L 507.8786 69.282035 
L 512.785691 67.214455 
L 517.692781 65.383624 
L 524.235568 63.240226 
L 530.778356 61.348354 
L 530.778356 61.348354 
" clip-path="url(#p541984dd3f)" style="fill: none; stroke: #af5a51; stroke-opacity: 0.95; stroke-width: 1.25; stroke-linecap: square"/>
   </g>
   <g id="line2d_28">
    <path d="M 41.705 191.564719 
L 48.247787 190.252213 
L 59.697665 187.868514 
L 64.604756 187.121269 
L 67.876149 186.802556 
L 72.78324 186.598222 
L 80.961724 186.368678 
L 87.504512 185.812467 
L 94.047299 185.253904 
L 98.954389 185.047774 
L 118.582752 184.500236 
L 123.489842 183.999512 
L 130.032629 183.051384 
L 138.211114 181.614481 
L 149.660992 179.380249 
L 152.932385 178.573253 
L 156.203779 177.553067 
L 159.475173 176.245163 
L 170.925051 171.067877 
L 179.103535 168.348464 
L 180.739232 167.605597 
L 182.374928 166.703544 
L 184.010625 165.603987 
L 187.282019 162.886098 
L 193.824806 157.009683 
L 195.460503 155.793931 
L 197.0962 154.793325 
L 200.367594 153.30076 
L 203.638987 151.951142 
L 205.274684 151.127475 
L 206.910381 150.096592 
L 208.546078 148.777506 
L 210.181775 147.098625 
L 211.817472 145.081824 
L 215.088865 140.336978 
L 221.631653 130.133264 
L 224.903046 125.785954 
L 228.17444 122.073549 
L 231.445834 118.79002 
L 237.988621 112.740754 
L 241.260015 109.905066 
L 244.531408 107.362914 
L 247.802802 105.255004 
L 249.438499 104.40324 
L 251.074196 103.690068 
L 252.709893 103.11251 
L 254.345589 102.667586 
L 255.981286 102.352314 
L 257.616983 102.163717 
L 259.25268 102.098812 
L 262.524074 102.318966 
L 267.431164 103.155651 
L 270.702558 103.678165 
L 272.338255 103.832392 
L 273.973952 103.872882 
L 277.245345 103.609306 
L 280.516739 103.051333 
L 285.423829 102.112539 
L 288.695223 101.702936 
L 291.966617 101.548346 
L 295.238011 101.628141 
L 298.509404 101.921097 
L 303.416495 102.678656 
L 309.959282 103.75652 
L 313.230676 104.070147 
L 316.502069 104.150197 
L 319.773463 104.04106 
L 324.680554 103.633922 
L 329.587644 103.051265 
L 334.494735 102.268605 
L 339.401825 101.218421 
L 344.308916 99.914384 
L 357.394491 96.268165 
L 360.665884 95.563793 
L 363.937278 95.036265 
L 367.208672 94.71049 
L 372.115762 94.524511 
L 378.658549 94.617768 
L 386.837034 94.786656 
L 391.744124 94.652652 
L 399.922608 94.305534 
L 403.194002 94.387425 
L 406.465396 94.676348 
L 411.372486 95.384776 
L 422.822364 97.459197 
L 435.907939 99.921656 
L 439.179333 100.220548 
L 442.450726 100.198315 
L 445.72212 99.882181 
L 455.536301 98.572573 
L 466.986179 97.64995 
L 470.257573 97.084537 
L 473.528966 96.282942 
L 476.80036 95.223716 
L 480.071754 93.885936 
L 489.885935 89.334015 
L 491.521632 88.774988 
L 493.157328 88.343865 
L 496.428722 87.845367 
L 499.700116 87.69942 
L 512.785691 87.680493 
L 516.057084 87.357403 
L 519.328478 86.80279 
L 522.599872 85.968638 
L 525.871265 84.806926 
L 529.142659 83.269637 
L 530.778356 82.345145 
L 530.778356 82.345145 
" clip-path="url(#p541984dd3f)" style="fill: none; stroke: #608eb4; stroke-width: 1.25; stroke-linecap: square"/>
   </g>
   <g id="line2d_29">
    <path d="M 41.705 191.564719 
L 44.976394 191.483433 
L 49.883484 191.054022 
L 62.969059 189.558001 
L 66.240453 189.434462 
L 69.511846 189.524767 
L 79.326027 190.198611 
L 82.597421 190.118239 
L 85.868815 189.807558 
L 90.775905 189.093682 
L 98.954389 187.862494 
L 116.947055 185.484454 
L 128.396933 183.964501 
L 131.668326 183.335159 
L 134.93972 182.530483 
L 138.211114 181.536795 
L 141.482507 180.349314 
L 144.753901 178.963262 
L 149.660992 176.540592 
L 157.839476 172.057095 
L 179.103535 160.389391 
L 182.374928 159.036855 
L 185.646322 158.121504 
L 190.553413 157.263199 
L 193.824806 156.663873 
L 197.0962 155.74611 
L 198.731897 155.099197 
L 200.367594 154.306192 
L 202.003291 153.353758 
L 203.638987 152.228557 
L 205.274684 150.917251 
L 206.910381 149.4065 
L 208.546078 147.682969 
L 210.181775 145.736654 
L 213.453168 141.287536 
L 218.360259 133.858582 
L 221.631653 128.897929 
L 224.903046 124.29126 
L 228.17444 120.159704 
L 231.445834 116.566605 
L 233.081531 114.991765 
L 234.717227 113.575286 
L 236.352924 112.322032 
L 237.988621 111.223657 
L 239.624318 110.268243 
L 242.895712 108.738626 
L 246.167105 107.637832 
L 249.438499 106.873419 
L 252.709893 106.40573 
L 255.981286 106.241119 
L 259.25268 106.387479 
L 262.524074 106.847741 
L 265.795467 107.555739 
L 277.245345 110.320715 
L 280.516739 110.849621 
L 283.788133 111.219486 
L 287.059526 111.422929 
L 291.966617 111.484911 
L 298.509404 111.563773 
L 303.416495 111.931446 
L 308.323585 112.345424 
L 311.594979 112.446391 
L 314.866373 112.297665 
L 324.680554 111.478816 
L 327.951947 111.543311 
L 334.494735 112.072619 
L 337.766128 112.282759 
L 341.037522 112.320062 
L 345.944613 112.135856 
L 363.937278 111.011061 
L 372.115762 110.014052 
L 375.387156 109.894579 
L 378.658549 110.132913 
L 381.929943 110.675355 
L 390.108427 112.331249 
L 395.015518 112.991082 
L 399.922608 113.642616 
L 403.194002 114.258728 
L 408.101093 115.48795 
L 413.008183 116.705049 
L 416.279577 117.290727 
L 419.550971 117.647508 
L 429.365152 118.425828 
L 442.450726 120.060331 
L 445.72212 120.177185 
L 448.993514 120.116508 
L 452.264907 119.877332 
L 455.536301 119.460988 
L 460.443392 118.588857 
L 480.071754 114.580968 
L 484.978844 113.107929 
L 491.521632 110.830587 
L 504.607206 106.214379 
L 509.514297 104.67847 
L 514.421387 103.35149 
L 519.328478 102.302916 
L 522.599872 101.792848 
L 525.871265 101.457982 
L 529.142659 101.318904 
L 530.778356 101.329219 
L 530.778356 101.329219 
" clip-path="url(#p541984dd3f)" style="fill: none; stroke: #489079; stroke-width: 1.25; stroke-linecap: square"/>
   </g>
   <g id="line2d_30">
    <path d="M 41.705 191.564719 
L 44.976394 190.507718 
L 48.247787 189.776689 
L 51.519181 189.292876 
L 56.426272 188.858405 
L 64.604756 188.254646 
L 67.876149 187.825626 
L 72.78324 186.858674 
L 80.961724 185.079056 
L 85.868815 184.312946 
L 92.411602 183.567122 
L 131.668326 179.470087 
L 134.93972 178.843678 
L 138.211114 178.048188 
L 143.118204 176.560422 
L 148.025295 174.759884 
L 159.475173 170.304458 
L 166.01796 168.131726 
L 179.103535 164.036642 
L 182.374928 163.319418 
L 185.646322 162.897794 
L 188.917716 162.729275 
L 200.367594 162.450842 
L 202.003291 162.173627 
L 203.638987 161.73938 
L 205.274684 161.111718 
L 206.910381 160.254256 
L 208.546078 159.130608 
L 210.181775 157.708729 
L 211.817472 155.999751 
L 213.453168 154.039563 
L 216.724562 149.510295 
L 219.995956 144.410396 
L 229.810137 128.45651 
L 233.081531 123.740925 
L 234.717227 121.62926 
L 236.352924 119.715288 
L 237.988621 117.997566 
L 239.624318 116.467835 
L 241.260015 115.117836 
L 242.895712 113.939309 
L 244.531408 112.923995 
L 246.167105 112.063634 
L 247.802802 111.349966 
L 249.438499 110.773133 
L 252.709893 109.97102 
L 255.981286 109.535131 
L 259.25268 109.342455 
L 265.795467 109.26059 
L 277.245345 109.210954 
L 282.152436 108.900823 
L 285.423829 108.471163 
L 288.695223 107.816507 
L 296.873707 105.997863 
L 300.145101 105.64049 
L 303.416495 105.611463 
L 309.959282 105.773567 
L 313.230676 105.555789 
L 316.502069 105.026739 
L 323.044857 103.734831 
L 326.316251 103.340207 
L 329.587644 103.206048 
L 337.766128 103.078295 
L 341.037522 102.738532 
L 344.308916 102.103796 
L 347.580309 101.126888 
L 350.851703 99.760639 
L 355.758794 97.146786 
L 359.030187 95.503465 
L 360.665884 94.847595 
L 362.301581 94.362704 
L 363.937278 94.093731 
L 365.572975 94.052009 
L 367.208672 94.190256 
L 370.480065 94.793973 
L 373.751459 95.479517 
L 375.387156 95.720048 
L 377.022853 95.822675 
L 378.658549 95.77505 
L 381.929943 95.377697 
L 386.837034 94.61753 
L 388.472731 94.478004 
L 390.108427 94.459296 
L 393.379821 94.775889 
L 396.651215 95.404474 
L 403.194002 96.818815 
L 406.465396 97.301286 
L 409.736789 97.614704 
L 414.64388 97.828882 
L 426.093758 98.008974 
L 429.365152 98.339778 
L 440.815029 99.921458 
L 444.086423 99.954697 
L 448.993514 99.632153 
L 457.171998 98.916542 
L 463.714785 98.6141 
L 480.071754 98.156552 
L 484.978844 97.639939 
L 502.97151 95.28268 
L 506.242903 94.667115 
L 509.514297 93.885912 
L 512.785691 92.920144 
L 516.057084 91.752374 
L 519.328478 90.365167 
L 522.599872 88.741088 
L 525.871265 86.8627 
L 529.142659 84.712568 
L 530.778356 83.530149 
L 530.778356 83.530149 
" clip-path="url(#p541984dd3f)" style="fill: none; stroke: #eea92b; stroke-opacity: 0.95; stroke-width: 1.25; stroke-linecap: square"/>
   </g>
   <g id="line2d_31">
    <path d="M 41.705 191.564719 
L 51.519181 190.581473 
L 59.697665 190.018236 
L 66.240453 189.788256 
L 74.418937 189.777921 
L 82.597421 189.716451 
L 95.682996 189.433662 
L 102.225783 189.358128 
L 105.497177 189.099442 
L 108.768571 188.590598 
L 118.582752 186.681902 
L 121.854145 186.384157 
L 131.668326 185.802931 
L 134.93972 185.210761 
L 138.211114 184.368786 
L 143.118204 182.823744 
L 156.203779 178.32704 
L 162.746566 175.818555 
L 174.196444 171.102653 
L 177.467838 169.605015 
L 180.739232 167.881123 
L 184.010625 165.826529 
L 187.282019 163.438782 
L 193.824806 158.532822 
L 197.0962 156.486568 
L 205.274684 152.16934 
L 206.910381 151.058509 
L 208.546078 149.748375 
L 210.181775 148.194807 
L 211.817472 146.412831 
L 215.088865 142.359837 
L 223.267349 131.672861 
L 226.538743 128.042284 
L 229.810137 124.939551 
L 233.081531 122.385903 
L 234.717227 121.321624 
L 236.352924 120.400006 
L 239.624318 118.937469 
L 242.895712 117.888641 
L 246.167105 117.140855 
L 249.438499 116.585745 
L 252.709893 116.193063 
L 255.981286 116.000658 
L 259.25268 116.048657 
L 262.524074 116.370635 
L 267.431164 117.220391 
L 272.338255 118.134797 
L 275.609648 118.578683 
L 278.881042 118.846037 
L 283.788133 118.987552 
L 290.33092 118.869231 
L 300.145101 118.648971 
L 306.687888 118.807212 
L 319.773463 119.243914 
L 323.044857 119.119234 
L 326.316251 118.783702 
L 334.494735 117.641406 
L 337.766128 117.542106 
L 341.037522 117.855328 
L 345.944613 118.74672 
L 349.216006 119.307107 
L 352.4874 119.600274 
L 355.758794 119.614454 
L 363.937278 119.388919 
L 368.844368 119.616385 
L 373.751459 119.862481 
L 377.022853 119.825495 
L 380.294246 119.559394 
L 388.472731 118.76158 
L 391.744124 118.761392 
L 395.015518 119.020083 
L 398.286912 119.488327 
L 403.194002 120.474729 
L 413.008183 122.702727 
L 416.279577 123.254033 
L 422.822364 124.00451 
L 427.729455 124.615591 
L 437.543636 126.202019 
L 440.815029 126.332034 
L 444.086423 126.065939 
L 452.264907 124.953326 
L 455.536301 124.928449 
L 460.443392 125.385381 
L 463.714785 125.659688 
L 466.986179 125.618295 
L 470.257573 125.131032 
L 475.164663 123.926143 
L 480.071754 122.758687 
L 483.343147 122.240239 
L 494.793025 120.734973 
L 504.607206 118.932128 
L 507.8786 118.571682 
L 514.421387 118.18784 
L 519.328478 117.883341 
L 522.599872 117.524024 
L 525.871265 116.947312 
L 529.142659 116.074054 
L 530.778356 115.501486 
L 530.778356 115.501486 
" clip-path="url(#p541984dd3f)" style="fill: none; stroke: #676391; stroke-width: 1.25; stroke-linecap: square"/>
   </g>
   <g id="patch_4">
    <path d="M 31.705 208.196719 
L 31.705 41.876719 
" style="fill: none; stroke: #aaaaaa; stroke-width: 0.75; stroke-linejoin: miter; stroke-linecap: square"/>
   </g>
   <g id="patch_5">
    <path d="M 41.705 218.196719 
L 543.905 218.196719 
" style="fill: none; stroke: #aaaaaa; stroke-width: 0.75; stroke-linejoin: miter; stroke-linecap: square"/>
   </g>
   <g id="legend_1">
    <g id="line2d_32">
     <path d="M 49.805 14.633438 
L 58.805 14.633438 
L 67.805 14.633438 
" style="fill: none; stroke-dasharray: 5.55,2.4; stroke-dashoffset: 0; stroke: #5d5d5d; stroke-width: 1.5"/>
    </g>
    <g id="text_25">
     <!-- Сырое молоко -->
     <g style="fill: #4b4b4b" transform="translate(75.005 17.783438) scale(0.09 -0.09)">
      <defs>
       <path id="Ubuntu-421" d="M 2458 -96 
Q 1990 -96 1606 57 
Q 1222 211 947 505 
Q 672 800 521 1232 
Q 371 1664 371 2221 
Q 371 2778 540 3210 
Q 710 3642 998 3936 
Q 1286 4230 1670 4384 
Q 2054 4538 2490 4538 
Q 2765 4538 2985 4499 
Q 3206 4461 3369 4409 
Q 3533 4358 3635 4307 
Q 3738 4256 3776 4230 
L 3597 3718 
Q 3539 3757 3430 3801 
Q 3322 3846 3184 3891 
Q 3046 3936 2883 3965 
Q 2720 3994 2554 3994 
Q 2202 3994 1920 3872 
Q 1638 3750 1440 3520 
Q 1242 3290 1136 2960 
Q 1030 2630 1030 2221 
Q 1030 1824 1123 1497 
Q 1216 1171 1401 937 
Q 1587 704 1865 576 
Q 2144 448 2515 448 
Q 2944 448 3225 537 
Q 3507 627 3648 698 
L 3808 186 
Q 3763 154 3648 106 
Q 3533 58 3360 13 
Q 3187 -32 2956 -64 
Q 2726 -96 2458 -96 
z
" transform="scale(0.015625)"/>
       <path id="Ubuntu-44b" d="M 1734 1645 
Q 1562 1645 1398 1635 
Q 1235 1626 1107 1594 
L 1107 448 
Q 1146 442 1219 435 
Q 1293 429 1379 425 
Q 1466 422 1555 419 
Q 1645 416 1715 416 
Q 2106 416 2317 563 
Q 2528 710 2528 1037 
Q 2528 1197 2461 1312 
Q 2394 1427 2282 1500 
Q 2170 1574 2029 1609 
Q 1888 1645 1734 1645 
z
M 512 3328 
L 1107 3328 
L 1107 2054 
Q 1216 2080 1424 2105 
Q 1632 2131 1824 2131 
Q 2086 2131 2323 2070 
Q 2560 2010 2739 1878 
Q 2918 1747 3024 1539 
Q 3130 1331 3130 1043 
Q 3130 742 3027 531 
Q 2925 320 2739 185 
Q 2554 51 2291 -9 
Q 2029 -70 1715 -70 
Q 1414 -70 1107 -35 
Q 800 0 512 70 
L 512 3328 
z
M 4339 0 
L 3744 0 
L 3744 3328 
L 4339 3328 
L 4339 0 
z
" transform="scale(0.015625)"/>
       <path id="Ubuntu-43e" d="M 3450 1664 
Q 3450 1267 3334 947 
Q 3219 627 3011 396 
Q 2803 166 2515 41 
Q 2227 -83 1888 -83 
Q 1549 -83 1261 41 
Q 973 166 765 396 
Q 557 627 441 947 
Q 326 1267 326 1664 
Q 326 2054 441 2377 
Q 557 2701 765 2931 
Q 973 3162 1261 3286 
Q 1549 3411 1888 3411 
Q 2227 3411 2515 3286 
Q 2803 3162 3011 2931 
Q 3219 2701 3334 2377 
Q 3450 2054 3450 1664 
z
M 2829 1664 
Q 2829 2227 2576 2556 
Q 2323 2886 1888 2886 
Q 1453 2886 1200 2556 
Q 947 2227 947 1664 
Q 947 1101 1200 771 
Q 1453 442 1888 442 
Q 2323 442 2576 771 
Q 2829 1101 2829 1664 
z
" transform="scale(0.015625)"/>
       <path id="Ubuntu-435" d="M 326 1658 
Q 326 2099 454 2428 
Q 582 2758 793 2976 
Q 1005 3194 1280 3302 
Q 1555 3411 1843 3411 
Q 2515 3411 2873 2992 
Q 3232 2573 3232 1715 
Q 3232 1677 3232 1616 
Q 3232 1555 3226 1504 
L 947 1504 
Q 986 986 1248 717 
Q 1510 448 2067 448 
Q 2381 448 2595 502 
Q 2810 557 2918 608 
L 3002 109 
Q 2893 51 2621 -13 
Q 2349 -77 2003 -77 
Q 1568 -77 1251 54 
Q 934 186 729 416 
Q 525 646 425 963 
Q 326 1280 326 1658 
z
M 2611 1984 
Q 2618 2387 2410 2646 
Q 2202 2906 1837 2906 
Q 1632 2906 1475 2826 
Q 1318 2746 1209 2618 
Q 1101 2490 1040 2323 
Q 979 2157 960 1984 
L 2611 1984 
z
" transform="scale(0.015625)"/>
       <path id="Ubuntu-20" transform="scale(0.015625)"/>
       <path id="Ubuntu-43c" d="M 1146 2451 
Q 1082 1818 1050 1187 
Q 1018 557 998 0 
L 429 0 
Q 442 390 467 816 
Q 493 1242 525 1674 
Q 557 2106 595 2525 
Q 634 2944 678 3328 
L 1222 3328 
Q 1427 2995 1702 2416 
Q 1978 1837 2336 1082 
Q 2694 1837 2969 2416 
Q 3245 2995 3450 3328 
L 4000 3328 
Q 4045 2944 4083 2525 
Q 4122 2106 4154 1674 
Q 4186 1242 4211 816 
Q 4237 390 4250 0 
L 3661 0 
Q 3642 557 3610 1187 
Q 3578 1818 3514 2451 
Q 3411 2253 3276 1974 
Q 3142 1696 3011 1408 
Q 2880 1120 2765 857 
Q 2650 595 2586 442 
L 2086 442 
Q 2016 602 1897 864 
Q 1779 1126 1648 1417 
Q 1517 1709 1382 1987 
Q 1248 2266 1146 2451 
z
" transform="scale(0.015625)"/>
      </defs>
      <use xlink:href="#Ubuntu-421"/>
      <use xlink:href="#Ubuntu-44b" x="61.999985"/>
      <use xlink:href="#Ubuntu-440" x="137.799973"/>
      <use xlink:href="#Ubuntu-43e" x="196.699966"/>
      <use xlink:href="#Ubuntu-435" x="255.699951"/>
      <use xlink:href="#Ubuntu-20" x="311.599945"/>
      <use xlink:href="#Ubuntu-43c" x="334.699936"/>
      <use xlink:href="#Ubuntu-43e" x="407.799927"/>
      <use xlink:href="#Ubuntu-43b" x="466.799911"/>
      <use xlink:href="#Ubuntu-43e" x="526.599899"/>
      <use xlink:href="#Ubuntu-43a" x="585.599884"/>
      <use xlink:href="#Ubuntu-43e" x="636.424881"/>
     </g>
    </g>
    <g id="line2d_33">
     <path d="M 49.805 27.781875 
L 58.805 27.781875 
L 67.805 27.781875 
" style="fill: none; stroke: #5d5d5d; stroke-opacity: 0.95; stroke-width: 1.25; stroke-linecap: square"/>
    </g>
    <g id="text_26">
     <!-- Пастеризованное молоко -->
     <g style="fill: #4b4b4b" transform="translate(75.005 30.931875) scale(0.09 -0.09)">
      <defs>
       <path id="Ubuntu-41f" d="M 3923 4435 
L 3923 0 
L 3302 0 
L 3302 3904 
L 1171 3904 
L 1171 0 
L 550 0 
L 550 4435 
L 3923 4435 
z
" transform="scale(0.015625)"/>
       <path id="Ubuntu-430" d="M 1638 429 
Q 1850 429 2013 438 
Q 2176 448 2285 474 
L 2285 1466 
Q 2221 1498 2077 1520 
Q 1933 1542 1728 1542 
Q 1594 1542 1443 1523 
Q 1293 1504 1168 1443 
Q 1043 1382 960 1276 
Q 877 1171 877 998 
Q 877 678 1081 553 
Q 1286 429 1638 429 
z
M 1587 3411 
Q 1946 3411 2192 3318 
Q 2438 3226 2588 3056 
Q 2739 2886 2803 2652 
Q 2867 2419 2867 2138 
L 2867 58 
Q 2790 45 2652 22 
Q 2515 0 2342 -19 
Q 2170 -38 1968 -54 
Q 1766 -70 1568 -70 
Q 1286 -70 1049 -12 
Q 813 45 640 169 
Q 467 294 371 499 
Q 275 704 275 992 
Q 275 1267 387 1465 
Q 499 1664 691 1785 
Q 883 1907 1139 1964 
Q 1395 2022 1677 2022 
Q 1766 2022 1862 2012 
Q 1958 2003 2044 1987 
Q 2131 1971 2195 1958 
Q 2259 1946 2285 1939 
L 2285 2106 
Q 2285 2253 2253 2397 
Q 2221 2541 2137 2653 
Q 2054 2765 1910 2832 
Q 1766 2899 1536 2899 
Q 1242 2899 1021 2857 
Q 800 2816 691 2771 
L 621 3264 
Q 736 3315 1005 3363 
Q 1274 3411 1587 3411 
z
" transform="scale(0.015625)"/>
       <path id="Ubuntu-441" d="M 1958 -77 
Q 1555 -77 1251 51 
Q 947 179 739 409 
Q 531 640 428 957 
Q 326 1274 326 1658 
Q 326 2042 438 2362 
Q 550 2682 755 2915 
Q 960 3149 1257 3280 
Q 1555 3411 1920 3411 
Q 2144 3411 2368 3372 
Q 2592 3334 2797 3251 
L 2662 2746 
Q 2528 2810 2352 2848 
Q 2176 2886 1978 2886 
Q 1478 2886 1212 2572 
Q 947 2259 947 1658 
Q 947 1389 1008 1165 
Q 1069 941 1200 781 
Q 1331 621 1536 534 
Q 1741 448 2035 448 
Q 2272 448 2464 493 
Q 2656 538 2765 589 
L 2848 90 
Q 2797 58 2701 29 
Q 2605 0 2483 -22 
Q 2362 -45 2224 -61 
Q 2086 -77 1958 -77 
z
" transform="scale(0.015625)"/>
       <path id="Ubuntu-438" d="M 3309 3328 
L 3309 0 
L 2733 0 
L 2733 2534 
Q 2541 2291 2310 1964 
Q 2080 1638 1849 1289 
Q 1619 941 1408 601 
Q 1197 262 1043 0 
L 512 0 
L 512 3328 
L 1088 3328 
L 1088 934 
Q 1254 1210 1465 1539 
Q 1677 1869 1904 2192 
Q 2131 2515 2358 2812 
Q 2586 3110 2784 3328 
L 3309 3328 
z
" transform="scale(0.015625)"/>
       <path id="Ubuntu-437" d="M 1357 3411 
Q 1645 3411 1894 3353 
Q 2144 3296 2323 3181 
Q 2502 3066 2604 2893 
Q 2707 2720 2707 2490 
Q 2707 2342 2656 2220 
Q 2605 2099 2528 2003 
Q 2451 1907 2358 1840 
Q 2266 1773 2182 1747 
Q 2477 1658 2646 1430 
Q 2816 1203 2816 858 
Q 2816 384 2432 153 
Q 2048 -77 1389 -77 
Q 986 -77 694 -13 
Q 403 51 282 109 
L 384 614 
Q 486 576 752 509 
Q 1018 442 1389 442 
Q 1792 442 2003 566 
Q 2214 691 2214 941 
Q 2214 1120 2134 1232 
Q 2054 1344 1932 1401 
Q 1811 1459 1670 1478 
Q 1530 1498 1408 1498 
L 851 1498 
L 851 1971 
L 1389 1971 
Q 1504 1971 1629 1987 
Q 1754 2003 1859 2054 
Q 1965 2106 2035 2198 
Q 2106 2291 2106 2445 
Q 2106 2566 2045 2652 
Q 1984 2739 1881 2796 
Q 1779 2854 1641 2883 
Q 1504 2912 1357 2912 
Q 1242 2912 1107 2893 
Q 973 2874 845 2845 
Q 717 2816 614 2784 
Q 512 2752 467 2726 
L 358 3238 
Q 410 3258 518 3290 
Q 627 3322 764 3347 
Q 902 3373 1056 3392 
Q 1210 3411 1357 3411 
z
" transform="scale(0.015625)"/>
      </defs>
      <use xlink:href="#Ubuntu-41f"/>
      <use xlink:href="#Ubuntu-430" x="69.899994"/>
      <use xlink:href="#Ubuntu-441" x="122.099991"/>
      <use xlink:href="#Ubuntu-442" x="170.099976"/>
      <use xlink:href="#Ubuntu-435" x="216.399963"/>
      <use xlink:href="#Ubuntu-440" x="272.299957"/>
      <use xlink:href="#Ubuntu-438" x="331.199951"/>
      <use xlink:href="#Ubuntu-437" x="390.899948"/>
      <use xlink:href="#Ubuntu-43e" x="439.799942"/>
      <use xlink:href="#Ubuntu-432" x="498.799927"/>
      <use xlink:href="#Ubuntu-430" x="553.599915"/>
      <use xlink:href="#Ubuntu-43d" x="605.799911"/>
      <use xlink:href="#Ubuntu-43d" x="664.399902"/>
      <use xlink:href="#Ubuntu-43e" x="722.999893"/>
      <use xlink:href="#Ubuntu-435" x="781.999878"/>
      <use xlink:href="#Ubuntu-20" x="837.899872"/>
      <use xlink:href="#Ubuntu-43c" x="860.999863"/>
      <use xlink:href="#Ubuntu-43e" x="934.099854"/>
      <use xlink:href="#Ubuntu-43b" x="993.099838"/>
      <use xlink:href="#Ubuntu-43e" x="1052.899826"/>
      <use xlink:href="#Ubuntu-43a" x="1111.899811"/>
      <use xlink:href="#Ubuntu-43e" x="1162.724808"/>
     </g>
    </g>
    <g id="line2d_34">
     <path d="M 202.961094 14.633438 
L 211.961094 14.633438 
L 220.961094 14.633438 
" style="fill: none; stroke: #af5a51; stroke-opacity: 0.95; stroke-width: 1.25; stroke-linecap: square"/>
    </g>
    <g id="text_27">
     <!-- Масло сливочное -->
     <g style="fill: #4b4b4b" transform="translate(228.161094 17.783438) scale(0.09 -0.09)">
      <defs>
       <path id="Ubuntu-41c" d="M 2541 614 
Q 2477 768 2371 1005 
Q 2266 1242 2144 1517 
Q 2022 1792 1884 2083 
Q 1747 2374 1625 2633 
Q 1504 2893 1398 3097 
Q 1293 3302 1229 3411 
Q 1158 2656 1113 1776 
Q 1069 896 1037 0 
L 429 0 
Q 454 576 486 1161 
Q 518 1747 560 2313 
Q 602 2880 650 3417 
Q 698 3955 755 4435 
L 1299 4435 
Q 1472 4154 1670 3770 
Q 1869 3386 2067 2966 
Q 2266 2547 2451 2128 
Q 2637 1709 2790 1363 
Q 2944 1709 3129 2128 
Q 3315 2547 3513 2966 
Q 3712 3386 3910 3770 
Q 4109 4154 4282 4435 
L 4826 4435 
Q 5043 2291 5152 0 
L 4544 0 
Q 4512 896 4467 1776 
Q 4422 2656 4352 3411 
Q 4288 3302 4182 3097 
Q 4077 2893 3955 2633 
Q 3834 2374 3696 2083 
Q 3558 1792 3436 1517 
Q 3315 1242 3209 1005 
Q 3104 768 3040 614 
L 2541 614 
z
" transform="scale(0.015625)"/>
       <path id="Ubuntu-447" d="M 890 3328 
L 890 2349 
Q 890 1971 1082 1820 
Q 1274 1670 1606 1670 
Q 1850 1670 2013 1696 
Q 2176 1722 2304 1754 
L 2304 3328 
L 2899 3328 
L 2899 0 
L 2304 0 
L 2304 1293 
Q 2253 1280 2169 1261 
Q 2086 1242 1980 1226 
Q 1875 1210 1760 1197 
Q 1645 1184 1536 1184 
Q 1261 1184 1033 1241 
Q 806 1299 643 1433 
Q 480 1568 387 1789 
Q 294 2010 294 2342 
L 294 3328 
L 890 3328 
z
" transform="scale(0.015625)"/>
      </defs>
      <use xlink:href="#Ubuntu-41c"/>
      <use xlink:href="#Ubuntu-430" x="87.099991"/>
      <use xlink:href="#Ubuntu-441" x="139.299988"/>
      <use xlink:href="#Ubuntu-43b" x="187.674973"/>
      <use xlink:href="#Ubuntu-43e" x="247.47496"/>
      <use xlink:href="#Ubuntu-20" x="306.474945"/>
      <use xlink:href="#Ubuntu-441" x="329.574936"/>
      <use xlink:href="#Ubuntu-43b" x="377.949921"/>
      <use xlink:href="#Ubuntu-438" x="437.749908"/>
      <use xlink:href="#Ubuntu-432" x="497.449905"/>
      <use xlink:href="#Ubuntu-43e" x="552.249893"/>
      <use xlink:href="#Ubuntu-447" x="611.249878"/>
      <use xlink:href="#Ubuntu-43d" x="664.549866"/>
      <use xlink:href="#Ubuntu-43e" x="723.149857"/>
      <use xlink:href="#Ubuntu-435" x="782.149841"/>
     </g>
    </g>
    <g id="line2d_35">
     <path d="M 202.961094 27.781875 
L 211.961094 27.781875 
L 220.961094 27.781875 
" style="fill: none; stroke: #608eb4; stroke-width: 1.25; stroke-linecap: square"/>
    </g>
    <g id="text_28">
     <!-- Сыр -->
     <g style="fill: #4b4b4b" transform="translate(228.161094 30.931875) scale(0.09 -0.09)">
      <use xlink:href="#Ubuntu-421"/>
      <use xlink:href="#Ubuntu-44b" x="61.999985"/>
      <use xlink:href="#Ubuntu-440" x="137.799973"/>
     </g>
    </g>
    <g id="line2d_36">
     <path d="M 321.583906 14.633438 
L 330.583906 14.633438 
L 339.583906 14.633438 
" style="fill: none; stroke: #489079; stroke-width: 1.25; stroke-linecap: square"/>
    </g>
    <g id="text_29">
     <!-- Сметана -->
     <g style="fill: #4b4b4b" transform="translate(346.783906 17.783438) scale(0.09 -0.09)">
      <use xlink:href="#Ubuntu-421"/>
      <use xlink:href="#Ubuntu-43c" x="61.999985"/>
      <use xlink:href="#Ubuntu-435" x="135.099976"/>
      <use xlink:href="#Ubuntu-442" x="190.999969"/>
      <use xlink:href="#Ubuntu-430" x="237.299957"/>
      <use xlink:href="#Ubuntu-43d" x="289.499954"/>
      <use xlink:href="#Ubuntu-430" x="348.099945"/>
     </g>
    </g>
    <g id="line2d_37">
     <path d="M 321.583906 28.935 
L 330.583906 28.935 
L 339.583906 28.935 
" style="fill: none; stroke: #eea92b; stroke-opacity: 0.95; stroke-width: 1.25; stroke-linecap: square"/>
    </g>
    <g id="text_30">
     <!-- Йогрут -->
     <g style="fill: #4b4b4b" transform="translate(346.783906 32.085) scale(0.09 -0.09)">
      <defs>
       <path id="Ubuntu-419" d="M 550 0 
L 550 4435 
L 1158 4435 
L 1158 1152 
Q 1363 1491 1660 1926 
Q 1958 2362 2294 2813 
Q 2630 3264 2972 3689 
Q 3315 4115 3616 4435 
L 4109 4435 
L 4109 0 
L 3501 0 
L 3501 3462 
Q 3322 3258 3110 2989 
Q 2899 2720 2675 2416 
Q 2451 2112 2224 1785 
Q 1997 1459 1785 1142 
Q 1574 826 1392 531 
Q 1210 237 1069 0 
L 550 0 
z
M 2333 4890 
Q 1930 4890 1677 5094 
Q 1424 5299 1373 5664 
L 1827 5786 
Q 1878 5581 2000 5453 
Q 2122 5325 2333 5325 
Q 2544 5325 2665 5453 
Q 2787 5581 2838 5786 
L 3286 5664 
Q 3235 5299 2985 5094 
Q 2736 4890 2333 4890 
z
" transform="scale(0.015625)"/>
       <path id="Ubuntu-433" d="M 2573 2829 
L 1107 2829 
L 1107 0 
L 512 0 
L 512 3328 
L 2573 3328 
L 2573 2829 
z
" transform="scale(0.015625)"/>
       <path id="Ubuntu-443" d="M 122 -621 
Q 192 -653 304 -681 
Q 416 -710 525 -710 
Q 877 -710 1075 -553 
Q 1274 -397 1434 -45 
Q 1030 723 681 1584 
Q 333 2445 102 3328 
L 742 3328 
Q 813 3040 912 2707 
Q 1011 2374 1132 2022 
Q 1254 1670 1395 1318 
Q 1536 966 1690 640 
Q 1933 1312 2112 1971 
Q 2291 2630 2451 3328 
L 3066 3328 
Q 2835 2387 2553 1520 
Q 2272 653 1946 -102 
Q 1818 -390 1680 -598 
Q 1542 -806 1376 -940 
Q 1210 -1075 1002 -1139 
Q 794 -1203 531 -1203 
Q 461 -1203 384 -1193 
Q 307 -1184 233 -1168 
Q 160 -1152 99 -1133 
Q 38 -1114 13 -1101 
L 122 -621 
z
" transform="scale(0.015625)"/>
      </defs>
      <use xlink:href="#Ubuntu-419"/>
      <use xlink:href="#Ubuntu-43e" x="72.799988"/>
      <use xlink:href="#Ubuntu-433" x="131.799973"/>
      <use xlink:href="#Ubuntu-440" x="173.59996"/>
      <use xlink:href="#Ubuntu-443" x="231.124954"/>
      <use xlink:href="#Ubuntu-442" x="282.949951"/>
     </g>
    </g>
    <g id="line2d_38">
     <path d="M 400.810625 14.633438 
L 409.810625 14.633438 
L 418.810625 14.633438 
" style="fill: none; stroke: #676391; stroke-width: 1.25; stroke-linecap: square"/>
    </g>
    <g id="text_31">
     <!-- Творог -->
     <g style="fill: #4b4b4b" transform="translate(426.010625 17.783438) scale(0.09 -0.09)">
      <defs>
       <path id="Ubuntu-422" d="M 3514 4435 
L 3514 3898 
L 2118 3898 
L 2118 0 
L 1498 0 
L 1498 3898 
L 102 3898 
L 102 4435 
L 3514 4435 
z
" transform="scale(0.015625)"/>
      </defs>
      <use xlink:href="#Ubuntu-422"/>
      <use xlink:href="#Ubuntu-432" x="49.124985"/>
      <use xlink:href="#Ubuntu-43e" x="103.924973"/>
      <use xlink:href="#Ubuntu-440" x="162.924957"/>
      <use xlink:href="#Ubuntu-43e" x="221.824951"/>
      <use xlink:href="#Ubuntu-433" x="280.824936"/>
     </g>
    </g>
   </g>
   <g id="line2d_39">
    <path d="M 54.26 191.564719 
L 531.35 191.564719 
" clip-path="url(#p541984dd3f)" style="fill: none; stroke-dasharray: 2.775,1.2; stroke-dashoffset: 0; stroke: #c5c5c5; stroke-width: 0.75"/>
   </g>
  </g>
 </g>
 <defs>
  <clipPath id="pde18e0f7f5">
   <rect x="41.705" y="208.196719" width="502.2" height="0"/>
  </clipPath>
  <clipPath id="p541984dd3f">
   <rect x="41.705" y="41.876719" width="502.2" height="166.32"/>
  </clipPath>
 </defs>
</svg>
