<?xml version="1.0" encoding="utf-8" standalone="no"?>
<!DOCTYPE svg PUBLIC "-//W3C//DTD SVG 1.1//EN"
  "http://www.w3.org/Graphics/SVG/1.1/DTD/svg11.dtd">
<svg xmlns:xlink="http://www.w3.org/1999/xlink" width="553.9125pt" height="250.494375pt" viewBox="0 0 553.9125 250.494375" xmlns="http://www.w3.org/2000/svg" version="1.1">
 <metadata>
  <rdf:RDF xmlns:dc="http://purl.org/dc/elements/1.1/" xmlns:cc="http://creativecommons.org/ns#" xmlns:rdf="http://www.w3.org/1999/02/22-rdf-syntax-ns#">
   <cc:Work>
    <dc:type rdf:resource="http://purl.org/dc/dcmitype/StillImage"/>
    <dc:date>2024-04-08T18:30:48.956393</dc:date>
    <dc:format>image/svg+xml</dc:format>
    <dc:creator>
     <cc:Agent>
      <dc:title>Matplotlib v3.8.3, https://matplotlib.org/</dc:title>
     </cc:Agent>
    </dc:creator>
   </cc:Work>
  </rdf:RDF>
 </metadata>
 <defs>
  <style type="text/css">*{stroke-linejoin: round; stroke-linecap: butt}</style>
 </defs>
 <g id="figure_1">
  <g id="patch_1">
   <path d="M 0 250.494375 
L 553.9125 250.494375 
L 553.9125 0 
L 0 0 
L 0 250.494375 
z
" style="fill: none"/>
  </g>
  <g id="axes_1">
   <g id="patch_2">
    <path d="M 37.1925 207.106875 
L 539.3925 207.106875 
L 539.3925 40.786875 
L 37.1925 40.786875 
L 37.1925 207.106875 
z
" style="fill: none"/>
   </g>
   <g id="axes_2">
    <g id="patch_3">
     <path d="M 37.1925 207.106875 
L 539.3925 207.106875 
L 539.3925 207.106875 
L 37.1925 207.106875 
L 37.1925 207.106875 
z
" style="fill: none"/>
    </g>
    <g id="matplotlib.axis_1">
     <g id="xtick_1">
      <g id="line2d_1">
       <path d="M 37.1925 207.106875 
L 37.1925 207.106875 
" clip-path="url(#p5f8cd5460e)" style="fill: none; stroke-dasharray: 0.5,0.825; stroke-dashoffset: 0; stroke: #d9d9d9; stroke-width: 0.5"/>
      </g>
      <g id="text_1">
       <!-- 2021 -->
       <g style="fill: #808080" transform="translate(28.1675 241.814375) scale(0.08 -0.08)">
        <defs>
         <path id="Ubuntu-32" d="M 2989 3302 
Q 2989 3072 2896 2857 
Q 2803 2643 2649 2435 
Q 2496 2227 2304 2025 
Q 2112 1824 1920 1632 
Q 1811 1523 1667 1376 
Q 1523 1229 1395 1069 
Q 1267 909 1180 761 
Q 1094 614 1094 506 
L 3136 506 
L 3136 0 
L 448 0 
Q 442 38 442 76 
Q 442 115 442 147 
Q 442 448 541 707 
Q 640 966 800 1196 
Q 960 1427 1158 1632 
Q 1357 1837 1549 2029 
Q 1709 2182 1853 2332 
Q 1997 2483 2109 2633 
Q 2221 2784 2288 2944 
Q 2355 3104 2355 3283 
Q 2355 3475 2294 3609 
Q 2234 3744 2131 3833 
Q 2029 3923 1891 3964 
Q 1754 4006 1600 4006 
Q 1414 4006 1260 3955 
Q 1107 3904 985 3837 
Q 864 3770 781 3696 
Q 698 3622 653 3584 
L 358 4006 
Q 416 4070 531 4163 
Q 646 4256 806 4339 
Q 966 4422 1164 4480 
Q 1363 4538 1594 4538 
Q 2291 4538 2640 4214 
Q 2989 3891 2989 3302 
z
" transform="scale(0.015625)"/>
         <path id="Ubuntu-30" d="M 320 2221 
Q 320 3334 713 3936 
Q 1107 4538 1805 4538 
Q 2502 4538 2896 3936 
Q 3290 3334 3290 2221 
Q 3290 1107 2896 505 
Q 2502 -96 1805 -96 
Q 1107 -96 713 505 
Q 320 1107 320 2221 
z
M 2662 2221 
Q 2662 2586 2620 2912 
Q 2579 3238 2480 3481 
Q 2381 3725 2214 3869 
Q 2048 4013 1805 4013 
Q 1562 4013 1395 3869 
Q 1229 3725 1129 3481 
Q 1030 3238 988 2912 
Q 947 2586 947 2221 
Q 947 1856 988 1529 
Q 1030 1203 1129 960 
Q 1229 717 1395 573 
Q 1562 429 1805 429 
Q 2048 429 2214 573 
Q 2381 717 2480 960 
Q 2579 1203 2620 1529 
Q 2662 1856 2662 2221 
z
" transform="scale(0.015625)"/>
         <path id="Ubuntu-31" d="M 595 3520 
Q 960 3661 1305 3881 
Q 1651 4102 1939 4435 
L 2362 4435 
L 2362 0 
L 1766 0 
L 1766 3610 
Q 1690 3539 1578 3462 
Q 1466 3386 1334 3315 
Q 1203 3245 1059 3181 
Q 915 3117 781 3072 
L 595 3520 
z
" transform="scale(0.015625)"/>
        </defs>
        <use xlink:href="#Ubuntu-32"/>
        <use xlink:href="#Ubuntu-30" x="56.399994"/>
        <use xlink:href="#Ubuntu-32" x="112.799988"/>
        <use xlink:href="#Ubuntu-31" x="169.199982"/>
       </g>
      </g>
     </g>
     <g id="xtick_2">
      <g id="line2d_2">
       <path d="M 191.748149 207.106875 
L 191.748149 207.106875 
" clip-path="url(#p5f8cd5460e)" style="fill: none; stroke-dasharray: 0.5,0.825; stroke-dashoffset: 0; stroke: #d9d9d9; stroke-width: 0.5"/>
      </g>
      <g id="text_2">
       <!-- 2022 -->
       <g style="fill: #808080" transform="translate(182.723149 241.814375) scale(0.08 -0.08)">
        <use xlink:href="#Ubuntu-32"/>
        <use xlink:href="#Ubuntu-30" x="56.399994"/>
        <use xlink:href="#Ubuntu-32" x="112.799988"/>
        <use xlink:href="#Ubuntu-32" x="169.199982"/>
       </g>
      </g>
     </g>
     <g id="xtick_3">
      <g id="line2d_3">
       <path d="M 346.303798 207.106875 
L 346.303798 207.106875 
" clip-path="url(#p5f8cd5460e)" style="fill: none; stroke-dasharray: 0.5,0.825; stroke-dashoffset: 0; stroke: #d9d9d9; stroke-width: 0.5"/>
      </g>
      <g id="text_3">
       <!-- 2023 -->
       <g style="fill: #808080" transform="translate(337.278798 241.814375) scale(0.08 -0.08)">
        <defs>
         <path id="Ubuntu-33" d="M 1446 435 
Q 2016 435 2262 659 
Q 2509 883 2509 1261 
Q 2509 1504 2406 1670 
Q 2304 1837 2137 1936 
Q 1971 2035 1750 2076 
Q 1530 2118 1299 2118 
L 1146 2118 
L 1146 2605 
L 1357 2605 
Q 1517 2605 1686 2637 
Q 1856 2669 1997 2752 
Q 2138 2835 2227 2979 
Q 2317 3123 2317 3341 
Q 2317 3520 2253 3648 
Q 2189 3776 2083 3859 
Q 1978 3942 1840 3977 
Q 1702 4013 1549 4013 
Q 1242 4013 1027 3923 
Q 813 3834 666 3738 
L 435 4192 
Q 512 4243 630 4304 
Q 749 4365 896 4416 
Q 1043 4467 1212 4502 
Q 1382 4538 1568 4538 
Q 1920 4538 2176 4451 
Q 2432 4365 2598 4208 
Q 2765 4051 2848 3836 
Q 2931 3622 2931 3373 
Q 2931 3027 2732 2780 
Q 2534 2534 2253 2406 
Q 2426 2355 2586 2259 
Q 2746 2163 2864 2016 
Q 2982 1869 3056 1677 
Q 3130 1485 3130 1248 
Q 3130 960 3030 713 
Q 2931 467 2723 288 
Q 2515 109 2201 6 
Q 1888 -96 1459 -96 
Q 1293 -96 1117 -70 
Q 941 -45 787 -6 
Q 634 32 518 70 
Q 403 109 352 134 
L 467 653 
Q 576 602 829 518 
Q 1082 435 1446 435 
z
" transform="scale(0.015625)"/>
        </defs>
        <use xlink:href="#Ubuntu-32"/>
        <use xlink:href="#Ubuntu-30" x="56.399994"/>
        <use xlink:href="#Ubuntu-32" x="112.799988"/>
        <use xlink:href="#Ubuntu-33" x="169.199982"/>
       </g>
      </g>
     </g>
     <g id="xtick_4">
      <g id="line2d_4">
       <path d="M 500.859448 207.106875 
L 500.859448 207.106875 
" clip-path="url(#p5f8cd5460e)" style="fill: none; stroke-dasharray: 0.5,0.825; stroke-dashoffset: 0; stroke: #d9d9d9; stroke-width: 0.5"/>
      </g>
      <g id="text_4">
       <!-- 2024 -->
       <g style="fill: #808080" transform="translate(491.834448 241.814375) scale(0.08 -0.08)">
        <defs>
         <path id="Ubuntu-34" d="M 256 1536 
Q 378 1818 589 2192 
Q 800 2566 1065 2963 
Q 1331 3360 1635 3744 
Q 1939 4128 2246 4435 
L 2816 4435 
L 2816 1619 
L 3341 1619 
L 3341 1133 
L 2816 1133 
L 2816 0 
L 2240 0 
L 2240 1133 
L 256 1133 
L 256 1536 
z
M 2240 3731 
Q 2048 3526 1853 3273 
Q 1658 3021 1472 2745 
Q 1286 2470 1123 2182 
Q 960 1894 832 1619 
L 2240 1619 
L 2240 3731 
z
" transform="scale(0.015625)"/>
        </defs>
        <use xlink:href="#Ubuntu-32"/>
        <use xlink:href="#Ubuntu-30" x="56.399994"/>
        <use xlink:href="#Ubuntu-32" x="112.799988"/>
        <use xlink:href="#Ubuntu-34" x="169.199982"/>
       </g>
      </g>
     </g>
    </g>
    <g id="matplotlib.axis_2"/>
   </g>
   <g id="matplotlib.axis_3">
    <g id="xtick_5">
     <g id="line2d_5">
      <defs>
       <path id="m842d5e90d1" d="M 0 0 
L 0 3 
" style="stroke: #aaaaaa; stroke-width: 0.75"/>
      </defs>
      <g>
       <use xlink:href="#m842d5e90d1" x="37.1925" y="217.106875" style="fill: #aaaaaa; stroke: #aaaaaa; stroke-width: 0.75"/>
      </g>
     </g>
     <g id="text_5">
      <!-- Янв -->
      <g style="fill: #808080" transform="translate(30.116875 232.314375) scale(0.08 -0.08)">
       <defs>
        <path id="Ubuntu-42f" d="M 2272 3936 
Q 2029 3936 1808 3897 
Q 1587 3859 1414 3763 
Q 1242 3667 1139 3500 
Q 1037 3334 1037 3085 
Q 1037 2611 1341 2428 
Q 1645 2246 2253 2246 
L 2893 2246 
L 2893 3917 
Q 2822 3917 2726 3923 
Q 2643 3930 2531 3933 
Q 2419 3936 2272 3936 
z
M 2323 4480 
Q 2458 4480 2611 4473 
Q 2765 4467 2921 4454 
Q 3078 4442 3232 4422 
Q 3386 4403 3514 4371 
L 3514 0 
L 2893 0 
L 2893 1734 
L 2362 1734 
Q 2272 1734 2173 1737 
Q 2074 1741 1907 1760 
Q 1792 1606 1657 1401 
Q 1523 1197 1388 966 
Q 1254 736 1123 486 
Q 992 237 883 0 
L 230 0 
Q 333 250 473 518 
Q 614 787 764 1030 
Q 915 1274 1052 1482 
Q 1190 1690 1293 1824 
Q 1146 1869 986 1952 
Q 826 2035 691 2182 
Q 557 2330 470 2550 
Q 384 2771 384 3078 
Q 384 3424 518 3686 
Q 653 3949 905 4125 
Q 1158 4301 1516 4390 
Q 1875 4480 2323 4480 
z
" transform="scale(0.015625)"/>
        <path id="Ubuntu-43d" d="M 3238 0 
L 2643 0 
L 2643 1472 
L 1107 1472 
L 1107 0 
L 512 0 
L 512 3328 
L 1107 3328 
L 1107 1971 
L 2643 1971 
L 2643 3328 
L 3238 3328 
L 3238 0 
z
" transform="scale(0.015625)"/>
        <path id="Ubuntu-432" d="M 1094 448 
Q 1133 442 1203 435 
Q 1274 429 1363 425 
Q 1453 422 1552 419 
Q 1651 416 1741 416 
Q 1926 416 2096 441 
Q 2266 467 2390 531 
Q 2515 595 2588 700 
Q 2662 806 2662 973 
Q 2662 1133 2595 1238 
Q 2528 1344 2413 1408 
Q 2298 1472 2141 1497 
Q 1984 1523 1805 1523 
L 1094 1523 
L 1094 448 
z
M 1728 1965 
Q 1901 1965 2045 1987 
Q 2189 2010 2294 2067 
Q 2400 2125 2461 2221 
Q 2522 2317 2522 2464 
Q 2522 2618 2445 2707 
Q 2368 2797 2243 2845 
Q 2118 2893 1961 2909 
Q 1805 2925 1645 2925 
Q 1498 2925 1347 2918 
Q 1197 2912 1094 2906 
L 1094 1965 
L 1728 1965 
z
M 1715 -58 
Q 1338 -58 1018 -22 
Q 698 13 512 58 
L 512 3296 
Q 698 3341 1018 3376 
Q 1338 3411 1715 3411 
Q 1978 3411 2227 3366 
Q 2477 3322 2669 3216 
Q 2861 3110 2979 2928 
Q 3098 2746 3098 2477 
Q 3098 2234 2976 2061 
Q 2854 1888 2650 1792 
Q 2925 1696 3088 1507 
Q 3251 1318 3251 979 
Q 3251 678 3132 480 
Q 3014 282 2806 160 
Q 2598 38 2316 -10 
Q 2035 -58 1715 -58 
z
" transform="scale(0.015625)"/>
       </defs>
       <use xlink:href="#Ubuntu-42f"/>
       <use xlink:href="#Ubuntu-43d" x="63.499985"/>
       <use xlink:href="#Ubuntu-432" x="122.099976"/>
      </g>
     </g>
    </g>
    <g id="xtick_6">
     <g id="line2d_6">
      <g>
       <use xlink:href="#m842d5e90d1" x="75.302112" y="217.106875" style="fill: #aaaaaa; stroke: #aaaaaa; stroke-width: 0.75"/>
      </g>
     </g>
     <g id="text_6">
      <!-- Апр -->
      <g style="fill: #808080" transform="translate(67.982112 232.314375) scale(0.08 -0.08)">
       <defs>
        <path id="Ubuntu-410" d="M 3514 0 
Q 3405 288 3309 566 
Q 3213 845 3110 1133 
L 1101 1133 
L 698 0 
L 51 0 
Q 307 704 531 1302 
Q 755 1901 969 2438 
Q 1184 2976 1395 3465 
Q 1606 3955 1837 4435 
L 2406 4435 
Q 2637 3955 2848 3465 
Q 3059 2976 3273 2438 
Q 3488 1901 3712 1302 
Q 3936 704 4192 0 
L 3514 0 
z
M 2931 1645 
Q 2726 2202 2524 2723 
Q 2323 3245 2106 3725 
Q 1882 3245 1680 2723 
Q 1478 2202 1280 1645 
L 2931 1645 
z
" transform="scale(0.015625)"/>
        <path id="Ubuntu-43f" d="M 3187 0 
L 2592 0 
L 2592 2829 
L 1107 2829 
L 1107 0 
L 512 0 
L 512 3328 
L 3187 3328 
L 3187 0 
z
" transform="scale(0.015625)"/>
        <path id="Ubuntu-440" d="M 2822 1658 
Q 2822 2240 2534 2553 
Q 2246 2867 1766 2867 
Q 1498 2867 1347 2848 
Q 1197 2829 1107 2803 
L 1107 704 
Q 1216 614 1421 531 
Q 1626 448 1869 448 
Q 2125 448 2307 541 
Q 2490 634 2605 797 
Q 2720 960 2771 1181 
Q 2822 1402 2822 1658 
z
M 3443 1658 
Q 3443 1280 3344 960 
Q 3245 640 3053 409 
Q 2861 179 2582 51 
Q 2304 -77 1946 -77 
Q 1658 -77 1437 0 
Q 1216 77 1107 147 
L 1107 -1184 
L 512 -1184 
L 512 3226 
Q 723 3277 1040 3337 
Q 1357 3398 1773 3398 
Q 2157 3398 2464 3276 
Q 2771 3155 2988 2931 
Q 3206 2707 3324 2384 
Q 3443 2061 3443 1658 
z
" transform="scale(0.015625)"/>
       </defs>
       <use xlink:href="#Ubuntu-410"/>
       <use xlink:href="#Ubuntu-43f" x="66.299988"/>
       <use xlink:href="#Ubuntu-440" x="124.099976"/>
      </g>
     </g>
    </g>
    <g id="xtick_7">
     <g id="line2d_7">
      <g>
       <use xlink:href="#m842d5e90d1" x="113.835164" y="217.106875" style="fill: #aaaaaa; stroke: #aaaaaa; stroke-width: 0.75"/>
      </g>
     </g>
     <g id="text_7">
      <!-- Июл -->
      <g style="fill: #808080" transform="translate(105.287664 232.314375) scale(0.08 -0.08)">
       <defs>
        <path id="Ubuntu-418" d="M 550 0 
L 550 4435 
L 1158 4435 
L 1158 1152 
Q 1363 1491 1660 1926 
Q 1958 2362 2294 2813 
Q 2630 3264 2972 3689 
Q 3315 4115 3616 4435 
L 4109 4435 
L 4109 0 
L 3501 0 
L 3501 3462 
Q 3322 3258 3110 2989 
Q 2899 2720 2675 2416 
Q 2451 2112 2224 1785 
Q 1997 1459 1785 1142 
Q 1574 826 1392 531 
Q 1210 237 1069 0 
L 550 0 
z
" transform="scale(0.015625)"/>
        <path id="Ubuntu-44e" d="M 1107 1952 
L 1837 1952 
Q 1875 2285 2006 2553 
Q 2138 2822 2336 3014 
Q 2534 3206 2790 3308 
Q 3046 3411 3341 3411 
Q 3667 3411 3945 3286 
Q 4224 3162 4429 2931 
Q 4634 2701 4749 2377 
Q 4864 2054 4864 1664 
Q 4864 1267 4749 947 
Q 4634 627 4429 396 
Q 4224 166 3945 41 
Q 3667 -83 3341 -83 
Q 3034 -83 2768 29 
Q 2502 141 2304 342 
Q 2106 544 1981 832 
Q 1856 1120 1830 1472 
L 1107 1472 
L 1107 0 
L 512 0 
L 512 3328 
L 1107 3328 
L 1107 1952 
z
M 4250 1664 
Q 4250 2227 4003 2556 
Q 3757 2886 3341 2886 
Q 2925 2886 2678 2556 
Q 2432 2227 2432 1664 
Q 2432 1101 2678 771 
Q 2925 442 3341 442 
Q 3757 442 4003 771 
Q 4250 1101 4250 1664 
z
" transform="scale(0.015625)"/>
        <path id="Ubuntu-43b" d="M 1670 2829 
Q 1670 2618 1660 2378 
Q 1651 2138 1625 1898 
Q 1600 1658 1555 1424 
Q 1510 1190 1440 986 
Q 1370 781 1264 601 
Q 1158 422 1004 284 
Q 851 147 646 54 
Q 442 -38 166 -64 
L 83 435 
Q 397 499 579 672 
Q 762 845 870 1094 
Q 966 1312 1011 1587 
Q 1056 1862 1075 2160 
Q 1094 2458 1097 2758 
Q 1101 3059 1101 3328 
L 3315 3328 
L 3315 0 
L 2720 0 
L 2720 2829 
L 1670 2829 
z
" transform="scale(0.015625)"/>
       </defs>
       <use xlink:href="#Ubuntu-418"/>
       <use xlink:href="#Ubuntu-44e" x="72.799988"/>
       <use xlink:href="#Ubuntu-43b" x="153.899979"/>
      </g>
     </g>
    </g>
    <g id="xtick_8">
     <g id="line2d_8">
      <g>
       <use xlink:href="#m842d5e90d1" x="152.791657" y="217.106875" style="fill: #aaaaaa; stroke: #aaaaaa; stroke-width: 0.75"/>
      </g>
     </g>
     <g id="text_8">
      <!-- Окт -->
      <g style="fill: #808080" transform="translate(145.679782 232.314375) scale(0.08 -0.08)">
       <defs>
        <path id="Ubuntu-41e" d="M 371 2221 
Q 371 2790 540 3225 
Q 710 3661 1001 3952 
Q 1293 4243 1680 4390 
Q 2067 4538 2502 4538 
Q 2931 4538 3312 4390 
Q 3693 4243 3981 3952 
Q 4269 3661 4438 3225 
Q 4608 2790 4608 2221 
Q 4608 1651 4438 1216 
Q 4269 781 3981 489 
Q 3693 198 3312 51 
Q 2931 -96 2502 -96 
Q 2067 -96 1680 51 
Q 1293 198 1001 489 
Q 710 781 540 1216 
Q 371 1651 371 2221 
z
M 1024 2221 
Q 1024 1818 1126 1488 
Q 1229 1158 1417 928 
Q 1606 698 1878 573 
Q 2150 448 2490 448 
Q 2829 448 3097 573 
Q 3366 698 3555 928 
Q 3744 1158 3846 1488 
Q 3949 1818 3949 2221 
Q 3949 2624 3846 2953 
Q 3744 3283 3555 3513 
Q 3366 3744 3097 3869 
Q 2829 3994 2490 3994 
Q 2150 3994 1878 3869 
Q 1606 3744 1417 3513 
Q 1229 3283 1126 2953 
Q 1024 2624 1024 2221 
z
" transform="scale(0.015625)"/>
        <path id="Ubuntu-43a" d="M 1728 1811 
Q 1926 1670 2156 1456 
Q 2387 1242 2608 992 
Q 2829 742 3021 483 
Q 3213 224 3347 0 
L 2643 0 
Q 2502 218 2313 445 
Q 2125 672 1920 883 
Q 1715 1094 1504 1273 
Q 1293 1453 1107 1574 
L 1107 0 
L 512 0 
L 512 3328 
L 1107 3328 
L 1107 1901 
Q 1261 2048 1459 2243 
Q 1658 2438 1859 2640 
Q 2061 2842 2233 3024 
Q 2406 3206 2515 3328 
L 3206 3328 
Q 3066 3174 2877 2979 
Q 2688 2784 2486 2579 
Q 2285 2374 2086 2172 
Q 1888 1971 1728 1811 
z
" transform="scale(0.015625)"/>
        <path id="Ubuntu-442" d="M 2861 3328 
L 2861 2829 
L 1779 2829 
L 1779 0 
L 1184 0 
L 1184 2829 
L 102 2829 
L 102 3328 
L 2861 3328 
z
" transform="scale(0.015625)"/>
       </defs>
       <use xlink:href="#Ubuntu-41e"/>
       <use xlink:href="#Ubuntu-43a" x="77.799988"/>
       <use xlink:href="#Ubuntu-442" x="131.499985"/>
      </g>
     </g>
    </g>
    <g id="xtick_9">
     <g id="line2d_9">
      <g>
       <use xlink:href="#m842d5e90d1" x="191.748149" y="217.106875" style="fill: #aaaaaa; stroke: #aaaaaa; stroke-width: 0.75"/>
      </g>
     </g>
     <g id="text_9">
      <!-- Янв -->
      <g style="fill: #808080" transform="translate(184.672524 232.314375) scale(0.08 -0.08)">
       <use xlink:href="#Ubuntu-42f"/>
       <use xlink:href="#Ubuntu-43d" x="63.499985"/>
       <use xlink:href="#Ubuntu-432" x="122.099976"/>
      </g>
     </g>
    </g>
    <g id="xtick_10">
     <g id="line2d_10">
      <g>
       <use xlink:href="#m842d5e90d1" x="229.857761" y="217.106875" style="fill: #aaaaaa; stroke: #aaaaaa; stroke-width: 0.75"/>
      </g>
     </g>
     <g id="text_10">
      <!-- Апр -->
      <g style="fill: #808080" transform="translate(222.537761 232.314375) scale(0.08 -0.08)">
       <use xlink:href="#Ubuntu-410"/>
       <use xlink:href="#Ubuntu-43f" x="66.299988"/>
       <use xlink:href="#Ubuntu-440" x="124.099976"/>
      </g>
     </g>
    </g>
    <g id="xtick_11">
     <g id="line2d_11">
      <g>
       <use xlink:href="#m842d5e90d1" x="268.390814" y="217.106875" style="fill: #aaaaaa; stroke: #aaaaaa; stroke-width: 0.75"/>
      </g>
     </g>
     <g id="text_11">
      <!-- Июл -->
      <g style="fill: #808080" transform="translate(259.843314 232.314375) scale(0.08 -0.08)">
       <use xlink:href="#Ubuntu-418"/>
       <use xlink:href="#Ubuntu-44e" x="72.799988"/>
       <use xlink:href="#Ubuntu-43b" x="153.899979"/>
      </g>
     </g>
    </g>
    <g id="xtick_12">
     <g id="line2d_12">
      <g>
       <use xlink:href="#m842d5e90d1" x="307.347306" y="217.106875" style="fill: #aaaaaa; stroke: #aaaaaa; stroke-width: 0.75"/>
      </g>
     </g>
     <g id="text_12">
      <!-- Окт -->
      <g style="fill: #808080" transform="translate(300.235431 232.314375) scale(0.08 -0.08)">
       <use xlink:href="#Ubuntu-41e"/>
       <use xlink:href="#Ubuntu-43a" x="77.799988"/>
       <use xlink:href="#Ubuntu-442" x="131.499985"/>
      </g>
     </g>
    </g>
    <g id="xtick_13">
     <g id="line2d_13">
      <g>
       <use xlink:href="#m842d5e90d1" x="346.303798" y="217.106875" style="fill: #aaaaaa; stroke: #aaaaaa; stroke-width: 0.75"/>
      </g>
     </g>
     <g id="text_13">
      <!-- Янв -->
      <g style="fill: #808080" transform="translate(339.228173 232.314375) scale(0.08 -0.08)">
       <use xlink:href="#Ubuntu-42f"/>
       <use xlink:href="#Ubuntu-43d" x="63.499985"/>
       <use xlink:href="#Ubuntu-432" x="122.099976"/>
      </g>
     </g>
    </g>
    <g id="xtick_14">
     <g id="line2d_14">
      <g>
       <use xlink:href="#m842d5e90d1" x="384.413411" y="217.106875" style="fill: #aaaaaa; stroke: #aaaaaa; stroke-width: 0.75"/>
      </g>
     </g>
     <g id="text_14">
      <!-- Апр -->
      <g style="fill: #808080" transform="translate(377.093411 232.314375) scale(0.08 -0.08)">
       <use xlink:href="#Ubuntu-410"/>
       <use xlink:href="#Ubuntu-43f" x="66.299988"/>
       <use xlink:href="#Ubuntu-440" x="124.099976"/>
      </g>
     </g>
    </g>
    <g id="xtick_15">
     <g id="line2d_15">
      <g>
       <use xlink:href="#m842d5e90d1" x="422.946463" y="217.106875" style="fill: #aaaaaa; stroke: #aaaaaa; stroke-width: 0.75"/>
      </g>
     </g>
     <g id="text_15">
      <!-- Июл -->
      <g style="fill: #808080" transform="translate(414.398963 232.314375) scale(0.08 -0.08)">
       <use xlink:href="#Ubuntu-418"/>
       <use xlink:href="#Ubuntu-44e" x="72.799988"/>
       <use xlink:href="#Ubuntu-43b" x="153.899979"/>
      </g>
     </g>
    </g>
    <g id="xtick_16">
     <g id="line2d_16">
      <g>
       <use xlink:href="#m842d5e90d1" x="461.902955" y="217.106875" style="fill: #aaaaaa; stroke: #aaaaaa; stroke-width: 0.75"/>
      </g>
     </g>
     <g id="text_16">
      <!-- Окт -->
      <g style="fill: #808080" transform="translate(454.79108 232.314375) scale(0.08 -0.08)">
       <use xlink:href="#Ubuntu-41e"/>
       <use xlink:href="#Ubuntu-43a" x="77.799988"/>
       <use xlink:href="#Ubuntu-442" x="131.499985"/>
      </g>
     </g>
    </g>
    <g id="xtick_17">
     <g id="line2d_17">
      <g>
       <use xlink:href="#m842d5e90d1" x="500.859448" y="217.106875" style="fill: #aaaaaa; stroke: #aaaaaa; stroke-width: 0.75"/>
      </g>
     </g>
     <g id="text_17">
      <!-- Янв -->
      <g style="fill: #808080" transform="translate(493.783823 232.314375) scale(0.08 -0.08)">
       <use xlink:href="#Ubuntu-42f"/>
       <use xlink:href="#Ubuntu-43d" x="63.499985"/>
       <use xlink:href="#Ubuntu-432" x="122.099976"/>
      </g>
     </g>
    </g>
    <g id="xtick_18">
     <g id="line2d_18">
      <g>
       <use xlink:href="#m842d5e90d1" x="539.3925" y="217.106875" style="fill: #aaaaaa; stroke: #aaaaaa; stroke-width: 0.75"/>
      </g>
     </g>
     <g id="text_18">
      <!-- Апр -->
      <g style="fill: #808080" transform="translate(532.0725 232.314375) scale(0.08 -0.08)">
       <use xlink:href="#Ubuntu-410"/>
       <use xlink:href="#Ubuntu-43f" x="66.299988"/>
       <use xlink:href="#Ubuntu-440" x="124.099976"/>
      </g>
     </g>
    </g>
   </g>
   <g id="matplotlib.axis_4">
    <g id="ytick_1">
     <g id="line2d_19">
      <defs>
       <path id="ma6efec6b6e" d="M 0 0 
L -3 0 
" style="stroke: #aaaaaa; stroke-width: 0.75"/>
      </defs>
      <g>
       <use xlink:href="#ma6efec6b6e" x="27.1925" y="207.106875" style="fill: #aaaaaa; stroke: #aaaaaa; stroke-width: 0.75"/>
      </g>
     </g>
     <g id="text_19">
      <!-- 0.0 -->
      <g style="fill: #808080" transform="translate(7.2 210.210625) scale(0.08 -0.08)">
       <defs>
        <path id="Ubuntu-2e" d="M 1216 346 
Q 1216 173 1101 45 
Q 986 -83 787 -83 
Q 589 -83 473 45 
Q 358 173 358 346 
Q 358 518 473 646 
Q 589 774 787 774 
Q 986 774 1101 646 
Q 1216 518 1216 346 
z
" transform="scale(0.015625)"/>
       </defs>
       <use xlink:href="#Ubuntu-30"/>
       <use xlink:href="#Ubuntu-2e" x="56.399994"/>
       <use xlink:href="#Ubuntu-30" x="80.999985"/>
      </g>
     </g>
    </g>
    <g id="ytick_2">
     <g id="line2d_20">
      <g>
       <use xlink:href="#ma6efec6b6e" x="27.1925" y="179.386875" style="fill: #aaaaaa; stroke: #aaaaaa; stroke-width: 0.75"/>
      </g>
     </g>
     <g id="text_20">
      <!-- 0.5 -->
      <g style="fill: #808080" transform="translate(7.2 182.490625) scale(0.08 -0.08)">
       <defs>
        <path id="Ubuntu-35" d="M 1274 2726 
Q 2240 2688 2691 2304 
Q 3142 1920 3142 1261 
Q 3142 966 3043 716 
Q 2944 467 2742 288 
Q 2541 109 2233 6 
Q 1926 -96 1504 -96 
Q 1338 -96 1165 -70 
Q 992 -45 845 -6 
Q 698 32 582 70 
Q 467 109 416 134 
L 531 653 
Q 640 602 886 518 
Q 1133 435 1491 435 
Q 1779 435 1974 499 
Q 2170 563 2291 672 
Q 2413 781 2467 925 
Q 2522 1069 2522 1229 
Q 2522 1472 2438 1661 
Q 2355 1850 2144 1978 
Q 1933 2106 1581 2173 
Q 1229 2240 691 2240 
Q 730 2554 752 2829 
Q 774 3104 793 3366 
Q 813 3629 825 3888 
Q 838 4147 851 4435 
L 2989 4435 
L 2989 3930 
L 1370 3930 
Q 1363 3834 1350 3670 
Q 1338 3507 1325 3331 
Q 1312 3155 1299 2988 
Q 1286 2822 1274 2726 
z
" transform="scale(0.015625)"/>
       </defs>
       <use xlink:href="#Ubuntu-30"/>
       <use xlink:href="#Ubuntu-2e" x="56.399994"/>
       <use xlink:href="#Ubuntu-35" x="80.999985"/>
      </g>
     </g>
    </g>
    <g id="ytick_3">
     <g id="line2d_21">
      <g>
       <use xlink:href="#ma6efec6b6e" x="27.1925" y="151.666875" style="fill: #aaaaaa; stroke: #aaaaaa; stroke-width: 0.75"/>
      </g>
     </g>
     <g id="text_21">
      <!-- 1.0 -->
      <g style="fill: #808080" transform="translate(7.2 154.770625) scale(0.08 -0.08)">
       <use xlink:href="#Ubuntu-31"/>
       <use xlink:href="#Ubuntu-2e" x="56.399994"/>
       <use xlink:href="#Ubuntu-30" x="80.999985"/>
      </g>
     </g>
    </g>
    <g id="ytick_4">
     <g id="line2d_22">
      <g>
       <use xlink:href="#ma6efec6b6e" x="27.1925" y="123.946875" style="fill: #aaaaaa; stroke: #aaaaaa; stroke-width: 0.75"/>
      </g>
     </g>
     <g id="text_22">
      <!-- 1.5 -->
      <g style="fill: #808080" transform="translate(7.2 127.050625) scale(0.08 -0.08)">
       <use xlink:href="#Ubuntu-31"/>
       <use xlink:href="#Ubuntu-2e" x="56.399994"/>
       <use xlink:href="#Ubuntu-35" x="80.999985"/>
      </g>
     </g>
    </g>
    <g id="ytick_5">
     <g id="line2d_23">
      <g>
       <use xlink:href="#ma6efec6b6e" x="27.1925" y="96.226875" style="fill: #aaaaaa; stroke: #aaaaaa; stroke-width: 0.75"/>
      </g>
     </g>
     <g id="text_23">
      <!-- 2.0 -->
      <g style="fill: #808080" transform="translate(7.2 99.330625) scale(0.08 -0.08)">
       <use xlink:href="#Ubuntu-32"/>
       <use xlink:href="#Ubuntu-2e" x="56.399994"/>
       <use xlink:href="#Ubuntu-30" x="80.999985"/>
      </g>
     </g>
    </g>
    <g id="ytick_6">
     <g id="line2d_24">
      <g>
       <use xlink:href="#ma6efec6b6e" x="27.1925" y="68.506875" style="fill: #aaaaaa; stroke: #aaaaaa; stroke-width: 0.75"/>
      </g>
     </g>
     <g id="text_24">
      <!-- 2.5 -->
      <g style="fill: #808080" transform="translate(7.2 71.610625) scale(0.08 -0.08)">
       <use xlink:href="#Ubuntu-32"/>
       <use xlink:href="#Ubuntu-2e" x="56.399994"/>
       <use xlink:href="#Ubuntu-35" x="80.999985"/>
      </g>
     </g>
    </g>
    <g id="ytick_7">
     <g id="line2d_25">
      <g>
       <use xlink:href="#ma6efec6b6e" x="27.1925" y="40.786875" style="fill: #aaaaaa; stroke: #aaaaaa; stroke-width: 0.75"/>
      </g>
     </g>
     <g id="text_25">
      <!-- 3.0 -->
      <g style="fill: #808080" transform="translate(7.2 43.890625) scale(0.08 -0.08)">
       <use xlink:href="#Ubuntu-33"/>
       <use xlink:href="#Ubuntu-2e" x="56.399994"/>
       <use xlink:href="#Ubuntu-30" x="80.999985"/>
      </g>
     </g>
    </g>
   </g>
   <g id="line2d_26">
    <path d="M 37.1925 151.666875 
L 38.787127 148.281623 
L 40.381755 145.810523 
L 41.976382 144.160852 
L 43.57101 143.239886 
L 45.165637 142.954901 
L 46.760264 143.213173 
L 48.354892 143.92198 
L 49.949519 144.988596 
L 51.544147 146.3203 
L 59.517284 153.709787 
L 61.111911 154.684813 
L 62.706538 155.27586 
L 64.301166 155.407729 
L 65.895793 155.120095 
L 67.490421 154.498895 
L 69.085048 153.630193 
L 72.274303 151.494542 
L 75.463558 149.401658 
L 77.058185 148.579615 
L 78.652812 147.954986 
L 80.24744 147.519914 
L 81.842067 147.266318 
L 83.436695 147.186116 
L 85.031322 147.271225 
L 86.625949 147.513564 
L 88.220577 147.90505 
L 89.815204 148.437219 
L 93.004459 149.869731 
L 96.193714 151.689585 
L 99.382969 153.772374 
L 105.761478 158.279886 
L 112.139988 163.078193 
L 124.897007 173.033865 
L 128.086262 174.93253 
L 129.680889 175.682816 
L 131.275516 176.262229 
L 132.870144 176.640337 
L 134.464771 176.786709 
L 136.059399 176.670914 
L 137.654026 176.26252 
L 139.248653 175.531098 
L 140.843281 174.447152 
L 142.437908 173.030783 
L 145.627163 169.58016 
L 148.816418 165.967482 
L 150.411045 164.348546 
L 152.005673 162.986904 
L 153.6003 161.981147 
L 155.194927 161.362095 
L 156.789555 161.036052 
L 159.97881 160.83475 
L 161.573437 160.74537 
L 163.168064 160.520758 
L 164.762692 160.053854 
L 166.357319 159.237826 
L 167.951947 158.021657 
L 169.546574 156.482705 
L 172.735829 152.817802 
L 175.925084 149.00582 
L 177.519711 147.283018 
L 179.114338 145.809426 
L 180.708966 144.643669 
L 182.303593 143.737936 
L 183.898221 143.025223 
L 191.871358 140.011758 
L 193.465985 139.072477 
L 196.65524 136.805919 
L 201.439122 133.294721 
L 203.033749 132.323595 
L 204.628377 131.547511 
L 206.223004 131.0092 
L 207.817632 130.683127 
L 209.412259 130.523691 
L 212.601514 130.52232 
L 217.385396 130.629978 
L 220.574651 130.322354 
L 230.142415 128.828633 
L 231.737043 128.789254 
L 233.33167 128.87938 
L 234.926297 129.120565 
L 236.520925 129.534354 
L 238.115552 130.142291 
L 239.71018 130.965922 
L 241.304807 132.026789 
L 242.899434 133.346438 
L 244.494062 134.94103 
L 247.683316 138.767209 
L 254.061826 146.967459 
L 255.656453 148.714298 
L 257.251081 150.202099 
L 258.845708 151.438201 
L 262.034963 153.39977 
L 266.818845 155.995841 
L 268.413473 157.016937 
L 270.0081 158.216146 
L 273.197355 161.091275 
L 277.981237 165.754833 
L 279.575864 167.176113 
L 281.170492 168.436273 
L 282.765119 169.480131 
L 284.359747 170.295141 
L 285.954374 170.916151 
L 287.549001 171.380482 
L 290.738256 171.988398 
L 297.116766 172.930441 
L 300.306021 173.405952 
L 301.900648 173.519027 
L 303.495275 173.489319 
L 305.089903 173.272084 
L 306.68453 172.822575 
L 308.279158 172.096403 
L 309.873785 171.077343 
L 311.468412 169.797264 
L 313.06304 168.292737 
L 316.252295 164.756622 
L 319.441549 160.761565 
L 330.603941 146.033423 
L 338.577078 135.618482 
L 343.36096 129.8078 
L 346.550215 126.296937 
L 349.73947 123.227197 
L 351.334097 121.953708 
L 352.928725 120.913909 
L 354.523352 120.152379 
L 356.11798 119.713697 
L 357.712607 119.64244 
L 359.307234 119.983187 
L 360.901862 120.751372 
L 362.496489 121.836006 
L 367.280371 125.535981 
L 368.874999 126.433788 
L 370.469626 126.921732 
L 372.064254 126.854549 
L 373.658881 126.128204 
L 375.253508 124.867236 
L 378.442763 121.554749 
L 380.037391 119.909999 
L 381.632018 118.544091 
L 383.226645 117.660408 
L 384.821273 117.462335 
L 386.4159 118.118591 
L 388.010527 119.550407 
L 389.605155 121.571407 
L 391.199782 123.994774 
L 395.983664 131.810921 
L 397.578292 133.975598 
L 399.172919 135.627752 
L 400.767547 136.778582 
L 402.362174 137.536612 
L 403.956801 138.01134 
L 410.335311 139.26721 
L 411.929938 139.960277 
L 413.524566 140.916963 
L 415.119193 142.080154 
L 418.308448 144.792752 
L 423.09233 148.952299 
L 424.686958 150.132562 
L 427.876212 152.087146 
L 437.443977 157.279918 
L 440.633232 159.595334 
L 451.795623 168.309682 
L 453.390251 169.245653 
L 454.984878 169.967191 
L 456.579506 170.417429 
L 458.174133 170.539499 
L 459.76876 170.276535 
L 461.363388 169.571668 
L 462.958015 168.368768 
L 464.552643 166.658873 
L 466.14727 164.507915 
L 467.741897 161.988484 
L 470.931152 156.134555 
L 482.093544 134.001718 
L 485.282799 128.461653 
L 488.472054 123.543952 
L 491.661308 119.339499 
L 494.850563 115.797293 
L 498.039818 112.838543 
L 501.229073 110.38446 
L 504.418328 108.356255 
L 507.607582 106.675138 
L 510.796837 105.262319 
L 513.986092 104.039009 
L 513.986092 104.039009 
" clip-path="url(#p69b6e8bc7b)" style="fill: none; stroke-dasharray: 5.55,2.4; stroke-dashoffset: 0; stroke: #5d5d5d; stroke-width: 1.5"/>
   </g>
   <g id="line2d_27">
    <path d="M 37.1925 151.666875 
L 38.787127 151.630379 
L 40.381755 151.408531 
L 41.976382 151.019953 
L 43.57101 150.483271 
L 46.760264 149.04009 
L 49.949519 147.227983 
L 54.733401 144.144008 
L 59.517284 141.068041 
L 62.706538 139.270168 
L 65.895793 137.808315 
L 70.679675 136.016565 
L 75.463558 134.224641 
L 78.652812 132.735105 
L 80.24744 131.785226 
L 81.842067 130.63153 
L 83.436695 129.22369 
L 85.031322 127.511382 
L 86.625949 125.444278 
L 88.220577 122.972053 
L 89.815204 120.057508 
L 96.193714 107.12245 
L 97.788341 104.592975 
L 99.382969 102.755202 
L 100.977596 101.814121 
L 102.572223 101.960633 
L 104.166851 103.170196 
L 105.761478 105.250042 
L 107.356105 108.002942 
L 108.950733 111.231661 
L 113.734615 121.800418 
L 115.329242 124.965176 
L 116.92387 127.739521 
L 118.518497 130.14703 
L 120.113125 132.215602 
L 121.707752 133.973134 
L 123.302379 135.447524 
L 124.897007 136.666672 
L 126.491634 137.658474 
L 128.086262 138.45034 
L 129.680889 139.053904 
L 131.275516 139.461972 
L 132.870144 139.666249 
L 134.464771 139.658441 
L 136.059399 139.430253 
L 137.654026 138.973388 
L 139.248653 138.279553 
L 140.843281 137.340953 
L 142.437908 136.17627 
L 145.627163 133.402997 
L 150.411045 129.04753 
L 152.005673 127.787349 
L 153.6003 126.724272 
L 155.194927 125.889406 
L 156.789555 125.259576 
L 158.384182 124.80578 
L 159.97881 124.499018 
L 163.168064 124.210588 
L 175.925084 123.790868 
L 179.114338 123.242455 
L 182.303593 122.385828 
L 187.087475 120.999039 
L 190.27673 120.387665 
L 191.871358 120.273908 
L 195.060612 120.462599 
L 199.844495 120.933304 
L 201.439122 120.893515 
L 203.033749 120.652574 
L 204.628377 120.148797 
L 206.223004 119.337604 
L 207.817632 118.254903 
L 209.412259 116.960254 
L 212.601514 113.973358 
L 217.385396 109.392464 
L 220.574651 106.856499 
L 228.547788 101.091104 
L 230.142415 99.69965 
L 233.33167 96.443273 
L 238.115552 91.197735 
L 239.71018 89.614861 
L 241.304807 88.223959 
L 242.899434 87.090522 
L 244.494062 86.278085 
L 246.088689 85.830174 
L 247.683316 85.778596 
L 249.277944 86.155008 
L 250.872571 86.991068 
L 252.467199 88.318434 
L 254.061826 90.168764 
L 255.656453 92.573717 
L 257.251081 95.558637 
L 258.845708 99.062055 
L 262.034963 107.124565 
L 266.818845 119.967193 
L 268.413473 123.943678 
L 270.0081 127.562419 
L 271.602727 130.787839 
L 273.197355 133.661684 
L 274.791982 136.228455 
L 276.38661 138.532656 
L 279.575864 142.531357 
L 282.765119 146.012686 
L 285.954374 149.163763 
L 289.143629 151.827125 
L 290.738256 152.913475 
L 292.332884 153.802973 
L 293.927511 154.470642 
L 295.522138 154.892118 
L 297.116766 155.070051 
L 298.711393 155.044241 
L 300.306021 154.857193 
L 303.495275 154.169397 
L 308.279158 152.99076 
L 311.468412 152.489602 
L 316.252295 152.073059 
L 322.630804 151.565625 
L 327.414686 150.903925 
L 332.198569 149.981513 
L 336.982451 148.81431 
L 343.36096 146.976159 
L 351.334097 144.556032 
L 354.523352 143.828168 
L 357.712607 143.451007 
L 359.307234 143.439301 
L 360.901862 143.563096 
L 364.091117 144.14089 
L 368.874999 145.459525 
L 373.658881 146.725668 
L 376.848136 147.300149 
L 380.037391 147.633156 
L 383.226645 147.719943 
L 386.4159 147.552713 
L 388.010527 147.344092 
L 389.605155 147.00876 
L 391.199782 146.51178 
L 392.79441 145.818215 
L 394.389037 144.89313 
L 395.983664 143.701586 
L 397.578292 142.208647 
L 399.172919 140.387362 
L 400.767547 138.285187 
L 403.956801 133.590384 
L 407.146056 128.830703 
L 408.740684 126.647431 
L 410.335311 124.713015 
L 411.929938 123.112305 
L 413.524566 121.886561 
L 415.119193 121.047534 
L 416.713821 120.606421 
L 418.308448 120.574417 
L 419.903075 120.962717 
L 421.497703 121.782516 
L 423.09233 123.045011 
L 424.686958 124.757933 
L 426.281585 126.869912 
L 429.47084 131.885865 
L 434.254722 139.853144 
L 435.849349 142.21736 
L 437.443977 144.26798 
L 439.038604 145.976964 
L 440.633232 147.390324 
L 442.227859 148.557498 
L 443.822486 149.527926 
L 447.011741 151.076301 
L 458.174133 155.786254 
L 461.363388 156.781485 
L 464.552643 157.374029 
L 467.741897 157.593375 
L 472.52578 157.517869 
L 486.877426 156.836214 
L 490.066681 156.273024 
L 493.255936 155.476084 
L 502.8237 152.80936 
L 506.012955 152.209174 
L 509.20221 151.943694 
L 510.796837 151.972158 
L 512.391465 152.127127 
L 513.986092 152.422875 
L 513.986092 152.422875 
" clip-path="url(#p69b6e8bc7b)" style="fill: none; stroke: #7e6459; stroke-width: 1.25; stroke-linecap: square"/>
   </g>
   <g id="line2d_28">
    <path d="M 37.1925 151.666875 
L 38.787127 146.870778 
L 40.381755 143.314161 
L 41.976382 140.880404 
L 43.57101 139.452891 
L 45.165637 138.915005 
L 46.760264 139.150127 
L 48.354892 140.041641 
L 49.949519 141.472928 
L 51.544147 143.327371 
L 53.138774 145.488352 
L 59.517284 154.865312 
L 61.111911 156.809723 
L 62.706538 158.360967 
L 64.301166 159.422593 
L 65.895793 160.030335 
L 67.490421 160.273164 
L 69.085048 160.240196 
L 72.274303 159.703335 
L 75.463558 159.132685 
L 77.058185 159.050238 
L 78.652812 159.15058 
L 80.24744 159.422808 
L 81.842067 159.855778 
L 83.436695 160.438346 
L 85.031322 161.159368 
L 88.220577 162.972199 
L 91.409832 165.195458 
L 97.788341 170.199222 
L 100.977596 172.60438 
L 104.166851 174.716454 
L 107.356105 176.531002 
L 110.54536 178.11656 
L 115.329242 180.215787 
L 120.113125 182.043084 
L 123.302379 182.985935 
L 126.491634 183.601513 
L 128.086262 183.75778 
L 129.680889 183.793188 
L 131.275516 183.686537 
L 132.870144 183.41632 
L 134.464771 182.96103 
L 136.059399 182.29916 
L 137.654026 181.409203 
L 139.248653 180.269653 
L 140.843281 178.859747 
L 142.437908 177.198166 
L 145.627163 173.432447 
L 148.816418 169.620897 
L 150.411045 167.902028 
L 152.005673 166.416611 
L 153.6003 165.245761 
L 155.194927 164.418425 
L 156.789555 163.867703 
L 158.384182 163.516407 
L 164.762692 162.56174 
L 166.357319 162.049907 
L 167.951947 161.308752 
L 169.546574 160.373744 
L 172.735829 158.107977 
L 179.114338 153.294086 
L 182.303593 151.370003 
L 191.871358 146.158732 
L 198.249867 141.944407 
L 199.844495 141.199825 
L 201.439122 140.736735 
L 203.033749 140.634085 
L 204.628377 140.970822 
L 206.223004 141.798316 
L 207.817632 143.038184 
L 209.412259 144.57391 
L 215.790769 151.344984 
L 217.385396 152.612193 
L 218.980023 153.499334 
L 220.574651 154.052866 
L 222.169278 154.371342 
L 226.95316 154.902866 
L 228.547788 155.267548 
L 230.142415 155.890389 
L 231.737043 156.856478 
L 233.33167 158.145362 
L 234.926297 159.687084 
L 238.115552 163.248094 
L 242.899434 168.729944 
L 244.494062 170.318177 
L 246.088689 171.722367 
L 247.683316 172.94942 
L 249.277944 174.00658 
L 250.872571 174.901093 
L 252.467199 175.640202 
L 254.061826 176.231153 
L 255.656453 176.681191 
L 258.845708 177.213863 
L 265.224218 177.926137 
L 266.818845 178.289125 
L 268.413473 178.81475 
L 270.0081 179.544084 
L 273.197355 181.47228 
L 276.38661 183.501672 
L 277.981237 184.3555 
L 279.575864 184.996047 
L 281.170492 185.343786 
L 282.765119 185.32175 
L 284.359747 184.92479 
L 285.954374 184.227588 
L 287.549001 183.308997 
L 293.927511 178.997764 
L 295.522138 178.153788 
L 297.116766 177.505512 
L 300.306021 176.592002 
L 305.089903 175.35382 
L 306.68453 174.756176 
L 308.279158 173.974738 
L 309.873785 172.985534 
L 311.468412 171.81697 
L 314.657667 169.075878 
L 325.820059 158.385251 
L 329.009314 155.111606 
L 332.198569 151.31634 
L 333.793196 149.137587 
L 336.982451 144.193596 
L 344.955588 130.931128 
L 346.550215 128.57524 
L 348.144843 126.450247 
L 349.73947 124.61428 
L 351.334097 123.125758 
L 352.928725 122.043097 
L 354.523352 121.424713 
L 356.11798 121.329023 
L 357.712607 121.814443 
L 359.307234 122.939389 
L 360.901862 124.724912 
L 362.496489 127.029966 
L 365.685744 132.458716 
L 368.874999 137.745728 
L 370.469626 139.873609 
L 372.064254 141.411089 
L 373.658881 142.220218 
L 375.253508 142.423865 
L 376.848136 142.234777 
L 380.037391 141.529725 
L 381.632018 141.439426 
L 383.226645 141.80772 
L 384.821273 142.847439 
L 386.4159 144.733259 
L 388.010527 147.367438 
L 389.605155 150.533788 
L 394.389037 161.059158 
L 395.983664 164.187483 
L 397.578292 166.764622 
L 399.172919 168.597517 
L 400.767547 169.713135 
L 402.362174 170.258194 
L 403.956801 170.380611 
L 405.551429 170.228305 
L 408.740684 169.691192 
L 410.335311 169.60222 
L 411.929938 169.819961 
L 413.524566 170.355008 
L 415.119193 171.131928 
L 418.308448 173.103142 
L 421.497703 175.117118 
L 423.09233 175.947492 
L 424.686958 176.560457 
L 426.281585 176.934638 
L 427.876212 177.092751 
L 429.47084 177.058875 
L 431.065467 176.857089 
L 432.660095 176.511473 
L 435.849349 175.485063 
L 440.633232 173.491585 
L 443.822486 172.221989 
L 445.417114 171.704003 
L 447.011741 171.307909 
L 448.606369 171.066716 
L 450.200996 171.012336 
L 451.795623 171.135159 
L 458.174133 172.108065 
L 459.76876 172.140397 
L 461.363388 171.955852 
L 462.958015 171.488691 
L 464.552643 170.706588 
L 466.14727 169.630264 
L 467.741897 168.285157 
L 469.336525 166.696704 
L 470.931152 164.890341 
L 474.120407 160.725637 
L 477.309662 155.996643 
L 488.472054 138.526417 
L 491.661308 134.268194 
L 494.850563 130.524154 
L 498.039818 127.265672 
L 501.229073 124.464121 
L 504.418328 122.090875 
L 507.607582 120.11731 
L 510.796837 118.514799 
L 513.986092 117.254717 
L 513.986092 117.254717 
" clip-path="url(#p69b6e8bc7b)" style="fill: none; stroke: #489079; stroke-width: 1.25; stroke-linecap: square"/>
   </g>
   <g id="line2d_29">
    <path d="M 37.1925 151.666875 
L 38.787127 150.299013 
L 40.381755 149.229652 
L 41.976382 148.434775 
L 43.57101 147.89036 
L 45.165637 147.572389 
L 46.760264 147.456841 
L 48.354892 147.519696 
L 49.949519 147.736935 
L 53.138774 148.538486 
L 56.328029 149.669336 
L 62.706538 152.150297 
L 65.895793 153.152235 
L 70.679675 154.340242 
L 78.652812 156.204339 
L 81.842067 157.134275 
L 85.031322 158.256539 
L 88.220577 159.625585 
L 91.409832 161.279762 
L 96.193714 164.13543 
L 104.166851 168.992342 
L 112.139988 173.398458 
L 120.113125 177.751872 
L 123.302379 179.087086 
L 124.897007 179.550639 
L 126.491634 179.838587 
L 128.086262 179.921634 
L 129.680889 179.782862 
L 131.275516 179.420117 
L 132.870144 178.832111 
L 134.464771 178.017556 
L 136.059399 176.975163 
L 137.654026 175.703644 
L 139.248653 174.201712 
L 140.843281 172.468636 
L 144.032536 168.468441 
L 148.816418 162.258419 
L 150.411045 160.437287 
L 152.005673 158.867592 
L 153.6003 157.625125 
L 155.194927 156.744577 
L 156.789555 156.185132 
L 158.384182 155.897871 
L 159.97881 155.833875 
L 161.573437 155.944224 
L 164.762692 156.492277 
L 169.546574 157.44257 
L 172.735829 157.794704 
L 174.330456 157.81398 
L 175.925084 157.696762 
L 177.519711 157.419072 
L 179.114338 156.95695 
L 180.708966 156.303499 
L 183.898221 154.601991 
L 188.682103 151.836358 
L 190.27673 151.063753 
L 191.871358 150.451689 
L 195.060612 149.713848 
L 198.249867 149.05966 
L 199.844495 148.529877 
L 201.439122 147.740136 
L 203.033749 146.596813 
L 204.628377 145.006285 
L 206.223004 142.913018 
L 209.412259 137.765758 
L 212.601514 132.513395 
L 214.196141 130.288758 
L 215.790769 128.566993 
L 217.385396 127.524484 
L 218.980023 127.302369 
L 220.574651 127.829431 
L 222.169278 128.955304 
L 223.763906 130.529486 
L 226.95316 134.420776 
L 230.142415 138.299294 
L 231.737043 139.876264 
L 233.33167 141.182086 
L 236.520925 143.311824 
L 239.71018 145.353545 
L 241.304807 146.549345 
L 242.899434 147.972678 
L 244.494062 149.696874 
L 246.088689 151.694542 
L 249.277944 156.164047 
L 252.467199 160.684961 
L 254.061826 162.746892 
L 255.656453 164.560308 
L 257.251081 166.044149 
L 258.845708 167.200722 
L 260.440336 168.092954 
L 262.034963 168.785136 
L 265.224218 169.826531 
L 268.413473 170.839253 
L 270.0081 171.492889 
L 273.197355 173.148642 
L 279.575864 176.787915 
L 281.170492 177.541128 
L 282.765119 178.155223 
L 284.359747 178.60989 
L 285.954374 178.9044 
L 287.549001 179.039047 
L 289.143629 179.014123 
L 290.738256 178.829923 
L 292.332884 178.48674 
L 293.927511 177.984868 
L 295.522138 177.324827 
L 298.711393 175.586401 
L 301.900648 173.456989 
L 309.873785 167.752467 
L 313.06304 165.776583 
L 316.252295 164.137595 
L 319.441549 162.925244 
L 321.036177 162.507004 
L 324.225432 161.998858 
L 329.009314 161.387995 
L 330.603941 161.040066 
L 332.198569 160.543038 
L 333.793196 159.850782 
L 335.387823 158.939266 
L 336.982451 157.843755 
L 340.171706 155.281158 
L 344.955588 151.184884 
L 348.144843 148.795665 
L 352.928725 145.762809 
L 356.11798 143.670397 
L 357.712607 142.487422 
L 359.307234 141.161882 
L 362.496489 138.057589 
L 367.280371 133.106782 
L 368.874999 131.625851 
L 370.469626 130.332854 
L 372.064254 129.28975 
L 373.658881 128.551336 
L 375.253508 128.132701 
L 376.848136 128.03525 
L 378.442763 128.260373 
L 380.037391 128.809462 
L 381.632018 129.683909 
L 383.226645 130.885106 
L 384.821273 132.414445 
L 386.4159 134.267695 
L 388.010527 136.400502 
L 391.199782 141.257502 
L 397.578292 151.604568 
L 400.767547 156.1426 
L 402.362174 158.118933 
L 403.956801 159.876267 
L 405.551429 161.396732 
L 407.146056 162.662456 
L 408.740684 163.655567 
L 410.335311 164.358195 
L 411.929938 164.756986 
L 413.524566 164.894692 
L 416.713821 164.710486 
L 419.903075 164.456443 
L 421.497703 164.506852 
L 423.09233 164.784145 
L 424.686958 165.364399 
L 426.281585 166.232001 
L 429.47084 168.457015 
L 432.660095 170.702841 
L 434.254722 171.596456 
L 435.849349 172.210753 
L 437.443977 172.453629 
L 439.038604 172.300179 
L 440.633232 171.7951 
L 442.227859 170.986315 
L 443.822486 169.921744 
L 445.417114 168.649306 
L 448.606369 165.672519 
L 453.390251 160.751821 
L 466.14727 147.371837 
L 469.336525 144.425239 
L 472.52578 141.934511 
L 474.120407 140.913114 
L 475.715034 140.06915 
L 477.309662 139.403642 
L 480.498917 138.448901 
L 486.877426 136.833105 
L 488.472054 136.238011 
L 490.066681 135.498149 
L 493.255936 133.670858 
L 498.039818 130.463581 
L 501.229073 128.327616 
L 504.418328 126.443917 
L 506.012955 125.663763 
L 507.607582 125.02719 
L 509.20221 124.561038 
L 510.796837 124.292143 
L 512.391465 124.247345 
L 513.986092 124.453482 
L 513.986092 124.453482 
" clip-path="url(#p69b6e8bc7b)" style="fill: none; stroke: #b3625a; stroke-width: 1.25; stroke-linecap: square"/>
   </g>
   <g id="line2d_30">
    <path d="M 37.1925 151.666875 
L 38.787127 151.681553 
L 40.381755 151.5663 
L 43.57101 151.006322 
L 46.760264 150.107588 
L 51.544147 148.388238 
L 57.922656 146.036172 
L 61.111911 145.106054 
L 64.301166 144.495885 
L 72.274303 143.556734 
L 73.86893 143.199098 
L 75.463558 142.704399 
L 77.058185 142.043427 
L 80.24744 140.308008 
L 88.220577 135.353195 
L 89.815204 134.563086 
L 91.409832 133.908126 
L 93.004459 133.394373 
L 94.599086 133.027699 
L 96.193714 132.813975 
L 97.788341 132.759073 
L 99.382969 132.868866 
L 100.977596 133.149224 
L 102.572223 133.604355 
L 105.761478 134.934037 
L 112.139988 138.108779 
L 113.734615 138.766807 
L 115.329242 139.288786 
L 116.92387 139.667816 
L 120.113125 140.09903 
L 124.897007 140.325942 
L 128.086262 140.505731 
L 131.275516 140.869888 
L 137.654026 141.908366 
L 144.032536 142.869499 
L 167.951947 145.797529 
L 171.141201 145.989409 
L 174.330456 145.998115 
L 177.519711 145.762268 
L 180.708966 145.232362 
L 185.492848 144.305085 
L 187.087475 144.137002 
L 188.682103 144.113925 
L 190.27673 144.280552 
L 191.871358 144.681583 
L 195.060612 146.084583 
L 196.65524 146.802062 
L 198.249867 147.319809 
L 199.844495 147.480036 
L 201.439122 147.124957 
L 203.033749 146.096784 
L 204.628377 144.237728 
L 206.223004 141.445271 
L 207.817632 137.87696 
L 209.412259 133.76677 
L 214.196141 120.524748 
L 215.790769 116.586869 
L 217.385396 113.277026 
L 218.980023 110.785964 
L 220.574651 109.043914 
L 222.169278 107.884003 
L 223.763906 107.139197 
L 228.547788 105.725056 
L 230.142415 104.970317 
L 231.737043 103.820527 
L 233.33167 102.328542 
L 238.115552 97.243947 
L 239.71018 95.828762 
L 241.304807 94.794699 
L 242.899434 94.286525 
L 244.494062 94.432616 
L 246.088689 95.193696 
L 247.683316 96.432309 
L 249.277944 98.009753 
L 254.061826 103.388073 
L 255.656453 104.933842 
L 257.251081 106.133857 
L 258.845708 106.98096 
L 260.440336 107.557155 
L 263.62959 108.23289 
L 266.818845 108.833195 
L 268.413473 109.315103 
L 270.0081 110.027962 
L 271.602727 111.010632 
L 273.197355 112.263365 
L 274.791982 113.785038 
L 276.38661 115.574526 
L 277.981237 117.630707 
L 279.575864 119.952456 
L 281.170492 122.53865 
L 284.359747 128.447075 
L 289.143629 137.890644 
L 290.738256 140.782349 
L 292.332884 143.374255 
L 293.927511 145.563327 
L 295.522138 147.248248 
L 297.116766 148.403881 
L 298.711393 149.109855 
L 300.306021 149.453417 
L 301.900648 149.521813 
L 305.089903 149.182092 
L 308.279158 148.788123 
L 311.468412 148.791076 
L 317.846922 149.149069 
L 319.441549 149.10372 
L 321.036177 148.933129 
L 322.630804 148.615161 
L 324.225432 148.156426 
L 325.820059 147.567225 
L 329.009314 146.038627 
L 332.198569 144.111772 
L 335.387823 141.854684 
L 336.982451 140.559314 
L 338.577078 139.089922 
L 340.171706 137.397813 
L 341.766333 135.434294 
L 343.36096 133.15067 
L 344.955588 130.498248 
L 346.550215 127.428339 
L 348.144843 123.933948 
L 354.523352 108.710685 
L 356.11798 105.418604 
L 357.712607 102.662081 
L 359.307234 100.606148 
L 360.901862 99.359111 
L 362.496489 98.783202 
L 364.091117 98.673943 
L 368.874999 99.101275 
L 370.469626 98.813825 
L 372.064254 97.970629 
L 373.658881 96.407073 
L 375.253508 94.179577 
L 376.848136 91.420732 
L 378.442763 88.263197 
L 381.632018 81.282708 
L 384.821273 74.2994 
L 386.4159 71.131203 
L 388.010527 68.295038 
L 389.605155 65.843298 
L 391.199782 63.828283 
L 392.79441 62.302296 
L 394.389037 61.317637 
L 395.983664 60.92661 
L 397.578292 61.181514 
L 399.172919 62.123882 
L 400.767547 63.694904 
L 402.362174 65.781152 
L 403.956801 68.268654 
L 407.146056 73.991526 
L 410.335311 79.951737 
L 413.524566 85.370935 
L 419.903075 95.505316 
L 423.09233 101.254211 
L 424.686958 104.520617 
L 427.876212 111.73392 
L 432.660095 122.836893 
L 434.254722 126.232295 
L 435.849349 129.316127 
L 437.443977 131.995786 
L 439.038604 134.243977 
L 440.633232 136.101057 
L 442.227859 137.610513 
L 443.822486 138.815834 
L 445.417114 139.760508 
L 447.011741 140.488022 
L 448.606369 141.041865 
L 451.795623 141.786651 
L 454.984878 142.164995 
L 458.174133 142.252186 
L 461.363388 142.122311 
L 466.14727 141.675866 
L 485.282799 139.332395 
L 488.472054 138.545814 
L 491.661308 137.43145 
L 496.445191 135.367667 
L 502.8237 132.556369 
L 506.012955 131.413435 
L 509.20221 130.61646 
L 510.796837 130.387743 
L 512.391465 130.293557 
L 513.986092 130.349917 
L 513.986092 130.349917 
" clip-path="url(#p69b6e8bc7b)" style="fill: none; stroke: #6893b8; stroke-width: 1.25; stroke-linecap: square"/>
   </g>
   <g id="line2d_31">
    <path d="M 37.1925 151.666875 
L 38.787127 151.742979 
L 40.381755 151.622206 
L 41.976382 151.322358 
L 43.57101 150.861236 
L 45.165637 150.256643 
L 48.354892 148.688247 
L 51.544147 146.759582 
L 56.328029 143.50261 
L 61.111911 140.236107 
L 64.301166 138.287652 
L 67.490421 136.586097 
L 72.274303 134.314391 
L 77.058185 132.104575 
L 78.652812 131.271227 
L 80.24744 130.271463 
L 81.842067 129.020648 
L 83.436695 127.434145 
L 85.031322 125.427317 
L 86.625949 122.915527 
L 88.220577 119.81414 
L 89.815204 116.05322 
L 91.409832 111.728274 
L 97.788341 92.798483 
L 99.382969 88.665165 
L 100.977596 85.174151 
L 102.572223 82.51912 
L 104.166851 80.776829 
L 105.761478 79.932742 
L 107.356105 79.969898 
L 108.950733 80.871338 
L 110.54536 82.620099 
L 112.139988 85.199222 
L 113.734615 88.591746 
L 115.329242 92.776173 
L 116.92387 97.632973 
L 120.113125 108.503174 
L 123.302379 119.462018 
L 124.897007 124.429622 
L 126.491634 128.765317 
L 128.086262 132.255806 
L 129.680889 134.840719 
L 131.275516 136.642131 
L 132.870144 137.792805 
L 134.464771 138.425503 
L 136.059399 138.67299 
L 137.654026 138.668029 
L 140.843281 138.430754 
L 144.032536 138.461128 
L 147.22179 138.757277 
L 161.573437 140.587891 
L 164.762692 140.673678 
L 167.951947 140.537885 
L 171.141201 140.173599 
L 174.330456 139.603235 
L 177.519711 138.849985 
L 182.303593 137.451685 
L 187.087475 136.062736 
L 190.27673 135.382422 
L 193.465985 135.049743 
L 196.65524 134.804751 
L 198.249867 134.518136 
L 199.844495 134.013994 
L 201.439122 133.211241 
L 203.033749 132.02879 
L 204.628377 130.385557 
L 206.223004 128.229288 
L 207.817632 125.643398 
L 211.006886 119.675889 
L 214.196141 113.469325 
L 215.790769 110.584618 
L 217.385396 108.01001 
L 218.980023 105.850191 
L 220.574651 104.097778 
L 222.169278 102.703621 
L 223.763906 101.618498 
L 225.358533 100.793187 
L 226.95316 100.178466 
L 230.142415 99.383904 
L 233.33167 98.9126 
L 234.926297 98.81293 
L 236.520925 98.839109 
L 238.115552 99.017563 
L 239.71018 99.37472 
L 241.304807 99.937008 
L 242.899434 100.730852 
L 244.494062 101.778354 
L 246.088689 103.05738 
L 249.277944 106.117501 
L 257.251081 114.442997 
L 266.818845 123.307958 
L 268.413473 125.133716 
L 270.0081 127.177157 
L 273.197355 131.837103 
L 281.170492 144.229082 
L 282.765119 146.386576 
L 284.359747 148.335929 
L 285.954374 150.081446 
L 287.549001 151.629066 
L 289.143629 152.984727 
L 290.738256 154.154367 
L 292.332884 155.143924 
L 293.927511 155.959337 
L 295.522138 156.60669 
L 297.116766 157.098527 
L 300.306021 157.702008 
L 303.495275 157.945722 
L 311.468412 158.065103 
L 314.657667 158.025573 
L 317.846922 157.784789 
L 321.036177 157.223312 
L 324.225432 156.258094 
L 327.414686 154.911689 
L 330.603941 153.225699 
L 333.793196 151.241733 
L 338.577078 147.881891 
L 343.36096 144.5462 
L 346.550215 142.622814 
L 349.73947 141.099068 
L 352.928725 139.952196 
L 356.11798 139.124077 
L 359.307234 138.556588 
L 362.496489 138.195838 
L 365.685744 138.005552 
L 370.469626 137.970434 
L 376.848136 138.100532 
L 378.442763 138.013171 
L 380.037391 137.809119 
L 381.632018 137.453659 
L 383.226645 136.912074 
L 384.821273 136.149647 
L 386.4159 135.135809 
L 388.010527 133.869595 
L 389.605155 132.362913 
L 391.199782 130.627726 
L 392.79441 128.675994 
L 394.389037 126.519679 
L 397.578292 121.641145 
L 400.767547 116.152364 
L 403.956801 110.602509 
L 405.551429 108.021579 
L 407.146056 105.685712 
L 408.740684 103.681705 
L 410.335311 102.096355 
L 411.929938 101.01091 
L 413.524566 100.437706 
L 415.119193 100.342427 
L 416.713821 100.689879 
L 418.308448 101.444866 
L 419.903075 102.572192 
L 421.497703 104.036663 
L 423.09233 105.803081 
L 424.686958 107.83575 
L 427.876212 112.51554 
L 437.443977 127.753422 
L 440.633232 131.9859 
L 443.822486 135.558742 
L 445.417114 137.099073 
L 447.011741 138.476024 
L 448.606369 139.690104 
L 450.200996 140.741993 
L 451.795623 141.638782 
L 453.390251 142.395768 
L 456.579506 143.553672 
L 459.76876 144.34239 
L 462.958015 144.888521 
L 467.741897 145.439976 
L 472.52578 145.716784 
L 477.309662 145.744812 
L 480.498917 145.590461 
L 483.688171 145.220237 
L 486.877426 144.563674 
L 490.066681 143.556858 
L 493.255936 142.241644 
L 499.634445 139.19817 
L 502.8237 137.729667 
L 506.012955 136.469825 
L 509.20221 135.548522 
L 510.796837 135.25541 
L 512.391465 135.095637 
L 513.986092 135.085437 
L 513.986092 135.085437 
" clip-path="url(#p69b6e8bc7b)" style="fill: none; stroke: #d8805d; stroke-width: 1.25; stroke-linecap: square"/>
   </g>
   <g id="patch_4">
    <path d="M 27.1925 207.106875 
L 27.1925 40.786875 
" style="fill: none; stroke: #aaaaaa; stroke-width: 0.75; stroke-linejoin: miter; stroke-linecap: square"/>
   </g>
   <g id="patch_5">
    <path d="M 37.1925 217.106875 
L 539.3925 217.106875 
" style="fill: none; stroke: #aaaaaa; stroke-width: 0.75; stroke-linejoin: miter; stroke-linecap: square"/>
   </g>
   <g id="legend_1">
    <g id="line2d_32">
     <path d="M 45.2925 14.696719 
L 54.2925 14.696719 
L 63.2925 14.696719 
" style="fill: none; stroke-dasharray: 5.55,2.4; stroke-dashoffset: 0; stroke: #5d5d5d; stroke-width: 1.5"/>
    </g>
    <g id="text_26">
     <!-- Овощи (средняя цена у производителей) -->
     <g style="fill: #4b4b4b" transform="translate(70.4925 17.846719) scale(0.09 -0.09)">
      <defs>
       <path id="Ubuntu-43e" d="M 3450 1664 
Q 3450 1267 3334 947 
Q 3219 627 3011 396 
Q 2803 166 2515 41 
Q 2227 -83 1888 -83 
Q 1549 -83 1261 41 
Q 973 166 765 396 
Q 557 627 441 947 
Q 326 1267 326 1664 
Q 326 2054 441 2377 
Q 557 2701 765 2931 
Q 973 3162 1261 3286 
Q 1549 3411 1888 3411 
Q 2227 3411 2515 3286 
Q 2803 3162 3011 2931 
Q 3219 2701 3334 2377 
Q 3450 2054 3450 1664 
z
M 2829 1664 
Q 2829 2227 2576 2556 
Q 2323 2886 1888 2886 
Q 1453 2886 1200 2556 
Q 947 2227 947 1664 
Q 947 1101 1200 771 
Q 1453 442 1888 442 
Q 2323 442 2576 771 
Q 2829 1101 2829 1664 
z
" transform="scale(0.015625)"/>
       <path id="Ubuntu-449" d="M 512 0 
L 512 3328 
L 1107 3328 
L 1107 493 
L 2336 493 
L 2336 3328 
L 2931 3328 
L 2931 493 
L 4160 493 
L 4160 3328 
L 4755 3328 
L 4755 493 
L 5203 493 
L 5203 -928 
L 4640 -928 
L 4640 0 
L 512 0 
z
" transform="scale(0.015625)"/>
       <path id="Ubuntu-438" d="M 3309 3328 
L 3309 0 
L 2733 0 
L 2733 2534 
Q 2541 2291 2310 1964 
Q 2080 1638 1849 1289 
Q 1619 941 1408 601 
Q 1197 262 1043 0 
L 512 0 
L 512 3328 
L 1088 3328 
L 1088 934 
Q 1254 1210 1465 1539 
Q 1677 1869 1904 2192 
Q 2131 2515 2358 2812 
Q 2586 3110 2784 3328 
L 3309 3328 
z
" transform="scale(0.015625)"/>
       <path id="Ubuntu-20" transform="scale(0.015625)"/>
       <path id="Ubuntu-28" d="M 1094 1914 
Q 1094 1094 1331 396 
Q 1568 -301 2029 -896 
L 1606 -1184 
Q 1107 -576 803 214 
Q 499 1005 499 1914 
Q 499 2822 803 3612 
Q 1107 4403 1606 5011 
L 2029 4723 
Q 1568 4128 1331 3430 
Q 1094 2733 1094 1914 
z
" transform="scale(0.015625)"/>
       <path id="Ubuntu-441" d="M 1958 -77 
Q 1555 -77 1251 51 
Q 947 179 739 409 
Q 531 640 428 957 
Q 326 1274 326 1658 
Q 326 2042 438 2362 
Q 550 2682 755 2915 
Q 960 3149 1257 3280 
Q 1555 3411 1920 3411 
Q 2144 3411 2368 3372 
Q 2592 3334 2797 3251 
L 2662 2746 
Q 2528 2810 2352 2848 
Q 2176 2886 1978 2886 
Q 1478 2886 1212 2572 
Q 947 2259 947 1658 
Q 947 1389 1008 1165 
Q 1069 941 1200 781 
Q 1331 621 1536 534 
Q 1741 448 2035 448 
Q 2272 448 2464 493 
Q 2656 538 2765 589 
L 2848 90 
Q 2797 58 2701 29 
Q 2605 0 2483 -22 
Q 2362 -45 2224 -61 
Q 2086 -77 1958 -77 
z
" transform="scale(0.015625)"/>
       <path id="Ubuntu-435" d="M 326 1658 
Q 326 2099 454 2428 
Q 582 2758 793 2976 
Q 1005 3194 1280 3302 
Q 1555 3411 1843 3411 
Q 2515 3411 2873 2992 
Q 3232 2573 3232 1715 
Q 3232 1677 3232 1616 
Q 3232 1555 3226 1504 
L 947 1504 
Q 986 986 1248 717 
Q 1510 448 2067 448 
Q 2381 448 2595 502 
Q 2810 557 2918 608 
L 3002 109 
Q 2893 51 2621 -13 
Q 2349 -77 2003 -77 
Q 1568 -77 1251 54 
Q 934 186 729 416 
Q 525 646 425 963 
Q 326 1280 326 1658 
z
M 2611 1984 
Q 2618 2387 2410 2646 
Q 2202 2906 1837 2906 
Q 1632 2906 1475 2826 
Q 1318 2746 1209 2618 
Q 1101 2490 1040 2323 
Q 979 2157 960 1984 
L 2611 1984 
z
" transform="scale(0.015625)"/>
       <path id="Ubuntu-434" d="M 102 486 
L 461 486 
Q 672 794 797 1120 
Q 922 1446 986 1795 
Q 1050 2144 1069 2525 
Q 1088 2906 1094 3328 
L 3277 3328 
L 3277 486 
L 3725 486 
L 3725 -928 
L 3162 -928 
L 3162 0 
L 666 0 
L 666 -928 
L 102 -928 
L 102 486 
z
M 2682 486 
L 2682 2829 
L 1638 2829 
Q 1632 2528 1606 2224 
Q 1581 1920 1523 1622 
Q 1466 1325 1360 1040 
Q 1254 755 1094 486 
L 2682 486 
z
" transform="scale(0.015625)"/>
       <path id="Ubuntu-44f" d="M 1888 1293 
Q 1792 1293 1702 1296 
Q 1613 1299 1530 1306 
Q 1325 998 1136 649 
Q 947 301 800 0 
L 198 0 
Q 275 186 377 381 
Q 480 576 585 761 
Q 691 947 800 1113 
Q 909 1280 1005 1414 
Q 826 1478 710 1571 
Q 595 1664 524 1779 
Q 454 1894 425 2025 
Q 397 2157 397 2291 
Q 397 2573 502 2784 
Q 608 2995 793 3132 
Q 979 3270 1232 3340 
Q 1485 3411 1786 3411 
Q 2208 3411 2502 3372 
Q 2797 3334 2995 3283 
L 2995 0 
L 2406 0 
L 2406 1293 
L 1888 1293 
z
M 2406 2886 
Q 2336 2899 2173 2912 
Q 2010 2925 1798 2925 
Q 1434 2925 1210 2774 
Q 986 2624 986 2298 
Q 986 1978 1216 1856 
Q 1446 1734 1811 1734 
L 2406 1734 
L 2406 2886 
z
" transform="scale(0.015625)"/>
       <path id="Ubuntu-446" d="M 3168 493 
L 3616 493 
L 3616 -928 
L 3053 -928 
L 3053 0 
L 512 0 
L 512 3328 
L 1107 3328 
L 1107 493 
L 2573 493 
L 2573 3328 
L 3168 3328 
L 3168 493 
z
" transform="scale(0.015625)"/>
       <path id="Ubuntu-430" d="M 1638 429 
Q 1850 429 2013 438 
Q 2176 448 2285 474 
L 2285 1466 
Q 2221 1498 2077 1520 
Q 1933 1542 1728 1542 
Q 1594 1542 1443 1523 
Q 1293 1504 1168 1443 
Q 1043 1382 960 1276 
Q 877 1171 877 998 
Q 877 678 1081 553 
Q 1286 429 1638 429 
z
M 1587 3411 
Q 1946 3411 2192 3318 
Q 2438 3226 2588 3056 
Q 2739 2886 2803 2652 
Q 2867 2419 2867 2138 
L 2867 58 
Q 2790 45 2652 22 
Q 2515 0 2342 -19 
Q 2170 -38 1968 -54 
Q 1766 -70 1568 -70 
Q 1286 -70 1049 -12 
Q 813 45 640 169 
Q 467 294 371 499 
Q 275 704 275 992 
Q 275 1267 387 1465 
Q 499 1664 691 1785 
Q 883 1907 1139 1964 
Q 1395 2022 1677 2022 
Q 1766 2022 1862 2012 
Q 1958 2003 2044 1987 
Q 2131 1971 2195 1958 
Q 2259 1946 2285 1939 
L 2285 2106 
Q 2285 2253 2253 2397 
Q 2221 2541 2137 2653 
Q 2054 2765 1910 2832 
Q 1766 2899 1536 2899 
Q 1242 2899 1021 2857 
Q 800 2816 691 2771 
L 621 3264 
Q 736 3315 1005 3363 
Q 1274 3411 1587 3411 
z
" transform="scale(0.015625)"/>
       <path id="Ubuntu-443" d="M 122 -621 
Q 192 -653 304 -681 
Q 416 -710 525 -710 
Q 877 -710 1075 -553 
Q 1274 -397 1434 -45 
Q 1030 723 681 1584 
Q 333 2445 102 3328 
L 742 3328 
Q 813 3040 912 2707 
Q 1011 2374 1132 2022 
Q 1254 1670 1395 1318 
Q 1536 966 1690 640 
Q 1933 1312 2112 1971 
Q 2291 2630 2451 3328 
L 3066 3328 
Q 2835 2387 2553 1520 
Q 2272 653 1946 -102 
Q 1818 -390 1680 -598 
Q 1542 -806 1376 -940 
Q 1210 -1075 1002 -1139 
Q 794 -1203 531 -1203 
Q 461 -1203 384 -1193 
Q 307 -1184 233 -1168 
Q 160 -1152 99 -1133 
Q 38 -1114 13 -1101 
L 122 -621 
z
" transform="scale(0.015625)"/>
       <path id="Ubuntu-437" d="M 1357 3411 
Q 1645 3411 1894 3353 
Q 2144 3296 2323 3181 
Q 2502 3066 2604 2893 
Q 2707 2720 2707 2490 
Q 2707 2342 2656 2220 
Q 2605 2099 2528 2003 
Q 2451 1907 2358 1840 
Q 2266 1773 2182 1747 
Q 2477 1658 2646 1430 
Q 2816 1203 2816 858 
Q 2816 384 2432 153 
Q 2048 -77 1389 -77 
Q 986 -77 694 -13 
Q 403 51 282 109 
L 384 614 
Q 486 576 752 509 
Q 1018 442 1389 442 
Q 1792 442 2003 566 
Q 2214 691 2214 941 
Q 2214 1120 2134 1232 
Q 2054 1344 1932 1401 
Q 1811 1459 1670 1478 
Q 1530 1498 1408 1498 
L 851 1498 
L 851 1971 
L 1389 1971 
Q 1504 1971 1629 1987 
Q 1754 2003 1859 2054 
Q 1965 2106 2035 2198 
Q 2106 2291 2106 2445 
Q 2106 2566 2045 2652 
Q 1984 2739 1881 2796 
Q 1779 2854 1641 2883 
Q 1504 2912 1357 2912 
Q 1242 2912 1107 2893 
Q 973 2874 845 2845 
Q 717 2816 614 2784 
Q 512 2752 467 2726 
L 358 3238 
Q 410 3258 518 3290 
Q 627 3322 764 3347 
Q 902 3373 1056 3392 
Q 1210 3411 1357 3411 
z
" transform="scale(0.015625)"/>
       <path id="Ubuntu-439" d="M 3309 3328 
L 3309 0 
L 2733 0 
L 2733 2534 
Q 2541 2291 2310 1964 
Q 2080 1638 1849 1289 
Q 1619 941 1408 601 
Q 1197 262 1043 0 
L 512 0 
L 512 3328 
L 1088 3328 
L 1088 934 
Q 1254 1210 1465 1539 
Q 1677 1869 1904 2192 
Q 2131 2515 2358 2812 
Q 2586 3110 2784 3328 
L 3309 3328 
z
M 1917 3866 
Q 1514 3866 1261 4070 
Q 1008 4275 957 4640 
L 1411 4762 
Q 1462 4557 1584 4429 
Q 1706 4301 1917 4301 
Q 2128 4301 2249 4429 
Q 2371 4557 2422 4762 
L 2870 4640 
Q 2819 4275 2569 4070 
Q 2320 3866 1917 3866 
z
" transform="scale(0.015625)"/>
       <path id="Ubuntu-29" d="M 979 1914 
Q 979 2733 742 3430 
Q 506 4128 45 4723 
L 467 5011 
Q 966 4403 1270 3612 
Q 1574 2822 1574 1914 
Q 1574 1005 1270 214 
Q 966 -576 467 -1184 
L 45 -896 
Q 506 -301 742 396 
Q 979 1094 979 1914 
z
" transform="scale(0.015625)"/>
      </defs>
      <use xlink:href="#Ubuntu-41e"/>
      <use xlink:href="#Ubuntu-432" x="77.799988"/>
      <use xlink:href="#Ubuntu-43e" x="132.599976"/>
      <use xlink:href="#Ubuntu-449" x="191.59996"/>
      <use xlink:href="#Ubuntu-438" x="274.999954"/>
      <use xlink:href="#Ubuntu-20" x="334.699951"/>
      <use xlink:href="#Ubuntu-28" x="357.799942"/>
      <use xlink:href="#Ubuntu-441" x="390.199936"/>
      <use xlink:href="#Ubuntu-440" x="436.699921"/>
      <use xlink:href="#Ubuntu-435" x="495.599915"/>
      <use xlink:href="#Ubuntu-434" x="551.499908"/>
      <use xlink:href="#Ubuntu-43d" x="611.799896"/>
      <use xlink:href="#Ubuntu-44f" x="670.399887"/>
      <use xlink:href="#Ubuntu-44f" x="725.199875"/>
      <use xlink:href="#Ubuntu-20" x="779.999863"/>
      <use xlink:href="#Ubuntu-446" x="803.099854"/>
      <use xlink:href="#Ubuntu-435" x="861.699844"/>
      <use xlink:href="#Ubuntu-43d" x="917.599838"/>
      <use xlink:href="#Ubuntu-430" x="976.199829"/>
      <use xlink:href="#Ubuntu-20" x="1028.399826"/>
      <use xlink:href="#Ubuntu-443" x="1051.499817"/>
      <use xlink:href="#Ubuntu-20" x="1101.199814"/>
      <use xlink:href="#Ubuntu-43f" x="1124.299805"/>
      <use xlink:href="#Ubuntu-440" x="1182.099792"/>
      <use xlink:href="#Ubuntu-43e" x="1240.999786"/>
      <use xlink:href="#Ubuntu-438" x="1299.999771"/>
      <use xlink:href="#Ubuntu-437" x="1359.699768"/>
      <use xlink:href="#Ubuntu-432" x="1408.599762"/>
      <use xlink:href="#Ubuntu-43e" x="1463.39975"/>
      <use xlink:href="#Ubuntu-434" x="1522.399734"/>
      <use xlink:href="#Ubuntu-438" x="1582.699722"/>
      <use xlink:href="#Ubuntu-442" x="1642.399719"/>
      <use xlink:href="#Ubuntu-435" x="1688.699707"/>
      <use xlink:href="#Ubuntu-43b" x="1744.599701"/>
      <use xlink:href="#Ubuntu-435" x="1804.399689"/>
      <use xlink:href="#Ubuntu-439" x="1860.299683"/>
      <use xlink:href="#Ubuntu-29" x="1919.99968"/>
     </g>
    </g>
    <g id="line2d_33">
     <path d="M 45.2925 27.871875 
L 54.2925 27.871875 
L 63.2925 27.871875 
" style="fill: none; stroke: #7e6459; stroke-width: 1.25; stroke-linecap: square"/>
    </g>
    <g id="text_27">
     <!-- Картофель -->
     <g style="fill: #4b4b4b" transform="translate(70.4925 31.021875) scale(0.09 -0.09)">
      <defs>
       <path id="Ubuntu-41a" d="M 3834 4435 
Q 3635 4218 3385 3952 
Q 3136 3686 2864 3408 
Q 2592 3130 2323 2861 
Q 2054 2592 1818 2362 
Q 2093 2170 2400 1888 
Q 2707 1606 3001 1286 
Q 3296 966 3555 633 
Q 3814 301 3987 0 
L 3258 0 
Q 3066 301 2816 605 
Q 2566 909 2288 1187 
Q 2010 1466 1725 1702 
Q 1440 1939 1171 2106 
L 1171 0 
L 550 0 
L 550 4435 
L 1171 4435 
L 1171 2477 
Q 1395 2688 1664 2953 
Q 1933 3219 2195 3488 
Q 2458 3757 2691 4003 
Q 2925 4250 3085 4435 
L 3834 4435 
z
" transform="scale(0.015625)"/>
       <path id="Ubuntu-444" d="M 928 1664 
Q 928 1382 1021 1164 
Q 1114 947 1280 796 
Q 1446 646 1673 566 
Q 1901 486 2163 480 
L 2163 2848 
Q 1901 2842 1673 2758 
Q 1446 2675 1280 2524 
Q 1114 2374 1021 2156 
Q 928 1939 928 1664 
z
M 2739 480 
Q 3002 486 3229 566 
Q 3456 646 3622 796 
Q 3789 947 3881 1164 
Q 3974 1382 3974 1664 
Q 3974 1939 3881 2156 
Q 3789 2374 3622 2524 
Q 3456 2675 3229 2758 
Q 3002 2842 2739 2848 
L 2739 480 
z
M 2739 -1184 
L 2163 -1184 
L 2163 -19 
Q 1786 -13 1453 102 
Q 1120 218 867 432 
Q 614 646 467 956 
Q 320 1267 320 1664 
Q 320 2061 467 2371 
Q 614 2682 867 2896 
Q 1120 3110 1453 3225 
Q 1786 3341 2163 3347 
L 2163 4864 
L 2739 4966 
L 2739 3347 
Q 3110 3341 3446 3225 
Q 3782 3110 4035 2896 
Q 4288 2682 4435 2371 
Q 4582 2061 4582 1664 
Q 4582 1267 4435 956 
Q 4288 646 4035 432 
Q 3782 218 3446 102 
Q 3110 -13 2739 -19 
L 2739 -1184 
z
" transform="scale(0.015625)"/>
       <path id="Ubuntu-44c" d="M 1773 416 
Q 2150 416 2368 563 
Q 2586 710 2586 1037 
Q 2586 1197 2522 1312 
Q 2458 1427 2346 1500 
Q 2234 1574 2086 1609 
Q 1939 1645 1773 1645 
Q 1600 1645 1417 1635 
Q 1235 1626 1107 1594 
L 1107 448 
Q 1146 442 1222 435 
Q 1299 429 1392 425 
Q 1485 422 1584 419 
Q 1683 416 1773 416 
z
M 512 70 
L 512 3328 
L 1107 3328 
L 1107 2054 
Q 1158 2067 1244 2080 
Q 1331 2093 1430 2105 
Q 1530 2118 1638 2124 
Q 1747 2131 1843 2131 
Q 2118 2131 2361 2070 
Q 2605 2010 2787 1878 
Q 2970 1747 3078 1539 
Q 3187 1331 3187 1043 
Q 3187 742 3084 531 
Q 2982 320 2790 185 
Q 2598 51 2332 -9 
Q 2067 -70 1741 -70 
Q 1421 -70 1113 -35 
Q 806 0 512 70 
z
" transform="scale(0.015625)"/>
      </defs>
      <use xlink:href="#Ubuntu-41a"/>
      <use xlink:href="#Ubuntu-430" x="62.899994"/>
      <use xlink:href="#Ubuntu-440" x="115.099991"/>
      <use xlink:href="#Ubuntu-442" x="173.999985"/>
      <use xlink:href="#Ubuntu-43e" x="220.299973"/>
      <use xlink:href="#Ubuntu-444" x="279.299957"/>
      <use xlink:href="#Ubuntu-435" x="355.899948"/>
      <use xlink:href="#Ubuntu-43b" x="411.799942"/>
      <use xlink:href="#Ubuntu-44c" x="471.59993"/>
     </g>
    </g>
    <g id="line2d_34">
     <path d="M 264.209062 14.696719 
L 273.209062 14.696719 
L 282.209062 14.696719 
" style="fill: none; stroke: #489079; stroke-width: 1.25; stroke-linecap: square"/>
    </g>
    <g id="text_28">
     <!-- Огурцы -->
     <g style="fill: #4b4b4b" transform="translate(289.409062 17.846719) scale(0.09 -0.09)">
      <defs>
       <path id="Ubuntu-433" d="M 2573 2829 
L 1107 2829 
L 1107 0 
L 512 0 
L 512 3328 
L 2573 3328 
L 2573 2829 
z
" transform="scale(0.015625)"/>
       <path id="Ubuntu-44b" d="M 1734 1645 
Q 1562 1645 1398 1635 
Q 1235 1626 1107 1594 
L 1107 448 
Q 1146 442 1219 435 
Q 1293 429 1379 425 
Q 1466 422 1555 419 
Q 1645 416 1715 416 
Q 2106 416 2317 563 
Q 2528 710 2528 1037 
Q 2528 1197 2461 1312 
Q 2394 1427 2282 1500 
Q 2170 1574 2029 1609 
Q 1888 1645 1734 1645 
z
M 512 3328 
L 1107 3328 
L 1107 2054 
Q 1216 2080 1424 2105 
Q 1632 2131 1824 2131 
Q 2086 2131 2323 2070 
Q 2560 2010 2739 1878 
Q 2918 1747 3024 1539 
Q 3130 1331 3130 1043 
Q 3130 742 3027 531 
Q 2925 320 2739 185 
Q 2554 51 2291 -9 
Q 2029 -70 1715 -70 
Q 1414 -70 1107 -35 
Q 800 0 512 70 
L 512 3328 
z
M 4339 0 
L 3744 0 
L 3744 3328 
L 4339 3328 
L 4339 0 
z
" transform="scale(0.015625)"/>
      </defs>
      <use xlink:href="#Ubuntu-41e"/>
      <use xlink:href="#Ubuntu-433" x="77.799988"/>
      <use xlink:href="#Ubuntu-443" x="121.849976"/>
      <use xlink:href="#Ubuntu-440" x="171.549973"/>
      <use xlink:href="#Ubuntu-446" x="230.449966"/>
      <use xlink:href="#Ubuntu-44b" x="289.049957"/>
     </g>
    </g>
    <g id="line2d_35">
     <path d="M 264.209062 27.871875 
L 273.209062 27.871875 
L 282.209062 27.871875 
" style="fill: none; stroke: #b3625a; stroke-width: 1.25; stroke-linecap: square"/>
    </g>
    <g id="text_29">
     <!-- Помидоры -->
     <g style="fill: #4b4b4b" transform="translate(289.409062 31.021875) scale(0.09 -0.09)">
      <defs>
       <path id="Ubuntu-41f" d="M 3923 4435 
L 3923 0 
L 3302 0 
L 3302 3904 
L 1171 3904 
L 1171 0 
L 550 0 
L 550 4435 
L 3923 4435 
z
" transform="scale(0.015625)"/>
       <path id="Ubuntu-43c" d="M 1146 2451 
Q 1082 1818 1050 1187 
Q 1018 557 998 0 
L 429 0 
Q 442 390 467 816 
Q 493 1242 525 1674 
Q 557 2106 595 2525 
Q 634 2944 678 3328 
L 1222 3328 
Q 1427 2995 1702 2416 
Q 1978 1837 2336 1082 
Q 2694 1837 2969 2416 
Q 3245 2995 3450 3328 
L 4000 3328 
Q 4045 2944 4083 2525 
Q 4122 2106 4154 1674 
Q 4186 1242 4211 816 
Q 4237 390 4250 0 
L 3661 0 
Q 3642 557 3610 1187 
Q 3578 1818 3514 2451 
Q 3411 2253 3276 1974 
Q 3142 1696 3011 1408 
Q 2880 1120 2765 857 
Q 2650 595 2586 442 
L 2086 442 
Q 2016 602 1897 864 
Q 1779 1126 1648 1417 
Q 1517 1709 1382 1987 
Q 1248 2266 1146 2451 
z
" transform="scale(0.015625)"/>
      </defs>
      <use xlink:href="#Ubuntu-41f"/>
      <use xlink:href="#Ubuntu-43e" x="69.899994"/>
      <use xlink:href="#Ubuntu-43c" x="128.899979"/>
      <use xlink:href="#Ubuntu-438" x="201.999969"/>
      <use xlink:href="#Ubuntu-434" x="261.699966"/>
      <use xlink:href="#Ubuntu-43e" x="321.999954"/>
      <use xlink:href="#Ubuntu-440" x="380.999939"/>
      <use xlink:href="#Ubuntu-44b" x="439.899933"/>
     </g>
    </g>
    <g id="line2d_36">
     <path d="M 353.822344 14.696719 
L 362.822344 14.696719 
L 371.822344 14.696719 
" style="fill: none; stroke: #6893b8; stroke-width: 1.25; stroke-linecap: square"/>
    </g>
    <g id="text_30">
     <!-- Лук -->
     <g style="fill: #4b4b4b" transform="translate(379.022344 17.846719) scale(0.09 -0.09)">
      <defs>
       <path id="Ubuntu-41b" d="M 2067 3904 
Q 2054 3546 2041 3210 
Q 2029 2874 2003 2557 
Q 1978 2240 1926 1939 
Q 1875 1638 1786 1350 
Q 1696 1062 1565 809 
Q 1434 557 1238 368 
Q 1043 179 777 64 
Q 512 -51 154 -64 
L 83 474 
Q 531 525 777 755 
Q 1024 986 1184 1459 
Q 1363 1997 1411 2755 
Q 1459 3514 1459 4435 
L 3974 4435 
L 3974 0 
L 3354 0 
L 3354 3904 
L 2067 3904 
z
" transform="scale(0.015625)"/>
      </defs>
      <use xlink:href="#Ubuntu-41b"/>
      <use xlink:href="#Ubuntu-443" x="70.699982"/>
      <use xlink:href="#Ubuntu-43a" x="120.399979"/>
     </g>
    </g>
    <g id="line2d_37">
     <path d="M 412.692187 14.696719 
L 421.692187 14.696719 
L 430.692187 14.696719 
" style="fill: none; stroke: #d8805d; stroke-width: 1.25; stroke-linecap: square"/>
    </g>
    <g id="text_31">
     <!-- Морковь -->
     <g style="fill: #4b4b4b" transform="translate(437.892187 17.846719) scale(0.09 -0.09)">
      <defs>
       <path id="Ubuntu-41c" d="M 2541 614 
Q 2477 768 2371 1005 
Q 2266 1242 2144 1517 
Q 2022 1792 1884 2083 
Q 1747 2374 1625 2633 
Q 1504 2893 1398 3097 
Q 1293 3302 1229 3411 
Q 1158 2656 1113 1776 
Q 1069 896 1037 0 
L 429 0 
Q 454 576 486 1161 
Q 518 1747 560 2313 
Q 602 2880 650 3417 
Q 698 3955 755 4435 
L 1299 4435 
Q 1472 4154 1670 3770 
Q 1869 3386 2067 2966 
Q 2266 2547 2451 2128 
Q 2637 1709 2790 1363 
Q 2944 1709 3129 2128 
Q 3315 2547 3513 2966 
Q 3712 3386 3910 3770 
Q 4109 4154 4282 4435 
L 4826 4435 
Q 5043 2291 5152 0 
L 4544 0 
Q 4512 896 4467 1776 
Q 4422 2656 4352 3411 
Q 4288 3302 4182 3097 
Q 4077 2893 3955 2633 
Q 3834 2374 3696 2083 
Q 3558 1792 3436 1517 
Q 3315 1242 3209 1005 
Q 3104 768 3040 614 
L 2541 614 
z
" transform="scale(0.015625)"/>
      </defs>
      <use xlink:href="#Ubuntu-41c"/>
      <use xlink:href="#Ubuntu-43e" x="87.099991"/>
      <use xlink:href="#Ubuntu-440" x="146.099976"/>
      <use xlink:href="#Ubuntu-43a" x="204.999969"/>
      <use xlink:href="#Ubuntu-43e" x="255.824966"/>
      <use xlink:href="#Ubuntu-432" x="314.824951"/>
      <use xlink:href="#Ubuntu-44c" x="369.624939"/>
     </g>
    </g>
   </g>
   <g id="line2d_38">
    <path d="M 49.7475 151.666875 
L 526.8375 151.666875 
" clip-path="url(#p69b6e8bc7b)" style="fill: none; stroke-dasharray: 2.775,1.2; stroke-dashoffset: 0; stroke: #c5c5c5; stroke-width: 0.75"/>
   </g>
  </g>
 </g>
 <defs>
  <clipPath id="p5f8cd5460e">
   <rect x="37.1925" y="207.106875" width="502.2" height="0"/>
  </clipPath>
  <clipPath id="p69b6e8bc7b">
   <rect x="37.1925" y="40.786875" width="502.2" height="166.32"/>
  </clipPath>
 </defs>
</svg>
