<?xml version="1.0" encoding="utf-8" standalone="no"?>
<!DOCTYPE svg PUBLIC "-//W3C//DTD SVG 1.1//EN"
  "http://www.w3.org/Graphics/SVG/1.1/DTD/svg11.dtd">
<svg xmlns:xlink="http://www.w3.org/1999/xlink" width="548.9125pt" height="242.2625pt" viewBox="0 0 548.9125 242.2625" xmlns="http://www.w3.org/2000/svg" version="1.1">
 <metadata>
  <rdf:RDF xmlns:dc="http://purl.org/dc/elements/1.1/" xmlns:cc="http://creativecommons.org/ns#" xmlns:rdf="http://www.w3.org/1999/02/22-rdf-syntax-ns#">
   <cc:Work>
    <dc:type rdf:resource="http://purl.org/dc/dcmitype/StillImage"/>
    <dc:date>2024-12-20T13:26:22.472835</dc:date>
    <dc:format>image/svg+xml</dc:format>
    <dc:creator>
     <cc:Agent>
      <dc:title>Matplotlib v3.9.0, https://matplotlib.org/</dc:title>
     </cc:Agent>
    </dc:creator>
   </cc:Work>
  </rdf:RDF>
 </metadata>
 <defs>
  <style type="text/css">*{stroke-linejoin: round; stroke-linecap: butt}</style>
 </defs>
 <g id="figure_1">
  <g id="patch_1">
   <path d="M 0 242.2625 
L 548.9125 242.2625 
L 548.9125 0 
L 0 0 
L 0 242.2625 
z
" style="fill: none"/>
  </g>
  <g id="axes_1">
   <g id="patch_2">
    <path d="M 32.1925 203.375 
L 534.3925 203.375 
L 534.3925 37.055 
L 32.1925 37.055 
L 32.1925 203.375 
z
" style="fill: none"/>
   </g>
   <g id="line2d_1">
    <path d="M 70.302112 203.375 
L 70.302112 37.055 
" clip-path="url(#p6e51589333)" style="fill: none; stroke-dasharray: 0.5,0.825; stroke-dashoffset: 0; stroke: #d9d9d9; stroke-width: 0.5"/>
   </g>
   <g id="line2d_2">
    <path d="M 108.835164 203.375 
L 108.835164 37.055 
" clip-path="url(#p6e51589333)" style="fill: none; stroke-dasharray: 0.5,0.825; stroke-dashoffset: 0; stroke: #d9d9d9; stroke-width: 0.5"/>
   </g>
   <g id="line2d_3">
    <path d="M 147.791657 203.375 
L 147.791657 37.055 
" clip-path="url(#p6e51589333)" style="fill: none; stroke-dasharray: 0.5,0.825; stroke-dashoffset: 0; stroke: #d9d9d9; stroke-width: 0.5"/>
   </g>
   <g id="line2d_4">
    <path d="M 186.748149 203.375 
L 186.748149 37.055 
" clip-path="url(#p6e51589333)" style="fill: none; stroke-dasharray: 0.5,0.825; stroke-dashoffset: 0; stroke: #d9d9d9; stroke-width: 0.5"/>
   </g>
   <g id="line2d_5">
    <path d="M 224.857761 203.375 
L 224.857761 37.055 
" clip-path="url(#p6e51589333)" style="fill: none; stroke-dasharray: 0.5,0.825; stroke-dashoffset: 0; stroke: #d9d9d9; stroke-width: 0.5"/>
   </g>
   <g id="line2d_6">
    <path d="M 263.390814 203.375 
L 263.390814 37.055 
" clip-path="url(#p6e51589333)" style="fill: none; stroke-dasharray: 0.5,0.825; stroke-dashoffset: 0; stroke: #d9d9d9; stroke-width: 0.5"/>
   </g>
   <g id="line2d_7">
    <path d="M 302.347306 203.375 
L 302.347306 37.055 
" clip-path="url(#p6e51589333)" style="fill: none; stroke-dasharray: 0.5,0.825; stroke-dashoffset: 0; stroke: #d9d9d9; stroke-width: 0.5"/>
   </g>
   <g id="line2d_8">
    <path d="M 341.303798 203.375 
L 341.303798 37.055 
" clip-path="url(#p6e51589333)" style="fill: none; stroke-dasharray: 0.5,0.825; stroke-dashoffset: 0; stroke: #d9d9d9; stroke-width: 0.5"/>
   </g>
   <g id="line2d_9">
    <path d="M 379.413411 203.375 
L 379.413411 37.055 
" clip-path="url(#p6e51589333)" style="fill: none; stroke-dasharray: 0.5,0.825; stroke-dashoffset: 0; stroke: #d9d9d9; stroke-width: 0.5"/>
   </g>
   <g id="line2d_10">
    <path d="M 417.946463 203.375 
L 417.946463 37.055 
" clip-path="url(#p6e51589333)" style="fill: none; stroke-dasharray: 0.5,0.825; stroke-dashoffset: 0; stroke: #d9d9d9; stroke-width: 0.5"/>
   </g>
   <g id="line2d_11">
    <path d="M 456.902955 203.375 
L 456.902955 37.055 
" clip-path="url(#p6e51589333)" style="fill: none; stroke-dasharray: 0.5,0.825; stroke-dashoffset: 0; stroke: #d9d9d9; stroke-width: 0.5"/>
   </g>
   <g id="line2d_12">
    <path d="M 495.859448 203.375 
L 495.859448 37.055 
" clip-path="url(#p6e51589333)" style="fill: none; stroke-dasharray: 0.5,0.825; stroke-dashoffset: 0; stroke: #d9d9d9; stroke-width: 0.5"/>
   </g>
   <g id="line2d_13">
    <path d="M 32.1925 175.655 
L 534.3925 175.655 
" clip-path="url(#p6e51589333)" style="fill: none; stroke-dasharray: 0.5,0.825; stroke-dashoffset: 0; stroke: #d9d9d9; stroke-width: 0.5"/>
   </g>
   <g id="line2d_14">
    <path d="M 32.1925 147.935 
L 534.3925 147.935 
" clip-path="url(#p6e51589333)" style="fill: none; stroke-dasharray: 0.5,0.825; stroke-dashoffset: 0; stroke: #d9d9d9; stroke-width: 0.5"/>
   </g>
   <g id="line2d_15">
    <path d="M 32.1925 120.215 
L 534.3925 120.215 
" clip-path="url(#p6e51589333)" style="fill: none; stroke-dasharray: 0.5,0.825; stroke-dashoffset: 0; stroke: #d9d9d9; stroke-width: 0.5"/>
   </g>
   <g id="line2d_16">
    <path d="M 32.1925 92.495 
L 534.3925 92.495 
" clip-path="url(#p6e51589333)" style="fill: none; stroke-dasharray: 0.5,0.825; stroke-dashoffset: 0; stroke: #d9d9d9; stroke-width: 0.5"/>
   </g>
   <g id="line2d_17">
    <path d="M 32.1925 64.775 
L 534.3925 64.775 
" clip-path="url(#p6e51589333)" style="fill: none; stroke-dasharray: 0.5,0.825; stroke-dashoffset: 0; stroke: #d9d9d9; stroke-width: 0.5"/>
   </g>
   <g id="line2d_18">
    <path d="M 37.2145 147.935 
L 529.3705 147.935 
" clip-path="url(#p6e51589333)" style="fill: none; stroke-dasharray: 2.775,1.2; stroke-dashoffset: 0; stroke: #cccccc; stroke-width: 0.75"/>
   </g>
   <g id="axes_2">
    <g id="patch_3">
     <path d="M 32.1925 203.375 
L 534.3925 203.375 
L 534.3925 203.375 
L 32.1925 203.375 
L 32.1925 203.375 
z
" style="fill: none"/>
    </g>
    <g id="matplotlib.axis_1">
     <g id="xtick_1">
      <g id="line2d_19">
       <path d="M 32.1925 203.375 
L 32.1925 203.375 
" clip-path="url(#pb30c128efa)" style="fill: none; stroke-dasharray: 0.5,0.825; stroke-dashoffset: 0; stroke: #d9d9d9; stroke-width: 0.5"/>
      </g>
      <g id="text_1">
       <!-- 2021 -->
       <g style="fill: #808080" transform="translate(23.1675 233.5825) scale(0.08 -0.08)">
        <defs>
         <path id="Ubuntu-32" d="M 2989 3302 
Q 2989 3072 2896 2857 
Q 2803 2643 2649 2435 
Q 2496 2227 2304 2025 
Q 2112 1824 1920 1632 
Q 1811 1523 1667 1376 
Q 1523 1229 1395 1069 
Q 1267 909 1180 761 
Q 1094 614 1094 506 
L 3136 506 
L 3136 0 
L 448 0 
Q 442 38 442 76 
Q 442 115 442 147 
Q 442 448 541 707 
Q 640 966 800 1196 
Q 960 1427 1158 1632 
Q 1357 1837 1549 2029 
Q 1709 2182 1853 2332 
Q 1997 2483 2109 2633 
Q 2221 2784 2288 2944 
Q 2355 3104 2355 3283 
Q 2355 3475 2294 3609 
Q 2234 3744 2131 3833 
Q 2029 3923 1891 3964 
Q 1754 4006 1600 4006 
Q 1414 4006 1260 3955 
Q 1107 3904 985 3837 
Q 864 3770 781 3696 
Q 698 3622 653 3584 
L 358 4006 
Q 416 4070 531 4163 
Q 646 4256 806 4339 
Q 966 4422 1164 4480 
Q 1363 4538 1594 4538 
Q 2291 4538 2640 4214 
Q 2989 3891 2989 3302 
z
" transform="scale(0.015625)"/>
         <path id="Ubuntu-30" d="M 320 2221 
Q 320 3334 713 3936 
Q 1107 4538 1805 4538 
Q 2502 4538 2896 3936 
Q 3290 3334 3290 2221 
Q 3290 1107 2896 505 
Q 2502 -96 1805 -96 
Q 1107 -96 713 505 
Q 320 1107 320 2221 
z
M 2662 2221 
Q 2662 2586 2620 2912 
Q 2579 3238 2480 3481 
Q 2381 3725 2214 3869 
Q 2048 4013 1805 4013 
Q 1562 4013 1395 3869 
Q 1229 3725 1129 3481 
Q 1030 3238 988 2912 
Q 947 2586 947 2221 
Q 947 1856 988 1529 
Q 1030 1203 1129 960 
Q 1229 717 1395 573 
Q 1562 429 1805 429 
Q 2048 429 2214 573 
Q 2381 717 2480 960 
Q 2579 1203 2620 1529 
Q 2662 1856 2662 2221 
z
" transform="scale(0.015625)"/>
         <path id="Ubuntu-31" d="M 595 3520 
Q 960 3661 1305 3881 
Q 1651 4102 1939 4435 
L 2362 4435 
L 2362 0 
L 1766 0 
L 1766 3610 
Q 1690 3539 1578 3462 
Q 1466 3386 1334 3315 
Q 1203 3245 1059 3181 
Q 915 3117 781 3072 
L 595 3520 
z
" transform="scale(0.015625)"/>
        </defs>
        <use xlink:href="#Ubuntu-32"/>
        <use xlink:href="#Ubuntu-30" x="56.399994"/>
        <use xlink:href="#Ubuntu-32" x="112.799988"/>
        <use xlink:href="#Ubuntu-31" x="169.199982"/>
       </g>
      </g>
     </g>
     <g id="xtick_2">
      <g id="line2d_20">
       <path d="M 186.748149 203.375 
L 186.748149 203.375 
" clip-path="url(#pb30c128efa)" style="fill: none; stroke-dasharray: 0.5,0.825; stroke-dashoffset: 0; stroke: #d9d9d9; stroke-width: 0.5"/>
      </g>
      <g id="text_2">
       <!-- 2022 -->
       <g style="fill: #808080" transform="translate(177.723149 233.5825) scale(0.08 -0.08)">
        <use xlink:href="#Ubuntu-32"/>
        <use xlink:href="#Ubuntu-30" x="56.399994"/>
        <use xlink:href="#Ubuntu-32" x="112.799988"/>
        <use xlink:href="#Ubuntu-32" x="169.199982"/>
       </g>
      </g>
     </g>
     <g id="xtick_3">
      <g id="line2d_21">
       <path d="M 341.303798 203.375 
L 341.303798 203.375 
" clip-path="url(#pb30c128efa)" style="fill: none; stroke-dasharray: 0.5,0.825; stroke-dashoffset: 0; stroke: #d9d9d9; stroke-width: 0.5"/>
      </g>
      <g id="text_3">
       <!-- 2023 -->
       <g style="fill: #808080" transform="translate(332.278798 233.5825) scale(0.08 -0.08)">
        <defs>
         <path id="Ubuntu-33" d="M 1446 435 
Q 2016 435 2262 659 
Q 2509 883 2509 1261 
Q 2509 1504 2406 1670 
Q 2304 1837 2137 1936 
Q 1971 2035 1750 2076 
Q 1530 2118 1299 2118 
L 1146 2118 
L 1146 2605 
L 1357 2605 
Q 1517 2605 1686 2637 
Q 1856 2669 1997 2752 
Q 2138 2835 2227 2979 
Q 2317 3123 2317 3341 
Q 2317 3520 2253 3648 
Q 2189 3776 2083 3859 
Q 1978 3942 1840 3977 
Q 1702 4013 1549 4013 
Q 1242 4013 1027 3923 
Q 813 3834 666 3738 
L 435 4192 
Q 512 4243 630 4304 
Q 749 4365 896 4416 
Q 1043 4467 1212 4502 
Q 1382 4538 1568 4538 
Q 1920 4538 2176 4451 
Q 2432 4365 2598 4208 
Q 2765 4051 2848 3836 
Q 2931 3622 2931 3373 
Q 2931 3027 2732 2780 
Q 2534 2534 2253 2406 
Q 2426 2355 2586 2259 
Q 2746 2163 2864 2016 
Q 2982 1869 3056 1677 
Q 3130 1485 3130 1248 
Q 3130 960 3030 713 
Q 2931 467 2723 288 
Q 2515 109 2201 6 
Q 1888 -96 1459 -96 
Q 1293 -96 1117 -70 
Q 941 -45 787 -6 
Q 634 32 518 70 
Q 403 109 352 134 
L 467 653 
Q 576 602 829 518 
Q 1082 435 1446 435 
z
" transform="scale(0.015625)"/>
        </defs>
        <use xlink:href="#Ubuntu-32"/>
        <use xlink:href="#Ubuntu-30" x="56.399994"/>
        <use xlink:href="#Ubuntu-32" x="112.799988"/>
        <use xlink:href="#Ubuntu-33" x="169.199982"/>
       </g>
      </g>
     </g>
     <g id="xtick_4">
      <g id="line2d_22">
       <path d="M 495.859448 203.375 
L 495.859448 203.375 
" clip-path="url(#pb30c128efa)" style="fill: none; stroke-dasharray: 0.5,0.825; stroke-dashoffset: 0; stroke: #d9d9d9; stroke-width: 0.5"/>
      </g>
      <g id="text_4">
       <!-- 2024 -->
       <g style="fill: #808080" transform="translate(486.834448 233.5825) scale(0.08 -0.08)">
        <defs>
         <path id="Ubuntu-34" d="M 256 1536 
Q 378 1818 589 2192 
Q 800 2566 1065 2963 
Q 1331 3360 1635 3744 
Q 1939 4128 2246 4435 
L 2816 4435 
L 2816 1619 
L 3341 1619 
L 3341 1133 
L 2816 1133 
L 2816 0 
L 2240 0 
L 2240 1133 
L 256 1133 
L 256 1536 
z
M 2240 3731 
Q 2048 3526 1853 3273 
Q 1658 3021 1472 2745 
Q 1286 2470 1123 2182 
Q 960 1894 832 1619 
L 2240 1619 
L 2240 3731 
z
" transform="scale(0.015625)"/>
        </defs>
        <use xlink:href="#Ubuntu-32"/>
        <use xlink:href="#Ubuntu-30" x="56.399994"/>
        <use xlink:href="#Ubuntu-32" x="112.799988"/>
        <use xlink:href="#Ubuntu-34" x="169.199982"/>
       </g>
      </g>
     </g>
    </g>
    <g id="matplotlib.axis_2"/>
   </g>
   <g id="matplotlib.axis_3">
    <g id="xtick_5">
     <g id="line2d_23">
      <defs>
       <path id="m2dcc91173d" d="M 0 0 
L 0 3 
" style="stroke: #cecece; stroke-width: 0.75"/>
      </defs>
      <g>
       <use xlink:href="#m2dcc91173d" x="32.1925" y="208.375" style="fill: #cecece; stroke: #cecece; stroke-width: 0.75"/>
      </g>
     </g>
     <g id="text_5">
      <!-- Янв -->
      <g style="fill: #808080" transform="translate(25.116875 223.5825) scale(0.08 -0.08)">
       <defs>
        <path id="Ubuntu-42f" d="M 2272 3936 
Q 2029 3936 1808 3897 
Q 1587 3859 1414 3763 
Q 1242 3667 1139 3500 
Q 1037 3334 1037 3085 
Q 1037 2611 1341 2428 
Q 1645 2246 2253 2246 
L 2893 2246 
L 2893 3917 
Q 2822 3917 2726 3923 
Q 2643 3930 2531 3933 
Q 2419 3936 2272 3936 
z
M 2323 4480 
Q 2458 4480 2611 4473 
Q 2765 4467 2921 4454 
Q 3078 4442 3232 4422 
Q 3386 4403 3514 4371 
L 3514 0 
L 2893 0 
L 2893 1734 
L 2362 1734 
Q 2272 1734 2173 1737 
Q 2074 1741 1907 1760 
Q 1792 1606 1657 1401 
Q 1523 1197 1388 966 
Q 1254 736 1123 486 
Q 992 237 883 0 
L 230 0 
Q 333 250 473 518 
Q 614 787 764 1030 
Q 915 1274 1052 1482 
Q 1190 1690 1293 1824 
Q 1146 1869 986 1952 
Q 826 2035 691 2182 
Q 557 2330 470 2550 
Q 384 2771 384 3078 
Q 384 3424 518 3686 
Q 653 3949 905 4125 
Q 1158 4301 1516 4390 
Q 1875 4480 2323 4480 
z
" transform="scale(0.015625)"/>
        <path id="Ubuntu-43d" d="M 3238 0 
L 2643 0 
L 2643 1472 
L 1107 1472 
L 1107 0 
L 512 0 
L 512 3328 
L 1107 3328 
L 1107 1971 
L 2643 1971 
L 2643 3328 
L 3238 3328 
L 3238 0 
z
" transform="scale(0.015625)"/>
        <path id="Ubuntu-432" d="M 1094 448 
Q 1133 442 1203 435 
Q 1274 429 1363 425 
Q 1453 422 1552 419 
Q 1651 416 1741 416 
Q 1926 416 2096 441 
Q 2266 467 2390 531 
Q 2515 595 2588 700 
Q 2662 806 2662 973 
Q 2662 1133 2595 1238 
Q 2528 1344 2413 1408 
Q 2298 1472 2141 1497 
Q 1984 1523 1805 1523 
L 1094 1523 
L 1094 448 
z
M 1728 1965 
Q 1901 1965 2045 1987 
Q 2189 2010 2294 2067 
Q 2400 2125 2461 2221 
Q 2522 2317 2522 2464 
Q 2522 2618 2445 2707 
Q 2368 2797 2243 2845 
Q 2118 2893 1961 2909 
Q 1805 2925 1645 2925 
Q 1498 2925 1347 2918 
Q 1197 2912 1094 2906 
L 1094 1965 
L 1728 1965 
z
M 1715 -58 
Q 1338 -58 1018 -22 
Q 698 13 512 58 
L 512 3296 
Q 698 3341 1018 3376 
Q 1338 3411 1715 3411 
Q 1978 3411 2227 3366 
Q 2477 3322 2669 3216 
Q 2861 3110 2979 2928 
Q 3098 2746 3098 2477 
Q 3098 2234 2976 2061 
Q 2854 1888 2650 1792 
Q 2925 1696 3088 1507 
Q 3251 1318 3251 979 
Q 3251 678 3132 480 
Q 3014 282 2806 160 
Q 2598 38 2316 -10 
Q 2035 -58 1715 -58 
z
" transform="scale(0.015625)"/>
       </defs>
       <use xlink:href="#Ubuntu-42f"/>
       <use xlink:href="#Ubuntu-43d" x="63.499985"/>
       <use xlink:href="#Ubuntu-432" x="122.099976"/>
      </g>
     </g>
    </g>
    <g id="xtick_6">
     <g id="line2d_24">
      <g>
       <use xlink:href="#m2dcc91173d" x="70.302112" y="208.375" style="fill: #cecece; stroke: #cecece; stroke-width: 0.75"/>
      </g>
     </g>
     <g id="text_6">
      <!-- Апр -->
      <g style="fill: #808080" transform="translate(62.982112 223.5825) scale(0.08 -0.08)">
       <defs>
        <path id="Ubuntu-410" d="M 3514 0 
Q 3405 288 3309 566 
Q 3213 845 3110 1133 
L 1101 1133 
L 698 0 
L 51 0 
Q 307 704 531 1302 
Q 755 1901 969 2438 
Q 1184 2976 1395 3465 
Q 1606 3955 1837 4435 
L 2406 4435 
Q 2637 3955 2848 3465 
Q 3059 2976 3273 2438 
Q 3488 1901 3712 1302 
Q 3936 704 4192 0 
L 3514 0 
z
M 2931 1645 
Q 2726 2202 2524 2723 
Q 2323 3245 2106 3725 
Q 1882 3245 1680 2723 
Q 1478 2202 1280 1645 
L 2931 1645 
z
" transform="scale(0.015625)"/>
        <path id="Ubuntu-43f" d="M 3187 0 
L 2592 0 
L 2592 2829 
L 1107 2829 
L 1107 0 
L 512 0 
L 512 3328 
L 3187 3328 
L 3187 0 
z
" transform="scale(0.015625)"/>
        <path id="Ubuntu-440" d="M 2822 1658 
Q 2822 2240 2534 2553 
Q 2246 2867 1766 2867 
Q 1498 2867 1347 2848 
Q 1197 2829 1107 2803 
L 1107 704 
Q 1216 614 1421 531 
Q 1626 448 1869 448 
Q 2125 448 2307 541 
Q 2490 634 2605 797 
Q 2720 960 2771 1181 
Q 2822 1402 2822 1658 
z
M 3443 1658 
Q 3443 1280 3344 960 
Q 3245 640 3053 409 
Q 2861 179 2582 51 
Q 2304 -77 1946 -77 
Q 1658 -77 1437 0 
Q 1216 77 1107 147 
L 1107 -1184 
L 512 -1184 
L 512 3226 
Q 723 3277 1040 3337 
Q 1357 3398 1773 3398 
Q 2157 3398 2464 3276 
Q 2771 3155 2988 2931 
Q 3206 2707 3324 2384 
Q 3443 2061 3443 1658 
z
" transform="scale(0.015625)"/>
       </defs>
       <use xlink:href="#Ubuntu-410"/>
       <use xlink:href="#Ubuntu-43f" x="66.299988"/>
       <use xlink:href="#Ubuntu-440" x="124.099976"/>
      </g>
     </g>
    </g>
    <g id="xtick_7">
     <g id="line2d_25">
      <g>
       <use xlink:href="#m2dcc91173d" x="108.835164" y="208.375" style="fill: #cecece; stroke: #cecece; stroke-width: 0.75"/>
      </g>
     </g>
     <g id="text_7">
      <!-- Июл -->
      <g style="fill: #808080" transform="translate(100.287664 223.5825) scale(0.08 -0.08)">
       <defs>
        <path id="Ubuntu-418" d="M 550 0 
L 550 4435 
L 1158 4435 
L 1158 1152 
Q 1363 1491 1660 1926 
Q 1958 2362 2294 2813 
Q 2630 3264 2972 3689 
Q 3315 4115 3616 4435 
L 4109 4435 
L 4109 0 
L 3501 0 
L 3501 3462 
Q 3322 3258 3110 2989 
Q 2899 2720 2675 2416 
Q 2451 2112 2224 1785 
Q 1997 1459 1785 1142 
Q 1574 826 1392 531 
Q 1210 237 1069 0 
L 550 0 
z
" transform="scale(0.015625)"/>
        <path id="Ubuntu-44e" d="M 1107 1952 
L 1837 1952 
Q 1875 2285 2006 2553 
Q 2138 2822 2336 3014 
Q 2534 3206 2790 3308 
Q 3046 3411 3341 3411 
Q 3667 3411 3945 3286 
Q 4224 3162 4429 2931 
Q 4634 2701 4749 2377 
Q 4864 2054 4864 1664 
Q 4864 1267 4749 947 
Q 4634 627 4429 396 
Q 4224 166 3945 41 
Q 3667 -83 3341 -83 
Q 3034 -83 2768 29 
Q 2502 141 2304 342 
Q 2106 544 1981 832 
Q 1856 1120 1830 1472 
L 1107 1472 
L 1107 0 
L 512 0 
L 512 3328 
L 1107 3328 
L 1107 1952 
z
M 4250 1664 
Q 4250 2227 4003 2556 
Q 3757 2886 3341 2886 
Q 2925 2886 2678 2556 
Q 2432 2227 2432 1664 
Q 2432 1101 2678 771 
Q 2925 442 3341 442 
Q 3757 442 4003 771 
Q 4250 1101 4250 1664 
z
" transform="scale(0.015625)"/>
        <path id="Ubuntu-43b" d="M 1670 2829 
Q 1670 2618 1660 2378 
Q 1651 2138 1625 1898 
Q 1600 1658 1555 1424 
Q 1510 1190 1440 986 
Q 1370 781 1264 601 
Q 1158 422 1004 284 
Q 851 147 646 54 
Q 442 -38 166 -64 
L 83 435 
Q 397 499 579 672 
Q 762 845 870 1094 
Q 966 1312 1011 1587 
Q 1056 1862 1075 2160 
Q 1094 2458 1097 2758 
Q 1101 3059 1101 3328 
L 3315 3328 
L 3315 0 
L 2720 0 
L 2720 2829 
L 1670 2829 
z
" transform="scale(0.015625)"/>
       </defs>
       <use xlink:href="#Ubuntu-418"/>
       <use xlink:href="#Ubuntu-44e" x="72.799988"/>
       <use xlink:href="#Ubuntu-43b" x="153.899979"/>
      </g>
     </g>
    </g>
    <g id="xtick_8">
     <g id="line2d_26">
      <g>
       <use xlink:href="#m2dcc91173d" x="147.791657" y="208.375" style="fill: #cecece; stroke: #cecece; stroke-width: 0.75"/>
      </g>
     </g>
     <g id="text_8">
      <!-- Окт -->
      <g style="fill: #808080" transform="translate(140.679782 223.5825) scale(0.08 -0.08)">
       <defs>
        <path id="Ubuntu-41e" d="M 371 2221 
Q 371 2790 540 3225 
Q 710 3661 1001 3952 
Q 1293 4243 1680 4390 
Q 2067 4538 2502 4538 
Q 2931 4538 3312 4390 
Q 3693 4243 3981 3952 
Q 4269 3661 4438 3225 
Q 4608 2790 4608 2221 
Q 4608 1651 4438 1216 
Q 4269 781 3981 489 
Q 3693 198 3312 51 
Q 2931 -96 2502 -96 
Q 2067 -96 1680 51 
Q 1293 198 1001 489 
Q 710 781 540 1216 
Q 371 1651 371 2221 
z
M 1024 2221 
Q 1024 1818 1126 1488 
Q 1229 1158 1417 928 
Q 1606 698 1878 573 
Q 2150 448 2490 448 
Q 2829 448 3097 573 
Q 3366 698 3555 928 
Q 3744 1158 3846 1488 
Q 3949 1818 3949 2221 
Q 3949 2624 3846 2953 
Q 3744 3283 3555 3513 
Q 3366 3744 3097 3869 
Q 2829 3994 2490 3994 
Q 2150 3994 1878 3869 
Q 1606 3744 1417 3513 
Q 1229 3283 1126 2953 
Q 1024 2624 1024 2221 
z
" transform="scale(0.015625)"/>
        <path id="Ubuntu-43a" d="M 1728 1811 
Q 1926 1670 2156 1456 
Q 2387 1242 2608 992 
Q 2829 742 3021 483 
Q 3213 224 3347 0 
L 2643 0 
Q 2502 218 2313 445 
Q 2125 672 1920 883 
Q 1715 1094 1504 1273 
Q 1293 1453 1107 1574 
L 1107 0 
L 512 0 
L 512 3328 
L 1107 3328 
L 1107 1901 
Q 1261 2048 1459 2243 
Q 1658 2438 1859 2640 
Q 2061 2842 2233 3024 
Q 2406 3206 2515 3328 
L 3206 3328 
Q 3066 3174 2877 2979 
Q 2688 2784 2486 2579 
Q 2285 2374 2086 2172 
Q 1888 1971 1728 1811 
z
" transform="scale(0.015625)"/>
        <path id="Ubuntu-442" d="M 2861 3328 
L 2861 2829 
L 1779 2829 
L 1779 0 
L 1184 0 
L 1184 2829 
L 102 2829 
L 102 3328 
L 2861 3328 
z
" transform="scale(0.015625)"/>
       </defs>
       <use xlink:href="#Ubuntu-41e"/>
       <use xlink:href="#Ubuntu-43a" x="77.799988"/>
       <use xlink:href="#Ubuntu-442" x="131.499985"/>
      </g>
     </g>
    </g>
    <g id="xtick_9">
     <g id="line2d_27">
      <g>
       <use xlink:href="#m2dcc91173d" x="186.748149" y="208.375" style="fill: #cecece; stroke: #cecece; stroke-width: 0.75"/>
      </g>
     </g>
     <g id="text_9">
      <!-- Янв -->
      <g style="fill: #808080" transform="translate(179.672524 223.5825) scale(0.08 -0.08)">
       <use xlink:href="#Ubuntu-42f"/>
       <use xlink:href="#Ubuntu-43d" x="63.499985"/>
       <use xlink:href="#Ubuntu-432" x="122.099976"/>
      </g>
     </g>
    </g>
    <g id="xtick_10">
     <g id="line2d_28">
      <g>
       <use xlink:href="#m2dcc91173d" x="224.857761" y="208.375" style="fill: #cecece; stroke: #cecece; stroke-width: 0.75"/>
      </g>
     </g>
     <g id="text_10">
      <!-- Апр -->
      <g style="fill: #808080" transform="translate(217.537761 223.5825) scale(0.08 -0.08)">
       <use xlink:href="#Ubuntu-410"/>
       <use xlink:href="#Ubuntu-43f" x="66.299988"/>
       <use xlink:href="#Ubuntu-440" x="124.099976"/>
      </g>
     </g>
    </g>
    <g id="xtick_11">
     <g id="line2d_29">
      <g>
       <use xlink:href="#m2dcc91173d" x="263.390814" y="208.375" style="fill: #cecece; stroke: #cecece; stroke-width: 0.75"/>
      </g>
     </g>
     <g id="text_11">
      <!-- Июл -->
      <g style="fill: #808080" transform="translate(254.843314 223.5825) scale(0.08 -0.08)">
       <use xlink:href="#Ubuntu-418"/>
       <use xlink:href="#Ubuntu-44e" x="72.799988"/>
       <use xlink:href="#Ubuntu-43b" x="153.899979"/>
      </g>
     </g>
    </g>
    <g id="xtick_12">
     <g id="line2d_30">
      <g>
       <use xlink:href="#m2dcc91173d" x="302.347306" y="208.375" style="fill: #cecece; stroke: #cecece; stroke-width: 0.75"/>
      </g>
     </g>
     <g id="text_12">
      <!-- Окт -->
      <g style="fill: #808080" transform="translate(295.235431 223.5825) scale(0.08 -0.08)">
       <use xlink:href="#Ubuntu-41e"/>
       <use xlink:href="#Ubuntu-43a" x="77.799988"/>
       <use xlink:href="#Ubuntu-442" x="131.499985"/>
      </g>
     </g>
    </g>
    <g id="xtick_13">
     <g id="line2d_31">
      <g>
       <use xlink:href="#m2dcc91173d" x="341.303798" y="208.375" style="fill: #cecece; stroke: #cecece; stroke-width: 0.75"/>
      </g>
     </g>
     <g id="text_13">
      <!-- Янв -->
      <g style="fill: #808080" transform="translate(334.228173 223.5825) scale(0.08 -0.08)">
       <use xlink:href="#Ubuntu-42f"/>
       <use xlink:href="#Ubuntu-43d" x="63.499985"/>
       <use xlink:href="#Ubuntu-432" x="122.099976"/>
      </g>
     </g>
    </g>
    <g id="xtick_14">
     <g id="line2d_32">
      <g>
       <use xlink:href="#m2dcc91173d" x="379.413411" y="208.375" style="fill: #cecece; stroke: #cecece; stroke-width: 0.75"/>
      </g>
     </g>
     <g id="text_14">
      <!-- Апр -->
      <g style="fill: #808080" transform="translate(372.093411 223.5825) scale(0.08 -0.08)">
       <use xlink:href="#Ubuntu-410"/>
       <use xlink:href="#Ubuntu-43f" x="66.299988"/>
       <use xlink:href="#Ubuntu-440" x="124.099976"/>
      </g>
     </g>
    </g>
    <g id="xtick_15">
     <g id="line2d_33">
      <g>
       <use xlink:href="#m2dcc91173d" x="417.946463" y="208.375" style="fill: #cecece; stroke: #cecece; stroke-width: 0.75"/>
      </g>
     </g>
     <g id="text_15">
      <!-- Июл -->
      <g style="fill: #808080" transform="translate(409.398963 223.5825) scale(0.08 -0.08)">
       <use xlink:href="#Ubuntu-418"/>
       <use xlink:href="#Ubuntu-44e" x="72.799988"/>
       <use xlink:href="#Ubuntu-43b" x="153.899979"/>
      </g>
     </g>
    </g>
    <g id="xtick_16">
     <g id="line2d_34">
      <g>
       <use xlink:href="#m2dcc91173d" x="456.902955" y="208.375" style="fill: #cecece; stroke: #cecece; stroke-width: 0.75"/>
      </g>
     </g>
     <g id="text_16">
      <!-- Окт -->
      <g style="fill: #808080" transform="translate(449.79108 223.5825) scale(0.08 -0.08)">
       <use xlink:href="#Ubuntu-41e"/>
       <use xlink:href="#Ubuntu-43a" x="77.799988"/>
       <use xlink:href="#Ubuntu-442" x="131.499985"/>
      </g>
     </g>
    </g>
    <g id="xtick_17">
     <g id="line2d_35">
      <g>
       <use xlink:href="#m2dcc91173d" x="495.859448" y="208.375" style="fill: #cecece; stroke: #cecece; stroke-width: 0.75"/>
      </g>
     </g>
     <g id="text_17">
      <!-- Янв -->
      <g style="fill: #808080" transform="translate(488.783823 223.5825) scale(0.08 -0.08)">
       <use xlink:href="#Ubuntu-42f"/>
       <use xlink:href="#Ubuntu-43d" x="63.499985"/>
       <use xlink:href="#Ubuntu-432" x="122.099976"/>
      </g>
     </g>
    </g>
    <g id="xtick_18">
     <g id="line2d_36">
      <g>
       <use xlink:href="#m2dcc91173d" x="534.3925" y="208.375" style="fill: #cecece; stroke: #cecece; stroke-width: 0.75"/>
      </g>
     </g>
     <g id="text_18">
      <!-- Апр -->
      <g style="fill: #808080" transform="translate(527.0725 223.5825) scale(0.08 -0.08)">
       <use xlink:href="#Ubuntu-410"/>
       <use xlink:href="#Ubuntu-43f" x="66.299988"/>
       <use xlink:href="#Ubuntu-440" x="124.099976"/>
      </g>
     </g>
    </g>
   </g>
   <g id="matplotlib.axis_4">
    <g id="ytick_1">
     <g id="line2d_37">
      <defs>
       <path id="md44f2fc1d1" d="M 0 0 
L -3 0 
" style="stroke: #cecece; stroke-width: 0.75"/>
      </defs>
      <g>
       <use xlink:href="#md44f2fc1d1" x="27.1925" y="203.375" style="fill: #cecece; stroke: #cecece; stroke-width: 0.75"/>
      </g>
     </g>
     <g id="text_19">
      <!-- 0.0 -->
      <g style="fill: #808080" transform="translate(7.2 206.47875) scale(0.08 -0.08)">
       <defs>
        <path id="Ubuntu-2e" d="M 1216 346 
Q 1216 173 1101 45 
Q 986 -83 787 -83 
Q 589 -83 473 45 
Q 358 173 358 346 
Q 358 518 473 646 
Q 589 774 787 774 
Q 986 774 1101 646 
Q 1216 518 1216 346 
z
" transform="scale(0.015625)"/>
       </defs>
       <use xlink:href="#Ubuntu-30"/>
       <use xlink:href="#Ubuntu-2e" x="56.399994"/>
       <use xlink:href="#Ubuntu-30" x="80.999985"/>
      </g>
     </g>
    </g>
    <g id="ytick_2">
     <g id="line2d_38">
      <g>
       <use xlink:href="#md44f2fc1d1" x="27.1925" y="175.655" style="fill: #cecece; stroke: #cecece; stroke-width: 0.75"/>
      </g>
     </g>
     <g id="text_20">
      <!-- 0.5 -->
      <g style="fill: #808080" transform="translate(7.2 178.75875) scale(0.08 -0.08)">
       <defs>
        <path id="Ubuntu-35" d="M 1274 2726 
Q 2240 2688 2691 2304 
Q 3142 1920 3142 1261 
Q 3142 966 3043 716 
Q 2944 467 2742 288 
Q 2541 109 2233 6 
Q 1926 -96 1504 -96 
Q 1338 -96 1165 -70 
Q 992 -45 845 -6 
Q 698 32 582 70 
Q 467 109 416 134 
L 531 653 
Q 640 602 886 518 
Q 1133 435 1491 435 
Q 1779 435 1974 499 
Q 2170 563 2291 672 
Q 2413 781 2467 925 
Q 2522 1069 2522 1229 
Q 2522 1472 2438 1661 
Q 2355 1850 2144 1978 
Q 1933 2106 1581 2173 
Q 1229 2240 691 2240 
Q 730 2554 752 2829 
Q 774 3104 793 3366 
Q 813 3629 825 3888 
Q 838 4147 851 4435 
L 2989 4435 
L 2989 3930 
L 1370 3930 
Q 1363 3834 1350 3670 
Q 1338 3507 1325 3331 
Q 1312 3155 1299 2988 
Q 1286 2822 1274 2726 
z
" transform="scale(0.015625)"/>
       </defs>
       <use xlink:href="#Ubuntu-30"/>
       <use xlink:href="#Ubuntu-2e" x="56.399994"/>
       <use xlink:href="#Ubuntu-35" x="80.999985"/>
      </g>
     </g>
    </g>
    <g id="ytick_3">
     <g id="line2d_39">
      <g>
       <use xlink:href="#md44f2fc1d1" x="27.1925" y="147.935" style="fill: #cecece; stroke: #cecece; stroke-width: 0.75"/>
      </g>
     </g>
     <g id="text_21">
      <!-- 1.0 -->
      <g style="fill: #808080" transform="translate(7.2 151.03875) scale(0.08 -0.08)">
       <use xlink:href="#Ubuntu-31"/>
       <use xlink:href="#Ubuntu-2e" x="56.399994"/>
       <use xlink:href="#Ubuntu-30" x="80.999985"/>
      </g>
     </g>
    </g>
    <g id="ytick_4">
     <g id="line2d_40">
      <g>
       <use xlink:href="#md44f2fc1d1" x="27.1925" y="120.215" style="fill: #cecece; stroke: #cecece; stroke-width: 0.75"/>
      </g>
     </g>
     <g id="text_22">
      <!-- 1.5 -->
      <g style="fill: #808080" transform="translate(7.2 123.31875) scale(0.08 -0.08)">
       <use xlink:href="#Ubuntu-31"/>
       <use xlink:href="#Ubuntu-2e" x="56.399994"/>
       <use xlink:href="#Ubuntu-35" x="80.999985"/>
      </g>
     </g>
    </g>
    <g id="ytick_5">
     <g id="line2d_41">
      <g>
       <use xlink:href="#md44f2fc1d1" x="27.1925" y="92.495" style="fill: #cecece; stroke: #cecece; stroke-width: 0.75"/>
      </g>
     </g>
     <g id="text_23">
      <!-- 2.0 -->
      <g style="fill: #808080" transform="translate(7.2 95.59875) scale(0.08 -0.08)">
       <use xlink:href="#Ubuntu-32"/>
       <use xlink:href="#Ubuntu-2e" x="56.399994"/>
       <use xlink:href="#Ubuntu-30" x="80.999985"/>
      </g>
     </g>
    </g>
    <g id="ytick_6">
     <g id="line2d_42">
      <g>
       <use xlink:href="#md44f2fc1d1" x="27.1925" y="64.775" style="fill: #cecece; stroke: #cecece; stroke-width: 0.75"/>
      </g>
     </g>
     <g id="text_24">
      <!-- 2.5 -->
      <g style="fill: #808080" transform="translate(7.2 67.87875) scale(0.08 -0.08)">
       <use xlink:href="#Ubuntu-32"/>
       <use xlink:href="#Ubuntu-2e" x="56.399994"/>
       <use xlink:href="#Ubuntu-35" x="80.999985"/>
      </g>
     </g>
    </g>
    <g id="ytick_7">
     <g id="line2d_43">
      <g>
       <use xlink:href="#md44f2fc1d1" x="27.1925" y="37.055" style="fill: #cecece; stroke: #cecece; stroke-width: 0.75"/>
      </g>
     </g>
     <g id="text_25">
      <!-- 3.0 -->
      <g style="fill: #808080" transform="translate(7.2 40.15875) scale(0.08 -0.08)">
       <use xlink:href="#Ubuntu-33"/>
       <use xlink:href="#Ubuntu-2e" x="56.399994"/>
       <use xlink:href="#Ubuntu-30" x="80.999985"/>
      </g>
     </g>
    </g>
   </g>
   <g id="line2d_44">
    <path d="M 32.1925 147.935 
L 34.131261 143.941182 
L 36.070022 141.269907 
L 38.008783 139.754363 
L 39.947544 139.227741 
L 41.886305 139.52323 
L 43.825066 140.47402 
L 45.763827 141.9133 
L 47.702588 143.674261 
L 51.58011 147.493983 
L 53.518871 149.219122 
L 55.457632 150.598701 
L 57.396393 151.465908 
L 59.335154 151.673211 
L 61.273915 151.264536 
L 63.212676 150.393422 
L 65.151437 149.214699 
L 69.028959 146.55375 
L 70.96772 145.381177 
L 72.906481 144.486075 
L 74.845242 143.876856 
L 76.784003 143.538981 
L 78.722764 143.457909 
L 80.661525 143.619101 
L 82.600286 144.008019 
L 84.539048 144.609953 
L 86.477809 145.404427 
L 88.41657 146.363898 
L 92.294092 148.665925 
L 96.171614 151.292223 
L 101.987897 155.462157 
L 107.80418 159.88707 
L 117.497985 167.630419 
L 121.375507 170.257924 
L 123.314268 171.332665 
L 125.253029 172.191918 
L 127.19179 172.781387 
L 129.130551 173.046324 
L 131.069312 172.931985 
L 133.008073 172.383623 
L 134.946834 171.346493 
L 136.885595 169.789265 
L 138.824356 167.830959 
L 144.640639 161.334553 
L 146.5794 159.557208 
L 148.518161 158.271073 
L 150.456922 157.549318 
L 152.395683 157.231015 
L 156.273205 157.034358 
L 158.211966 156.770801 
L 160.150727 156.14029 
L 162.089488 154.960627 
L 164.028249 153.236421 
L 165.96701 151.133855 
L 171.783293 144.271138 
L 173.722054 142.37027 
L 175.660815 140.911794 
L 177.599576 139.837908 
L 179.538337 139.028103 
L 185.354621 136.977741 
L 187.293382 136.019533 
L 189.232143 134.796988 
L 196.987187 129.176094 
L 198.925948 128.10309 
L 200.864709 127.361503 
L 202.80347 126.944957 
L 204.742231 126.773074 
L 208.619753 126.835143 
L 212.497275 126.891395 
L 214.436036 126.732854 
L 218.313558 126.111398 
L 222.19108 125.41918 
L 224.129841 125.172188 
L 226.068602 125.058216 
L 228.007363 125.123195 
L 229.946124 125.40645 
L 231.884885 125.946741 
L 233.823646 126.782826 
L 235.762407 127.953463 
L 237.701168 129.497411 
L 239.639929 131.444302 
L 241.57869 133.72581 
L 249.333734 143.632076 
L 251.272495 145.660125 
L 253.211256 147.296955 
L 255.150017 148.619199 
L 259.027539 150.766227 
L 260.9663 151.814161 
L 262.905061 152.993808 
L 264.843822 154.414465 
L 266.782583 156.096864 
L 274.537627 163.48067 
L 276.476388 164.98015 
L 278.415149 166.14919 
L 280.35391 167.00184 
L 282.292671 167.604828 
L 284.231432 168.025299 
L 293.925238 169.508354 
L 295.863999 169.734261 
L 297.80276 169.788321 
L 299.741521 169.590038 
L 301.680282 169.058913 
L 303.619043 168.116925 
L 305.557804 166.753067 
L 307.496565 165.029431 
L 309.435326 163.011808 
L 313.312848 158.357765 
L 321.067892 148.188491 
L 332.700458 132.87345 
L 336.57798 128.05451 
L 340.455502 123.618331 
L 342.394263 121.594564 
L 344.333024 119.758881 
L 346.271785 118.190456 
L 348.210546 116.969485 
L 350.149307 116.176164 
L 352.088068 115.890689 
L 354.026829 116.193257 
L 355.96559 117.124086 
L 357.904351 118.499695 
L 361.781873 121.540172 
L 363.720634 122.682384 
L 365.659395 123.224141 
L 367.598156 122.90564 
L 369.536917 121.662436 
L 371.475678 119.81533 
L 375.3532 115.772968 
L 377.291961 114.309492 
L 379.230722 113.705672 
L 381.169483 114.302127 
L 383.108244 116.061346 
L 385.047005 118.654732 
L 390.863289 128.079053 
L 392.80205 130.648268 
L 394.740811 132.448748 
L 396.679572 133.576283 
L 398.618333 134.227857 
L 404.434616 135.296737 
L 406.373377 136.012875 
L 408.312138 137.127627 
L 410.250899 138.552503 
L 414.128421 141.912866 
L 418.005943 145.254433 
L 419.944704 146.664207 
L 421.883465 147.868777 
L 425.760987 149.919015 
L 429.638509 151.923806 
L 431.57727 153.071567 
L 433.516031 154.383312 
L 437.393553 157.370753 
L 443.209836 162.089367 
L 445.148597 163.545734 
L 447.087358 164.845645 
L 449.026119 165.889736 
L 450.96488 166.576362 
L 452.903641 166.803878 
L 454.842402 166.47064 
L 456.781163 165.475001 
L 458.719924 163.730421 
L 460.658685 161.289376 
L 462.597446 158.279265 
L 464.536207 154.828214 
L 468.413729 147.115797 
L 474.230012 135.30907 
L 478.107534 128.080609 
L 480.046295 124.780776 
L 481.985056 121.74359 
L 483.923817 119.007495 
L 485.862578 116.570202 
L 487.801339 114.382329 
L 491.678862 110.546818 
L 497.495145 105.377906 
L 499.433906 103.738296 
L 501.372667 102.276119 
L 503.311428 101.10162 
L 505.250189 100.325045 
L 507.18895 100.056639 
L 509.127711 100.406422 
L 511.066472 101.392552 
L 513.005233 102.800754 
L 516.882755 105.881472 
L 518.821516 107.053036 
L 520.760277 107.644769 
L 522.699038 107.41924 
L 524.637799 106.423951 
L 530.454082 102.108169 
L 532.392843 101.345314 
L 534.331604 101.479851 
L 536.270365 102.779234 
L 538.209126 105.101919 
L 540.147887 108.154712 
L 545.96417 118.75931 
L 547.902931 121.798792 
L 549.9125 124.28111 
L 549.9125 124.28111 
" clip-path="url(#p6e51589333)" style="fill: none; stroke-dasharray: 5.55,2.4; stroke-dashoffset: 0; stroke: #4f4f4f; stroke-width: 1.5"/>
   </g>
   <g id="line2d_45">
    <path d="M 32.1925 147.935 
L 34.131261 147.865603 
L 36.070022 147.527991 
L 38.008783 146.95567 
L 39.947544 146.182145 
L 41.886305 145.240921 
L 45.763827 142.989397 
L 55.457632 136.771216 
L 57.396393 135.694586 
L 61.273915 133.918263 
L 67.090198 131.77644 
L 70.96772 130.276234 
L 72.906481 129.385157 
L 74.845242 128.301242 
L 76.784003 126.933951 
L 78.722764 125.192747 
L 80.661525 122.987095 
L 82.600286 120.226458 
L 84.539048 116.82606 
L 90.355331 104.891549 
L 92.294092 101.550114 
L 94.232853 99.141683 
L 96.171614 98.035038 
L 98.110375 98.542218 
L 100.049136 100.524622 
L 101.987897 103.628752 
L 103.926658 107.499786 
L 109.742941 120.166254 
L 111.681702 123.654788 
L 113.620463 126.595129 
L 115.559224 129.037466 
L 117.497985 131.031987 
L 119.436746 132.628881 
L 121.375507 133.878337 
L 123.314268 134.829276 
L 125.253029 135.499872 
L 127.19179 135.876653 
L 129.130551 135.944694 
L 131.069312 135.689074 
L 133.008073 135.094869 
L 134.946834 134.147158 
L 136.885595 132.843517 
L 138.824356 131.261792 
L 146.5794 124.346161 
L 148.518161 123.018079 
L 150.456922 122.02353 
L 152.395683 121.324151 
L 154.334444 120.867767 
L 156.273205 120.602206 
L 160.150727 120.434859 
L 167.905771 120.317105 
L 171.783293 119.93604 
L 173.722054 119.586338 
L 177.599576 118.550829 
L 181.477098 117.41235 
L 183.415859 116.951388 
L 185.354621 116.640956 
L 187.293382 116.539275 
L 189.232143 116.649222 
L 195.048426 117.206075 
L 196.987187 117.097463 
L 198.925948 116.656786 
L 200.864709 115.781833 
L 202.80347 114.490557 
L 204.742231 112.888151 
L 208.619753 109.178563 
L 212.497275 105.510298 
L 214.436036 103.931048 
L 218.313558 101.155627 
L 222.19108 98.385936 
L 224.129841 96.813848 
L 226.068602 95.017117 
L 229.946124 90.849391 
L 233.823646 86.675961 
L 235.762407 84.88166 
L 237.701168 83.439395 
L 239.639929 82.463671 
L 241.57869 82.03339 
L 243.517451 82.205808 
L 245.456212 83.037881 
L 247.394973 84.586559 
L 249.333734 86.908796 
L 251.272495 90.061542 
L 253.211256 94.047895 
L 255.150017 98.682391 
L 259.027539 108.98896 
L 262.905061 119.167536 
L 264.843822 123.645314 
L 266.782583 127.544706 
L 268.721344 130.934728 
L 270.660105 133.895441 
L 272.598866 136.506905 
L 274.537627 138.849182 
L 278.415149 143.037427 
L 280.35391 144.948776 
L 282.292671 146.691752 
L 284.231432 148.221424 
L 286.170193 149.492863 
L 288.108955 150.461139 
L 290.047716 151.08135 
L 291.986477 151.336237 
L 293.925238 151.288053 
L 295.863999 151.013263 
L 299.741521 150.089721 
L 303.619043 149.175608 
L 307.496565 148.634161 
L 321.067892 147.370572 
L 324.945414 146.696642 
L 328.822936 145.855648 
L 334.639219 144.318246 
L 342.394263 141.95883 
L 346.271785 140.812624 
L 350.149307 139.973355 
L 352.088068 139.750428 
L 354.026829 139.702163 
L 355.96559 139.852138 
L 357.904351 140.173202 
L 361.781873 141.14944 
L 367.598156 142.777136 
L 371.475678 143.530627 
L 375.3532 143.927503 
L 379.230722 143.959225 
L 381.169483 143.833261 
L 383.108244 143.575077 
L 385.047005 143.122481 
L 386.985766 142.412621 
L 388.924528 141.382647 
L 390.863289 139.969708 
L 392.80205 138.110953 
L 394.740811 135.775785 
L 396.679572 133.081051 
L 402.495855 124.429003 
L 404.434616 121.885561 
L 406.373377 119.776638 
L 408.312138 118.211137 
L 410.250899 117.216767 
L 412.18966 116.813672 
L 414.128421 117.021998 
L 416.067182 117.86189 
L 418.005943 119.353493 
L 419.944704 121.506854 
L 421.883465 124.21465 
L 425.760987 130.560086 
L 429.638509 136.916574 
L 431.57727 139.638186 
L 433.516031 141.858283 
L 435.454792 143.623286 
L 437.393553 145.022198 
L 439.332314 146.14402 
L 443.209836 147.912406 
L 452.903641 152.0099 
L 454.842402 152.663835 
L 456.781163 153.186145 
L 458.719924 153.548167 
L 460.658685 153.76023 
L 464.536207 153.860063 
L 478.107534 153.474762 
L 481.985056 153.084418 
L 485.862578 152.266315 
L 495.556384 149.580759 
L 499.433906 148.982067 
L 503.311428 148.733117 
L 509.127711 148.692087 
L 518.821516 148.825482 
L 528.515321 149.152123 
L 530.454082 148.929913 
L 532.392843 148.477114 
L 534.331604 147.734971 
L 536.270365 146.646684 
L 538.209126 145.167183 
L 540.147887 143.255746 
L 542.086648 140.871656 
L 544.025409 137.9742 
L 545.96417 134.522662 
L 547.902931 130.476867 
L 549.9125 125.705022 
L 549.9125 125.705022 
" clip-path="url(#p6e51589333)" style="fill: none; stroke: #886150; stroke-width: 1.2; stroke-linecap: square"/>
   </g>
   <g id="line2d_46">
    <path d="M 32.1925 147.935 
L 34.131261 142.268886 
L 36.070022 138.398889 
L 38.008783 136.115215 
L 39.947544 135.208067 
L 41.886305 135.46765 
L 43.825066 136.684169 
L 45.763827 138.647827 
L 47.702588 141.14883 
L 55.457632 152.330375 
L 57.396393 154.371167 
L 59.335154 155.712712 
L 61.273915 156.387714 
L 63.212676 156.555006 
L 65.151437 156.37491 
L 70.96772 155.353496 
L 72.906481 155.350584 
L 74.845242 155.609496 
L 76.784003 156.110184 
L 78.722764 156.8326 
L 80.661525 157.756697 
L 82.600286 158.862425 
L 86.477809 161.527961 
L 98.110375 170.335437 
L 101.987897 172.615226 
L 105.865419 174.54528 
L 111.681702 177.046956 
L 115.559224 178.46849 
L 119.436746 179.521418 
L 121.375507 179.858097 
L 123.314268 180.040402 
L 125.253029 180.038828 
L 127.19179 179.815084 
L 129.130551 179.330481 
L 131.069312 178.546328 
L 133.008073 177.423933 
L 134.946834 175.924605 
L 136.885595 174.028276 
L 140.763117 169.489847 
L 144.640639 164.935846 
L 146.5794 163.020167 
L 148.518161 161.540809 
L 150.456922 160.56349 
L 152.395683 159.973733 
L 156.273205 159.401459 
L 158.211966 159.141224 
L 160.150727 158.713109 
L 162.089488 157.984611 
L 164.028249 156.937339 
L 165.96701 155.651607 
L 175.660815 148.553593 
L 179.538337 146.429462 
L 185.354621 143.335199 
L 189.232143 140.772316 
L 191.170904 139.440155 
L 193.109665 138.259259 
L 195.048426 137.371654 
L 196.987187 136.919365 
L 198.925948 137.044417 
L 200.864709 137.874718 
L 202.80347 139.34445 
L 204.742231 141.247151 
L 208.619753 145.512979 
L 210.558514 147.456864 
L 212.497275 148.995233 
L 214.436036 149.978775 
L 216.374797 150.516039 
L 222.19108 151.224751 
L 224.129841 151.751491 
L 226.068602 152.717373 
L 228.007363 154.185454 
L 229.946124 156.044378 
L 233.823646 160.42932 
L 237.701168 164.861324 
L 239.639929 166.786672 
L 241.57869 168.441432 
L 243.517451 169.837939 
L 245.456212 170.989226 
L 247.394973 171.908327 
L 249.333734 172.608275 
L 251.272495 173.102104 
L 255.150017 173.61856 
L 259.027539 174.012591 
L 260.9663 174.363091 
L 262.905061 174.922256 
L 264.843822 175.767467 
L 266.782583 176.883706 
L 270.660105 179.381057 
L 272.598866 180.476031 
L 274.537627 181.277778 
L 276.476388 181.64323 
L 278.415149 181.449799 
L 280.35391 180.749904 
L 282.292671 179.684705 
L 290.047716 174.607904 
L 291.986477 173.788991 
L 293.925238 173.188275 
L 299.741521 171.705242 
L 301.680282 170.987244 
L 303.619043 169.995104 
L 305.557804 168.705497 
L 307.496565 167.174712 
L 311.374087 163.630878 
L 323.006653 152.349843 
L 324.945414 150.219228 
L 326.884175 147.862888 
L 328.822936 145.219414 
L 330.761697 142.271186 
L 334.639219 135.821112 
L 338.516741 129.309484 
L 340.455502 126.284314 
L 342.394263 123.548319 
L 344.333024 121.204878 
L 346.271785 119.359023 
L 348.210546 118.115845 
L 350.149307 117.580436 
L 352.088068 117.857887 
L 354.026829 119.05329 
L 355.96559 121.220479 
L 357.904351 124.12647 
L 363.720634 133.949885 
L 365.659395 136.483517 
L 367.598156 138.09381 
L 369.536917 138.67262 
L 371.475678 138.551384 
L 375.3532 137.740319 
L 377.291961 137.816262 
L 379.230722 138.723705 
L 381.169483 140.817716 
L 383.108244 144.037148 
L 385.047005 148.000449 
L 388.924528 156.599479 
L 390.863289 160.455619 
L 392.80205 163.49645 
L 394.740811 165.427557 
L 396.679572 166.39053 
L 398.618333 166.651467 
L 400.557094 166.476478 
L 404.434616 165.883164 
L 406.373377 165.995026 
L 408.312138 166.587422 
L 410.250899 167.543753 
L 418.005943 172.235407 
L 419.944704 172.940633 
L 421.883465 173.300371 
L 423.822226 173.356889 
L 425.760987 173.153579 
L 427.699748 172.733832 
L 429.638509 172.14104 
L 433.516031 170.612688 
L 437.393553 168.979597 
L 439.332314 168.270645 
L 441.271075 167.71224 
L 443.209836 167.3635 
L 445.148597 167.281945 
L 447.087358 167.454187 
L 452.903641 168.35459 
L 454.842402 168.388678 
L 456.781163 168.092774 
L 458.719924 167.359222 
L 460.658685 166.177253 
L 462.597446 164.588317 
L 464.536207 162.634368 
L 466.474968 160.35736 
L 468.413729 157.799247 
L 472.291251 152.013944 
L 481.985056 136.667989 
L 483.923817 134.018215 
L 485.862578 131.614301 
L 489.7401 127.317465 
L 497.495145 119.124315 
L 499.433906 117.025277 
L 501.372667 115.151801 
L 503.311428 113.695332 
L 505.250189 112.847313 
L 507.18895 112.799189 
L 509.127711 113.742099 
L 511.066472 115.743012 
L 513.005233 118.554719 
L 516.882755 125.425939 
L 518.821516 128.893165 
L 520.760277 131.98661 
L 522.699038 134.42171 
L 524.637799 136.166808 
L 526.57656 137.435932 
L 530.454082 139.442897 
L 532.392843 140.629058 
L 534.331604 142.235885 
L 536.270365 144.441102 
L 538.209126 147.144195 
L 544.025409 156.203232 
L 545.96417 158.859996 
L 547.902931 160.996128 
L 549.9125 162.536823 
L 549.9125 162.536823 
" clip-path="url(#p6e51589333)" style="fill: none; stroke: #5a9e88; stroke-width: 1.2; stroke-linecap: square"/>
   </g>
   <g id="line2d_47">
    <path d="M 32.1925 147.935 
L 34.131261 146.311457 
L 36.070022 145.12177 
L 38.008783 144.32273 
L 39.947544 143.871123 
L 41.886305 143.723738 
L 43.825066 143.837364 
L 45.763827 144.168789 
L 47.702588 144.674802 
L 51.58011 146.037741 
L 57.396393 148.311264 
L 61.273915 149.528028 
L 67.090198 150.925881 
L 72.906481 152.28028 
L 76.784003 153.388674 
L 80.661525 154.780468 
L 84.539048 156.553159 
L 88.41657 158.718611 
L 101.987897 166.858234 
L 115.559224 174.246139 
L 117.497985 175.075097 
L 119.436746 175.709557 
L 121.375507 176.096129 
L 123.314268 176.182417 
L 125.253029 175.940141 
L 127.19179 175.365849 
L 129.130551 174.457221 
L 131.069312 173.211941 
L 133.008073 171.62769 
L 134.946834 169.702152 
L 136.885595 167.446998 
L 144.640639 157.515529 
L 146.5794 155.490286 
L 148.518161 153.921963 
L 150.456922 152.88372 
L 152.395683 152.306757 
L 154.334444 152.103068 
L 156.273205 152.184646 
L 160.150727 152.851579 
L 164.028249 153.631655 
L 165.96701 153.916145 
L 167.905771 154.072539 
L 169.844532 154.057705 
L 171.783293 153.828509 
L 173.722054 153.341818 
L 175.660815 152.571624 
L 177.599576 151.581468 
L 183.415859 148.218389 
L 185.354621 147.275579 
L 187.293382 146.575594 
L 191.170904 145.773073 
L 193.109665 145.350843 
L 195.048426 144.69006 
L 196.987187 143.622294 
L 198.925948 141.979116 
L 200.864709 139.611599 
L 202.80347 136.638417 
L 206.680992 130.131213 
L 208.619753 127.231819 
L 210.558514 124.991648 
L 212.497275 123.728015 
L 214.436036 123.666611 
L 216.374797 124.641374 
L 218.313558 126.381552 
L 220.252319 128.616393 
L 224.129841 133.48706 
L 226.068602 135.583977 
L 228.007363 137.253441 
L 229.946124 138.624332 
L 233.823646 141.068948 
L 235.762407 142.441952 
L 237.701168 144.11494 
L 239.639929 146.220856 
L 241.57869 148.713439 
L 249.333734 159.431157 
L 251.272495 161.51377 
L 253.211256 163.095906 
L 255.150017 164.253619 
L 257.088778 165.102571 
L 264.843822 167.722099 
L 266.782583 168.679575 
L 276.476388 173.972807 
L 278.415149 174.652156 
L 280.35391 175.094539 
L 282.292671 175.300313 
L 284.231432 175.270008 
L 286.170193 175.004151 
L 288.108955 174.50327 
L 290.047716 173.767904 
L 291.986477 172.808886 
L 293.925238 171.66666 
L 297.80276 169.015537 
L 303.619043 164.807795 
L 307.496565 162.319277 
L 309.435326 161.244403 
L 311.374087 160.309359 
L 313.312848 159.534326 
L 315.251609 158.939483 
L 317.19037 158.535447 
L 324.945414 157.445057 
L 326.884175 156.888719 
L 328.822936 156.052929 
L 330.761697 154.898881 
L 332.700458 153.492503 
L 336.57798 150.247328 
L 340.455502 146.966537 
L 342.394263 145.511835 
L 346.271785 142.990807 
L 350.149307 140.532199 
L 352.088068 139.152971 
L 354.026829 137.581353 
L 355.96559 135.769175 
L 363.720634 127.931808 
L 365.659395 126.382584 
L 367.598156 125.220072 
L 369.536917 124.521532 
L 371.475678 124.297302 
L 373.414439 124.549885 
L 375.3532 125.281784 
L 377.291961 126.495502 
L 379.230722 128.193543 
L 381.169483 130.374314 
L 383.108244 132.97491 
L 386.985766 138.99398 
L 392.80205 148.397601 
L 394.740811 151.198412 
L 396.679572 153.716724 
L 398.618333 155.920384 
L 400.557094 157.77724 
L 402.495855 159.255137 
L 404.434616 160.321925 
L 406.373377 160.946346 
L 408.312138 161.160678 
L 410.250899 161.101719 
L 414.128421 160.750065 
L 416.067182 160.750436 
L 418.005943 161.063651 
L 419.944704 161.82058 
L 421.883465 162.970006 
L 427.699748 167.078507 
L 429.638509 168.099245 
L 431.57727 168.661185 
L 433.516031 168.639422 
L 435.454792 168.080251 
L 437.393553 167.07 
L 439.332314 165.694999 
L 441.271075 164.041579 
L 445.148597 160.244136 
L 452.903641 152.075426 
L 458.719924 145.932302 
L 462.597446 142.104873 
L 464.536207 140.380398 
L 466.474968 138.835185 
L 468.413729 137.509057 
L 470.35249 136.441827 
L 472.291251 135.6467 
L 474.230012 135.055214 
L 480.046295 133.661767 
L 481.985056 133.044013 
L 483.923817 132.211763 
L 485.862578 131.152298 
L 489.7401 128.624795 
L 493.617623 126.029882 
L 495.556384 124.886157 
L 497.495145 123.930973 
L 499.433906 123.156919 
L 503.311428 121.997619 
L 513.005233 119.638369 
L 524.637799 116.307127 
L 526.57656 115.950168 
L 528.515321 115.827271 
L 530.454082 116.026214 
L 532.392843 116.634775 
L 534.331604 117.740732 
L 536.270365 119.407217 
L 538.209126 121.549703 
L 540.147887 124.028912 
L 545.96417 132.093185 
L 547.902931 134.525894 
L 549.9125 136.713742 
L 549.9125 136.713742 
" clip-path="url(#p6e51589333)" style="fill: none; stroke: #bd6360; stroke-width: 1.2; stroke-linecap: square"/>
   </g>
   <g id="line2d_48">
    <path d="M 32.1925 147.935 
L 34.131261 147.93525 
L 36.070022 147.748131 
L 38.008783 147.400773 
L 41.886305 146.333864 
L 45.763827 144.951568 
L 51.58011 142.761563 
L 55.457632 141.540378 
L 57.396393 141.082823 
L 61.273915 140.534988 
L 65.151437 140.146344 
L 67.090198 139.856764 
L 69.028959 139.420964 
L 70.96772 138.776915 
L 72.906481 137.889128 
L 76.784003 135.606155 
L 82.600286 131.952726 
L 84.539048 130.950328 
L 86.477809 130.144818 
L 88.41657 129.548648 
L 90.355331 129.172382 
L 92.294092 129.026582 
L 94.232853 129.121813 
L 96.171614 129.468638 
L 98.110375 130.070914 
L 100.049136 130.879244 
L 107.80418 134.675669 
L 109.742941 135.390851 
L 111.681702 135.892189 
L 113.620463 136.214021 
L 117.497985 136.509727 
L 123.314268 136.796696 
L 127.19179 137.274772 
L 140.763117 139.358813 
L 154.334444 141.0727 
L 162.089488 141.994284 
L 165.96701 142.252903 
L 169.844532 142.244256 
L 173.722054 141.85792 
L 181.477098 140.449954 
L 183.415859 140.375071 
L 185.354621 140.571861 
L 187.293382 141.119587 
L 191.170904 142.889381 
L 193.109665 143.56767 
L 195.048426 143.72974 
L 196.987187 143.091728 
L 198.925948 141.369775 
L 200.864709 138.308318 
L 202.80347 134.040071 
L 204.742231 128.979638 
L 208.619753 118.165966 
L 210.558514 113.2546 
L 212.497275 109.234796 
L 214.436036 106.415093 
L 216.374797 104.623422 
L 218.313558 103.559289 
L 220.252319 102.922194 
L 222.19108 102.411642 
L 224.129841 101.727135 
L 226.068602 100.571637 
L 228.007363 98.855868 
L 233.823646 92.785121 
L 235.762407 91.321855 
L 237.701168 90.572813 
L 239.639929 90.770646 
L 241.57869 91.849713 
L 243.517451 93.563053 
L 249.333734 100.013483 
L 251.272495 101.768694 
L 253.211256 102.986637 
L 255.150017 103.760195 
L 257.088778 104.240513 
L 260.9663 104.926017 
L 262.905061 105.433495 
L 264.843822 106.250685 
L 266.782583 107.463586 
L 268.721344 109.07569 
L 270.660105 111.084976 
L 272.598866 113.489422 
L 274.537627 116.287006 
L 276.476388 119.475707 
L 278.415149 123.040324 
L 284.231432 134.482707 
L 286.170193 137.928925 
L 288.108955 140.882256 
L 290.047716 143.157417 
L 291.986477 144.647077 
L 293.925238 145.468122 
L 295.863999 145.777509 
L 297.80276 145.732193 
L 303.619043 145.033855 
L 307.496565 145.125351 
L 311.374087 145.382837 
L 313.312848 145.413306 
L 315.251609 145.292647 
L 317.19037 144.964317 
L 319.129131 144.424551 
L 321.067892 143.691802 
L 323.006653 142.7846 
L 324.945414 141.721477 
L 328.822936 139.201491 
L 330.761697 137.75299 
L 332.700458 136.097692 
L 334.639219 134.147996 
L 336.57798 131.816301 
L 338.516741 129.015007 
L 340.455502 125.656514 
L 342.394263 121.662941 
L 346.271785 112.403699 
L 348.210546 107.725305 
L 350.149307 103.410251 
L 352.088068 99.755433 
L 354.026829 97.057743 
L 355.96559 95.536262 
L 357.904351 94.974652 
L 359.843112 95.005206 
L 361.781873 95.260067 
L 363.720634 95.371373 
L 365.659395 94.971268 
L 367.598156 93.693367 
L 369.536917 91.360196 
L 371.475678 88.166813 
L 373.414439 84.351875 
L 381.169483 67.644545 
L 383.108244 64.208224 
L 385.047005 61.350991 
L 386.985766 59.166937 
L 388.924528 57.750154 
L 390.863289 57.194732 
L 392.80205 57.594762 
L 394.740811 59.000837 
L 396.679572 61.264707 
L 398.618333 64.181336 
L 400.557094 67.545685 
L 406.373377 78.276273 
L 410.250899 84.568129 
L 414.128421 90.701254 
L 416.067182 93.99924 
L 418.005943 97.606679 
L 419.944704 101.62574 
L 423.822226 110.539979 
L 427.699748 119.484427 
L 429.638509 123.539475 
L 431.57727 127.087868 
L 433.516031 130.002658 
L 435.454792 132.323248 
L 437.393553 134.127947 
L 439.332314 135.495063 
L 441.271075 136.502904 
L 443.209836 137.229778 
L 445.148597 137.753438 
L 447.087358 138.126869 
L 449.026119 138.368945 
L 452.903641 138.524578 
L 456.781163 138.351435 
L 462.597446 137.746838 
L 472.291251 136.640025 
L 478.107534 135.99755 
L 481.985056 135.201385 
L 483.923817 134.607943 
L 487.801339 133.05625 
L 493.617623 130.451858 
L 497.495145 129.027282 
L 501.372667 128.023557 
L 507.18895 126.918909 
L 514.943994 125.564211 
L 516.882755 125.417194 
L 518.821516 125.445957 
L 520.760277 125.700428 
L 522.699038 126.225848 
L 528.515321 128.453617 
L 530.454082 128.881411 
L 532.392843 128.883771 
L 534.331604 128.299877 
L 536.270365 127.007309 
L 538.209126 125.113744 
L 540.147887 122.812176 
L 545.96417 115.390776 
L 547.902931 113.388064 
L 549.9125 111.828714 
L 549.9125 111.828714 
" clip-path="url(#p6e51589333)" style="fill: none; stroke: #638fb3; stroke-width: 1.2; stroke-linecap: square"/>
   </g>
   <g id="line2d_49">
    <path d="M 32.1925 147.935 
L 34.131261 148.001061 
L 36.070022 147.781599 
L 38.008783 147.30864 
L 39.947544 146.614207 
L 41.886305 145.730327 
L 45.763827 143.522325 
L 49.641349 140.940834 
L 55.457632 136.928749 
L 59.335154 134.531289 
L 63.212676 132.48984 
L 74.845242 126.802652 
L 76.784003 125.326612 
L 78.722764 123.357411 
L 80.661525 120.742789 
L 82.600286 117.330482 
L 84.539048 112.974685 
L 86.477809 107.750431 
L 92.294092 90.389565 
L 94.232853 85.247198 
L 96.171614 81.030771 
L 98.110375 78.071674 
L 100.049136 76.45674 
L 101.987897 76.156173 
L 103.926658 77.139463 
L 105.865419 79.376096 
L 107.80418 82.83556 
L 109.742941 87.487201 
L 111.681702 93.213177 
L 115.559224 106.436964 
L 117.497985 113.150324 
L 119.436746 119.408362 
L 121.375507 124.818851 
L 123.314268 129.001857 
L 125.253029 131.875429 
L 127.19179 133.664366 
L 129.130551 134.60751 
L 131.069312 134.943702 
L 133.008073 134.911786 
L 136.885595 134.672508 
L 140.763117 134.867633 
L 144.640639 135.364564 
L 152.395683 136.48773 
L 156.273205 136.840668 
L 160.150727 136.93725 
L 164.028249 136.702953 
L 167.905771 136.141806 
L 171.783293 135.295303 
L 175.660815 134.208618 
L 181.477098 132.477274 
L 185.354621 131.6297 
L 189.232143 131.271073 
L 191.170904 131.123533 
L 193.109665 130.806587 
L 195.048426 130.174362 
L 196.987187 129.080987 
L 198.925948 127.380588 
L 200.864709 124.942055 
L 202.80347 121.836828 
L 206.680992 114.503562 
L 210.558514 107.151849 
L 212.497275 104.023563 
L 214.436036 101.5077 
L 216.374797 99.570956 
L 218.313558 98.124782 
L 220.252319 97.080627 
L 222.19108 96.349941 
L 224.129841 95.844172 
L 228.007363 95.206951 
L 229.946124 95.079015 
L 231.884885 95.139345 
L 233.823646 95.435483 
L 235.762407 96.014972 
L 237.701168 96.925355 
L 239.639929 98.206842 
L 241.57869 99.820933 
L 243.517451 101.681287 
L 253.211256 111.663318 
L 259.027539 116.845681 
L 260.9663 118.75397 
L 262.905061 120.888556 
L 264.843822 123.32902 
L 266.782583 126.079256 
L 270.660105 132.124766 
L 274.537627 138.223677 
L 276.476388 141.040665 
L 278.415149 143.57604 
L 280.35391 145.805428 
L 282.292671 147.739241 
L 284.231432 149.388162 
L 286.170193 150.762873 
L 288.108955 151.874059 
L 290.047716 152.732409 
L 291.986477 153.355222 
L 293.925238 153.77881 
L 295.863999 154.042885 
L 299.741521 154.251335 
L 309.435326 154.298409 
L 313.312848 153.980883 
L 315.251609 153.646007 
L 317.19037 153.161254 
L 319.129131 152.526219 
L 321.067892 151.750223 
L 324.945414 149.812768 
L 328.822936 147.423759 
L 334.639219 143.314242 
L 338.516741 140.646041 
L 340.455502 139.44955 
L 342.394263 138.395121 
L 344.333024 137.494284 
L 346.271785 136.734847 
L 350.149307 135.58789 
L 354.026829 134.849689 
L 357.904351 134.422359 
L 361.781873 134.239579 
L 365.659395 134.244346 
L 371.475678 134.374187 
L 373.414439 134.273562 
L 375.3532 133.997555 
L 377.291961 133.483708 
L 379.230722 132.669566 
L 381.169483 131.495696 
L 383.108244 129.9479 
L 385.047005 128.046799 
L 386.985766 125.813914 
L 388.924528 123.270763 
L 390.863289 120.438865 
L 392.80205 117.339738 
L 400.557094 104.090031 
L 402.495855 101.31948 
L 404.434616 99.077976 
L 406.373377 97.520563 
L 408.312138 96.724257 
L 410.250899 96.637705 
L 412.18966 97.197594 
L 414.128421 98.340612 
L 416.067182 100.003449 
L 418.005943 102.122792 
L 419.944704 104.633863 
L 421.883465 107.454834 
L 425.760987 113.654991 
L 429.638509 119.979367 
L 431.57727 122.955613 
L 433.516031 125.700619 
L 435.454792 128.200729 
L 437.393553 130.456934 
L 439.332314 132.470222 
L 441.271075 134.241584 
L 443.209836 135.772009 
L 445.148597 137.062732 
L 447.087358 138.125877 
L 449.026119 138.988565 
L 450.96488 139.679014 
L 452.903641 140.225438 
L 456.781163 140.999076 
L 460.658685 141.513277 
L 464.536207 141.84044 
L 470.35249 142.032265 
L 474.230012 141.960981 
L 478.107534 141.596618 
L 480.046295 141.25544 
L 481.985056 140.782083 
L 483.923817 140.157831 
L 487.801339 138.52591 
L 495.556384 134.927913 
L 499.433906 133.590428 
L 503.311428 132.584337 
L 514.943994 129.860736 
L 520.760277 128.532498 
L 526.57656 127.390904 
L 528.515321 126.798956 
L 530.454082 125.954948 
L 532.392843 124.770873 
L 534.331604 123.158721 
L 536.270365 121.055597 
L 538.209126 118.549071 
L 542.086648 112.899353 
L 545.96417 107.3571 
L 547.902931 104.984619 
L 549.9125 102.965681 
L 549.9125 102.965681 
" clip-path="url(#p6e51589333)" style="fill: none; stroke: #c98d65; stroke-width: 1.2; stroke-linecap: square"/>
   </g>
   <g id="patch_4">
    <path d="M 27.1925 203.375 
L 27.1925 37.055 
" style="fill: none; stroke: #cccccc; stroke-width: 0.75; stroke-linejoin: miter; stroke-linecap: square"/>
   </g>
   <g id="patch_5">
    <path d="M 32.1925 208.375 
L 534.3925 208.375 
" style="fill: none; stroke: #cccccc; stroke-width: 0.75; stroke-linejoin: miter; stroke-linecap: square"/>
   </g>
   <g id="legend_1">
    <g id="line2d_50">
     <path d="M 39.3925 13.86375 
L 44.7925 13.86375 
L 50.1925 13.86375 
" style="fill: none; stroke-dasharray: 5.55,2.4; stroke-dashoffset: 0; stroke: #4f4f4f; stroke-width: 1.5"/>
    </g>
    <g id="text_26">
     <!-- Овощи (средняя цена у производителей) -->
     <g style="fill: #4b4b4b" transform="translate(56.5925 16.66375) scale(0.08 -0.08)">
      <defs>
       <path id="Ubuntu-43e" d="M 3450 1664 
Q 3450 1267 3334 947 
Q 3219 627 3011 396 
Q 2803 166 2515 41 
Q 2227 -83 1888 -83 
Q 1549 -83 1261 41 
Q 973 166 765 396 
Q 557 627 441 947 
Q 326 1267 326 1664 
Q 326 2054 441 2377 
Q 557 2701 765 2931 
Q 973 3162 1261 3286 
Q 1549 3411 1888 3411 
Q 2227 3411 2515 3286 
Q 2803 3162 3011 2931 
Q 3219 2701 3334 2377 
Q 3450 2054 3450 1664 
z
M 2829 1664 
Q 2829 2227 2576 2556 
Q 2323 2886 1888 2886 
Q 1453 2886 1200 2556 
Q 947 2227 947 1664 
Q 947 1101 1200 771 
Q 1453 442 1888 442 
Q 2323 442 2576 771 
Q 2829 1101 2829 1664 
z
" transform="scale(0.015625)"/>
       <path id="Ubuntu-449" d="M 512 0 
L 512 3328 
L 1107 3328 
L 1107 493 
L 2336 493 
L 2336 3328 
L 2931 3328 
L 2931 493 
L 4160 493 
L 4160 3328 
L 4755 3328 
L 4755 493 
L 5203 493 
L 5203 -928 
L 4640 -928 
L 4640 0 
L 512 0 
z
" transform="scale(0.015625)"/>
       <path id="Ubuntu-438" d="M 3309 3328 
L 3309 0 
L 2733 0 
L 2733 2534 
Q 2541 2291 2310 1964 
Q 2080 1638 1849 1289 
Q 1619 941 1408 601 
Q 1197 262 1043 0 
L 512 0 
L 512 3328 
L 1088 3328 
L 1088 934 
Q 1254 1210 1465 1539 
Q 1677 1869 1904 2192 
Q 2131 2515 2358 2812 
Q 2586 3110 2784 3328 
L 3309 3328 
z
" transform="scale(0.015625)"/>
       <path id="Ubuntu-20" transform="scale(0.015625)"/>
       <path id="Ubuntu-28" d="M 1094 1914 
Q 1094 1094 1331 396 
Q 1568 -301 2029 -896 
L 1606 -1184 
Q 1107 -576 803 214 
Q 499 1005 499 1914 
Q 499 2822 803 3612 
Q 1107 4403 1606 5011 
L 2029 4723 
Q 1568 4128 1331 3430 
Q 1094 2733 1094 1914 
z
" transform="scale(0.015625)"/>
       <path id="Ubuntu-441" d="M 1958 -77 
Q 1555 -77 1251 51 
Q 947 179 739 409 
Q 531 640 428 957 
Q 326 1274 326 1658 
Q 326 2042 438 2362 
Q 550 2682 755 2915 
Q 960 3149 1257 3280 
Q 1555 3411 1920 3411 
Q 2144 3411 2368 3372 
Q 2592 3334 2797 3251 
L 2662 2746 
Q 2528 2810 2352 2848 
Q 2176 2886 1978 2886 
Q 1478 2886 1212 2572 
Q 947 2259 947 1658 
Q 947 1389 1008 1165 
Q 1069 941 1200 781 
Q 1331 621 1536 534 
Q 1741 448 2035 448 
Q 2272 448 2464 493 
Q 2656 538 2765 589 
L 2848 90 
Q 2797 58 2701 29 
Q 2605 0 2483 -22 
Q 2362 -45 2224 -61 
Q 2086 -77 1958 -77 
z
" transform="scale(0.015625)"/>
       <path id="Ubuntu-435" d="M 326 1658 
Q 326 2099 454 2428 
Q 582 2758 793 2976 
Q 1005 3194 1280 3302 
Q 1555 3411 1843 3411 
Q 2515 3411 2873 2992 
Q 3232 2573 3232 1715 
Q 3232 1677 3232 1616 
Q 3232 1555 3226 1504 
L 947 1504 
Q 986 986 1248 717 
Q 1510 448 2067 448 
Q 2381 448 2595 502 
Q 2810 557 2918 608 
L 3002 109 
Q 2893 51 2621 -13 
Q 2349 -77 2003 -77 
Q 1568 -77 1251 54 
Q 934 186 729 416 
Q 525 646 425 963 
Q 326 1280 326 1658 
z
M 2611 1984 
Q 2618 2387 2410 2646 
Q 2202 2906 1837 2906 
Q 1632 2906 1475 2826 
Q 1318 2746 1209 2618 
Q 1101 2490 1040 2323 
Q 979 2157 960 1984 
L 2611 1984 
z
" transform="scale(0.015625)"/>
       <path id="Ubuntu-434" d="M 102 486 
L 461 486 
Q 672 794 797 1120 
Q 922 1446 986 1795 
Q 1050 2144 1069 2525 
Q 1088 2906 1094 3328 
L 3277 3328 
L 3277 486 
L 3725 486 
L 3725 -928 
L 3162 -928 
L 3162 0 
L 666 0 
L 666 -928 
L 102 -928 
L 102 486 
z
M 2682 486 
L 2682 2829 
L 1638 2829 
Q 1632 2528 1606 2224 
Q 1581 1920 1523 1622 
Q 1466 1325 1360 1040 
Q 1254 755 1094 486 
L 2682 486 
z
" transform="scale(0.015625)"/>
       <path id="Ubuntu-44f" d="M 1888 1293 
Q 1792 1293 1702 1296 
Q 1613 1299 1530 1306 
Q 1325 998 1136 649 
Q 947 301 800 0 
L 198 0 
Q 275 186 377 381 
Q 480 576 585 761 
Q 691 947 800 1113 
Q 909 1280 1005 1414 
Q 826 1478 710 1571 
Q 595 1664 524 1779 
Q 454 1894 425 2025 
Q 397 2157 397 2291 
Q 397 2573 502 2784 
Q 608 2995 793 3132 
Q 979 3270 1232 3340 
Q 1485 3411 1786 3411 
Q 2208 3411 2502 3372 
Q 2797 3334 2995 3283 
L 2995 0 
L 2406 0 
L 2406 1293 
L 1888 1293 
z
M 2406 2886 
Q 2336 2899 2173 2912 
Q 2010 2925 1798 2925 
Q 1434 2925 1210 2774 
Q 986 2624 986 2298 
Q 986 1978 1216 1856 
Q 1446 1734 1811 1734 
L 2406 1734 
L 2406 2886 
z
" transform="scale(0.015625)"/>
       <path id="Ubuntu-446" d="M 3168 493 
L 3616 493 
L 3616 -928 
L 3053 -928 
L 3053 0 
L 512 0 
L 512 3328 
L 1107 3328 
L 1107 493 
L 2573 493 
L 2573 3328 
L 3168 3328 
L 3168 493 
z
" transform="scale(0.015625)"/>
       <path id="Ubuntu-430" d="M 1638 429 
Q 1850 429 2013 438 
Q 2176 448 2285 474 
L 2285 1466 
Q 2221 1498 2077 1520 
Q 1933 1542 1728 1542 
Q 1594 1542 1443 1523 
Q 1293 1504 1168 1443 
Q 1043 1382 960 1276 
Q 877 1171 877 998 
Q 877 678 1081 553 
Q 1286 429 1638 429 
z
M 1587 3411 
Q 1946 3411 2192 3318 
Q 2438 3226 2588 3056 
Q 2739 2886 2803 2652 
Q 2867 2419 2867 2138 
L 2867 58 
Q 2790 45 2652 22 
Q 2515 0 2342 -19 
Q 2170 -38 1968 -54 
Q 1766 -70 1568 -70 
Q 1286 -70 1049 -12 
Q 813 45 640 169 
Q 467 294 371 499 
Q 275 704 275 992 
Q 275 1267 387 1465 
Q 499 1664 691 1785 
Q 883 1907 1139 1964 
Q 1395 2022 1677 2022 
Q 1766 2022 1862 2012 
Q 1958 2003 2044 1987 
Q 2131 1971 2195 1958 
Q 2259 1946 2285 1939 
L 2285 2106 
Q 2285 2253 2253 2397 
Q 2221 2541 2137 2653 
Q 2054 2765 1910 2832 
Q 1766 2899 1536 2899 
Q 1242 2899 1021 2857 
Q 800 2816 691 2771 
L 621 3264 
Q 736 3315 1005 3363 
Q 1274 3411 1587 3411 
z
" transform="scale(0.015625)"/>
       <path id="Ubuntu-443" d="M 122 -621 
Q 192 -653 304 -681 
Q 416 -710 525 -710 
Q 877 -710 1075 -553 
Q 1274 -397 1434 -45 
Q 1030 723 681 1584 
Q 333 2445 102 3328 
L 742 3328 
Q 813 3040 912 2707 
Q 1011 2374 1132 2022 
Q 1254 1670 1395 1318 
Q 1536 966 1690 640 
Q 1933 1312 2112 1971 
Q 2291 2630 2451 3328 
L 3066 3328 
Q 2835 2387 2553 1520 
Q 2272 653 1946 -102 
Q 1818 -390 1680 -598 
Q 1542 -806 1376 -940 
Q 1210 -1075 1002 -1139 
Q 794 -1203 531 -1203 
Q 461 -1203 384 -1193 
Q 307 -1184 233 -1168 
Q 160 -1152 99 -1133 
Q 38 -1114 13 -1101 
L 122 -621 
z
" transform="scale(0.015625)"/>
       <path id="Ubuntu-437" d="M 1357 3411 
Q 1645 3411 1894 3353 
Q 2144 3296 2323 3181 
Q 2502 3066 2604 2893 
Q 2707 2720 2707 2490 
Q 2707 2342 2656 2220 
Q 2605 2099 2528 2003 
Q 2451 1907 2358 1840 
Q 2266 1773 2182 1747 
Q 2477 1658 2646 1430 
Q 2816 1203 2816 858 
Q 2816 384 2432 153 
Q 2048 -77 1389 -77 
Q 986 -77 694 -13 
Q 403 51 282 109 
L 384 614 
Q 486 576 752 509 
Q 1018 442 1389 442 
Q 1792 442 2003 566 
Q 2214 691 2214 941 
Q 2214 1120 2134 1232 
Q 2054 1344 1932 1401 
Q 1811 1459 1670 1478 
Q 1530 1498 1408 1498 
L 851 1498 
L 851 1971 
L 1389 1971 
Q 1504 1971 1629 1987 
Q 1754 2003 1859 2054 
Q 1965 2106 2035 2198 
Q 2106 2291 2106 2445 
Q 2106 2566 2045 2652 
Q 1984 2739 1881 2796 
Q 1779 2854 1641 2883 
Q 1504 2912 1357 2912 
Q 1242 2912 1107 2893 
Q 973 2874 845 2845 
Q 717 2816 614 2784 
Q 512 2752 467 2726 
L 358 3238 
Q 410 3258 518 3290 
Q 627 3322 764 3347 
Q 902 3373 1056 3392 
Q 1210 3411 1357 3411 
z
" transform="scale(0.015625)"/>
       <path id="Ubuntu-439" d="M 3309 3328 
L 3309 0 
L 2733 0 
L 2733 2534 
Q 2541 2291 2310 1964 
Q 2080 1638 1849 1289 
Q 1619 941 1408 601 
Q 1197 262 1043 0 
L 512 0 
L 512 3328 
L 1088 3328 
L 1088 934 
Q 1254 1210 1465 1539 
Q 1677 1869 1904 2192 
Q 2131 2515 2358 2812 
Q 2586 3110 2784 3328 
L 3309 3328 
z
M 1917 3866 
Q 1514 3866 1261 4070 
Q 1008 4275 957 4640 
L 1411 4762 
Q 1462 4557 1584 4429 
Q 1706 4301 1917 4301 
Q 2128 4301 2249 4429 
Q 2371 4557 2422 4762 
L 2870 4640 
Q 2819 4275 2569 4070 
Q 2320 3866 1917 3866 
z
" transform="scale(0.015625)"/>
       <path id="Ubuntu-29" d="M 979 1914 
Q 979 2733 742 3430 
Q 506 4128 45 4723 
L 467 5011 
Q 966 4403 1270 3612 
Q 1574 2822 1574 1914 
Q 1574 1005 1270 214 
Q 966 -576 467 -1184 
L 45 -896 
Q 506 -301 742 396 
Q 979 1094 979 1914 
z
" transform="scale(0.015625)"/>
      </defs>
      <use xlink:href="#Ubuntu-41e"/>
      <use xlink:href="#Ubuntu-432" x="77.799988"/>
      <use xlink:href="#Ubuntu-43e" x="132.599976"/>
      <use xlink:href="#Ubuntu-449" x="191.59996"/>
      <use xlink:href="#Ubuntu-438" x="274.999954"/>
      <use xlink:href="#Ubuntu-20" x="334.699951"/>
      <use xlink:href="#Ubuntu-28" x="357.799942"/>
      <use xlink:href="#Ubuntu-441" x="390.199936"/>
      <use xlink:href="#Ubuntu-440" x="436.699921"/>
      <use xlink:href="#Ubuntu-435" x="495.599915"/>
      <use xlink:href="#Ubuntu-434" x="551.499908"/>
      <use xlink:href="#Ubuntu-43d" x="611.799896"/>
      <use xlink:href="#Ubuntu-44f" x="670.399887"/>
      <use xlink:href="#Ubuntu-44f" x="725.199875"/>
      <use xlink:href="#Ubuntu-20" x="779.999863"/>
      <use xlink:href="#Ubuntu-446" x="803.099854"/>
      <use xlink:href="#Ubuntu-435" x="861.699844"/>
      <use xlink:href="#Ubuntu-43d" x="917.599838"/>
      <use xlink:href="#Ubuntu-430" x="976.199829"/>
      <use xlink:href="#Ubuntu-20" x="1028.399826"/>
      <use xlink:href="#Ubuntu-443" x="1051.499817"/>
      <use xlink:href="#Ubuntu-20" x="1101.199814"/>
      <use xlink:href="#Ubuntu-43f" x="1124.299805"/>
      <use xlink:href="#Ubuntu-440" x="1182.099792"/>
      <use xlink:href="#Ubuntu-43e" x="1240.999786"/>
      <use xlink:href="#Ubuntu-438" x="1299.999771"/>
      <use xlink:href="#Ubuntu-437" x="1359.699768"/>
      <use xlink:href="#Ubuntu-432" x="1408.599762"/>
      <use xlink:href="#Ubuntu-43e" x="1463.39975"/>
      <use xlink:href="#Ubuntu-434" x="1522.399734"/>
      <use xlink:href="#Ubuntu-438" x="1582.699722"/>
      <use xlink:href="#Ubuntu-442" x="1642.399719"/>
      <use xlink:href="#Ubuntu-435" x="1688.699707"/>
      <use xlink:href="#Ubuntu-43b" x="1744.599701"/>
      <use xlink:href="#Ubuntu-435" x="1804.399689"/>
      <use xlink:href="#Ubuntu-439" x="1860.299683"/>
      <use xlink:href="#Ubuntu-29" x="1919.99968"/>
     </g>
    </g>
    <g id="line2d_51">
     <path d="M 39.3925 25.575 
L 44.7925 25.575 
L 50.1925 25.575 
" style="fill: none; stroke: #886150; stroke-width: 1.2; stroke-linecap: square"/>
    </g>
    <g id="text_27">
     <!-- Картофель -->
     <g style="fill: #4b4b4b" transform="translate(56.5925 28.375) scale(0.08 -0.08)">
      <defs>
       <path id="Ubuntu-41a" d="M 3834 4435 
Q 3635 4218 3385 3952 
Q 3136 3686 2864 3408 
Q 2592 3130 2323 2861 
Q 2054 2592 1818 2362 
Q 2093 2170 2400 1888 
Q 2707 1606 3001 1286 
Q 3296 966 3555 633 
Q 3814 301 3987 0 
L 3258 0 
Q 3066 301 2816 605 
Q 2566 909 2288 1187 
Q 2010 1466 1725 1702 
Q 1440 1939 1171 2106 
L 1171 0 
L 550 0 
L 550 4435 
L 1171 4435 
L 1171 2477 
Q 1395 2688 1664 2953 
Q 1933 3219 2195 3488 
Q 2458 3757 2691 4003 
Q 2925 4250 3085 4435 
L 3834 4435 
z
" transform="scale(0.015625)"/>
       <path id="Ubuntu-444" d="M 928 1664 
Q 928 1382 1021 1164 
Q 1114 947 1280 796 
Q 1446 646 1673 566 
Q 1901 486 2163 480 
L 2163 2848 
Q 1901 2842 1673 2758 
Q 1446 2675 1280 2524 
Q 1114 2374 1021 2156 
Q 928 1939 928 1664 
z
M 2739 480 
Q 3002 486 3229 566 
Q 3456 646 3622 796 
Q 3789 947 3881 1164 
Q 3974 1382 3974 1664 
Q 3974 1939 3881 2156 
Q 3789 2374 3622 2524 
Q 3456 2675 3229 2758 
Q 3002 2842 2739 2848 
L 2739 480 
z
M 2739 -1184 
L 2163 -1184 
L 2163 -19 
Q 1786 -13 1453 102 
Q 1120 218 867 432 
Q 614 646 467 956 
Q 320 1267 320 1664 
Q 320 2061 467 2371 
Q 614 2682 867 2896 
Q 1120 3110 1453 3225 
Q 1786 3341 2163 3347 
L 2163 4864 
L 2739 4966 
L 2739 3347 
Q 3110 3341 3446 3225 
Q 3782 3110 4035 2896 
Q 4288 2682 4435 2371 
Q 4582 2061 4582 1664 
Q 4582 1267 4435 956 
Q 4288 646 4035 432 
Q 3782 218 3446 102 
Q 3110 -13 2739 -19 
L 2739 -1184 
z
" transform="scale(0.015625)"/>
       <path id="Ubuntu-44c" d="M 1773 416 
Q 2150 416 2368 563 
Q 2586 710 2586 1037 
Q 2586 1197 2522 1312 
Q 2458 1427 2346 1500 
Q 2234 1574 2086 1609 
Q 1939 1645 1773 1645 
Q 1600 1645 1417 1635 
Q 1235 1626 1107 1594 
L 1107 448 
Q 1146 442 1222 435 
Q 1299 429 1392 425 
Q 1485 422 1584 419 
Q 1683 416 1773 416 
z
M 512 70 
L 512 3328 
L 1107 3328 
L 1107 2054 
Q 1158 2067 1244 2080 
Q 1331 2093 1430 2105 
Q 1530 2118 1638 2124 
Q 1747 2131 1843 2131 
Q 2118 2131 2361 2070 
Q 2605 2010 2787 1878 
Q 2970 1747 3078 1539 
Q 3187 1331 3187 1043 
Q 3187 742 3084 531 
Q 2982 320 2790 185 
Q 2598 51 2332 -9 
Q 2067 -70 1741 -70 
Q 1421 -70 1113 -35 
Q 806 0 512 70 
z
" transform="scale(0.015625)"/>
      </defs>
      <use xlink:href="#Ubuntu-41a"/>
      <use xlink:href="#Ubuntu-430" x="62.899994"/>
      <use xlink:href="#Ubuntu-440" x="115.099991"/>
      <use xlink:href="#Ubuntu-442" x="173.999985"/>
      <use xlink:href="#Ubuntu-43e" x="220.299973"/>
      <use xlink:href="#Ubuntu-444" x="279.299957"/>
      <use xlink:href="#Ubuntu-435" x="355.899948"/>
      <use xlink:href="#Ubuntu-43b" x="411.799942"/>
      <use xlink:href="#Ubuntu-44c" x="471.59993"/>
     </g>
    </g>
    <g id="line2d_52">
     <path d="M 228.785 13.86375 
L 234.185 13.86375 
L 239.585 13.86375 
" style="fill: none; stroke: #5a9e88; stroke-width: 1.2; stroke-linecap: square"/>
    </g>
    <g id="text_28">
     <!-- Огурцы -->
     <g style="fill: #4b4b4b" transform="translate(245.985 16.66375) scale(0.08 -0.08)">
      <defs>
       <path id="Ubuntu-433" d="M 2573 2829 
L 1107 2829 
L 1107 0 
L 512 0 
L 512 3328 
L 2573 3328 
L 2573 2829 
z
" transform="scale(0.015625)"/>
       <path id="Ubuntu-44b" d="M 1734 1645 
Q 1562 1645 1398 1635 
Q 1235 1626 1107 1594 
L 1107 448 
Q 1146 442 1219 435 
Q 1293 429 1379 425 
Q 1466 422 1555 419 
Q 1645 416 1715 416 
Q 2106 416 2317 563 
Q 2528 710 2528 1037 
Q 2528 1197 2461 1312 
Q 2394 1427 2282 1500 
Q 2170 1574 2029 1609 
Q 1888 1645 1734 1645 
z
M 512 3328 
L 1107 3328 
L 1107 2054 
Q 1216 2080 1424 2105 
Q 1632 2131 1824 2131 
Q 2086 2131 2323 2070 
Q 2560 2010 2739 1878 
Q 2918 1747 3024 1539 
Q 3130 1331 3130 1043 
Q 3130 742 3027 531 
Q 2925 320 2739 185 
Q 2554 51 2291 -9 
Q 2029 -70 1715 -70 
Q 1414 -70 1107 -35 
Q 800 0 512 70 
L 512 3328 
z
M 4339 0 
L 3744 0 
L 3744 3328 
L 4339 3328 
L 4339 0 
z
" transform="scale(0.015625)"/>
      </defs>
      <use xlink:href="#Ubuntu-41e"/>
      <use xlink:href="#Ubuntu-433" x="77.799988"/>
      <use xlink:href="#Ubuntu-443" x="121.849976"/>
      <use xlink:href="#Ubuntu-440" x="171.549973"/>
      <use xlink:href="#Ubuntu-446" x="230.449966"/>
      <use xlink:href="#Ubuntu-44b" x="289.049957"/>
     </g>
    </g>
    <g id="line2d_53">
     <path d="M 291.1725 13.86375 
L 296.5725 13.86375 
L 301.9725 13.86375 
" style="fill: none; stroke: #bd6360; stroke-width: 1.2; stroke-linecap: square"/>
    </g>
    <g id="text_29">
     <!-- Помидоры -->
     <g style="fill: #4b4b4b" transform="translate(308.3725 16.66375) scale(0.08 -0.08)">
      <defs>
       <path id="Ubuntu-41f" d="M 3923 4435 
L 3923 0 
L 3302 0 
L 3302 3904 
L 1171 3904 
L 1171 0 
L 550 0 
L 550 4435 
L 3923 4435 
z
" transform="scale(0.015625)"/>
       <path id="Ubuntu-43c" d="M 1146 2451 
Q 1082 1818 1050 1187 
Q 1018 557 998 0 
L 429 0 
Q 442 390 467 816 
Q 493 1242 525 1674 
Q 557 2106 595 2525 
Q 634 2944 678 3328 
L 1222 3328 
Q 1427 2995 1702 2416 
Q 1978 1837 2336 1082 
Q 2694 1837 2969 2416 
Q 3245 2995 3450 3328 
L 4000 3328 
Q 4045 2944 4083 2525 
Q 4122 2106 4154 1674 
Q 4186 1242 4211 816 
Q 4237 390 4250 0 
L 3661 0 
Q 3642 557 3610 1187 
Q 3578 1818 3514 2451 
Q 3411 2253 3276 1974 
Q 3142 1696 3011 1408 
Q 2880 1120 2765 857 
Q 2650 595 2586 442 
L 2086 442 
Q 2016 602 1897 864 
Q 1779 1126 1648 1417 
Q 1517 1709 1382 1987 
Q 1248 2266 1146 2451 
z
" transform="scale(0.015625)"/>
      </defs>
      <use xlink:href="#Ubuntu-41f"/>
      <use xlink:href="#Ubuntu-43e" x="69.899994"/>
      <use xlink:href="#Ubuntu-43c" x="128.899979"/>
      <use xlink:href="#Ubuntu-438" x="201.999969"/>
      <use xlink:href="#Ubuntu-434" x="261.699966"/>
      <use xlink:href="#Ubuntu-43e" x="321.999954"/>
      <use xlink:href="#Ubuntu-440" x="380.999939"/>
      <use xlink:href="#Ubuntu-44b" x="439.899933"/>
     </g>
    </g>
    <g id="line2d_54">
     <path d="M 365.62875 13.86375 
L 371.02875 13.86375 
L 376.42875 13.86375 
" style="fill: none; stroke: #638fb3; stroke-width: 1.2; stroke-linecap: square"/>
    </g>
    <g id="text_30">
     <!-- Лук -->
     <g style="fill: #4b4b4b" transform="translate(382.82875 16.66375) scale(0.08 -0.08)">
      <defs>
       <path id="Ubuntu-41b" d="M 2067 3904 
Q 2054 3546 2041 3210 
Q 2029 2874 2003 2557 
Q 1978 2240 1926 1939 
Q 1875 1638 1786 1350 
Q 1696 1062 1565 809 
Q 1434 557 1238 368 
Q 1043 179 777 64 
Q 512 -51 154 -64 
L 83 474 
Q 531 525 777 755 
Q 1024 986 1184 1459 
Q 1363 1997 1411 2755 
Q 1459 3514 1459 4435 
L 3974 4435 
L 3974 0 
L 3354 0 
L 3354 3904 
L 2067 3904 
z
" transform="scale(0.015625)"/>
      </defs>
      <use xlink:href="#Ubuntu-41b"/>
      <use xlink:href="#Ubuntu-443" x="70.699982"/>
      <use xlink:href="#Ubuntu-43a" x="120.399979"/>
     </g>
    </g>
    <g id="line2d_55">
     <path d="M 412.7575 13.86375 
L 418.1575 13.86375 
L 423.5575 13.86375 
" style="fill: none; stroke: #c98d65; stroke-width: 1.2; stroke-linecap: square"/>
    </g>
    <g id="text_31">
     <!-- Морковь -->
     <g style="fill: #4b4b4b" transform="translate(429.9575 16.66375) scale(0.08 -0.08)">
      <defs>
       <path id="Ubuntu-41c" d="M 2541 614 
Q 2477 768 2371 1005 
Q 2266 1242 2144 1517 
Q 2022 1792 1884 2083 
Q 1747 2374 1625 2633 
Q 1504 2893 1398 3097 
Q 1293 3302 1229 3411 
Q 1158 2656 1113 1776 
Q 1069 896 1037 0 
L 429 0 
Q 454 576 486 1161 
Q 518 1747 560 2313 
Q 602 2880 650 3417 
Q 698 3955 755 4435 
L 1299 4435 
Q 1472 4154 1670 3770 
Q 1869 3386 2067 2966 
Q 2266 2547 2451 2128 
Q 2637 1709 2790 1363 
Q 2944 1709 3129 2128 
Q 3315 2547 3513 2966 
Q 3712 3386 3910 3770 
Q 4109 4154 4282 4435 
L 4826 4435 
Q 5043 2291 5152 0 
L 4544 0 
Q 4512 896 4467 1776 
Q 4422 2656 4352 3411 
Q 4288 3302 4182 3097 
Q 4077 2893 3955 2633 
Q 3834 2374 3696 2083 
Q 3558 1792 3436 1517 
Q 3315 1242 3209 1005 
Q 3104 768 3040 614 
L 2541 614 
z
" transform="scale(0.015625)"/>
      </defs>
      <use xlink:href="#Ubuntu-41c"/>
      <use xlink:href="#Ubuntu-43e" x="87.099991"/>
      <use xlink:href="#Ubuntu-440" x="146.099976"/>
      <use xlink:href="#Ubuntu-43a" x="204.999969"/>
      <use xlink:href="#Ubuntu-43e" x="255.824966"/>
      <use xlink:href="#Ubuntu-432" x="314.824951"/>
      <use xlink:href="#Ubuntu-44c" x="369.624939"/>
     </g>
    </g>
   </g>
  </g>
 </g>
 <defs>
  <clipPath id="p6e51589333">
   <rect x="32.1925" y="37.055" width="502.2" height="166.32"/>
  </clipPath>
  <clipPath id="pb30c128efa">
   <rect x="32.1925" y="203.375" width="502.2" height="0"/>
  </clipPath>
 </defs>
</svg>
