<?xml version="1.0" encoding="utf-8" standalone="no"?>
<!DOCTYPE svg PUBLIC "-//W3C//DTD SVG 1.1//EN"
  "http://www.w3.org/Graphics/SVG/1.1/DTD/svg11.dtd">
<svg xmlns:xlink="http://www.w3.org/1999/xlink" width="653.142656pt" height="240.845937pt" viewBox="0 0 653.142656 240.845937" xmlns="http://www.w3.org/2000/svg" version="1.1">
 <metadata>
  <rdf:RDF xmlns:dc="http://purl.org/dc/elements/1.1/" xmlns:cc="http://creativecommons.org/ns#" xmlns:rdf="http://www.w3.org/1999/02/22-rdf-syntax-ns#">
   <cc:Work>
    <dc:type rdf:resource="http://purl.org/dc/dcmitype/StillImage"/>
    <dc:date>2024-04-19T19:32:27.036239</dc:date>
    <dc:format>image/svg+xml</dc:format>
    <dc:creator>
     <cc:Agent>
      <dc:title>Matplotlib v3.8.0, https://matplotlib.org/</dc:title>
     </cc:Agent>
    </dc:creator>
   </cc:Work>
  </rdf:RDF>
 </metadata>
 <defs>
  <style type="text/css">*{stroke-linejoin: round; stroke-linecap: butt}</style>
 </defs>
 <g id="figure_1">
  <g id="patch_1">
   <path d="M 0 240.845937 
L 653.142656 240.845937 
L 653.142656 0 
L 0 0 
L 0 240.845937 
z
" style="fill: none"/>
  </g>
  <g id="axes_1">
   <g id="patch_2">
    <path d="M 37.1925 193.958438 
L 539.3925 193.958438 
L 539.3925 27.638438 
L 37.1925 27.638438 
L 37.1925 193.958438 
z
" style="fill: none"/>
   </g>
   <g id="axes_2">
    <g id="patch_3">
     <path d="M 37.1925 193.958438 
L 539.3925 193.958438 
L 539.3925 193.958437 
L 37.1925 193.958437 
L 37.1925 193.958438 
z
" style="fill: none"/>
    </g>
    <g id="matplotlib.axis_1">
     <g id="xtick_1">
      <g id="line2d_1">
       <path d="M 37.1925 193.958438 
L 37.1925 193.958437 
" clip-path="url(#p445346811f)" style="fill: none; stroke-dasharray: 0.5,0.825; stroke-dashoffset: 0; stroke: #d9d9d9; stroke-width: 0.5"/>
      </g>
      <g id="text_1">
       <!-- 2021 -->
       <g style="fill: #808080" transform="translate(28.1675 232.165937) scale(0.08 -0.08)">
        <defs>
         <path id="Ubuntu-32" d="M 2989 3302 
Q 2989 3072 2896 2857 
Q 2803 2643 2649 2435 
Q 2496 2227 2304 2025 
Q 2112 1824 1920 1632 
Q 1811 1523 1667 1376 
Q 1523 1229 1395 1069 
Q 1267 909 1180 761 
Q 1094 614 1094 506 
L 3136 506 
L 3136 0 
L 448 0 
Q 442 38 442 76 
Q 442 115 442 147 
Q 442 448 541 707 
Q 640 966 800 1196 
Q 960 1427 1158 1632 
Q 1357 1837 1549 2029 
Q 1709 2182 1853 2332 
Q 1997 2483 2109 2633 
Q 2221 2784 2288 2944 
Q 2355 3104 2355 3283 
Q 2355 3475 2294 3609 
Q 2234 3744 2131 3833 
Q 2029 3923 1891 3964 
Q 1754 4006 1600 4006 
Q 1414 4006 1260 3955 
Q 1107 3904 985 3837 
Q 864 3770 781 3696 
Q 698 3622 653 3584 
L 358 4006 
Q 416 4070 531 4163 
Q 646 4256 806 4339 
Q 966 4422 1164 4480 
Q 1363 4538 1594 4538 
Q 2291 4538 2640 4214 
Q 2989 3891 2989 3302 
z
" transform="scale(0.015625)"/>
         <path id="Ubuntu-30" d="M 320 2221 
Q 320 3334 713 3936 
Q 1107 4538 1805 4538 
Q 2502 4538 2896 3936 
Q 3290 3334 3290 2221 
Q 3290 1107 2896 505 
Q 2502 -96 1805 -96 
Q 1107 -96 713 505 
Q 320 1107 320 2221 
z
M 2662 2221 
Q 2662 2586 2620 2912 
Q 2579 3238 2480 3481 
Q 2381 3725 2214 3869 
Q 2048 4013 1805 4013 
Q 1562 4013 1395 3869 
Q 1229 3725 1129 3481 
Q 1030 3238 988 2912 
Q 947 2586 947 2221 
Q 947 1856 988 1529 
Q 1030 1203 1129 960 
Q 1229 717 1395 573 
Q 1562 429 1805 429 
Q 2048 429 2214 573 
Q 2381 717 2480 960 
Q 2579 1203 2620 1529 
Q 2662 1856 2662 2221 
z
" transform="scale(0.015625)"/>
         <path id="Ubuntu-31" d="M 595 3520 
Q 960 3661 1305 3881 
Q 1651 4102 1939 4435 
L 2362 4435 
L 2362 0 
L 1766 0 
L 1766 3610 
Q 1690 3539 1578 3462 
Q 1466 3386 1334 3315 
Q 1203 3245 1059 3181 
Q 915 3117 781 3072 
L 595 3520 
z
" transform="scale(0.015625)"/>
        </defs>
        <use xlink:href="#Ubuntu-32"/>
        <use xlink:href="#Ubuntu-30" x="56.399994"/>
        <use xlink:href="#Ubuntu-32" x="112.799988"/>
        <use xlink:href="#Ubuntu-31" x="169.199982"/>
       </g>
      </g>
     </g>
     <g id="xtick_2">
      <g id="line2d_2">
       <path d="M 191.748149 193.958438 
L 191.748149 193.958437 
" clip-path="url(#p445346811f)" style="fill: none; stroke-dasharray: 0.5,0.825; stroke-dashoffset: 0; stroke: #d9d9d9; stroke-width: 0.5"/>
      </g>
      <g id="text_2">
       <!-- 2022 -->
       <g style="fill: #808080" transform="translate(182.723149 232.165937) scale(0.08 -0.08)">
        <use xlink:href="#Ubuntu-32"/>
        <use xlink:href="#Ubuntu-30" x="56.399994"/>
        <use xlink:href="#Ubuntu-32" x="112.799988"/>
        <use xlink:href="#Ubuntu-32" x="169.199982"/>
       </g>
      </g>
     </g>
     <g id="xtick_3">
      <g id="line2d_3">
       <path d="M 346.303798 193.958438 
L 346.303798 193.958437 
" clip-path="url(#p445346811f)" style="fill: none; stroke-dasharray: 0.5,0.825; stroke-dashoffset: 0; stroke: #d9d9d9; stroke-width: 0.5"/>
      </g>
      <g id="text_3">
       <!-- 2023 -->
       <g style="fill: #808080" transform="translate(337.278798 232.165937) scale(0.08 -0.08)">
        <defs>
         <path id="Ubuntu-33" d="M 1446 435 
Q 2016 435 2262 659 
Q 2509 883 2509 1261 
Q 2509 1504 2406 1670 
Q 2304 1837 2137 1936 
Q 1971 2035 1750 2076 
Q 1530 2118 1299 2118 
L 1146 2118 
L 1146 2605 
L 1357 2605 
Q 1517 2605 1686 2637 
Q 1856 2669 1997 2752 
Q 2138 2835 2227 2979 
Q 2317 3123 2317 3341 
Q 2317 3520 2253 3648 
Q 2189 3776 2083 3859 
Q 1978 3942 1840 3977 
Q 1702 4013 1549 4013 
Q 1242 4013 1027 3923 
Q 813 3834 666 3738 
L 435 4192 
Q 512 4243 630 4304 
Q 749 4365 896 4416 
Q 1043 4467 1212 4502 
Q 1382 4538 1568 4538 
Q 1920 4538 2176 4451 
Q 2432 4365 2598 4208 
Q 2765 4051 2848 3836 
Q 2931 3622 2931 3373 
Q 2931 3027 2732 2780 
Q 2534 2534 2253 2406 
Q 2426 2355 2586 2259 
Q 2746 2163 2864 2016 
Q 2982 1869 3056 1677 
Q 3130 1485 3130 1248 
Q 3130 960 3030 713 
Q 2931 467 2723 288 
Q 2515 109 2201 6 
Q 1888 -96 1459 -96 
Q 1293 -96 1117 -70 
Q 941 -45 787 -6 
Q 634 32 518 70 
Q 403 109 352 134 
L 467 653 
Q 576 602 829 518 
Q 1082 435 1446 435 
z
" transform="scale(0.015625)"/>
        </defs>
        <use xlink:href="#Ubuntu-32"/>
        <use xlink:href="#Ubuntu-30" x="56.399994"/>
        <use xlink:href="#Ubuntu-32" x="112.799988"/>
        <use xlink:href="#Ubuntu-33" x="169.199982"/>
       </g>
      </g>
     </g>
     <g id="xtick_4">
      <g id="line2d_4">
       <path d="M 500.859448 193.958438 
L 500.859448 193.958437 
" clip-path="url(#p445346811f)" style="fill: none; stroke-dasharray: 0.5,0.825; stroke-dashoffset: 0; stroke: #d9d9d9; stroke-width: 0.5"/>
      </g>
      <g id="text_4">
       <!-- 2024 -->
       <g style="fill: #808080" transform="translate(491.834448 232.165937) scale(0.08 -0.08)">
        <defs>
         <path id="Ubuntu-34" d="M 256 1536 
Q 378 1818 589 2192 
Q 800 2566 1065 2963 
Q 1331 3360 1635 3744 
Q 1939 4128 2246 4435 
L 2816 4435 
L 2816 1619 
L 3341 1619 
L 3341 1133 
L 2816 1133 
L 2816 0 
L 2240 0 
L 2240 1133 
L 256 1133 
L 256 1536 
z
M 2240 3731 
Q 2048 3526 1853 3273 
Q 1658 3021 1472 2745 
Q 1286 2470 1123 2182 
Q 960 1894 832 1619 
L 2240 1619 
L 2240 3731 
z
" transform="scale(0.015625)"/>
        </defs>
        <use xlink:href="#Ubuntu-32"/>
        <use xlink:href="#Ubuntu-30" x="56.399994"/>
        <use xlink:href="#Ubuntu-32" x="112.799988"/>
        <use xlink:href="#Ubuntu-34" x="169.199982"/>
       </g>
      </g>
     </g>
    </g>
    <g id="matplotlib.axis_2"/>
   </g>
   <g id="matplotlib.axis_3">
    <g id="xtick_5">
     <g id="line2d_5">
      <defs>
       <path id="mdfb50661ed" d="M 0 0 
L 0 3 
" style="stroke: #aaaaaa; stroke-width: 0.75"/>
      </defs>
      <g>
       <use xlink:href="#mdfb50661ed" x="37.1925" y="203.958438" style="fill: #aaaaaa; stroke: #aaaaaa; stroke-width: 0.75"/>
      </g>
     </g>
     <g id="text_5">
      <!-- Янв -->
      <g style="fill: #808080" transform="translate(30.116875 219.165937) scale(0.08 -0.08)">
       <defs>
        <path id="Ubuntu-42f" d="M 2272 3936 
Q 2029 3936 1808 3897 
Q 1587 3859 1414 3763 
Q 1242 3667 1139 3500 
Q 1037 3334 1037 3085 
Q 1037 2611 1341 2428 
Q 1645 2246 2253 2246 
L 2893 2246 
L 2893 3917 
Q 2822 3917 2726 3923 
Q 2643 3930 2531 3933 
Q 2419 3936 2272 3936 
z
M 2323 4480 
Q 2458 4480 2611 4473 
Q 2765 4467 2921 4454 
Q 3078 4442 3232 4422 
Q 3386 4403 3514 4371 
L 3514 0 
L 2893 0 
L 2893 1734 
L 2362 1734 
Q 2272 1734 2173 1737 
Q 2074 1741 1907 1760 
Q 1792 1606 1657 1401 
Q 1523 1197 1388 966 
Q 1254 736 1123 486 
Q 992 237 883 0 
L 230 0 
Q 333 250 473 518 
Q 614 787 764 1030 
Q 915 1274 1052 1482 
Q 1190 1690 1293 1824 
Q 1146 1869 986 1952 
Q 826 2035 691 2182 
Q 557 2330 470 2550 
Q 384 2771 384 3078 
Q 384 3424 518 3686 
Q 653 3949 905 4125 
Q 1158 4301 1516 4390 
Q 1875 4480 2323 4480 
z
" transform="scale(0.015625)"/>
        <path id="Ubuntu-43d" d="M 3238 0 
L 2643 0 
L 2643 1472 
L 1107 1472 
L 1107 0 
L 512 0 
L 512 3328 
L 1107 3328 
L 1107 1971 
L 2643 1971 
L 2643 3328 
L 3238 3328 
L 3238 0 
z
" transform="scale(0.015625)"/>
        <path id="Ubuntu-432" d="M 1094 448 
Q 1133 442 1203 435 
Q 1274 429 1363 425 
Q 1453 422 1552 419 
Q 1651 416 1741 416 
Q 1926 416 2096 441 
Q 2266 467 2390 531 
Q 2515 595 2588 700 
Q 2662 806 2662 973 
Q 2662 1133 2595 1238 
Q 2528 1344 2413 1408 
Q 2298 1472 2141 1497 
Q 1984 1523 1805 1523 
L 1094 1523 
L 1094 448 
z
M 1728 1965 
Q 1901 1965 2045 1987 
Q 2189 2010 2294 2067 
Q 2400 2125 2461 2221 
Q 2522 2317 2522 2464 
Q 2522 2618 2445 2707 
Q 2368 2797 2243 2845 
Q 2118 2893 1961 2909 
Q 1805 2925 1645 2925 
Q 1498 2925 1347 2918 
Q 1197 2912 1094 2906 
L 1094 1965 
L 1728 1965 
z
M 1715 -58 
Q 1338 -58 1018 -22 
Q 698 13 512 58 
L 512 3296 
Q 698 3341 1018 3376 
Q 1338 3411 1715 3411 
Q 1978 3411 2227 3366 
Q 2477 3322 2669 3216 
Q 2861 3110 2979 2928 
Q 3098 2746 3098 2477 
Q 3098 2234 2976 2061 
Q 2854 1888 2650 1792 
Q 2925 1696 3088 1507 
Q 3251 1318 3251 979 
Q 3251 678 3132 480 
Q 3014 282 2806 160 
Q 2598 38 2316 -10 
Q 2035 -58 1715 -58 
z
" transform="scale(0.015625)"/>
       </defs>
       <use xlink:href="#Ubuntu-42f"/>
       <use xlink:href="#Ubuntu-43d" x="63.499985"/>
       <use xlink:href="#Ubuntu-432" x="122.099976"/>
      </g>
     </g>
    </g>
    <g id="xtick_6">
     <g id="line2d_6">
      <g>
       <use xlink:href="#mdfb50661ed" x="75.302112" y="203.958438" style="fill: #aaaaaa; stroke: #aaaaaa; stroke-width: 0.75"/>
      </g>
     </g>
     <g id="text_6">
      <!-- Апр -->
      <g style="fill: #808080" transform="translate(67.982112 219.165937) scale(0.08 -0.08)">
       <defs>
        <path id="Ubuntu-410" d="M 3514 0 
Q 3405 288 3309 566 
Q 3213 845 3110 1133 
L 1101 1133 
L 698 0 
L 51 0 
Q 307 704 531 1302 
Q 755 1901 969 2438 
Q 1184 2976 1395 3465 
Q 1606 3955 1837 4435 
L 2406 4435 
Q 2637 3955 2848 3465 
Q 3059 2976 3273 2438 
Q 3488 1901 3712 1302 
Q 3936 704 4192 0 
L 3514 0 
z
M 2931 1645 
Q 2726 2202 2524 2723 
Q 2323 3245 2106 3725 
Q 1882 3245 1680 2723 
Q 1478 2202 1280 1645 
L 2931 1645 
z
" transform="scale(0.015625)"/>
        <path id="Ubuntu-43f" d="M 3187 0 
L 2592 0 
L 2592 2829 
L 1107 2829 
L 1107 0 
L 512 0 
L 512 3328 
L 3187 3328 
L 3187 0 
z
" transform="scale(0.015625)"/>
        <path id="Ubuntu-440" d="M 2822 1658 
Q 2822 2240 2534 2553 
Q 2246 2867 1766 2867 
Q 1498 2867 1347 2848 
Q 1197 2829 1107 2803 
L 1107 704 
Q 1216 614 1421 531 
Q 1626 448 1869 448 
Q 2125 448 2307 541 
Q 2490 634 2605 797 
Q 2720 960 2771 1181 
Q 2822 1402 2822 1658 
z
M 3443 1658 
Q 3443 1280 3344 960 
Q 3245 640 3053 409 
Q 2861 179 2582 51 
Q 2304 -77 1946 -77 
Q 1658 -77 1437 0 
Q 1216 77 1107 147 
L 1107 -1184 
L 512 -1184 
L 512 3226 
Q 723 3277 1040 3337 
Q 1357 3398 1773 3398 
Q 2157 3398 2464 3276 
Q 2771 3155 2988 2931 
Q 3206 2707 3324 2384 
Q 3443 2061 3443 1658 
z
" transform="scale(0.015625)"/>
       </defs>
       <use xlink:href="#Ubuntu-410"/>
       <use xlink:href="#Ubuntu-43f" x="66.299988"/>
       <use xlink:href="#Ubuntu-440" x="124.099976"/>
      </g>
     </g>
    </g>
    <g id="xtick_7">
     <g id="line2d_7">
      <g>
       <use xlink:href="#mdfb50661ed" x="113.835164" y="203.958438" style="fill: #aaaaaa; stroke: #aaaaaa; stroke-width: 0.75"/>
      </g>
     </g>
     <g id="text_7">
      <!-- Июл -->
      <g style="fill: #808080" transform="translate(105.287664 219.165937) scale(0.08 -0.08)">
       <defs>
        <path id="Ubuntu-418" d="M 550 0 
L 550 4435 
L 1158 4435 
L 1158 1152 
Q 1363 1491 1660 1926 
Q 1958 2362 2294 2813 
Q 2630 3264 2972 3689 
Q 3315 4115 3616 4435 
L 4109 4435 
L 4109 0 
L 3501 0 
L 3501 3462 
Q 3322 3258 3110 2989 
Q 2899 2720 2675 2416 
Q 2451 2112 2224 1785 
Q 1997 1459 1785 1142 
Q 1574 826 1392 531 
Q 1210 237 1069 0 
L 550 0 
z
" transform="scale(0.015625)"/>
        <path id="Ubuntu-44e" d="M 1107 1952 
L 1837 1952 
Q 1875 2285 2006 2553 
Q 2138 2822 2336 3014 
Q 2534 3206 2790 3308 
Q 3046 3411 3341 3411 
Q 3667 3411 3945 3286 
Q 4224 3162 4429 2931 
Q 4634 2701 4749 2377 
Q 4864 2054 4864 1664 
Q 4864 1267 4749 947 
Q 4634 627 4429 396 
Q 4224 166 3945 41 
Q 3667 -83 3341 -83 
Q 3034 -83 2768 29 
Q 2502 141 2304 342 
Q 2106 544 1981 832 
Q 1856 1120 1830 1472 
L 1107 1472 
L 1107 0 
L 512 0 
L 512 3328 
L 1107 3328 
L 1107 1952 
z
M 4250 1664 
Q 4250 2227 4003 2556 
Q 3757 2886 3341 2886 
Q 2925 2886 2678 2556 
Q 2432 2227 2432 1664 
Q 2432 1101 2678 771 
Q 2925 442 3341 442 
Q 3757 442 4003 771 
Q 4250 1101 4250 1664 
z
" transform="scale(0.015625)"/>
        <path id="Ubuntu-43b" d="M 1670 2829 
Q 1670 2618 1660 2378 
Q 1651 2138 1625 1898 
Q 1600 1658 1555 1424 
Q 1510 1190 1440 986 
Q 1370 781 1264 601 
Q 1158 422 1004 284 
Q 851 147 646 54 
Q 442 -38 166 -64 
L 83 435 
Q 397 499 579 672 
Q 762 845 870 1094 
Q 966 1312 1011 1587 
Q 1056 1862 1075 2160 
Q 1094 2458 1097 2758 
Q 1101 3059 1101 3328 
L 3315 3328 
L 3315 0 
L 2720 0 
L 2720 2829 
L 1670 2829 
z
" transform="scale(0.015625)"/>
       </defs>
       <use xlink:href="#Ubuntu-418"/>
       <use xlink:href="#Ubuntu-44e" x="72.799988"/>
       <use xlink:href="#Ubuntu-43b" x="153.899979"/>
      </g>
     </g>
    </g>
    <g id="xtick_8">
     <g id="line2d_8">
      <g>
       <use xlink:href="#mdfb50661ed" x="152.791657" y="203.958438" style="fill: #aaaaaa; stroke: #aaaaaa; stroke-width: 0.75"/>
      </g>
     </g>
     <g id="text_8">
      <!-- Окт -->
      <g style="fill: #808080" transform="translate(145.679782 219.165937) scale(0.08 -0.08)">
       <defs>
        <path id="Ubuntu-41e" d="M 371 2221 
Q 371 2790 540 3225 
Q 710 3661 1001 3952 
Q 1293 4243 1680 4390 
Q 2067 4538 2502 4538 
Q 2931 4538 3312 4390 
Q 3693 4243 3981 3952 
Q 4269 3661 4438 3225 
Q 4608 2790 4608 2221 
Q 4608 1651 4438 1216 
Q 4269 781 3981 489 
Q 3693 198 3312 51 
Q 2931 -96 2502 -96 
Q 2067 -96 1680 51 
Q 1293 198 1001 489 
Q 710 781 540 1216 
Q 371 1651 371 2221 
z
M 1024 2221 
Q 1024 1818 1126 1488 
Q 1229 1158 1417 928 
Q 1606 698 1878 573 
Q 2150 448 2490 448 
Q 2829 448 3097 573 
Q 3366 698 3555 928 
Q 3744 1158 3846 1488 
Q 3949 1818 3949 2221 
Q 3949 2624 3846 2953 
Q 3744 3283 3555 3513 
Q 3366 3744 3097 3869 
Q 2829 3994 2490 3994 
Q 2150 3994 1878 3869 
Q 1606 3744 1417 3513 
Q 1229 3283 1126 2953 
Q 1024 2624 1024 2221 
z
" transform="scale(0.015625)"/>
        <path id="Ubuntu-43a" d="M 1728 1811 
Q 1926 1670 2156 1456 
Q 2387 1242 2608 992 
Q 2829 742 3021 483 
Q 3213 224 3347 0 
L 2643 0 
Q 2502 218 2313 445 
Q 2125 672 1920 883 
Q 1715 1094 1504 1273 
Q 1293 1453 1107 1574 
L 1107 0 
L 512 0 
L 512 3328 
L 1107 3328 
L 1107 1901 
Q 1261 2048 1459 2243 
Q 1658 2438 1859 2640 
Q 2061 2842 2233 3024 
Q 2406 3206 2515 3328 
L 3206 3328 
Q 3066 3174 2877 2979 
Q 2688 2784 2486 2579 
Q 2285 2374 2086 2172 
Q 1888 1971 1728 1811 
z
" transform="scale(0.015625)"/>
        <path id="Ubuntu-442" d="M 2861 3328 
L 2861 2829 
L 1779 2829 
L 1779 0 
L 1184 0 
L 1184 2829 
L 102 2829 
L 102 3328 
L 2861 3328 
z
" transform="scale(0.015625)"/>
       </defs>
       <use xlink:href="#Ubuntu-41e"/>
       <use xlink:href="#Ubuntu-43a" x="77.799988"/>
       <use xlink:href="#Ubuntu-442" x="131.499985"/>
      </g>
     </g>
    </g>
    <g id="xtick_9">
     <g id="line2d_9">
      <g>
       <use xlink:href="#mdfb50661ed" x="191.748149" y="203.958438" style="fill: #aaaaaa; stroke: #aaaaaa; stroke-width: 0.75"/>
      </g>
     </g>
     <g id="text_9">
      <!-- Янв -->
      <g style="fill: #808080" transform="translate(184.672524 219.165937) scale(0.08 -0.08)">
       <use xlink:href="#Ubuntu-42f"/>
       <use xlink:href="#Ubuntu-43d" x="63.499985"/>
       <use xlink:href="#Ubuntu-432" x="122.099976"/>
      </g>
     </g>
    </g>
    <g id="xtick_10">
     <g id="line2d_10">
      <g>
       <use xlink:href="#mdfb50661ed" x="229.857761" y="203.958438" style="fill: #aaaaaa; stroke: #aaaaaa; stroke-width: 0.75"/>
      </g>
     </g>
     <g id="text_10">
      <!-- Апр -->
      <g style="fill: #808080" transform="translate(222.537761 219.165937) scale(0.08 -0.08)">
       <use xlink:href="#Ubuntu-410"/>
       <use xlink:href="#Ubuntu-43f" x="66.299988"/>
       <use xlink:href="#Ubuntu-440" x="124.099976"/>
      </g>
     </g>
    </g>
    <g id="xtick_11">
     <g id="line2d_11">
      <g>
       <use xlink:href="#mdfb50661ed" x="268.390814" y="203.958438" style="fill: #aaaaaa; stroke: #aaaaaa; stroke-width: 0.75"/>
      </g>
     </g>
     <g id="text_11">
      <!-- Июл -->
      <g style="fill: #808080" transform="translate(259.843314 219.165937) scale(0.08 -0.08)">
       <use xlink:href="#Ubuntu-418"/>
       <use xlink:href="#Ubuntu-44e" x="72.799988"/>
       <use xlink:href="#Ubuntu-43b" x="153.899979"/>
      </g>
     </g>
    </g>
    <g id="xtick_12">
     <g id="line2d_12">
      <g>
       <use xlink:href="#mdfb50661ed" x="307.347306" y="203.958438" style="fill: #aaaaaa; stroke: #aaaaaa; stroke-width: 0.75"/>
      </g>
     </g>
     <g id="text_12">
      <!-- Окт -->
      <g style="fill: #808080" transform="translate(300.235431 219.165937) scale(0.08 -0.08)">
       <use xlink:href="#Ubuntu-41e"/>
       <use xlink:href="#Ubuntu-43a" x="77.799988"/>
       <use xlink:href="#Ubuntu-442" x="131.499985"/>
      </g>
     </g>
    </g>
    <g id="xtick_13">
     <g id="line2d_13">
      <g>
       <use xlink:href="#mdfb50661ed" x="346.303798" y="203.958438" style="fill: #aaaaaa; stroke: #aaaaaa; stroke-width: 0.75"/>
      </g>
     </g>
     <g id="text_13">
      <!-- Янв -->
      <g style="fill: #808080" transform="translate(339.228173 219.165937) scale(0.08 -0.08)">
       <use xlink:href="#Ubuntu-42f"/>
       <use xlink:href="#Ubuntu-43d" x="63.499985"/>
       <use xlink:href="#Ubuntu-432" x="122.099976"/>
      </g>
     </g>
    </g>
    <g id="xtick_14">
     <g id="line2d_14">
      <g>
       <use xlink:href="#mdfb50661ed" x="384.413411" y="203.958438" style="fill: #aaaaaa; stroke: #aaaaaa; stroke-width: 0.75"/>
      </g>
     </g>
     <g id="text_14">
      <!-- Апр -->
      <g style="fill: #808080" transform="translate(377.093411 219.165937) scale(0.08 -0.08)">
       <use xlink:href="#Ubuntu-410"/>
       <use xlink:href="#Ubuntu-43f" x="66.299988"/>
       <use xlink:href="#Ubuntu-440" x="124.099976"/>
      </g>
     </g>
    </g>
    <g id="xtick_15">
     <g id="line2d_15">
      <g>
       <use xlink:href="#mdfb50661ed" x="422.946463" y="203.958438" style="fill: #aaaaaa; stroke: #aaaaaa; stroke-width: 0.75"/>
      </g>
     </g>
     <g id="text_15">
      <!-- Июл -->
      <g style="fill: #808080" transform="translate(414.398963 219.165937) scale(0.08 -0.08)">
       <use xlink:href="#Ubuntu-418"/>
       <use xlink:href="#Ubuntu-44e" x="72.799988"/>
       <use xlink:href="#Ubuntu-43b" x="153.899979"/>
      </g>
     </g>
    </g>
    <g id="xtick_16">
     <g id="line2d_16">
      <g>
       <use xlink:href="#mdfb50661ed" x="461.902955" y="203.958438" style="fill: #aaaaaa; stroke: #aaaaaa; stroke-width: 0.75"/>
      </g>
     </g>
     <g id="text_16">
      <!-- Окт -->
      <g style="fill: #808080" transform="translate(454.79108 219.165937) scale(0.08 -0.08)">
       <use xlink:href="#Ubuntu-41e"/>
       <use xlink:href="#Ubuntu-43a" x="77.799988"/>
       <use xlink:href="#Ubuntu-442" x="131.499985"/>
      </g>
     </g>
    </g>
    <g id="xtick_17">
     <g id="line2d_17">
      <g>
       <use xlink:href="#mdfb50661ed" x="500.859448" y="203.958438" style="fill: #aaaaaa; stroke: #aaaaaa; stroke-width: 0.75"/>
      </g>
     </g>
     <g id="text_17">
      <!-- Янв -->
      <g style="fill: #808080" transform="translate(493.783823 219.165937) scale(0.08 -0.08)">
       <use xlink:href="#Ubuntu-42f"/>
       <use xlink:href="#Ubuntu-43d" x="63.499985"/>
       <use xlink:href="#Ubuntu-432" x="122.099976"/>
      </g>
     </g>
    </g>
    <g id="xtick_18">
     <g id="line2d_18">
      <g>
       <use xlink:href="#mdfb50661ed" x="539.3925" y="203.958438" style="fill: #aaaaaa; stroke: #aaaaaa; stroke-width: 0.75"/>
      </g>
     </g>
     <g id="text_18">
      <!-- Апр -->
      <g style="fill: #808080" transform="translate(532.0725 219.165937) scale(0.08 -0.08)">
       <use xlink:href="#Ubuntu-410"/>
       <use xlink:href="#Ubuntu-43f" x="66.299988"/>
       <use xlink:href="#Ubuntu-440" x="124.099976"/>
      </g>
     </g>
    </g>
   </g>
   <g id="matplotlib.axis_4">
    <g id="ytick_1">
     <g id="line2d_19">
      <defs>
       <path id="m789a8090a2" d="M 0 0 
L -3 0 
" style="stroke: #aaaaaa; stroke-width: 0.75"/>
      </defs>
      <g>
       <use xlink:href="#m789a8090a2" x="27.1925" y="193.958438" style="fill: #aaaaaa; stroke: #aaaaaa; stroke-width: 0.75"/>
      </g>
     </g>
     <g id="text_19">
      <!-- 0.0 -->
      <g style="fill: #808080" transform="translate(7.2 197.062187) scale(0.08 -0.08)">
       <defs>
        <path id="Ubuntu-2e" d="M 1216 346 
Q 1216 173 1101 45 
Q 986 -83 787 -83 
Q 589 -83 473 45 
Q 358 173 358 346 
Q 358 518 473 646 
Q 589 774 787 774 
Q 986 774 1101 646 
Q 1216 518 1216 346 
z
" transform="scale(0.015625)"/>
       </defs>
       <use xlink:href="#Ubuntu-30"/>
       <use xlink:href="#Ubuntu-2e" x="56.399994"/>
       <use xlink:href="#Ubuntu-30" x="80.999985"/>
      </g>
     </g>
    </g>
    <g id="ytick_2">
     <g id="line2d_20">
      <g>
       <use xlink:href="#m789a8090a2" x="27.1925" y="166.238438" style="fill: #aaaaaa; stroke: #aaaaaa; stroke-width: 0.75"/>
      </g>
     </g>
     <g id="text_20">
      <!-- 0.5 -->
      <g style="fill: #808080" transform="translate(7.2 169.342187) scale(0.08 -0.08)">
       <defs>
        <path id="Ubuntu-35" d="M 1274 2726 
Q 2240 2688 2691 2304 
Q 3142 1920 3142 1261 
Q 3142 966 3043 716 
Q 2944 467 2742 288 
Q 2541 109 2233 6 
Q 1926 -96 1504 -96 
Q 1338 -96 1165 -70 
Q 992 -45 845 -6 
Q 698 32 582 70 
Q 467 109 416 134 
L 531 653 
Q 640 602 886 518 
Q 1133 435 1491 435 
Q 1779 435 1974 499 
Q 2170 563 2291 672 
Q 2413 781 2467 925 
Q 2522 1069 2522 1229 
Q 2522 1472 2438 1661 
Q 2355 1850 2144 1978 
Q 1933 2106 1581 2173 
Q 1229 2240 691 2240 
Q 730 2554 752 2829 
Q 774 3104 793 3366 
Q 813 3629 825 3888 
Q 838 4147 851 4435 
L 2989 4435 
L 2989 3930 
L 1370 3930 
Q 1363 3834 1350 3670 
Q 1338 3507 1325 3331 
Q 1312 3155 1299 2988 
Q 1286 2822 1274 2726 
z
" transform="scale(0.015625)"/>
       </defs>
       <use xlink:href="#Ubuntu-30"/>
       <use xlink:href="#Ubuntu-2e" x="56.399994"/>
       <use xlink:href="#Ubuntu-35" x="80.999985"/>
      </g>
     </g>
    </g>
    <g id="ytick_3">
     <g id="line2d_21">
      <g>
       <use xlink:href="#m789a8090a2" x="27.1925" y="138.518438" style="fill: #aaaaaa; stroke: #aaaaaa; stroke-width: 0.75"/>
      </g>
     </g>
     <g id="text_21">
      <!-- 1.0 -->
      <g style="fill: #808080" transform="translate(7.2 141.622187) scale(0.08 -0.08)">
       <use xlink:href="#Ubuntu-31"/>
       <use xlink:href="#Ubuntu-2e" x="56.399994"/>
       <use xlink:href="#Ubuntu-30" x="80.999985"/>
      </g>
     </g>
    </g>
    <g id="ytick_4">
     <g id="line2d_22">
      <g>
       <use xlink:href="#m789a8090a2" x="27.1925" y="110.798438" style="fill: #aaaaaa; stroke: #aaaaaa; stroke-width: 0.75"/>
      </g>
     </g>
     <g id="text_22">
      <!-- 1.5 -->
      <g style="fill: #808080" transform="translate(7.2 113.902187) scale(0.08 -0.08)">
       <use xlink:href="#Ubuntu-31"/>
       <use xlink:href="#Ubuntu-2e" x="56.399994"/>
       <use xlink:href="#Ubuntu-35" x="80.999985"/>
      </g>
     </g>
    </g>
    <g id="ytick_5">
     <g id="line2d_23">
      <g>
       <use xlink:href="#m789a8090a2" x="27.1925" y="83.078438" style="fill: #aaaaaa; stroke: #aaaaaa; stroke-width: 0.75"/>
      </g>
     </g>
     <g id="text_23">
      <!-- 2.0 -->
      <g style="fill: #808080" transform="translate(7.2 86.182187) scale(0.08 -0.08)">
       <use xlink:href="#Ubuntu-32"/>
       <use xlink:href="#Ubuntu-2e" x="56.399994"/>
       <use xlink:href="#Ubuntu-30" x="80.999985"/>
      </g>
     </g>
    </g>
    <g id="ytick_6">
     <g id="line2d_24">
      <g>
       <use xlink:href="#m789a8090a2" x="27.1925" y="55.358438" style="fill: #aaaaaa; stroke: #aaaaaa; stroke-width: 0.75"/>
      </g>
     </g>
     <g id="text_24">
      <!-- 2.5 -->
      <g style="fill: #808080" transform="translate(7.2 58.462187) scale(0.08 -0.08)">
       <use xlink:href="#Ubuntu-32"/>
       <use xlink:href="#Ubuntu-2e" x="56.399994"/>
       <use xlink:href="#Ubuntu-35" x="80.999985"/>
      </g>
     </g>
    </g>
    <g id="ytick_7">
     <g id="line2d_25">
      <g>
       <use xlink:href="#m789a8090a2" x="27.1925" y="27.638438" style="fill: #aaaaaa; stroke: #aaaaaa; stroke-width: 0.75"/>
      </g>
     </g>
     <g id="text_25">
      <!-- 3.0 -->
      <g style="fill: #808080" transform="translate(7.2 30.742188) scale(0.08 -0.08)">
       <use xlink:href="#Ubuntu-33"/>
       <use xlink:href="#Ubuntu-2e" x="56.399994"/>
       <use xlink:href="#Ubuntu-30" x="80.999985"/>
      </g>
     </g>
    </g>
   </g>
   <g id="line2d_26">
    <path d="M 37.1925 138.518438 
L 38.787127 135.133185 
L 40.381755 132.662086 
L 41.976382 131.012415 
L 43.57101 130.091448 
L 45.165637 129.806463 
L 46.760264 130.064736 
L 48.354892 130.773542 
L 49.949519 131.840159 
L 51.544147 133.171862 
L 59.517284 140.561349 
L 61.111911 141.536375 
L 62.706538 142.127422 
L 64.301166 142.259292 
L 65.895793 141.971658 
L 67.490421 141.350457 
L 69.085048 140.481755 
L 72.274303 138.346104 
L 75.463558 136.25322 
L 77.058185 135.431177 
L 78.652812 134.806548 
L 80.24744 134.371477 
L 81.842067 134.117881 
L 83.436695 134.037678 
L 85.031322 134.122787 
L 86.625949 134.365126 
L 88.220577 134.756613 
L 89.815204 135.288781 
L 93.004459 136.721294 
L 96.193714 138.541148 
L 99.382969 140.623936 
L 105.761478 145.131449 
L 112.139988 149.929755 
L 124.897007 159.885428 
L 128.086262 161.784093 
L 129.680889 162.534379 
L 131.275516 163.113791 
L 132.870144 163.491899 
L 134.464771 163.638271 
L 136.059399 163.522476 
L 137.654026 163.114083 
L 139.248653 162.38266 
L 140.843281 161.298714 
L 142.437908 159.882346 
L 145.627163 156.431722 
L 148.816418 152.819044 
L 150.411045 151.200108 
L 152.005673 149.838466 
L 153.6003 148.832709 
L 155.194927 148.213658 
L 156.789555 147.887615 
L 159.97881 147.686312 
L 161.573437 147.596933 
L 163.168064 147.372321 
L 164.762692 146.905416 
L 166.357319 146.089388 
L 167.951947 144.873219 
L 169.546574 143.334267 
L 172.735829 139.669365 
L 175.925084 135.857382 
L 177.519711 134.134581 
L 179.114338 132.660989 
L 180.708966 131.495231 
L 182.303593 130.589499 
L 183.898221 129.876786 
L 191.871358 126.86332 
L 193.465985 125.92404 
L 196.65524 123.657481 
L 201.439122 120.146283 
L 203.033749 119.175158 
L 204.628377 118.399073 
L 206.223004 117.860763 
L 207.817632 117.534689 
L 209.412259 117.375253 
L 212.601514 117.373882 
L 217.385396 117.48154 
L 220.574651 117.173917 
L 230.142415 115.680196 
L 231.737043 115.640817 
L 233.33167 115.730942 
L 234.926297 115.972127 
L 236.520925 116.385916 
L 238.115552 116.993854 
L 239.71018 117.817484 
L 241.304807 118.878352 
L 242.899434 120.198001 
L 244.494062 121.792592 
L 247.683316 125.618772 
L 254.061826 133.819021 
L 255.656453 135.565861 
L 257.251081 137.053662 
L 258.845708 138.289764 
L 262.034963 140.251332 
L 266.818845 142.847403 
L 268.413473 143.8685 
L 270.0081 145.067708 
L 273.197355 147.942837 
L 277.981237 152.606395 
L 279.575864 154.027676 
L 281.170492 155.287835 
L 282.765119 156.331693 
L 284.359747 157.146703 
L 285.954374 157.767713 
L 287.549001 158.232045 
L 290.738256 158.839961 
L 297.116766 159.782003 
L 300.306021 160.257515 
L 301.900648 160.370589 
L 303.495275 160.340882 
L 305.089903 160.123647 
L 306.68453 159.674138 
L 308.279158 158.947965 
L 309.873785 157.928906 
L 311.468412 156.648827 
L 313.06304 155.1443 
L 316.252295 151.608185 
L 319.441549 147.613128 
L 330.603941 132.884986 
L 338.577078 122.470044 
L 343.36096 116.659363 
L 346.550215 113.148499 
L 349.73947 110.07876 
L 351.334097 108.80527 
L 352.928725 107.765471 
L 354.523352 107.003942 
L 356.11798 106.56526 
L 357.712607 106.494003 
L 359.307234 106.83475 
L 360.901862 107.602935 
L 362.496489 108.687569 
L 367.280371 112.387544 
L 368.874999 113.285351 
L 370.469626 113.773294 
L 372.064254 113.706112 
L 373.658881 112.979766 
L 375.253508 111.718799 
L 378.442763 108.406312 
L 380.037391 106.761562 
L 381.632018 105.395653 
L 383.226645 104.51197 
L 384.821273 104.313898 
L 386.4159 104.970154 
L 388.010527 106.40197 
L 389.605155 108.422969 
L 391.199782 110.846336 
L 395.983664 118.662483 
L 397.578292 120.82716 
L 399.172919 122.479315 
L 400.767547 123.630145 
L 402.362174 124.388175 
L 403.956801 124.862902 
L 410.335311 126.118772 
L 411.929938 126.811839 
L 413.524566 127.768525 
L 415.119193 128.931717 
L 418.308448 131.644315 
L 423.09233 135.803862 
L 424.686958 136.984125 
L 427.876212 138.938709 
L 437.443977 144.131481 
L 440.633232 146.446896 
L 451.795623 155.161244 
L 453.390251 156.097215 
L 454.984878 156.818753 
L 456.579506 157.268991 
L 458.174133 157.391062 
L 459.76876 157.128097 
L 461.363388 156.423231 
L 462.958015 155.220331 
L 464.552643 153.510435 
L 466.14727 151.359477 
L 467.741897 148.840046 
L 470.931152 142.986118 
L 482.093544 120.85328 
L 485.282799 115.313216 
L 488.472054 110.395514 
L 491.661308 106.191062 
L 494.850563 102.648855 
L 498.039818 99.690105 
L 501.229073 97.236022 
L 504.418328 95.207817 
L 507.607582 93.5267 
L 510.796837 92.113881 
L 513.986092 90.890571 
L 513.986092 90.890571 
" clip-path="url(#p53d0985b29)" style="fill: none; stroke-dasharray: 5.55,2.4; stroke-dashoffset: 0; stroke: #5d5d5d; stroke-width: 1.5"/>
   </g>
   <g id="line2d_27">
    <path d="M 37.1925 138.518438 
L 38.828197 138.478299 
L 40.463894 138.243184 
L 42.099591 137.833268 
L 43.735287 137.268727 
L 47.006681 135.756469 
L 50.278075 133.867815 
L 56.820862 129.606937 
L 60.092256 127.557521 
L 63.363649 125.777199 
L 66.635043 124.346794 
L 78.084921 119.859339 
L 79.720618 118.938201 
L 81.356315 117.817862 
L 82.992012 116.443803 
L 84.627708 114.761507 
L 86.263405 112.716456 
L 87.899102 110.254132 
L 89.534799 107.326739 
L 92.806193 100.561605 
L 94.441889 97.163099 
L 96.077586 94.050054 
L 97.713283 91.444538 
L 99.34898 89.568617 
L 100.984677 88.644358 
L 102.620374 88.873147 
L 104.256071 90.208162 
L 105.891767 92.438648 
L 107.527464 95.350947 
L 110.798858 102.36634 
L 114.070252 109.545059 
L 115.705948 112.681516 
L 117.341645 115.410741 
L 118.977342 117.762578 
L 120.613039 119.767248 
L 122.248736 121.454973 
L 123.884433 122.855974 
L 125.520129 124.000473 
L 127.155826 124.918692 
L 128.791523 125.635746 
L 130.42722 126.150849 
L 132.062917 126.455016 
L 133.698614 126.539262 
L 135.334311 126.394602 
L 136.970007 126.012048 
L 138.605704 125.382616 
L 140.241401 124.49732 
L 141.877098 123.361752 
L 145.148492 120.572001 
L 150.055582 116.081201 
L 151.691279 114.766716 
L 153.326976 113.653394 
L 154.962673 112.780594 
L 156.598369 112.125716 
L 158.234066 111.657343 
L 159.869763 111.344058 
L 163.141157 111.057087 
L 174.591035 110.767835 
L 177.862428 110.316663 
L 181.133822 109.526349 
L 187.676609 107.664857 
L 189.312306 107.346792 
L 190.948003 107.158414 
L 192.5837 107.131799 
L 195.855094 107.433045 
L 199.126487 107.764836 
L 200.762184 107.775132 
L 202.397881 107.592599 
L 204.033578 107.150415 
L 205.669275 106.389611 
L 207.304972 105.329368 
L 208.940668 104.033679 
L 212.212062 100.994056 
L 217.119153 96.281868 
L 220.390546 93.676602 
L 228.569031 87.727346 
L 230.204727 86.269253 
L 233.476121 82.869251 
L 238.383212 77.518907 
L 240.018908 75.952491 
L 241.654605 74.612835 
L 243.290302 73.570881 
L 244.925999 72.88935 
L 246.561696 72.60691 
L 248.197393 72.757859 
L 249.833089 73.376489 
L 251.468786 74.497097 
L 253.104483 76.153977 
L 254.74018 78.381424 
L 256.375877 81.213355 
L 258.011574 84.631332 
L 259.647271 88.511493 
L 262.918664 97.112287 
L 266.190058 105.923588 
L 267.825755 110.066884 
L 269.461452 113.85479 
L 271.097148 117.225063 
L 272.732845 120.218157 
L 274.368542 122.88228 
L 276.004239 125.265642 
L 277.639936 127.416452 
L 280.911329 131.213254 
L 284.182723 134.616027 
L 287.454117 137.599626 
L 289.089814 138.867185 
L 290.725511 139.949179 
L 292.361207 140.818551 
L 293.996904 141.448246 
L 295.632601 141.814279 
L 297.268298 141.933302 
L 298.903995 141.85075 
L 302.175388 141.265096 
L 308.718176 139.69629 
L 311.989569 139.244205 
L 316.89666 138.859388 
L 321.803751 138.468107 
L 326.710841 137.812038 
L 331.617932 136.880065 
L 336.525022 135.688813 
L 343.067809 133.801414 
L 351.246294 131.327672 
L 354.517687 130.612228 
L 356.153384 130.390379 
L 357.789081 130.28532 
L 359.424778 130.316519 
L 361.060475 130.487533 
L 364.331868 131.149456 
L 374.146049 133.764523 
L 377.417443 134.281299 
L 380.688837 134.541816 
L 383.960231 134.540932 
L 387.231624 134.250297 
L 388.867321 133.935097 
L 390.503018 133.456366 
L 392.138715 132.776256 
L 393.774412 131.856922 
L 395.410108 130.660517 
L 397.045805 129.149193 
L 398.681502 127.292236 
L 400.317199 125.136754 
L 403.588593 120.310988 
L 406.859986 115.436936 
L 408.495683 113.221097 
L 410.13138 111.28034 
L 411.767077 109.70282 
L 413.402774 108.52354 
L 415.038471 107.754717 
L 416.674167 107.408483 
L 418.309864 107.496967 
L 419.945561 108.032299 
L 421.581258 109.02661 
L 423.216955 110.49203 
L 424.852652 112.423242 
L 426.488348 114.733187 
L 429.759742 120.045343 
L 433.031136 125.540631 
L 434.666833 128.079489 
L 436.302529 130.331191 
L 437.938226 132.219165 
L 439.573923 133.775568 
L 441.20962 135.05399 
L 442.845317 136.10802 
L 446.116711 137.757265 
L 457.566588 142.60877 
L 460.837982 143.634015 
L 462.473679 143.991111 
L 465.745073 144.376918 
L 469.016466 144.446233 
L 482.102041 144.086399 
L 485.373435 143.826107 
L 488.644828 143.288067 
L 491.916222 142.45801 
L 500.094706 140.176204 
L 503.3661 139.611994 
L 506.637494 139.315623 
L 509.908887 139.222549 
L 514.815978 139.322732 
L 522.994462 139.590538 
L 526.265856 139.544438 
L 526.265856 139.544438 
" clip-path="url(#p53d0985b29)" style="fill: none; stroke: #7e6459; stroke-width: 1.25; stroke-linecap: square"/>
   </g>
   <g id="line2d_28">
    <path d="M 37.1925 138.518438 
L 38.828197 133.610444 
L 40.463894 130.006509 
L 42.099591 127.580302 
L 43.735287 126.205492 
L 45.370984 125.755747 
L 47.006681 126.104738 
L 48.642378 127.126133 
L 50.278075 128.693601 
L 51.913772 130.680812 
L 55.185165 135.409138 
L 58.456559 140.300462 
L 60.092256 142.491422 
L 61.727953 144.344139 
L 63.363649 145.73296 
L 64.999346 146.604385 
L 66.635043 147.040096 
L 68.27074 147.136631 
L 69.906437 146.990529 
L 76.449224 145.909424 
L 78.084921 145.950227 
L 79.720618 146.176145 
L 81.356315 146.575104 
L 82.992012 147.135035 
L 84.627708 147.843864 
L 87.899102 149.659928 
L 91.170496 151.918813 
L 96.077586 155.754502 
L 100.984677 159.517423 
L 104.256071 161.673097 
L 107.527464 163.518729 
L 110.798858 165.128718 
L 115.705948 167.263337 
L 118.977342 168.533832 
L 122.248736 169.587233 
L 125.520129 170.32419 
L 127.155826 170.542956 
L 128.791523 170.643938 
L 130.42722 170.606114 
L 132.062917 170.406185 
L 133.698614 170.020853 
L 135.334311 169.426822 
L 136.970007 168.600791 
L 138.605704 167.519463 
L 140.241401 166.159543 
L 141.877098 164.519444 
L 145.148492 160.704954 
L 148.419885 156.767649 
L 150.055582 154.974033 
L 151.691279 153.415022 
L 153.326976 152.178875 
L 154.962673 151.306943 
L 156.598369 150.73118 
L 158.234066 150.367969 
L 164.776854 149.36832 
L 166.412551 148.814329 
L 168.048247 148.020638 
L 169.683944 147.030419 
L 172.955338 144.661683 
L 177.862428 140.892654 
L 181.133822 138.781299 
L 184.405216 137.0129 
L 189.312306 134.440776 
L 192.5837 132.405539 
L 197.490791 129.109717 
L 199.126487 128.265849 
L 200.762184 127.691889 
L 202.397881 127.473359 
L 204.033578 127.69578 
L 205.669275 128.432017 
L 207.304972 129.628943 
L 208.940668 131.161187 
L 215.483456 138.118834 
L 217.119153 139.434284 
L 218.754849 140.350897 
L 220.390546 140.915683 
L 222.026243 141.235348 
L 226.933334 141.792207 
L 228.569031 142.199978 
L 230.204727 142.896924 
L 231.840424 143.961756 
L 233.476121 145.351346 
L 235.111818 146.989606 
L 238.383212 150.707782 
L 241.654605 154.507574 
L 243.290302 156.247869 
L 244.925999 157.799159 
L 246.561696 159.159269 
L 248.197393 160.336049 
L 249.833089 161.337347 
L 251.468786 162.17101 
L 253.104483 162.844887 
L 254.74018 163.366825 
L 256.375877 163.744763 
L 259.647271 164.174441 
L 264.554361 164.708984 
L 266.190058 165.049946 
L 267.825755 165.552344 
L 269.461452 166.263085 
L 272.732845 168.211314 
L 276.004239 170.302557 
L 277.639936 171.186433 
L 279.275633 171.847609 
L 280.911329 172.199937 
L 282.547026 172.160839 
L 284.182723 171.729949 
L 285.81842 170.989113 
L 287.454117 170.023749 
L 293.996904 165.625411 
L 295.632601 164.812612 
L 297.268298 164.19499 
L 300.539692 163.310429 
L 303.811085 162.495987 
L 305.446782 161.966015 
L 307.082479 161.274718 
L 308.718176 160.369583 
L 310.353873 159.257314 
L 313.625266 156.556023 
L 318.532357 151.857015 
L 328.346538 142.290898 
L 329.982235 140.452507 
L 331.617932 138.446325 
L 333.253628 136.235284 
L 336.525022 131.186491 
L 344.703506 117.58443 
L 346.339203 115.184916 
L 347.9749 113.035524 
L 349.610597 111.199321 
L 351.246294 109.739588 
L 352.881991 108.719608 
L 354.517687 108.202664 
L 356.153384 108.252036 
L 357.789081 108.931007 
L 359.424778 110.301794 
L 361.060475 112.336652 
L 362.696172 114.850948 
L 367.603262 123.26649 
L 369.238959 125.694565 
L 370.874656 127.600092 
L 372.510353 128.788035 
L 374.146049 129.248029 
L 375.781746 129.196695 
L 380.688837 128.280319 
L 382.324534 128.489267 
L 383.960231 129.339684 
L 385.595927 131.049041 
L 387.231624 133.596915 
L 388.867321 136.755531 
L 395.410108 150.803028 
L 397.045805 153.494566 
L 398.681502 155.409617 
L 400.317199 156.564685 
L 401.952896 157.117936 
L 403.588593 157.22961 
L 405.224289 157.059947 
L 408.495683 156.517564 
L 410.13138 156.465324 
L 411.767077 156.75065 
L 413.402774 157.356755 
L 415.038471 158.200407 
L 423.216955 163.05992 
L 424.852652 163.591211 
L 426.488348 163.879482 
L 428.124045 163.950838 
L 429.759742 163.831383 
L 431.395439 163.547223 
L 434.666833 162.589213 
L 437.938226 161.287661 
L 442.845317 159.247592 
L 444.481014 158.686403 
L 446.116711 158.244102 
L 447.752407 157.956372 
L 449.388104 157.858728 
L 451.023801 157.95567 
L 459.202285 158.989046 
L 460.837982 158.805066 
L 462.473679 158.324723 
L 464.109376 157.514036 
L 465.745073 156.394812 
L 467.380769 154.993509 
L 469.016466 153.336584 
L 470.652163 151.450494 
L 473.923557 147.096645 
L 477.194951 142.150187 
L 487.009132 126.662757 
L 490.280525 122.277892 
L 493.551919 118.446058 
L 496.823313 115.01442 
L 501.730403 110.286524 
L 505.001797 107.42669 
L 506.637494 106.216125 
L 508.273191 105.222773 
L 509.908887 104.499869 
L 511.544584 104.100646 
L 513.180281 104.078339 
L 514.815978 104.486182 
L 516.451675 105.377409 
L 518.087372 106.805253 
L 519.723068 108.82295 
L 521.358765 111.483734 
L 522.994462 114.840837 
L 524.630159 118.947496 
L 526.265856 123.856942 
L 526.265856 123.856942 
" clip-path="url(#p53d0985b29)" style="fill: none; stroke: #489079; stroke-width: 1.25; stroke-linecap: square"/>
   </g>
   <g id="line2d_29">
    <path d="M 37.1925 138.518438 
L 38.828197 137.117857 
L 40.463894 136.031447 
L 42.099591 135.233188 
L 43.735287 134.697058 
L 45.370984 134.397039 
L 47.006681 134.307109 
L 48.642378 134.401247 
L 50.278075 134.653434 
L 53.549468 135.527872 
L 56.820862 136.722259 
L 63.363649 139.23834 
L 66.635043 140.21659 
L 71.542134 141.394556 
L 78.084921 142.919526 
L 81.356315 143.850135 
L 84.627708 144.975848 
L 87.899102 146.355653 
L 91.170496 148.035355 
L 96.077586 150.960173 
L 102.620374 154.994131 
L 109.163161 158.671767 
L 120.613039 164.889821 
L 122.248736 165.59194 
L 123.884433 166.15875 
L 125.520129 166.558101 
L 127.155826 166.757843 
L 128.791523 166.729831 
L 130.42722 166.46624 
L 132.062917 165.965672 
L 133.698614 165.226731 
L 135.334311 164.248021 
L 136.970007 163.028147 
L 138.605704 161.565713 
L 140.241401 159.859325 
L 143.512795 155.83009 
L 148.419885 149.423819 
L 150.055582 147.52194 
L 151.691279 145.874413 
L 153.326976 144.563643 
L 154.962673 143.635088 
L 156.598369 143.048016 
L 158.234066 142.749434 
L 159.869763 142.686348 
L 161.50546 142.805763 
L 164.776854 143.380123 
L 169.683944 144.3415 
L 172.955338 144.662226 
L 174.591035 144.648323 
L 176.226732 144.483613 
L 177.862428 144.142121 
L 179.498125 143.599096 
L 181.133822 142.866244 
L 184.405216 141.047497 
L 187.676609 139.130269 
L 189.312306 138.274315 
L 190.948003 137.561248 
L 192.5837 137.041819 
L 199.126487 135.577216 
L 200.762184 134.859191 
L 202.397881 133.797572 
L 204.033578 132.290938 
L 205.669275 130.255354 
L 207.304972 127.780918 
L 212.212062 119.628156 
L 213.847759 117.30433 
L 215.483456 115.495842 
L 217.119153 114.393766 
L 218.754849 114.153932 
L 220.390546 114.704227 
L 222.026243 115.881848 
L 223.66194 117.523758 
L 226.933334 121.548299 
L 228.569031 123.604858 
L 230.204727 125.473561 
L 231.840424 127.030318 
L 233.476121 128.319628 
L 236.747515 130.456334 
L 240.018908 132.604535 
L 241.654605 133.908213 
L 243.290302 135.485051 
L 244.925999 137.383746 
L 248.197393 141.835269 
L 253.104483 148.732201 
L 254.74018 150.712235 
L 256.375877 152.375864 
L 258.011574 153.679344 
L 259.647271 154.680173 
L 261.282967 155.447999 
L 264.554361 156.563241 
L 267.825755 157.582256 
L 269.461452 158.228872 
L 272.732845 159.902513 
L 279.275633 163.639477 
L 280.911329 164.411282 
L 282.547026 165.035462 
L 284.182723 165.491295 
L 285.81842 165.778221 
L 287.454117 165.896559 
L 289.089814 165.846627 
L 290.725511 165.628744 
L 292.361207 165.243226 
L 293.996904 164.690392 
L 295.632601 163.971703 
L 298.903995 162.113861 
L 302.175388 159.878403 
L 308.718176 155.154815 
L 311.989569 153.055512 
L 315.260963 151.289817 
L 318.532357 149.954944 
L 320.168054 149.479446 
L 323.439447 148.902608 
L 328.346538 148.292399 
L 329.982235 147.956963 
L 331.617932 147.472157 
L 333.253628 146.787967 
L 334.889325 145.872195 
L 336.525022 144.75849 
L 339.796416 142.132721 
L 344.703506 137.931075 
L 347.9749 135.501245 
L 356.153384 130.214104 
L 357.789081 128.961538 
L 359.424778 127.546951 
L 362.696172 124.279829 
L 367.603262 119.25853 
L 369.238959 117.821078 
L 370.874656 116.61365 
L 372.510353 115.702549 
L 374.146049 115.125963 
L 375.781746 114.887521 
L 377.417443 114.98873 
L 379.05314 115.431099 
L 380.688837 116.216135 
L 382.324534 117.345344 
L 383.960231 118.820235 
L 385.595927 120.640387 
L 387.231624 122.770338 
L 390.503018 127.694595 
L 397.045805 138.323756 
L 400.317199 142.994172 
L 401.952896 145.020967 
L 403.588593 146.816254 
L 405.224289 148.360674 
L 406.859986 149.634865 
L 408.495683 150.619465 
L 410.13138 151.295115 
L 411.767077 151.652188 
L 413.402774 151.749477 
L 416.674167 151.517313 
L 419.945561 151.3044 
L 421.581258 151.425754 
L 423.216955 151.81663 
L 424.852652 152.538199 
L 426.488348 153.524817 
L 433.031136 158.066683 
L 434.666833 158.837212 
L 436.302529 159.256264 
L 437.938226 159.253436 
L 439.573923 158.860554 
L 441.20962 158.129593 
L 442.845317 157.11253 
L 444.481014 155.861341 
L 447.752407 152.864491 
L 452.659498 147.832644 
L 465.745073 134.087187 
L 469.016466 131.075813 
L 470.652163 129.746628 
L 472.28786 128.56693 
L 473.923557 127.560585 
L 475.559254 126.750145 
L 477.194951 126.123906 
L 480.466344 125.228644 
L 485.373435 124.025842 
L 487.009132 123.461479 
L 488.644828 122.73513 
L 491.916222 120.845581 
L 500.094706 115.498803 
L 501.730403 114.650694 
L 505.001797 113.322545 
L 508.273191 112.370448 
L 513.180281 111.345044 
L 518.087372 110.38827 
L 521.358765 109.558182 
L 524.630159 108.413046 
L 526.265856 107.679141 
L 526.265856 107.679141 
" clip-path="url(#p53d0985b29)" style="fill: none; stroke: #b3625a; stroke-width: 1.25; stroke-linecap: square"/>
   </g>
   <g id="line2d_30">
    <path d="M 37.1925 138.518438 
L 38.828197 138.531641 
L 40.463894 138.408225 
L 43.735287 137.816881 
L 47.006681 136.875101 
L 51.913772 135.091265 
L 56.820862 133.254118 
L 60.092256 132.217565 
L 63.363649 131.483897 
L 66.635043 131.08057 
L 71.542134 130.529159 
L 73.177831 130.210221 
L 74.813527 129.761456 
L 76.449224 129.14632 
L 78.084921 128.360788 
L 81.356315 126.436691 
L 87.899102 122.344826 
L 89.534799 121.513666 
L 91.170496 120.823792 
L 92.806193 120.282191 
L 94.441889 119.895224 
L 96.077586 119.669252 
L 97.713283 119.610636 
L 99.34898 119.725736 
L 100.984677 120.020915 
L 102.620374 120.500088 
L 105.891767 121.889382 
L 112.434555 125.13082 
L 114.070252 125.774336 
L 115.705948 126.266905 
L 117.341645 126.615733 
L 120.613039 126.996568 
L 130.42722 127.623503 
L 135.334311 128.38258 
L 141.877098 129.44774 
L 150.055582 130.461587 
L 159.869763 131.743296 
L 166.412551 132.524798 
L 171.319641 132.851836 
L 174.591035 132.833454 
L 177.862428 132.548372 
L 181.133822 131.958766 
L 184.405216 131.299532 
L 186.040913 131.064264 
L 187.676609 130.956459 
L 189.312306 131.02454 
L 190.948003 131.31693 
L 192.5837 131.874958 
L 197.490791 134.022101 
L 199.126487 134.328463 
L 200.762184 134.145265 
L 202.397881 133.301578 
L 204.033578 131.62647 
L 205.669275 128.974385 
L 207.304972 125.452284 
L 208.940668 121.311923 
L 213.847759 107.71601 
L 215.483456 103.637335 
L 217.119153 100.207763 
L 218.754849 97.637527 
L 220.390546 95.857225 
L 222.026243 94.686194 
L 223.66194 93.943485 
L 228.569031 92.475814 
L 230.204727 91.636915 
L 231.840424 90.373565 
L 233.476121 88.781736 
L 238.383212 83.603631 
L 240.018908 82.266145 
L 241.654605 81.38431 
L 243.290302 81.114894 
L 244.925999 81.545799 
L 246.561696 82.563431 
L 248.197393 84.017538 
L 251.468786 87.634165 
L 254.74018 91.193657 
L 256.375877 92.576879 
L 258.011574 93.570075 
L 259.647271 94.246385 
L 261.282967 94.696824 
L 267.825755 96.060163 
L 269.461452 96.745697 
L 271.097148 97.713595 
L 272.732845 98.966511 
L 274.368542 100.503229 
L 276.004239 102.322531 
L 277.639936 104.4232 
L 279.275633 106.804019 
L 280.911329 109.463769 
L 284.182723 115.553098 
L 289.089814 125.22721 
L 290.725511 128.150399 
L 292.361207 130.736803 
L 293.996904 132.874806 
L 295.632601 134.461446 
L 297.268298 135.508356 
L 298.903995 136.108332 
L 300.539692 136.355888 
L 302.175388 136.345536 
L 305.446782 135.929163 
L 308.718176 135.605454 
L 311.989569 135.691843 
L 316.89666 135.992488 
L 318.532357 135.983665 
L 320.168054 135.855882 
L 321.803751 135.576424 
L 323.439447 135.145267 
L 325.075144 134.573559 
L 328.346538 133.053129 
L 331.617932 131.104401 
L 334.889325 128.80513 
L 336.525022 127.484908 
L 338.160719 125.983907 
L 339.796416 124.249375 
L 341.432113 122.228565 
L 343.067809 119.868724 
L 344.703506 117.117105 
L 346.339203 113.921109 
L 347.9749 110.287434 
L 354.517687 94.721074 
L 356.153384 91.465457 
L 357.789081 88.821785 
L 359.424778 86.967218 
L 361.060475 85.942347 
L 362.696172 85.549592 
L 364.331868 85.567444 
L 367.603262 85.948923 
L 369.238959 85.869529 
L 370.874656 85.314698 
L 372.510353 84.067464 
L 374.146049 82.067361 
L 375.781746 79.446288 
L 377.417443 76.347957 
L 380.688837 69.294363 
L 383.960231 62.056266 
L 385.595927 58.724857 
L 387.231624 55.729047 
L 388.867321 53.126795 
L 390.503018 50.974758 
L 392.138715 49.329593 
L 393.774412 48.247959 
L 395.410108 47.786514 
L 397.045805 48.001915 
L 398.681502 48.941206 
L 400.317199 50.546471 
L 401.952896 52.695189 
L 403.588593 55.263894 
L 406.859986 61.167395 
L 410.13138 67.269242 
L 413.402774 72.774822 
L 419.945561 83.232882 
L 421.581258 86.140873 
L 423.216955 89.306409 
L 426.488348 96.47715 
L 433.031136 111.556883 
L 434.666833 114.878571 
L 436.302529 117.814557 
L 437.938226 120.293068 
L 439.573923 122.341667 
L 441.20962 124.007494 
L 442.845317 125.337691 
L 444.481014 126.379399 
L 446.116711 127.17976 
L 447.752407 127.785914 
L 451.023801 128.593161 
L 454.295195 129.005978 
L 457.566588 129.106747 
L 460.837982 128.974799 
L 465.745073 128.507818 
L 478.830647 127.036557 
L 482.102041 126.656528 
L 485.373435 126.072455 
L 488.644828 125.153056 
L 491.916222 123.878953 
L 501.730403 119.688488 
L 505.001797 118.698065 
L 508.273191 117.95757 
L 511.544584 117.425675 
L 516.451675 116.928557 
L 522.994462 116.610113 
L 526.265856 116.505496 
L 526.265856 116.505496 
" clip-path="url(#p53d0985b29)" style="fill: none; stroke: #6893b8; stroke-width: 1.25; stroke-linecap: square"/>
   </g>
   <g id="line2d_31">
    <path d="M 37.1925 138.518438 
L 38.828197 138.593786 
L 40.463894 138.461979 
L 42.099591 138.142301 
L 43.735287 137.654037 
L 45.370984 137.016471 
L 48.642378 135.370571 
L 51.913772 133.358874 
L 58.456559 128.855192 
L 61.727953 126.671756 
L 64.999346 124.729059 
L 68.27074 123.030929 
L 74.813527 119.985318 
L 78.084921 118.407205 
L 79.720618 117.442654 
L 81.356315 116.239838 
L 82.992012 114.707071 
L 84.627708 112.752668 
L 86.263405 110.284941 
L 87.899102 107.212206 
L 89.534799 103.450302 
L 91.170496 99.068548 
L 94.441889 89.301403 
L 97.713283 79.650045 
L 99.34898 75.413024 
L 100.984677 71.859235 
L 102.620374 69.19555 
L 104.256071 67.494138 
L 105.891767 66.738204 
L 107.527464 66.909373 
L 109.163161 67.989274 
L 110.798858 69.959533 
L 112.434555 72.801776 
L 114.070252 76.497631 
L 115.705948 81.010861 
L 117.341645 86.168662 
L 123.884433 108.525299 
L 125.520129 113.364901 
L 127.155826 117.432313 
L 128.791523 120.54084 
L 130.42722 122.754846 
L 132.062917 124.218122 
L 133.698614 125.07449 
L 135.334311 125.467771 
L 136.970007 125.541787 
L 141.877098 125.255567 
L 145.148492 125.403241 
L 148.419885 125.785188 
L 158.234066 127.176553 
L 161.50546 127.444312 
L 164.776854 127.523917 
L 168.048247 127.36814 
L 171.319641 126.973022 
L 174.591035 126.363181 
L 177.862428 125.563741 
L 189.312306 122.371348 
L 192.5837 121.945525 
L 195.855094 121.724801 
L 197.490791 121.491027 
L 199.126487 121.057859 
L 200.762184 120.337458 
L 202.397881 119.241987 
L 204.033578 117.683604 
L 205.669275 115.587709 
L 207.304972 113.011427 
L 210.576365 106.949248 
L 213.847759 100.564626 
L 215.483456 97.58529 
L 217.119153 94.926014 
L 218.754849 92.701753 
L 220.390546 90.907172 
L 222.026243 89.48907 
L 223.66194 88.394125 
L 225.297637 87.569017 
L 226.933334 86.960423 
L 230.204727 86.179489 
L 233.476121 85.72976 
L 235.111818 85.658054 
L 236.747515 85.726625 
L 238.383212 85.964102 
L 240.018908 86.399112 
L 241.654605 87.060284 
L 243.290302 87.976229 
L 244.925999 89.157391 
L 246.561696 90.561042 
L 249.833089 93.826216 
L 256.375877 100.721082 
L 259.647271 103.701251 
L 264.554361 108.128612 
L 266.190058 109.789333 
L 267.825755 111.624342 
L 269.461452 113.681817 
L 272.732845 118.422664 
L 280.911329 131.141576 
L 282.547026 133.348818 
L 284.182723 135.336534 
L 285.81842 137.109754 
L 287.454117 138.674912 
L 289.089814 140.038441 
L 290.725511 141.206774 
L 292.361207 142.186344 
L 293.996904 142.983583 
L 295.632601 143.605659 
L 297.268298 144.069456 
L 300.539692 144.617424 
L 303.811085 144.818636 
L 313.625266 144.898631 
L 316.89666 144.702872 
L 320.168054 144.192656 
L 323.439447 143.263286 
L 326.710841 141.925921 
L 329.982235 140.225623 
L 333.253628 138.207459 
L 338.160719 134.764487 
L 343.067809 131.341466 
L 346.339203 129.381413 
L 349.610597 127.844381 
L 352.881991 126.6999 
L 356.153384 125.885007 
L 359.424778 125.336752 
L 362.696172 124.999289 
L 365.967565 124.835307 
L 370.874656 124.839527 
L 375.781746 124.962199 
L 379.05314 124.747848 
L 380.688837 124.439221 
L 382.324534 123.946149 
L 383.960231 123.231023 
L 385.595927 122.257657 
L 387.231624 121.015718 
L 388.867321 119.517411 
L 390.503018 117.775692 
L 392.138715 115.80352 
L 393.774412 113.613853 
L 397.045805 108.633862 
L 400.317199 103.003933 
L 403.588593 97.309748 
L 405.224289 94.673466 
L 406.859986 92.303093 
L 408.495683 90.292656 
L 410.13138 88.73618 
L 411.767077 87.715734 
L 413.402774 87.229357 
L 415.038471 87.239063 
L 416.674167 87.706728 
L 418.309864 88.594226 
L 419.945561 89.863434 
L 421.581258 91.476227 
L 423.216955 93.39448 
L 424.852652 95.577537 
L 428.124045 100.52446 
L 436.302529 113.666267 
L 439.573923 118.141425 
L 442.845317 121.920115 
L 444.481014 123.549759 
L 446.116711 125.007054 
L 447.752407 126.29259 
L 449.388104 127.406983 
L 451.023801 128.355601 
L 452.659498 129.154111 
L 455.930892 130.36887 
L 459.202285 131.187375 
L 462.473679 131.745643 
L 467.380769 132.297932 
L 472.28786 132.56951 
L 477.194951 132.598876 
L 480.466344 132.42996 
L 483.737738 132.007197 
L 487.009132 131.238688 
L 490.280525 130.057586 
L 493.551919 128.580624 
L 500.094706 125.533151 
L 503.3661 124.330206 
L 506.637494 123.387355 
L 511.544584 122.29449 
L 521.358765 120.324142 
L 524.630159 119.452156 
L 526.265856 118.933008 
L 526.265856 118.933008 
" clip-path="url(#p53d0985b29)" style="fill: none; stroke: #d8805d; stroke-width: 1.25; stroke-linecap: square"/>
   </g>
   <g id="patch_4">
    <path d="M 27.1925 193.958438 
L 27.1925 27.638438 
" style="fill: none; stroke: #aaaaaa; stroke-width: 0.75; stroke-linejoin: miter; stroke-linecap: square"/>
   </g>
   <g id="patch_5">
    <path d="M 37.1925 203.958438 
L 539.3925 203.958438 
" style="fill: none; stroke: #aaaaaa; stroke-width: 0.75; stroke-linejoin: miter; stroke-linecap: square"/>
   </g>
   <g id="legend_1">
    <g id="line2d_32">
     <path d="M 45.2925 14.696719 
L 54.2925 14.696719 
L 63.2925 14.696719 
" style="fill: none; stroke-dasharray: 5.55,2.4; stroke-dashoffset: 0; stroke: #5d5d5d; stroke-width: 1.5"/>
    </g>
    <g id="text_26">
     <!-- Овощи (средняя цена у производителей) -->
     <g style="fill: #4b4b4b" transform="translate(70.4925 17.846719) scale(0.09 -0.09)">
      <defs>
       <path id="Ubuntu-43e" d="M 3450 1664 
Q 3450 1267 3334 947 
Q 3219 627 3011 396 
Q 2803 166 2515 41 
Q 2227 -83 1888 -83 
Q 1549 -83 1261 41 
Q 973 166 765 396 
Q 557 627 441 947 
Q 326 1267 326 1664 
Q 326 2054 441 2377 
Q 557 2701 765 2931 
Q 973 3162 1261 3286 
Q 1549 3411 1888 3411 
Q 2227 3411 2515 3286 
Q 2803 3162 3011 2931 
Q 3219 2701 3334 2377 
Q 3450 2054 3450 1664 
z
M 2829 1664 
Q 2829 2227 2576 2556 
Q 2323 2886 1888 2886 
Q 1453 2886 1200 2556 
Q 947 2227 947 1664 
Q 947 1101 1200 771 
Q 1453 442 1888 442 
Q 2323 442 2576 771 
Q 2829 1101 2829 1664 
z
" transform="scale(0.015625)"/>
       <path id="Ubuntu-449" d="M 512 0 
L 512 3328 
L 1107 3328 
L 1107 493 
L 2336 493 
L 2336 3328 
L 2931 3328 
L 2931 493 
L 4160 493 
L 4160 3328 
L 4755 3328 
L 4755 493 
L 5203 493 
L 5203 -928 
L 4640 -928 
L 4640 0 
L 512 0 
z
" transform="scale(0.015625)"/>
       <path id="Ubuntu-438" d="M 3309 3328 
L 3309 0 
L 2733 0 
L 2733 2534 
Q 2541 2291 2310 1964 
Q 2080 1638 1849 1289 
Q 1619 941 1408 601 
Q 1197 262 1043 0 
L 512 0 
L 512 3328 
L 1088 3328 
L 1088 934 
Q 1254 1210 1465 1539 
Q 1677 1869 1904 2192 
Q 2131 2515 2358 2812 
Q 2586 3110 2784 3328 
L 3309 3328 
z
" transform="scale(0.015625)"/>
       <path id="Ubuntu-20" transform="scale(0.015625)"/>
       <path id="Ubuntu-28" d="M 1094 1914 
Q 1094 1094 1331 396 
Q 1568 -301 2029 -896 
L 1606 -1184 
Q 1107 -576 803 214 
Q 499 1005 499 1914 
Q 499 2822 803 3612 
Q 1107 4403 1606 5011 
L 2029 4723 
Q 1568 4128 1331 3430 
Q 1094 2733 1094 1914 
z
" transform="scale(0.015625)"/>
       <path id="Ubuntu-441" d="M 1958 -77 
Q 1555 -77 1251 51 
Q 947 179 739 409 
Q 531 640 428 957 
Q 326 1274 326 1658 
Q 326 2042 438 2362 
Q 550 2682 755 2915 
Q 960 3149 1257 3280 
Q 1555 3411 1920 3411 
Q 2144 3411 2368 3372 
Q 2592 3334 2797 3251 
L 2662 2746 
Q 2528 2810 2352 2848 
Q 2176 2886 1978 2886 
Q 1478 2886 1212 2572 
Q 947 2259 947 1658 
Q 947 1389 1008 1165 
Q 1069 941 1200 781 
Q 1331 621 1536 534 
Q 1741 448 2035 448 
Q 2272 448 2464 493 
Q 2656 538 2765 589 
L 2848 90 
Q 2797 58 2701 29 
Q 2605 0 2483 -22 
Q 2362 -45 2224 -61 
Q 2086 -77 1958 -77 
z
" transform="scale(0.015625)"/>
       <path id="Ubuntu-435" d="M 326 1658 
Q 326 2099 454 2428 
Q 582 2758 793 2976 
Q 1005 3194 1280 3302 
Q 1555 3411 1843 3411 
Q 2515 3411 2873 2992 
Q 3232 2573 3232 1715 
Q 3232 1677 3232 1616 
Q 3232 1555 3226 1504 
L 947 1504 
Q 986 986 1248 717 
Q 1510 448 2067 448 
Q 2381 448 2595 502 
Q 2810 557 2918 608 
L 3002 109 
Q 2893 51 2621 -13 
Q 2349 -77 2003 -77 
Q 1568 -77 1251 54 
Q 934 186 729 416 
Q 525 646 425 963 
Q 326 1280 326 1658 
z
M 2611 1984 
Q 2618 2387 2410 2646 
Q 2202 2906 1837 2906 
Q 1632 2906 1475 2826 
Q 1318 2746 1209 2618 
Q 1101 2490 1040 2323 
Q 979 2157 960 1984 
L 2611 1984 
z
" transform="scale(0.015625)"/>
       <path id="Ubuntu-434" d="M 102 486 
L 461 486 
Q 672 794 797 1120 
Q 922 1446 986 1795 
Q 1050 2144 1069 2525 
Q 1088 2906 1094 3328 
L 3277 3328 
L 3277 486 
L 3725 486 
L 3725 -928 
L 3162 -928 
L 3162 0 
L 666 0 
L 666 -928 
L 102 -928 
L 102 486 
z
M 2682 486 
L 2682 2829 
L 1638 2829 
Q 1632 2528 1606 2224 
Q 1581 1920 1523 1622 
Q 1466 1325 1360 1040 
Q 1254 755 1094 486 
L 2682 486 
z
" transform="scale(0.015625)"/>
       <path id="Ubuntu-44f" d="M 1888 1293 
Q 1792 1293 1702 1296 
Q 1613 1299 1530 1306 
Q 1325 998 1136 649 
Q 947 301 800 0 
L 198 0 
Q 275 186 377 381 
Q 480 576 585 761 
Q 691 947 800 1113 
Q 909 1280 1005 1414 
Q 826 1478 710 1571 
Q 595 1664 524 1779 
Q 454 1894 425 2025 
Q 397 2157 397 2291 
Q 397 2573 502 2784 
Q 608 2995 793 3132 
Q 979 3270 1232 3340 
Q 1485 3411 1786 3411 
Q 2208 3411 2502 3372 
Q 2797 3334 2995 3283 
L 2995 0 
L 2406 0 
L 2406 1293 
L 1888 1293 
z
M 2406 2886 
Q 2336 2899 2173 2912 
Q 2010 2925 1798 2925 
Q 1434 2925 1210 2774 
Q 986 2624 986 2298 
Q 986 1978 1216 1856 
Q 1446 1734 1811 1734 
L 2406 1734 
L 2406 2886 
z
" transform="scale(0.015625)"/>
       <path id="Ubuntu-446" d="M 3168 493 
L 3616 493 
L 3616 -928 
L 3053 -928 
L 3053 0 
L 512 0 
L 512 3328 
L 1107 3328 
L 1107 493 
L 2573 493 
L 2573 3328 
L 3168 3328 
L 3168 493 
z
" transform="scale(0.015625)"/>
       <path id="Ubuntu-430" d="M 1638 429 
Q 1850 429 2013 438 
Q 2176 448 2285 474 
L 2285 1466 
Q 2221 1498 2077 1520 
Q 1933 1542 1728 1542 
Q 1594 1542 1443 1523 
Q 1293 1504 1168 1443 
Q 1043 1382 960 1276 
Q 877 1171 877 998 
Q 877 678 1081 553 
Q 1286 429 1638 429 
z
M 1587 3411 
Q 1946 3411 2192 3318 
Q 2438 3226 2588 3056 
Q 2739 2886 2803 2652 
Q 2867 2419 2867 2138 
L 2867 58 
Q 2790 45 2652 22 
Q 2515 0 2342 -19 
Q 2170 -38 1968 -54 
Q 1766 -70 1568 -70 
Q 1286 -70 1049 -12 
Q 813 45 640 169 
Q 467 294 371 499 
Q 275 704 275 992 
Q 275 1267 387 1465 
Q 499 1664 691 1785 
Q 883 1907 1139 1964 
Q 1395 2022 1677 2022 
Q 1766 2022 1862 2012 
Q 1958 2003 2044 1987 
Q 2131 1971 2195 1958 
Q 2259 1946 2285 1939 
L 2285 2106 
Q 2285 2253 2253 2397 
Q 2221 2541 2137 2653 
Q 2054 2765 1910 2832 
Q 1766 2899 1536 2899 
Q 1242 2899 1021 2857 
Q 800 2816 691 2771 
L 621 3264 
Q 736 3315 1005 3363 
Q 1274 3411 1587 3411 
z
" transform="scale(0.015625)"/>
       <path id="Ubuntu-443" d="M 122 -621 
Q 192 -653 304 -681 
Q 416 -710 525 -710 
Q 877 -710 1075 -553 
Q 1274 -397 1434 -45 
Q 1030 723 681 1584 
Q 333 2445 102 3328 
L 742 3328 
Q 813 3040 912 2707 
Q 1011 2374 1132 2022 
Q 1254 1670 1395 1318 
Q 1536 966 1690 640 
Q 1933 1312 2112 1971 
Q 2291 2630 2451 3328 
L 3066 3328 
Q 2835 2387 2553 1520 
Q 2272 653 1946 -102 
Q 1818 -390 1680 -598 
Q 1542 -806 1376 -940 
Q 1210 -1075 1002 -1139 
Q 794 -1203 531 -1203 
Q 461 -1203 384 -1193 
Q 307 -1184 233 -1168 
Q 160 -1152 99 -1133 
Q 38 -1114 13 -1101 
L 122 -621 
z
" transform="scale(0.015625)"/>
       <path id="Ubuntu-437" d="M 1357 3411 
Q 1645 3411 1894 3353 
Q 2144 3296 2323 3181 
Q 2502 3066 2604 2893 
Q 2707 2720 2707 2490 
Q 2707 2342 2656 2220 
Q 2605 2099 2528 2003 
Q 2451 1907 2358 1840 
Q 2266 1773 2182 1747 
Q 2477 1658 2646 1430 
Q 2816 1203 2816 858 
Q 2816 384 2432 153 
Q 2048 -77 1389 -77 
Q 986 -77 694 -13 
Q 403 51 282 109 
L 384 614 
Q 486 576 752 509 
Q 1018 442 1389 442 
Q 1792 442 2003 566 
Q 2214 691 2214 941 
Q 2214 1120 2134 1232 
Q 2054 1344 1932 1401 
Q 1811 1459 1670 1478 
Q 1530 1498 1408 1498 
L 851 1498 
L 851 1971 
L 1389 1971 
Q 1504 1971 1629 1987 
Q 1754 2003 1859 2054 
Q 1965 2106 2035 2198 
Q 2106 2291 2106 2445 
Q 2106 2566 2045 2652 
Q 1984 2739 1881 2796 
Q 1779 2854 1641 2883 
Q 1504 2912 1357 2912 
Q 1242 2912 1107 2893 
Q 973 2874 845 2845 
Q 717 2816 614 2784 
Q 512 2752 467 2726 
L 358 3238 
Q 410 3258 518 3290 
Q 627 3322 764 3347 
Q 902 3373 1056 3392 
Q 1210 3411 1357 3411 
z
" transform="scale(0.015625)"/>
       <path id="Ubuntu-439" d="M 3309 3328 
L 3309 0 
L 2733 0 
L 2733 2534 
Q 2541 2291 2310 1964 
Q 2080 1638 1849 1289 
Q 1619 941 1408 601 
Q 1197 262 1043 0 
L 512 0 
L 512 3328 
L 1088 3328 
L 1088 934 
Q 1254 1210 1465 1539 
Q 1677 1869 1904 2192 
Q 2131 2515 2358 2812 
Q 2586 3110 2784 3328 
L 3309 3328 
z
M 1917 3866 
Q 1514 3866 1261 4070 
Q 1008 4275 957 4640 
L 1411 4762 
Q 1462 4557 1584 4429 
Q 1706 4301 1917 4301 
Q 2128 4301 2249 4429 
Q 2371 4557 2422 4762 
L 2870 4640 
Q 2819 4275 2569 4070 
Q 2320 3866 1917 3866 
z
" transform="scale(0.015625)"/>
       <path id="Ubuntu-29" d="M 979 1914 
Q 979 2733 742 3430 
Q 506 4128 45 4723 
L 467 5011 
Q 966 4403 1270 3612 
Q 1574 2822 1574 1914 
Q 1574 1005 1270 214 
Q 966 -576 467 -1184 
L 45 -896 
Q 506 -301 742 396 
Q 979 1094 979 1914 
z
" transform="scale(0.015625)"/>
      </defs>
      <use xlink:href="#Ubuntu-41e"/>
      <use xlink:href="#Ubuntu-432" x="77.799988"/>
      <use xlink:href="#Ubuntu-43e" x="132.599976"/>
      <use xlink:href="#Ubuntu-449" x="191.59996"/>
      <use xlink:href="#Ubuntu-438" x="274.999954"/>
      <use xlink:href="#Ubuntu-20" x="334.699951"/>
      <use xlink:href="#Ubuntu-28" x="357.799942"/>
      <use xlink:href="#Ubuntu-441" x="390.199936"/>
      <use xlink:href="#Ubuntu-440" x="436.699921"/>
      <use xlink:href="#Ubuntu-435" x="495.599915"/>
      <use xlink:href="#Ubuntu-434" x="551.499908"/>
      <use xlink:href="#Ubuntu-43d" x="611.799896"/>
      <use xlink:href="#Ubuntu-44f" x="670.399887"/>
      <use xlink:href="#Ubuntu-44f" x="725.199875"/>
      <use xlink:href="#Ubuntu-20" x="779.999863"/>
      <use xlink:href="#Ubuntu-446" x="803.099854"/>
      <use xlink:href="#Ubuntu-435" x="861.699844"/>
      <use xlink:href="#Ubuntu-43d" x="917.599838"/>
      <use xlink:href="#Ubuntu-430" x="976.199829"/>
      <use xlink:href="#Ubuntu-20" x="1028.399826"/>
      <use xlink:href="#Ubuntu-443" x="1051.499817"/>
      <use xlink:href="#Ubuntu-20" x="1101.199814"/>
      <use xlink:href="#Ubuntu-43f" x="1124.299805"/>
      <use xlink:href="#Ubuntu-440" x="1182.099792"/>
      <use xlink:href="#Ubuntu-43e" x="1240.999786"/>
      <use xlink:href="#Ubuntu-438" x="1299.999771"/>
      <use xlink:href="#Ubuntu-437" x="1359.699768"/>
      <use xlink:href="#Ubuntu-432" x="1408.599762"/>
      <use xlink:href="#Ubuntu-43e" x="1463.39975"/>
      <use xlink:href="#Ubuntu-434" x="1522.399734"/>
      <use xlink:href="#Ubuntu-438" x="1582.699722"/>
      <use xlink:href="#Ubuntu-442" x="1642.399719"/>
      <use xlink:href="#Ubuntu-435" x="1688.699707"/>
      <use xlink:href="#Ubuntu-43b" x="1744.599701"/>
      <use xlink:href="#Ubuntu-435" x="1804.399689"/>
      <use xlink:href="#Ubuntu-439" x="1860.299683"/>
      <use xlink:href="#Ubuntu-29" x="1919.99968"/>
     </g>
    </g>
    <g id="line2d_33">
     <path d="M 264.209062 14.696719 
L 273.209062 14.696719 
L 282.209062 14.696719 
" style="fill: none; stroke: #7e6459; stroke-width: 1.25; stroke-linecap: square"/>
    </g>
    <g id="text_27">
     <!-- Картофель -->
     <g style="fill: #4b4b4b" transform="translate(289.409062 17.846719) scale(0.09 -0.09)">
      <defs>
       <path id="Ubuntu-41a" d="M 3834 4435 
Q 3635 4218 3385 3952 
Q 3136 3686 2864 3408 
Q 2592 3130 2323 2861 
Q 2054 2592 1818 2362 
Q 2093 2170 2400 1888 
Q 2707 1606 3001 1286 
Q 3296 966 3555 633 
Q 3814 301 3987 0 
L 3258 0 
Q 3066 301 2816 605 
Q 2566 909 2288 1187 
Q 2010 1466 1725 1702 
Q 1440 1939 1171 2106 
L 1171 0 
L 550 0 
L 550 4435 
L 1171 4435 
L 1171 2477 
Q 1395 2688 1664 2953 
Q 1933 3219 2195 3488 
Q 2458 3757 2691 4003 
Q 2925 4250 3085 4435 
L 3834 4435 
z
" transform="scale(0.015625)"/>
       <path id="Ubuntu-444" d="M 928 1664 
Q 928 1382 1021 1164 
Q 1114 947 1280 796 
Q 1446 646 1673 566 
Q 1901 486 2163 480 
L 2163 2848 
Q 1901 2842 1673 2758 
Q 1446 2675 1280 2524 
Q 1114 2374 1021 2156 
Q 928 1939 928 1664 
z
M 2739 480 
Q 3002 486 3229 566 
Q 3456 646 3622 796 
Q 3789 947 3881 1164 
Q 3974 1382 3974 1664 
Q 3974 1939 3881 2156 
Q 3789 2374 3622 2524 
Q 3456 2675 3229 2758 
Q 3002 2842 2739 2848 
L 2739 480 
z
M 2739 -1184 
L 2163 -1184 
L 2163 -19 
Q 1786 -13 1453 102 
Q 1120 218 867 432 
Q 614 646 467 956 
Q 320 1267 320 1664 
Q 320 2061 467 2371 
Q 614 2682 867 2896 
Q 1120 3110 1453 3225 
Q 1786 3341 2163 3347 
L 2163 4864 
L 2739 4966 
L 2739 3347 
Q 3110 3341 3446 3225 
Q 3782 3110 4035 2896 
Q 4288 2682 4435 2371 
Q 4582 2061 4582 1664 
Q 4582 1267 4435 956 
Q 4288 646 4035 432 
Q 3782 218 3446 102 
Q 3110 -13 2739 -19 
L 2739 -1184 
z
" transform="scale(0.015625)"/>
       <path id="Ubuntu-44c" d="M 1773 416 
Q 2150 416 2368 563 
Q 2586 710 2586 1037 
Q 2586 1197 2522 1312 
Q 2458 1427 2346 1500 
Q 2234 1574 2086 1609 
Q 1939 1645 1773 1645 
Q 1600 1645 1417 1635 
Q 1235 1626 1107 1594 
L 1107 448 
Q 1146 442 1222 435 
Q 1299 429 1392 425 
Q 1485 422 1584 419 
Q 1683 416 1773 416 
z
M 512 70 
L 512 3328 
L 1107 3328 
L 1107 2054 
Q 1158 2067 1244 2080 
Q 1331 2093 1430 2105 
Q 1530 2118 1638 2124 
Q 1747 2131 1843 2131 
Q 2118 2131 2361 2070 
Q 2605 2010 2787 1878 
Q 2970 1747 3078 1539 
Q 3187 1331 3187 1043 
Q 3187 742 3084 531 
Q 2982 320 2790 185 
Q 2598 51 2332 -9 
Q 2067 -70 1741 -70 
Q 1421 -70 1113 -35 
Q 806 0 512 70 
z
" transform="scale(0.015625)"/>
      </defs>
      <use xlink:href="#Ubuntu-41a"/>
      <use xlink:href="#Ubuntu-430" x="62.899994"/>
      <use xlink:href="#Ubuntu-440" x="115.099991"/>
      <use xlink:href="#Ubuntu-442" x="173.999985"/>
      <use xlink:href="#Ubuntu-43e" x="220.299973"/>
      <use xlink:href="#Ubuntu-444" x="279.299957"/>
      <use xlink:href="#Ubuntu-435" x="355.899948"/>
      <use xlink:href="#Ubuntu-43b" x="411.799942"/>
      <use xlink:href="#Ubuntu-44c" x="471.59993"/>
     </g>
    </g>
    <g id="line2d_34">
     <path d="M 354.605625 14.696719 
L 363.605625 14.696719 
L 372.605625 14.696719 
" style="fill: none; stroke: #489079; stroke-width: 1.25; stroke-linecap: square"/>
    </g>
    <g id="text_28">
     <!-- Огурцы -->
     <g style="fill: #4b4b4b" transform="translate(379.805625 17.846719) scale(0.09 -0.09)">
      <defs>
       <path id="Ubuntu-433" d="M 2573 2829 
L 1107 2829 
L 1107 0 
L 512 0 
L 512 3328 
L 2573 3328 
L 2573 2829 
z
" transform="scale(0.015625)"/>
       <path id="Ubuntu-44b" d="M 1734 1645 
Q 1562 1645 1398 1635 
Q 1235 1626 1107 1594 
L 1107 448 
Q 1146 442 1219 435 
Q 1293 429 1379 425 
Q 1466 422 1555 419 
Q 1645 416 1715 416 
Q 2106 416 2317 563 
Q 2528 710 2528 1037 
Q 2528 1197 2461 1312 
Q 2394 1427 2282 1500 
Q 2170 1574 2029 1609 
Q 1888 1645 1734 1645 
z
M 512 3328 
L 1107 3328 
L 1107 2054 
Q 1216 2080 1424 2105 
Q 1632 2131 1824 2131 
Q 2086 2131 2323 2070 
Q 2560 2010 2739 1878 
Q 2918 1747 3024 1539 
Q 3130 1331 3130 1043 
Q 3130 742 3027 531 
Q 2925 320 2739 185 
Q 2554 51 2291 -9 
Q 2029 -70 1715 -70 
Q 1414 -70 1107 -35 
Q 800 0 512 70 
L 512 3328 
z
M 4339 0 
L 3744 0 
L 3744 3328 
L 4339 3328 
L 4339 0 
z
" transform="scale(0.015625)"/>
      </defs>
      <use xlink:href="#Ubuntu-41e"/>
      <use xlink:href="#Ubuntu-433" x="77.799988"/>
      <use xlink:href="#Ubuntu-443" x="121.849976"/>
      <use xlink:href="#Ubuntu-440" x="171.549973"/>
      <use xlink:href="#Ubuntu-446" x="230.449966"/>
      <use xlink:href="#Ubuntu-44b" x="289.049957"/>
     </g>
    </g>
    <g id="line2d_35">
     <path d="M 430.641562 14.696719 
L 439.641562 14.696719 
L 448.641562 14.696719 
" style="fill: none; stroke: #b3625a; stroke-width: 1.25; stroke-linecap: square"/>
    </g>
    <g id="text_29">
     <!-- Помидоры -->
     <g style="fill: #4b4b4b" transform="translate(455.841562 17.846719) scale(0.09 -0.09)">
      <defs>
       <path id="Ubuntu-41f" d="M 3923 4435 
L 3923 0 
L 3302 0 
L 3302 3904 
L 1171 3904 
L 1171 0 
L 550 0 
L 550 4435 
L 3923 4435 
z
" transform="scale(0.015625)"/>
       <path id="Ubuntu-43c" d="M 1146 2451 
Q 1082 1818 1050 1187 
Q 1018 557 998 0 
L 429 0 
Q 442 390 467 816 
Q 493 1242 525 1674 
Q 557 2106 595 2525 
Q 634 2944 678 3328 
L 1222 3328 
Q 1427 2995 1702 2416 
Q 1978 1837 2336 1082 
Q 2694 1837 2969 2416 
Q 3245 2995 3450 3328 
L 4000 3328 
Q 4045 2944 4083 2525 
Q 4122 2106 4154 1674 
Q 4186 1242 4211 816 
Q 4237 390 4250 0 
L 3661 0 
Q 3642 557 3610 1187 
Q 3578 1818 3514 2451 
Q 3411 2253 3276 1974 
Q 3142 1696 3011 1408 
Q 2880 1120 2765 857 
Q 2650 595 2586 442 
L 2086 442 
Q 2016 602 1897 864 
Q 1779 1126 1648 1417 
Q 1517 1709 1382 1987 
Q 1248 2266 1146 2451 
z
" transform="scale(0.015625)"/>
      </defs>
      <use xlink:href="#Ubuntu-41f"/>
      <use xlink:href="#Ubuntu-43e" x="69.899994"/>
      <use xlink:href="#Ubuntu-43c" x="128.899979"/>
      <use xlink:href="#Ubuntu-438" x="201.999969"/>
      <use xlink:href="#Ubuntu-434" x="261.699966"/>
      <use xlink:href="#Ubuntu-43e" x="321.999954"/>
      <use xlink:href="#Ubuntu-440" x="380.999939"/>
      <use xlink:href="#Ubuntu-44b" x="439.899933"/>
     </g>
    </g>
    <g id="line2d_36">
     <path d="M 520.254844 14.696719 
L 529.254844 14.696719 
L 538.254844 14.696719 
" style="fill: none; stroke: #6893b8; stroke-width: 1.25; stroke-linecap: square"/>
    </g>
    <g id="text_30">
     <!-- Лук -->
     <g style="fill: #4b4b4b" transform="translate(545.454844 17.846719) scale(0.09 -0.09)">
      <defs>
       <path id="Ubuntu-41b" d="M 2067 3904 
Q 2054 3546 2041 3210 
Q 2029 2874 2003 2557 
Q 1978 2240 1926 1939 
Q 1875 1638 1786 1350 
Q 1696 1062 1565 809 
Q 1434 557 1238 368 
Q 1043 179 777 64 
Q 512 -51 154 -64 
L 83 474 
Q 531 525 777 755 
Q 1024 986 1184 1459 
Q 1363 1997 1411 2755 
Q 1459 3514 1459 4435 
L 3974 4435 
L 3974 0 
L 3354 0 
L 3354 3904 
L 2067 3904 
z
" transform="scale(0.015625)"/>
      </defs>
      <use xlink:href="#Ubuntu-41b"/>
      <use xlink:href="#Ubuntu-443" x="70.699982"/>
      <use xlink:href="#Ubuntu-43a" x="120.399979"/>
     </g>
    </g>
    <g id="line2d_37">
     <path d="M 579.124687 14.696719 
L 588.124687 14.696719 
L 597.124687 14.696719 
" style="fill: none; stroke: #d8805d; stroke-width: 1.25; stroke-linecap: square"/>
    </g>
    <g id="text_31">
     <!-- Морковь -->
     <g style="fill: #4b4b4b" transform="translate(604.324687 17.846719) scale(0.09 -0.09)">
      <defs>
       <path id="Ubuntu-41c" d="M 2541 614 
Q 2477 768 2371 1005 
Q 2266 1242 2144 1517 
Q 2022 1792 1884 2083 
Q 1747 2374 1625 2633 
Q 1504 2893 1398 3097 
Q 1293 3302 1229 3411 
Q 1158 2656 1113 1776 
Q 1069 896 1037 0 
L 429 0 
Q 454 576 486 1161 
Q 518 1747 560 2313 
Q 602 2880 650 3417 
Q 698 3955 755 4435 
L 1299 4435 
Q 1472 4154 1670 3770 
Q 1869 3386 2067 2966 
Q 2266 2547 2451 2128 
Q 2637 1709 2790 1363 
Q 2944 1709 3129 2128 
Q 3315 2547 3513 2966 
Q 3712 3386 3910 3770 
Q 4109 4154 4282 4435 
L 4826 4435 
Q 5043 2291 5152 0 
L 4544 0 
Q 4512 896 4467 1776 
Q 4422 2656 4352 3411 
Q 4288 3302 4182 3097 
Q 4077 2893 3955 2633 
Q 3834 2374 3696 2083 
Q 3558 1792 3436 1517 
Q 3315 1242 3209 1005 
Q 3104 768 3040 614 
L 2541 614 
z
" transform="scale(0.015625)"/>
      </defs>
      <use xlink:href="#Ubuntu-41c"/>
      <use xlink:href="#Ubuntu-43e" x="87.099991"/>
      <use xlink:href="#Ubuntu-440" x="146.099976"/>
      <use xlink:href="#Ubuntu-43a" x="204.999969"/>
      <use xlink:href="#Ubuntu-43e" x="255.824966"/>
      <use xlink:href="#Ubuntu-432" x="314.824951"/>
      <use xlink:href="#Ubuntu-44c" x="369.624939"/>
     </g>
    </g>
   </g>
   <g id="line2d_38">
    <path d="M 49.7475 138.518438 
L 526.8375 138.518438 
" clip-path="url(#p53d0985b29)" style="fill: none; stroke-dasharray: 2.775,1.2; stroke-dashoffset: 0; stroke: #c5c5c5; stroke-width: 0.75"/>
   </g>
  </g>
 </g>
 <defs>
  <clipPath id="p445346811f">
   <rect x="37.1925" y="193.958437" width="502.2" height="0"/>
  </clipPath>
  <clipPath id="p53d0985b29">
   <rect x="37.1925" y="27.638438" width="502.2" height="166.32"/>
  </clipPath>
 </defs>
</svg>
