<?xml version="1.0" encoding="utf-8" standalone="no"?>
<!DOCTYPE svg PUBLIC "-//W3C//DTD SVG 1.1//EN"
  "http://www.w3.org/Graphics/SVG/1.1/DTD/svg11.dtd">
<svg xmlns:xlink="http://www.w3.org/1999/xlink" width="553.9125pt" height="209.035938pt" viewBox="0 0 553.9125 209.035938" xmlns="http://www.w3.org/2000/svg" version="1.1">
 <metadata>
  <rdf:RDF xmlns:dc="http://purl.org/dc/elements/1.1/" xmlns:cc="http://creativecommons.org/ns#" xmlns:rdf="http://www.w3.org/1999/02/22-rdf-syntax-ns#">
   <cc:Work>
    <dc:type rdf:resource="http://purl.org/dc/dcmitype/StillImage"/>
    <dc:date>2024-04-19T22:50:21.270388</dc:date>
    <dc:format>image/svg+xml</dc:format>
    <dc:creator>
     <cc:Agent>
      <dc:title>Matplotlib v3.8.0, https://matplotlib.org/</dc:title>
     </cc:Agent>
    </dc:creator>
   </cc:Work>
  </rdf:RDF>
 </metadata>
 <defs>
  <style type="text/css">*{stroke-linejoin: round; stroke-linecap: butt}</style>
 </defs>
 <g id="figure_1">
  <g id="patch_1">
   <path d="M 0 209.035938 
L 553.9125 209.035938 
L 553.9125 0 
L 0 0 
L 0 209.035938 
z
" style="fill: none"/>
  </g>
  <g id="axes_1">
   <g id="patch_2">
    <path d="M 37.1925 166.148438 
L 539.3925 166.148438 
L 539.3925 27.548438 
L 37.1925 27.548438 
L 37.1925 166.148438 
z
" style="fill: none"/>
   </g>
   <g id="axes_2">
    <g id="patch_3">
     <path d="M 37.1925 166.148438 
L 539.3925 166.148438 
L 539.3925 166.148437 
L 37.1925 166.148437 
L 37.1925 166.148438 
z
" style="fill: none"/>
    </g>
    <g id="matplotlib.axis_1">
     <g id="xtick_1">
      <g id="line2d_1">
       <path d="M 37.1925 166.148438 
L 37.1925 166.148437 
" clip-path="url(#p63875be0c6)" style="fill: none; stroke-dasharray: 0.5,0.825; stroke-dashoffset: 0; stroke: #d9d9d9; stroke-width: 0.5"/>
      </g>
      <g id="text_1">
       <!-- 2021 -->
       <g style="fill: #999999" transform="translate(28.1675 200.355938) scale(0.08 -0.08)">
        <defs>
         <path id="Ubuntu-32" d="M 2989 3302 
Q 2989 3072 2896 2857 
Q 2803 2643 2649 2435 
Q 2496 2227 2304 2025 
Q 2112 1824 1920 1632 
Q 1811 1523 1667 1376 
Q 1523 1229 1395 1069 
Q 1267 909 1180 761 
Q 1094 614 1094 506 
L 3136 506 
L 3136 0 
L 448 0 
Q 442 38 442 76 
Q 442 115 442 147 
Q 442 448 541 707 
Q 640 966 800 1196 
Q 960 1427 1158 1632 
Q 1357 1837 1549 2029 
Q 1709 2182 1853 2332 
Q 1997 2483 2109 2633 
Q 2221 2784 2288 2944 
Q 2355 3104 2355 3283 
Q 2355 3475 2294 3609 
Q 2234 3744 2131 3833 
Q 2029 3923 1891 3964 
Q 1754 4006 1600 4006 
Q 1414 4006 1260 3955 
Q 1107 3904 985 3837 
Q 864 3770 781 3696 
Q 698 3622 653 3584 
L 358 4006 
Q 416 4070 531 4163 
Q 646 4256 806 4339 
Q 966 4422 1164 4480 
Q 1363 4538 1594 4538 
Q 2291 4538 2640 4214 
Q 2989 3891 2989 3302 
z
" transform="scale(0.015625)"/>
         <path id="Ubuntu-30" d="M 320 2221 
Q 320 3334 713 3936 
Q 1107 4538 1805 4538 
Q 2502 4538 2896 3936 
Q 3290 3334 3290 2221 
Q 3290 1107 2896 505 
Q 2502 -96 1805 -96 
Q 1107 -96 713 505 
Q 320 1107 320 2221 
z
M 2662 2221 
Q 2662 2586 2620 2912 
Q 2579 3238 2480 3481 
Q 2381 3725 2214 3869 
Q 2048 4013 1805 4013 
Q 1562 4013 1395 3869 
Q 1229 3725 1129 3481 
Q 1030 3238 988 2912 
Q 947 2586 947 2221 
Q 947 1856 988 1529 
Q 1030 1203 1129 960 
Q 1229 717 1395 573 
Q 1562 429 1805 429 
Q 2048 429 2214 573 
Q 2381 717 2480 960 
Q 2579 1203 2620 1529 
Q 2662 1856 2662 2221 
z
" transform="scale(0.015625)"/>
         <path id="Ubuntu-31" d="M 595 3520 
Q 960 3661 1305 3881 
Q 1651 4102 1939 4435 
L 2362 4435 
L 2362 0 
L 1766 0 
L 1766 3610 
Q 1690 3539 1578 3462 
Q 1466 3386 1334 3315 
Q 1203 3245 1059 3181 
Q 915 3117 781 3072 
L 595 3520 
z
" transform="scale(0.015625)"/>
        </defs>
        <use xlink:href="#Ubuntu-32"/>
        <use xlink:href="#Ubuntu-30" x="56.399994"/>
        <use xlink:href="#Ubuntu-32" x="112.799988"/>
        <use xlink:href="#Ubuntu-31" x="169.199982"/>
       </g>
      </g>
     </g>
     <g id="xtick_2">
      <g id="line2d_2">
       <path d="M 191.748149 166.148438 
L 191.748149 166.148437 
" clip-path="url(#p63875be0c6)" style="fill: none; stroke-dasharray: 0.5,0.825; stroke-dashoffset: 0; stroke: #d9d9d9; stroke-width: 0.5"/>
      </g>
      <g id="text_2">
       <!-- 2022 -->
       <g style="fill: #999999" transform="translate(182.723149 200.355938) scale(0.08 -0.08)">
        <use xlink:href="#Ubuntu-32"/>
        <use xlink:href="#Ubuntu-30" x="56.399994"/>
        <use xlink:href="#Ubuntu-32" x="112.799988"/>
        <use xlink:href="#Ubuntu-32" x="169.199982"/>
       </g>
      </g>
     </g>
     <g id="xtick_3">
      <g id="line2d_3">
       <path d="M 346.303798 166.148438 
L 346.303798 166.148437 
" clip-path="url(#p63875be0c6)" style="fill: none; stroke-dasharray: 0.5,0.825; stroke-dashoffset: 0; stroke: #d9d9d9; stroke-width: 0.5"/>
      </g>
      <g id="text_3">
       <!-- 2023 -->
       <g style="fill: #999999" transform="translate(337.278798 200.355938) scale(0.08 -0.08)">
        <defs>
         <path id="Ubuntu-33" d="M 1446 435 
Q 2016 435 2262 659 
Q 2509 883 2509 1261 
Q 2509 1504 2406 1670 
Q 2304 1837 2137 1936 
Q 1971 2035 1750 2076 
Q 1530 2118 1299 2118 
L 1146 2118 
L 1146 2605 
L 1357 2605 
Q 1517 2605 1686 2637 
Q 1856 2669 1997 2752 
Q 2138 2835 2227 2979 
Q 2317 3123 2317 3341 
Q 2317 3520 2253 3648 
Q 2189 3776 2083 3859 
Q 1978 3942 1840 3977 
Q 1702 4013 1549 4013 
Q 1242 4013 1027 3923 
Q 813 3834 666 3738 
L 435 4192 
Q 512 4243 630 4304 
Q 749 4365 896 4416 
Q 1043 4467 1212 4502 
Q 1382 4538 1568 4538 
Q 1920 4538 2176 4451 
Q 2432 4365 2598 4208 
Q 2765 4051 2848 3836 
Q 2931 3622 2931 3373 
Q 2931 3027 2732 2780 
Q 2534 2534 2253 2406 
Q 2426 2355 2586 2259 
Q 2746 2163 2864 2016 
Q 2982 1869 3056 1677 
Q 3130 1485 3130 1248 
Q 3130 960 3030 713 
Q 2931 467 2723 288 
Q 2515 109 2201 6 
Q 1888 -96 1459 -96 
Q 1293 -96 1117 -70 
Q 941 -45 787 -6 
Q 634 32 518 70 
Q 403 109 352 134 
L 467 653 
Q 576 602 829 518 
Q 1082 435 1446 435 
z
" transform="scale(0.015625)"/>
        </defs>
        <use xlink:href="#Ubuntu-32"/>
        <use xlink:href="#Ubuntu-30" x="56.399994"/>
        <use xlink:href="#Ubuntu-32" x="112.799988"/>
        <use xlink:href="#Ubuntu-33" x="169.199982"/>
       </g>
      </g>
     </g>
     <g id="xtick_4">
      <g id="line2d_4">
       <path d="M 500.859448 166.148438 
L 500.859448 166.148437 
" clip-path="url(#p63875be0c6)" style="fill: none; stroke-dasharray: 0.5,0.825; stroke-dashoffset: 0; stroke: #d9d9d9; stroke-width: 0.5"/>
      </g>
      <g id="text_4">
       <!-- 2024 -->
       <g style="fill: #999999" transform="translate(491.834448 200.355938) scale(0.08 -0.08)">
        <defs>
         <path id="Ubuntu-34" d="M 256 1536 
Q 378 1818 589 2192 
Q 800 2566 1065 2963 
Q 1331 3360 1635 3744 
Q 1939 4128 2246 4435 
L 2816 4435 
L 2816 1619 
L 3341 1619 
L 3341 1133 
L 2816 1133 
L 2816 0 
L 2240 0 
L 2240 1133 
L 256 1133 
L 256 1536 
z
M 2240 3731 
Q 2048 3526 1853 3273 
Q 1658 3021 1472 2745 
Q 1286 2470 1123 2182 
Q 960 1894 832 1619 
L 2240 1619 
L 2240 3731 
z
" transform="scale(0.015625)"/>
        </defs>
        <use xlink:href="#Ubuntu-32"/>
        <use xlink:href="#Ubuntu-30" x="56.399994"/>
        <use xlink:href="#Ubuntu-32" x="112.799988"/>
        <use xlink:href="#Ubuntu-34" x="169.199982"/>
       </g>
      </g>
     </g>
    </g>
    <g id="matplotlib.axis_2"/>
   </g>
   <g id="matplotlib.axis_3">
    <g id="xtick_5">
     <g id="line2d_5">
      <defs>
       <path id="m35cba038ec" d="M 0 0 
L 0 3 
" style="stroke: #cccccc; stroke-width: 0.75"/>
      </defs>
      <g>
       <use xlink:href="#m35cba038ec" x="37.1925" y="176.148438" style="fill: #cccccc; stroke: #cccccc; stroke-width: 0.75"/>
      </g>
     </g>
     <g id="text_5">
      <!-- Янв -->
      <g style="fill: #999999" transform="translate(30.116875 191.355938) scale(0.08 -0.08)">
       <defs>
        <path id="Ubuntu-42f" d="M 2272 3936 
Q 2029 3936 1808 3897 
Q 1587 3859 1414 3763 
Q 1242 3667 1139 3500 
Q 1037 3334 1037 3085 
Q 1037 2611 1341 2428 
Q 1645 2246 2253 2246 
L 2893 2246 
L 2893 3917 
Q 2822 3917 2726 3923 
Q 2643 3930 2531 3933 
Q 2419 3936 2272 3936 
z
M 2323 4480 
Q 2458 4480 2611 4473 
Q 2765 4467 2921 4454 
Q 3078 4442 3232 4422 
Q 3386 4403 3514 4371 
L 3514 0 
L 2893 0 
L 2893 1734 
L 2362 1734 
Q 2272 1734 2173 1737 
Q 2074 1741 1907 1760 
Q 1792 1606 1657 1401 
Q 1523 1197 1388 966 
Q 1254 736 1123 486 
Q 992 237 883 0 
L 230 0 
Q 333 250 473 518 
Q 614 787 764 1030 
Q 915 1274 1052 1482 
Q 1190 1690 1293 1824 
Q 1146 1869 986 1952 
Q 826 2035 691 2182 
Q 557 2330 470 2550 
Q 384 2771 384 3078 
Q 384 3424 518 3686 
Q 653 3949 905 4125 
Q 1158 4301 1516 4390 
Q 1875 4480 2323 4480 
z
" transform="scale(0.015625)"/>
        <path id="Ubuntu-43d" d="M 3238 0 
L 2643 0 
L 2643 1472 
L 1107 1472 
L 1107 0 
L 512 0 
L 512 3328 
L 1107 3328 
L 1107 1971 
L 2643 1971 
L 2643 3328 
L 3238 3328 
L 3238 0 
z
" transform="scale(0.015625)"/>
        <path id="Ubuntu-432" d="M 1094 448 
Q 1133 442 1203 435 
Q 1274 429 1363 425 
Q 1453 422 1552 419 
Q 1651 416 1741 416 
Q 1926 416 2096 441 
Q 2266 467 2390 531 
Q 2515 595 2588 700 
Q 2662 806 2662 973 
Q 2662 1133 2595 1238 
Q 2528 1344 2413 1408 
Q 2298 1472 2141 1497 
Q 1984 1523 1805 1523 
L 1094 1523 
L 1094 448 
z
M 1728 1965 
Q 1901 1965 2045 1987 
Q 2189 2010 2294 2067 
Q 2400 2125 2461 2221 
Q 2522 2317 2522 2464 
Q 2522 2618 2445 2707 
Q 2368 2797 2243 2845 
Q 2118 2893 1961 2909 
Q 1805 2925 1645 2925 
Q 1498 2925 1347 2918 
Q 1197 2912 1094 2906 
L 1094 1965 
L 1728 1965 
z
M 1715 -58 
Q 1338 -58 1018 -22 
Q 698 13 512 58 
L 512 3296 
Q 698 3341 1018 3376 
Q 1338 3411 1715 3411 
Q 1978 3411 2227 3366 
Q 2477 3322 2669 3216 
Q 2861 3110 2979 2928 
Q 3098 2746 3098 2477 
Q 3098 2234 2976 2061 
Q 2854 1888 2650 1792 
Q 2925 1696 3088 1507 
Q 3251 1318 3251 979 
Q 3251 678 3132 480 
Q 3014 282 2806 160 
Q 2598 38 2316 -10 
Q 2035 -58 1715 -58 
z
" transform="scale(0.015625)"/>
       </defs>
       <use xlink:href="#Ubuntu-42f"/>
       <use xlink:href="#Ubuntu-43d" x="63.499985"/>
       <use xlink:href="#Ubuntu-432" x="122.099976"/>
      </g>
     </g>
    </g>
    <g id="xtick_6">
     <g id="line2d_6">
      <g>
       <use xlink:href="#m35cba038ec" x="75.302112" y="176.148438" style="fill: #cccccc; stroke: #cccccc; stroke-width: 0.75"/>
      </g>
     </g>
     <g id="text_6">
      <!-- Апр -->
      <g style="fill: #999999" transform="translate(67.982112 191.355938) scale(0.08 -0.08)">
       <defs>
        <path id="Ubuntu-410" d="M 3514 0 
Q 3405 288 3309 566 
Q 3213 845 3110 1133 
L 1101 1133 
L 698 0 
L 51 0 
Q 307 704 531 1302 
Q 755 1901 969 2438 
Q 1184 2976 1395 3465 
Q 1606 3955 1837 4435 
L 2406 4435 
Q 2637 3955 2848 3465 
Q 3059 2976 3273 2438 
Q 3488 1901 3712 1302 
Q 3936 704 4192 0 
L 3514 0 
z
M 2931 1645 
Q 2726 2202 2524 2723 
Q 2323 3245 2106 3725 
Q 1882 3245 1680 2723 
Q 1478 2202 1280 1645 
L 2931 1645 
z
" transform="scale(0.015625)"/>
        <path id="Ubuntu-43f" d="M 3187 0 
L 2592 0 
L 2592 2829 
L 1107 2829 
L 1107 0 
L 512 0 
L 512 3328 
L 3187 3328 
L 3187 0 
z
" transform="scale(0.015625)"/>
        <path id="Ubuntu-440" d="M 2822 1658 
Q 2822 2240 2534 2553 
Q 2246 2867 1766 2867 
Q 1498 2867 1347 2848 
Q 1197 2829 1107 2803 
L 1107 704 
Q 1216 614 1421 531 
Q 1626 448 1869 448 
Q 2125 448 2307 541 
Q 2490 634 2605 797 
Q 2720 960 2771 1181 
Q 2822 1402 2822 1658 
z
M 3443 1658 
Q 3443 1280 3344 960 
Q 3245 640 3053 409 
Q 2861 179 2582 51 
Q 2304 -77 1946 -77 
Q 1658 -77 1437 0 
Q 1216 77 1107 147 
L 1107 -1184 
L 512 -1184 
L 512 3226 
Q 723 3277 1040 3337 
Q 1357 3398 1773 3398 
Q 2157 3398 2464 3276 
Q 2771 3155 2988 2931 
Q 3206 2707 3324 2384 
Q 3443 2061 3443 1658 
z
" transform="scale(0.015625)"/>
       </defs>
       <use xlink:href="#Ubuntu-410"/>
       <use xlink:href="#Ubuntu-43f" x="66.299988"/>
       <use xlink:href="#Ubuntu-440" x="124.099976"/>
      </g>
     </g>
    </g>
    <g id="xtick_7">
     <g id="line2d_7">
      <g>
       <use xlink:href="#m35cba038ec" x="113.835164" y="176.148438" style="fill: #cccccc; stroke: #cccccc; stroke-width: 0.75"/>
      </g>
     </g>
     <g id="text_7">
      <!-- Июл -->
      <g style="fill: #999999" transform="translate(105.287664 191.355938) scale(0.08 -0.08)">
       <defs>
        <path id="Ubuntu-418" d="M 550 0 
L 550 4435 
L 1158 4435 
L 1158 1152 
Q 1363 1491 1660 1926 
Q 1958 2362 2294 2813 
Q 2630 3264 2972 3689 
Q 3315 4115 3616 4435 
L 4109 4435 
L 4109 0 
L 3501 0 
L 3501 3462 
Q 3322 3258 3110 2989 
Q 2899 2720 2675 2416 
Q 2451 2112 2224 1785 
Q 1997 1459 1785 1142 
Q 1574 826 1392 531 
Q 1210 237 1069 0 
L 550 0 
z
" transform="scale(0.015625)"/>
        <path id="Ubuntu-44e" d="M 1107 1952 
L 1837 1952 
Q 1875 2285 2006 2553 
Q 2138 2822 2336 3014 
Q 2534 3206 2790 3308 
Q 3046 3411 3341 3411 
Q 3667 3411 3945 3286 
Q 4224 3162 4429 2931 
Q 4634 2701 4749 2377 
Q 4864 2054 4864 1664 
Q 4864 1267 4749 947 
Q 4634 627 4429 396 
Q 4224 166 3945 41 
Q 3667 -83 3341 -83 
Q 3034 -83 2768 29 
Q 2502 141 2304 342 
Q 2106 544 1981 832 
Q 1856 1120 1830 1472 
L 1107 1472 
L 1107 0 
L 512 0 
L 512 3328 
L 1107 3328 
L 1107 1952 
z
M 4250 1664 
Q 4250 2227 4003 2556 
Q 3757 2886 3341 2886 
Q 2925 2886 2678 2556 
Q 2432 2227 2432 1664 
Q 2432 1101 2678 771 
Q 2925 442 3341 442 
Q 3757 442 4003 771 
Q 4250 1101 4250 1664 
z
" transform="scale(0.015625)"/>
        <path id="Ubuntu-43b" d="M 1670 2829 
Q 1670 2618 1660 2378 
Q 1651 2138 1625 1898 
Q 1600 1658 1555 1424 
Q 1510 1190 1440 986 
Q 1370 781 1264 601 
Q 1158 422 1004 284 
Q 851 147 646 54 
Q 442 -38 166 -64 
L 83 435 
Q 397 499 579 672 
Q 762 845 870 1094 
Q 966 1312 1011 1587 
Q 1056 1862 1075 2160 
Q 1094 2458 1097 2758 
Q 1101 3059 1101 3328 
L 3315 3328 
L 3315 0 
L 2720 0 
L 2720 2829 
L 1670 2829 
z
" transform="scale(0.015625)"/>
       </defs>
       <use xlink:href="#Ubuntu-418"/>
       <use xlink:href="#Ubuntu-44e" x="72.799988"/>
       <use xlink:href="#Ubuntu-43b" x="153.899979"/>
      </g>
     </g>
    </g>
    <g id="xtick_8">
     <g id="line2d_8">
      <g>
       <use xlink:href="#m35cba038ec" x="152.791657" y="176.148438" style="fill: #cccccc; stroke: #cccccc; stroke-width: 0.75"/>
      </g>
     </g>
     <g id="text_8">
      <!-- Окт -->
      <g style="fill: #999999" transform="translate(145.679782 191.355938) scale(0.08 -0.08)">
       <defs>
        <path id="Ubuntu-41e" d="M 371 2221 
Q 371 2790 540 3225 
Q 710 3661 1001 3952 
Q 1293 4243 1680 4390 
Q 2067 4538 2502 4538 
Q 2931 4538 3312 4390 
Q 3693 4243 3981 3952 
Q 4269 3661 4438 3225 
Q 4608 2790 4608 2221 
Q 4608 1651 4438 1216 
Q 4269 781 3981 489 
Q 3693 198 3312 51 
Q 2931 -96 2502 -96 
Q 2067 -96 1680 51 
Q 1293 198 1001 489 
Q 710 781 540 1216 
Q 371 1651 371 2221 
z
M 1024 2221 
Q 1024 1818 1126 1488 
Q 1229 1158 1417 928 
Q 1606 698 1878 573 
Q 2150 448 2490 448 
Q 2829 448 3097 573 
Q 3366 698 3555 928 
Q 3744 1158 3846 1488 
Q 3949 1818 3949 2221 
Q 3949 2624 3846 2953 
Q 3744 3283 3555 3513 
Q 3366 3744 3097 3869 
Q 2829 3994 2490 3994 
Q 2150 3994 1878 3869 
Q 1606 3744 1417 3513 
Q 1229 3283 1126 2953 
Q 1024 2624 1024 2221 
z
" transform="scale(0.015625)"/>
        <path id="Ubuntu-43a" d="M 1728 1811 
Q 1926 1670 2156 1456 
Q 2387 1242 2608 992 
Q 2829 742 3021 483 
Q 3213 224 3347 0 
L 2643 0 
Q 2502 218 2313 445 
Q 2125 672 1920 883 
Q 1715 1094 1504 1273 
Q 1293 1453 1107 1574 
L 1107 0 
L 512 0 
L 512 3328 
L 1107 3328 
L 1107 1901 
Q 1261 2048 1459 2243 
Q 1658 2438 1859 2640 
Q 2061 2842 2233 3024 
Q 2406 3206 2515 3328 
L 3206 3328 
Q 3066 3174 2877 2979 
Q 2688 2784 2486 2579 
Q 2285 2374 2086 2172 
Q 1888 1971 1728 1811 
z
" transform="scale(0.015625)"/>
        <path id="Ubuntu-442" d="M 2861 3328 
L 2861 2829 
L 1779 2829 
L 1779 0 
L 1184 0 
L 1184 2829 
L 102 2829 
L 102 3328 
L 2861 3328 
z
" transform="scale(0.015625)"/>
       </defs>
       <use xlink:href="#Ubuntu-41e"/>
       <use xlink:href="#Ubuntu-43a" x="77.799988"/>
       <use xlink:href="#Ubuntu-442" x="131.499985"/>
      </g>
     </g>
    </g>
    <g id="xtick_9">
     <g id="line2d_9">
      <g>
       <use xlink:href="#m35cba038ec" x="191.748149" y="176.148438" style="fill: #cccccc; stroke: #cccccc; stroke-width: 0.75"/>
      </g>
     </g>
     <g id="text_9">
      <!-- Янв -->
      <g style="fill: #999999" transform="translate(184.672524 191.355938) scale(0.08 -0.08)">
       <use xlink:href="#Ubuntu-42f"/>
       <use xlink:href="#Ubuntu-43d" x="63.499985"/>
       <use xlink:href="#Ubuntu-432" x="122.099976"/>
      </g>
     </g>
    </g>
    <g id="xtick_10">
     <g id="line2d_10">
      <g>
       <use xlink:href="#m35cba038ec" x="229.857761" y="176.148438" style="fill: #cccccc; stroke: #cccccc; stroke-width: 0.75"/>
      </g>
     </g>
     <g id="text_10">
      <!-- Апр -->
      <g style="fill: #999999" transform="translate(222.537761 191.355938) scale(0.08 -0.08)">
       <use xlink:href="#Ubuntu-410"/>
       <use xlink:href="#Ubuntu-43f" x="66.299988"/>
       <use xlink:href="#Ubuntu-440" x="124.099976"/>
      </g>
     </g>
    </g>
    <g id="xtick_11">
     <g id="line2d_11">
      <g>
       <use xlink:href="#m35cba038ec" x="268.390814" y="176.148438" style="fill: #cccccc; stroke: #cccccc; stroke-width: 0.75"/>
      </g>
     </g>
     <g id="text_11">
      <!-- Июл -->
      <g style="fill: #999999" transform="translate(259.843314 191.355938) scale(0.08 -0.08)">
       <use xlink:href="#Ubuntu-418"/>
       <use xlink:href="#Ubuntu-44e" x="72.799988"/>
       <use xlink:href="#Ubuntu-43b" x="153.899979"/>
      </g>
     </g>
    </g>
    <g id="xtick_12">
     <g id="line2d_12">
      <g>
       <use xlink:href="#m35cba038ec" x="307.347306" y="176.148438" style="fill: #cccccc; stroke: #cccccc; stroke-width: 0.75"/>
      </g>
     </g>
     <g id="text_12">
      <!-- Окт -->
      <g style="fill: #999999" transform="translate(300.235431 191.355938) scale(0.08 -0.08)">
       <use xlink:href="#Ubuntu-41e"/>
       <use xlink:href="#Ubuntu-43a" x="77.799988"/>
       <use xlink:href="#Ubuntu-442" x="131.499985"/>
      </g>
     </g>
    </g>
    <g id="xtick_13">
     <g id="line2d_13">
      <g>
       <use xlink:href="#m35cba038ec" x="346.303798" y="176.148438" style="fill: #cccccc; stroke: #cccccc; stroke-width: 0.75"/>
      </g>
     </g>
     <g id="text_13">
      <!-- Янв -->
      <g style="fill: #999999" transform="translate(339.228173 191.355938) scale(0.08 -0.08)">
       <use xlink:href="#Ubuntu-42f"/>
       <use xlink:href="#Ubuntu-43d" x="63.499985"/>
       <use xlink:href="#Ubuntu-432" x="122.099976"/>
      </g>
     </g>
    </g>
    <g id="xtick_14">
     <g id="line2d_14">
      <g>
       <use xlink:href="#m35cba038ec" x="384.413411" y="176.148438" style="fill: #cccccc; stroke: #cccccc; stroke-width: 0.75"/>
      </g>
     </g>
     <g id="text_14">
      <!-- Апр -->
      <g style="fill: #999999" transform="translate(377.093411 191.355938) scale(0.08 -0.08)">
       <use xlink:href="#Ubuntu-410"/>
       <use xlink:href="#Ubuntu-43f" x="66.299988"/>
       <use xlink:href="#Ubuntu-440" x="124.099976"/>
      </g>
     </g>
    </g>
    <g id="xtick_15">
     <g id="line2d_15">
      <g>
       <use xlink:href="#m35cba038ec" x="422.946463" y="176.148438" style="fill: #cccccc; stroke: #cccccc; stroke-width: 0.75"/>
      </g>
     </g>
     <g id="text_15">
      <!-- Июл -->
      <g style="fill: #999999" transform="translate(414.398963 191.355938) scale(0.08 -0.08)">
       <use xlink:href="#Ubuntu-418"/>
       <use xlink:href="#Ubuntu-44e" x="72.799988"/>
       <use xlink:href="#Ubuntu-43b" x="153.899979"/>
      </g>
     </g>
    </g>
    <g id="xtick_16">
     <g id="line2d_16">
      <g>
       <use xlink:href="#m35cba038ec" x="461.902955" y="176.148438" style="fill: #cccccc; stroke: #cccccc; stroke-width: 0.75"/>
      </g>
     </g>
     <g id="text_16">
      <!-- Окт -->
      <g style="fill: #999999" transform="translate(454.79108 191.355938) scale(0.08 -0.08)">
       <use xlink:href="#Ubuntu-41e"/>
       <use xlink:href="#Ubuntu-43a" x="77.799988"/>
       <use xlink:href="#Ubuntu-442" x="131.499985"/>
      </g>
     </g>
    </g>
    <g id="xtick_17">
     <g id="line2d_17">
      <g>
       <use xlink:href="#m35cba038ec" x="500.859448" y="176.148438" style="fill: #cccccc; stroke: #cccccc; stroke-width: 0.75"/>
      </g>
     </g>
     <g id="text_17">
      <!-- Янв -->
      <g style="fill: #999999" transform="translate(493.783823 191.355938) scale(0.08 -0.08)">
       <use xlink:href="#Ubuntu-42f"/>
       <use xlink:href="#Ubuntu-43d" x="63.499985"/>
       <use xlink:href="#Ubuntu-432" x="122.099976"/>
      </g>
     </g>
    </g>
    <g id="xtick_18">
     <g id="line2d_18">
      <g>
       <use xlink:href="#m35cba038ec" x="539.3925" y="176.148438" style="fill: #cccccc; stroke: #cccccc; stroke-width: 0.75"/>
      </g>
     </g>
     <g id="text_18">
      <!-- Апр -->
      <g style="fill: #999999" transform="translate(532.0725 191.355938) scale(0.08 -0.08)">
       <use xlink:href="#Ubuntu-410"/>
       <use xlink:href="#Ubuntu-43f" x="66.299988"/>
       <use xlink:href="#Ubuntu-440" x="124.099976"/>
      </g>
     </g>
    </g>
   </g>
   <g id="matplotlib.axis_4">
    <g id="ytick_1">
     <g id="line2d_19">
      <defs>
       <path id="m5e5ff52b1b" d="M 0 0 
L -3 0 
" style="stroke: #cccccc; stroke-width: 0.75"/>
      </defs>
      <g>
       <use xlink:href="#m5e5ff52b1b" x="27.1925" y="166.148438" style="fill: #cccccc; stroke: #cccccc; stroke-width: 0.75"/>
      </g>
     </g>
     <g id="text_19">
      <!-- 0.6 -->
      <g style="fill: #999999" transform="translate(7.2 169.252188) scale(0.08 -0.08)">
       <defs>
        <path id="Ubuntu-2e" d="M 1216 346 
Q 1216 173 1101 45 
Q 986 -83 787 -83 
Q 589 -83 473 45 
Q 358 173 358 346 
Q 358 518 473 646 
Q 589 774 787 774 
Q 986 774 1101 646 
Q 1216 518 1216 346 
z
" transform="scale(0.015625)"/>
        <path id="Ubuntu-36" d="M 403 1779 
Q 403 2426 582 2922 
Q 762 3418 1091 3757 
Q 1421 4096 1891 4272 
Q 2362 4448 2950 4454 
L 2995 3955 
Q 2618 3949 2307 3872 
Q 1997 3795 1753 3628 
Q 1510 3462 1344 3196 
Q 1178 2931 1094 2541 
Q 1261 2618 1469 2669 
Q 1677 2720 1901 2720 
Q 2278 2720 2540 2605 
Q 2803 2490 2969 2301 
Q 3136 2112 3209 1865 
Q 3283 1619 3283 1350 
Q 3283 1107 3200 851 
Q 3117 595 2947 384 
Q 2778 173 2515 38 
Q 2253 -96 1894 -96 
Q 1165 -96 784 403 
Q 403 902 403 1779 
z
M 1837 2234 
Q 1613 2234 1421 2192 
Q 1229 2150 1037 2067 
Q 1030 1997 1027 1923 
Q 1024 1850 1024 1779 
Q 1024 1498 1062 1248 
Q 1101 998 1200 809 
Q 1299 621 1465 509 
Q 1632 397 1888 397 
Q 2099 397 2246 486 
Q 2394 576 2490 717 
Q 2586 858 2627 1021 
Q 2669 1184 2669 1338 
Q 2669 1773 2461 2003 
Q 2253 2234 1837 2234 
z
" transform="scale(0.015625)"/>
       </defs>
       <use xlink:href="#Ubuntu-30"/>
       <use xlink:href="#Ubuntu-2e" x="56.399994"/>
       <use xlink:href="#Ubuntu-36" x="80.999985"/>
      </g>
     </g>
    </g>
    <g id="ytick_2">
     <g id="line2d_20">
      <g>
       <use xlink:href="#m5e5ff52b1b" x="27.1925" y="146.348438" style="fill: #cccccc; stroke: #cccccc; stroke-width: 0.75"/>
      </g>
     </g>
     <g id="text_20">
      <!-- 0.8 -->
      <g style="fill: #999999" transform="translate(7.2 149.452188) scale(0.08 -0.08)">
       <defs>
        <path id="Ubuntu-38" d="M 3258 1152 
Q 3258 883 3165 656 
Q 3072 429 2889 259 
Q 2707 90 2432 -3 
Q 2157 -96 1798 -96 
Q 1382 -96 1104 22 
Q 826 141 659 320 
Q 493 499 422 713 
Q 352 928 352 1120 
Q 352 1306 413 1475 
Q 474 1645 573 1792 
Q 672 1939 803 2057 
Q 934 2176 1082 2266 
Q 454 2624 454 3322 
Q 454 3565 550 3785 
Q 646 4006 822 4172 
Q 998 4339 1248 4438 
Q 1498 4538 1805 4538 
Q 2163 4538 2419 4429 
Q 2675 4320 2838 4150 
Q 3002 3981 3075 3776 
Q 3149 3571 3149 3379 
Q 3149 3194 3094 3030 
Q 3040 2867 2947 2726 
Q 2854 2586 2736 2477 
Q 2618 2368 2490 2285 
Q 3245 1926 3258 1152 
z
M 954 1114 
Q 954 998 995 873 
Q 1037 749 1139 643 
Q 1242 538 1402 467 
Q 1562 397 1805 397 
Q 2022 397 2185 461 
Q 2349 525 2451 624 
Q 2554 723 2605 851 
Q 2656 979 2656 1114 
Q 2656 1318 2579 1472 
Q 2502 1626 2358 1741 
Q 2214 1856 2012 1936 
Q 1811 2016 1555 2074 
Q 1267 1914 1110 1677 
Q 954 1440 954 1114 
z
M 2554 3386 
Q 2554 3482 2512 3597 
Q 2470 3712 2380 3811 
Q 2291 3910 2150 3977 
Q 2010 4045 1805 4045 
Q 1600 4045 1456 3981 
Q 1312 3917 1222 3817 
Q 1133 3718 1091 3600 
Q 1050 3482 1050 3366 
Q 1050 3226 1101 3085 
Q 1152 2944 1261 2822 
Q 1370 2701 1546 2605 
Q 1722 2509 1965 2451 
Q 2234 2611 2394 2825 
Q 2554 3040 2554 3386 
z
" transform="scale(0.015625)"/>
       </defs>
       <use xlink:href="#Ubuntu-30"/>
       <use xlink:href="#Ubuntu-2e" x="56.399994"/>
       <use xlink:href="#Ubuntu-38" x="80.999985"/>
      </g>
     </g>
    </g>
    <g id="ytick_3">
     <g id="line2d_21">
      <g>
       <use xlink:href="#m5e5ff52b1b" x="27.1925" y="126.548438" style="fill: #cccccc; stroke: #cccccc; stroke-width: 0.75"/>
      </g>
     </g>
     <g id="text_21">
      <!-- 1.0 -->
      <g style="fill: #999999" transform="translate(7.2 129.652188) scale(0.08 -0.08)">
       <use xlink:href="#Ubuntu-31"/>
       <use xlink:href="#Ubuntu-2e" x="56.399994"/>
       <use xlink:href="#Ubuntu-30" x="80.999985"/>
      </g>
     </g>
    </g>
    <g id="ytick_4">
     <g id="line2d_22">
      <g>
       <use xlink:href="#m5e5ff52b1b" x="27.1925" y="106.748438" style="fill: #cccccc; stroke: #cccccc; stroke-width: 0.75"/>
      </g>
     </g>
     <g id="text_22">
      <!-- 1.2 -->
      <g style="fill: #999999" transform="translate(7.2 109.852188) scale(0.08 -0.08)">
       <use xlink:href="#Ubuntu-31"/>
       <use xlink:href="#Ubuntu-2e" x="56.399994"/>
       <use xlink:href="#Ubuntu-32" x="80.999985"/>
      </g>
     </g>
    </g>
    <g id="ytick_5">
     <g id="line2d_23">
      <g>
       <use xlink:href="#m5e5ff52b1b" x="27.1925" y="86.948438" style="fill: #cccccc; stroke: #cccccc; stroke-width: 0.75"/>
      </g>
     </g>
     <g id="text_23">
      <!-- 1.4 -->
      <g style="fill: #999999" transform="translate(7.2 90.052188) scale(0.08 -0.08)">
       <use xlink:href="#Ubuntu-31"/>
       <use xlink:href="#Ubuntu-2e" x="56.399994"/>
       <use xlink:href="#Ubuntu-34" x="80.999985"/>
      </g>
     </g>
    </g>
    <g id="ytick_6">
     <g id="line2d_24">
      <g>
       <use xlink:href="#m5e5ff52b1b" x="27.1925" y="67.148438" style="fill: #cccccc; stroke: #cccccc; stroke-width: 0.75"/>
      </g>
     </g>
     <g id="text_24">
      <!-- 1.6 -->
      <g style="fill: #999999" transform="translate(7.2 70.252188) scale(0.08 -0.08)">
       <use xlink:href="#Ubuntu-31"/>
       <use xlink:href="#Ubuntu-2e" x="56.399994"/>
       <use xlink:href="#Ubuntu-36" x="80.999985"/>
      </g>
     </g>
    </g>
    <g id="ytick_7">
     <g id="line2d_25">
      <g>
       <use xlink:href="#m5e5ff52b1b" x="27.1925" y="47.348438" style="fill: #cccccc; stroke: #cccccc; stroke-width: 0.75"/>
      </g>
     </g>
     <g id="text_25">
      <!-- 1.8 -->
      <g style="fill: #999999" transform="translate(7.2 50.452188) scale(0.08 -0.08)">
       <use xlink:href="#Ubuntu-31"/>
       <use xlink:href="#Ubuntu-2e" x="56.399994"/>
       <use xlink:href="#Ubuntu-38" x="80.999985"/>
      </g>
     </g>
    </g>
    <g id="ytick_8">
     <g id="line2d_26">
      <g>
       <use xlink:href="#m5e5ff52b1b" x="27.1925" y="27.548438" style="fill: #cccccc; stroke: #cccccc; stroke-width: 0.75"/>
      </g>
     </g>
     <g id="text_26">
      <!-- 2.0 -->
      <g style="fill: #999999" transform="translate(7.2 30.652188) scale(0.08 -0.08)">
       <use xlink:href="#Ubuntu-32"/>
       <use xlink:href="#Ubuntu-2e" x="56.399994"/>
       <use xlink:href="#Ubuntu-30" x="80.999985"/>
      </g>
     </g>
    </g>
   </g>
   <g id="line2d_27">
    <path d="M 37.1925 126.548438 
L 50.278075 124.197865 
L 53.549468 123.277299 
L 56.820862 122.063602 
L 60.092256 120.476793 
L 63.363649 118.43712 
L 69.906437 113.655124 
L 71.542134 112.668831 
L 73.177831 111.897579 
L 74.813527 111.407046 
L 76.449224 111.261885 
L 78.084921 111.485621 
L 79.720618 112.047609 
L 81.356315 112.913504 
L 82.992012 114.048963 
L 84.627708 115.419643 
L 86.263405 116.9912 
L 89.534799 120.598973 
L 96.077586 128.33456 
L 97.713283 130.038075 
L 99.34898 131.531426 
L 100.984677 132.755604 
L 102.620374 133.657525 
L 104.256071 134.255167 
L 105.891767 134.613441 
L 109.163161 134.874865 
L 112.434555 134.96775 
L 114.070252 135.115353 
L 115.705948 135.408722 
L 118.977342 136.340122 
L 123.884433 137.879226 
L 125.520129 138.237986 
L 127.155826 138.439549 
L 128.791523 138.44284 
L 130.42722 138.242087 
L 132.062917 137.842688 
L 133.698614 137.250045 
L 135.334311 136.46956 
L 136.970007 135.506635 
L 138.605704 134.366673 
L 140.241401 133.055078 
L 143.512795 129.999201 
L 150.055582 123.437782 
L 151.691279 121.980569 
L 153.326976 120.691436 
L 154.962673 119.59512 
L 156.598369 118.663565 
L 159.869763 117.152469 
L 168.048247 113.797205 
L 172.955338 111.603703 
L 174.591035 111.021889 
L 176.226732 110.582192 
L 177.862428 110.325075 
L 179.498125 110.289724 
L 181.133822 110.477201 
L 182.769519 110.844831 
L 186.040913 111.940215 
L 190.948003 113.807355 
L 194.219397 114.702199 
L 195.855094 114.977623 
L 197.490791 115.13232 
L 199.126487 115.161871 
L 200.762184 115.061856 
L 202.397881 114.827856 
L 204.033578 114.455451 
L 205.669275 113.942497 
L 208.940668 112.589947 
L 215.483456 109.5191 
L 218.754849 108.338723 
L 220.390546 107.951594 
L 222.026243 107.739726 
L 223.66194 107.732776 
L 225.297637 107.960403 
L 226.933334 108.452263 
L 228.569031 109.238017 
L 230.204727 110.34732 
L 231.840424 111.791297 
L 233.476121 113.500844 
L 241.654605 122.853846 
L 243.290302 124.249872 
L 244.925999 125.310354 
L 246.561696 126.079886 
L 248.197393 126.621421 
L 251.468786 127.272311 
L 254.74018 127.766642 
L 256.375877 128.112264 
L 259.647271 129.135369 
L 267.825755 132.125171 
L 269.461452 132.525451 
L 272.732845 132.966378 
L 276.004239 133.032235 
L 279.275633 132.855141 
L 285.81842 132.209098 
L 289.089814 131.653842 
L 292.361207 130.751812 
L 293.996904 130.124226 
L 297.268298 128.467837 
L 305.446782 123.718974 
L 307.082479 123.013088 
L 308.718176 122.483994 
L 310.353873 122.11834 
L 313.625266 121.722875 
L 320.168054 121.190133 
L 323.439447 120.512487 
L 331.617932 118.462396 
L 333.253628 118.243968 
L 336.525022 118.164862 
L 341.432113 118.526886 
L 344.703506 118.729628 
L 347.9749 118.624782 
L 351.246294 118.148521 
L 354.517687 117.376815 
L 357.789081 116.389693 
L 369.238959 112.648999 
L 372.510353 112.011846 
L 375.781746 111.782956 
L 377.417443 111.842208 
L 379.05314 112.027092 
L 380.688837 112.344982 
L 382.324534 112.803253 
L 383.960231 113.409281 
L 385.595927 114.169153 
L 388.867321 116.060816 
L 395.410108 120.262669 
L 397.045805 121.176448 
L 398.681502 121.961263 
L 400.317199 122.608131 
L 401.952896 123.124647 
L 403.588593 123.518649 
L 406.859986 123.970459 
L 410.13138 124.026259 
L 413.402774 123.76037 
L 424.852652 122.380982 
L 431.395439 122.164285 
L 434.666833 121.727214 
L 436.302529 121.323299 
L 437.938226 120.763452 
L 439.573923 120.047162 
L 441.20962 119.17826 
L 442.845317 118.160574 
L 444.481014 116.997936 
L 447.752407 114.253118 
L 451.023801 110.979459 
L 454.295195 107.286142 
L 459.202285 101.320685 
L 467.380769 91.141557 
L 469.016466 88.84544 
L 470.652163 86.331788 
L 472.28786 83.542855 
L 473.923557 80.420891 
L 475.559254 76.912162 
L 478.830647 69.05123 
L 482.102041 61.177287 
L 483.737738 57.657805 
L 485.373435 54.64191 
L 487.009132 52.29855 
L 488.644828 50.784811 
L 490.280525 50.083946 
L 491.916222 50.047233 
L 493.551919 50.52266 
L 495.187616 51.358214 
L 500.094706 54.505519 
L 501.730403 55.274483 
L 503.3661 55.788005 
L 505.001797 56.08877 
L 506.637494 56.220057 
L 509.908887 56.14731 
L 514.815978 55.849063 
L 516.451675 55.872328 
L 518.087372 56.029063 
L 519.723068 56.362548 
L 521.358765 56.91606 
L 522.994462 57.732878 
L 524.630159 58.856281 
L 526.265856 60.329547 
L 526.265856 60.329547 
" clip-path="url(#p9c7e3b2f0f)" style="fill: none; stroke: #5d5d5d; stroke-width: 1.2; stroke-linecap: square"/>
   </g>
   <g id="line2d_28">
    <path d="M 37.1925 126.548438 
L 46.760264 126.75117 
L 49.949519 126.496622 
L 53.138774 125.881711 
L 54.733401 125.401752 
L 56.328029 124.78686 
L 57.922656 124.022088 
L 59.517284 123.092488 
L 61.111911 121.983113 
L 62.706538 120.679015 
L 65.895793 117.528164 
L 70.679675 112.562288 
L 72.274303 111.174939 
L 73.86893 110.059837 
L 75.463558 109.299949 
L 77.058185 108.971279 
L 78.652812 109.090575 
L 80.24744 109.644638 
L 81.842067 110.62004 
L 83.436695 112.00335 
L 85.031322 113.781139 
L 86.625949 115.939976 
L 88.220577 118.466432 
L 89.815204 121.341993 
L 93.004459 127.8015 
L 96.193714 134.458228 
L 97.788341 137.579753 
L 99.382969 140.413627 
L 100.977596 142.847532 
L 102.572223 144.775683 
L 104.166851 146.192193 
L 105.761478 147.169179 
L 107.356105 147.780826 
L 108.950733 148.101323 
L 110.54536 148.204855 
L 113.734615 148.057774 
L 118.518497 147.85667 
L 123.302379 147.930287 
L 131.275516 148.250151 
L 132.870144 148.164361 
L 134.464771 147.932694 
L 136.059399 147.510803 
L 137.654026 146.854344 
L 139.248653 145.91897 
L 140.843281 144.661176 
L 142.437908 143.081962 
L 144.032536 141.248075 
L 147.22179 137.104441 
L 152.005673 130.779947 
L 153.6003 128.930514 
L 155.194927 127.294709 
L 158.384182 124.543441 
L 161.573437 122.250281 
L 172.735829 114.791674 
L 174.330456 113.984867 
L 175.925084 113.380817 
L 177.519711 113.0293 
L 179.114338 112.980071 
L 180.708966 113.258188 
L 182.303593 113.817053 
L 183.898221 114.597138 
L 187.087475 116.582874 
L 191.871358 119.732512 
L 193.465985 120.599557 
L 195.060612 121.326085 
L 196.65524 121.906063 
L 198.249867 122.333456 
L 199.844495 122.60223 
L 201.439122 122.706352 
L 203.033749 122.639789 
L 204.628377 122.396505 
L 206.223004 121.975714 
L 207.817632 121.401313 
L 211.006886 119.916287 
L 218.980023 115.699011 
L 220.574651 115.042527 
L 222.169278 114.56132 
L 223.763906 114.312557 
L 225.358533 114.353405 
L 226.95316 114.741032 
L 228.547788 115.532607 
L 230.142415 116.785295 
L 231.737043 118.542022 
L 233.33167 120.734783 
L 236.520925 125.948008 
L 239.71018 131.462668 
L 241.304807 134.032225 
L 242.899434 136.316166 
L 244.494062 138.204509 
L 246.088689 139.693058 
L 247.683316 140.839566 
L 249.277944 141.702571 
L 250.872571 142.34061 
L 254.061826 143.175941 
L 262.034963 144.854584 
L 266.818845 145.739773 
L 270.0081 146.062149 
L 273.197355 146.086962 
L 276.38661 145.826399 
L 279.575864 145.300976 
L 282.765119 144.531111 
L 285.954374 143.522804 
L 289.143629 142.252436 
L 292.332884 140.692751 
L 295.522138 138.816731 
L 298.711393 136.656085 
L 305.089903 132.166922 
L 308.279158 130.20961 
L 311.468412 128.610328 
L 314.657667 127.265138 
L 327.414686 122.289513 
L 329.009314 121.828539 
L 330.603941 121.495975 
L 332.198569 121.323267 
L 333.793196 121.34183 
L 335.387823 121.564387 
L 336.982451 121.953508 
L 340.171706 123.048431 
L 344.955588 124.79622 
L 346.550215 125.223913 
L 348.144843 125.508226 
L 349.73947 125.648861 
L 351.334097 125.652988 
L 352.928725 125.527777 
L 354.523352 125.280398 
L 357.712607 124.447813 
L 360.901862 123.214861 
L 364.091117 121.696912 
L 370.469626 118.501138 
L 373.658881 117.175823 
L 375.253508 116.665555 
L 376.848136 116.296195 
L 378.442763 116.097683 
L 380.037391 116.099956 
L 381.632018 116.332952 
L 383.226645 116.826611 
L 384.821273 117.61087 
L 386.4159 118.706979 
L 388.010527 120.074157 
L 391.199782 123.350596 
L 395.983664 128.602524 
L 397.578292 130.171653 
L 399.172919 131.541705 
L 400.767547 132.694184 
L 402.362174 133.63486 
L 403.956801 134.369746 
L 405.551429 134.904854 
L 407.146056 135.246196 
L 408.740684 135.399785 
L 410.335311 135.371634 
L 411.929938 135.168993 
L 413.524566 134.81449 
L 416.713821 133.782239 
L 423.09233 131.355281 
L 426.281585 130.457864 
L 431.065467 129.531742 
L 435.849349 128.621074 
L 439.038604 127.748292 
L 440.633232 127.164869 
L 442.227859 126.45108 
L 443.822486 125.582647 
L 445.417114 124.53529 
L 447.011741 123.28473 
L 448.606369 121.806689 
L 450.200996 120.07764 
L 451.795623 118.102476 
L 454.984878 113.581315 
L 459.76876 106.027456 
L 464.552643 98.560073 
L 469.336525 91.24718 
L 472.52578 85.876545 
L 474.120407 82.903005 
L 477.309662 76.201119 
L 482.093544 65.451485 
L 483.688171 62.169911 
L 485.282799 59.244303 
L 486.877426 56.797748 
L 488.472054 54.953186 
L 490.066681 53.779411 
L 491.661308 53.210778 
L 493.255936 53.161128 
L 494.850563 53.544303 
L 496.445191 54.274148 
L 498.039818 55.264504 
L 501.229073 57.682119 
L 504.418328 60.10789 
L 506.012955 61.10844 
L 507.607582 61.852557 
L 509.20221 62.254084 
L 510.796837 62.226862 
L 512.391465 61.684735 
L 513.986092 60.541545 
L 513.986092 60.541545 
" clip-path="url(#p9c7e3b2f0f)" style="fill: none; stroke-dasharray: 4.44,1.92; stroke-dashoffset: 0; stroke: #5d5d5d; stroke-width: 1.2"/>
   </g>
   <g id="patch_4">
    <path d="M 27.1925 166.148438 
L 27.1925 27.548438 
" style="fill: none; stroke: #cccccc; stroke-width: 0.75; stroke-linejoin: miter; stroke-linecap: square"/>
   </g>
   <g id="patch_5">
    <path d="M 37.1925 176.148438 
L 539.3925 176.148438 
" style="fill: none; stroke: #cccccc; stroke-width: 0.75; stroke-linejoin: miter; stroke-linecap: square"/>
   </g>
   <g id="legend_1">
    <g id="line2d_29">
     <path d="M 45.2925 14.633438 
L 54.2925 14.633438 
L 63.2925 14.633438 
" style="fill: none; stroke: #5d5d5d; stroke-width: 1.2; stroke-linecap: square"/>
    </g>
    <g id="text_27">
     <!-- Цены для потребителей -->
     <g style="fill: #4b4b4b" transform="translate(70.4925 17.783438) scale(0.09 -0.09)">
      <defs>
       <path id="Ubuntu-426" d="M 3923 531 
L 4480 531 
L 4480 -1184 
L 3891 -1184 
L 3891 0 
L 550 0 
L 550 4435 
L 1171 4435 
L 1171 531 
L 3302 531 
L 3302 4435 
L 3923 4435 
L 3923 531 
z
" transform="scale(0.015625)"/>
       <path id="Ubuntu-435" d="M 326 1658 
Q 326 2099 454 2428 
Q 582 2758 793 2976 
Q 1005 3194 1280 3302 
Q 1555 3411 1843 3411 
Q 2515 3411 2873 2992 
Q 3232 2573 3232 1715 
Q 3232 1677 3232 1616 
Q 3232 1555 3226 1504 
L 947 1504 
Q 986 986 1248 717 
Q 1510 448 2067 448 
Q 2381 448 2595 502 
Q 2810 557 2918 608 
L 3002 109 
Q 2893 51 2621 -13 
Q 2349 -77 2003 -77 
Q 1568 -77 1251 54 
Q 934 186 729 416 
Q 525 646 425 963 
Q 326 1280 326 1658 
z
M 2611 1984 
Q 2618 2387 2410 2646 
Q 2202 2906 1837 2906 
Q 1632 2906 1475 2826 
Q 1318 2746 1209 2618 
Q 1101 2490 1040 2323 
Q 979 2157 960 1984 
L 2611 1984 
z
" transform="scale(0.015625)"/>
       <path id="Ubuntu-44b" d="M 1734 1645 
Q 1562 1645 1398 1635 
Q 1235 1626 1107 1594 
L 1107 448 
Q 1146 442 1219 435 
Q 1293 429 1379 425 
Q 1466 422 1555 419 
Q 1645 416 1715 416 
Q 2106 416 2317 563 
Q 2528 710 2528 1037 
Q 2528 1197 2461 1312 
Q 2394 1427 2282 1500 
Q 2170 1574 2029 1609 
Q 1888 1645 1734 1645 
z
M 512 3328 
L 1107 3328 
L 1107 2054 
Q 1216 2080 1424 2105 
Q 1632 2131 1824 2131 
Q 2086 2131 2323 2070 
Q 2560 2010 2739 1878 
Q 2918 1747 3024 1539 
Q 3130 1331 3130 1043 
Q 3130 742 3027 531 
Q 2925 320 2739 185 
Q 2554 51 2291 -9 
Q 2029 -70 1715 -70 
Q 1414 -70 1107 -35 
Q 800 0 512 70 
L 512 3328 
z
M 4339 0 
L 3744 0 
L 3744 3328 
L 4339 3328 
L 4339 0 
z
" transform="scale(0.015625)"/>
       <path id="Ubuntu-20" transform="scale(0.015625)"/>
       <path id="Ubuntu-434" d="M 102 486 
L 461 486 
Q 672 794 797 1120 
Q 922 1446 986 1795 
Q 1050 2144 1069 2525 
Q 1088 2906 1094 3328 
L 3277 3328 
L 3277 486 
L 3725 486 
L 3725 -928 
L 3162 -928 
L 3162 0 
L 666 0 
L 666 -928 
L 102 -928 
L 102 486 
z
M 2682 486 
L 2682 2829 
L 1638 2829 
Q 1632 2528 1606 2224 
Q 1581 1920 1523 1622 
Q 1466 1325 1360 1040 
Q 1254 755 1094 486 
L 2682 486 
z
" transform="scale(0.015625)"/>
       <path id="Ubuntu-44f" d="M 1888 1293 
Q 1792 1293 1702 1296 
Q 1613 1299 1530 1306 
Q 1325 998 1136 649 
Q 947 301 800 0 
L 198 0 
Q 275 186 377 381 
Q 480 576 585 761 
Q 691 947 800 1113 
Q 909 1280 1005 1414 
Q 826 1478 710 1571 
Q 595 1664 524 1779 
Q 454 1894 425 2025 
Q 397 2157 397 2291 
Q 397 2573 502 2784 
Q 608 2995 793 3132 
Q 979 3270 1232 3340 
Q 1485 3411 1786 3411 
Q 2208 3411 2502 3372 
Q 2797 3334 2995 3283 
L 2995 0 
L 2406 0 
L 2406 1293 
L 1888 1293 
z
M 2406 2886 
Q 2336 2899 2173 2912 
Q 2010 2925 1798 2925 
Q 1434 2925 1210 2774 
Q 986 2624 986 2298 
Q 986 1978 1216 1856 
Q 1446 1734 1811 1734 
L 2406 1734 
L 2406 2886 
z
" transform="scale(0.015625)"/>
       <path id="Ubuntu-43e" d="M 3450 1664 
Q 3450 1267 3334 947 
Q 3219 627 3011 396 
Q 2803 166 2515 41 
Q 2227 -83 1888 -83 
Q 1549 -83 1261 41 
Q 973 166 765 396 
Q 557 627 441 947 
Q 326 1267 326 1664 
Q 326 2054 441 2377 
Q 557 2701 765 2931 
Q 973 3162 1261 3286 
Q 1549 3411 1888 3411 
Q 2227 3411 2515 3286 
Q 2803 3162 3011 2931 
Q 3219 2701 3334 2377 
Q 3450 2054 3450 1664 
z
M 2829 1664 
Q 2829 2227 2576 2556 
Q 2323 2886 1888 2886 
Q 1453 2886 1200 2556 
Q 947 2227 947 1664 
Q 947 1101 1200 771 
Q 1453 442 1888 442 
Q 2323 442 2576 771 
Q 2829 1101 2829 1664 
z
" transform="scale(0.015625)"/>
       <path id="Ubuntu-431" d="M 1050 2944 
Q 1248 3104 1513 3190 
Q 1779 3277 2022 3277 
Q 2739 3277 3107 2838 
Q 3475 2400 3475 1619 
Q 3475 1286 3385 979 
Q 3296 672 3107 435 
Q 2918 198 2630 57 
Q 2342 -83 1946 -83 
Q 1491 -83 1190 83 
Q 890 250 714 538 
Q 538 826 467 1210 
Q 397 1594 397 2022 
Q 397 2579 477 3059 
Q 557 3539 768 3904 
Q 979 4269 1353 4509 
Q 1728 4749 2317 4832 
Q 2490 4858 2621 4874 
Q 2752 4890 2851 4902 
Q 2950 4915 3033 4931 
Q 3117 4947 3206 4966 
L 3270 4429 
Q 3226 4416 3178 4409 
Q 3130 4403 3043 4390 
Q 2957 4378 2813 4358 
Q 2669 4339 2438 4314 
Q 1805 4243 1465 3929 
Q 1126 3616 1050 2944 
z
M 1011 1926 
Q 1011 1626 1052 1357 
Q 1094 1088 1200 883 
Q 1306 678 1485 560 
Q 1664 442 1946 442 
Q 2189 442 2361 534 
Q 2534 627 2643 787 
Q 2752 947 2803 1161 
Q 2854 1376 2854 1619 
Q 2854 1837 2812 2041 
Q 2771 2246 2662 2406 
Q 2554 2566 2371 2662 
Q 2189 2758 1914 2758 
Q 1645 2758 1398 2643 
Q 1152 2528 1018 2362 
Q 1011 2291 1011 2163 
Q 1011 2035 1011 1926 
z
" transform="scale(0.015625)"/>
       <path id="Ubuntu-438" d="M 3309 3328 
L 3309 0 
L 2733 0 
L 2733 2534 
Q 2541 2291 2310 1964 
Q 2080 1638 1849 1289 
Q 1619 941 1408 601 
Q 1197 262 1043 0 
L 512 0 
L 512 3328 
L 1088 3328 
L 1088 934 
Q 1254 1210 1465 1539 
Q 1677 1869 1904 2192 
Q 2131 2515 2358 2812 
Q 2586 3110 2784 3328 
L 3309 3328 
z
" transform="scale(0.015625)"/>
       <path id="Ubuntu-439" d="M 3309 3328 
L 3309 0 
L 2733 0 
L 2733 2534 
Q 2541 2291 2310 1964 
Q 2080 1638 1849 1289 
Q 1619 941 1408 601 
Q 1197 262 1043 0 
L 512 0 
L 512 3328 
L 1088 3328 
L 1088 934 
Q 1254 1210 1465 1539 
Q 1677 1869 1904 2192 
Q 2131 2515 2358 2812 
Q 2586 3110 2784 3328 
L 3309 3328 
z
M 1917 3866 
Q 1514 3866 1261 4070 
Q 1008 4275 957 4640 
L 1411 4762 
Q 1462 4557 1584 4429 
Q 1706 4301 1917 4301 
Q 2128 4301 2249 4429 
Q 2371 4557 2422 4762 
L 2870 4640 
Q 2819 4275 2569 4070 
Q 2320 3866 1917 3866 
z
" transform="scale(0.015625)"/>
      </defs>
      <use xlink:href="#Ubuntu-426"/>
      <use xlink:href="#Ubuntu-435" x="71.799988"/>
      <use xlink:href="#Ubuntu-43d" x="127.699982"/>
      <use xlink:href="#Ubuntu-44b" x="186.299973"/>
      <use xlink:href="#Ubuntu-20" x="262.09996"/>
      <use xlink:href="#Ubuntu-434" x="285.199951"/>
      <use xlink:href="#Ubuntu-43b" x="347.624939"/>
      <use xlink:href="#Ubuntu-44f" x="407.424927"/>
      <use xlink:href="#Ubuntu-20" x="462.224915"/>
      <use xlink:href="#Ubuntu-43f" x="485.324905"/>
      <use xlink:href="#Ubuntu-43e" x="543.124893"/>
      <use xlink:href="#Ubuntu-442" x="602.124878"/>
      <use xlink:href="#Ubuntu-440" x="648.424866"/>
      <use xlink:href="#Ubuntu-435" x="707.32486"/>
      <use xlink:href="#Ubuntu-431" x="763.224854"/>
      <use xlink:href="#Ubuntu-438" x="822.724838"/>
      <use xlink:href="#Ubuntu-442" x="882.424835"/>
      <use xlink:href="#Ubuntu-435" x="928.724823"/>
      <use xlink:href="#Ubuntu-43b" x="984.624817"/>
      <use xlink:href="#Ubuntu-435" x="1044.424805"/>
      <use xlink:href="#Ubuntu-439" x="1100.324799"/>
     </g>
    </g>
    <g id="line2d_30">
     <path d="M 192.893906 14.633438 
L 201.893906 14.633438 
L 210.893906 14.633438 
" style="fill: none; stroke-dasharray: 4.44,1.92; stroke-dashoffset: 0; stroke: #5d5d5d; stroke-width: 1.2"/>
    </g>
    <g id="text_28">
     <!-- Цены производителей -->
     <g style="fill: #4b4b4b" transform="translate(218.093906 17.783438) scale(0.09 -0.09)">
      <defs>
       <path id="Ubuntu-437" d="M 1357 3411 
Q 1645 3411 1894 3353 
Q 2144 3296 2323 3181 
Q 2502 3066 2604 2893 
Q 2707 2720 2707 2490 
Q 2707 2342 2656 2220 
Q 2605 2099 2528 2003 
Q 2451 1907 2358 1840 
Q 2266 1773 2182 1747 
Q 2477 1658 2646 1430 
Q 2816 1203 2816 858 
Q 2816 384 2432 153 
Q 2048 -77 1389 -77 
Q 986 -77 694 -13 
Q 403 51 282 109 
L 384 614 
Q 486 576 752 509 
Q 1018 442 1389 442 
Q 1792 442 2003 566 
Q 2214 691 2214 941 
Q 2214 1120 2134 1232 
Q 2054 1344 1932 1401 
Q 1811 1459 1670 1478 
Q 1530 1498 1408 1498 
L 851 1498 
L 851 1971 
L 1389 1971 
Q 1504 1971 1629 1987 
Q 1754 2003 1859 2054 
Q 1965 2106 2035 2198 
Q 2106 2291 2106 2445 
Q 2106 2566 2045 2652 
Q 1984 2739 1881 2796 
Q 1779 2854 1641 2883 
Q 1504 2912 1357 2912 
Q 1242 2912 1107 2893 
Q 973 2874 845 2845 
Q 717 2816 614 2784 
Q 512 2752 467 2726 
L 358 3238 
Q 410 3258 518 3290 
Q 627 3322 764 3347 
Q 902 3373 1056 3392 
Q 1210 3411 1357 3411 
z
" transform="scale(0.015625)"/>
      </defs>
      <use xlink:href="#Ubuntu-426"/>
      <use xlink:href="#Ubuntu-435" x="71.799988"/>
      <use xlink:href="#Ubuntu-43d" x="127.699982"/>
      <use xlink:href="#Ubuntu-44b" x="186.299973"/>
      <use xlink:href="#Ubuntu-20" x="262.09996"/>
      <use xlink:href="#Ubuntu-43f" x="285.199951"/>
      <use xlink:href="#Ubuntu-440" x="342.999939"/>
      <use xlink:href="#Ubuntu-43e" x="401.899933"/>
      <use xlink:href="#Ubuntu-438" x="460.899918"/>
      <use xlink:href="#Ubuntu-437" x="520.599915"/>
      <use xlink:href="#Ubuntu-432" x="569.499908"/>
      <use xlink:href="#Ubuntu-43e" x="624.299896"/>
      <use xlink:href="#Ubuntu-434" x="683.299881"/>
      <use xlink:href="#Ubuntu-438" x="743.599869"/>
      <use xlink:href="#Ubuntu-442" x="803.299866"/>
      <use xlink:href="#Ubuntu-435" x="849.599854"/>
      <use xlink:href="#Ubuntu-43b" x="905.499847"/>
      <use xlink:href="#Ubuntu-435" x="965.299835"/>
      <use xlink:href="#Ubuntu-439" x="1021.199829"/>
     </g>
    </g>
   </g>
   <g id="line2d_31">
    <path d="M 49.7475 126.548438 
L 526.8375 126.548438 
" clip-path="url(#p9c7e3b2f0f)" style="fill: none; stroke-dasharray: 2.775,1.2; stroke-dashoffset: 0; stroke: #c5c5c5; stroke-opacity: 0.75; stroke-width: 0.75"/>
   </g>
  </g>
 </g>
 <defs>
  <clipPath id="p63875be0c6">
   <rect x="37.1925" y="166.148437" width="502.2" height="0"/>
  </clipPath>
  <clipPath id="p9c7e3b2f0f">
   <rect x="37.1925" y="27.548438" width="502.2" height="138.6"/>
  </clipPath>
 </defs>
</svg>
