<?xml version="1.0" encoding="utf-8" standalone="no"?>
<!DOCTYPE svg PUBLIC "-//W3C//DTD SVG 1.1//EN"
  "http://www.w3.org/Graphics/SVG/1.1/DTD/svg11.dtd">
<svg xmlns:xlink="http://www.w3.org/1999/xlink" width="553.9125pt" height="255.084219pt" viewBox="0 0 553.9125 255.084219" xmlns="http://www.w3.org/2000/svg" version="1.1">
 <metadata>
  <rdf:RDF xmlns:dc="http://purl.org/dc/elements/1.1/" xmlns:cc="http://creativecommons.org/ns#" xmlns:rdf="http://www.w3.org/1999/02/22-rdf-syntax-ns#">
   <cc:Work>
    <dc:type rdf:resource="http://purl.org/dc/dcmitype/StillImage"/>
    <dc:date>2024-04-19T19:31:57.885890</dc:date>
    <dc:format>image/svg+xml</dc:format>
    <dc:creator>
     <cc:Agent>
      <dc:title>Matplotlib v3.8.0, https://matplotlib.org/</dc:title>
     </cc:Agent>
    </dc:creator>
   </cc:Work>
  </rdf:RDF>
 </metadata>
 <defs>
  <style type="text/css">*{stroke-linejoin: round; stroke-linecap: butt}</style>
 </defs>
 <g id="figure_1">
  <g id="patch_1">
   <path d="M 0 255.084219 
L 553.9125 255.084219 
L 553.9125 0 
L 0 0 
L 0 255.084219 
z
" style="fill: none"/>
  </g>
  <g id="axes_1">
   <g id="patch_2">
    <path d="M 37.1925 208.196719 
L 539.3925 208.196719 
L 539.3925 41.876719 
L 37.1925 41.876719 
L 37.1925 208.196719 
z
" style="fill: none"/>
   </g>
   <g id="axes_2">
    <g id="patch_3">
     <path d="M 37.1925 208.196719 
L 539.3925 208.196719 
L 539.3925 208.196719 
L 37.1925 208.196719 
L 37.1925 208.196719 
z
" style="fill: none"/>
    </g>
    <g id="matplotlib.axis_1">
     <g id="xtick_1">
      <g id="line2d_1">
       <path d="M 37.1925 208.196719 
L 37.1925 208.196719 
" clip-path="url(#pbd2716c3c1)" style="fill: none; stroke-dasharray: 0.5,0.825; stroke-dashoffset: 0; stroke: #d9d9d9; stroke-width: 0.5"/>
      </g>
      <g id="text_1">
       <!-- 2021 -->
       <g style="fill: #808080" transform="translate(28.1675 246.404219) scale(0.08 -0.08)">
        <defs>
         <path id="Ubuntu-32" d="M 2989 3302 
Q 2989 3072 2896 2857 
Q 2803 2643 2649 2435 
Q 2496 2227 2304 2025 
Q 2112 1824 1920 1632 
Q 1811 1523 1667 1376 
Q 1523 1229 1395 1069 
Q 1267 909 1180 761 
Q 1094 614 1094 506 
L 3136 506 
L 3136 0 
L 448 0 
Q 442 38 442 76 
Q 442 115 442 147 
Q 442 448 541 707 
Q 640 966 800 1196 
Q 960 1427 1158 1632 
Q 1357 1837 1549 2029 
Q 1709 2182 1853 2332 
Q 1997 2483 2109 2633 
Q 2221 2784 2288 2944 
Q 2355 3104 2355 3283 
Q 2355 3475 2294 3609 
Q 2234 3744 2131 3833 
Q 2029 3923 1891 3964 
Q 1754 4006 1600 4006 
Q 1414 4006 1260 3955 
Q 1107 3904 985 3837 
Q 864 3770 781 3696 
Q 698 3622 653 3584 
L 358 4006 
Q 416 4070 531 4163 
Q 646 4256 806 4339 
Q 966 4422 1164 4480 
Q 1363 4538 1594 4538 
Q 2291 4538 2640 4214 
Q 2989 3891 2989 3302 
z
" transform="scale(0.015625)"/>
         <path id="Ubuntu-30" d="M 320 2221 
Q 320 3334 713 3936 
Q 1107 4538 1805 4538 
Q 2502 4538 2896 3936 
Q 3290 3334 3290 2221 
Q 3290 1107 2896 505 
Q 2502 -96 1805 -96 
Q 1107 -96 713 505 
Q 320 1107 320 2221 
z
M 2662 2221 
Q 2662 2586 2620 2912 
Q 2579 3238 2480 3481 
Q 2381 3725 2214 3869 
Q 2048 4013 1805 4013 
Q 1562 4013 1395 3869 
Q 1229 3725 1129 3481 
Q 1030 3238 988 2912 
Q 947 2586 947 2221 
Q 947 1856 988 1529 
Q 1030 1203 1129 960 
Q 1229 717 1395 573 
Q 1562 429 1805 429 
Q 2048 429 2214 573 
Q 2381 717 2480 960 
Q 2579 1203 2620 1529 
Q 2662 1856 2662 2221 
z
" transform="scale(0.015625)"/>
         <path id="Ubuntu-31" d="M 595 3520 
Q 960 3661 1305 3881 
Q 1651 4102 1939 4435 
L 2362 4435 
L 2362 0 
L 1766 0 
L 1766 3610 
Q 1690 3539 1578 3462 
Q 1466 3386 1334 3315 
Q 1203 3245 1059 3181 
Q 915 3117 781 3072 
L 595 3520 
z
" transform="scale(0.015625)"/>
        </defs>
        <use xlink:href="#Ubuntu-32"/>
        <use xlink:href="#Ubuntu-30" x="56.399994"/>
        <use xlink:href="#Ubuntu-32" x="112.799988"/>
        <use xlink:href="#Ubuntu-31" x="169.199982"/>
       </g>
      </g>
     </g>
     <g id="xtick_2">
      <g id="line2d_2">
       <path d="M 191.748149 208.196719 
L 191.748149 208.196719 
" clip-path="url(#pbd2716c3c1)" style="fill: none; stroke-dasharray: 0.5,0.825; stroke-dashoffset: 0; stroke: #d9d9d9; stroke-width: 0.5"/>
      </g>
      <g id="text_2">
       <!-- 2022 -->
       <g style="fill: #808080" transform="translate(182.723149 246.404219) scale(0.08 -0.08)">
        <use xlink:href="#Ubuntu-32"/>
        <use xlink:href="#Ubuntu-30" x="56.399994"/>
        <use xlink:href="#Ubuntu-32" x="112.799988"/>
        <use xlink:href="#Ubuntu-32" x="169.199982"/>
       </g>
      </g>
     </g>
     <g id="xtick_3">
      <g id="line2d_3">
       <path d="M 346.303798 208.196719 
L 346.303798 208.196719 
" clip-path="url(#pbd2716c3c1)" style="fill: none; stroke-dasharray: 0.5,0.825; stroke-dashoffset: 0; stroke: #d9d9d9; stroke-width: 0.5"/>
      </g>
      <g id="text_3">
       <!-- 2023 -->
       <g style="fill: #808080" transform="translate(337.278798 246.404219) scale(0.08 -0.08)">
        <defs>
         <path id="Ubuntu-33" d="M 1446 435 
Q 2016 435 2262 659 
Q 2509 883 2509 1261 
Q 2509 1504 2406 1670 
Q 2304 1837 2137 1936 
Q 1971 2035 1750 2076 
Q 1530 2118 1299 2118 
L 1146 2118 
L 1146 2605 
L 1357 2605 
Q 1517 2605 1686 2637 
Q 1856 2669 1997 2752 
Q 2138 2835 2227 2979 
Q 2317 3123 2317 3341 
Q 2317 3520 2253 3648 
Q 2189 3776 2083 3859 
Q 1978 3942 1840 3977 
Q 1702 4013 1549 4013 
Q 1242 4013 1027 3923 
Q 813 3834 666 3738 
L 435 4192 
Q 512 4243 630 4304 
Q 749 4365 896 4416 
Q 1043 4467 1212 4502 
Q 1382 4538 1568 4538 
Q 1920 4538 2176 4451 
Q 2432 4365 2598 4208 
Q 2765 4051 2848 3836 
Q 2931 3622 2931 3373 
Q 2931 3027 2732 2780 
Q 2534 2534 2253 2406 
Q 2426 2355 2586 2259 
Q 2746 2163 2864 2016 
Q 2982 1869 3056 1677 
Q 3130 1485 3130 1248 
Q 3130 960 3030 713 
Q 2931 467 2723 288 
Q 2515 109 2201 6 
Q 1888 -96 1459 -96 
Q 1293 -96 1117 -70 
Q 941 -45 787 -6 
Q 634 32 518 70 
Q 403 109 352 134 
L 467 653 
Q 576 602 829 518 
Q 1082 435 1446 435 
z
" transform="scale(0.015625)"/>
        </defs>
        <use xlink:href="#Ubuntu-32"/>
        <use xlink:href="#Ubuntu-30" x="56.399994"/>
        <use xlink:href="#Ubuntu-32" x="112.799988"/>
        <use xlink:href="#Ubuntu-33" x="169.199982"/>
       </g>
      </g>
     </g>
     <g id="xtick_4">
      <g id="line2d_4">
       <path d="M 500.859448 208.196719 
L 500.859448 208.196719 
" clip-path="url(#pbd2716c3c1)" style="fill: none; stroke-dasharray: 0.5,0.825; stroke-dashoffset: 0; stroke: #d9d9d9; stroke-width: 0.5"/>
      </g>
      <g id="text_4">
       <!-- 2024 -->
       <g style="fill: #808080" transform="translate(491.834448 246.404219) scale(0.08 -0.08)">
        <defs>
         <path id="Ubuntu-34" d="M 256 1536 
Q 378 1818 589 2192 
Q 800 2566 1065 2963 
Q 1331 3360 1635 3744 
Q 1939 4128 2246 4435 
L 2816 4435 
L 2816 1619 
L 3341 1619 
L 3341 1133 
L 2816 1133 
L 2816 0 
L 2240 0 
L 2240 1133 
L 256 1133 
L 256 1536 
z
M 2240 3731 
Q 2048 3526 1853 3273 
Q 1658 3021 1472 2745 
Q 1286 2470 1123 2182 
Q 960 1894 832 1619 
L 2240 1619 
L 2240 3731 
z
" transform="scale(0.015625)"/>
        </defs>
        <use xlink:href="#Ubuntu-32"/>
        <use xlink:href="#Ubuntu-30" x="56.399994"/>
        <use xlink:href="#Ubuntu-32" x="112.799988"/>
        <use xlink:href="#Ubuntu-34" x="169.199982"/>
       </g>
      </g>
     </g>
    </g>
    <g id="matplotlib.axis_2"/>
   </g>
   <g id="matplotlib.axis_3">
    <g id="xtick_5">
     <g id="line2d_5">
      <defs>
       <path id="mc29ff14c29" d="M 0 0 
L 0 3 
" style="stroke: #aaaaaa; stroke-width: 0.75"/>
      </defs>
      <g>
       <use xlink:href="#mc29ff14c29" x="37.1925" y="218.196719" style="fill: #aaaaaa; stroke: #aaaaaa; stroke-width: 0.75"/>
      </g>
     </g>
     <g id="text_5">
      <!-- Янв -->
      <g style="fill: #808080" transform="translate(30.116875 233.404219) scale(0.08 -0.08)">
       <defs>
        <path id="Ubuntu-42f" d="M 2272 3936 
Q 2029 3936 1808 3897 
Q 1587 3859 1414 3763 
Q 1242 3667 1139 3500 
Q 1037 3334 1037 3085 
Q 1037 2611 1341 2428 
Q 1645 2246 2253 2246 
L 2893 2246 
L 2893 3917 
Q 2822 3917 2726 3923 
Q 2643 3930 2531 3933 
Q 2419 3936 2272 3936 
z
M 2323 4480 
Q 2458 4480 2611 4473 
Q 2765 4467 2921 4454 
Q 3078 4442 3232 4422 
Q 3386 4403 3514 4371 
L 3514 0 
L 2893 0 
L 2893 1734 
L 2362 1734 
Q 2272 1734 2173 1737 
Q 2074 1741 1907 1760 
Q 1792 1606 1657 1401 
Q 1523 1197 1388 966 
Q 1254 736 1123 486 
Q 992 237 883 0 
L 230 0 
Q 333 250 473 518 
Q 614 787 764 1030 
Q 915 1274 1052 1482 
Q 1190 1690 1293 1824 
Q 1146 1869 986 1952 
Q 826 2035 691 2182 
Q 557 2330 470 2550 
Q 384 2771 384 3078 
Q 384 3424 518 3686 
Q 653 3949 905 4125 
Q 1158 4301 1516 4390 
Q 1875 4480 2323 4480 
z
" transform="scale(0.015625)"/>
        <path id="Ubuntu-43d" d="M 3238 0 
L 2643 0 
L 2643 1472 
L 1107 1472 
L 1107 0 
L 512 0 
L 512 3328 
L 1107 3328 
L 1107 1971 
L 2643 1971 
L 2643 3328 
L 3238 3328 
L 3238 0 
z
" transform="scale(0.015625)"/>
        <path id="Ubuntu-432" d="M 1094 448 
Q 1133 442 1203 435 
Q 1274 429 1363 425 
Q 1453 422 1552 419 
Q 1651 416 1741 416 
Q 1926 416 2096 441 
Q 2266 467 2390 531 
Q 2515 595 2588 700 
Q 2662 806 2662 973 
Q 2662 1133 2595 1238 
Q 2528 1344 2413 1408 
Q 2298 1472 2141 1497 
Q 1984 1523 1805 1523 
L 1094 1523 
L 1094 448 
z
M 1728 1965 
Q 1901 1965 2045 1987 
Q 2189 2010 2294 2067 
Q 2400 2125 2461 2221 
Q 2522 2317 2522 2464 
Q 2522 2618 2445 2707 
Q 2368 2797 2243 2845 
Q 2118 2893 1961 2909 
Q 1805 2925 1645 2925 
Q 1498 2925 1347 2918 
Q 1197 2912 1094 2906 
L 1094 1965 
L 1728 1965 
z
M 1715 -58 
Q 1338 -58 1018 -22 
Q 698 13 512 58 
L 512 3296 
Q 698 3341 1018 3376 
Q 1338 3411 1715 3411 
Q 1978 3411 2227 3366 
Q 2477 3322 2669 3216 
Q 2861 3110 2979 2928 
Q 3098 2746 3098 2477 
Q 3098 2234 2976 2061 
Q 2854 1888 2650 1792 
Q 2925 1696 3088 1507 
Q 3251 1318 3251 979 
Q 3251 678 3132 480 
Q 3014 282 2806 160 
Q 2598 38 2316 -10 
Q 2035 -58 1715 -58 
z
" transform="scale(0.015625)"/>
       </defs>
       <use xlink:href="#Ubuntu-42f"/>
       <use xlink:href="#Ubuntu-43d" x="63.499985"/>
       <use xlink:href="#Ubuntu-432" x="122.099976"/>
      </g>
     </g>
    </g>
    <g id="xtick_6">
     <g id="line2d_6">
      <g>
       <use xlink:href="#mc29ff14c29" x="75.302112" y="218.196719" style="fill: #aaaaaa; stroke: #aaaaaa; stroke-width: 0.75"/>
      </g>
     </g>
     <g id="text_6">
      <!-- Апр -->
      <g style="fill: #808080" transform="translate(67.982112 233.404219) scale(0.08 -0.08)">
       <defs>
        <path id="Ubuntu-410" d="M 3514 0 
Q 3405 288 3309 566 
Q 3213 845 3110 1133 
L 1101 1133 
L 698 0 
L 51 0 
Q 307 704 531 1302 
Q 755 1901 969 2438 
Q 1184 2976 1395 3465 
Q 1606 3955 1837 4435 
L 2406 4435 
Q 2637 3955 2848 3465 
Q 3059 2976 3273 2438 
Q 3488 1901 3712 1302 
Q 3936 704 4192 0 
L 3514 0 
z
M 2931 1645 
Q 2726 2202 2524 2723 
Q 2323 3245 2106 3725 
Q 1882 3245 1680 2723 
Q 1478 2202 1280 1645 
L 2931 1645 
z
" transform="scale(0.015625)"/>
        <path id="Ubuntu-43f" d="M 3187 0 
L 2592 0 
L 2592 2829 
L 1107 2829 
L 1107 0 
L 512 0 
L 512 3328 
L 3187 3328 
L 3187 0 
z
" transform="scale(0.015625)"/>
        <path id="Ubuntu-440" d="M 2822 1658 
Q 2822 2240 2534 2553 
Q 2246 2867 1766 2867 
Q 1498 2867 1347 2848 
Q 1197 2829 1107 2803 
L 1107 704 
Q 1216 614 1421 531 
Q 1626 448 1869 448 
Q 2125 448 2307 541 
Q 2490 634 2605 797 
Q 2720 960 2771 1181 
Q 2822 1402 2822 1658 
z
M 3443 1658 
Q 3443 1280 3344 960 
Q 3245 640 3053 409 
Q 2861 179 2582 51 
Q 2304 -77 1946 -77 
Q 1658 -77 1437 0 
Q 1216 77 1107 147 
L 1107 -1184 
L 512 -1184 
L 512 3226 
Q 723 3277 1040 3337 
Q 1357 3398 1773 3398 
Q 2157 3398 2464 3276 
Q 2771 3155 2988 2931 
Q 3206 2707 3324 2384 
Q 3443 2061 3443 1658 
z
" transform="scale(0.015625)"/>
       </defs>
       <use xlink:href="#Ubuntu-410"/>
       <use xlink:href="#Ubuntu-43f" x="66.299988"/>
       <use xlink:href="#Ubuntu-440" x="124.099976"/>
      </g>
     </g>
    </g>
    <g id="xtick_7">
     <g id="line2d_7">
      <g>
       <use xlink:href="#mc29ff14c29" x="113.835164" y="218.196719" style="fill: #aaaaaa; stroke: #aaaaaa; stroke-width: 0.75"/>
      </g>
     </g>
     <g id="text_7">
      <!-- Июл -->
      <g style="fill: #808080" transform="translate(105.287664 233.404219) scale(0.08 -0.08)">
       <defs>
        <path id="Ubuntu-418" d="M 550 0 
L 550 4435 
L 1158 4435 
L 1158 1152 
Q 1363 1491 1660 1926 
Q 1958 2362 2294 2813 
Q 2630 3264 2972 3689 
Q 3315 4115 3616 4435 
L 4109 4435 
L 4109 0 
L 3501 0 
L 3501 3462 
Q 3322 3258 3110 2989 
Q 2899 2720 2675 2416 
Q 2451 2112 2224 1785 
Q 1997 1459 1785 1142 
Q 1574 826 1392 531 
Q 1210 237 1069 0 
L 550 0 
z
" transform="scale(0.015625)"/>
        <path id="Ubuntu-44e" d="M 1107 1952 
L 1837 1952 
Q 1875 2285 2006 2553 
Q 2138 2822 2336 3014 
Q 2534 3206 2790 3308 
Q 3046 3411 3341 3411 
Q 3667 3411 3945 3286 
Q 4224 3162 4429 2931 
Q 4634 2701 4749 2377 
Q 4864 2054 4864 1664 
Q 4864 1267 4749 947 
Q 4634 627 4429 396 
Q 4224 166 3945 41 
Q 3667 -83 3341 -83 
Q 3034 -83 2768 29 
Q 2502 141 2304 342 
Q 2106 544 1981 832 
Q 1856 1120 1830 1472 
L 1107 1472 
L 1107 0 
L 512 0 
L 512 3328 
L 1107 3328 
L 1107 1952 
z
M 4250 1664 
Q 4250 2227 4003 2556 
Q 3757 2886 3341 2886 
Q 2925 2886 2678 2556 
Q 2432 2227 2432 1664 
Q 2432 1101 2678 771 
Q 2925 442 3341 442 
Q 3757 442 4003 771 
Q 4250 1101 4250 1664 
z
" transform="scale(0.015625)"/>
        <path id="Ubuntu-43b" d="M 1670 2829 
Q 1670 2618 1660 2378 
Q 1651 2138 1625 1898 
Q 1600 1658 1555 1424 
Q 1510 1190 1440 986 
Q 1370 781 1264 601 
Q 1158 422 1004 284 
Q 851 147 646 54 
Q 442 -38 166 -64 
L 83 435 
Q 397 499 579 672 
Q 762 845 870 1094 
Q 966 1312 1011 1587 
Q 1056 1862 1075 2160 
Q 1094 2458 1097 2758 
Q 1101 3059 1101 3328 
L 3315 3328 
L 3315 0 
L 2720 0 
L 2720 2829 
L 1670 2829 
z
" transform="scale(0.015625)"/>
       </defs>
       <use xlink:href="#Ubuntu-418"/>
       <use xlink:href="#Ubuntu-44e" x="72.799988"/>
       <use xlink:href="#Ubuntu-43b" x="153.899979"/>
      </g>
     </g>
    </g>
    <g id="xtick_8">
     <g id="line2d_8">
      <g>
       <use xlink:href="#mc29ff14c29" x="152.791657" y="218.196719" style="fill: #aaaaaa; stroke: #aaaaaa; stroke-width: 0.75"/>
      </g>
     </g>
     <g id="text_8">
      <!-- Окт -->
      <g style="fill: #808080" transform="translate(145.679782 233.404219) scale(0.08 -0.08)">
       <defs>
        <path id="Ubuntu-41e" d="M 371 2221 
Q 371 2790 540 3225 
Q 710 3661 1001 3952 
Q 1293 4243 1680 4390 
Q 2067 4538 2502 4538 
Q 2931 4538 3312 4390 
Q 3693 4243 3981 3952 
Q 4269 3661 4438 3225 
Q 4608 2790 4608 2221 
Q 4608 1651 4438 1216 
Q 4269 781 3981 489 
Q 3693 198 3312 51 
Q 2931 -96 2502 -96 
Q 2067 -96 1680 51 
Q 1293 198 1001 489 
Q 710 781 540 1216 
Q 371 1651 371 2221 
z
M 1024 2221 
Q 1024 1818 1126 1488 
Q 1229 1158 1417 928 
Q 1606 698 1878 573 
Q 2150 448 2490 448 
Q 2829 448 3097 573 
Q 3366 698 3555 928 
Q 3744 1158 3846 1488 
Q 3949 1818 3949 2221 
Q 3949 2624 3846 2953 
Q 3744 3283 3555 3513 
Q 3366 3744 3097 3869 
Q 2829 3994 2490 3994 
Q 2150 3994 1878 3869 
Q 1606 3744 1417 3513 
Q 1229 3283 1126 2953 
Q 1024 2624 1024 2221 
z
" transform="scale(0.015625)"/>
        <path id="Ubuntu-43a" d="M 1728 1811 
Q 1926 1670 2156 1456 
Q 2387 1242 2608 992 
Q 2829 742 3021 483 
Q 3213 224 3347 0 
L 2643 0 
Q 2502 218 2313 445 
Q 2125 672 1920 883 
Q 1715 1094 1504 1273 
Q 1293 1453 1107 1574 
L 1107 0 
L 512 0 
L 512 3328 
L 1107 3328 
L 1107 1901 
Q 1261 2048 1459 2243 
Q 1658 2438 1859 2640 
Q 2061 2842 2233 3024 
Q 2406 3206 2515 3328 
L 3206 3328 
Q 3066 3174 2877 2979 
Q 2688 2784 2486 2579 
Q 2285 2374 2086 2172 
Q 1888 1971 1728 1811 
z
" transform="scale(0.015625)"/>
        <path id="Ubuntu-442" d="M 2861 3328 
L 2861 2829 
L 1779 2829 
L 1779 0 
L 1184 0 
L 1184 2829 
L 102 2829 
L 102 3328 
L 2861 3328 
z
" transform="scale(0.015625)"/>
       </defs>
       <use xlink:href="#Ubuntu-41e"/>
       <use xlink:href="#Ubuntu-43a" x="77.799988"/>
       <use xlink:href="#Ubuntu-442" x="131.499985"/>
      </g>
     </g>
    </g>
    <g id="xtick_9">
     <g id="line2d_9">
      <g>
       <use xlink:href="#mc29ff14c29" x="191.748149" y="218.196719" style="fill: #aaaaaa; stroke: #aaaaaa; stroke-width: 0.75"/>
      </g>
     </g>
     <g id="text_9">
      <!-- Янв -->
      <g style="fill: #808080" transform="translate(184.672524 233.404219) scale(0.08 -0.08)">
       <use xlink:href="#Ubuntu-42f"/>
       <use xlink:href="#Ubuntu-43d" x="63.499985"/>
       <use xlink:href="#Ubuntu-432" x="122.099976"/>
      </g>
     </g>
    </g>
    <g id="xtick_10">
     <g id="line2d_10">
      <g>
       <use xlink:href="#mc29ff14c29" x="229.857761" y="218.196719" style="fill: #aaaaaa; stroke: #aaaaaa; stroke-width: 0.75"/>
      </g>
     </g>
     <g id="text_10">
      <!-- Апр -->
      <g style="fill: #808080" transform="translate(222.537761 233.404219) scale(0.08 -0.08)">
       <use xlink:href="#Ubuntu-410"/>
       <use xlink:href="#Ubuntu-43f" x="66.299988"/>
       <use xlink:href="#Ubuntu-440" x="124.099976"/>
      </g>
     </g>
    </g>
    <g id="xtick_11">
     <g id="line2d_11">
      <g>
       <use xlink:href="#mc29ff14c29" x="268.390814" y="218.196719" style="fill: #aaaaaa; stroke: #aaaaaa; stroke-width: 0.75"/>
      </g>
     </g>
     <g id="text_11">
      <!-- Июл -->
      <g style="fill: #808080" transform="translate(259.843314 233.404219) scale(0.08 -0.08)">
       <use xlink:href="#Ubuntu-418"/>
       <use xlink:href="#Ubuntu-44e" x="72.799988"/>
       <use xlink:href="#Ubuntu-43b" x="153.899979"/>
      </g>
     </g>
    </g>
    <g id="xtick_12">
     <g id="line2d_12">
      <g>
       <use xlink:href="#mc29ff14c29" x="307.347306" y="218.196719" style="fill: #aaaaaa; stroke: #aaaaaa; stroke-width: 0.75"/>
      </g>
     </g>
     <g id="text_12">
      <!-- Окт -->
      <g style="fill: #808080" transform="translate(300.235431 233.404219) scale(0.08 -0.08)">
       <use xlink:href="#Ubuntu-41e"/>
       <use xlink:href="#Ubuntu-43a" x="77.799988"/>
       <use xlink:href="#Ubuntu-442" x="131.499985"/>
      </g>
     </g>
    </g>
    <g id="xtick_13">
     <g id="line2d_13">
      <g>
       <use xlink:href="#mc29ff14c29" x="346.303798" y="218.196719" style="fill: #aaaaaa; stroke: #aaaaaa; stroke-width: 0.75"/>
      </g>
     </g>
     <g id="text_13">
      <!-- Янв -->
      <g style="fill: #808080" transform="translate(339.228173 233.404219) scale(0.08 -0.08)">
       <use xlink:href="#Ubuntu-42f"/>
       <use xlink:href="#Ubuntu-43d" x="63.499985"/>
       <use xlink:href="#Ubuntu-432" x="122.099976"/>
      </g>
     </g>
    </g>
    <g id="xtick_14">
     <g id="line2d_14">
      <g>
       <use xlink:href="#mc29ff14c29" x="384.413411" y="218.196719" style="fill: #aaaaaa; stroke: #aaaaaa; stroke-width: 0.75"/>
      </g>
     </g>
     <g id="text_14">
      <!-- Апр -->
      <g style="fill: #808080" transform="translate(377.093411 233.404219) scale(0.08 -0.08)">
       <use xlink:href="#Ubuntu-410"/>
       <use xlink:href="#Ubuntu-43f" x="66.299988"/>
       <use xlink:href="#Ubuntu-440" x="124.099976"/>
      </g>
     </g>
    </g>
    <g id="xtick_15">
     <g id="line2d_15">
      <g>
       <use xlink:href="#mc29ff14c29" x="422.946463" y="218.196719" style="fill: #aaaaaa; stroke: #aaaaaa; stroke-width: 0.75"/>
      </g>
     </g>
     <g id="text_15">
      <!-- Июл -->
      <g style="fill: #808080" transform="translate(414.398963 233.404219) scale(0.08 -0.08)">
       <use xlink:href="#Ubuntu-418"/>
       <use xlink:href="#Ubuntu-44e" x="72.799988"/>
       <use xlink:href="#Ubuntu-43b" x="153.899979"/>
      </g>
     </g>
    </g>
    <g id="xtick_16">
     <g id="line2d_16">
      <g>
       <use xlink:href="#mc29ff14c29" x="461.902955" y="218.196719" style="fill: #aaaaaa; stroke: #aaaaaa; stroke-width: 0.75"/>
      </g>
     </g>
     <g id="text_16">
      <!-- Окт -->
      <g style="fill: #808080" transform="translate(454.79108 233.404219) scale(0.08 -0.08)">
       <use xlink:href="#Ubuntu-41e"/>
       <use xlink:href="#Ubuntu-43a" x="77.799988"/>
       <use xlink:href="#Ubuntu-442" x="131.499985"/>
      </g>
     </g>
    </g>
    <g id="xtick_17">
     <g id="line2d_17">
      <g>
       <use xlink:href="#mc29ff14c29" x="500.859448" y="218.196719" style="fill: #aaaaaa; stroke: #aaaaaa; stroke-width: 0.75"/>
      </g>
     </g>
     <g id="text_17">
      <!-- Янв -->
      <g style="fill: #808080" transform="translate(493.783823 233.404219) scale(0.08 -0.08)">
       <use xlink:href="#Ubuntu-42f"/>
       <use xlink:href="#Ubuntu-43d" x="63.499985"/>
       <use xlink:href="#Ubuntu-432" x="122.099976"/>
      </g>
     </g>
    </g>
    <g id="xtick_18">
     <g id="line2d_18">
      <g>
       <use xlink:href="#mc29ff14c29" x="539.3925" y="218.196719" style="fill: #aaaaaa; stroke: #aaaaaa; stroke-width: 0.75"/>
      </g>
     </g>
     <g id="text_18">
      <!-- Апр -->
      <g style="fill: #808080" transform="translate(532.0725 233.404219) scale(0.08 -0.08)">
       <use xlink:href="#Ubuntu-410"/>
       <use xlink:href="#Ubuntu-43f" x="66.299988"/>
       <use xlink:href="#Ubuntu-440" x="124.099976"/>
      </g>
     </g>
    </g>
   </g>
   <g id="matplotlib.axis_4">
    <g id="ytick_1">
     <g id="line2d_19">
      <defs>
       <path id="mf734084457" d="M 0 0 
L -3 0 
" style="stroke: #aaaaaa; stroke-width: 0.75"/>
      </defs>
      <g>
       <use xlink:href="#mf734084457" x="27.1925" y="208.196719" style="fill: #aaaaaa; stroke: #aaaaaa; stroke-width: 0.75"/>
      </g>
     </g>
     <g id="text_19">
      <!-- 0.9 -->
      <g style="fill: #808080" transform="translate(7.2 211.300469) scale(0.08 -0.08)">
       <defs>
        <path id="Ubuntu-2e" d="M 1216 346 
Q 1216 173 1101 45 
Q 986 -83 787 -83 
Q 589 -83 473 45 
Q 358 173 358 346 
Q 358 518 473 646 
Q 589 774 787 774 
Q 986 774 1101 646 
Q 1216 518 1216 346 
z
" transform="scale(0.015625)"/>
        <path id="Ubuntu-39" d="M 3206 2662 
Q 3206 1344 2550 669 
Q 1894 -6 602 -13 
L 582 486 
Q 986 486 1309 563 
Q 1632 640 1875 809 
Q 2118 979 2281 1248 
Q 2445 1517 2522 1907 
Q 2355 1830 2144 1782 
Q 1933 1734 1709 1734 
Q 1331 1734 1068 1846 
Q 806 1958 640 2147 
Q 474 2336 400 2582 
Q 326 2829 326 3098 
Q 326 3334 409 3590 
Q 493 3846 662 4057 
Q 832 4269 1094 4403 
Q 1357 4538 1715 4538 
Q 2080 4538 2358 4410 
Q 2637 4282 2825 4038 
Q 3014 3795 3110 3446 
Q 3206 3098 3206 2662 
z
M 1773 2221 
Q 1997 2221 2195 2262 
Q 2394 2304 2579 2387 
Q 2586 2458 2586 2525 
Q 2586 2592 2586 2662 
Q 2586 2938 2547 3190 
Q 2509 3443 2409 3632 
Q 2310 3821 2144 3933 
Q 1978 4045 1722 4045 
Q 1510 4045 1363 3955 
Q 1216 3866 1120 3728 
Q 1024 3590 982 3427 
Q 941 3264 941 3110 
Q 941 2675 1149 2448 
Q 1357 2221 1773 2221 
z
" transform="scale(0.015625)"/>
       </defs>
       <use xlink:href="#Ubuntu-30"/>
       <use xlink:href="#Ubuntu-2e" x="56.399994"/>
       <use xlink:href="#Ubuntu-39" x="80.999985"/>
      </g>
     </g>
    </g>
    <g id="ytick_2">
     <g id="line2d_20">
      <g>
       <use xlink:href="#mf734084457" x="27.1925" y="175.197901" style="fill: #aaaaaa; stroke: #aaaaaa; stroke-width: 0.75"/>
      </g>
     </g>
     <g id="text_20">
      <!-- 1.0 -->
      <g style="fill: #808080" transform="translate(7.2 178.301651) scale(0.08 -0.08)">
       <use xlink:href="#Ubuntu-31"/>
       <use xlink:href="#Ubuntu-2e" x="56.399994"/>
       <use xlink:href="#Ubuntu-30" x="80.999985"/>
      </g>
     </g>
    </g>
    <g id="ytick_3">
     <g id="line2d_21">
      <g>
       <use xlink:href="#mf734084457" x="27.1925" y="142.199083" style="fill: #aaaaaa; stroke: #aaaaaa; stroke-width: 0.75"/>
      </g>
     </g>
     <g id="text_21">
      <!-- 1.1 -->
      <g style="fill: #808080" transform="translate(7.2 145.302833) scale(0.08 -0.08)">
       <use xlink:href="#Ubuntu-31"/>
       <use xlink:href="#Ubuntu-2e" x="56.399994"/>
       <use xlink:href="#Ubuntu-31" x="80.999985"/>
      </g>
     </g>
    </g>
    <g id="ytick_4">
     <g id="line2d_22">
      <g>
       <use xlink:href="#mf734084457" x="27.1925" y="109.200266" style="fill: #aaaaaa; stroke: #aaaaaa; stroke-width: 0.75"/>
      </g>
     </g>
     <g id="text_22">
      <!-- 1.2 -->
      <g style="fill: #808080" transform="translate(7.2 112.304016) scale(0.08 -0.08)">
       <use xlink:href="#Ubuntu-31"/>
       <use xlink:href="#Ubuntu-2e" x="56.399994"/>
       <use xlink:href="#Ubuntu-32" x="80.999985"/>
      </g>
     </g>
    </g>
    <g id="ytick_5">
     <g id="line2d_23">
      <g>
       <use xlink:href="#mf734084457" x="27.1925" y="76.201448" style="fill: #aaaaaa; stroke: #aaaaaa; stroke-width: 0.75"/>
      </g>
     </g>
     <g id="text_23">
      <!-- 1.3 -->
      <g style="fill: #808080" transform="translate(7.2 79.305198) scale(0.08 -0.08)">
       <use xlink:href="#Ubuntu-31"/>
       <use xlink:href="#Ubuntu-2e" x="56.399994"/>
       <use xlink:href="#Ubuntu-33" x="80.999985"/>
      </g>
     </g>
    </g>
    <g id="ytick_6">
     <g id="line2d_24">
      <g>
       <use xlink:href="#mf734084457" x="27.1925" y="43.20263" style="fill: #aaaaaa; stroke: #aaaaaa; stroke-width: 0.75"/>
      </g>
     </g>
     <g id="text_24">
      <!-- 1.4 -->
      <g style="fill: #808080" transform="translate(7.2 46.30638) scale(0.08 -0.08)">
       <use xlink:href="#Ubuntu-31"/>
       <use xlink:href="#Ubuntu-2e" x="56.399994"/>
       <use xlink:href="#Ubuntu-34" x="80.999985"/>
      </g>
     </g>
    </g>
   </g>
   <g id="line2d_25">
    <path d="M 37.1925 175.197901 
L 45.165637 174.386082 
L 51.544147 173.963713 
L 56.328029 173.840548 
L 61.111911 173.92701 
L 65.895793 174.262188 
L 70.679675 174.882027 
L 75.463558 175.820135 
L 80.24744 177.073206 
L 88.220577 179.311845 
L 93.004459 180.378724 
L 99.382969 181.478607 
L 107.356105 182.639145 
L 112.139988 183.106728 
L 115.329242 183.225633 
L 118.518497 183.157935 
L 121.707752 182.922606 
L 126.491634 182.307471 
L 131.275516 181.408672 
L 134.464771 180.536024 
L 137.654026 179.314567 
L 139.248653 178.538127 
L 140.843281 177.632836 
L 144.032536 175.450844 
L 147.22179 172.899398 
L 153.6003 167.311201 
L 159.97881 161.867141 
L 166.357319 156.757735 
L 177.519711 148.134915 
L 182.303593 144.028538 
L 187.087475 139.532497 
L 191.871358 134.702433 
L 199.844495 126.465164 
L 203.033749 123.547005 
L 206.223004 121.090552 
L 209.412259 119.104082 
L 212.601514 117.430571 
L 228.547788 109.733553 
L 231.737043 108.494212 
L 234.926297 107.509389 
L 238.115552 106.74551 
L 241.304807 106.163979 
L 246.088689 105.55579 
L 249.277944 105.322873 
L 252.467199 105.256672 
L 255.656453 105.383116 
L 260.440336 105.920624 
L 265.224218 106.486556 
L 268.413473 106.611784 
L 271.602727 106.371032 
L 274.791982 105.815938 
L 292.332884 101.965336 
L 295.522138 100.864717 
L 298.711393 99.41447 
L 305.089903 96.262147 
L 308.279158 95.007348 
L 311.468412 94.148742 
L 319.441549 92.370671 
L 322.630804 91.196634 
L 327.414686 88.921556 
L 330.603941 87.454215 
L 332.198569 86.837493 
L 333.793196 86.344109 
L 335.387823 85.994626 
L 338.577078 85.65917 
L 341.766333 85.664783 
L 357.712607 86.497401 
L 360.901862 86.849209 
L 364.091117 87.440827 
L 367.280371 88.412161 
L 368.874999 89.0845 
L 370.469626 89.9049 
L 372.064254 90.891073 
L 373.658881 92.0583 
L 375.253508 93.408392 
L 376.848136 94.938516 
L 378.442763 96.645837 
L 381.632018 100.580727 
L 384.821273 105.190372 
L 388.010527 110.417852 
L 399.172919 129.734461 
L 402.362174 134.44151 
L 405.551429 138.616966 
L 408.740684 142.281637 
L 411.929938 145.456046 
L 415.119193 148.14216 
L 418.308448 150.312494 
L 419.903075 151.194838 
L 421.497703 151.936948 
L 423.09233 152.535062 
L 424.686958 152.986066 
L 426.281585 153.297924 
L 429.47084 153.573483 
L 432.660095 153.501736 
L 437.443977 153.048976 
L 440.633232 152.614526 
L 443.822486 151.900637 
L 445.417114 151.376384 
L 447.011741 150.707248 
L 448.606369 149.868222 
L 450.200996 148.834745 
L 451.795623 147.599109 
L 453.390251 146.175182 
L 454.984878 144.578248 
L 458.174133 140.926483 
L 461.363388 136.76607 
L 466.14727 129.898145 
L 469.336525 125.321803 
L 472.52578 121.152164 
L 474.120407 119.328515 
L 475.715034 117.736693 
L 477.309662 116.389081 
L 478.904289 115.237041 
L 482.093544 113.296445 
L 485.282799 111.468437 
L 486.877426 110.457132 
L 488.472054 109.306614 
L 490.066681 107.984516 
L 493.255936 104.937182 
L 502.8237 95.057081 
L 504.418328 93.665446 
L 506.012955 92.438794 
L 507.607582 91.411667 
L 509.20221 90.618606 
L 510.796837 90.094153 
L 512.391465 89.872849 
L 513.986092 89.989238 
L 513.986092 89.989238 
" clip-path="url(#p51d8bcc5c4)" style="fill: none; stroke-dasharray: 5.55,2.4; stroke-dashoffset: 0; stroke: #5d5d5d; stroke-width: 1.5"/>
   </g>
   <g id="line2d_26">
    <path d="M 37.1925 175.197901 
L 40.463894 175.553742 
L 43.735287 175.602389 
L 47.006681 175.414043 
L 51.913772 174.840723 
L 61.727953 173.515914 
L 64.999346 173.273039 
L 71.542134 173.107671 
L 78.084921 172.91027 
L 82.992012 172.500579 
L 87.899102 171.810267 
L 92.806193 170.839878 
L 99.34898 169.562169 
L 102.620374 169.163109 
L 107.527464 168.935004 
L 114.070252 168.731146 
L 117.341645 168.424858 
L 122.248736 167.677687 
L 128.791523 166.378954 
L 133.698614 165.245552 
L 136.970007 164.321849 
L 140.241401 163.191883 
L 143.512795 161.823561 
L 150.055582 158.703815 
L 154.962673 156.420797 
L 159.869763 154.196907 
L 163.141157 152.501177 
L 166.412551 150.450473 
L 171.319641 146.763581 
L 174.591035 144.388043 
L 176.226732 143.364464 
L 177.862428 142.512333 
L 179.498125 141.876686 
L 181.133822 141.459074 
L 182.769519 141.211156 
L 186.040913 141.020071 
L 189.312306 140.894762 
L 190.948003 140.729064 
L 192.5837 140.427922 
L 194.219397 139.963824 
L 195.855094 139.327329 
L 197.490791 138.509518 
L 199.126487 137.501473 
L 200.762184 136.294275 
L 202.397881 134.879006 
L 204.033578 133.246748 
L 205.669275 131.391625 
L 208.940668 127.127742 
L 213.847759 119.976271 
L 217.119153 115.194455 
L 220.390546 110.764583 
L 223.66194 106.849931 
L 225.297637 105.122596 
L 226.933334 103.568202 
L 228.569031 102.201461 
L 230.204727 101.037082 
L 231.840424 100.083137 
L 233.476121 99.318948 
L 235.111818 98.716064 
L 238.383212 97.880399 
L 241.654605 97.348524 
L 249.833089 96.291981 
L 253.104483 96.033121 
L 256.375877 95.980939 
L 259.647271 96.165763 
L 271.097148 97.120618 
L 277.639936 97.088152 
L 282.547026 97.114962 
L 289.089814 97.472243 
L 293.996904 97.697802 
L 298.903995 97.647997 
L 325.075144 96.447436 
L 328.346538 95.994763 
L 331.617932 95.217148 
L 334.889325 94.010041 
L 338.160719 92.452632 
L 343.067809 90.023563 
L 346.339203 88.727151 
L 347.9749 88.261708 
L 351.246294 87.659714 
L 354.517687 87.376641 
L 361.060475 87.200626 
L 370.874656 87.069151 
L 375.781746 87.190638 
L 380.688837 87.567129 
L 383.960231 88.015103 
L 387.231624 88.650639 
L 392.138715 89.845853 
L 398.681502 91.477263 
L 405.224289 92.802178 
L 416.674167 94.802206 
L 421.581258 95.43688 
L 424.852652 95.670816 
L 429.759742 95.745845 
L 444.481014 95.456881 
L 447.752407 95.187919 
L 451.023801 94.693955 
L 454.295195 93.97711 
L 459.202285 92.614073 
L 478.830647 86.68381 
L 485.373435 84.833827 
L 490.280525 83.207562 
L 501.730403 79.142984 
L 506.637494 77.757691 
L 514.815978 75.777193 
L 521.358765 74.147162 
L 526.265856 72.69903 
L 526.265856 72.69903 
" clip-path="url(#p51d8bcc5c4)" style="fill: none; stroke: #5d5d5d; stroke-opacity: 0.95; stroke-width: 1.25; stroke-linecap: square"/>
   </g>
   <g id="line2d_27">
    <path d="M 37.1925 175.197901 
L 42.099591 174.866198 
L 47.006681 174.303919 
L 56.820862 172.859102 
L 63.363649 171.956733 
L 79.720618 170.003126 
L 89.534799 168.586279 
L 94.441889 168.133066 
L 102.620374 167.657992 
L 110.798858 167.15541 
L 115.705948 166.611942 
L 120.613039 165.796835 
L 125.520129 164.761662 
L 132.062917 163.147597 
L 141.877098 160.47487 
L 146.784188 158.9695 
L 150.055582 157.716442 
L 153.326976 156.140009 
L 156.598369 154.174007 
L 159.869763 151.873619 
L 163.141157 149.317013 
L 168.048247 145.172099 
L 179.498125 135.276632 
L 184.405216 131.428256 
L 189.312306 127.95258 
L 194.219397 124.857619 
L 197.490791 122.739335 
L 199.126487 121.533883 
L 200.762184 120.171232 
L 202.397881 118.606638 
L 204.033578 116.795357 
L 205.669275 114.69847 
L 207.304972 112.335048 
L 210.576365 107.018279 
L 220.390546 90.116547 
L 223.66194 85.367678 
L 225.297637 83.297453 
L 226.933334 81.465149 
L 228.569031 79.897102 
L 230.204727 78.619649 
L 231.840424 77.647549 
L 233.476121 76.945458 
L 235.111818 76.464477 
L 236.747515 76.155704 
L 240.018908 75.859182 
L 244.925999 75.498995 
L 254.74018 74.266779 
L 258.011574 74.237622 
L 261.282967 74.497719 
L 267.825755 75.419241 
L 272.732845 76.031048 
L 277.639936 76.449268 
L 284.182723 76.772967 
L 289.089814 76.769805 
L 292.361207 76.546007 
L 295.632601 76.075963 
L 303.811085 74.442413 
L 307.082479 74.156413 
L 308.718176 74.195723 
L 311.989569 74.597768 
L 320.168054 76.139147 
L 323.439447 76.408294 
L 326.710841 76.415094 
L 331.617932 76.142929 
L 338.160719 75.733201 
L 343.067809 75.687467 
L 346.339203 75.887739 
L 351.246294 76.549562 
L 356.153384 77.283199 
L 359.424778 77.586246 
L 362.696172 77.644942 
L 375.781746 77.46708 
L 380.688837 77.893056 
L 385.595927 78.585716 
L 393.774412 79.877882 
L 397.045805 80.173196 
L 400.317199 80.222673 
L 408.495683 80.086876 
L 411.767077 80.371407 
L 415.038471 80.954914 
L 423.216955 82.634187 
L 426.488348 82.977796 
L 429.759742 83.100975 
L 436.302529 83.018921 
L 442.845317 82.776093 
L 446.116711 82.403911 
L 449.388104 81.713667 
L 452.659498 80.641014 
L 455.930892 79.264408 
L 460.837982 76.858041 
L 472.28786 70.855274 
L 480.466344 66.264464 
L 493.551919 58.795709 
L 498.45901 56.214881 
L 503.3661 53.890061 
L 508.273191 51.838964 
L 513.180281 50.022728 
L 519.723068 47.896417 
L 526.265856 46.019627 
L 526.265856 46.019627 
" clip-path="url(#p51d8bcc5c4)" style="fill: none; stroke: #af5a51; stroke-opacity: 0.95; stroke-width: 1.25; stroke-linecap: square"/>
   </g>
   <g id="line2d_28">
    <path d="M 37.1925 175.197901 
L 43.735287 173.895859 
L 55.185165 171.531163 
L 60.092256 170.789875 
L 63.363649 170.473702 
L 68.27074 170.270998 
L 76.449224 170.043283 
L 82.992012 169.491507 
L 89.534799 168.937396 
L 96.077586 168.69679 
L 110.798858 168.396341 
L 115.705948 168.048706 
L 120.613039 167.483001 
L 127.155826 166.483187 
L 136.970007 164.716721 
L 145.148492 163.110567 
L 148.419885 162.310004 
L 151.691279 161.297951 
L 154.962673 160.000473 
L 166.412551 154.864462 
L 174.591035 152.166727 
L 176.226732 151.429782 
L 177.862428 150.534921 
L 179.498125 149.444129 
L 182.769519 146.747907 
L 189.312306 140.918339 
L 190.948003 139.71228 
L 192.5837 138.719651 
L 195.855094 137.238985 
L 199.126487 135.900125 
L 200.762184 135.083025 
L 202.397881 134.06036 
L 204.033578 132.75179 
L 205.669275 131.086293 
L 207.304972 129.08557 
L 210.576365 124.378551 
L 217.119153 114.256181 
L 220.390546 109.943528 
L 223.66194 106.260718 
L 226.933334 103.003366 
L 233.476121 97.002324 
L 236.747515 94.189243 
L 240.018908 91.667358 
L 243.290302 89.576252 
L 244.925999 88.731278 
L 246.561696 88.023792 
L 248.197393 87.450838 
L 249.833089 87.00946 
L 251.468786 86.696702 
L 253.104483 86.509608 
L 254.74018 86.445221 
L 258.011574 86.663619 
L 262.918664 87.493635 
L 266.190058 88.011984 
L 267.825755 88.164981 
L 269.461452 88.205148 
L 272.732845 87.943674 
L 276.004239 87.390148 
L 280.911329 86.458839 
L 284.182723 86.052501 
L 287.454117 85.899144 
L 290.725511 85.978302 
L 293.996904 86.268922 
L 298.903995 87.020443 
L 305.446782 88.089713 
L 308.718176 88.40084 
L 311.989569 88.480252 
L 315.260963 88.371985 
L 320.168054 87.968093 
L 325.075144 87.390081 
L 329.982235 86.61366 
L 334.889325 85.571849 
L 339.796416 84.278207 
L 352.881991 80.661056 
L 356.153384 79.962299 
L 359.424778 79.438977 
L 362.696172 79.115799 
L 367.603262 78.931302 
L 374.146049 79.023817 
L 382.324534 79.191358 
L 387.231624 79.058422 
L 395.410108 78.714072 
L 398.681502 78.795309 
L 401.952896 79.08193 
L 406.859986 79.78471 
L 418.309864 81.842593 
L 431.395439 84.285421 
L 434.666833 84.58193 
L 437.938226 84.559874 
L 441.20962 84.246261 
L 451.023801 82.947093 
L 462.473679 82.031826 
L 465.745073 81.470919 
L 469.016466 80.675715 
L 472.28786 79.624933 
L 475.559254 78.297818 
L 485.373435 73.782186 
L 487.009132 73.227615 
L 488.644828 72.799929 
L 491.916222 72.305405 
L 495.187616 72.160622 
L 508.273191 72.141846 
L 511.544584 71.821331 
L 514.815978 71.27114 
L 518.087372 70.443637 
L 521.358765 69.291187 
L 524.630159 67.766153 
L 526.265856 66.849031 
L 526.265856 66.849031 
" clip-path="url(#p51d8bcc5c4)" style="fill: none; stroke: #608eb4; stroke-width: 1.25; stroke-linecap: square"/>
   </g>
   <g id="line2d_29">
    <path d="M 37.1925 175.197901 
L 40.463894 175.117263 
L 45.370984 174.691275 
L 58.456559 173.207181 
L 61.727953 173.084627 
L 64.999346 173.174212 
L 74.813527 173.842684 
L 78.084921 173.762953 
L 81.356315 173.454749 
L 86.263405 172.746563 
L 94.441889 171.525191 
L 112.434555 169.166109 
L 123.884433 167.658273 
L 127.155826 167.033947 
L 130.42722 166.235687 
L 133.698614 165.24992 
L 136.970007 164.071906 
L 140.241401 162.696903 
L 145.148492 160.293547 
L 153.326976 155.845793 
L 174.591035 144.271104 
L 177.862428 142.929351 
L 181.133822 142.021297 
L 186.040913 141.169834 
L 189.312306 140.575287 
L 192.5837 139.66484 
L 194.219397 139.023084 
L 195.855094 138.236401 
L 197.490791 137.29156 
L 199.126487 136.175329 
L 200.762184 134.874476 
L 202.397881 133.37577 
L 204.033578 131.665979 
L 205.669275 129.73518 
L 208.940668 125.32153 
L 213.847759 117.951801 
L 217.119153 113.030694 
L 220.390546 108.46075 
L 223.66194 104.36213 
L 226.933334 100.797676 
L 228.569031 99.235391 
L 230.204727 97.830204 
L 231.840424 96.586941 
L 233.476121 95.497322 
L 235.111818 94.549525 
L 238.383212 93.032102 
L 241.654605 91.940083 
L 244.925999 91.181764 
L 248.197393 90.717804 
L 251.468786 90.554505 
L 254.74018 90.699698 
L 258.011574 91.156291 
L 261.282967 91.858645 
L 272.732845 94.601579 
L 276.004239 95.126268 
L 279.275633 95.493185 
L 282.547026 95.695006 
L 287.454117 95.756493 
L 293.996904 95.834727 
L 298.903995 96.199469 
L 303.811085 96.610147 
L 307.082479 96.710308 
L 310.353873 96.562768 
L 320.168054 95.750447 
L 323.439447 95.814428 
L 329.982235 96.339516 
L 333.253628 96.547981 
L 336.525022 96.584987 
L 341.432113 96.40225 
L 359.424778 95.286421 
L 367.603262 94.29736 
L 370.874656 94.17884 
L 374.146049 94.415273 
L 377.417443 94.953391 
L 385.595927 96.596085 
L 390.503018 97.250657 
L 395.410108 97.896997 
L 398.681502 98.508197 
L 403.588593 99.727621 
L 408.495683 100.935016 
L 411.767077 101.516026 
L 415.038471 101.869962 
L 424.852652 102.642078 
L 437.938226 104.26355 
L 441.20962 104.379473 
L 444.481014 104.319279 
L 447.752407 104.08201 
L 451.023801 103.668985 
L 455.930892 102.803807 
L 475.559254 98.827868 
L 480.466344 97.366573 
L 487.009132 95.107385 
L 500.094706 90.527978 
L 505.001797 89.004313 
L 509.908887 87.687912 
L 514.815978 86.647698 
L 518.087372 86.141696 
L 521.358765 85.8095 
L 524.630159 85.671531 
L 526.265856 85.681763 
L 526.265856 85.681763 
" clip-path="url(#p51d8bcc5c4)" style="fill: none; stroke: #489079; stroke-width: 1.25; stroke-linecap: square"/>
   </g>
   <g id="line2d_30">
    <path d="M 37.1925 175.197901 
L 40.463894 174.149327 
L 43.735287 173.424126 
L 47.006681 172.94417 
L 51.913772 172.513163 
L 60.092256 171.914216 
L 63.363649 171.488616 
L 68.27074 170.529374 
L 76.449224 168.763942 
L 81.356315 168.003939 
L 87.899102 167.264061 
L 127.155826 163.199688 
L 130.42722 162.578273 
L 133.698614 161.789124 
L 138.605704 160.313219 
L 143.512795 158.527035 
L 154.962673 154.107128 
L 161.50546 151.951717 
L 174.591035 147.88928 
L 177.862428 147.177773 
L 181.133822 146.75951 
L 184.405216 146.592334 
L 195.855094 146.316122 
L 197.490791 146.041116 
L 199.126487 145.610331 
L 200.762184 144.987673 
L 202.397881 144.137047 
L 204.033578 143.022357 
L 205.669275 141.611813 
L 207.304972 139.916459 
L 208.940668 137.971898 
L 212.212062 133.478738 
L 215.483456 128.419495 
L 225.297637 112.592794 
L 228.569031 107.914802 
L 230.204727 105.819971 
L 231.840424 103.921257 
L 233.476121 102.217229 
L 235.111818 100.699693 
L 236.747515 99.360456 
L 238.383212 98.191325 
L 240.018908 97.184105 
L 241.654605 96.330603 
L 243.290302 95.622624 
L 244.925999 95.05039 
L 248.197393 94.254671 
L 251.468786 93.822257 
L 254.74018 93.631117 
L 261.282967 93.549905 
L 272.732845 93.500665 
L 277.639936 93.193006 
L 280.911329 92.766771 
L 284.182723 92.117334 
L 292.361207 90.313188 
L 295.632601 89.958665 
L 298.903995 89.929869 
L 305.446782 90.090681 
L 308.718176 89.874638 
L 311.989569 89.349806 
L 318.532357 88.068197 
L 321.803751 87.67672 
L 325.075144 87.54363 
L 333.253628 87.416895 
L 336.525022 87.079841 
L 339.796416 86.450166 
L 343.067809 85.481045 
L 346.339203 84.125688 
L 351.246294 81.532672 
L 354.517687 79.902453 
L 356.153384 79.251811 
L 357.789081 78.770786 
L 359.424778 78.503957 
L 361.060475 78.462567 
L 362.696172 78.599712 
L 365.967565 79.198616 
L 369.238959 79.878695 
L 370.874656 80.117308 
L 372.510353 80.219117 
L 374.146049 80.171872 
L 377.417443 79.777687 
L 382.324534 79.023581 
L 383.960231 78.885167 
L 385.595927 78.866607 
L 388.867321 79.180677 
L 392.138715 79.804251 
L 398.681502 81.207317 
L 401.952896 81.685941 
L 405.224289 81.99686 
L 410.13138 82.209331 
L 421.581258 82.387987 
L 424.852652 82.716154 
L 436.302529 84.285225 
L 439.573923 84.318199 
L 444.481014 83.998226 
L 452.659498 83.28832 
L 459.202285 82.988289 
L 475.559254 82.534389 
L 480.466344 82.021894 
L 498.45901 79.683428 
L 501.730403 79.07277 
L 505.001797 78.297795 
L 508.273191 77.339726 
L 511.544584 76.181265 
L 514.815978 74.805117 
L 518.087372 73.193985 
L 521.358765 71.330572 
L 524.630159 69.197581 
L 526.265856 68.024588 
L 526.265856 68.024588 
" clip-path="url(#p51d8bcc5c4)" style="fill: none; stroke: #eea92b; stroke-opacity: 0.95; stroke-width: 1.25; stroke-linecap: square"/>
   </g>
   <g id="line2d_31">
    <path d="M 37.1925 175.197901 
L 47.006681 174.222493 
L 55.185165 173.663747 
L 61.727953 173.4356 
L 69.906437 173.425348 
L 78.084921 173.364368 
L 91.170496 173.083833 
L 97.713283 173.008902 
L 100.984677 172.752277 
L 104.256071 172.247491 
L 114.070252 170.354011 
L 117.341645 170.058639 
L 127.155826 169.482047 
L 130.42722 168.894598 
L 133.698614 168.059335 
L 138.605704 166.526609 
L 151.691279 162.065754 
L 158.234066 159.577266 
L 169.683944 154.898959 
L 172.955338 153.413261 
L 176.226732 151.703112 
L 179.498125 149.664897 
L 182.769519 147.296186 
L 189.312306 142.429336 
L 192.5837 140.399395 
L 200.762184 136.116584 
L 202.397881 135.014609 
L 204.033578 133.714919 
L 205.669275 132.173736 
L 207.304972 130.405966 
L 210.576365 126.385283 
L 218.754849 115.783505 
L 222.026243 112.18187 
L 225.297637 109.103873 
L 228.569031 106.570583 
L 230.204727 105.514788 
L 231.840424 104.600517 
L 235.111818 103.149639 
L 238.383212 102.109172 
L 241.654605 101.367348 
L 244.925999 100.816663 
L 248.197393 100.427112 
L 251.468786 100.236241 
L 254.74018 100.283857 
L 258.011574 100.603268 
L 262.918664 101.44625 
L 267.825755 102.353366 
L 271.097148 102.793714 
L 274.368542 103.058936 
L 279.275633 103.199323 
L 285.81842 103.081945 
L 295.632601 102.863442 
L 302.175388 103.020421 
L 315.260963 103.453642 
L 318.532357 103.329955 
L 321.803751 102.997098 
L 329.982235 101.863909 
L 333.253628 101.7654 
L 336.525022 102.076125 
L 341.432113 102.960411 
L 344.703506 103.51633 
L 347.9749 103.807161 
L 351.246294 103.821227 
L 359.424778 103.597491 
L 364.331868 103.823143 
L 369.238959 104.067277 
L 372.510353 104.030586 
L 375.781746 103.766606 
L 383.960231 102.975152 
L 387.231624 102.974966 
L 390.503018 103.231595 
L 393.774412 103.696106 
L 398.681502 104.674644 
L 408.495683 106.884881 
L 411.767077 107.431791 
L 418.309864 108.176286 
L 423.216955 108.782495 
L 433.031136 110.356276 
L 436.302529 110.485254 
L 439.573923 110.221281 
L 447.752407 109.117537 
L 451.023801 109.092859 
L 455.930892 109.546148 
L 459.202285 109.818269 
L 462.473679 109.777206 
L 465.745073 109.293827 
L 470.652163 108.098544 
L 475.559254 106.940394 
L 478.830647 106.426079 
L 490.280525 104.932814 
L 500.094706 103.14434 
L 503.3661 102.786769 
L 509.908887 102.405986 
L 514.815978 102.103915 
L 518.087372 101.747463 
L 521.358765 101.175348 
L 524.630159 100.309052 
L 526.265856 99.741049 
L 526.265856 99.741049 
" clip-path="url(#p51d8bcc5c4)" style="fill: none; stroke: #676391; stroke-width: 1.25; stroke-linecap: square"/>
   </g>
   <g id="patch_4">
    <path d="M 27.1925 208.196719 
L 27.1925 43.20263 
" style="fill: none; stroke: #aaaaaa; stroke-width: 0.75; stroke-linejoin: miter; stroke-linecap: square"/>
   </g>
   <g id="patch_5">
    <path d="M 37.1925 218.196719 
L 539.3925 218.196719 
" style="fill: none; stroke: #aaaaaa; stroke-width: 0.75; stroke-linejoin: miter; stroke-linecap: square"/>
   </g>
   <g id="legend_1">
    <g id="line2d_32">
     <path d="M 45.2925 14.633438 
L 54.2925 14.633438 
L 63.2925 14.633438 
" style="fill: none; stroke-dasharray: 5.55,2.4; stroke-dashoffset: 0; stroke: #5d5d5d; stroke-width: 1.5"/>
    </g>
    <g id="text_25">
     <!-- Сырое молоко -->
     <g style="fill: #4b4b4b" transform="translate(70.4925 17.783438) scale(0.09 -0.09)">
      <defs>
       <path id="Ubuntu-421" d="M 2458 -96 
Q 1990 -96 1606 57 
Q 1222 211 947 505 
Q 672 800 521 1232 
Q 371 1664 371 2221 
Q 371 2778 540 3210 
Q 710 3642 998 3936 
Q 1286 4230 1670 4384 
Q 2054 4538 2490 4538 
Q 2765 4538 2985 4499 
Q 3206 4461 3369 4409 
Q 3533 4358 3635 4307 
Q 3738 4256 3776 4230 
L 3597 3718 
Q 3539 3757 3430 3801 
Q 3322 3846 3184 3891 
Q 3046 3936 2883 3965 
Q 2720 3994 2554 3994 
Q 2202 3994 1920 3872 
Q 1638 3750 1440 3520 
Q 1242 3290 1136 2960 
Q 1030 2630 1030 2221 
Q 1030 1824 1123 1497 
Q 1216 1171 1401 937 
Q 1587 704 1865 576 
Q 2144 448 2515 448 
Q 2944 448 3225 537 
Q 3507 627 3648 698 
L 3808 186 
Q 3763 154 3648 106 
Q 3533 58 3360 13 
Q 3187 -32 2956 -64 
Q 2726 -96 2458 -96 
z
" transform="scale(0.015625)"/>
       <path id="Ubuntu-44b" d="M 1734 1645 
Q 1562 1645 1398 1635 
Q 1235 1626 1107 1594 
L 1107 448 
Q 1146 442 1219 435 
Q 1293 429 1379 425 
Q 1466 422 1555 419 
Q 1645 416 1715 416 
Q 2106 416 2317 563 
Q 2528 710 2528 1037 
Q 2528 1197 2461 1312 
Q 2394 1427 2282 1500 
Q 2170 1574 2029 1609 
Q 1888 1645 1734 1645 
z
M 512 3328 
L 1107 3328 
L 1107 2054 
Q 1216 2080 1424 2105 
Q 1632 2131 1824 2131 
Q 2086 2131 2323 2070 
Q 2560 2010 2739 1878 
Q 2918 1747 3024 1539 
Q 3130 1331 3130 1043 
Q 3130 742 3027 531 
Q 2925 320 2739 185 
Q 2554 51 2291 -9 
Q 2029 -70 1715 -70 
Q 1414 -70 1107 -35 
Q 800 0 512 70 
L 512 3328 
z
M 4339 0 
L 3744 0 
L 3744 3328 
L 4339 3328 
L 4339 0 
z
" transform="scale(0.015625)"/>
       <path id="Ubuntu-43e" d="M 3450 1664 
Q 3450 1267 3334 947 
Q 3219 627 3011 396 
Q 2803 166 2515 41 
Q 2227 -83 1888 -83 
Q 1549 -83 1261 41 
Q 973 166 765 396 
Q 557 627 441 947 
Q 326 1267 326 1664 
Q 326 2054 441 2377 
Q 557 2701 765 2931 
Q 973 3162 1261 3286 
Q 1549 3411 1888 3411 
Q 2227 3411 2515 3286 
Q 2803 3162 3011 2931 
Q 3219 2701 3334 2377 
Q 3450 2054 3450 1664 
z
M 2829 1664 
Q 2829 2227 2576 2556 
Q 2323 2886 1888 2886 
Q 1453 2886 1200 2556 
Q 947 2227 947 1664 
Q 947 1101 1200 771 
Q 1453 442 1888 442 
Q 2323 442 2576 771 
Q 2829 1101 2829 1664 
z
" transform="scale(0.015625)"/>
       <path id="Ubuntu-435" d="M 326 1658 
Q 326 2099 454 2428 
Q 582 2758 793 2976 
Q 1005 3194 1280 3302 
Q 1555 3411 1843 3411 
Q 2515 3411 2873 2992 
Q 3232 2573 3232 1715 
Q 3232 1677 3232 1616 
Q 3232 1555 3226 1504 
L 947 1504 
Q 986 986 1248 717 
Q 1510 448 2067 448 
Q 2381 448 2595 502 
Q 2810 557 2918 608 
L 3002 109 
Q 2893 51 2621 -13 
Q 2349 -77 2003 -77 
Q 1568 -77 1251 54 
Q 934 186 729 416 
Q 525 646 425 963 
Q 326 1280 326 1658 
z
M 2611 1984 
Q 2618 2387 2410 2646 
Q 2202 2906 1837 2906 
Q 1632 2906 1475 2826 
Q 1318 2746 1209 2618 
Q 1101 2490 1040 2323 
Q 979 2157 960 1984 
L 2611 1984 
z
" transform="scale(0.015625)"/>
       <path id="Ubuntu-20" transform="scale(0.015625)"/>
       <path id="Ubuntu-43c" d="M 1146 2451 
Q 1082 1818 1050 1187 
Q 1018 557 998 0 
L 429 0 
Q 442 390 467 816 
Q 493 1242 525 1674 
Q 557 2106 595 2525 
Q 634 2944 678 3328 
L 1222 3328 
Q 1427 2995 1702 2416 
Q 1978 1837 2336 1082 
Q 2694 1837 2969 2416 
Q 3245 2995 3450 3328 
L 4000 3328 
Q 4045 2944 4083 2525 
Q 4122 2106 4154 1674 
Q 4186 1242 4211 816 
Q 4237 390 4250 0 
L 3661 0 
Q 3642 557 3610 1187 
Q 3578 1818 3514 2451 
Q 3411 2253 3276 1974 
Q 3142 1696 3011 1408 
Q 2880 1120 2765 857 
Q 2650 595 2586 442 
L 2086 442 
Q 2016 602 1897 864 
Q 1779 1126 1648 1417 
Q 1517 1709 1382 1987 
Q 1248 2266 1146 2451 
z
" transform="scale(0.015625)"/>
      </defs>
      <use xlink:href="#Ubuntu-421"/>
      <use xlink:href="#Ubuntu-44b" x="61.999985"/>
      <use xlink:href="#Ubuntu-440" x="137.799973"/>
      <use xlink:href="#Ubuntu-43e" x="196.699966"/>
      <use xlink:href="#Ubuntu-435" x="255.699951"/>
      <use xlink:href="#Ubuntu-20" x="311.599945"/>
      <use xlink:href="#Ubuntu-43c" x="334.699936"/>
      <use xlink:href="#Ubuntu-43e" x="407.799927"/>
      <use xlink:href="#Ubuntu-43b" x="466.799911"/>
      <use xlink:href="#Ubuntu-43e" x="526.599899"/>
      <use xlink:href="#Ubuntu-43a" x="585.599884"/>
      <use xlink:href="#Ubuntu-43e" x="636.424881"/>
     </g>
    </g>
    <g id="line2d_33">
     <path d="M 45.2925 27.781875 
L 54.2925 27.781875 
L 63.2925 27.781875 
" style="fill: none; stroke: #5d5d5d; stroke-opacity: 0.95; stroke-width: 1.25; stroke-linecap: square"/>
    </g>
    <g id="text_26">
     <!-- Пастеризованное молоко -->
     <g style="fill: #4b4b4b" transform="translate(70.4925 30.931875) scale(0.09 -0.09)">
      <defs>
       <path id="Ubuntu-41f" d="M 3923 4435 
L 3923 0 
L 3302 0 
L 3302 3904 
L 1171 3904 
L 1171 0 
L 550 0 
L 550 4435 
L 3923 4435 
z
" transform="scale(0.015625)"/>
       <path id="Ubuntu-430" d="M 1638 429 
Q 1850 429 2013 438 
Q 2176 448 2285 474 
L 2285 1466 
Q 2221 1498 2077 1520 
Q 1933 1542 1728 1542 
Q 1594 1542 1443 1523 
Q 1293 1504 1168 1443 
Q 1043 1382 960 1276 
Q 877 1171 877 998 
Q 877 678 1081 553 
Q 1286 429 1638 429 
z
M 1587 3411 
Q 1946 3411 2192 3318 
Q 2438 3226 2588 3056 
Q 2739 2886 2803 2652 
Q 2867 2419 2867 2138 
L 2867 58 
Q 2790 45 2652 22 
Q 2515 0 2342 -19 
Q 2170 -38 1968 -54 
Q 1766 -70 1568 -70 
Q 1286 -70 1049 -12 
Q 813 45 640 169 
Q 467 294 371 499 
Q 275 704 275 992 
Q 275 1267 387 1465 
Q 499 1664 691 1785 
Q 883 1907 1139 1964 
Q 1395 2022 1677 2022 
Q 1766 2022 1862 2012 
Q 1958 2003 2044 1987 
Q 2131 1971 2195 1958 
Q 2259 1946 2285 1939 
L 2285 2106 
Q 2285 2253 2253 2397 
Q 2221 2541 2137 2653 
Q 2054 2765 1910 2832 
Q 1766 2899 1536 2899 
Q 1242 2899 1021 2857 
Q 800 2816 691 2771 
L 621 3264 
Q 736 3315 1005 3363 
Q 1274 3411 1587 3411 
z
" transform="scale(0.015625)"/>
       <path id="Ubuntu-441" d="M 1958 -77 
Q 1555 -77 1251 51 
Q 947 179 739 409 
Q 531 640 428 957 
Q 326 1274 326 1658 
Q 326 2042 438 2362 
Q 550 2682 755 2915 
Q 960 3149 1257 3280 
Q 1555 3411 1920 3411 
Q 2144 3411 2368 3372 
Q 2592 3334 2797 3251 
L 2662 2746 
Q 2528 2810 2352 2848 
Q 2176 2886 1978 2886 
Q 1478 2886 1212 2572 
Q 947 2259 947 1658 
Q 947 1389 1008 1165 
Q 1069 941 1200 781 
Q 1331 621 1536 534 
Q 1741 448 2035 448 
Q 2272 448 2464 493 
Q 2656 538 2765 589 
L 2848 90 
Q 2797 58 2701 29 
Q 2605 0 2483 -22 
Q 2362 -45 2224 -61 
Q 2086 -77 1958 -77 
z
" transform="scale(0.015625)"/>
       <path id="Ubuntu-438" d="M 3309 3328 
L 3309 0 
L 2733 0 
L 2733 2534 
Q 2541 2291 2310 1964 
Q 2080 1638 1849 1289 
Q 1619 941 1408 601 
Q 1197 262 1043 0 
L 512 0 
L 512 3328 
L 1088 3328 
L 1088 934 
Q 1254 1210 1465 1539 
Q 1677 1869 1904 2192 
Q 2131 2515 2358 2812 
Q 2586 3110 2784 3328 
L 3309 3328 
z
" transform="scale(0.015625)"/>
       <path id="Ubuntu-437" d="M 1357 3411 
Q 1645 3411 1894 3353 
Q 2144 3296 2323 3181 
Q 2502 3066 2604 2893 
Q 2707 2720 2707 2490 
Q 2707 2342 2656 2220 
Q 2605 2099 2528 2003 
Q 2451 1907 2358 1840 
Q 2266 1773 2182 1747 
Q 2477 1658 2646 1430 
Q 2816 1203 2816 858 
Q 2816 384 2432 153 
Q 2048 -77 1389 -77 
Q 986 -77 694 -13 
Q 403 51 282 109 
L 384 614 
Q 486 576 752 509 
Q 1018 442 1389 442 
Q 1792 442 2003 566 
Q 2214 691 2214 941 
Q 2214 1120 2134 1232 
Q 2054 1344 1932 1401 
Q 1811 1459 1670 1478 
Q 1530 1498 1408 1498 
L 851 1498 
L 851 1971 
L 1389 1971 
Q 1504 1971 1629 1987 
Q 1754 2003 1859 2054 
Q 1965 2106 2035 2198 
Q 2106 2291 2106 2445 
Q 2106 2566 2045 2652 
Q 1984 2739 1881 2796 
Q 1779 2854 1641 2883 
Q 1504 2912 1357 2912 
Q 1242 2912 1107 2893 
Q 973 2874 845 2845 
Q 717 2816 614 2784 
Q 512 2752 467 2726 
L 358 3238 
Q 410 3258 518 3290 
Q 627 3322 764 3347 
Q 902 3373 1056 3392 
Q 1210 3411 1357 3411 
z
" transform="scale(0.015625)"/>
      </defs>
      <use xlink:href="#Ubuntu-41f"/>
      <use xlink:href="#Ubuntu-430" x="69.899994"/>
      <use xlink:href="#Ubuntu-441" x="122.099991"/>
      <use xlink:href="#Ubuntu-442" x="170.099976"/>
      <use xlink:href="#Ubuntu-435" x="216.399963"/>
      <use xlink:href="#Ubuntu-440" x="272.299957"/>
      <use xlink:href="#Ubuntu-438" x="331.199951"/>
      <use xlink:href="#Ubuntu-437" x="390.899948"/>
      <use xlink:href="#Ubuntu-43e" x="439.799942"/>
      <use xlink:href="#Ubuntu-432" x="498.799927"/>
      <use xlink:href="#Ubuntu-430" x="553.599915"/>
      <use xlink:href="#Ubuntu-43d" x="605.799911"/>
      <use xlink:href="#Ubuntu-43d" x="664.399902"/>
      <use xlink:href="#Ubuntu-43e" x="722.999893"/>
      <use xlink:href="#Ubuntu-435" x="781.999878"/>
      <use xlink:href="#Ubuntu-20" x="837.899872"/>
      <use xlink:href="#Ubuntu-43c" x="860.999863"/>
      <use xlink:href="#Ubuntu-43e" x="934.099854"/>
      <use xlink:href="#Ubuntu-43b" x="993.099838"/>
      <use xlink:href="#Ubuntu-43e" x="1052.899826"/>
      <use xlink:href="#Ubuntu-43a" x="1111.899811"/>
      <use xlink:href="#Ubuntu-43e" x="1162.724808"/>
     </g>
    </g>
    <g id="line2d_34">
     <path d="M 198.448594 14.633438 
L 207.448594 14.633438 
L 216.448594 14.633438 
" style="fill: none; stroke: #af5a51; stroke-opacity: 0.95; stroke-width: 1.25; stroke-linecap: square"/>
    </g>
    <g id="text_27">
     <!-- Масло сливочное -->
     <g style="fill: #4b4b4b" transform="translate(223.648594 17.783438) scale(0.09 -0.09)">
      <defs>
       <path id="Ubuntu-41c" d="M 2541 614 
Q 2477 768 2371 1005 
Q 2266 1242 2144 1517 
Q 2022 1792 1884 2083 
Q 1747 2374 1625 2633 
Q 1504 2893 1398 3097 
Q 1293 3302 1229 3411 
Q 1158 2656 1113 1776 
Q 1069 896 1037 0 
L 429 0 
Q 454 576 486 1161 
Q 518 1747 560 2313 
Q 602 2880 650 3417 
Q 698 3955 755 4435 
L 1299 4435 
Q 1472 4154 1670 3770 
Q 1869 3386 2067 2966 
Q 2266 2547 2451 2128 
Q 2637 1709 2790 1363 
Q 2944 1709 3129 2128 
Q 3315 2547 3513 2966 
Q 3712 3386 3910 3770 
Q 4109 4154 4282 4435 
L 4826 4435 
Q 5043 2291 5152 0 
L 4544 0 
Q 4512 896 4467 1776 
Q 4422 2656 4352 3411 
Q 4288 3302 4182 3097 
Q 4077 2893 3955 2633 
Q 3834 2374 3696 2083 
Q 3558 1792 3436 1517 
Q 3315 1242 3209 1005 
Q 3104 768 3040 614 
L 2541 614 
z
" transform="scale(0.015625)"/>
       <path id="Ubuntu-447" d="M 890 3328 
L 890 2349 
Q 890 1971 1082 1820 
Q 1274 1670 1606 1670 
Q 1850 1670 2013 1696 
Q 2176 1722 2304 1754 
L 2304 3328 
L 2899 3328 
L 2899 0 
L 2304 0 
L 2304 1293 
Q 2253 1280 2169 1261 
Q 2086 1242 1980 1226 
Q 1875 1210 1760 1197 
Q 1645 1184 1536 1184 
Q 1261 1184 1033 1241 
Q 806 1299 643 1433 
Q 480 1568 387 1789 
Q 294 2010 294 2342 
L 294 3328 
L 890 3328 
z
" transform="scale(0.015625)"/>
      </defs>
      <use xlink:href="#Ubuntu-41c"/>
      <use xlink:href="#Ubuntu-430" x="87.099991"/>
      <use xlink:href="#Ubuntu-441" x="139.299988"/>
      <use xlink:href="#Ubuntu-43b" x="187.674973"/>
      <use xlink:href="#Ubuntu-43e" x="247.47496"/>
      <use xlink:href="#Ubuntu-20" x="306.474945"/>
      <use xlink:href="#Ubuntu-441" x="329.574936"/>
      <use xlink:href="#Ubuntu-43b" x="377.949921"/>
      <use xlink:href="#Ubuntu-438" x="437.749908"/>
      <use xlink:href="#Ubuntu-432" x="497.449905"/>
      <use xlink:href="#Ubuntu-43e" x="552.249893"/>
      <use xlink:href="#Ubuntu-447" x="611.249878"/>
      <use xlink:href="#Ubuntu-43d" x="664.549866"/>
      <use xlink:href="#Ubuntu-43e" x="723.149857"/>
      <use xlink:href="#Ubuntu-435" x="782.149841"/>
     </g>
    </g>
    <g id="line2d_35">
     <path d="M 198.448594 27.781875 
L 207.448594 27.781875 
L 216.448594 27.781875 
" style="fill: none; stroke: #608eb4; stroke-width: 1.25; stroke-linecap: square"/>
    </g>
    <g id="text_28">
     <!-- Сыр -->
     <g style="fill: #4b4b4b" transform="translate(223.648594 30.931875) scale(0.09 -0.09)">
      <use xlink:href="#Ubuntu-421"/>
      <use xlink:href="#Ubuntu-44b" x="61.999985"/>
      <use xlink:href="#Ubuntu-440" x="137.799973"/>
     </g>
    </g>
    <g id="line2d_36">
     <path d="M 317.071406 14.633438 
L 326.071406 14.633438 
L 335.071406 14.633438 
" style="fill: none; stroke: #489079; stroke-width: 1.25; stroke-linecap: square"/>
    </g>
    <g id="text_29">
     <!-- Сметана -->
     <g style="fill: #4b4b4b" transform="translate(342.271406 17.783438) scale(0.09 -0.09)">
      <use xlink:href="#Ubuntu-421"/>
      <use xlink:href="#Ubuntu-43c" x="61.999985"/>
      <use xlink:href="#Ubuntu-435" x="135.099976"/>
      <use xlink:href="#Ubuntu-442" x="190.999969"/>
      <use xlink:href="#Ubuntu-430" x="237.299957"/>
      <use xlink:href="#Ubuntu-43d" x="289.499954"/>
      <use xlink:href="#Ubuntu-430" x="348.099945"/>
     </g>
    </g>
    <g id="line2d_37">
     <path d="M 317.071406 28.935 
L 326.071406 28.935 
L 335.071406 28.935 
" style="fill: none; stroke: #eea92b; stroke-opacity: 0.95; stroke-width: 1.25; stroke-linecap: square"/>
    </g>
    <g id="text_30">
     <!-- Йогрут -->
     <g style="fill: #4b4b4b" transform="translate(342.271406 32.085) scale(0.09 -0.09)">
      <defs>
       <path id="Ubuntu-419" d="M 550 0 
L 550 4435 
L 1158 4435 
L 1158 1152 
Q 1363 1491 1660 1926 
Q 1958 2362 2294 2813 
Q 2630 3264 2972 3689 
Q 3315 4115 3616 4435 
L 4109 4435 
L 4109 0 
L 3501 0 
L 3501 3462 
Q 3322 3258 3110 2989 
Q 2899 2720 2675 2416 
Q 2451 2112 2224 1785 
Q 1997 1459 1785 1142 
Q 1574 826 1392 531 
Q 1210 237 1069 0 
L 550 0 
z
M 2333 4890 
Q 1930 4890 1677 5094 
Q 1424 5299 1373 5664 
L 1827 5786 
Q 1878 5581 2000 5453 
Q 2122 5325 2333 5325 
Q 2544 5325 2665 5453 
Q 2787 5581 2838 5786 
L 3286 5664 
Q 3235 5299 2985 5094 
Q 2736 4890 2333 4890 
z
" transform="scale(0.015625)"/>
       <path id="Ubuntu-433" d="M 2573 2829 
L 1107 2829 
L 1107 0 
L 512 0 
L 512 3328 
L 2573 3328 
L 2573 2829 
z
" transform="scale(0.015625)"/>
       <path id="Ubuntu-443" d="M 122 -621 
Q 192 -653 304 -681 
Q 416 -710 525 -710 
Q 877 -710 1075 -553 
Q 1274 -397 1434 -45 
Q 1030 723 681 1584 
Q 333 2445 102 3328 
L 742 3328 
Q 813 3040 912 2707 
Q 1011 2374 1132 2022 
Q 1254 1670 1395 1318 
Q 1536 966 1690 640 
Q 1933 1312 2112 1971 
Q 2291 2630 2451 3328 
L 3066 3328 
Q 2835 2387 2553 1520 
Q 2272 653 1946 -102 
Q 1818 -390 1680 -598 
Q 1542 -806 1376 -940 
Q 1210 -1075 1002 -1139 
Q 794 -1203 531 -1203 
Q 461 -1203 384 -1193 
Q 307 -1184 233 -1168 
Q 160 -1152 99 -1133 
Q 38 -1114 13 -1101 
L 122 -621 
z
" transform="scale(0.015625)"/>
      </defs>
      <use xlink:href="#Ubuntu-419"/>
      <use xlink:href="#Ubuntu-43e" x="72.799988"/>
      <use xlink:href="#Ubuntu-433" x="131.799973"/>
      <use xlink:href="#Ubuntu-440" x="173.59996"/>
      <use xlink:href="#Ubuntu-443" x="231.124954"/>
      <use xlink:href="#Ubuntu-442" x="282.949951"/>
     </g>
    </g>
    <g id="line2d_38">
     <path d="M 396.298125 14.633438 
L 405.298125 14.633438 
L 414.298125 14.633438 
" style="fill: none; stroke: #676391; stroke-width: 1.25; stroke-linecap: square"/>
    </g>
    <g id="text_31">
     <!-- Творог -->
     <g style="fill: #4b4b4b" transform="translate(421.498125 17.783438) scale(0.09 -0.09)">
      <defs>
       <path id="Ubuntu-422" d="M 3514 4435 
L 3514 3898 
L 2118 3898 
L 2118 0 
L 1498 0 
L 1498 3898 
L 102 3898 
L 102 4435 
L 3514 4435 
z
" transform="scale(0.015625)"/>
      </defs>
      <use xlink:href="#Ubuntu-422"/>
      <use xlink:href="#Ubuntu-432" x="49.124985"/>
      <use xlink:href="#Ubuntu-43e" x="103.924973"/>
      <use xlink:href="#Ubuntu-440" x="162.924957"/>
      <use xlink:href="#Ubuntu-43e" x="221.824951"/>
      <use xlink:href="#Ubuntu-433" x="280.824936"/>
     </g>
    </g>
   </g>
   <g id="line2d_39">
    <path d="M 49.7475 175.197901 
L 526.8375 175.197901 
" clip-path="url(#p51d8bcc5c4)" style="fill: none; stroke-dasharray: 2.775,1.2; stroke-dashoffset: 0; stroke: #c5c5c5; stroke-width: 0.75"/>
   </g>
  </g>
 </g>
 <defs>
  <clipPath id="pbd2716c3c1">
   <rect x="37.1925" y="208.196719" width="502.2" height="0"/>
  </clipPath>
  <clipPath id="p51d8bcc5c4">
   <rect x="37.1925" y="41.876719" width="502.2" height="166.32"/>
  </clipPath>
 </defs>
</svg>
