<?xml version="1.0" encoding="utf-8" standalone="no"?>
<!DOCTYPE svg PUBLIC "-//W3C//DTD SVG 1.1//EN"
  "http://www.w3.org/Graphics/SVG/1.1/DTD/svg11.dtd">
<svg xmlns:xlink="http://www.w3.org/1999/xlink" width="548.9125pt" height="248.084219pt" viewBox="0 0 548.9125 248.084219" xmlns="http://www.w3.org/2000/svg" version="1.1">
 <metadata>
  <rdf:RDF xmlns:dc="http://purl.org/dc/elements/1.1/" xmlns:cc="http://creativecommons.org/ns#" xmlns:rdf="http://www.w3.org/1999/02/22-rdf-syntax-ns#">
   <cc:Work>
    <dc:type rdf:resource="http://purl.org/dc/dcmitype/StillImage"/>
    <dc:date>2024-05-22T10:56:36.446148</dc:date>
    <dc:format>image/svg+xml</dc:format>
    <dc:creator>
     <cc:Agent>
      <dc:title>Matplotlib v3.8.0, https://matplotlib.org/</dc:title>
     </cc:Agent>
    </dc:creator>
   </cc:Work>
  </rdf:RDF>
 </metadata>
 <defs>
  <style type="text/css">*{stroke-linejoin: round; stroke-linecap: butt}</style>
 </defs>
 <g id="figure_1">
  <g id="patch_1">
   <path d="M 0 248.084219 
L 548.9125 248.084219 
L 548.9125 0 
L 0 0 
L 0 248.084219 
z
" style="fill: none"/>
  </g>
  <g id="axes_1">
   <g id="patch_2">
    <path d="M 32.1925 208.196719 
L 534.3925 208.196719 
L 534.3925 41.876719 
L 32.1925 41.876719 
L 32.1925 208.196719 
z
" style="fill: none"/>
   </g>
   <g id="line2d_1">
    <path d="M 37.2145 176.481028 
L 529.3705 176.481028 
" clip-path="url(#p13778a73a2)" style="fill: none; stroke-dasharray: 2.775,1.2; stroke-dashoffset: 0; stroke: #cccccc; stroke-width: 0.75"/>
   </g>
   <g id="axes_2">
    <g id="patch_3">
     <path d="M 32.1925 208.196719 
L 534.3925 208.196719 
L 534.3925 208.196719 
L 32.1925 208.196719 
L 32.1925 208.196719 
z
" style="fill: none"/>
    </g>
    <g id="matplotlib.axis_1">
     <g id="xtick_1">
      <g id="line2d_2">
       <path d="M 32.1925 208.196719 
L 32.1925 208.196719 
" clip-path="url(#pd90e04701a)" style="fill: none; stroke-dasharray: 0.5,0.825; stroke-dashoffset: 0; stroke: #d9d9d9; stroke-width: 0.5"/>
      </g>
      <g id="text_1">
       <!-- 2021 -->
       <g style="fill: #808080" transform="translate(23.1675 239.404219) scale(0.08 -0.08)">
        <defs>
         <path id="Ubuntu-32" d="M 2989 3302 
Q 2989 3072 2896 2857 
Q 2803 2643 2649 2435 
Q 2496 2227 2304 2025 
Q 2112 1824 1920 1632 
Q 1811 1523 1667 1376 
Q 1523 1229 1395 1069 
Q 1267 909 1180 761 
Q 1094 614 1094 506 
L 3136 506 
L 3136 0 
L 448 0 
Q 442 38 442 76 
Q 442 115 442 147 
Q 442 448 541 707 
Q 640 966 800 1196 
Q 960 1427 1158 1632 
Q 1357 1837 1549 2029 
Q 1709 2182 1853 2332 
Q 1997 2483 2109 2633 
Q 2221 2784 2288 2944 
Q 2355 3104 2355 3283 
Q 2355 3475 2294 3609 
Q 2234 3744 2131 3833 
Q 2029 3923 1891 3964 
Q 1754 4006 1600 4006 
Q 1414 4006 1260 3955 
Q 1107 3904 985 3837 
Q 864 3770 781 3696 
Q 698 3622 653 3584 
L 358 4006 
Q 416 4070 531 4163 
Q 646 4256 806 4339 
Q 966 4422 1164 4480 
Q 1363 4538 1594 4538 
Q 2291 4538 2640 4214 
Q 2989 3891 2989 3302 
z
" transform="scale(0.015625)"/>
         <path id="Ubuntu-30" d="M 320 2221 
Q 320 3334 713 3936 
Q 1107 4538 1805 4538 
Q 2502 4538 2896 3936 
Q 3290 3334 3290 2221 
Q 3290 1107 2896 505 
Q 2502 -96 1805 -96 
Q 1107 -96 713 505 
Q 320 1107 320 2221 
z
M 2662 2221 
Q 2662 2586 2620 2912 
Q 2579 3238 2480 3481 
Q 2381 3725 2214 3869 
Q 2048 4013 1805 4013 
Q 1562 4013 1395 3869 
Q 1229 3725 1129 3481 
Q 1030 3238 988 2912 
Q 947 2586 947 2221 
Q 947 1856 988 1529 
Q 1030 1203 1129 960 
Q 1229 717 1395 573 
Q 1562 429 1805 429 
Q 2048 429 2214 573 
Q 2381 717 2480 960 
Q 2579 1203 2620 1529 
Q 2662 1856 2662 2221 
z
" transform="scale(0.015625)"/>
         <path id="Ubuntu-31" d="M 595 3520 
Q 960 3661 1305 3881 
Q 1651 4102 1939 4435 
L 2362 4435 
L 2362 0 
L 1766 0 
L 1766 3610 
Q 1690 3539 1578 3462 
Q 1466 3386 1334 3315 
Q 1203 3245 1059 3181 
Q 915 3117 781 3072 
L 595 3520 
z
" transform="scale(0.015625)"/>
        </defs>
        <use xlink:href="#Ubuntu-32"/>
        <use xlink:href="#Ubuntu-30" x="56.399994"/>
        <use xlink:href="#Ubuntu-32" x="112.799988"/>
        <use xlink:href="#Ubuntu-31" x="169.199982"/>
       </g>
      </g>
     </g>
     <g id="xtick_2">
      <g id="line2d_3">
       <path d="M 186.748149 208.196719 
L 186.748149 208.196719 
" clip-path="url(#pd90e04701a)" style="fill: none; stroke-dasharray: 0.5,0.825; stroke-dashoffset: 0; stroke: #d9d9d9; stroke-width: 0.5"/>
      </g>
      <g id="text_2">
       <!-- 2022 -->
       <g style="fill: #808080" transform="translate(177.723149 239.404219) scale(0.08 -0.08)">
        <use xlink:href="#Ubuntu-32"/>
        <use xlink:href="#Ubuntu-30" x="56.399994"/>
        <use xlink:href="#Ubuntu-32" x="112.799988"/>
        <use xlink:href="#Ubuntu-32" x="169.199982"/>
       </g>
      </g>
     </g>
     <g id="xtick_3">
      <g id="line2d_4">
       <path d="M 341.303798 208.196719 
L 341.303798 208.196719 
" clip-path="url(#pd90e04701a)" style="fill: none; stroke-dasharray: 0.5,0.825; stroke-dashoffset: 0; stroke: #d9d9d9; stroke-width: 0.5"/>
      </g>
      <g id="text_3">
       <!-- 2023 -->
       <g style="fill: #808080" transform="translate(332.278798 239.404219) scale(0.08 -0.08)">
        <defs>
         <path id="Ubuntu-33" d="M 1446 435 
Q 2016 435 2262 659 
Q 2509 883 2509 1261 
Q 2509 1504 2406 1670 
Q 2304 1837 2137 1936 
Q 1971 2035 1750 2076 
Q 1530 2118 1299 2118 
L 1146 2118 
L 1146 2605 
L 1357 2605 
Q 1517 2605 1686 2637 
Q 1856 2669 1997 2752 
Q 2138 2835 2227 2979 
Q 2317 3123 2317 3341 
Q 2317 3520 2253 3648 
Q 2189 3776 2083 3859 
Q 1978 3942 1840 3977 
Q 1702 4013 1549 4013 
Q 1242 4013 1027 3923 
Q 813 3834 666 3738 
L 435 4192 
Q 512 4243 630 4304 
Q 749 4365 896 4416 
Q 1043 4467 1212 4502 
Q 1382 4538 1568 4538 
Q 1920 4538 2176 4451 
Q 2432 4365 2598 4208 
Q 2765 4051 2848 3836 
Q 2931 3622 2931 3373 
Q 2931 3027 2732 2780 
Q 2534 2534 2253 2406 
Q 2426 2355 2586 2259 
Q 2746 2163 2864 2016 
Q 2982 1869 3056 1677 
Q 3130 1485 3130 1248 
Q 3130 960 3030 713 
Q 2931 467 2723 288 
Q 2515 109 2201 6 
Q 1888 -96 1459 -96 
Q 1293 -96 1117 -70 
Q 941 -45 787 -6 
Q 634 32 518 70 
Q 403 109 352 134 
L 467 653 
Q 576 602 829 518 
Q 1082 435 1446 435 
z
" transform="scale(0.015625)"/>
        </defs>
        <use xlink:href="#Ubuntu-32"/>
        <use xlink:href="#Ubuntu-30" x="56.399994"/>
        <use xlink:href="#Ubuntu-32" x="112.799988"/>
        <use xlink:href="#Ubuntu-33" x="169.199982"/>
       </g>
      </g>
     </g>
     <g id="xtick_4">
      <g id="line2d_5">
       <path d="M 495.859448 208.196719 
L 495.859448 208.196719 
" clip-path="url(#pd90e04701a)" style="fill: none; stroke-dasharray: 0.5,0.825; stroke-dashoffset: 0; stroke: #d9d9d9; stroke-width: 0.5"/>
      </g>
      <g id="text_4">
       <!-- 2024 -->
       <g style="fill: #808080" transform="translate(486.834448 239.404219) scale(0.08 -0.08)">
        <defs>
         <path id="Ubuntu-34" d="M 256 1536 
Q 378 1818 589 2192 
Q 800 2566 1065 2963 
Q 1331 3360 1635 3744 
Q 1939 4128 2246 4435 
L 2816 4435 
L 2816 1619 
L 3341 1619 
L 3341 1133 
L 2816 1133 
L 2816 0 
L 2240 0 
L 2240 1133 
L 256 1133 
L 256 1536 
z
M 2240 3731 
Q 2048 3526 1853 3273 
Q 1658 3021 1472 2745 
Q 1286 2470 1123 2182 
Q 960 1894 832 1619 
L 2240 1619 
L 2240 3731 
z
" transform="scale(0.015625)"/>
        </defs>
        <use xlink:href="#Ubuntu-32"/>
        <use xlink:href="#Ubuntu-30" x="56.399994"/>
        <use xlink:href="#Ubuntu-32" x="112.799988"/>
        <use xlink:href="#Ubuntu-34" x="169.199982"/>
       </g>
      </g>
     </g>
    </g>
    <g id="matplotlib.axis_2"/>
   </g>
   <g id="matplotlib.axis_3">
    <g id="xtick_5">
     <g id="line2d_6">
      <defs>
       <path id="m7a8596a208" d="M 0 0 
L 0 3 
" style="stroke: #cecece; stroke-width: 0.75"/>
      </defs>
      <g>
       <use xlink:href="#m7a8596a208" x="32.1925" y="213.196719" style="fill: #cecece; stroke: #cecece; stroke-width: 0.75"/>
      </g>
     </g>
     <g id="text_5">
      <!-- Янв -->
      <g style="fill: #808080" transform="translate(25.116875 228.404219) scale(0.08 -0.08)">
       <defs>
        <path id="Ubuntu-42f" d="M 2272 3936 
Q 2029 3936 1808 3897 
Q 1587 3859 1414 3763 
Q 1242 3667 1139 3500 
Q 1037 3334 1037 3085 
Q 1037 2611 1341 2428 
Q 1645 2246 2253 2246 
L 2893 2246 
L 2893 3917 
Q 2822 3917 2726 3923 
Q 2643 3930 2531 3933 
Q 2419 3936 2272 3936 
z
M 2323 4480 
Q 2458 4480 2611 4473 
Q 2765 4467 2921 4454 
Q 3078 4442 3232 4422 
Q 3386 4403 3514 4371 
L 3514 0 
L 2893 0 
L 2893 1734 
L 2362 1734 
Q 2272 1734 2173 1737 
Q 2074 1741 1907 1760 
Q 1792 1606 1657 1401 
Q 1523 1197 1388 966 
Q 1254 736 1123 486 
Q 992 237 883 0 
L 230 0 
Q 333 250 473 518 
Q 614 787 764 1030 
Q 915 1274 1052 1482 
Q 1190 1690 1293 1824 
Q 1146 1869 986 1952 
Q 826 2035 691 2182 
Q 557 2330 470 2550 
Q 384 2771 384 3078 
Q 384 3424 518 3686 
Q 653 3949 905 4125 
Q 1158 4301 1516 4390 
Q 1875 4480 2323 4480 
z
" transform="scale(0.015625)"/>
        <path id="Ubuntu-43d" d="M 3238 0 
L 2643 0 
L 2643 1472 
L 1107 1472 
L 1107 0 
L 512 0 
L 512 3328 
L 1107 3328 
L 1107 1971 
L 2643 1971 
L 2643 3328 
L 3238 3328 
L 3238 0 
z
" transform="scale(0.015625)"/>
        <path id="Ubuntu-432" d="M 1094 448 
Q 1133 442 1203 435 
Q 1274 429 1363 425 
Q 1453 422 1552 419 
Q 1651 416 1741 416 
Q 1926 416 2096 441 
Q 2266 467 2390 531 
Q 2515 595 2588 700 
Q 2662 806 2662 973 
Q 2662 1133 2595 1238 
Q 2528 1344 2413 1408 
Q 2298 1472 2141 1497 
Q 1984 1523 1805 1523 
L 1094 1523 
L 1094 448 
z
M 1728 1965 
Q 1901 1965 2045 1987 
Q 2189 2010 2294 2067 
Q 2400 2125 2461 2221 
Q 2522 2317 2522 2464 
Q 2522 2618 2445 2707 
Q 2368 2797 2243 2845 
Q 2118 2893 1961 2909 
Q 1805 2925 1645 2925 
Q 1498 2925 1347 2918 
Q 1197 2912 1094 2906 
L 1094 1965 
L 1728 1965 
z
M 1715 -58 
Q 1338 -58 1018 -22 
Q 698 13 512 58 
L 512 3296 
Q 698 3341 1018 3376 
Q 1338 3411 1715 3411 
Q 1978 3411 2227 3366 
Q 2477 3322 2669 3216 
Q 2861 3110 2979 2928 
Q 3098 2746 3098 2477 
Q 3098 2234 2976 2061 
Q 2854 1888 2650 1792 
Q 2925 1696 3088 1507 
Q 3251 1318 3251 979 
Q 3251 678 3132 480 
Q 3014 282 2806 160 
Q 2598 38 2316 -10 
Q 2035 -58 1715 -58 
z
" transform="scale(0.015625)"/>
       </defs>
       <use xlink:href="#Ubuntu-42f"/>
       <use xlink:href="#Ubuntu-43d" x="63.499985"/>
       <use xlink:href="#Ubuntu-432" x="122.099976"/>
      </g>
     </g>
    </g>
    <g id="xtick_6">
     <g id="line2d_7">
      <g>
       <use xlink:href="#m7a8596a208" x="70.302112" y="213.196719" style="fill: #cecece; stroke: #cecece; stroke-width: 0.75"/>
      </g>
     </g>
     <g id="text_6">
      <!-- Апр -->
      <g style="fill: #808080" transform="translate(62.982112 228.404219) scale(0.08 -0.08)">
       <defs>
        <path id="Ubuntu-410" d="M 3514 0 
Q 3405 288 3309 566 
Q 3213 845 3110 1133 
L 1101 1133 
L 698 0 
L 51 0 
Q 307 704 531 1302 
Q 755 1901 969 2438 
Q 1184 2976 1395 3465 
Q 1606 3955 1837 4435 
L 2406 4435 
Q 2637 3955 2848 3465 
Q 3059 2976 3273 2438 
Q 3488 1901 3712 1302 
Q 3936 704 4192 0 
L 3514 0 
z
M 2931 1645 
Q 2726 2202 2524 2723 
Q 2323 3245 2106 3725 
Q 1882 3245 1680 2723 
Q 1478 2202 1280 1645 
L 2931 1645 
z
" transform="scale(0.015625)"/>
        <path id="Ubuntu-43f" d="M 3187 0 
L 2592 0 
L 2592 2829 
L 1107 2829 
L 1107 0 
L 512 0 
L 512 3328 
L 3187 3328 
L 3187 0 
z
" transform="scale(0.015625)"/>
        <path id="Ubuntu-440" d="M 2822 1658 
Q 2822 2240 2534 2553 
Q 2246 2867 1766 2867 
Q 1498 2867 1347 2848 
Q 1197 2829 1107 2803 
L 1107 704 
Q 1216 614 1421 531 
Q 1626 448 1869 448 
Q 2125 448 2307 541 
Q 2490 634 2605 797 
Q 2720 960 2771 1181 
Q 2822 1402 2822 1658 
z
M 3443 1658 
Q 3443 1280 3344 960 
Q 3245 640 3053 409 
Q 2861 179 2582 51 
Q 2304 -77 1946 -77 
Q 1658 -77 1437 0 
Q 1216 77 1107 147 
L 1107 -1184 
L 512 -1184 
L 512 3226 
Q 723 3277 1040 3337 
Q 1357 3398 1773 3398 
Q 2157 3398 2464 3276 
Q 2771 3155 2988 2931 
Q 3206 2707 3324 2384 
Q 3443 2061 3443 1658 
z
" transform="scale(0.015625)"/>
       </defs>
       <use xlink:href="#Ubuntu-410"/>
       <use xlink:href="#Ubuntu-43f" x="66.299988"/>
       <use xlink:href="#Ubuntu-440" x="124.099976"/>
      </g>
     </g>
    </g>
    <g id="xtick_7">
     <g id="line2d_8">
      <g>
       <use xlink:href="#m7a8596a208" x="108.835164" y="213.196719" style="fill: #cecece; stroke: #cecece; stroke-width: 0.75"/>
      </g>
     </g>
     <g id="text_7">
      <!-- Июл -->
      <g style="fill: #808080" transform="translate(100.287664 228.404219) scale(0.08 -0.08)">
       <defs>
        <path id="Ubuntu-418" d="M 550 0 
L 550 4435 
L 1158 4435 
L 1158 1152 
Q 1363 1491 1660 1926 
Q 1958 2362 2294 2813 
Q 2630 3264 2972 3689 
Q 3315 4115 3616 4435 
L 4109 4435 
L 4109 0 
L 3501 0 
L 3501 3462 
Q 3322 3258 3110 2989 
Q 2899 2720 2675 2416 
Q 2451 2112 2224 1785 
Q 1997 1459 1785 1142 
Q 1574 826 1392 531 
Q 1210 237 1069 0 
L 550 0 
z
" transform="scale(0.015625)"/>
        <path id="Ubuntu-44e" d="M 1107 1952 
L 1837 1952 
Q 1875 2285 2006 2553 
Q 2138 2822 2336 3014 
Q 2534 3206 2790 3308 
Q 3046 3411 3341 3411 
Q 3667 3411 3945 3286 
Q 4224 3162 4429 2931 
Q 4634 2701 4749 2377 
Q 4864 2054 4864 1664 
Q 4864 1267 4749 947 
Q 4634 627 4429 396 
Q 4224 166 3945 41 
Q 3667 -83 3341 -83 
Q 3034 -83 2768 29 
Q 2502 141 2304 342 
Q 2106 544 1981 832 
Q 1856 1120 1830 1472 
L 1107 1472 
L 1107 0 
L 512 0 
L 512 3328 
L 1107 3328 
L 1107 1952 
z
M 4250 1664 
Q 4250 2227 4003 2556 
Q 3757 2886 3341 2886 
Q 2925 2886 2678 2556 
Q 2432 2227 2432 1664 
Q 2432 1101 2678 771 
Q 2925 442 3341 442 
Q 3757 442 4003 771 
Q 4250 1101 4250 1664 
z
" transform="scale(0.015625)"/>
        <path id="Ubuntu-43b" d="M 1670 2829 
Q 1670 2618 1660 2378 
Q 1651 2138 1625 1898 
Q 1600 1658 1555 1424 
Q 1510 1190 1440 986 
Q 1370 781 1264 601 
Q 1158 422 1004 284 
Q 851 147 646 54 
Q 442 -38 166 -64 
L 83 435 
Q 397 499 579 672 
Q 762 845 870 1094 
Q 966 1312 1011 1587 
Q 1056 1862 1075 2160 
Q 1094 2458 1097 2758 
Q 1101 3059 1101 3328 
L 3315 3328 
L 3315 0 
L 2720 0 
L 2720 2829 
L 1670 2829 
z
" transform="scale(0.015625)"/>
       </defs>
       <use xlink:href="#Ubuntu-418"/>
       <use xlink:href="#Ubuntu-44e" x="72.799988"/>
       <use xlink:href="#Ubuntu-43b" x="153.899979"/>
      </g>
     </g>
    </g>
    <g id="xtick_8">
     <g id="line2d_9">
      <g>
       <use xlink:href="#m7a8596a208" x="147.791657" y="213.196719" style="fill: #cecece; stroke: #cecece; stroke-width: 0.75"/>
      </g>
     </g>
     <g id="text_8">
      <!-- Окт -->
      <g style="fill: #808080" transform="translate(140.679782 228.404219) scale(0.08 -0.08)">
       <defs>
        <path id="Ubuntu-41e" d="M 371 2221 
Q 371 2790 540 3225 
Q 710 3661 1001 3952 
Q 1293 4243 1680 4390 
Q 2067 4538 2502 4538 
Q 2931 4538 3312 4390 
Q 3693 4243 3981 3952 
Q 4269 3661 4438 3225 
Q 4608 2790 4608 2221 
Q 4608 1651 4438 1216 
Q 4269 781 3981 489 
Q 3693 198 3312 51 
Q 2931 -96 2502 -96 
Q 2067 -96 1680 51 
Q 1293 198 1001 489 
Q 710 781 540 1216 
Q 371 1651 371 2221 
z
M 1024 2221 
Q 1024 1818 1126 1488 
Q 1229 1158 1417 928 
Q 1606 698 1878 573 
Q 2150 448 2490 448 
Q 2829 448 3097 573 
Q 3366 698 3555 928 
Q 3744 1158 3846 1488 
Q 3949 1818 3949 2221 
Q 3949 2624 3846 2953 
Q 3744 3283 3555 3513 
Q 3366 3744 3097 3869 
Q 2829 3994 2490 3994 
Q 2150 3994 1878 3869 
Q 1606 3744 1417 3513 
Q 1229 3283 1126 2953 
Q 1024 2624 1024 2221 
z
" transform="scale(0.015625)"/>
        <path id="Ubuntu-43a" d="M 1728 1811 
Q 1926 1670 2156 1456 
Q 2387 1242 2608 992 
Q 2829 742 3021 483 
Q 3213 224 3347 0 
L 2643 0 
Q 2502 218 2313 445 
Q 2125 672 1920 883 
Q 1715 1094 1504 1273 
Q 1293 1453 1107 1574 
L 1107 0 
L 512 0 
L 512 3328 
L 1107 3328 
L 1107 1901 
Q 1261 2048 1459 2243 
Q 1658 2438 1859 2640 
Q 2061 2842 2233 3024 
Q 2406 3206 2515 3328 
L 3206 3328 
Q 3066 3174 2877 2979 
Q 2688 2784 2486 2579 
Q 2285 2374 2086 2172 
Q 1888 1971 1728 1811 
z
" transform="scale(0.015625)"/>
        <path id="Ubuntu-442" d="M 2861 3328 
L 2861 2829 
L 1779 2829 
L 1779 0 
L 1184 0 
L 1184 2829 
L 102 2829 
L 102 3328 
L 2861 3328 
z
" transform="scale(0.015625)"/>
       </defs>
       <use xlink:href="#Ubuntu-41e"/>
       <use xlink:href="#Ubuntu-43a" x="77.799988"/>
       <use xlink:href="#Ubuntu-442" x="131.499985"/>
      </g>
     </g>
    </g>
    <g id="xtick_9">
     <g id="line2d_10">
      <g>
       <use xlink:href="#m7a8596a208" x="186.748149" y="213.196719" style="fill: #cecece; stroke: #cecece; stroke-width: 0.75"/>
      </g>
     </g>
     <g id="text_9">
      <!-- Янв -->
      <g style="fill: #808080" transform="translate(179.672524 228.404219) scale(0.08 -0.08)">
       <use xlink:href="#Ubuntu-42f"/>
       <use xlink:href="#Ubuntu-43d" x="63.499985"/>
       <use xlink:href="#Ubuntu-432" x="122.099976"/>
      </g>
     </g>
    </g>
    <g id="xtick_10">
     <g id="line2d_11">
      <g>
       <use xlink:href="#m7a8596a208" x="224.857761" y="213.196719" style="fill: #cecece; stroke: #cecece; stroke-width: 0.75"/>
      </g>
     </g>
     <g id="text_10">
      <!-- Апр -->
      <g style="fill: #808080" transform="translate(217.537761 228.404219) scale(0.08 -0.08)">
       <use xlink:href="#Ubuntu-410"/>
       <use xlink:href="#Ubuntu-43f" x="66.299988"/>
       <use xlink:href="#Ubuntu-440" x="124.099976"/>
      </g>
     </g>
    </g>
    <g id="xtick_11">
     <g id="line2d_12">
      <g>
       <use xlink:href="#m7a8596a208" x="263.390814" y="213.196719" style="fill: #cecece; stroke: #cecece; stroke-width: 0.75"/>
      </g>
     </g>
     <g id="text_11">
      <!-- Июл -->
      <g style="fill: #808080" transform="translate(254.843314 228.404219) scale(0.08 -0.08)">
       <use xlink:href="#Ubuntu-418"/>
       <use xlink:href="#Ubuntu-44e" x="72.799988"/>
       <use xlink:href="#Ubuntu-43b" x="153.899979"/>
      </g>
     </g>
    </g>
    <g id="xtick_12">
     <g id="line2d_13">
      <g>
       <use xlink:href="#m7a8596a208" x="302.347306" y="213.196719" style="fill: #cecece; stroke: #cecece; stroke-width: 0.75"/>
      </g>
     </g>
     <g id="text_12">
      <!-- Окт -->
      <g style="fill: #808080" transform="translate(295.235431 228.404219) scale(0.08 -0.08)">
       <use xlink:href="#Ubuntu-41e"/>
       <use xlink:href="#Ubuntu-43a" x="77.799988"/>
       <use xlink:href="#Ubuntu-442" x="131.499985"/>
      </g>
     </g>
    </g>
    <g id="xtick_13">
     <g id="line2d_14">
      <g>
       <use xlink:href="#m7a8596a208" x="341.303798" y="213.196719" style="fill: #cecece; stroke: #cecece; stroke-width: 0.75"/>
      </g>
     </g>
     <g id="text_13">
      <!-- Янв -->
      <g style="fill: #808080" transform="translate(334.228173 228.404219) scale(0.08 -0.08)">
       <use xlink:href="#Ubuntu-42f"/>
       <use xlink:href="#Ubuntu-43d" x="63.499985"/>
       <use xlink:href="#Ubuntu-432" x="122.099976"/>
      </g>
     </g>
    </g>
    <g id="xtick_14">
     <g id="line2d_15">
      <g>
       <use xlink:href="#m7a8596a208" x="379.413411" y="213.196719" style="fill: #cecece; stroke: #cecece; stroke-width: 0.75"/>
      </g>
     </g>
     <g id="text_14">
      <!-- Апр -->
      <g style="fill: #808080" transform="translate(372.093411 228.404219) scale(0.08 -0.08)">
       <use xlink:href="#Ubuntu-410"/>
       <use xlink:href="#Ubuntu-43f" x="66.299988"/>
       <use xlink:href="#Ubuntu-440" x="124.099976"/>
      </g>
     </g>
    </g>
    <g id="xtick_15">
     <g id="line2d_16">
      <g>
       <use xlink:href="#m7a8596a208" x="417.946463" y="213.196719" style="fill: #cecece; stroke: #cecece; stroke-width: 0.75"/>
      </g>
     </g>
     <g id="text_15">
      <!-- Июл -->
      <g style="fill: #808080" transform="translate(409.398963 228.404219) scale(0.08 -0.08)">
       <use xlink:href="#Ubuntu-418"/>
       <use xlink:href="#Ubuntu-44e" x="72.799988"/>
       <use xlink:href="#Ubuntu-43b" x="153.899979"/>
      </g>
     </g>
    </g>
    <g id="xtick_16">
     <g id="line2d_17">
      <g>
       <use xlink:href="#m7a8596a208" x="456.902955" y="213.196719" style="fill: #cecece; stroke: #cecece; stroke-width: 0.75"/>
      </g>
     </g>
     <g id="text_16">
      <!-- Окт -->
      <g style="fill: #808080" transform="translate(449.79108 228.404219) scale(0.08 -0.08)">
       <use xlink:href="#Ubuntu-41e"/>
       <use xlink:href="#Ubuntu-43a" x="77.799988"/>
       <use xlink:href="#Ubuntu-442" x="131.499985"/>
      </g>
     </g>
    </g>
    <g id="xtick_17">
     <g id="line2d_18">
      <g>
       <use xlink:href="#m7a8596a208" x="495.859448" y="213.196719" style="fill: #cecece; stroke: #cecece; stroke-width: 0.75"/>
      </g>
     </g>
     <g id="text_17">
      <!-- Янв -->
      <g style="fill: #808080" transform="translate(488.783823 228.404219) scale(0.08 -0.08)">
       <use xlink:href="#Ubuntu-42f"/>
       <use xlink:href="#Ubuntu-43d" x="63.499985"/>
       <use xlink:href="#Ubuntu-432" x="122.099976"/>
      </g>
     </g>
    </g>
    <g id="xtick_18">
     <g id="line2d_19">
      <g>
       <use xlink:href="#m7a8596a208" x="534.3925" y="213.196719" style="fill: #cecece; stroke: #cecece; stroke-width: 0.75"/>
      </g>
     </g>
     <g id="text_18">
      <!-- Апр -->
      <g style="fill: #808080" transform="translate(527.0725 228.404219) scale(0.08 -0.08)">
       <use xlink:href="#Ubuntu-410"/>
       <use xlink:href="#Ubuntu-43f" x="66.299988"/>
       <use xlink:href="#Ubuntu-440" x="124.099976"/>
      </g>
     </g>
    </g>
   </g>
   <g id="matplotlib.axis_4">
    <g id="ytick_1">
     <g id="line2d_20">
      <defs>
       <path id="m1c1eb0fee0" d="M 0 0 
L -3 0 
" style="stroke: #cecece; stroke-width: 0.75"/>
      </defs>
      <g>
       <use xlink:href="#m1c1eb0fee0" x="27.1925" y="208.196719" style="fill: #cecece; stroke: #cecece; stroke-width: 0.75"/>
      </g>
     </g>
     <g id="text_19">
      <!-- 0.9 -->
      <g style="fill: #808080" transform="translate(7.2 211.300469) scale(0.08 -0.08)">
       <defs>
        <path id="Ubuntu-2e" d="M 1216 346 
Q 1216 173 1101 45 
Q 986 -83 787 -83 
Q 589 -83 473 45 
Q 358 173 358 346 
Q 358 518 473 646 
Q 589 774 787 774 
Q 986 774 1101 646 
Q 1216 518 1216 346 
z
" transform="scale(0.015625)"/>
        <path id="Ubuntu-39" d="M 3206 2662 
Q 3206 1344 2550 669 
Q 1894 -6 602 -13 
L 582 486 
Q 986 486 1309 563 
Q 1632 640 1875 809 
Q 2118 979 2281 1248 
Q 2445 1517 2522 1907 
Q 2355 1830 2144 1782 
Q 1933 1734 1709 1734 
Q 1331 1734 1068 1846 
Q 806 1958 640 2147 
Q 474 2336 400 2582 
Q 326 2829 326 3098 
Q 326 3334 409 3590 
Q 493 3846 662 4057 
Q 832 4269 1094 4403 
Q 1357 4538 1715 4538 
Q 2080 4538 2358 4410 
Q 2637 4282 2825 4038 
Q 3014 3795 3110 3446 
Q 3206 3098 3206 2662 
z
M 1773 2221 
Q 1997 2221 2195 2262 
Q 2394 2304 2579 2387 
Q 2586 2458 2586 2525 
Q 2586 2592 2586 2662 
Q 2586 2938 2547 3190 
Q 2509 3443 2409 3632 
Q 2310 3821 2144 3933 
Q 1978 4045 1722 4045 
Q 1510 4045 1363 3955 
Q 1216 3866 1120 3728 
Q 1024 3590 982 3427 
Q 941 3264 941 3110 
Q 941 2675 1149 2448 
Q 1357 2221 1773 2221 
z
" transform="scale(0.015625)"/>
       </defs>
       <use xlink:href="#Ubuntu-30"/>
       <use xlink:href="#Ubuntu-2e" x="56.399994"/>
       <use xlink:href="#Ubuntu-39" x="80.999985"/>
      </g>
     </g>
    </g>
    <g id="ytick_2">
     <g id="line2d_21">
      <g>
       <use xlink:href="#m1c1eb0fee0" x="27.1925" y="176.481028" style="fill: #cecece; stroke: #cecece; stroke-width: 0.75"/>
      </g>
     </g>
     <g id="text_20">
      <!-- 1.0 -->
      <g style="fill: #808080" transform="translate(7.2 179.584778) scale(0.08 -0.08)">
       <use xlink:href="#Ubuntu-31"/>
       <use xlink:href="#Ubuntu-2e" x="56.399994"/>
       <use xlink:href="#Ubuntu-30" x="80.999985"/>
      </g>
     </g>
    </g>
    <g id="ytick_3">
     <g id="line2d_22">
      <g>
       <use xlink:href="#m1c1eb0fee0" x="27.1925" y="144.765337" style="fill: #cecece; stroke: #cecece; stroke-width: 0.75"/>
      </g>
     </g>
     <g id="text_21">
      <!-- 1.1 -->
      <g style="fill: #808080" transform="translate(7.2 147.869087) scale(0.08 -0.08)">
       <use xlink:href="#Ubuntu-31"/>
       <use xlink:href="#Ubuntu-2e" x="56.399994"/>
       <use xlink:href="#Ubuntu-31" x="80.999985"/>
      </g>
     </g>
    </g>
    <g id="ytick_4">
     <g id="line2d_23">
      <g>
       <use xlink:href="#m1c1eb0fee0" x="27.1925" y="113.049647" style="fill: #cecece; stroke: #cecece; stroke-width: 0.75"/>
      </g>
     </g>
     <g id="text_22">
      <!-- 1.2 -->
      <g style="fill: #808080" transform="translate(7.2 116.153397) scale(0.08 -0.08)">
       <use xlink:href="#Ubuntu-31"/>
       <use xlink:href="#Ubuntu-2e" x="56.399994"/>
       <use xlink:href="#Ubuntu-32" x="80.999985"/>
      </g>
     </g>
    </g>
    <g id="ytick_5">
     <g id="line2d_24">
      <g>
       <use xlink:href="#m1c1eb0fee0" x="27.1925" y="81.333956" style="fill: #cecece; stroke: #cecece; stroke-width: 0.75"/>
      </g>
     </g>
     <g id="text_23">
      <!-- 1.3 -->
      <g style="fill: #808080" transform="translate(7.2 84.437706) scale(0.08 -0.08)">
       <use xlink:href="#Ubuntu-31"/>
       <use xlink:href="#Ubuntu-2e" x="56.399994"/>
       <use xlink:href="#Ubuntu-33" x="80.999985"/>
      </g>
     </g>
    </g>
    <g id="ytick_6">
     <g id="line2d_25">
      <g>
       <use xlink:href="#m1c1eb0fee0" x="27.1925" y="49.618265" style="fill: #cecece; stroke: #cecece; stroke-width: 0.75"/>
      </g>
     </g>
     <g id="text_24">
      <!-- 1.4 -->
      <g style="fill: #808080" transform="translate(7.2 52.722015) scale(0.08 -0.08)">
       <use xlink:href="#Ubuntu-31"/>
       <use xlink:href="#Ubuntu-2e" x="56.399994"/>
       <use xlink:href="#Ubuntu-34" x="80.999985"/>
      </g>
     </g>
    </g>
   </g>
   <g id="line2d_26">
    <path d="M 32.1925 176.481028 
L 40.370984 175.68327 
L 46.913772 175.278627 
L 51.820862 175.175052 
L 56.727953 175.2883 
L 61.635043 175.658867 
L 66.542134 176.323573 
L 69.813527 176.94738 
L 74.720618 178.154817 
L 84.534799 180.758746 
L 89.441889 181.734621 
L 95.984677 182.766332 
L 102.527464 183.66364 
L 107.434555 184.105448 
L 110.705948 184.198027 
L 113.977342 184.102825 
L 117.248736 183.84193 
L 122.155826 183.194231 
L 125.42722 182.606894 
L 128.698614 181.805205 
L 131.970007 180.67286 
L 133.605704 179.946345 
L 135.241401 179.093552 
L 138.512795 177.001151 
L 141.784188 174.515003 
L 146.691279 170.402298 
L 153.234066 164.947521 
L 159.776854 159.823731 
L 174.498125 148.741893 
L 179.405216 144.503883 
L 184.312306 139.897099 
L 195.762184 128.616698 
L 199.033578 125.885751 
L 202.304972 123.657157 
L 205.576365 121.84521 
L 210.483456 119.532679 
L 217.026243 116.433047 
L 221.933334 114.146586 
L 225.204727 112.823744 
L 228.476121 111.755686 
L 231.747515 110.926421 
L 235.018908 110.295762 
L 239.925999 109.636144 
L 243.197393 109.366207 
L 246.468786 109.258535 
L 249.74018 109.340121 
L 253.011574 109.6303 
L 261.190058 110.52333 
L 264.461452 110.510282 
L 267.732845 110.121643 
L 271.004239 109.478976 
L 279.182723 107.726234 
L 284.089814 106.804266 
L 287.361207 105.998368 
L 290.632601 104.866575 
L 293.903995 103.398315 
L 300.446782 100.322985 
L 303.718176 99.177404 
L 306.989569 98.403649 
L 313.532357 97.03015 
L 316.803751 95.939093 
L 320.075144 94.493884 
L 324.982235 92.25424 
L 326.617932 91.630324 
L 328.253628 91.126804 
L 329.889325 90.768697 
L 333.160719 90.425723 
L 336.432113 90.430875 
L 352.789081 91.269823 
L 356.060475 91.647152 
L 359.331868 92.291636 
L 360.967565 92.759931 
L 362.603262 93.350182 
L 364.238959 94.080829 
L 365.874656 94.970311 
L 367.510353 96.036802 
L 369.146049 97.28931 
L 370.781746 98.725573 
L 372.417443 100.342638 
L 374.05314 102.137553 
L 377.324534 106.24912 
L 380.595927 111.035639 
L 383.867321 116.376679 
L 392.045805 130.188955 
L 395.317199 135.112528 
L 398.588593 139.486857 
L 401.859986 143.333379 
L 405.13138 146.673745 
L 408.402774 149.523006 
L 411.674167 151.861342 
L 413.309864 152.829136 
L 414.945561 153.657466 
L 416.581258 154.342418 
L 418.216955 154.880083 
L 419.852652 155.269685 
L 421.488348 155.525158 
L 424.759742 155.706653 
L 428.031136 155.57045 
L 432.938226 155.080329 
L 436.20962 154.582398 
L 439.481014 153.733133 
L 441.116711 153.111865 
L 442.752407 152.324901 
L 444.388104 151.346352 
L 446.023801 150.162356 
L 447.659498 148.785105 
L 449.295195 147.230201 
L 452.566588 143.649833 
L 455.837982 139.546058 
L 460.745073 132.74799 
L 464.016466 128.236128 
L 467.28786 124.1728 
L 468.923557 122.425363 
L 470.559254 120.927365 
L 472.194951 119.672943 
L 475.466344 117.653045 
L 480.373435 114.909126 
L 482.009132 113.821017 
L 483.644828 112.546358 
L 486.916222 109.499806 
L 493.45901 102.867121 
L 495.094706 101.400441 
L 496.730403 100.109906 
L 498.3661 99.000676 
L 500.001797 98.055339 
L 501.637494 97.256271 
L 504.908887 96.026451 
L 508.180281 95.170225 
L 513.087372 94.277963 
L 517.994462 93.433225 
L 521.265856 92.661486 
L 521.265856 92.661486 
" clip-path="url(#p13778a73a2)" style="fill: none; stroke-dasharray: 5.55,2.4; stroke-dashoffset: 0; stroke: #5d5d5d; stroke-width: 1.5"/>
   </g>
   <g id="line2d_27">
    <path d="M 32.1925 176.481028 
L 35.551697 176.827749 
L 38.910895 176.865349 
L 42.270092 176.666765 
L 47.308888 176.085595 
L 55.706881 174.969344 
L 59.066079 174.683008 
L 64.104875 174.506812 
L 72.502868 174.313905 
L 77.541664 173.937754 
L 82.58046 173.28125 
L 87.619256 172.336405 
L 94.337651 171.070938 
L 97.696848 170.677405 
L 102.735644 170.458114 
L 109.454038 170.243286 
L 112.813236 169.920167 
L 117.852032 169.155765 
L 124.570426 167.854598 
L 129.609222 166.69794 
L 132.96842 165.736505 
L 136.327617 164.549273 
L 139.686814 163.136233 
L 158.1624 154.690172 
L 161.521597 152.667076 
L 166.560393 149.025991 
L 169.91959 146.704717 
L 171.599189 145.720829 
L 173.278788 144.919179 
L 174.958386 144.343067 
L 176.637985 143.977589 
L 179.997182 143.668111 
L 185.035978 143.461439 
L 186.715577 143.248921 
L 188.395176 142.88343 
L 190.074774 142.348399 
L 191.754373 141.634562 
L 193.433972 140.732652 
L 195.11357 139.633403 
L 196.793169 138.32755 
L 198.472768 136.805825 
L 200.152366 135.05929 
L 201.831965 133.098585 
L 205.191162 128.701244 
L 213.589156 116.964984 
L 216.948353 112.801982 
L 220.30755 109.21389 
L 221.987149 107.673647 
L 223.666747 106.322984 
L 225.346346 105.177186 
L 227.025945 104.244064 
L 228.705543 103.50153 
L 230.385142 102.920021 
L 233.744339 102.12183 
L 238.783135 101.39342 
L 245.50153 100.589808 
L 248.860727 100.366555 
L 252.219925 100.366537 
L 255.579122 100.591732 
L 263.977115 101.359258 
L 269.015911 101.453662 
L 277.413905 101.426695 
L 284.132299 101.772563 
L 289.171095 101.995328 
L 294.209891 101.94046 
L 319.403871 100.8654 
L 322.763069 100.478214 
L 326.122266 99.787666 
L 327.801865 99.291928 
L 331.161062 97.963898 
L 339.559055 94.060912 
L 341.238654 93.454534 
L 342.918253 92.977406 
L 346.27745 92.362801 
L 349.636647 92.076796 
L 356.355042 91.902669 
L 366.432634 91.781868 
L 371.47143 91.920524 
L 376.510226 92.329246 
L 379.869423 92.80925 
L 383.22862 93.476076 
L 400.024607 97.220114 
L 411.781798 99.198597 
L 416.820594 99.825481 
L 420.179791 100.05174 
L 425.218587 100.116319 
L 438.655376 99.888381 
L 442.014574 99.676384 
L 445.373771 99.255277 
L 448.732968 98.59807 
L 453.771764 97.294075 
L 477.286145 90.55729 
L 482.324941 89.113371 
L 487.363737 87.417695 
L 495.761731 84.52811 
L 500.800527 83.120059 
L 524.314908 77.186503 
L 532.712901 74.681374 
L 534.3925 74.149798 
L 534.3925 74.149798 
" clip-path="url(#p13778a73a2)" style="fill: none; stroke: #5d5d5d; stroke-opacity: 0.95; stroke-width: 1.25; stroke-linecap: square"/>
   </g>
   <g id="line2d_28">
    <path d="M 32.1925 176.481028 
L 37.231296 176.15045 
L 42.270092 175.588918 
L 52.347684 174.158953 
L 59.066079 173.287596 
L 74.182467 171.570609 
L 84.260059 170.159543 
L 89.298855 169.703371 
L 97.696848 169.232261 
L 106.094841 168.729806 
L 111.133637 168.176203 
L 116.172433 167.349675 
L 121.211229 166.307196 
L 127.929624 164.692824 
L 138.007216 162.035928 
L 141.366413 161.038256 
L 144.72561 159.836177 
L 148.084808 158.319423 
L 151.444005 156.409637 
L 154.803202 154.156124 
L 158.1624 151.640101 
L 163.201196 147.550884 
L 174.958386 137.807887 
L 179.997182 134.044181 
L 185.035978 130.661867 
L 193.433972 125.468684 
L 195.11357 124.201349 
L 196.793169 122.749837 
L 198.472768 121.06766 
L 200.152366 119.108954 
L 201.831965 116.865356 
L 205.191162 111.727572 
L 215.268754 95.031887 
L 218.627952 90.309842 
L 220.30755 88.253283 
L 221.987149 86.436184 
L 223.666747 84.885908 
L 225.346346 83.62982 
L 227.025945 82.682253 
L 228.705543 82.005429 
L 230.385142 81.54854 
L 232.064741 81.260778 
L 235.423938 80.989405 
L 238.783135 80.785291 
L 243.821931 80.156929 
L 248.860727 79.544416 
L 252.219925 79.422031 
L 255.579122 79.613914 
L 260.617918 80.248446 
L 267.336313 81.117717 
L 272.375109 81.546245 
L 279.093503 81.877159 
L 284.132299 81.883187 
L 287.491497 81.665117 
L 290.850694 81.198059 
L 299.248687 79.602085 
L 300.928286 79.427237 
L 302.607885 79.365791 
L 304.287483 79.436047 
L 307.646681 79.880311 
L 316.044674 81.358561 
L 319.403871 81.554436 
L 322.763069 81.508956 
L 331.161062 80.98857 
L 336.199858 80.8177 
L 339.559055 80.892882 
L 342.918253 81.183679 
L 354.675443 82.669233 
L 358.03464 82.719211 
L 369.791831 82.497912 
L 374.830627 82.850148 
L 379.869423 83.486699 
L 389.947015 84.975385 
L 393.306212 85.19218 
L 398.345008 85.121769 
L 403.383804 85.05884 
L 406.743002 85.313528 
L 410.102199 85.876857 
L 418.500192 87.528643 
L 421.85939 87.857618 
L 425.218587 87.967872 
L 431.936982 87.877953 
L 436.975778 87.722302 
L 440.334975 87.430828 
L 443.694172 86.851949 
L 447.05337 85.88985 
L 450.412567 84.593783 
L 455.451363 82.260742 
L 467.208554 76.3532 
L 473.926948 72.75487 
L 490.722935 63.612451 
L 495.761731 61.149898 
L 500.800527 58.946427 
L 505.839323 57.032155 
L 510.878119 55.423224 
L 522.635309 51.945324 
L 525.994507 50.66036 
L 529.353704 49.096258 
L 532.712901 47.171376 
L 534.3925 46.048128 
L 534.3925 46.048128 
" clip-path="url(#p13778a73a2)" style="fill: none; stroke: #af5a51; stroke-opacity: 0.95; stroke-width: 1.25; stroke-linecap: square"/>
   </g>
   <g id="line2d_29">
    <path d="M 32.1925 176.481028 
L 38.910895 175.194134 
L 48.988487 173.16793 
L 54.027283 172.377141 
L 57.38648 172.015475 
L 62.425276 171.764959 
L 72.502868 171.462448 
L 80.900861 170.734282 
L 85.939657 170.391448 
L 92.658052 170.208695 
L 104.415242 170.004587 
L 109.454038 169.718961 
L 114.492834 169.211468 
L 121.211229 168.262979 
L 131.288821 166.539738 
L 141.366413 164.608623 
L 144.72561 163.751415 
L 148.084808 162.648076 
L 151.444005 161.257365 
L 159.841998 157.529527 
L 163.201196 156.393761 
L 168.239992 154.866792 
L 169.91959 154.242106 
L 171.599189 153.491206 
L 173.278788 152.573075 
L 174.958386 151.451731 
L 178.317584 148.727493 
L 183.35638 144.348917 
L 185.035978 143.055414 
L 186.715577 141.946567 
L 188.395176 141.059286 
L 191.754373 139.68776 
L 195.11357 138.297129 
L 196.793169 137.385967 
L 198.472768 136.21961 
L 200.152366 134.715585 
L 201.831965 132.851387 
L 203.511564 130.697464 
L 206.870761 125.834217 
L 211.909557 118.327503 
L 213.589156 116.077363 
L 216.948353 112.11738 
L 220.30755 108.702501 
L 225.346346 104.137562 
L 230.385142 99.805266 
L 233.744339 97.176328 
L 237.103537 94.924 
L 238.783135 93.984257 
L 240.462734 93.184939 
L 242.142333 92.524022 
L 243.821931 91.998435 
L 245.50153 91.605106 
L 247.181129 91.340963 
L 248.860727 91.202935 
L 250.540326 91.187951 
L 253.899523 91.491628 
L 262.297517 92.785561 
L 263.977115 92.871 
L 267.336313 92.682973 
L 270.69551 92.16665 
L 277.413905 90.997385 
L 280.773102 90.707102 
L 284.132299 90.663986 
L 287.491497 90.846166 
L 290.850694 91.231178 
L 302.607885 92.972165 
L 305.967082 93.131364 
L 309.326279 93.08241 
L 314.365075 92.733406 
L 321.08347 91.972269 
L 326.122266 91.161777 
L 331.161062 90.073549 
L 337.879457 88.292822 
L 346.27745 86.036666 
L 351.316246 84.948571 
L 354.675443 84.435022 
L 358.03464 84.123444 
L 363.073436 83.955488 
L 369.791831 84.059671 
L 378.189824 84.204203 
L 383.22862 84.039674 
L 389.947015 83.755564 
L 393.306212 83.798763 
L 396.66541 84.052035 
L 401.704206 84.723454 
L 411.781798 86.446219 
L 426.898186 89.140311 
L 430.257383 89.403577 
L 433.61658 89.338045 
L 436.975778 88.995735 
L 445.373771 87.892009 
L 452.092166 87.44352 
L 457.130962 87.008768 
L 460.490159 86.488898 
L 463.849356 85.735138 
L 467.208554 84.726357 
L 470.567751 83.441612 
L 480.645343 78.999259 
L 482.324941 78.452793 
L 484.00454 78.03306 
L 487.363737 77.550824 
L 490.722935 77.4192 
L 497.441329 77.601839 
L 502.480125 77.597001 
L 505.839323 77.327545 
L 509.19852 76.728065 
L 512.557717 75.761377 
L 517.596513 73.887165 
L 524.314908 71.335537 
L 527.674105 70.353913 
L 531.033303 69.756128 
L 532.712901 69.645171 
L 534.3925 69.682968 
L 534.3925 69.682968 
" clip-path="url(#p13778a73a2)" style="fill: none; stroke: #608eb4; stroke-width: 1.25; stroke-linecap: square"/>
   </g>
   <g id="line2d_30">
    <path d="M 32.1925 176.481028 
L 35.551697 176.398989 
L 40.590493 175.970652 
L 54.027283 174.535065 
L 57.38648 174.449865 
L 60.745677 174.580234 
L 69.143671 175.162495 
L 72.502868 175.134789 
L 75.862065 174.863784 
L 80.900861 174.183792 
L 90.978453 172.753717 
L 111.133637 170.256934 
L 117.852032 169.402418 
L 122.890828 168.487752 
L 126.250025 167.659365 
L 129.609222 166.640016 
L 132.96842 165.424779 
L 136.327617 164.009147 
L 141.366413 161.567343 
L 159.841998 151.888278 
L 168.239992 147.419069 
L 171.599189 145.94782 
L 174.958386 144.879006 
L 178.317584 144.206987 
L 185.035978 143.063638 
L 186.715577 142.628064 
L 188.395176 142.070103 
L 190.074774 141.372826 
L 191.754373 140.522485 
L 193.433972 139.505333 
L 195.11357 138.307621 
L 196.793169 136.915601 
L 198.472768 135.315525 
L 200.152366 133.494001 
L 203.511564 129.251281 
L 206.870761 124.493266 
L 213.589156 114.830436 
L 216.948353 110.51699 
L 220.30755 106.709171 
L 223.666747 103.472246 
L 225.346346 102.088266 
L 227.025945 100.868078 
L 228.705543 99.802805 
L 230.385142 98.880163 
L 233.744339 97.41363 
L 237.103537 96.370204 
L 240.462734 95.656862 
L 243.821931 95.241672 
L 247.181129 95.132113 
L 250.540326 95.336322 
L 253.899523 95.849918 
L 258.938319 96.998222 
L 265.656714 98.598824 
L 269.015911 99.21468 
L 272.375109 99.675754 
L 275.734306 99.974178 
L 280.773102 100.126102 
L 289.171095 100.205617 
L 294.209891 100.569737 
L 299.248687 100.966081 
L 302.607885 101.041267 
L 305.967082 100.866822 
L 314.365075 100.151844 
L 317.724273 100.146909 
L 322.763069 100.49015 
L 327.801865 100.863592 
L 331.161062 100.929672 
L 336.199858 100.769117 
L 352.995844 99.841021 
L 359.714239 99.034961 
L 363.073436 98.704405 
L 366.432634 98.619883 
L 369.791831 98.899951 
L 373.151028 99.463452 
L 381.549022 101.050246 
L 393.306212 102.658111 
L 398.345008 103.836777 
L 403.383804 105.042833 
L 406.743002 105.635069 
L 410.102199 105.993903 
L 421.85939 106.969186 
L 431.936982 108.221367 
L 435.296179 108.397268 
L 438.655376 108.395188 
L 442.014574 108.214071 
L 445.373771 107.853259 
L 450.412567 107.037205 
L 468.888152 103.541022 
L 472.247349 102.688886 
L 477.286145 101.163146 
L 489.043336 97.189212 
L 499.120928 93.910767 
L 504.159724 92.519864 
L 507.518921 91.814666 
L 510.878119 91.350577 
L 517.596513 90.834344 
L 520.955711 90.51625 
L 524.314908 89.980065 
L 527.674105 89.092209 
L 529.353704 88.47466 
L 531.033303 87.719102 
L 532.712901 86.808835 
L 534.3925 85.727163 
L 534.3925 85.727163 
" clip-path="url(#p13778a73a2)" style="fill: none; stroke: #489079; stroke-width: 1.25; stroke-linecap: square"/>
   </g>
   <g id="line2d_31">
    <path d="M 32.1925 176.481028 
L 35.551697 175.451232 
L 38.910895 174.746726 
L 42.270092 174.286336 
L 47.308888 173.875891 
L 55.706881 173.262391 
L 59.066079 172.806015 
L 64.104875 171.818932 
L 70.823269 170.413273 
L 75.862065 169.633022 
L 82.58046 168.889635 
L 122.890828 164.837499 
L 126.250025 164.18667 
L 129.609222 163.368478 
L 134.648018 161.850576 
L 139.686814 160.037914 
L 149.764406 156.297345 
L 156.482801 154.165035 
L 169.91959 150.171712 
L 173.278788 149.493993 
L 176.637985 149.115778 
L 179.997182 148.977465 
L 190.074774 148.812997 
L 191.754373 148.60668 
L 193.433972 148.260927 
L 195.11357 147.738237 
L 196.793169 147.001107 
L 198.472768 146.012035 
L 200.152366 144.733978 
L 201.831965 143.157599 
L 203.511564 141.3165 
L 205.191162 139.247976 
L 208.55036 134.577836 
L 213.589156 126.798993 
L 218.627952 118.931968 
L 221.987149 114.052719 
L 225.346346 109.750305 
L 227.025945 107.885113 
L 228.705543 106.216578 
L 230.385142 104.736187 
L 232.064741 103.435427 
L 233.744339 102.305783 
L 235.423938 101.338744 
L 237.103537 100.525797 
L 238.783135 99.858382 
L 240.462734 99.325224 
L 243.821931 98.599371 
L 247.181129 98.221811 
L 252.219925 98.031754 
L 262.297517 98.026723 
L 269.015911 97.917641 
L 272.375109 97.700513 
L 275.734306 97.301704 
L 279.093503 96.677478 
L 287.491497 94.896975 
L 290.850694 94.552115 
L 294.209891 94.532579 
L 300.928286 94.67645 
L 304.287483 94.423071 
L 307.646681 93.874627 
L 314.365075 92.636635 
L 317.724273 92.31474 
L 322.763069 92.223016 
L 327.801865 92.145955 
L 331.161062 91.858046 
L 334.520259 91.281462 
L 337.879457 90.367473 
L 341.238654 89.067427 
L 344.597851 87.403091 
L 347.957048 85.677901 
L 349.636647 84.909314 
L 351.316246 84.265709 
L 352.995844 83.793817 
L 354.675443 83.539742 
L 356.355042 83.511985 
L 358.03464 83.660753 
L 361.393838 84.268652 
L 364.753035 84.925003 
L 366.432634 85.134338 
L 368.112232 85.196085 
L 371.47143 84.93091 
L 378.189824 83.978501 
L 379.869423 83.889415 
L 381.549022 83.930213 
L 384.908219 84.33381 
L 389.947015 85.367203 
L 393.306212 86.048419 
L 396.66541 86.549215 
L 400.024607 86.876178 
L 405.063403 87.103578 
L 416.820594 87.282725 
L 420.179791 87.611929 
L 430.257383 89.018647 
L 433.61658 89.152273 
L 436.975778 89.03517 
L 443.694172 88.459744 
L 450.412567 88.006669 
L 457.130962 87.798449 
L 468.888152 87.546262 
L 473.926948 87.13194 
L 482.324941 86.103385 
L 494.082132 84.599639 
L 499.120928 83.682709 
L 502.480125 82.848991 
L 505.839323 81.754873 
L 509.19852 80.329579 
L 512.557717 78.567933 
L 522.635309 72.917896 
L 525.994507 71.51223 
L 527.674105 71.000107 
L 529.353704 70.645093 
L 531.033303 70.469665 
L 532.712901 70.4963 
L 534.3925 70.747473 
L 534.3925 70.747473 
" clip-path="url(#p13778a73a2)" style="fill: none; stroke: #eea92b; stroke-opacity: 0.95; stroke-width: 1.25; stroke-linecap: square"/>
   </g>
   <g id="line2d_32">
    <path d="M 32.1925 176.481028 
L 42.270092 175.522755 
L 50.668085 174.983853 
L 57.38648 174.777273 
L 67.464072 174.786399 
L 74.182467 174.689269 
L 84.260059 174.445645 
L 92.658052 174.380939 
L 96.017249 174.1305 
L 99.376446 173.62983 
L 109.454038 171.783896 
L 112.813236 171.518907 
L 121.211229 171.100631 
L 124.570426 170.6061 
L 127.929624 169.838623 
L 132.96842 168.364724 
L 144.72561 164.554194 
L 151.444005 162.165024 
L 161.521597 158.266842 
L 166.560393 156.202964 
L 169.91959 154.624596 
L 173.278788 152.7579 
L 176.637985 150.528597 
L 185.035978 144.568323 
L 188.395176 142.657406 
L 195.11357 139.344258 
L 196.793169 138.326577 
L 198.472768 137.129911 
L 200.152366 135.703279 
L 201.831965 134.033656 
L 205.191162 130.15371 
L 213.589156 119.671023 
L 216.948353 116.085134 
L 220.30755 113.028234 
L 223.666747 110.522216 
L 225.346346 109.482631 
L 227.025945 108.5861 
L 230.385142 107.172767 
L 233.744339 106.168965 
L 237.103537 105.458566 
L 240.462734 104.93322 
L 243.821931 104.574986 
L 247.181129 104.424252 
L 250.540326 104.522378 
L 253.899523 104.894201 
L 258.938319 105.765144 
L 263.977115 106.622287 
L 267.336313 106.996841 
L 272.375109 107.256946 
L 277.413905 107.258247 
L 292.530293 106.977253 
L 300.928286 107.259024 
L 309.326279 107.530874 
L 312.685477 107.462457 
L 316.044674 107.197573 
L 326.122266 105.931944 
L 329.481463 105.962012 
L 332.840661 106.379138 
L 341.238654 107.743991 
L 344.597851 107.897225 
L 349.636647 107.767003 
L 354.675443 107.666053 
L 359.714239 107.894511 
L 364.753035 108.122785 
L 368.112232 108.058277 
L 373.151028 107.592725 
L 378.189824 107.11574 
L 381.549022 107.040652 
L 384.908219 107.234823 
L 388.267416 107.651266 
L 393.306212 108.580625 
L 405.063403 111.065941 
L 410.102199 111.722339 
L 418.500192 112.66079 
L 428.577784 114.190296 
L 431.936982 114.271226 
L 435.296179 113.965923 
L 442.014574 113.047337 
L 445.373771 112.915649 
L 448.732968 113.136049 
L 453.771764 113.608726 
L 457.130962 113.64228 
L 460.490159 113.22744 
L 463.849356 112.495587 
L 470.567751 110.917633 
L 473.926948 110.403416 
L 485.684139 108.908265 
L 494.082132 107.393799 
L 497.441329 107.008845 
L 502.480125 106.723298 
L 507.518921 106.436959 
L 510.878119 106.05475 
L 515.916915 105.16627 
L 529.353704 102.401941 
L 532.712901 101.953749 
L 534.3925 101.808311 
L 534.3925 101.808311 
" clip-path="url(#p13778a73a2)" style="fill: none; stroke: #676391; stroke-width: 1.25; stroke-linecap: square"/>
   </g>
   <g id="patch_4">
    <path d="M 27.1925 208.196719 
L 27.1925 49.618265 
" style="fill: none; stroke: #cccccc; stroke-width: 0.75; stroke-linejoin: miter; stroke-linecap: square"/>
   </g>
   <g id="patch_5">
    <path d="M 32.1925 213.196719 
L 534.3925 213.196719 
" style="fill: none; stroke: #cccccc; stroke-width: 0.75; stroke-linejoin: miter; stroke-linecap: square"/>
   </g>
   <g id="legend_1">
    <g id="line2d_33">
     <path d="M 40.2925 14.633438 
L 46.3675 14.633438 
L 52.4425 14.633438 
" style="fill: none; stroke-dasharray: 5.55,2.4; stroke-dashoffset: 0; stroke: #5d5d5d; stroke-width: 1.5"/>
    </g>
    <g id="text_25">
     <!-- Сырое молоко -->
     <g style="fill: #4b4b4b" transform="translate(59.6425 17.783438) scale(0.09 -0.09)">
      <defs>
       <path id="Ubuntu-421" d="M 2458 -96 
Q 1990 -96 1606 57 
Q 1222 211 947 505 
Q 672 800 521 1232 
Q 371 1664 371 2221 
Q 371 2778 540 3210 
Q 710 3642 998 3936 
Q 1286 4230 1670 4384 
Q 2054 4538 2490 4538 
Q 2765 4538 2985 4499 
Q 3206 4461 3369 4409 
Q 3533 4358 3635 4307 
Q 3738 4256 3776 4230 
L 3597 3718 
Q 3539 3757 3430 3801 
Q 3322 3846 3184 3891 
Q 3046 3936 2883 3965 
Q 2720 3994 2554 3994 
Q 2202 3994 1920 3872 
Q 1638 3750 1440 3520 
Q 1242 3290 1136 2960 
Q 1030 2630 1030 2221 
Q 1030 1824 1123 1497 
Q 1216 1171 1401 937 
Q 1587 704 1865 576 
Q 2144 448 2515 448 
Q 2944 448 3225 537 
Q 3507 627 3648 698 
L 3808 186 
Q 3763 154 3648 106 
Q 3533 58 3360 13 
Q 3187 -32 2956 -64 
Q 2726 -96 2458 -96 
z
" transform="scale(0.015625)"/>
       <path id="Ubuntu-44b" d="M 1734 1645 
Q 1562 1645 1398 1635 
Q 1235 1626 1107 1594 
L 1107 448 
Q 1146 442 1219 435 
Q 1293 429 1379 425 
Q 1466 422 1555 419 
Q 1645 416 1715 416 
Q 2106 416 2317 563 
Q 2528 710 2528 1037 
Q 2528 1197 2461 1312 
Q 2394 1427 2282 1500 
Q 2170 1574 2029 1609 
Q 1888 1645 1734 1645 
z
M 512 3328 
L 1107 3328 
L 1107 2054 
Q 1216 2080 1424 2105 
Q 1632 2131 1824 2131 
Q 2086 2131 2323 2070 
Q 2560 2010 2739 1878 
Q 2918 1747 3024 1539 
Q 3130 1331 3130 1043 
Q 3130 742 3027 531 
Q 2925 320 2739 185 
Q 2554 51 2291 -9 
Q 2029 -70 1715 -70 
Q 1414 -70 1107 -35 
Q 800 0 512 70 
L 512 3328 
z
M 4339 0 
L 3744 0 
L 3744 3328 
L 4339 3328 
L 4339 0 
z
" transform="scale(0.015625)"/>
       <path id="Ubuntu-43e" d="M 3450 1664 
Q 3450 1267 3334 947 
Q 3219 627 3011 396 
Q 2803 166 2515 41 
Q 2227 -83 1888 -83 
Q 1549 -83 1261 41 
Q 973 166 765 396 
Q 557 627 441 947 
Q 326 1267 326 1664 
Q 326 2054 441 2377 
Q 557 2701 765 2931 
Q 973 3162 1261 3286 
Q 1549 3411 1888 3411 
Q 2227 3411 2515 3286 
Q 2803 3162 3011 2931 
Q 3219 2701 3334 2377 
Q 3450 2054 3450 1664 
z
M 2829 1664 
Q 2829 2227 2576 2556 
Q 2323 2886 1888 2886 
Q 1453 2886 1200 2556 
Q 947 2227 947 1664 
Q 947 1101 1200 771 
Q 1453 442 1888 442 
Q 2323 442 2576 771 
Q 2829 1101 2829 1664 
z
" transform="scale(0.015625)"/>
       <path id="Ubuntu-435" d="M 326 1658 
Q 326 2099 454 2428 
Q 582 2758 793 2976 
Q 1005 3194 1280 3302 
Q 1555 3411 1843 3411 
Q 2515 3411 2873 2992 
Q 3232 2573 3232 1715 
Q 3232 1677 3232 1616 
Q 3232 1555 3226 1504 
L 947 1504 
Q 986 986 1248 717 
Q 1510 448 2067 448 
Q 2381 448 2595 502 
Q 2810 557 2918 608 
L 3002 109 
Q 2893 51 2621 -13 
Q 2349 -77 2003 -77 
Q 1568 -77 1251 54 
Q 934 186 729 416 
Q 525 646 425 963 
Q 326 1280 326 1658 
z
M 2611 1984 
Q 2618 2387 2410 2646 
Q 2202 2906 1837 2906 
Q 1632 2906 1475 2826 
Q 1318 2746 1209 2618 
Q 1101 2490 1040 2323 
Q 979 2157 960 1984 
L 2611 1984 
z
" transform="scale(0.015625)"/>
       <path id="Ubuntu-20" transform="scale(0.015625)"/>
       <path id="Ubuntu-43c" d="M 1146 2451 
Q 1082 1818 1050 1187 
Q 1018 557 998 0 
L 429 0 
Q 442 390 467 816 
Q 493 1242 525 1674 
Q 557 2106 595 2525 
Q 634 2944 678 3328 
L 1222 3328 
Q 1427 2995 1702 2416 
Q 1978 1837 2336 1082 
Q 2694 1837 2969 2416 
Q 3245 2995 3450 3328 
L 4000 3328 
Q 4045 2944 4083 2525 
Q 4122 2106 4154 1674 
Q 4186 1242 4211 816 
Q 4237 390 4250 0 
L 3661 0 
Q 3642 557 3610 1187 
Q 3578 1818 3514 2451 
Q 3411 2253 3276 1974 
Q 3142 1696 3011 1408 
Q 2880 1120 2765 857 
Q 2650 595 2586 442 
L 2086 442 
Q 2016 602 1897 864 
Q 1779 1126 1648 1417 
Q 1517 1709 1382 1987 
Q 1248 2266 1146 2451 
z
" transform="scale(0.015625)"/>
      </defs>
      <use xlink:href="#Ubuntu-421"/>
      <use xlink:href="#Ubuntu-44b" x="61.999985"/>
      <use xlink:href="#Ubuntu-440" x="137.799973"/>
      <use xlink:href="#Ubuntu-43e" x="196.699966"/>
      <use xlink:href="#Ubuntu-435" x="255.699951"/>
      <use xlink:href="#Ubuntu-20" x="311.599945"/>
      <use xlink:href="#Ubuntu-43c" x="334.699936"/>
      <use xlink:href="#Ubuntu-43e" x="407.799927"/>
      <use xlink:href="#Ubuntu-43b" x="466.799911"/>
      <use xlink:href="#Ubuntu-43e" x="526.599899"/>
      <use xlink:href="#Ubuntu-43a" x="585.599884"/>
      <use xlink:href="#Ubuntu-43e" x="636.424881"/>
     </g>
    </g>
    <g id="line2d_34">
     <path d="M 40.2925 27.781875 
L 46.3675 27.781875 
L 52.4425 27.781875 
" style="fill: none; stroke: #5d5d5d; stroke-opacity: 0.95; stroke-width: 1.25; stroke-linecap: square"/>
    </g>
    <g id="text_26">
     <!-- Пастеризованное молоко -->
     <g style="fill: #4b4b4b" transform="translate(59.6425 30.931875) scale(0.09 -0.09)">
      <defs>
       <path id="Ubuntu-41f" d="M 3923 4435 
L 3923 0 
L 3302 0 
L 3302 3904 
L 1171 3904 
L 1171 0 
L 550 0 
L 550 4435 
L 3923 4435 
z
" transform="scale(0.015625)"/>
       <path id="Ubuntu-430" d="M 1638 429 
Q 1850 429 2013 438 
Q 2176 448 2285 474 
L 2285 1466 
Q 2221 1498 2077 1520 
Q 1933 1542 1728 1542 
Q 1594 1542 1443 1523 
Q 1293 1504 1168 1443 
Q 1043 1382 960 1276 
Q 877 1171 877 998 
Q 877 678 1081 553 
Q 1286 429 1638 429 
z
M 1587 3411 
Q 1946 3411 2192 3318 
Q 2438 3226 2588 3056 
Q 2739 2886 2803 2652 
Q 2867 2419 2867 2138 
L 2867 58 
Q 2790 45 2652 22 
Q 2515 0 2342 -19 
Q 2170 -38 1968 -54 
Q 1766 -70 1568 -70 
Q 1286 -70 1049 -12 
Q 813 45 640 169 
Q 467 294 371 499 
Q 275 704 275 992 
Q 275 1267 387 1465 
Q 499 1664 691 1785 
Q 883 1907 1139 1964 
Q 1395 2022 1677 2022 
Q 1766 2022 1862 2012 
Q 1958 2003 2044 1987 
Q 2131 1971 2195 1958 
Q 2259 1946 2285 1939 
L 2285 2106 
Q 2285 2253 2253 2397 
Q 2221 2541 2137 2653 
Q 2054 2765 1910 2832 
Q 1766 2899 1536 2899 
Q 1242 2899 1021 2857 
Q 800 2816 691 2771 
L 621 3264 
Q 736 3315 1005 3363 
Q 1274 3411 1587 3411 
z
" transform="scale(0.015625)"/>
       <path id="Ubuntu-441" d="M 1958 -77 
Q 1555 -77 1251 51 
Q 947 179 739 409 
Q 531 640 428 957 
Q 326 1274 326 1658 
Q 326 2042 438 2362 
Q 550 2682 755 2915 
Q 960 3149 1257 3280 
Q 1555 3411 1920 3411 
Q 2144 3411 2368 3372 
Q 2592 3334 2797 3251 
L 2662 2746 
Q 2528 2810 2352 2848 
Q 2176 2886 1978 2886 
Q 1478 2886 1212 2572 
Q 947 2259 947 1658 
Q 947 1389 1008 1165 
Q 1069 941 1200 781 
Q 1331 621 1536 534 
Q 1741 448 2035 448 
Q 2272 448 2464 493 
Q 2656 538 2765 589 
L 2848 90 
Q 2797 58 2701 29 
Q 2605 0 2483 -22 
Q 2362 -45 2224 -61 
Q 2086 -77 1958 -77 
z
" transform="scale(0.015625)"/>
       <path id="Ubuntu-438" d="M 3309 3328 
L 3309 0 
L 2733 0 
L 2733 2534 
Q 2541 2291 2310 1964 
Q 2080 1638 1849 1289 
Q 1619 941 1408 601 
Q 1197 262 1043 0 
L 512 0 
L 512 3328 
L 1088 3328 
L 1088 934 
Q 1254 1210 1465 1539 
Q 1677 1869 1904 2192 
Q 2131 2515 2358 2812 
Q 2586 3110 2784 3328 
L 3309 3328 
z
" transform="scale(0.015625)"/>
       <path id="Ubuntu-437" d="M 1357 3411 
Q 1645 3411 1894 3353 
Q 2144 3296 2323 3181 
Q 2502 3066 2604 2893 
Q 2707 2720 2707 2490 
Q 2707 2342 2656 2220 
Q 2605 2099 2528 2003 
Q 2451 1907 2358 1840 
Q 2266 1773 2182 1747 
Q 2477 1658 2646 1430 
Q 2816 1203 2816 858 
Q 2816 384 2432 153 
Q 2048 -77 1389 -77 
Q 986 -77 694 -13 
Q 403 51 282 109 
L 384 614 
Q 486 576 752 509 
Q 1018 442 1389 442 
Q 1792 442 2003 566 
Q 2214 691 2214 941 
Q 2214 1120 2134 1232 
Q 2054 1344 1932 1401 
Q 1811 1459 1670 1478 
Q 1530 1498 1408 1498 
L 851 1498 
L 851 1971 
L 1389 1971 
Q 1504 1971 1629 1987 
Q 1754 2003 1859 2054 
Q 1965 2106 2035 2198 
Q 2106 2291 2106 2445 
Q 2106 2566 2045 2652 
Q 1984 2739 1881 2796 
Q 1779 2854 1641 2883 
Q 1504 2912 1357 2912 
Q 1242 2912 1107 2893 
Q 973 2874 845 2845 
Q 717 2816 614 2784 
Q 512 2752 467 2726 
L 358 3238 
Q 410 3258 518 3290 
Q 627 3322 764 3347 
Q 902 3373 1056 3392 
Q 1210 3411 1357 3411 
z
" transform="scale(0.015625)"/>
      </defs>
      <use xlink:href="#Ubuntu-41f"/>
      <use xlink:href="#Ubuntu-430" x="69.899994"/>
      <use xlink:href="#Ubuntu-441" x="122.099991"/>
      <use xlink:href="#Ubuntu-442" x="170.099976"/>
      <use xlink:href="#Ubuntu-435" x="216.399963"/>
      <use xlink:href="#Ubuntu-440" x="272.299957"/>
      <use xlink:href="#Ubuntu-438" x="331.199951"/>
      <use xlink:href="#Ubuntu-437" x="390.899948"/>
      <use xlink:href="#Ubuntu-43e" x="439.799942"/>
      <use xlink:href="#Ubuntu-432" x="498.799927"/>
      <use xlink:href="#Ubuntu-430" x="553.599915"/>
      <use xlink:href="#Ubuntu-43d" x="605.799911"/>
      <use xlink:href="#Ubuntu-43d" x="664.399902"/>
      <use xlink:href="#Ubuntu-43e" x="722.999893"/>
      <use xlink:href="#Ubuntu-435" x="781.999878"/>
      <use xlink:href="#Ubuntu-20" x="837.899872"/>
      <use xlink:href="#Ubuntu-43c" x="860.999863"/>
      <use xlink:href="#Ubuntu-43e" x="934.099854"/>
      <use xlink:href="#Ubuntu-43b" x="993.099838"/>
      <use xlink:href="#Ubuntu-43e" x="1052.899826"/>
      <use xlink:href="#Ubuntu-43a" x="1111.899811"/>
      <use xlink:href="#Ubuntu-43e" x="1162.724808"/>
     </g>
    </g>
    <g id="line2d_35">
     <path d="M 187.598594 14.633438 
L 193.673594 14.633438 
L 199.748594 14.633438 
" style="fill: none; stroke: #af5a51; stroke-opacity: 0.95; stroke-width: 1.25; stroke-linecap: square"/>
    </g>
    <g id="text_27">
     <!-- Масло сливочное -->
     <g style="fill: #4b4b4b" transform="translate(206.948594 17.783438) scale(0.09 -0.09)">
      <defs>
       <path id="Ubuntu-41c" d="M 2541 614 
Q 2477 768 2371 1005 
Q 2266 1242 2144 1517 
Q 2022 1792 1884 2083 
Q 1747 2374 1625 2633 
Q 1504 2893 1398 3097 
Q 1293 3302 1229 3411 
Q 1158 2656 1113 1776 
Q 1069 896 1037 0 
L 429 0 
Q 454 576 486 1161 
Q 518 1747 560 2313 
Q 602 2880 650 3417 
Q 698 3955 755 4435 
L 1299 4435 
Q 1472 4154 1670 3770 
Q 1869 3386 2067 2966 
Q 2266 2547 2451 2128 
Q 2637 1709 2790 1363 
Q 2944 1709 3129 2128 
Q 3315 2547 3513 2966 
Q 3712 3386 3910 3770 
Q 4109 4154 4282 4435 
L 4826 4435 
Q 5043 2291 5152 0 
L 4544 0 
Q 4512 896 4467 1776 
Q 4422 2656 4352 3411 
Q 4288 3302 4182 3097 
Q 4077 2893 3955 2633 
Q 3834 2374 3696 2083 
Q 3558 1792 3436 1517 
Q 3315 1242 3209 1005 
Q 3104 768 3040 614 
L 2541 614 
z
" transform="scale(0.015625)"/>
       <path id="Ubuntu-447" d="M 890 3328 
L 890 2349 
Q 890 1971 1082 1820 
Q 1274 1670 1606 1670 
Q 1850 1670 2013 1696 
Q 2176 1722 2304 1754 
L 2304 3328 
L 2899 3328 
L 2899 0 
L 2304 0 
L 2304 1293 
Q 2253 1280 2169 1261 
Q 2086 1242 1980 1226 
Q 1875 1210 1760 1197 
Q 1645 1184 1536 1184 
Q 1261 1184 1033 1241 
Q 806 1299 643 1433 
Q 480 1568 387 1789 
Q 294 2010 294 2342 
L 294 3328 
L 890 3328 
z
" transform="scale(0.015625)"/>
      </defs>
      <use xlink:href="#Ubuntu-41c"/>
      <use xlink:href="#Ubuntu-430" x="87.099991"/>
      <use xlink:href="#Ubuntu-441" x="139.299988"/>
      <use xlink:href="#Ubuntu-43b" x="187.674973"/>
      <use xlink:href="#Ubuntu-43e" x="247.47496"/>
      <use xlink:href="#Ubuntu-20" x="306.474945"/>
      <use xlink:href="#Ubuntu-441" x="329.574936"/>
      <use xlink:href="#Ubuntu-43b" x="377.949921"/>
      <use xlink:href="#Ubuntu-438" x="437.749908"/>
      <use xlink:href="#Ubuntu-432" x="497.449905"/>
      <use xlink:href="#Ubuntu-43e" x="552.249893"/>
      <use xlink:href="#Ubuntu-447" x="611.249878"/>
      <use xlink:href="#Ubuntu-43d" x="664.549866"/>
      <use xlink:href="#Ubuntu-43e" x="723.149857"/>
      <use xlink:href="#Ubuntu-435" x="782.149841"/>
     </g>
    </g>
    <g id="line2d_36">
     <path d="M 187.598594 27.781875 
L 193.673594 27.781875 
L 199.748594 27.781875 
" style="fill: none; stroke: #608eb4; stroke-width: 1.25; stroke-linecap: square"/>
    </g>
    <g id="text_28">
     <!-- Сыр -->
     <g style="fill: #4b4b4b" transform="translate(206.948594 30.931875) scale(0.09 -0.09)">
      <use xlink:href="#Ubuntu-421"/>
      <use xlink:href="#Ubuntu-44b" x="61.999985"/>
      <use xlink:href="#Ubuntu-440" x="137.799973"/>
     </g>
    </g>
    <g id="line2d_37">
     <path d="M 300.371406 14.633438 
L 306.446406 14.633438 
L 312.521406 14.633438 
" style="fill: none; stroke: #489079; stroke-width: 1.25; stroke-linecap: square"/>
    </g>
    <g id="text_29">
     <!-- Сметана -->
     <g style="fill: #4b4b4b" transform="translate(319.721406 17.783438) scale(0.09 -0.09)">
      <use xlink:href="#Ubuntu-421"/>
      <use xlink:href="#Ubuntu-43c" x="61.999985"/>
      <use xlink:href="#Ubuntu-435" x="135.099976"/>
      <use xlink:href="#Ubuntu-442" x="190.999969"/>
      <use xlink:href="#Ubuntu-430" x="237.299957"/>
      <use xlink:href="#Ubuntu-43d" x="289.499954"/>
      <use xlink:href="#Ubuntu-430" x="348.099945"/>
     </g>
    </g>
    <g id="line2d_38">
     <path d="M 300.371406 28.935 
L 306.446406 28.935 
L 312.521406 28.935 
" style="fill: none; stroke: #eea92b; stroke-opacity: 0.95; stroke-width: 1.25; stroke-linecap: square"/>
    </g>
    <g id="text_30">
     <!-- Йогрут -->
     <g style="fill: #4b4b4b" transform="translate(319.721406 32.085) scale(0.09 -0.09)">
      <defs>
       <path id="Ubuntu-419" d="M 550 0 
L 550 4435 
L 1158 4435 
L 1158 1152 
Q 1363 1491 1660 1926 
Q 1958 2362 2294 2813 
Q 2630 3264 2972 3689 
Q 3315 4115 3616 4435 
L 4109 4435 
L 4109 0 
L 3501 0 
L 3501 3462 
Q 3322 3258 3110 2989 
Q 2899 2720 2675 2416 
Q 2451 2112 2224 1785 
Q 1997 1459 1785 1142 
Q 1574 826 1392 531 
Q 1210 237 1069 0 
L 550 0 
z
M 2333 4890 
Q 1930 4890 1677 5094 
Q 1424 5299 1373 5664 
L 1827 5786 
Q 1878 5581 2000 5453 
Q 2122 5325 2333 5325 
Q 2544 5325 2665 5453 
Q 2787 5581 2838 5786 
L 3286 5664 
Q 3235 5299 2985 5094 
Q 2736 4890 2333 4890 
z
" transform="scale(0.015625)"/>
       <path id="Ubuntu-433" d="M 2573 2829 
L 1107 2829 
L 1107 0 
L 512 0 
L 512 3328 
L 2573 3328 
L 2573 2829 
z
" transform="scale(0.015625)"/>
       <path id="Ubuntu-443" d="M 122 -621 
Q 192 -653 304 -681 
Q 416 -710 525 -710 
Q 877 -710 1075 -553 
Q 1274 -397 1434 -45 
Q 1030 723 681 1584 
Q 333 2445 102 3328 
L 742 3328 
Q 813 3040 912 2707 
Q 1011 2374 1132 2022 
Q 1254 1670 1395 1318 
Q 1536 966 1690 640 
Q 1933 1312 2112 1971 
Q 2291 2630 2451 3328 
L 3066 3328 
Q 2835 2387 2553 1520 
Q 2272 653 1946 -102 
Q 1818 -390 1680 -598 
Q 1542 -806 1376 -940 
Q 1210 -1075 1002 -1139 
Q 794 -1203 531 -1203 
Q 461 -1203 384 -1193 
Q 307 -1184 233 -1168 
Q 160 -1152 99 -1133 
Q 38 -1114 13 -1101 
L 122 -621 
z
" transform="scale(0.015625)"/>
      </defs>
      <use xlink:href="#Ubuntu-419"/>
      <use xlink:href="#Ubuntu-43e" x="72.799988"/>
      <use xlink:href="#Ubuntu-433" x="131.799973"/>
      <use xlink:href="#Ubuntu-440" x="173.59996"/>
      <use xlink:href="#Ubuntu-443" x="231.124954"/>
      <use xlink:href="#Ubuntu-442" x="282.949951"/>
     </g>
    </g>
    <g id="line2d_39">
     <path d="M 373.748125 14.633438 
L 379.823125 14.633438 
L 385.898125 14.633438 
" style="fill: none; stroke: #676391; stroke-width: 1.25; stroke-linecap: square"/>
    </g>
    <g id="text_31">
     <!-- Творог -->
     <g style="fill: #4b4b4b" transform="translate(393.098125 17.783438) scale(0.09 -0.09)">
      <defs>
       <path id="Ubuntu-422" d="M 3514 4435 
L 3514 3898 
L 2118 3898 
L 2118 0 
L 1498 0 
L 1498 3898 
L 102 3898 
L 102 4435 
L 3514 4435 
z
" transform="scale(0.015625)"/>
      </defs>
      <use xlink:href="#Ubuntu-422"/>
      <use xlink:href="#Ubuntu-432" x="49.124985"/>
      <use xlink:href="#Ubuntu-43e" x="103.924973"/>
      <use xlink:href="#Ubuntu-440" x="162.924957"/>
      <use xlink:href="#Ubuntu-43e" x="221.824951"/>
      <use xlink:href="#Ubuntu-433" x="280.824936"/>
     </g>
    </g>
   </g>
  </g>
 </g>
 <defs>
  <clipPath id="p13778a73a2">
   <rect x="32.1925" y="41.876719" width="502.2" height="166.32"/>
  </clipPath>
  <clipPath id="pd90e04701a">
   <rect x="32.1925" y="208.196719" width="502.2" height="0"/>
  </clipPath>
 </defs>
</svg>
