<?xml version="1.0" encoding="utf-8" standalone="no"?>
<!DOCTYPE svg PUBLIC "-//W3C//DTD SVG 1.1//EN"
  "http://www.w3.org/Graphics/SVG/1.1/DTD/svg11.dtd">
<svg xmlns:xlink="http://www.w3.org/1999/xlink" width="538.726471pt" height="226.098656pt" viewBox="0 0 538.726471 226.098656" xmlns="http://www.w3.org/2000/svg" version="1.1">
 <metadata>
  <rdf:RDF xmlns:dc="http://purl.org/dc/elements/1.1/" xmlns:cc="http://creativecommons.org/ns#" xmlns:rdf="http://www.w3.org/1999/02/22-rdf-syntax-ns#">
   <cc:Work>
    <dc:type rdf:resource="http://purl.org/dc/dcmitype/StillImage"/>
    <dc:date>2024-05-29T16:38:47.192592</dc:date>
    <dc:format>image/svg+xml</dc:format>
    <dc:creator>
     <cc:Agent>
      <dc:title>Matplotlib v3.9.0, https://matplotlib.org/</dc:title>
     </cc:Agent>
    </dc:creator>
   </cc:Work>
  </rdf:RDF>
 </metadata>
 <defs>
  <style type="text/css">*{stroke-linejoin: round; stroke-linecap: butt}</style>
 </defs>
 <g id="figure_1">
  <g id="patch_1">
   <path d="M 0 226.098656 
L 538.726471 226.098656 
L 538.726471 0 
L 0 0 
L 0 226.098656 
z
" style="fill: none"/>
  </g>
  <g id="axes_1">
   <g id="patch_2">
    <path d="M 25.225 202.211156 
L 527.425 202.211156 
L 527.425 35.891156 
L 25.225 35.891156 
L 25.225 202.211156 
z
" style="fill: none"/>
   </g>
   <g id="line2d_1">
    <path d="M 30.247 131.845002 
L 522.403 131.845002 
" clip-path="url(#p2ad323c055)" style="fill: none; stroke-dasharray: 2.775,1.2; stroke-dashoffset: 0; stroke: #cccccc; stroke-width: 0.75"/>
   </g>
   <g id="line2d_2">
    <path d="M 131.728715 196.389956 
L 131.728715 47.533556 
" clip-path="url(#p2ad323c055)" style="fill: none; stroke-dasharray: 0.85,1.4025; stroke-dashoffset: 0; stroke: #af4035; stroke-opacity: 0.75; stroke-width: 0.85"/>
   </g>
   <g id="line2d_3">
    <path d="M 218.020046 196.389956 
L 218.020046 188.073956 
" clip-path="url(#p2ad323c055)" style="fill: none; stroke-dasharray: 0.85,1.4025; stroke-dashoffset: 0; stroke: #af4035; stroke-opacity: 0.75; stroke-width: 0.85"/>
   </g>
   <g id="line2d_4">
    <path d="M 295.759985 196.389956 
L 295.759985 54.186356 
" clip-path="url(#p2ad323c055)" style="fill: none; stroke-dasharray: 0.85,1.4025; stroke-dashoffset: 0; stroke: #af4035; stroke-opacity: 0.75; stroke-width: 0.85"/>
   </g>
   <g id="line2d_5">
    <path d="M 446.834598 196.389956 
L 446.834598 74.144756 
" clip-path="url(#p2ad323c055)" style="fill: none; stroke-dasharray: 0.85,1.4025; stroke-dashoffset: 0; stroke: #af4035; stroke-opacity: 0.75; stroke-width: 0.85"/>
   </g>
   <g id="matplotlib.axis_1">
    <g id="xtick_1">
     <g id="line2d_6">
      <defs>
       <path id="m4876e548be" d="M 0 0 
L 0 3 
" style="stroke: #cecece; stroke-width: 0.75"/>
      </defs>
      <g>
       <use xlink:href="#m4876e548be" x="30.148529" y="202.211156" style="fill: #cecece; stroke: #cecece; stroke-width: 0.75"/>
      </g>
     </g>
     <g id="text_1">
      <!-- 2003 -->
      <g style="fill: #808080" transform="translate(21.123529 217.418656) scale(0.08 -0.08)">
       <defs>
        <path id="Ubuntu-32" d="M 2989 3302 
Q 2989 3072 2896 2857 
Q 2803 2643 2649 2435 
Q 2496 2227 2304 2025 
Q 2112 1824 1920 1632 
Q 1811 1523 1667 1376 
Q 1523 1229 1395 1069 
Q 1267 909 1180 761 
Q 1094 614 1094 506 
L 3136 506 
L 3136 0 
L 448 0 
Q 442 38 442 76 
Q 442 115 442 147 
Q 442 448 541 707 
Q 640 966 800 1196 
Q 960 1427 1158 1632 
Q 1357 1837 1549 2029 
Q 1709 2182 1853 2332 
Q 1997 2483 2109 2633 
Q 2221 2784 2288 2944 
Q 2355 3104 2355 3283 
Q 2355 3475 2294 3609 
Q 2234 3744 2131 3833 
Q 2029 3923 1891 3964 
Q 1754 4006 1600 4006 
Q 1414 4006 1260 3955 
Q 1107 3904 985 3837 
Q 864 3770 781 3696 
Q 698 3622 653 3584 
L 358 4006 
Q 416 4070 531 4163 
Q 646 4256 806 4339 
Q 966 4422 1164 4480 
Q 1363 4538 1594 4538 
Q 2291 4538 2640 4214 
Q 2989 3891 2989 3302 
z
" transform="scale(0.015625)"/>
        <path id="Ubuntu-30" d="M 320 2221 
Q 320 3334 713 3936 
Q 1107 4538 1805 4538 
Q 2502 4538 2896 3936 
Q 3290 3334 3290 2221 
Q 3290 1107 2896 505 
Q 2502 -96 1805 -96 
Q 1107 -96 713 505 
Q 320 1107 320 2221 
z
M 2662 2221 
Q 2662 2586 2620 2912 
Q 2579 3238 2480 3481 
Q 2381 3725 2214 3869 
Q 2048 4013 1805 4013 
Q 1562 4013 1395 3869 
Q 1229 3725 1129 3481 
Q 1030 3238 988 2912 
Q 947 2586 947 2221 
Q 947 1856 988 1529 
Q 1030 1203 1129 960 
Q 1229 717 1395 573 
Q 1562 429 1805 429 
Q 2048 429 2214 573 
Q 2381 717 2480 960 
Q 2579 1203 2620 1529 
Q 2662 1856 2662 2221 
z
" transform="scale(0.015625)"/>
        <path id="Ubuntu-33" d="M 1446 435 
Q 2016 435 2262 659 
Q 2509 883 2509 1261 
Q 2509 1504 2406 1670 
Q 2304 1837 2137 1936 
Q 1971 2035 1750 2076 
Q 1530 2118 1299 2118 
L 1146 2118 
L 1146 2605 
L 1357 2605 
Q 1517 2605 1686 2637 
Q 1856 2669 1997 2752 
Q 2138 2835 2227 2979 
Q 2317 3123 2317 3341 
Q 2317 3520 2253 3648 
Q 2189 3776 2083 3859 
Q 1978 3942 1840 3977 
Q 1702 4013 1549 4013 
Q 1242 4013 1027 3923 
Q 813 3834 666 3738 
L 435 4192 
Q 512 4243 630 4304 
Q 749 4365 896 4416 
Q 1043 4467 1212 4502 
Q 1382 4538 1568 4538 
Q 1920 4538 2176 4451 
Q 2432 4365 2598 4208 
Q 2765 4051 2848 3836 
Q 2931 3622 2931 3373 
Q 2931 3027 2732 2780 
Q 2534 2534 2253 2406 
Q 2426 2355 2586 2259 
Q 2746 2163 2864 2016 
Q 2982 1869 3056 1677 
Q 3130 1485 3130 1248 
Q 3130 960 3030 713 
Q 2931 467 2723 288 
Q 2515 109 2201 6 
Q 1888 -96 1459 -96 
Q 1293 -96 1117 -70 
Q 941 -45 787 -6 
Q 634 32 518 70 
Q 403 109 352 134 
L 467 653 
Q 576 602 829 518 
Q 1082 435 1446 435 
z
" transform="scale(0.015625)"/>
       </defs>
       <use xlink:href="#Ubuntu-32"/>
       <use xlink:href="#Ubuntu-30" x="56.399994"/>
       <use xlink:href="#Ubuntu-30" x="112.799988"/>
       <use xlink:href="#Ubuntu-33" x="169.199982"/>
      </g>
     </g>
    </g>
    <g id="xtick_2">
     <g id="line2d_7">
      <g>
       <use xlink:href="#m4876e548be" x="56.061842" y="202.211156" style="fill: #cecece; stroke: #cecece; stroke-width: 0.75"/>
      </g>
     </g>
     <g id="text_2">
      <!-- 2004 -->
      <g style="fill: #808080" transform="translate(47.036842 217.418656) scale(0.08 -0.08)">
       <defs>
        <path id="Ubuntu-34" d="M 256 1536 
Q 378 1818 589 2192 
Q 800 2566 1065 2963 
Q 1331 3360 1635 3744 
Q 1939 4128 2246 4435 
L 2816 4435 
L 2816 1619 
L 3341 1619 
L 3341 1133 
L 2816 1133 
L 2816 0 
L 2240 0 
L 2240 1133 
L 256 1133 
L 256 1536 
z
M 2240 3731 
Q 2048 3526 1853 3273 
Q 1658 3021 1472 2745 
Q 1286 2470 1123 2182 
Q 960 1894 832 1619 
L 2240 1619 
L 2240 3731 
z
" transform="scale(0.015625)"/>
       </defs>
       <use xlink:href="#Ubuntu-32"/>
       <use xlink:href="#Ubuntu-30" x="56.399994"/>
       <use xlink:href="#Ubuntu-30" x="112.799988"/>
       <use xlink:href="#Ubuntu-34" x="169.199982"/>
      </g>
     </g>
    </g>
    <g id="xtick_3">
     <g id="line2d_8">
      <g>
       <use xlink:href="#m4876e548be" x="81.975155" y="202.211156" style="fill: #cecece; stroke: #cecece; stroke-width: 0.75"/>
      </g>
     </g>
     <g id="text_3">
      <!-- 2005 -->
      <g style="fill: #808080" transform="translate(72.950155 217.418656) scale(0.08 -0.08)">
       <defs>
        <path id="Ubuntu-35" d="M 1274 2726 
Q 2240 2688 2691 2304 
Q 3142 1920 3142 1261 
Q 3142 966 3043 716 
Q 2944 467 2742 288 
Q 2541 109 2233 6 
Q 1926 -96 1504 -96 
Q 1338 -96 1165 -70 
Q 992 -45 845 -6 
Q 698 32 582 70 
Q 467 109 416 134 
L 531 653 
Q 640 602 886 518 
Q 1133 435 1491 435 
Q 1779 435 1974 499 
Q 2170 563 2291 672 
Q 2413 781 2467 925 
Q 2522 1069 2522 1229 
Q 2522 1472 2438 1661 
Q 2355 1850 2144 1978 
Q 1933 2106 1581 2173 
Q 1229 2240 691 2240 
Q 730 2554 752 2829 
Q 774 3104 793 3366 
Q 813 3629 825 3888 
Q 838 4147 851 4435 
L 2989 4435 
L 2989 3930 
L 1370 3930 
Q 1363 3834 1350 3670 
Q 1338 3507 1325 3331 
Q 1312 3155 1299 2988 
Q 1286 2822 1274 2726 
z
" transform="scale(0.015625)"/>
       </defs>
       <use xlink:href="#Ubuntu-32"/>
       <use xlink:href="#Ubuntu-30" x="56.399994"/>
       <use xlink:href="#Ubuntu-30" x="112.799988"/>
       <use xlink:href="#Ubuntu-35" x="169.199982"/>
      </g>
     </g>
    </g>
    <g id="xtick_4">
     <g id="line2d_9">
      <g>
       <use xlink:href="#m4876e548be" x="107.888467" y="202.211156" style="fill: #cecece; stroke: #cecece; stroke-width: 0.75"/>
      </g>
     </g>
     <g id="text_4">
      <!-- 2006 -->
      <g style="fill: #808080" transform="translate(98.863467 217.418656) scale(0.08 -0.08)">
       <defs>
        <path id="Ubuntu-36" d="M 403 1779 
Q 403 2426 582 2922 
Q 762 3418 1091 3757 
Q 1421 4096 1891 4272 
Q 2362 4448 2950 4454 
L 2995 3955 
Q 2618 3949 2307 3872 
Q 1997 3795 1753 3628 
Q 1510 3462 1344 3196 
Q 1178 2931 1094 2541 
Q 1261 2618 1469 2669 
Q 1677 2720 1901 2720 
Q 2278 2720 2540 2605 
Q 2803 2490 2969 2301 
Q 3136 2112 3209 1865 
Q 3283 1619 3283 1350 
Q 3283 1107 3200 851 
Q 3117 595 2947 384 
Q 2778 173 2515 38 
Q 2253 -96 1894 -96 
Q 1165 -96 784 403 
Q 403 902 403 1779 
z
M 1837 2234 
Q 1613 2234 1421 2192 
Q 1229 2150 1037 2067 
Q 1030 1997 1027 1923 
Q 1024 1850 1024 1779 
Q 1024 1498 1062 1248 
Q 1101 998 1200 809 
Q 1299 621 1465 509 
Q 1632 397 1888 397 
Q 2099 397 2246 486 
Q 2394 576 2490 717 
Q 2586 858 2627 1021 
Q 2669 1184 2669 1338 
Q 2669 1773 2461 2003 
Q 2253 2234 1837 2234 
z
" transform="scale(0.015625)"/>
       </defs>
       <use xlink:href="#Ubuntu-32"/>
       <use xlink:href="#Ubuntu-30" x="56.399994"/>
       <use xlink:href="#Ubuntu-30" x="112.799988"/>
       <use xlink:href="#Ubuntu-36" x="169.199982"/>
      </g>
     </g>
    </g>
    <g id="xtick_5">
     <g id="line2d_10">
      <g>
       <use xlink:href="#m4876e548be" x="133.80178" y="202.211156" style="fill: #cecece; stroke: #cecece; stroke-width: 0.75"/>
      </g>
     </g>
     <g id="text_5">
      <!-- 2007 -->
      <g style="fill: #808080" transform="translate(124.77678 217.418656) scale(0.08 -0.08)">
       <defs>
        <path id="Ubuntu-37" d="M 1043 0 
Q 1082 512 1226 1078 
Q 1370 1645 1581 2179 
Q 1792 2714 2045 3171 
Q 2298 3629 2541 3917 
L 384 3917 
L 384 4435 
L 3206 4435 
L 3206 3942 
Q 2995 3699 2739 3273 
Q 2483 2848 2256 2320 
Q 2029 1792 1865 1193 
Q 1702 595 1664 0 
L 1043 0 
z
" transform="scale(0.015625)"/>
       </defs>
       <use xlink:href="#Ubuntu-32"/>
       <use xlink:href="#Ubuntu-30" x="56.399994"/>
       <use xlink:href="#Ubuntu-30" x="112.799988"/>
       <use xlink:href="#Ubuntu-37" x="169.199982"/>
      </g>
     </g>
    </g>
    <g id="xtick_6">
     <g id="line2d_11">
      <g>
       <use xlink:href="#m4876e548be" x="159.715093" y="202.211156" style="fill: #cecece; stroke: #cecece; stroke-width: 0.75"/>
      </g>
     </g>
     <g id="text_6">
      <!-- 2008 -->
      <g style="fill: #808080" transform="translate(150.690093 217.418656) scale(0.08 -0.08)">
       <defs>
        <path id="Ubuntu-38" d="M 3258 1152 
Q 3258 883 3165 656 
Q 3072 429 2889 259 
Q 2707 90 2432 -3 
Q 2157 -96 1798 -96 
Q 1382 -96 1104 22 
Q 826 141 659 320 
Q 493 499 422 713 
Q 352 928 352 1120 
Q 352 1306 413 1475 
Q 474 1645 573 1792 
Q 672 1939 803 2057 
Q 934 2176 1082 2266 
Q 454 2624 454 3322 
Q 454 3565 550 3785 
Q 646 4006 822 4172 
Q 998 4339 1248 4438 
Q 1498 4538 1805 4538 
Q 2163 4538 2419 4429 
Q 2675 4320 2838 4150 
Q 3002 3981 3075 3776 
Q 3149 3571 3149 3379 
Q 3149 3194 3094 3030 
Q 3040 2867 2947 2726 
Q 2854 2586 2736 2477 
Q 2618 2368 2490 2285 
Q 3245 1926 3258 1152 
z
M 954 1114 
Q 954 998 995 873 
Q 1037 749 1139 643 
Q 1242 538 1402 467 
Q 1562 397 1805 397 
Q 2022 397 2185 461 
Q 2349 525 2451 624 
Q 2554 723 2605 851 
Q 2656 979 2656 1114 
Q 2656 1318 2579 1472 
Q 2502 1626 2358 1741 
Q 2214 1856 2012 1936 
Q 1811 2016 1555 2074 
Q 1267 1914 1110 1677 
Q 954 1440 954 1114 
z
M 2554 3386 
Q 2554 3482 2512 3597 
Q 2470 3712 2380 3811 
Q 2291 3910 2150 3977 
Q 2010 4045 1805 4045 
Q 1600 4045 1456 3981 
Q 1312 3917 1222 3817 
Q 1133 3718 1091 3600 
Q 1050 3482 1050 3366 
Q 1050 3226 1101 3085 
Q 1152 2944 1261 2822 
Q 1370 2701 1546 2605 
Q 1722 2509 1965 2451 
Q 2234 2611 2394 2825 
Q 2554 3040 2554 3386 
z
" transform="scale(0.015625)"/>
       </defs>
       <use xlink:href="#Ubuntu-32"/>
       <use xlink:href="#Ubuntu-30" x="56.399994"/>
       <use xlink:href="#Ubuntu-30" x="112.799988"/>
       <use xlink:href="#Ubuntu-38" x="169.199982"/>
      </g>
     </g>
    </g>
    <g id="xtick_7">
     <g id="line2d_12">
      <g>
       <use xlink:href="#m4876e548be" x="185.628406" y="202.211156" style="fill: #cecece; stroke: #cecece; stroke-width: 0.75"/>
      </g>
     </g>
     <g id="text_7">
      <!-- 2009 -->
      <g style="fill: #808080" transform="translate(176.603406 217.418656) scale(0.08 -0.08)">
       <defs>
        <path id="Ubuntu-39" d="M 3206 2662 
Q 3206 1344 2550 669 
Q 1894 -6 602 -13 
L 582 486 
Q 986 486 1309 563 
Q 1632 640 1875 809 
Q 2118 979 2281 1248 
Q 2445 1517 2522 1907 
Q 2355 1830 2144 1782 
Q 1933 1734 1709 1734 
Q 1331 1734 1068 1846 
Q 806 1958 640 2147 
Q 474 2336 400 2582 
Q 326 2829 326 3098 
Q 326 3334 409 3590 
Q 493 3846 662 4057 
Q 832 4269 1094 4403 
Q 1357 4538 1715 4538 
Q 2080 4538 2358 4410 
Q 2637 4282 2825 4038 
Q 3014 3795 3110 3446 
Q 3206 3098 3206 2662 
z
M 1773 2221 
Q 1997 2221 2195 2262 
Q 2394 2304 2579 2387 
Q 2586 2458 2586 2525 
Q 2586 2592 2586 2662 
Q 2586 2938 2547 3190 
Q 2509 3443 2409 3632 
Q 2310 3821 2144 3933 
Q 1978 4045 1722 4045 
Q 1510 4045 1363 3955 
Q 1216 3866 1120 3728 
Q 1024 3590 982 3427 
Q 941 3264 941 3110 
Q 941 2675 1149 2448 
Q 1357 2221 1773 2221 
z
" transform="scale(0.015625)"/>
       </defs>
       <use xlink:href="#Ubuntu-32"/>
       <use xlink:href="#Ubuntu-30" x="56.399994"/>
       <use xlink:href="#Ubuntu-30" x="112.799988"/>
       <use xlink:href="#Ubuntu-39" x="169.199982"/>
      </g>
     </g>
    </g>
    <g id="xtick_8">
     <g id="line2d_13">
      <g>
       <use xlink:href="#m4876e548be" x="211.541718" y="202.211156" style="fill: #cecece; stroke: #cecece; stroke-width: 0.75"/>
      </g>
     </g>
     <g id="text_8">
      <!-- 2010 -->
      <g style="fill: #808080" transform="translate(202.516718 217.418656) scale(0.08 -0.08)">
       <defs>
        <path id="Ubuntu-31" d="M 595 3520 
Q 960 3661 1305 3881 
Q 1651 4102 1939 4435 
L 2362 4435 
L 2362 0 
L 1766 0 
L 1766 3610 
Q 1690 3539 1578 3462 
Q 1466 3386 1334 3315 
Q 1203 3245 1059 3181 
Q 915 3117 781 3072 
L 595 3520 
z
" transform="scale(0.015625)"/>
       </defs>
       <use xlink:href="#Ubuntu-32"/>
       <use xlink:href="#Ubuntu-30" x="56.399994"/>
       <use xlink:href="#Ubuntu-31" x="112.799988"/>
       <use xlink:href="#Ubuntu-30" x="169.199982"/>
      </g>
     </g>
    </g>
    <g id="xtick_9">
     <g id="line2d_14">
      <g>
       <use xlink:href="#m4876e548be" x="237.455031" y="202.211156" style="fill: #cecece; stroke: #cecece; stroke-width: 0.75"/>
      </g>
     </g>
     <g id="text_9">
      <!-- 2011 -->
      <g style="fill: #808080" transform="translate(228.430031 217.418656) scale(0.08 -0.08)">
       <use xlink:href="#Ubuntu-32"/>
       <use xlink:href="#Ubuntu-30" x="56.399994"/>
       <use xlink:href="#Ubuntu-31" x="112.799988"/>
       <use xlink:href="#Ubuntu-31" x="169.199982"/>
      </g>
     </g>
    </g>
    <g id="xtick_10">
     <g id="line2d_15">
      <g>
       <use xlink:href="#m4876e548be" x="263.368344" y="202.211156" style="fill: #cecece; stroke: #cecece; stroke-width: 0.75"/>
      </g>
     </g>
     <g id="text_10">
      <!-- 2012 -->
      <g style="fill: #808080" transform="translate(254.343344 217.418656) scale(0.08 -0.08)">
       <use xlink:href="#Ubuntu-32"/>
       <use xlink:href="#Ubuntu-30" x="56.399994"/>
       <use xlink:href="#Ubuntu-31" x="112.799988"/>
       <use xlink:href="#Ubuntu-32" x="169.199982"/>
      </g>
     </g>
    </g>
    <g id="xtick_11">
     <g id="line2d_16">
      <g>
       <use xlink:href="#m4876e548be" x="289.281656" y="202.211156" style="fill: #cecece; stroke: #cecece; stroke-width: 0.75"/>
      </g>
     </g>
     <g id="text_11">
      <!-- 2013 -->
      <g style="fill: #808080" transform="translate(280.256656 217.418656) scale(0.08 -0.08)">
       <use xlink:href="#Ubuntu-32"/>
       <use xlink:href="#Ubuntu-30" x="56.399994"/>
       <use xlink:href="#Ubuntu-31" x="112.799988"/>
       <use xlink:href="#Ubuntu-33" x="169.199982"/>
      </g>
     </g>
    </g>
    <g id="xtick_12">
     <g id="line2d_17">
      <g>
       <use xlink:href="#m4876e548be" x="315.194969" y="202.211156" style="fill: #cecece; stroke: #cecece; stroke-width: 0.75"/>
      </g>
     </g>
     <g id="text_12">
      <!-- 2014 -->
      <g style="fill: #808080" transform="translate(306.169969 217.418656) scale(0.08 -0.08)">
       <use xlink:href="#Ubuntu-32"/>
       <use xlink:href="#Ubuntu-30" x="56.399994"/>
       <use xlink:href="#Ubuntu-31" x="112.799988"/>
       <use xlink:href="#Ubuntu-34" x="169.199982"/>
      </g>
     </g>
    </g>
    <g id="xtick_13">
     <g id="line2d_18">
      <g>
       <use xlink:href="#m4876e548be" x="341.108282" y="202.211156" style="fill: #cecece; stroke: #cecece; stroke-width: 0.75"/>
      </g>
     </g>
     <g id="text_13">
      <!-- 2015 -->
      <g style="fill: #808080" transform="translate(332.083282 217.418656) scale(0.08 -0.08)">
       <use xlink:href="#Ubuntu-32"/>
       <use xlink:href="#Ubuntu-30" x="56.399994"/>
       <use xlink:href="#Ubuntu-31" x="112.799988"/>
       <use xlink:href="#Ubuntu-35" x="169.199982"/>
      </g>
     </g>
    </g>
    <g id="xtick_14">
     <g id="line2d_19">
      <g>
       <use xlink:href="#m4876e548be" x="367.021594" y="202.211156" style="fill: #cecece; stroke: #cecece; stroke-width: 0.75"/>
      </g>
     </g>
     <g id="text_14">
      <!-- 2016 -->
      <g style="fill: #808080" transform="translate(357.996594 217.418656) scale(0.08 -0.08)">
       <use xlink:href="#Ubuntu-32"/>
       <use xlink:href="#Ubuntu-30" x="56.399994"/>
       <use xlink:href="#Ubuntu-31" x="112.799988"/>
       <use xlink:href="#Ubuntu-36" x="169.199982"/>
      </g>
     </g>
    </g>
    <g id="xtick_15">
     <g id="line2d_20">
      <g>
       <use xlink:href="#m4876e548be" x="392.934907" y="202.211156" style="fill: #cecece; stroke: #cecece; stroke-width: 0.75"/>
      </g>
     </g>
     <g id="text_15">
      <!-- 2017 -->
      <g style="fill: #808080" transform="translate(383.909907 217.418656) scale(0.08 -0.08)">
       <use xlink:href="#Ubuntu-32"/>
       <use xlink:href="#Ubuntu-30" x="56.399994"/>
       <use xlink:href="#Ubuntu-31" x="112.799988"/>
       <use xlink:href="#Ubuntu-37" x="169.199982"/>
      </g>
     </g>
    </g>
    <g id="xtick_16">
     <g id="line2d_21">
      <g>
       <use xlink:href="#m4876e548be" x="418.84822" y="202.211156" style="fill: #cecece; stroke: #cecece; stroke-width: 0.75"/>
      </g>
     </g>
     <g id="text_16">
      <!-- 2018 -->
      <g style="fill: #808080" transform="translate(409.82322 217.418656) scale(0.08 -0.08)">
       <use xlink:href="#Ubuntu-32"/>
       <use xlink:href="#Ubuntu-30" x="56.399994"/>
       <use xlink:href="#Ubuntu-31" x="112.799988"/>
       <use xlink:href="#Ubuntu-38" x="169.199982"/>
      </g>
     </g>
    </g>
    <g id="xtick_17">
     <g id="line2d_22">
      <g>
       <use xlink:href="#m4876e548be" x="444.761533" y="202.211156" style="fill: #cecece; stroke: #cecece; stroke-width: 0.75"/>
      </g>
     </g>
     <g id="text_17">
      <!-- 2019 -->
      <g style="fill: #808080" transform="translate(435.736533 217.418656) scale(0.08 -0.08)">
       <use xlink:href="#Ubuntu-32"/>
       <use xlink:href="#Ubuntu-30" x="56.399994"/>
       <use xlink:href="#Ubuntu-31" x="112.799988"/>
       <use xlink:href="#Ubuntu-39" x="169.199982"/>
      </g>
     </g>
    </g>
    <g id="xtick_18">
     <g id="line2d_23">
      <g>
       <use xlink:href="#m4876e548be" x="470.674845" y="202.211156" style="fill: #cecece; stroke: #cecece; stroke-width: 0.75"/>
      </g>
     </g>
     <g id="text_18">
      <!-- 2020 -->
      <g style="fill: #808080" transform="translate(461.649845 217.418656) scale(0.08 -0.08)">
       <use xlink:href="#Ubuntu-32"/>
       <use xlink:href="#Ubuntu-30" x="56.399994"/>
       <use xlink:href="#Ubuntu-32" x="112.799988"/>
       <use xlink:href="#Ubuntu-30" x="169.199982"/>
      </g>
     </g>
    </g>
    <g id="xtick_19">
     <g id="line2d_24">
      <g>
       <use xlink:href="#m4876e548be" x="496.588158" y="202.211156" style="fill: #cecece; stroke: #cecece; stroke-width: 0.75"/>
      </g>
     </g>
     <g id="text_19">
      <!-- 2021 -->
      <g style="fill: #808080" transform="translate(487.563158 217.418656) scale(0.08 -0.08)">
       <use xlink:href="#Ubuntu-32"/>
       <use xlink:href="#Ubuntu-30" x="56.399994"/>
       <use xlink:href="#Ubuntu-32" x="112.799988"/>
       <use xlink:href="#Ubuntu-31" x="169.199982"/>
      </g>
     </g>
    </g>
    <g id="xtick_20">
     <g id="line2d_25">
      <g>
       <use xlink:href="#m4876e548be" x="522.501471" y="202.211156" style="fill: #cecece; stroke: #cecece; stroke-width: 0.75"/>
      </g>
     </g>
     <g id="text_20">
      <!-- 2022 -->
      <g style="fill: #808080" transform="translate(513.476471 217.418656) scale(0.08 -0.08)">
       <use xlink:href="#Ubuntu-32"/>
       <use xlink:href="#Ubuntu-30" x="56.399994"/>
       <use xlink:href="#Ubuntu-32" x="112.799988"/>
       <use xlink:href="#Ubuntu-32" x="169.199982"/>
      </g>
     </g>
    </g>
   </g>
   <g id="matplotlib.axis_2">
    <g id="ytick_1">
     <g id="line2d_26">
      <defs>
       <path id="m8fd7774388" d="M 0 0 
L -3 0 
" style="stroke: #cecece; stroke-width: 0.75"/>
      </defs>
      <g>
       <use xlink:href="#m8fd7774388" x="25.225" y="195.814233" style="fill: #cecece; stroke: #cecece; stroke-width: 0.75"/>
      </g>
     </g>
     <g id="text_21">
      <!-- 20 -->
      <g style="fill: #808080" transform="translate(7.2 198.917983) scale(0.08 -0.08)">
       <use xlink:href="#Ubuntu-32"/>
       <use xlink:href="#Ubuntu-30" x="56.399994"/>
      </g>
     </g>
    </g>
    <g id="ytick_2">
     <g id="line2d_27">
      <g>
       <use xlink:href="#m8fd7774388" x="25.225" y="163.829618" style="fill: #cecece; stroke: #cecece; stroke-width: 0.75"/>
      </g>
     </g>
     <g id="text_22">
      <!-- 25 -->
      <g style="fill: #808080" transform="translate(7.2 166.933368) scale(0.08 -0.08)">
       <use xlink:href="#Ubuntu-32"/>
       <use xlink:href="#Ubuntu-35" x="56.399994"/>
      </g>
     </g>
    </g>
    <g id="ytick_3">
     <g id="line2d_28">
      <g>
       <use xlink:href="#m8fd7774388" x="25.225" y="131.845002" style="fill: #cecece; stroke: #cecece; stroke-width: 0.75"/>
      </g>
     </g>
     <g id="text_23">
      <!-- 30 -->
      <g style="fill: #808080" transform="translate(7.2 134.948752) scale(0.08 -0.08)">
       <use xlink:href="#Ubuntu-33"/>
       <use xlink:href="#Ubuntu-30" x="56.399994"/>
      </g>
     </g>
    </g>
    <g id="ytick_4">
     <g id="line2d_29">
      <g>
       <use xlink:href="#m8fd7774388" x="25.225" y="99.860387" style="fill: #cecece; stroke: #cecece; stroke-width: 0.75"/>
      </g>
     </g>
     <g id="text_24">
      <!-- 35 -->
      <g style="fill: #808080" transform="translate(7.2 102.964137) scale(0.08 -0.08)">
       <use xlink:href="#Ubuntu-33"/>
       <use xlink:href="#Ubuntu-35" x="56.399994"/>
      </g>
     </g>
    </g>
    <g id="ytick_5">
     <g id="line2d_30">
      <g>
       <use xlink:href="#m8fd7774388" x="25.225" y="67.875772" style="fill: #cecece; stroke: #cecece; stroke-width: 0.75"/>
      </g>
     </g>
     <g id="text_25">
      <!-- 40 -->
      <g style="fill: #808080" transform="translate(7.2 70.979522) scale(0.08 -0.08)">
       <use xlink:href="#Ubuntu-34"/>
       <use xlink:href="#Ubuntu-30" x="56.399994"/>
      </g>
     </g>
    </g>
    <g id="ytick_6">
     <g id="line2d_31">
      <g>
       <use xlink:href="#m8fd7774388" x="25.225" y="35.891156" style="fill: #cecece; stroke: #cecece; stroke-width: 0.75"/>
      </g>
     </g>
     <g id="text_26">
      <!-- 45 -->
      <g style="fill: #808080" transform="translate(7.2 38.994906) scale(0.08 -0.08)">
       <use xlink:href="#Ubuntu-34"/>
       <use xlink:href="#Ubuntu-35" x="56.399994"/>
      </g>
     </g>
    </g>
   </g>
   <g id="line2d_32">
    <path d="M 30.148529 53.685989 
L 31.795195 53.245532 
L 33.44186 53.001627 
L 35.088525 52.94448 
L 36.735191 53.064295 
L 38.381856 53.351275 
L 40.028522 53.795625 
L 41.675187 54.387549 
L 43.321852 55.117251 
L 46.615183 56.950807 
L 49.908514 59.217927 
L 53.201844 61.840245 
L 56.495175 64.739394 
L 61.435171 69.43575 
L 72.961829 80.644788 
L 76.255159 83.559234 
L 79.54849 86.201946 
L 82.841821 88.495118 
L 86.135151 90.42035 
L 89.428482 92.070543 
L 94.368478 94.260122 
L 100.95514 97.198199 
L 104.24847 98.911783 
L 107.541801 100.928578 
L 110.835132 103.325521 
L 114.128463 106.024539 
L 125.65512 115.957663 
L 128.948451 118.393959 
L 132.241781 120.411368 
L 133.888447 121.222024 
L 135.535112 121.883333 
L 137.181777 122.39894 
L 138.828443 122.775796 
L 140.475108 123.02085 
L 142.121774 123.141053 
L 145.415104 123.034712 
L 148.708435 122.512377 
L 152.001766 121.629654 
L 155.295096 120.44215 
L 158.588427 119.005468 
L 163.528423 116.514244 
L 171.76175 112.174407 
L 175.055081 110.64038 
L 178.348411 109.359441 
L 181.641742 108.423401 
L 183.288407 108.113408 
L 184.935073 107.924068 
L 186.581738 107.86584 
L 189.875069 108.104811 
L 193.1684 108.685551 
L 203.048392 110.88024 
L 206.341722 111.229912 
L 207.988388 111.243249 
L 209.635053 111.122282 
L 211.281718 110.847037 
L 212.928384 110.402334 
L 214.575049 109.804028 
L 217.86838 108.259444 
L 222.808376 105.496136 
L 226.101707 103.685697 
L 229.395037 102.164179 
L 231.041703 101.582349 
L 232.688368 101.157448 
L 234.335033 100.917711 
L 235.981699 100.89137 
L 237.628364 101.106648 
L 239.27503 101.579102 
L 240.921695 102.287233 
L 242.56836 103.2028 
L 244.215026 104.297563 
L 247.508356 106.911713 
L 250.801687 109.903757 
L 257.388348 116.117822 
L 260.681679 118.88799 
L 262.328344 120.090015 
L 263.97501 121.132694 
L 265.621675 122.004536 
L 267.268341 122.717208 
L 268.915006 123.284128 
L 270.561671 123.718714 
L 273.855002 124.244549 
L 277.148333 124.402052 
L 280.441663 124.298561 
L 287.028325 123.737946 
L 291.968321 123.412848 
L 300.201648 123.008886 
L 303.494978 122.639312 
L 306.788309 122.015945 
L 310.08164 121.048824 
L 311.728305 120.408243 
L 313.37497 119.647988 
L 315.021636 118.756814 
L 318.314967 116.570562 
L 321.608297 113.951885 
L 326.548293 109.538548 
L 333.134955 103.529328 
L 336.428285 100.806028 
L 339.721616 98.46866 
L 341.368282 97.49118 
L 343.014947 96.659138 
L 344.661612 95.967193 
L 346.308278 95.407362 
L 347.954943 94.97166 
L 351.248274 94.440705 
L 354.541604 94.310451 
L 357.834935 94.517022 
L 361.128266 94.99654 
L 364.421596 95.68513 
L 369.361593 96.972307 
L 377.594919 99.438455 
L 385.828246 101.891067 
L 390.768242 103.15989 
L 395.708238 104.159749 
L 402.2949 105.162181 
L 410.528226 106.39918 
L 415.468223 107.411895 
L 418.761553 108.296654 
L 423.701549 109.961468 
L 430.288211 112.228096 
L 433.581541 113.093745 
L 436.874872 113.61043 
L 438.521537 113.697945 
L 440.168203 113.650259 
L 441.814868 113.451386 
L 443.461534 113.08534 
L 445.108199 112.536199 
L 446.754864 111.799954 
L 448.40153 110.898412 
L 451.69486 108.700164 
L 454.988191 106.142907 
L 463.221518 99.501147 
L 466.514849 97.273813 
L 468.161514 96.352881 
L 469.808179 95.594014 
L 471.454845 95.021676 
L 473.10151 94.641575 
L 474.748175 94.43933 
L 476.394841 94.399577 
L 478.041506 94.506949 
L 479.688171 94.74608 
L 482.981502 95.558157 
L 486.274833 96.712883 
L 491.214829 98.818538 
L 497.80149 101.678039 
L 501.094821 102.853475 
L 504.388152 103.695468 
L 506.034817 103.953009 
L 507.681482 104.081091 
L 509.328148 104.06435 
L 510.974813 103.887418 
L 512.621478 103.534932 
L 514.268144 102.991524 
L 515.914809 102.24183 
L 517.561475 101.270482 
L 519.20814 100.062117 
L 520.854805 98.601367 
L 522.501471 96.872868 
L 522.501471 96.872868 
" clip-path="url(#p2ad323c055)" style="fill: none; stroke: #616161; stroke-width: 1.2; stroke-linecap: square"/>
   </g>
   <g id="line2d_33">
    <path d="M 30.148529 97.426618 
L 31.795195 98.365562 
L 33.44186 99.12126 
L 35.088525 99.703568 
L 36.735191 100.12234 
L 38.381856 100.387429 
L 40.028522 100.508689 
L 41.675187 100.495974 
L 43.321852 100.359138 
L 46.615183 99.752519 
L 49.908514 98.767664 
L 53.201844 97.483404 
L 56.495175 95.97857 
L 63.081837 92.622506 
L 69.668498 89.330125 
L 72.961829 87.904894 
L 76.255159 86.732077 
L 79.54849 85.890507 
L 82.841821 85.458306 
L 86.135151 85.438047 
L 89.428482 85.690768 
L 97.661809 86.50282 
L 100.95514 86.494124 
L 102.601805 86.341048 
L 104.24847 86.063067 
L 105.895136 85.640865 
L 107.541801 85.055127 
L 109.188466 84.289985 
L 110.835132 83.355918 
L 114.128463 81.07164 
L 117.421793 78.383882 
L 128.948451 68.421962 
L 132.241781 66.16652 
L 133.888447 65.250802 
L 135.535112 64.501236 
L 137.181777 63.916413 
L 138.828443 63.490943 
L 140.475108 63.219434 
L 142.121774 63.096498 
L 143.768439 63.116744 
L 145.415104 63.274781 
L 147.06177 63.565219 
L 148.708435 63.982669 
L 152.001766 65.177039 
L 155.295096 66.81477 
L 158.588427 68.852738 
L 161.881758 71.243657 
L 166.821754 75.2687 
L 173.408415 80.768647 
L 176.701746 83.281177 
L 179.995077 85.460869 
L 181.641742 86.384993 
L 183.288407 87.176818 
L 184.935073 87.819981 
L 186.581738 88.299136 
L 188.228404 88.615532 
L 189.875069 88.783917 
L 191.521734 88.819428 
L 194.815065 88.55239 
L 198.108396 87.935529 
L 203.048392 86.619255 
L 209.635053 84.770227 
L 212.928384 84.075485 
L 216.221715 83.607816 
L 221.161711 83.178471 
L 229.395037 82.558024 
L 232.688368 82.122421 
L 235.981699 81.466205 
L 239.27503 80.518201 
L 242.56836 79.289028 
L 247.508356 77.098002 
L 257.388348 72.508977 
L 260.681679 71.22707 
L 263.97501 70.209397 
L 267.268341 69.502135 
L 270.561671 69.062873 
L 273.855002 68.836598 
L 278.794998 68.776189 
L 293.614986 68.92675 
L 298.554982 68.923359 
L 301.848313 69.101882 
L 305.141644 69.532647 
L 308.434974 70.307892 
L 310.08164 70.853521 
L 311.728305 71.519859 
L 313.37497 72.318439 
L 315.021636 73.260788 
L 316.668301 74.354954 
L 319.961632 76.947763 
L 323.254963 79.962176 
L 328.194959 84.965301 
L 334.78162 91.79334 
L 338.074951 94.956903 
L 341.368282 97.765163 
L 344.661612 100.108006 
L 347.954943 101.973726 
L 351.248274 103.370015 
L 354.541604 104.304565 
L 357.834935 104.785067 
L 361.128266 104.819213 
L 364.421596 104.414694 
L 367.714927 103.579361 
L 371.008258 102.350789 
L 374.301589 100.830944 
L 379.241585 98.246515 
L 385.828246 94.811445 
L 389.121577 93.346927 
L 392.414908 92.198273 
L 395.708238 91.458416 
L 399.001569 91.107407 
L 402.2949 91.080383 
L 405.58823 91.312366 
L 408.881561 91.73838 
L 415.468223 92.912585 
L 422.054884 94.092564 
L 428.641545 94.997701 
L 433.581541 95.469861 
L 438.521537 95.749961 
L 443.461534 95.824595 
L 448.40153 95.689861 
L 463.221518 95.039879 
L 468.161514 95.171252 
L 471.454845 95.466927 
L 474.748175 95.950344 
L 479.688171 96.956341 
L 486.274833 98.626022 
L 496.154825 101.227668 
L 501.094821 102.299278 
L 504.388152 102.84326 
L 507.681482 103.20736 
L 510.974813 103.354256 
L 514.268144 103.246626 
L 517.561475 102.847146 
L 520.854805 102.118496 
L 522.501471 101.619068 
L 522.501471 101.619068 
" clip-path="url(#p2ad323c055)" style="fill: none; stroke: #6aa894; stroke-width: 1.2; stroke-linecap: square"/>
   </g>
   <g id="line2d_34">
    <path d="M 30.148529 197.196729 
L 33.44186 196.476805 
L 36.735191 195.558113 
L 40.028522 194.456582 
L 44.968518 192.496306 
L 49.908514 190.214239 
L 54.84851 187.664142 
L 61.435171 183.939991 
L 69.668498 178.943252 
L 87.781817 167.793763 
L 92.721813 165.033946 
L 97.661809 162.561114 
L 100.95514 161.118769 
L 104.24847 159.874135 
L 107.541801 158.855275 
L 110.835132 158.082443 
L 114.128463 157.532947 
L 117.421793 157.169421 
L 122.361789 156.89106 
L 128.948451 156.821935 
L 138.828443 156.772173 
L 145.415104 156.480246 
L 150.3551 156.044119 
L 155.295096 155.371145 
L 160.235092 154.415732 
L 165.175089 153.167621 
L 171.76175 151.212364 
L 183.288407 147.734934 
L 188.228404 146.513889 
L 191.521734 145.88032 
L 194.815065 145.440985 
L 198.108396 145.238894 
L 201.401726 145.317058 
L 204.695057 145.718488 
L 207.988388 146.486194 
L 211.281718 147.663187 
L 214.575049 149.267051 
L 217.86838 151.186372 
L 227.748372 157.314775 
L 231.041703 158.973591 
L 232.688368 159.645367 
L 234.335033 160.186682 
L 235.981699 160.578506 
L 237.628364 160.801816 
L 239.27503 160.84588 
L 240.921695 160.724223 
L 242.56836 160.454784 
L 245.861691 159.544317 
L 249.155022 158.25799 
L 254.095018 155.937692 
L 259.035014 153.578959 
L 262.328344 152.224304 
L 265.621675 151.200612 
L 268.915006 150.523522 
L 272.208337 150.136566 
L 275.501667 149.98222 
L 280.441663 150.061012 
L 298.554982 150.858876 
L 313.37497 151.160932 
L 321.608297 151.650232 
L 328.194959 151.993167 
L 333.134955 151.999213 
L 336.428285 151.803773 
L 339.721616 151.399061 
L 343.014947 150.746533 
L 346.308278 149.87368 
L 352.894939 147.793426 
L 357.834935 146.266433 
L 361.128266 145.419451 
L 364.421596 144.805851 
L 367.714927 144.508148 
L 371.008258 144.560126 
L 374.301589 144.890007 
L 379.241585 145.718679 
L 387.474911 147.276852 
L 390.768242 147.712466 
L 394.061573 147.913157 
L 397.354904 147.832832 
L 400.648234 147.484156 
L 403.941565 146.884685 
L 407.234896 146.051979 
L 410.528226 145.003594 
L 413.821557 143.757089 
L 417.114888 142.330023 
L 422.054884 139.907882 
L 426.99488 137.446108 
L 430.288211 136.012086 
L 433.581541 134.905358 
L 435.228207 134.518007 
L 436.874872 134.264413 
L 438.521537 134.161885 
L 440.168203 134.227735 
L 441.814868 134.479274 
L 443.461534 134.933812 
L 445.108199 135.608583 
L 446.754864 136.506362 
L 448.40153 137.598606 
L 451.69486 140.235927 
L 454.988191 143.259423 
L 461.574852 149.420447 
L 464.868183 152.03573 
L 466.514849 153.112824 
L 468.161514 153.992697 
L 469.808179 154.642712 
L 471.454845 155.031204 
L 473.10151 155.15204 
L 474.748175 155.026434 
L 476.394841 154.676937 
L 478.041506 154.126102 
L 479.688171 153.396483 
L 481.334837 152.510632 
L 484.628167 150.360446 
L 487.921498 147.855968 
L 497.80149 140.021011 
L 501.094821 137.903596 
L 502.741486 137.039045 
L 504.388152 136.334003 
L 506.034817 135.811023 
L 507.681482 135.492657 
L 509.328148 135.401459 
L 510.974813 135.559981 
L 512.621478 135.990777 
L 514.268144 136.716398 
L 515.914809 137.759399 
L 517.561475 139.142331 
L 519.20814 140.887748 
L 520.854805 143.018203 
L 522.501471 145.556248 
L 522.501471 145.556248 
" clip-path="url(#p2ad323c055)" style="fill: none; stroke: #6b95b7; stroke-width: 1.2; stroke-linecap: square"/>
   </g>
   <g id="patch_3">
    <path d="M 25.225 195.814233 
L 25.225 35.891156 
" style="fill: none; stroke: #cccccc; stroke-width: 0.75; stroke-linejoin: miter; stroke-linecap: square"/>
   </g>
   <g id="patch_4">
    <path d="M 30.148529 202.211156 
L 522.501471 202.211156 
" style="fill: none; stroke: #cccccc; stroke-width: 0.75; stroke-linejoin: miter; stroke-linecap: square"/>
   </g>
   <g id="text_27">
    <!-- Мировой финансовый кризис -->
    <g style="fill: #4b4b4b" transform="translate(136.911378 51.048752) scale(0.08 -0.08)">
     <defs>
      <path id="Ubuntu-BoldItalic-41c" d="M 2662 4435 
Q 2701 4262 2761 3945 
Q 2822 3629 2889 3248 
Q 2957 2867 3027 2467 
Q 3098 2067 3155 1734 
Q 3373 2067 3629 2451 
Q 3885 2835 4134 3206 
Q 4384 3578 4608 3901 
Q 4832 4224 4992 4435 
L 5875 4435 
Q 5830 3994 5756 3443 
Q 5683 2893 5590 2304 
Q 5498 1715 5395 1120 
Q 5293 525 5190 0 
L 4218 0 
Q 4352 653 4502 1411 
Q 4653 2170 4781 2944 
Q 4614 2682 4409 2358 
Q 4205 2035 4000 1705 
Q 3795 1376 3603 1075 
Q 3411 774 3270 563 
L 2541 563 
Q 2509 755 2464 1049 
Q 2419 1344 2364 1673 
Q 2310 2003 2252 2339 
Q 2195 2675 2144 2944 
Q 1894 2170 1692 1411 
Q 1491 653 1318 0 
L 352 0 
Q 499 525 675 1120 
Q 851 1715 1040 2307 
Q 1229 2899 1414 3449 
Q 1600 4000 1766 4435 
L 2662 4435 
z
" transform="scale(0.015625)"/>
      <path id="Ubuntu-BoldItalic-438" d="M 3974 3366 
L 3520 1453 
Q 3430 1088 3468 720 
Q 3507 352 3616 64 
L 2765 -58 
Q 2694 83 2630 256 
Q 2451 115 2227 19 
Q 2003 -77 1728 -77 
Q 1350 -77 1116 60 
Q 883 198 768 425 
Q 653 653 643 947 
Q 634 1242 710 1549 
L 1146 3366 
L 2099 3366 
L 1670 1562 
Q 1638 1421 1616 1273 
Q 1594 1126 1613 1001 
Q 1632 877 1712 797 
Q 1792 717 1965 717 
Q 2112 717 2237 771 
Q 2362 826 2502 960 
Q 2515 1120 2544 1296 
Q 2573 1472 2605 1619 
L 3021 3366 
L 3974 3366 
z
" transform="scale(0.015625)"/>
      <path id="Ubuntu-BoldItalic-440" d="M 1568 742 
Q 1677 717 1837 717 
Q 2086 717 2291 809 
Q 2496 902 2640 1068 
Q 2784 1235 2864 1468 
Q 2944 1702 2944 1984 
Q 2944 2259 2822 2451 
Q 2701 2643 2400 2643 
Q 2195 2643 2016 2605 
L 1568 742 
z
M 3891 2054 
Q 3891 1587 3737 1200 
Q 3584 813 3312 531 
Q 3040 250 2659 93 
Q 2278 -64 1830 -64 
Q 1613 -64 1395 -26 
L 1107 -1184 
L 160 -1184 
L 1222 3245 
Q 1478 3322 1808 3382 
Q 2138 3443 2522 3443 
Q 2880 3443 3139 3334 
Q 3398 3226 3564 3037 
Q 3731 2848 3811 2595 
Q 3891 2342 3891 2054 
z
" transform="scale(0.015625)"/>
      <path id="Ubuntu-BoldItalic-43e" d="M 1971 -90 
Q 1632 -90 1382 12 
Q 1133 115 969 300 
Q 806 486 723 739 
Q 640 992 640 1299 
Q 640 1683 765 2067 
Q 890 2451 1133 2758 
Q 1376 3066 1728 3261 
Q 2080 3456 2534 3456 
Q 2867 3456 3120 3353 
Q 3373 3251 3536 3065 
Q 3699 2880 3782 2627 
Q 3866 2374 3866 2067 
Q 3866 1683 3744 1299 
Q 3622 915 3385 608 
Q 3149 301 2793 105 
Q 2438 -90 1971 -90 
z
M 2445 2650 
Q 2234 2650 2074 2528 
Q 1914 2406 1805 2220 
Q 1696 2035 1641 1814 
Q 1587 1594 1587 1395 
Q 1587 1069 1689 893 
Q 1792 717 2061 717 
Q 2272 717 2432 838 
Q 2592 960 2701 1145 
Q 2810 1331 2864 1552 
Q 2918 1773 2918 1971 
Q 2918 2298 2816 2474 
Q 2714 2650 2445 2650 
z
" transform="scale(0.015625)"/>
      <path id="Ubuntu-BoldItalic-432" d="M 1485 704 
Q 1574 685 1699 675 
Q 1824 666 1914 666 
Q 2048 666 2179 688 
Q 2310 710 2416 761 
Q 2522 813 2589 905 
Q 2656 998 2656 1133 
Q 2656 1286 2509 1347 
Q 2362 1408 2086 1408 
L 1658 1408 
L 1485 704 
z
M 2170 2048 
Q 2541 2048 2688 2163 
Q 2835 2278 2835 2406 
Q 2835 2554 2732 2627 
Q 2630 2701 2496 2701 
Q 2189 2701 2045 2553 
Q 1901 2406 1837 2150 
L 1811 2048 
L 2170 2048 
z
M 877 2048 
Q 966 2419 1126 2681 
Q 1286 2944 1504 3113 
Q 1722 3283 1984 3360 
Q 2246 3437 2547 3437 
Q 3091 3437 3408 3206 
Q 3725 2976 3725 2592 
Q 3725 2323 3549 2076 
Q 3373 1830 3066 1734 
Q 3302 1651 3430 1462 
Q 3558 1274 3558 1043 
Q 3558 851 3475 652 
Q 3392 454 3184 294 
Q 2976 134 2621 32 
Q 2266 -70 1728 -70 
Q 1421 -70 1101 -25 
Q 781 19 416 115 
L 877 2048 
z
" transform="scale(0.015625)"/>
      <path id="Ubuntu-BoldItalic-439" d="M 3974 3366 
L 3520 1453 
Q 3430 1088 3468 720 
Q 3507 352 3616 64 
L 2765 -58 
Q 2694 83 2630 256 
Q 2451 115 2227 19 
Q 2003 -77 1728 -77 
Q 1350 -77 1116 60 
Q 883 198 768 425 
Q 653 653 643 947 
Q 634 1242 710 1549 
L 1146 3366 
L 2099 3366 
L 1670 1562 
Q 1638 1421 1616 1273 
Q 1594 1126 1613 1001 
Q 1632 877 1712 797 
Q 1792 717 1965 717 
Q 2112 717 2237 771 
Q 2362 826 2502 960 
Q 2515 1120 2544 1296 
Q 2573 1472 2605 1619 
L 3021 3366 
L 3974 3366 
z
M 2611 3827 
Q 2413 3827 2243 3888 
Q 2074 3949 1949 4067 
Q 1824 4186 1747 4355 
Q 1670 4525 1664 4742 
L 2336 4909 
Q 2342 4666 2451 4566 
Q 2560 4467 2720 4467 
Q 2886 4467 3017 4556 
Q 3149 4646 3264 4902 
L 3866 4698 
Q 3712 4250 3392 4038 
Q 3072 3827 2611 3827 
z
" transform="scale(0.015625)"/>
      <path id="Ubuntu-BoldItalic-20" transform="scale(0.015625)"/>
      <path id="Ubuntu-BoldItalic-444" d="M 640 1440 
Q 640 1901 819 2256 
Q 998 2611 1299 2860 
Q 1600 3110 2000 3254 
Q 2400 3398 2842 3437 
L 3174 4806 
L 4141 4966 
L 3763 3398 
Q 4045 3341 4291 3222 
Q 4538 3104 4720 2921 
Q 4902 2739 5004 2480 
Q 5107 2221 5107 1888 
Q 5107 1542 4963 1200 
Q 4819 858 4540 579 
Q 4262 301 3849 121 
Q 3437 -58 2906 -70 
L 2637 -1184 
L 1734 -1184 
L 2003 -51 
Q 1318 64 979 470 
Q 640 877 640 1440 
z
M 3059 614 
Q 3283 634 3478 742 
Q 3674 851 3818 1020 
Q 3962 1190 4045 1411 
Q 4128 1632 4128 1875 
Q 4128 1997 4093 2118 
Q 4058 2240 3987 2345 
Q 3917 2451 3808 2528 
Q 3699 2605 3546 2637 
L 3059 614 
z
M 1606 1440 
Q 1606 1318 1641 1196 
Q 1677 1075 1747 969 
Q 1818 864 1926 787 
Q 2035 710 2189 678 
L 2669 2701 
Q 2419 2669 2224 2557 
Q 2029 2445 1891 2275 
Q 1754 2106 1680 1891 
Q 1606 1677 1606 1440 
z
" transform="scale(0.015625)"/>
      <path id="Ubuntu-BoldItalic-43d" d="M 3347 0 
L 2394 0 
L 2714 1331 
L 1722 1331 
L 1402 0 
L 448 0 
L 1261 3366 
L 2214 3366 
L 1914 2112 
L 2906 2112 
L 3206 3366 
L 4160 3366 
L 3347 0 
z
" transform="scale(0.015625)"/>
      <path id="Ubuntu-BoldItalic-430" d="M 3603 1453 
Q 3514 1088 3552 720 
Q 3590 352 3699 64 
L 2848 -58 
Q 2810 19 2778 89 
Q 2746 160 2714 250 
Q 2534 102 2316 6 
Q 2099 -90 1830 -90 
Q 1510 -90 1283 22 
Q 1056 134 912 323 
Q 768 512 704 765 
Q 640 1018 640 1306 
Q 640 1747 797 2137 
Q 954 2528 1232 2819 
Q 1510 3110 1888 3276 
Q 2266 3443 2707 3443 
Q 2765 3443 2909 3436 
Q 3053 3430 3238 3408 
Q 3424 3386 3629 3334 
Q 3834 3283 4019 3194 
L 3603 1453 
z
M 2938 2630 
Q 2854 2643 2787 2649 
Q 2720 2656 2624 2656 
Q 2406 2656 2217 2547 
Q 2029 2438 1888 2262 
Q 1747 2086 1667 1856 
Q 1587 1626 1587 1376 
Q 1587 1069 1689 889 
Q 1792 710 2067 710 
Q 2214 710 2332 768 
Q 2451 826 2586 960 
Q 2598 1120 2627 1296 
Q 2656 1472 2688 1619 
L 2938 2630 
z
" transform="scale(0.015625)"/>
      <path id="Ubuntu-BoldItalic-441" d="M 640 1344 
Q 640 1779 781 2163 
Q 922 2547 1184 2835 
Q 1446 3123 1820 3289 
Q 2195 3456 2656 3456 
Q 2944 3456 3171 3401 
Q 3398 3347 3584 3258 
L 3258 2515 
Q 3130 2566 2992 2608 
Q 2854 2650 2656 2650 
Q 2176 2650 1901 2326 
Q 1626 2003 1626 1446 
Q 1626 1120 1766 918 
Q 1907 717 2285 717 
Q 2470 717 2643 755 
Q 2816 794 2950 851 
L 3021 90 
Q 2842 19 2627 -35 
Q 2413 -90 2106 -90 
Q 1709 -90 1433 25 
Q 1158 141 979 336 
Q 800 531 720 793 
Q 640 1056 640 1344 
z
" transform="scale(0.015625)"/>
      <path id="Ubuntu-BoldItalic-44b" d="M 2125 1504 
Q 2016 1504 1904 1491 
Q 1792 1478 1722 1459 
L 1542 691 
Q 1632 678 1728 672 
Q 1824 666 1920 666 
Q 2291 666 2480 794 
Q 2669 922 2669 1146 
Q 2669 1504 2125 1504 
z
M 1229 3366 
L 2182 3366 
L 1894 2170 
Q 2170 2221 2406 2221 
Q 2976 2221 3273 1955 
Q 3571 1690 3571 1210 
Q 3571 941 3462 707 
Q 3354 474 3133 301 
Q 2912 128 2576 29 
Q 2240 -70 1779 -70 
Q 1158 -70 448 102 
L 1229 3366 
z
M 4800 0 
L 3853 0 
L 4653 3366 
L 5606 3366 
L 4800 0 
z
" transform="scale(0.015625)"/>
      <path id="Ubuntu-BoldItalic-43a" d="M 1914 2150 
Q 2086 2304 2265 2467 
Q 2445 2630 2614 2793 
Q 2784 2957 2931 3104 
Q 3078 3251 3194 3366 
L 4346 3366 
Q 3987 2970 3590 2586 
Q 3194 2202 2662 1779 
Q 2797 1613 2934 1395 
Q 3072 1178 3197 938 
Q 3322 698 3427 458 
Q 3533 218 3603 0 
L 2541 0 
Q 2483 166 2396 364 
Q 2310 563 2204 758 
Q 2099 954 1984 1139 
Q 1869 1325 1754 1472 
L 1395 0 
L 448 0 
L 1254 3366 
L 2208 3366 
L 1914 2150 
z
" transform="scale(0.015625)"/>
      <path id="Ubuntu-BoldItalic-437" d="M 960 3258 
Q 1222 3347 1510 3395 
Q 1798 3443 2067 3443 
Q 2362 3443 2576 3376 
Q 2790 3309 2931 3197 
Q 3072 3085 3142 2937 
Q 3213 2790 3213 2630 
Q 3213 2387 3053 2147 
Q 2893 1907 2586 1760 
Q 2790 1658 2899 1478 
Q 3008 1299 3008 1088 
Q 3008 774 2864 550 
Q 2720 326 2483 185 
Q 2246 45 1952 -22 
Q 1658 -90 1350 -90 
Q 1043 -90 758 -26 
Q 474 38 256 147 
L 538 883 
Q 678 800 915 745 
Q 1152 691 1395 691 
Q 1530 691 1651 710 
Q 1773 730 1865 778 
Q 1958 826 2012 899 
Q 2067 973 2067 1082 
Q 2067 1248 1932 1302 
Q 1798 1357 1613 1357 
L 1056 1357 
L 1216 2035 
L 1779 2035 
Q 2048 2035 2163 2153 
Q 2278 2272 2278 2419 
Q 2278 2560 2150 2611 
Q 2022 2662 1837 2662 
Q 1722 2662 1594 2646 
Q 1466 2630 1354 2611 
Q 1242 2592 1149 2569 
Q 1056 2547 1011 2534 
L 960 3258 
z
" transform="scale(0.015625)"/>
     </defs>
     <use xlink:href="#Ubuntu-BoldItalic-41c"/>
     <use xlink:href="#Ubuntu-BoldItalic-438" x="87.799988"/>
     <use xlink:href="#Ubuntu-BoldItalic-440" x="145.899979"/>
     <use xlink:href="#Ubuntu-BoldItalic-43e" x="203.699966"/>
     <use xlink:href="#Ubuntu-BoldItalic-432" x="261.09996"/>
     <use xlink:href="#Ubuntu-BoldItalic-43e" x="316.299957"/>
     <use xlink:href="#Ubuntu-BoldItalic-439" x="373.699951"/>
     <use xlink:href="#Ubuntu-BoldItalic-20" x="431.799942"/>
     <use xlink:href="#Ubuntu-BoldItalic-444" x="455.799927"/>
     <use xlink:href="#Ubuntu-BoldItalic-438" x="533.599915"/>
     <use xlink:href="#Ubuntu-BoldItalic-43d" x="591.699905"/>
     <use xlink:href="#Ubuntu-BoldItalic-430" x="651.19989"/>
     <use xlink:href="#Ubuntu-BoldItalic-43d" x="709.999878"/>
     <use xlink:href="#Ubuntu-BoldItalic-441" x="769.499863"/>
     <use xlink:href="#Ubuntu-BoldItalic-43e" x="815.499847"/>
     <use xlink:href="#Ubuntu-BoldItalic-432" x="872.899841"/>
     <use xlink:href="#Ubuntu-BoldItalic-44b" x="928.099838"/>
     <use xlink:href="#Ubuntu-BoldItalic-439" x="1010.199829"/>
     <use xlink:href="#Ubuntu-BoldItalic-20" x="1068.29982"/>
     <use xlink:href="#Ubuntu-BoldItalic-43a" x="1092.299805"/>
     <use xlink:href="#Ubuntu-BoldItalic-440" x="1149.699799"/>
     <use xlink:href="#Ubuntu-BoldItalic-438" x="1207.499786"/>
     <use xlink:href="#Ubuntu-BoldItalic-437" x="1267.099777"/>
     <use xlink:href="#Ubuntu-BoldItalic-438" x="1314.299774"/>
     <use xlink:href="#Ubuntu-BoldItalic-441" x="1372.399765"/>
    </g>
   </g>
   <g id="text_28">
    <!-- ? -->
    <g style="fill: #4b4b4b" transform="translate(223.202709 188.558221) scale(0.09 -0.09)">
     <defs>
      <path id="Ubuntu-Bold-3f" d="M 1286 3725 
Q 1056 3725 851 3667 
Q 646 3610 397 3482 
L 128 4205 
Q 378 4365 717 4451 
Q 1056 4538 1382 4538 
Q 1792 4538 2057 4429 
Q 2323 4320 2476 4153 
Q 2630 3987 2691 3788 
Q 2752 3590 2752 3411 
Q 2752 3232 2697 3081 
Q 2643 2931 2560 2803 
Q 2477 2675 2368 2560 
Q 2259 2445 2157 2342 
Q 2080 2266 1997 2179 
Q 1914 2093 1846 1997 
Q 1779 1901 1734 1795 
Q 1690 1690 1690 1581 
Q 1690 1555 1690 1504 
Q 1690 1453 1696 1414 
L 851 1414 
Q 838 1478 835 1558 
Q 832 1638 832 1696 
Q 832 1875 877 2019 
Q 922 2163 995 2288 
Q 1069 2413 1165 2521 
Q 1261 2630 1363 2733 
Q 1510 2880 1632 3024 
Q 1754 3168 1754 3354 
Q 1754 3507 1635 3616 
Q 1517 3725 1286 3725 
z
M 1882 506 
Q 1882 224 1699 70 
Q 1517 -83 1286 -83 
Q 1056 -83 873 70 
Q 691 224 691 506 
Q 691 787 873 940 
Q 1056 1094 1286 1094 
Q 1517 1094 1699 940 
Q 1882 787 1882 506 
z
" transform="scale(0.015625)"/>
     </defs>
     <use xlink:href="#Ubuntu-Bold-3f"/>
    </g>
   </g>
   <g id="text_29">
    <!-- Крымская кампания -->
    <g style="fill: #4b4b4b" transform="translate(300.942647 57.445675) scale(0.08 -0.08)">
     <defs>
      <path id="Ubuntu-BoldItalic-41a" d="M 3091 0 
Q 3002 218 2877 467 
Q 2752 717 2601 966 
Q 2451 1216 2278 1446 
Q 2106 1677 1926 1856 
L 1472 0 
L 480 0 
L 1542 4435 
L 2541 4435 
L 2150 2835 
Q 2650 3264 3091 3657 
Q 3533 4051 3917 4435 
L 5101 4435 
Q 4518 3891 3945 3356 
Q 3373 2822 2739 2317 
Q 3142 1875 3513 1305 
Q 3885 736 4179 0 
L 3091 0 
z
" transform="scale(0.015625)"/>
      <path id="Ubuntu-BoldItalic-43c" d="M 1773 2003 
Q 1702 1779 1628 1523 
Q 1555 1267 1481 1001 
Q 1408 736 1337 477 
Q 1267 218 1210 0 
L 320 0 
Q 416 358 550 800 
Q 685 1242 829 1696 
Q 973 2150 1120 2585 
Q 1267 3021 1395 3366 
L 2182 3366 
Q 2240 3123 2288 2899 
Q 2336 2675 2377 2438 
Q 2419 2202 2467 1942 
Q 2515 1683 2573 1370 
Q 2784 1702 2966 1980 
Q 3149 2259 3315 2499 
Q 3482 2739 3635 2953 
Q 3789 3168 3936 3366 
L 4723 3366 
Q 4691 3008 4652 2605 
Q 4614 2202 4560 1773 
Q 4506 1344 4432 896 
Q 4358 448 4256 0 
L 3309 0 
Q 3366 230 3427 480 
Q 3488 730 3549 986 
Q 3610 1242 3667 1494 
Q 3725 1747 3770 1978 
L 2707 397 
L 2074 397 
L 1773 2003 
z
" transform="scale(0.015625)"/>
      <path id="Ubuntu-BoldItalic-44f" d="M 2042 1197 
Q 1805 922 1558 605 
Q 1312 288 1101 0 
L 128 0 
Q 410 416 710 790 
Q 1011 1165 1254 1414 
Q 1011 1549 912 1737 
Q 813 1926 813 2144 
Q 813 2522 963 2771 
Q 1114 3021 1360 3168 
Q 1606 3315 1926 3376 
Q 2246 3437 2592 3437 
Q 2950 3437 3299 3389 
Q 3648 3341 3936 3270 
L 3149 0 
L 2195 0 
L 2483 1197 
L 2042 1197 
z
M 2842 2682 
Q 2752 2694 2653 2700 
Q 2554 2707 2445 2707 
Q 2310 2707 2185 2684 
Q 2061 2662 1958 2604 
Q 1856 2547 1795 2448 
Q 1734 2349 1734 2202 
Q 1734 2074 1849 1974 
Q 1965 1875 2189 1875 
L 2643 1875 
L 2842 2682 
z
" transform="scale(0.015625)"/>
      <path id="Ubuntu-BoldItalic-43f" d="M 1222 3213 
Q 1331 3245 1462 3286 
Q 1594 3328 1757 3363 
Q 1920 3398 2121 3420 
Q 2323 3443 2579 3443 
Q 3334 3443 3616 3008 
Q 3898 2573 3712 1818 
L 3277 0 
L 2323 0 
L 2746 1779 
Q 2784 1946 2806 2102 
Q 2829 2259 2803 2377 
Q 2778 2496 2685 2569 
Q 2592 2643 2400 2643 
Q 2214 2643 2022 2605 
L 1402 0 
L 448 0 
L 1222 3213 
z
" transform="scale(0.015625)"/>
     </defs>
     <use xlink:href="#Ubuntu-BoldItalic-41a"/>
     <use xlink:href="#Ubuntu-BoldItalic-440" x="66.199997"/>
     <use xlink:href="#Ubuntu-BoldItalic-44b" x="123.999985"/>
     <use xlink:href="#Ubuntu-BoldItalic-43c" x="206.099976"/>
     <use xlink:href="#Ubuntu-BoldItalic-441" x="276.899963"/>
     <use xlink:href="#Ubuntu-BoldItalic-43a" x="324.899948"/>
     <use xlink:href="#Ubuntu-BoldItalic-430" x="379.299942"/>
     <use xlink:href="#Ubuntu-BoldItalic-44f" x="440.59993"/>
     <use xlink:href="#Ubuntu-BoldItalic-20" x="496.599915"/>
     <use xlink:href="#Ubuntu-BoldItalic-43a" x="520.599899"/>
     <use xlink:href="#Ubuntu-BoldItalic-430" x="574.999893"/>
     <use xlink:href="#Ubuntu-BoldItalic-43c" x="633.799881"/>
     <use xlink:href="#Ubuntu-BoldItalic-43f" x="704.599869"/>
     <use xlink:href="#Ubuntu-BoldItalic-430" x="761.299866"/>
     <use xlink:href="#Ubuntu-BoldItalic-43d" x="820.099854"/>
     <use xlink:href="#Ubuntu-BoldItalic-438" x="879.599838"/>
     <use xlink:href="#Ubuntu-BoldItalic-44f" x="939.699829"/>
    </g>
   </g>
   <g id="text_30">
    <!-- COVID-19 -->
    <g style="fill: #4b4b4b" transform="translate(452.01726 76.636445) scale(0.08 -0.08)">
     <defs>
      <path id="Ubuntu-BoldItalic-43" d="M 3930 192 
Q 3667 64 3347 -13 
Q 3027 -90 2566 -90 
Q 2170 -90 1840 41 
Q 1510 173 1276 416 
Q 1043 659 915 1008 
Q 787 1357 787 1792 
Q 787 2291 963 2784 
Q 1139 3277 1481 3664 
Q 1824 4051 2320 4294 
Q 2816 4538 3462 4538 
Q 3770 4538 4067 4467 
Q 4365 4397 4691 4218 
L 4333 3443 
Q 4064 3584 3853 3635 
Q 3642 3686 3398 3686 
Q 3034 3686 2742 3539 
Q 2451 3392 2243 3139 
Q 2035 2886 1926 2553 
Q 1818 2221 1818 1850 
Q 1818 1286 2064 1030 
Q 2310 774 2771 774 
Q 3078 774 3337 838 
Q 3597 902 3821 1005 
L 3930 192 
z
" transform="scale(0.015625)"/>
      <path id="Ubuntu-BoldItalic-4f" d="M 3200 3680 
Q 2906 3680 2653 3526 
Q 2400 3373 2211 3117 
Q 2022 2861 1916 2528 
Q 1811 2195 1811 1843 
Q 1811 1363 2012 1065 
Q 2214 768 2669 768 
Q 2963 768 3216 921 
Q 3469 1075 3657 1331 
Q 3846 1587 3952 1916 
Q 4058 2246 4058 2605 
Q 4058 3085 3856 3382 
Q 3654 3680 3200 3680 
z
M 2566 -90 
Q 2176 -90 1849 38 
Q 1523 166 1286 406 
Q 1050 646 918 992 
Q 787 1338 787 1773 
Q 787 2272 960 2765 
Q 1133 3258 1456 3651 
Q 1779 4045 2246 4291 
Q 2714 4538 3302 4538 
Q 3693 4538 4019 4410 
Q 4346 4282 4582 4042 
Q 4819 3802 4950 3456 
Q 5082 3110 5082 2675 
Q 5082 2176 4912 1680 
Q 4742 1184 4419 790 
Q 4096 397 3629 153 
Q 3162 -90 2566 -90 
z
" transform="scale(0.015625)"/>
      <path id="Ubuntu-BoldItalic-56" d="M 1715 0 
Q 1613 544 1520 1126 
Q 1427 1709 1344 2285 
Q 1261 2861 1197 3408 
Q 1133 3955 1088 4435 
L 2157 4435 
Q 2176 4070 2205 3651 
Q 2234 3232 2272 2806 
Q 2310 2381 2352 1961 
Q 2394 1542 2438 1178 
Q 2637 1510 2864 1907 
Q 3091 2304 3324 2733 
Q 3558 3162 3785 3597 
Q 4013 4032 4205 4435 
L 5267 4435 
Q 5024 3974 4736 3443 
Q 4448 2912 4118 2342 
Q 3789 1773 3421 1181 
Q 3053 589 2650 0 
L 1715 0 
z
" transform="scale(0.015625)"/>
      <path id="Ubuntu-BoldItalic-49" d="M 1542 4435 
L 2541 4435 
L 1472 0 
L 480 0 
L 1542 4435 
z
" transform="scale(0.015625)"/>
      <path id="Ubuntu-BoldItalic-44" d="M 1645 800 
Q 1715 794 1788 790 
Q 1862 787 1990 787 
Q 2406 787 2742 915 
Q 3078 1043 3312 1283 
Q 3546 1523 3674 1872 
Q 3802 2221 3802 2656 
Q 3802 2880 3744 3062 
Q 3686 3245 3555 3376 
Q 3424 3507 3216 3577 
Q 3008 3648 2714 3648 
Q 2522 3648 2323 3629 
L 1645 800 
z
M 4826 2707 
Q 4826 2061 4614 1549 
Q 4403 1037 4009 681 
Q 3616 326 3053 134 
Q 2490 -58 1779 -58 
Q 1510 -58 1158 -26 
Q 806 6 480 77 
L 1510 4358 
Q 1875 4429 2211 4457 
Q 2547 4486 2816 4486 
Q 3290 4486 3664 4358 
Q 4038 4230 4297 3993 
Q 4557 3757 4691 3430 
Q 4826 3104 4826 2707 
z
" transform="scale(0.015625)"/>
      <path id="Ubuntu-BoldItalic-2d" d="M 678 2342 
L 2534 2342 
L 2323 1478 
L 467 1478 
L 678 2342 
z
" transform="scale(0.015625)"/>
      <path id="Ubuntu-BoldItalic-31" d="M 1280 3514 
Q 1485 3590 1709 3689 
Q 1933 3789 2153 3907 
Q 2374 4026 2585 4157 
Q 2797 4288 2970 4435 
L 3635 4435 
L 2566 0 
L 1613 0 
L 2381 3194 
Q 2157 3066 1894 2960 
Q 1632 2854 1395 2778 
L 1280 3514 
z
" transform="scale(0.015625)"/>
      <path id="Ubuntu-BoldItalic-39" d="M 608 736 
Q 1005 742 1347 790 
Q 1690 838 1974 960 
Q 2259 1082 2473 1286 
Q 2688 1491 2829 1818 
Q 2662 1728 2441 1686 
Q 2221 1645 2029 1645 
Q 1792 1645 1584 1718 
Q 1376 1792 1219 1942 
Q 1062 2093 972 2313 
Q 883 2534 883 2835 
Q 883 3245 1017 3565 
Q 1152 3885 1382 4102 
Q 1613 4320 1920 4432 
Q 2227 4544 2566 4544 
Q 2861 4544 3120 4441 
Q 3379 4339 3568 4144 
Q 3757 3949 3865 3657 
Q 3974 3366 3974 2982 
Q 3974 2419 3782 1878 
Q 3590 1338 3193 915 
Q 2797 493 2189 233 
Q 1581 -26 749 -26 
Q 698 -26 630 -26 
Q 563 -26 493 -19 
L 608 736 
z
M 1792 2899 
Q 1792 2592 1958 2477 
Q 2125 2362 2355 2362 
Q 2515 2362 2678 2403 
Q 2842 2445 2982 2502 
Q 3066 2746 3066 3002 
Q 3066 3309 2925 3529 
Q 2784 3750 2490 3750 
Q 2182 3750 1987 3526 
Q 1792 3302 1792 2899 
z
" transform="scale(0.015625)"/>
     </defs>
     <use xlink:href="#Ubuntu-BoldItalic-43"/>
     <use xlink:href="#Ubuntu-BoldItalic-4f" x="61.799988"/>
     <use xlink:href="#Ubuntu-BoldItalic-56" x="134.499969"/>
     <use xlink:href="#Ubuntu-BoldItalic-49" x="203.299957"/>
     <use xlink:href="#Ubuntu-BoldItalic-44" x="234.499954"/>
     <use xlink:href="#Ubuntu-BoldItalic-2d" x="308.299942"/>
     <use xlink:href="#Ubuntu-BoldItalic-31" x="342.59993"/>
     <use xlink:href="#Ubuntu-BoldItalic-39" x="399.399918"/>
    </g>
   </g>
   <g id="legend_1">
    <g id="line2d_35">
     <path d="M 33.325 14.633438 
L 39.4 14.633438 
L 45.475 14.633438 
" style="fill: none; stroke: #616161; stroke-width: 1.2; stroke-linecap: square"/>
    </g>
    <g id="text_31">
     <!-- Продукты питания -->
     <g style="fill: #4b4b4b" transform="translate(52.675 17.783438) scale(0.09 -0.09)">
      <defs>
       <path id="Ubuntu-41f" d="M 3923 4435 
L 3923 0 
L 3302 0 
L 3302 3904 
L 1171 3904 
L 1171 0 
L 550 0 
L 550 4435 
L 3923 4435 
z
" transform="scale(0.015625)"/>
       <path id="Ubuntu-440" d="M 2822 1658 
Q 2822 2240 2534 2553 
Q 2246 2867 1766 2867 
Q 1498 2867 1347 2848 
Q 1197 2829 1107 2803 
L 1107 704 
Q 1216 614 1421 531 
Q 1626 448 1869 448 
Q 2125 448 2307 541 
Q 2490 634 2605 797 
Q 2720 960 2771 1181 
Q 2822 1402 2822 1658 
z
M 3443 1658 
Q 3443 1280 3344 960 
Q 3245 640 3053 409 
Q 2861 179 2582 51 
Q 2304 -77 1946 -77 
Q 1658 -77 1437 0 
Q 1216 77 1107 147 
L 1107 -1184 
L 512 -1184 
L 512 3226 
Q 723 3277 1040 3337 
Q 1357 3398 1773 3398 
Q 2157 3398 2464 3276 
Q 2771 3155 2988 2931 
Q 3206 2707 3324 2384 
Q 3443 2061 3443 1658 
z
" transform="scale(0.015625)"/>
       <path id="Ubuntu-43e" d="M 3450 1664 
Q 3450 1267 3334 947 
Q 3219 627 3011 396 
Q 2803 166 2515 41 
Q 2227 -83 1888 -83 
Q 1549 -83 1261 41 
Q 973 166 765 396 
Q 557 627 441 947 
Q 326 1267 326 1664 
Q 326 2054 441 2377 
Q 557 2701 765 2931 
Q 973 3162 1261 3286 
Q 1549 3411 1888 3411 
Q 2227 3411 2515 3286 
Q 2803 3162 3011 2931 
Q 3219 2701 3334 2377 
Q 3450 2054 3450 1664 
z
M 2829 1664 
Q 2829 2227 2576 2556 
Q 2323 2886 1888 2886 
Q 1453 2886 1200 2556 
Q 947 2227 947 1664 
Q 947 1101 1200 771 
Q 1453 442 1888 442 
Q 2323 442 2576 771 
Q 2829 1101 2829 1664 
z
" transform="scale(0.015625)"/>
       <path id="Ubuntu-434" d="M 102 486 
L 461 486 
Q 672 794 797 1120 
Q 922 1446 986 1795 
Q 1050 2144 1069 2525 
Q 1088 2906 1094 3328 
L 3277 3328 
L 3277 486 
L 3725 486 
L 3725 -928 
L 3162 -928 
L 3162 0 
L 666 0 
L 666 -928 
L 102 -928 
L 102 486 
z
M 2682 486 
L 2682 2829 
L 1638 2829 
Q 1632 2528 1606 2224 
Q 1581 1920 1523 1622 
Q 1466 1325 1360 1040 
Q 1254 755 1094 486 
L 2682 486 
z
" transform="scale(0.015625)"/>
       <path id="Ubuntu-443" d="M 122 -621 
Q 192 -653 304 -681 
Q 416 -710 525 -710 
Q 877 -710 1075 -553 
Q 1274 -397 1434 -45 
Q 1030 723 681 1584 
Q 333 2445 102 3328 
L 742 3328 
Q 813 3040 912 2707 
Q 1011 2374 1132 2022 
Q 1254 1670 1395 1318 
Q 1536 966 1690 640 
Q 1933 1312 2112 1971 
Q 2291 2630 2451 3328 
L 3066 3328 
Q 2835 2387 2553 1520 
Q 2272 653 1946 -102 
Q 1818 -390 1680 -598 
Q 1542 -806 1376 -940 
Q 1210 -1075 1002 -1139 
Q 794 -1203 531 -1203 
Q 461 -1203 384 -1193 
Q 307 -1184 233 -1168 
Q 160 -1152 99 -1133 
Q 38 -1114 13 -1101 
L 122 -621 
z
" transform="scale(0.015625)"/>
       <path id="Ubuntu-43a" d="M 1728 1811 
Q 1926 1670 2156 1456 
Q 2387 1242 2608 992 
Q 2829 742 3021 483 
Q 3213 224 3347 0 
L 2643 0 
Q 2502 218 2313 445 
Q 2125 672 1920 883 
Q 1715 1094 1504 1273 
Q 1293 1453 1107 1574 
L 1107 0 
L 512 0 
L 512 3328 
L 1107 3328 
L 1107 1901 
Q 1261 2048 1459 2243 
Q 1658 2438 1859 2640 
Q 2061 2842 2233 3024 
Q 2406 3206 2515 3328 
L 3206 3328 
Q 3066 3174 2877 2979 
Q 2688 2784 2486 2579 
Q 2285 2374 2086 2172 
Q 1888 1971 1728 1811 
z
" transform="scale(0.015625)"/>
       <path id="Ubuntu-442" d="M 2861 3328 
L 2861 2829 
L 1779 2829 
L 1779 0 
L 1184 0 
L 1184 2829 
L 102 2829 
L 102 3328 
L 2861 3328 
z
" transform="scale(0.015625)"/>
       <path id="Ubuntu-44b" d="M 1734 1645 
Q 1562 1645 1398 1635 
Q 1235 1626 1107 1594 
L 1107 448 
Q 1146 442 1219 435 
Q 1293 429 1379 425 
Q 1466 422 1555 419 
Q 1645 416 1715 416 
Q 2106 416 2317 563 
Q 2528 710 2528 1037 
Q 2528 1197 2461 1312 
Q 2394 1427 2282 1500 
Q 2170 1574 2029 1609 
Q 1888 1645 1734 1645 
z
M 512 3328 
L 1107 3328 
L 1107 2054 
Q 1216 2080 1424 2105 
Q 1632 2131 1824 2131 
Q 2086 2131 2323 2070 
Q 2560 2010 2739 1878 
Q 2918 1747 3024 1539 
Q 3130 1331 3130 1043 
Q 3130 742 3027 531 
Q 2925 320 2739 185 
Q 2554 51 2291 -9 
Q 2029 -70 1715 -70 
Q 1414 -70 1107 -35 
Q 800 0 512 70 
L 512 3328 
z
M 4339 0 
L 3744 0 
L 3744 3328 
L 4339 3328 
L 4339 0 
z
" transform="scale(0.015625)"/>
       <path id="Ubuntu-20" transform="scale(0.015625)"/>
       <path id="Ubuntu-43f" d="M 3187 0 
L 2592 0 
L 2592 2829 
L 1107 2829 
L 1107 0 
L 512 0 
L 512 3328 
L 3187 3328 
L 3187 0 
z
" transform="scale(0.015625)"/>
       <path id="Ubuntu-438" d="M 3309 3328 
L 3309 0 
L 2733 0 
L 2733 2534 
Q 2541 2291 2310 1964 
Q 2080 1638 1849 1289 
Q 1619 941 1408 601 
Q 1197 262 1043 0 
L 512 0 
L 512 3328 
L 1088 3328 
L 1088 934 
Q 1254 1210 1465 1539 
Q 1677 1869 1904 2192 
Q 2131 2515 2358 2812 
Q 2586 3110 2784 3328 
L 3309 3328 
z
" transform="scale(0.015625)"/>
       <path id="Ubuntu-430" d="M 1638 429 
Q 1850 429 2013 438 
Q 2176 448 2285 474 
L 2285 1466 
Q 2221 1498 2077 1520 
Q 1933 1542 1728 1542 
Q 1594 1542 1443 1523 
Q 1293 1504 1168 1443 
Q 1043 1382 960 1276 
Q 877 1171 877 998 
Q 877 678 1081 553 
Q 1286 429 1638 429 
z
M 1587 3411 
Q 1946 3411 2192 3318 
Q 2438 3226 2588 3056 
Q 2739 2886 2803 2652 
Q 2867 2419 2867 2138 
L 2867 58 
Q 2790 45 2652 22 
Q 2515 0 2342 -19 
Q 2170 -38 1968 -54 
Q 1766 -70 1568 -70 
Q 1286 -70 1049 -12 
Q 813 45 640 169 
Q 467 294 371 499 
Q 275 704 275 992 
Q 275 1267 387 1465 
Q 499 1664 691 1785 
Q 883 1907 1139 1964 
Q 1395 2022 1677 2022 
Q 1766 2022 1862 2012 
Q 1958 2003 2044 1987 
Q 2131 1971 2195 1958 
Q 2259 1946 2285 1939 
L 2285 2106 
Q 2285 2253 2253 2397 
Q 2221 2541 2137 2653 
Q 2054 2765 1910 2832 
Q 1766 2899 1536 2899 
Q 1242 2899 1021 2857 
Q 800 2816 691 2771 
L 621 3264 
Q 736 3315 1005 3363 
Q 1274 3411 1587 3411 
z
" transform="scale(0.015625)"/>
       <path id="Ubuntu-43d" d="M 3238 0 
L 2643 0 
L 2643 1472 
L 1107 1472 
L 1107 0 
L 512 0 
L 512 3328 
L 1107 3328 
L 1107 1971 
L 2643 1971 
L 2643 3328 
L 3238 3328 
L 3238 0 
z
" transform="scale(0.015625)"/>
       <path id="Ubuntu-44f" d="M 1888 1293 
Q 1792 1293 1702 1296 
Q 1613 1299 1530 1306 
Q 1325 998 1136 649 
Q 947 301 800 0 
L 198 0 
Q 275 186 377 381 
Q 480 576 585 761 
Q 691 947 800 1113 
Q 909 1280 1005 1414 
Q 826 1478 710 1571 
Q 595 1664 524 1779 
Q 454 1894 425 2025 
Q 397 2157 397 2291 
Q 397 2573 502 2784 
Q 608 2995 793 3132 
Q 979 3270 1232 3340 
Q 1485 3411 1786 3411 
Q 2208 3411 2502 3372 
Q 2797 3334 2995 3283 
L 2995 0 
L 2406 0 
L 2406 1293 
L 1888 1293 
z
M 2406 2886 
Q 2336 2899 2173 2912 
Q 2010 2925 1798 2925 
Q 1434 2925 1210 2774 
Q 986 2624 986 2298 
Q 986 1978 1216 1856 
Q 1446 1734 1811 1734 
L 2406 1734 
L 2406 2886 
z
" transform="scale(0.015625)"/>
      </defs>
      <use xlink:href="#Ubuntu-41f"/>
      <use xlink:href="#Ubuntu-440" x="69.899994"/>
      <use xlink:href="#Ubuntu-43e" x="128.799988"/>
      <use xlink:href="#Ubuntu-434" x="187.799973"/>
      <use xlink:href="#Ubuntu-443" x="250.47496"/>
      <use xlink:href="#Ubuntu-43a" x="300.174957"/>
      <use xlink:href="#Ubuntu-442" x="353.874954"/>
      <use xlink:href="#Ubuntu-44b" x="400.174942"/>
      <use xlink:href="#Ubuntu-20" x="475.97493"/>
      <use xlink:href="#Ubuntu-43f" x="499.074921"/>
      <use xlink:href="#Ubuntu-438" x="556.874908"/>
      <use xlink:href="#Ubuntu-442" x="616.574905"/>
      <use xlink:href="#Ubuntu-430" x="662.874893"/>
      <use xlink:href="#Ubuntu-43d" x="715.07489"/>
      <use xlink:href="#Ubuntu-438" x="773.674881"/>
      <use xlink:href="#Ubuntu-44f" x="833.374878"/>
     </g>
    </g>
    <g id="line2d_36">
     <path d="M 150.610469 14.633438 
L 156.685469 14.633438 
L 162.760469 14.633438 
" style="fill: none; stroke: #6aa894; stroke-width: 1.2; stroke-linecap: square"/>
    </g>
    <g id="text_32">
     <!-- Непродовольственные товары -->
     <g style="fill: #4b4b4b" transform="translate(169.960469 17.783438) scale(0.09 -0.09)">
      <defs>
       <path id="Ubuntu-41d" d="M 3341 4435 
L 3962 4435 
L 3962 0 
L 3341 0 
L 3341 2048 
L 1171 2048 
L 1171 0 
L 550 0 
L 550 4435 
L 1171 4435 
L 1171 2586 
L 3341 2586 
L 3341 4435 
z
" transform="scale(0.015625)"/>
       <path id="Ubuntu-435" d="M 326 1658 
Q 326 2099 454 2428 
Q 582 2758 793 2976 
Q 1005 3194 1280 3302 
Q 1555 3411 1843 3411 
Q 2515 3411 2873 2992 
Q 3232 2573 3232 1715 
Q 3232 1677 3232 1616 
Q 3232 1555 3226 1504 
L 947 1504 
Q 986 986 1248 717 
Q 1510 448 2067 448 
Q 2381 448 2595 502 
Q 2810 557 2918 608 
L 3002 109 
Q 2893 51 2621 -13 
Q 2349 -77 2003 -77 
Q 1568 -77 1251 54 
Q 934 186 729 416 
Q 525 646 425 963 
Q 326 1280 326 1658 
z
M 2611 1984 
Q 2618 2387 2410 2646 
Q 2202 2906 1837 2906 
Q 1632 2906 1475 2826 
Q 1318 2746 1209 2618 
Q 1101 2490 1040 2323 
Q 979 2157 960 1984 
L 2611 1984 
z
" transform="scale(0.015625)"/>
       <path id="Ubuntu-432" d="M 1094 448 
Q 1133 442 1203 435 
Q 1274 429 1363 425 
Q 1453 422 1552 419 
Q 1651 416 1741 416 
Q 1926 416 2096 441 
Q 2266 467 2390 531 
Q 2515 595 2588 700 
Q 2662 806 2662 973 
Q 2662 1133 2595 1238 
Q 2528 1344 2413 1408 
Q 2298 1472 2141 1497 
Q 1984 1523 1805 1523 
L 1094 1523 
L 1094 448 
z
M 1728 1965 
Q 1901 1965 2045 1987 
Q 2189 2010 2294 2067 
Q 2400 2125 2461 2221 
Q 2522 2317 2522 2464 
Q 2522 2618 2445 2707 
Q 2368 2797 2243 2845 
Q 2118 2893 1961 2909 
Q 1805 2925 1645 2925 
Q 1498 2925 1347 2918 
Q 1197 2912 1094 2906 
L 1094 1965 
L 1728 1965 
z
M 1715 -58 
Q 1338 -58 1018 -22 
Q 698 13 512 58 
L 512 3296 
Q 698 3341 1018 3376 
Q 1338 3411 1715 3411 
Q 1978 3411 2227 3366 
Q 2477 3322 2669 3216 
Q 2861 3110 2979 2928 
Q 3098 2746 3098 2477 
Q 3098 2234 2976 2061 
Q 2854 1888 2650 1792 
Q 2925 1696 3088 1507 
Q 3251 1318 3251 979 
Q 3251 678 3132 480 
Q 3014 282 2806 160 
Q 2598 38 2316 -10 
Q 2035 -58 1715 -58 
z
" transform="scale(0.015625)"/>
       <path id="Ubuntu-43b" d="M 1670 2829 
Q 1670 2618 1660 2378 
Q 1651 2138 1625 1898 
Q 1600 1658 1555 1424 
Q 1510 1190 1440 986 
Q 1370 781 1264 601 
Q 1158 422 1004 284 
Q 851 147 646 54 
Q 442 -38 166 -64 
L 83 435 
Q 397 499 579 672 
Q 762 845 870 1094 
Q 966 1312 1011 1587 
Q 1056 1862 1075 2160 
Q 1094 2458 1097 2758 
Q 1101 3059 1101 3328 
L 3315 3328 
L 3315 0 
L 2720 0 
L 2720 2829 
L 1670 2829 
z
" transform="scale(0.015625)"/>
       <path id="Ubuntu-44c" d="M 1773 416 
Q 2150 416 2368 563 
Q 2586 710 2586 1037 
Q 2586 1197 2522 1312 
Q 2458 1427 2346 1500 
Q 2234 1574 2086 1609 
Q 1939 1645 1773 1645 
Q 1600 1645 1417 1635 
Q 1235 1626 1107 1594 
L 1107 448 
Q 1146 442 1222 435 
Q 1299 429 1392 425 
Q 1485 422 1584 419 
Q 1683 416 1773 416 
z
M 512 70 
L 512 3328 
L 1107 3328 
L 1107 2054 
Q 1158 2067 1244 2080 
Q 1331 2093 1430 2105 
Q 1530 2118 1638 2124 
Q 1747 2131 1843 2131 
Q 2118 2131 2361 2070 
Q 2605 2010 2787 1878 
Q 2970 1747 3078 1539 
Q 3187 1331 3187 1043 
Q 3187 742 3084 531 
Q 2982 320 2790 185 
Q 2598 51 2332 -9 
Q 2067 -70 1741 -70 
Q 1421 -70 1113 -35 
Q 806 0 512 70 
z
" transform="scale(0.015625)"/>
       <path id="Ubuntu-441" d="M 1958 -77 
Q 1555 -77 1251 51 
Q 947 179 739 409 
Q 531 640 428 957 
Q 326 1274 326 1658 
Q 326 2042 438 2362 
Q 550 2682 755 2915 
Q 960 3149 1257 3280 
Q 1555 3411 1920 3411 
Q 2144 3411 2368 3372 
Q 2592 3334 2797 3251 
L 2662 2746 
Q 2528 2810 2352 2848 
Q 2176 2886 1978 2886 
Q 1478 2886 1212 2572 
Q 947 2259 947 1658 
Q 947 1389 1008 1165 
Q 1069 941 1200 781 
Q 1331 621 1536 534 
Q 1741 448 2035 448 
Q 2272 448 2464 493 
Q 2656 538 2765 589 
L 2848 90 
Q 2797 58 2701 29 
Q 2605 0 2483 -22 
Q 2362 -45 2224 -61 
Q 2086 -77 1958 -77 
z
" transform="scale(0.015625)"/>
      </defs>
      <use xlink:href="#Ubuntu-41d"/>
      <use xlink:href="#Ubuntu-435" x="70.499985"/>
      <use xlink:href="#Ubuntu-43f" x="126.399979"/>
      <use xlink:href="#Ubuntu-440" x="184.199966"/>
      <use xlink:href="#Ubuntu-43e" x="243.09996"/>
      <use xlink:href="#Ubuntu-434" x="302.099945"/>
      <use xlink:href="#Ubuntu-43e" x="362.399933"/>
      <use xlink:href="#Ubuntu-432" x="421.399918"/>
      <use xlink:href="#Ubuntu-43e" x="476.199905"/>
      <use xlink:href="#Ubuntu-43b" x="535.19989"/>
      <use xlink:href="#Ubuntu-44c" x="594.999878"/>
      <use xlink:href="#Ubuntu-441" x="647.799866"/>
      <use xlink:href="#Ubuntu-442" x="695.79985"/>
      <use xlink:href="#Ubuntu-432" x="742.099838"/>
      <use xlink:href="#Ubuntu-435" x="796.899826"/>
      <use xlink:href="#Ubuntu-43d" x="852.79982"/>
      <use xlink:href="#Ubuntu-43d" x="911.399811"/>
      <use xlink:href="#Ubuntu-44b" x="969.999802"/>
      <use xlink:href="#Ubuntu-435" x="1045.799789"/>
      <use xlink:href="#Ubuntu-20" x="1101.699783"/>
      <use xlink:href="#Ubuntu-442" x="1124.799774"/>
      <use xlink:href="#Ubuntu-43e" x="1171.099762"/>
      <use xlink:href="#Ubuntu-432" x="1230.099747"/>
      <use xlink:href="#Ubuntu-430" x="1284.899734"/>
      <use xlink:href="#Ubuntu-440" x="1337.099731"/>
      <use xlink:href="#Ubuntu-44b" x="1395.999725"/>
     </g>
    </g>
    <g id="line2d_37">
     <path d="M 320.420781 14.633438 
L 326.495781 14.633438 
L 332.570781 14.633438 
" style="fill: none; stroke: #6b95b7; stroke-width: 1.2; stroke-linecap: square"/>
    </g>
    <g id="text_33">
     <!-- Услуги -->
     <g style="fill: #4b4b4b" transform="translate(339.770781 17.783438) scale(0.09 -0.09)">
      <defs>
       <path id="Ubuntu-423" d="M 2522 1357 
Q 2394 1062 2256 803 
Q 2118 544 1929 352 
Q 1741 160 1475 51 
Q 1210 -58 819 -58 
Q 742 -58 659 -48 
Q 576 -38 499 -22 
Q 422 -6 364 13 
Q 307 32 282 51 
L 390 576 
Q 474 544 592 512 
Q 710 480 838 480 
Q 1030 480 1174 528 
Q 1318 576 1433 662 
Q 1549 749 1638 873 
Q 1728 998 1811 1152 
Q 1530 1606 1280 2057 
Q 1030 2509 819 2931 
Q 608 3354 435 3734 
Q 262 4115 128 4435 
L 832 4435 
Q 1043 3878 1372 3193 
Q 1702 2509 2106 1760 
Q 2362 2342 2595 3043 
Q 2829 3744 3034 4435 
L 3706 4435 
Q 3558 3974 3411 3568 
Q 3264 3162 3117 2787 
Q 2970 2413 2822 2057 
Q 2675 1702 2522 1357 
z
" transform="scale(0.015625)"/>
       <path id="Ubuntu-433" d="M 2573 2829 
L 1107 2829 
L 1107 0 
L 512 0 
L 512 3328 
L 2573 3328 
L 2573 2829 
z
" transform="scale(0.015625)"/>
      </defs>
      <use xlink:href="#Ubuntu-423"/>
      <use xlink:href="#Ubuntu-441" x="54.949997"/>
      <use xlink:href="#Ubuntu-43b" x="103.324982"/>
      <use xlink:href="#Ubuntu-443" x="163.124969"/>
      <use xlink:href="#Ubuntu-433" x="212.824966"/>
      <use xlink:href="#Ubuntu-438" x="254.624954"/>
     </g>
    </g>
   </g>
   <g id="PathCollection_1">
    <defs>
     <path id="m8eee2acc33" d="M 0 1.118034 
C 0.296506 1.118034 0.580908 1.000231 0.790569 0.790569 
C 1.000231 0.580908 1.118034 0.296506 1.118034 0 
C 1.118034 -0.296506 1.000231 -0.580908 0.790569 -0.790569 
C 0.580908 -1.000231 0.296506 -1.118034 0 -1.118034 
C -0.296506 -1.118034 -0.580908 -1.000231 -0.790569 -0.790569 
C -1.000231 -0.580908 -1.118034 -0.296506 -1.118034 0 
C -1.118034 0.296506 -1.000231 0.580908 -0.790569 0.790569 
C -0.580908 1.000231 -0.296506 1.118034 0 1.118034 
z
" style="stroke: #af4035"/>
    </defs>
    <g clip-path="url(#p2ad323c055)">
     <use xlink:href="#m8eee2acc33" x="131.728715" y="48.685002" style="fill: #af4035; stroke: #af4035"/>
    </g>
   </g>
   <g id="PathCollection_2">
    <g clip-path="url(#p2ad323c055)">
     <use xlink:href="#m8eee2acc33" x="218.020046" y="185.899002" style="fill: #af4035; stroke: #af4035"/>
    </g>
   </g>
   <g id="PathCollection_3">
    <g clip-path="url(#p2ad323c055)">
     <use xlink:href="#m8eee2acc33" x="295.759985" y="55.081925" style="fill: #af4035; stroke: #af4035"/>
    </g>
   </g>
   <g id="PathCollection_4">
    <g clip-path="url(#p2ad323c055)">
     <use xlink:href="#m8eee2acc33" x="446.834598" y="74.272695" style="fill: #af4035; stroke: #af4035"/>
    </g>
   </g>
  </g>
 </g>
 <defs>
  <clipPath id="p2ad323c055">
   <rect x="25.225" y="35.891156" width="502.2" height="166.32"/>
  </clipPath>
 </defs>
</svg>
