<?xml version="1.0" encoding="utf-8" standalone="no"?>
<!DOCTYPE svg PUBLIC "-//W3C//DTD SVG 1.1//EN"
  "http://www.w3.org/Graphics/SVG/1.1/DTD/svg11.dtd">
<svg xmlns:xlink="http://www.w3.org/1999/xlink" width="540.726471pt" height="231.098656pt" viewBox="0 0 540.726471 231.098656" xmlns="http://www.w3.org/2000/svg" version="1.1">
 <metadata>
  <rdf:RDF xmlns:dc="http://purl.org/dc/elements/1.1/" xmlns:cc="http://creativecommons.org/ns#" xmlns:rdf="http://www.w3.org/1999/02/22-rdf-syntax-ns#">
   <cc:Work>
    <dc:type rdf:resource="http://purl.org/dc/dcmitype/StillImage"/>
    <dc:date>2024-04-19T22:56:45.080583</dc:date>
    <dc:format>image/svg+xml</dc:format>
    <dc:creator>
     <cc:Agent>
      <dc:title>Matplotlib v3.8.0, https://matplotlib.org/</dc:title>
     </cc:Agent>
    </dc:creator>
   </cc:Work>
  </rdf:RDF>
 </metadata>
 <defs>
  <style type="text/css">*{stroke-linejoin: round; stroke-linecap: butt}</style>
 </defs>
 <g id="figure_1">
  <g id="patch_1">
   <path d="M 0 231.098656 
L 540.726471 231.098656 
L 540.726471 0 
L 0 0 
L 0 231.098656 
z
" style="fill: none"/>
  </g>
  <g id="axes_1">
   <g id="patch_2">
    <path d="M 27.225 202.211156 
L 529.425 202.211156 
L 529.425 35.891156 
L 27.225 35.891156 
L 27.225 202.211156 
z
" style="fill: none"/>
   </g>
   <g id="line2d_1">
    <path d="M 133.728715 202.211156 
L 133.728715 47.533556 
" clip-path="url(#p9c4b4ed129)" style="fill: none; stroke-dasharray: 0.85,1.4025; stroke-dashoffset: 0; stroke: #af4035; stroke-opacity: 0.75; stroke-width: 0.85"/>
   </g>
   <g id="line2d_2">
    <path d="M 220.020046 202.211156 
L 220.020046 168.115556 
" clip-path="url(#p9c4b4ed129)" style="fill: none; stroke-dasharray: 0.85,1.4025; stroke-dashoffset: 0; stroke: #af4035; stroke-opacity: 0.75; stroke-width: 0.85"/>
   </g>
   <g id="line2d_3">
    <path d="M 297.759985 202.211156 
L 297.759985 54.186356 
" clip-path="url(#p9c4b4ed129)" style="fill: none; stroke-dasharray: 0.85,1.4025; stroke-dashoffset: 0; stroke: #af4035; stroke-opacity: 0.75; stroke-width: 0.85"/>
   </g>
   <g id="line2d_4">
    <path d="M 448.834598 202.211156 
L 448.834598 69.155156 
" clip-path="url(#p9c4b4ed129)" style="fill: none; stroke-dasharray: 0.85,1.4025; stroke-dashoffset: 0; stroke: #af4035; stroke-opacity: 0.75; stroke-width: 0.85"/>
   </g>
   <g id="matplotlib.axis_1">
    <g id="xtick_1">
     <g id="line2d_5">
      <defs>
       <path id="m1987656a51" d="M 0 0 
L 0 3 
" style="stroke: #cccccc; stroke-width: 0.75"/>
      </defs>
      <g>
       <use xlink:href="#m1987656a51" x="32.148529" y="207.211156" style="fill: #cccccc; stroke: #cccccc; stroke-width: 0.75"/>
      </g>
     </g>
     <g id="text_1">
      <!-- 2003 -->
      <g style="fill: #999999" transform="translate(23.123529 222.418656) scale(0.08 -0.08)">
       <defs>
        <path id="Ubuntu-32" d="M 2989 3302 
Q 2989 3072 2896 2857 
Q 2803 2643 2649 2435 
Q 2496 2227 2304 2025 
Q 2112 1824 1920 1632 
Q 1811 1523 1667 1376 
Q 1523 1229 1395 1069 
Q 1267 909 1180 761 
Q 1094 614 1094 506 
L 3136 506 
L 3136 0 
L 448 0 
Q 442 38 442 76 
Q 442 115 442 147 
Q 442 448 541 707 
Q 640 966 800 1196 
Q 960 1427 1158 1632 
Q 1357 1837 1549 2029 
Q 1709 2182 1853 2332 
Q 1997 2483 2109 2633 
Q 2221 2784 2288 2944 
Q 2355 3104 2355 3283 
Q 2355 3475 2294 3609 
Q 2234 3744 2131 3833 
Q 2029 3923 1891 3964 
Q 1754 4006 1600 4006 
Q 1414 4006 1260 3955 
Q 1107 3904 985 3837 
Q 864 3770 781 3696 
Q 698 3622 653 3584 
L 358 4006 
Q 416 4070 531 4163 
Q 646 4256 806 4339 
Q 966 4422 1164 4480 
Q 1363 4538 1594 4538 
Q 2291 4538 2640 4214 
Q 2989 3891 2989 3302 
z
" transform="scale(0.015625)"/>
        <path id="Ubuntu-30" d="M 320 2221 
Q 320 3334 713 3936 
Q 1107 4538 1805 4538 
Q 2502 4538 2896 3936 
Q 3290 3334 3290 2221 
Q 3290 1107 2896 505 
Q 2502 -96 1805 -96 
Q 1107 -96 713 505 
Q 320 1107 320 2221 
z
M 2662 2221 
Q 2662 2586 2620 2912 
Q 2579 3238 2480 3481 
Q 2381 3725 2214 3869 
Q 2048 4013 1805 4013 
Q 1562 4013 1395 3869 
Q 1229 3725 1129 3481 
Q 1030 3238 988 2912 
Q 947 2586 947 2221 
Q 947 1856 988 1529 
Q 1030 1203 1129 960 
Q 1229 717 1395 573 
Q 1562 429 1805 429 
Q 2048 429 2214 573 
Q 2381 717 2480 960 
Q 2579 1203 2620 1529 
Q 2662 1856 2662 2221 
z
" transform="scale(0.015625)"/>
        <path id="Ubuntu-33" d="M 1446 435 
Q 2016 435 2262 659 
Q 2509 883 2509 1261 
Q 2509 1504 2406 1670 
Q 2304 1837 2137 1936 
Q 1971 2035 1750 2076 
Q 1530 2118 1299 2118 
L 1146 2118 
L 1146 2605 
L 1357 2605 
Q 1517 2605 1686 2637 
Q 1856 2669 1997 2752 
Q 2138 2835 2227 2979 
Q 2317 3123 2317 3341 
Q 2317 3520 2253 3648 
Q 2189 3776 2083 3859 
Q 1978 3942 1840 3977 
Q 1702 4013 1549 4013 
Q 1242 4013 1027 3923 
Q 813 3834 666 3738 
L 435 4192 
Q 512 4243 630 4304 
Q 749 4365 896 4416 
Q 1043 4467 1212 4502 
Q 1382 4538 1568 4538 
Q 1920 4538 2176 4451 
Q 2432 4365 2598 4208 
Q 2765 4051 2848 3836 
Q 2931 3622 2931 3373 
Q 2931 3027 2732 2780 
Q 2534 2534 2253 2406 
Q 2426 2355 2586 2259 
Q 2746 2163 2864 2016 
Q 2982 1869 3056 1677 
Q 3130 1485 3130 1248 
Q 3130 960 3030 713 
Q 2931 467 2723 288 
Q 2515 109 2201 6 
Q 1888 -96 1459 -96 
Q 1293 -96 1117 -70 
Q 941 -45 787 -6 
Q 634 32 518 70 
Q 403 109 352 134 
L 467 653 
Q 576 602 829 518 
Q 1082 435 1446 435 
z
" transform="scale(0.015625)"/>
       </defs>
       <use xlink:href="#Ubuntu-32"/>
       <use xlink:href="#Ubuntu-30" x="56.399994"/>
       <use xlink:href="#Ubuntu-30" x="112.799988"/>
       <use xlink:href="#Ubuntu-33" x="169.199982"/>
      </g>
     </g>
    </g>
    <g id="xtick_2">
     <g id="line2d_6">
      <g>
       <use xlink:href="#m1987656a51" x="58.061842" y="207.211156" style="fill: #cccccc; stroke: #cccccc; stroke-width: 0.75"/>
      </g>
     </g>
     <g id="text_2">
      <!-- 2004 -->
      <g style="fill: #999999" transform="translate(49.036842 222.418656) scale(0.08 -0.08)">
       <defs>
        <path id="Ubuntu-34" d="M 256 1536 
Q 378 1818 589 2192 
Q 800 2566 1065 2963 
Q 1331 3360 1635 3744 
Q 1939 4128 2246 4435 
L 2816 4435 
L 2816 1619 
L 3341 1619 
L 3341 1133 
L 2816 1133 
L 2816 0 
L 2240 0 
L 2240 1133 
L 256 1133 
L 256 1536 
z
M 2240 3731 
Q 2048 3526 1853 3273 
Q 1658 3021 1472 2745 
Q 1286 2470 1123 2182 
Q 960 1894 832 1619 
L 2240 1619 
L 2240 3731 
z
" transform="scale(0.015625)"/>
       </defs>
       <use xlink:href="#Ubuntu-32"/>
       <use xlink:href="#Ubuntu-30" x="56.399994"/>
       <use xlink:href="#Ubuntu-30" x="112.799988"/>
       <use xlink:href="#Ubuntu-34" x="169.199982"/>
      </g>
     </g>
    </g>
    <g id="xtick_3">
     <g id="line2d_7">
      <g>
       <use xlink:href="#m1987656a51" x="83.975155" y="207.211156" style="fill: #cccccc; stroke: #cccccc; stroke-width: 0.75"/>
      </g>
     </g>
     <g id="text_3">
      <!-- 2005 -->
      <g style="fill: #999999" transform="translate(74.950155 222.418656) scale(0.08 -0.08)">
       <defs>
        <path id="Ubuntu-35" d="M 1274 2726 
Q 2240 2688 2691 2304 
Q 3142 1920 3142 1261 
Q 3142 966 3043 716 
Q 2944 467 2742 288 
Q 2541 109 2233 6 
Q 1926 -96 1504 -96 
Q 1338 -96 1165 -70 
Q 992 -45 845 -6 
Q 698 32 582 70 
Q 467 109 416 134 
L 531 653 
Q 640 602 886 518 
Q 1133 435 1491 435 
Q 1779 435 1974 499 
Q 2170 563 2291 672 
Q 2413 781 2467 925 
Q 2522 1069 2522 1229 
Q 2522 1472 2438 1661 
Q 2355 1850 2144 1978 
Q 1933 2106 1581 2173 
Q 1229 2240 691 2240 
Q 730 2554 752 2829 
Q 774 3104 793 3366 
Q 813 3629 825 3888 
Q 838 4147 851 4435 
L 2989 4435 
L 2989 3930 
L 1370 3930 
Q 1363 3834 1350 3670 
Q 1338 3507 1325 3331 
Q 1312 3155 1299 2988 
Q 1286 2822 1274 2726 
z
" transform="scale(0.015625)"/>
       </defs>
       <use xlink:href="#Ubuntu-32"/>
       <use xlink:href="#Ubuntu-30" x="56.399994"/>
       <use xlink:href="#Ubuntu-30" x="112.799988"/>
       <use xlink:href="#Ubuntu-35" x="169.199982"/>
      </g>
     </g>
    </g>
    <g id="xtick_4">
     <g id="line2d_8">
      <g>
       <use xlink:href="#m1987656a51" x="109.888467" y="207.211156" style="fill: #cccccc; stroke: #cccccc; stroke-width: 0.75"/>
      </g>
     </g>
     <g id="text_4">
      <!-- 2006 -->
      <g style="fill: #999999" transform="translate(100.863467 222.418656) scale(0.08 -0.08)">
       <defs>
        <path id="Ubuntu-36" d="M 403 1779 
Q 403 2426 582 2922 
Q 762 3418 1091 3757 
Q 1421 4096 1891 4272 
Q 2362 4448 2950 4454 
L 2995 3955 
Q 2618 3949 2307 3872 
Q 1997 3795 1753 3628 
Q 1510 3462 1344 3196 
Q 1178 2931 1094 2541 
Q 1261 2618 1469 2669 
Q 1677 2720 1901 2720 
Q 2278 2720 2540 2605 
Q 2803 2490 2969 2301 
Q 3136 2112 3209 1865 
Q 3283 1619 3283 1350 
Q 3283 1107 3200 851 
Q 3117 595 2947 384 
Q 2778 173 2515 38 
Q 2253 -96 1894 -96 
Q 1165 -96 784 403 
Q 403 902 403 1779 
z
M 1837 2234 
Q 1613 2234 1421 2192 
Q 1229 2150 1037 2067 
Q 1030 1997 1027 1923 
Q 1024 1850 1024 1779 
Q 1024 1498 1062 1248 
Q 1101 998 1200 809 
Q 1299 621 1465 509 
Q 1632 397 1888 397 
Q 2099 397 2246 486 
Q 2394 576 2490 717 
Q 2586 858 2627 1021 
Q 2669 1184 2669 1338 
Q 2669 1773 2461 2003 
Q 2253 2234 1837 2234 
z
" transform="scale(0.015625)"/>
       </defs>
       <use xlink:href="#Ubuntu-32"/>
       <use xlink:href="#Ubuntu-30" x="56.399994"/>
       <use xlink:href="#Ubuntu-30" x="112.799988"/>
       <use xlink:href="#Ubuntu-36" x="169.199982"/>
      </g>
     </g>
    </g>
    <g id="xtick_5">
     <g id="line2d_9">
      <g>
       <use xlink:href="#m1987656a51" x="135.80178" y="207.211156" style="fill: #cccccc; stroke: #cccccc; stroke-width: 0.75"/>
      </g>
     </g>
     <g id="text_5">
      <!-- 2007 -->
      <g style="fill: #999999" transform="translate(126.77678 222.418656) scale(0.08 -0.08)">
       <defs>
        <path id="Ubuntu-37" d="M 1043 0 
Q 1082 512 1226 1078 
Q 1370 1645 1581 2179 
Q 1792 2714 2045 3171 
Q 2298 3629 2541 3917 
L 384 3917 
L 384 4435 
L 3206 4435 
L 3206 3942 
Q 2995 3699 2739 3273 
Q 2483 2848 2256 2320 
Q 2029 1792 1865 1193 
Q 1702 595 1664 0 
L 1043 0 
z
" transform="scale(0.015625)"/>
       </defs>
       <use xlink:href="#Ubuntu-32"/>
       <use xlink:href="#Ubuntu-30" x="56.399994"/>
       <use xlink:href="#Ubuntu-30" x="112.799988"/>
       <use xlink:href="#Ubuntu-37" x="169.199982"/>
      </g>
     </g>
    </g>
    <g id="xtick_6">
     <g id="line2d_10">
      <g>
       <use xlink:href="#m1987656a51" x="161.715093" y="207.211156" style="fill: #cccccc; stroke: #cccccc; stroke-width: 0.75"/>
      </g>
     </g>
     <g id="text_6">
      <!-- 2008 -->
      <g style="fill: #999999" transform="translate(152.690093 222.418656) scale(0.08 -0.08)">
       <defs>
        <path id="Ubuntu-38" d="M 3258 1152 
Q 3258 883 3165 656 
Q 3072 429 2889 259 
Q 2707 90 2432 -3 
Q 2157 -96 1798 -96 
Q 1382 -96 1104 22 
Q 826 141 659 320 
Q 493 499 422 713 
Q 352 928 352 1120 
Q 352 1306 413 1475 
Q 474 1645 573 1792 
Q 672 1939 803 2057 
Q 934 2176 1082 2266 
Q 454 2624 454 3322 
Q 454 3565 550 3785 
Q 646 4006 822 4172 
Q 998 4339 1248 4438 
Q 1498 4538 1805 4538 
Q 2163 4538 2419 4429 
Q 2675 4320 2838 4150 
Q 3002 3981 3075 3776 
Q 3149 3571 3149 3379 
Q 3149 3194 3094 3030 
Q 3040 2867 2947 2726 
Q 2854 2586 2736 2477 
Q 2618 2368 2490 2285 
Q 3245 1926 3258 1152 
z
M 954 1114 
Q 954 998 995 873 
Q 1037 749 1139 643 
Q 1242 538 1402 467 
Q 1562 397 1805 397 
Q 2022 397 2185 461 
Q 2349 525 2451 624 
Q 2554 723 2605 851 
Q 2656 979 2656 1114 
Q 2656 1318 2579 1472 
Q 2502 1626 2358 1741 
Q 2214 1856 2012 1936 
Q 1811 2016 1555 2074 
Q 1267 1914 1110 1677 
Q 954 1440 954 1114 
z
M 2554 3386 
Q 2554 3482 2512 3597 
Q 2470 3712 2380 3811 
Q 2291 3910 2150 3977 
Q 2010 4045 1805 4045 
Q 1600 4045 1456 3981 
Q 1312 3917 1222 3817 
Q 1133 3718 1091 3600 
Q 1050 3482 1050 3366 
Q 1050 3226 1101 3085 
Q 1152 2944 1261 2822 
Q 1370 2701 1546 2605 
Q 1722 2509 1965 2451 
Q 2234 2611 2394 2825 
Q 2554 3040 2554 3386 
z
" transform="scale(0.015625)"/>
       </defs>
       <use xlink:href="#Ubuntu-32"/>
       <use xlink:href="#Ubuntu-30" x="56.399994"/>
       <use xlink:href="#Ubuntu-30" x="112.799988"/>
       <use xlink:href="#Ubuntu-38" x="169.199982"/>
      </g>
     </g>
    </g>
    <g id="xtick_7">
     <g id="line2d_11">
      <g>
       <use xlink:href="#m1987656a51" x="187.628406" y="207.211156" style="fill: #cccccc; stroke: #cccccc; stroke-width: 0.75"/>
      </g>
     </g>
     <g id="text_7">
      <!-- 2009 -->
      <g style="fill: #999999" transform="translate(178.603406 222.418656) scale(0.08 -0.08)">
       <defs>
        <path id="Ubuntu-39" d="M 3206 2662 
Q 3206 1344 2550 669 
Q 1894 -6 602 -13 
L 582 486 
Q 986 486 1309 563 
Q 1632 640 1875 809 
Q 2118 979 2281 1248 
Q 2445 1517 2522 1907 
Q 2355 1830 2144 1782 
Q 1933 1734 1709 1734 
Q 1331 1734 1068 1846 
Q 806 1958 640 2147 
Q 474 2336 400 2582 
Q 326 2829 326 3098 
Q 326 3334 409 3590 
Q 493 3846 662 4057 
Q 832 4269 1094 4403 
Q 1357 4538 1715 4538 
Q 2080 4538 2358 4410 
Q 2637 4282 2825 4038 
Q 3014 3795 3110 3446 
Q 3206 3098 3206 2662 
z
M 1773 2221 
Q 1997 2221 2195 2262 
Q 2394 2304 2579 2387 
Q 2586 2458 2586 2525 
Q 2586 2592 2586 2662 
Q 2586 2938 2547 3190 
Q 2509 3443 2409 3632 
Q 2310 3821 2144 3933 
Q 1978 4045 1722 4045 
Q 1510 4045 1363 3955 
Q 1216 3866 1120 3728 
Q 1024 3590 982 3427 
Q 941 3264 941 3110 
Q 941 2675 1149 2448 
Q 1357 2221 1773 2221 
z
" transform="scale(0.015625)"/>
       </defs>
       <use xlink:href="#Ubuntu-32"/>
       <use xlink:href="#Ubuntu-30" x="56.399994"/>
       <use xlink:href="#Ubuntu-30" x="112.799988"/>
       <use xlink:href="#Ubuntu-39" x="169.199982"/>
      </g>
     </g>
    </g>
    <g id="xtick_8">
     <g id="line2d_12">
      <g>
       <use xlink:href="#m1987656a51" x="213.541718" y="207.211156" style="fill: #cccccc; stroke: #cccccc; stroke-width: 0.75"/>
      </g>
     </g>
     <g id="text_8">
      <!-- 2010 -->
      <g style="fill: #999999" transform="translate(204.516718 222.418656) scale(0.08 -0.08)">
       <defs>
        <path id="Ubuntu-31" d="M 595 3520 
Q 960 3661 1305 3881 
Q 1651 4102 1939 4435 
L 2362 4435 
L 2362 0 
L 1766 0 
L 1766 3610 
Q 1690 3539 1578 3462 
Q 1466 3386 1334 3315 
Q 1203 3245 1059 3181 
Q 915 3117 781 3072 
L 595 3520 
z
" transform="scale(0.015625)"/>
       </defs>
       <use xlink:href="#Ubuntu-32"/>
       <use xlink:href="#Ubuntu-30" x="56.399994"/>
       <use xlink:href="#Ubuntu-31" x="112.799988"/>
       <use xlink:href="#Ubuntu-30" x="169.199982"/>
      </g>
     </g>
    </g>
    <g id="xtick_9">
     <g id="line2d_13">
      <g>
       <use xlink:href="#m1987656a51" x="239.455031" y="207.211156" style="fill: #cccccc; stroke: #cccccc; stroke-width: 0.75"/>
      </g>
     </g>
     <g id="text_9">
      <!-- 2011 -->
      <g style="fill: #999999" transform="translate(230.430031 222.418656) scale(0.08 -0.08)">
       <use xlink:href="#Ubuntu-32"/>
       <use xlink:href="#Ubuntu-30" x="56.399994"/>
       <use xlink:href="#Ubuntu-31" x="112.799988"/>
       <use xlink:href="#Ubuntu-31" x="169.199982"/>
      </g>
     </g>
    </g>
    <g id="xtick_10">
     <g id="line2d_14">
      <g>
       <use xlink:href="#m1987656a51" x="265.368344" y="207.211156" style="fill: #cccccc; stroke: #cccccc; stroke-width: 0.75"/>
      </g>
     </g>
     <g id="text_10">
      <!-- 2012 -->
      <g style="fill: #999999" transform="translate(256.343344 222.418656) scale(0.08 -0.08)">
       <use xlink:href="#Ubuntu-32"/>
       <use xlink:href="#Ubuntu-30" x="56.399994"/>
       <use xlink:href="#Ubuntu-31" x="112.799988"/>
       <use xlink:href="#Ubuntu-32" x="169.199982"/>
      </g>
     </g>
    </g>
    <g id="xtick_11">
     <g id="line2d_15">
      <g>
       <use xlink:href="#m1987656a51" x="291.281656" y="207.211156" style="fill: #cccccc; stroke: #cccccc; stroke-width: 0.75"/>
      </g>
     </g>
     <g id="text_11">
      <!-- 2013 -->
      <g style="fill: #999999" transform="translate(282.256656 222.418656) scale(0.08 -0.08)">
       <use xlink:href="#Ubuntu-32"/>
       <use xlink:href="#Ubuntu-30" x="56.399994"/>
       <use xlink:href="#Ubuntu-31" x="112.799988"/>
       <use xlink:href="#Ubuntu-33" x="169.199982"/>
      </g>
     </g>
    </g>
    <g id="xtick_12">
     <g id="line2d_16">
      <g>
       <use xlink:href="#m1987656a51" x="317.194969" y="207.211156" style="fill: #cccccc; stroke: #cccccc; stroke-width: 0.75"/>
      </g>
     </g>
     <g id="text_12">
      <!-- 2014 -->
      <g style="fill: #999999" transform="translate(308.169969 222.418656) scale(0.08 -0.08)">
       <use xlink:href="#Ubuntu-32"/>
       <use xlink:href="#Ubuntu-30" x="56.399994"/>
       <use xlink:href="#Ubuntu-31" x="112.799988"/>
       <use xlink:href="#Ubuntu-34" x="169.199982"/>
      </g>
     </g>
    </g>
    <g id="xtick_13">
     <g id="line2d_17">
      <g>
       <use xlink:href="#m1987656a51" x="343.108282" y="207.211156" style="fill: #cccccc; stroke: #cccccc; stroke-width: 0.75"/>
      </g>
     </g>
     <g id="text_13">
      <!-- 2015 -->
      <g style="fill: #999999" transform="translate(334.083282 222.418656) scale(0.08 -0.08)">
       <use xlink:href="#Ubuntu-32"/>
       <use xlink:href="#Ubuntu-30" x="56.399994"/>
       <use xlink:href="#Ubuntu-31" x="112.799988"/>
       <use xlink:href="#Ubuntu-35" x="169.199982"/>
      </g>
     </g>
    </g>
    <g id="xtick_14">
     <g id="line2d_18">
      <g>
       <use xlink:href="#m1987656a51" x="369.021594" y="207.211156" style="fill: #cccccc; stroke: #cccccc; stroke-width: 0.75"/>
      </g>
     </g>
     <g id="text_14">
      <!-- 2016 -->
      <g style="fill: #999999" transform="translate(359.996594 222.418656) scale(0.08 -0.08)">
       <use xlink:href="#Ubuntu-32"/>
       <use xlink:href="#Ubuntu-30" x="56.399994"/>
       <use xlink:href="#Ubuntu-31" x="112.799988"/>
       <use xlink:href="#Ubuntu-36" x="169.199982"/>
      </g>
     </g>
    </g>
    <g id="xtick_15">
     <g id="line2d_19">
      <g>
       <use xlink:href="#m1987656a51" x="394.934907" y="207.211156" style="fill: #cccccc; stroke: #cccccc; stroke-width: 0.75"/>
      </g>
     </g>
     <g id="text_15">
      <!-- 2017 -->
      <g style="fill: #999999" transform="translate(385.909907 222.418656) scale(0.08 -0.08)">
       <use xlink:href="#Ubuntu-32"/>
       <use xlink:href="#Ubuntu-30" x="56.399994"/>
       <use xlink:href="#Ubuntu-31" x="112.799988"/>
       <use xlink:href="#Ubuntu-37" x="169.199982"/>
      </g>
     </g>
    </g>
    <g id="xtick_16">
     <g id="line2d_20">
      <g>
       <use xlink:href="#m1987656a51" x="420.84822" y="207.211156" style="fill: #cccccc; stroke: #cccccc; stroke-width: 0.75"/>
      </g>
     </g>
     <g id="text_16">
      <!-- 2018 -->
      <g style="fill: #999999" transform="translate(411.82322 222.418656) scale(0.08 -0.08)">
       <use xlink:href="#Ubuntu-32"/>
       <use xlink:href="#Ubuntu-30" x="56.399994"/>
       <use xlink:href="#Ubuntu-31" x="112.799988"/>
       <use xlink:href="#Ubuntu-38" x="169.199982"/>
      </g>
     </g>
    </g>
    <g id="xtick_17">
     <g id="line2d_21">
      <g>
       <use xlink:href="#m1987656a51" x="446.761533" y="207.211156" style="fill: #cccccc; stroke: #cccccc; stroke-width: 0.75"/>
      </g>
     </g>
     <g id="text_17">
      <!-- 2019 -->
      <g style="fill: #999999" transform="translate(437.736533 222.418656) scale(0.08 -0.08)">
       <use xlink:href="#Ubuntu-32"/>
       <use xlink:href="#Ubuntu-30" x="56.399994"/>
       <use xlink:href="#Ubuntu-31" x="112.799988"/>
       <use xlink:href="#Ubuntu-39" x="169.199982"/>
      </g>
     </g>
    </g>
    <g id="xtick_18">
     <g id="line2d_22">
      <g>
       <use xlink:href="#m1987656a51" x="472.674845" y="207.211156" style="fill: #cccccc; stroke: #cccccc; stroke-width: 0.75"/>
      </g>
     </g>
     <g id="text_18">
      <!-- 2020 -->
      <g style="fill: #999999" transform="translate(463.649845 222.418656) scale(0.08 -0.08)">
       <use xlink:href="#Ubuntu-32"/>
       <use xlink:href="#Ubuntu-30" x="56.399994"/>
       <use xlink:href="#Ubuntu-32" x="112.799988"/>
       <use xlink:href="#Ubuntu-30" x="169.199982"/>
      </g>
     </g>
    </g>
    <g id="xtick_19">
     <g id="line2d_23">
      <g>
       <use xlink:href="#m1987656a51" x="498.588158" y="207.211156" style="fill: #cccccc; stroke: #cccccc; stroke-width: 0.75"/>
      </g>
     </g>
     <g id="text_19">
      <!-- 2021 -->
      <g style="fill: #999999" transform="translate(489.563158 222.418656) scale(0.08 -0.08)">
       <use xlink:href="#Ubuntu-32"/>
       <use xlink:href="#Ubuntu-30" x="56.399994"/>
       <use xlink:href="#Ubuntu-32" x="112.799988"/>
       <use xlink:href="#Ubuntu-31" x="169.199982"/>
      </g>
     </g>
    </g>
    <g id="xtick_20">
     <g id="line2d_24">
      <g>
       <use xlink:href="#m1987656a51" x="524.501471" y="207.211156" style="fill: #cccccc; stroke: #cccccc; stroke-width: 0.75"/>
      </g>
     </g>
     <g id="text_20">
      <!-- 2022 -->
      <g style="fill: #999999" transform="translate(515.476471 222.418656) scale(0.08 -0.08)">
       <use xlink:href="#Ubuntu-32"/>
       <use xlink:href="#Ubuntu-30" x="56.399994"/>
       <use xlink:href="#Ubuntu-32" x="112.799988"/>
       <use xlink:href="#Ubuntu-32" x="169.199982"/>
      </g>
     </g>
    </g>
   </g>
   <g id="matplotlib.axis_2">
    <g id="ytick_1">
     <g id="line2d_25">
      <defs>
       <path id="m43db34fc0a" d="M 0 0 
L -3 0 
" style="stroke: #cccccc; stroke-width: 0.75"/>
      </defs>
      <g>
       <use xlink:href="#m43db34fc0a" x="25.225" y="202.211156" style="fill: #cccccc; stroke: #cccccc; stroke-width: 0.75"/>
      </g>
     </g>
     <g id="text_21">
      <!-- 15 -->
      <g style="fill: #999999" transform="translate(7.2 205.314906) scale(0.08 -0.08)">
       <use xlink:href="#Ubuntu-31"/>
       <use xlink:href="#Ubuntu-35" x="56.399994"/>
      </g>
     </g>
    </g>
    <g id="ytick_2">
     <g id="line2d_26">
      <g>
       <use xlink:href="#m43db34fc0a" x="25.225" y="174.491156" style="fill: #cccccc; stroke: #cccccc; stroke-width: 0.75"/>
      </g>
     </g>
     <g id="text_22">
      <!-- 20 -->
      <g style="fill: #999999" transform="translate(7.2 177.594906) scale(0.08 -0.08)">
       <use xlink:href="#Ubuntu-32"/>
       <use xlink:href="#Ubuntu-30" x="56.399994"/>
      </g>
     </g>
    </g>
    <g id="ytick_3">
     <g id="line2d_27">
      <g>
       <use xlink:href="#m43db34fc0a" x="25.225" y="146.771156" style="fill: #cccccc; stroke: #cccccc; stroke-width: 0.75"/>
      </g>
     </g>
     <g id="text_23">
      <!-- 25 -->
      <g style="fill: #999999" transform="translate(7.2 149.874906) scale(0.08 -0.08)">
       <use xlink:href="#Ubuntu-32"/>
       <use xlink:href="#Ubuntu-35" x="56.399994"/>
      </g>
     </g>
    </g>
    <g id="ytick_4">
     <g id="line2d_28">
      <g>
       <use xlink:href="#m43db34fc0a" x="25.225" y="119.051156" style="fill: #cccccc; stroke: #cccccc; stroke-width: 0.75"/>
      </g>
     </g>
     <g id="text_24">
      <!-- 30 -->
      <g style="fill: #999999" transform="translate(7.2 122.154906) scale(0.08 -0.08)">
       <use xlink:href="#Ubuntu-33"/>
       <use xlink:href="#Ubuntu-30" x="56.399994"/>
      </g>
     </g>
    </g>
    <g id="ytick_5">
     <g id="line2d_29">
      <g>
       <use xlink:href="#m43db34fc0a" x="25.225" y="91.331156" style="fill: #cccccc; stroke: #cccccc; stroke-width: 0.75"/>
      </g>
     </g>
     <g id="text_25">
      <!-- 35 -->
      <g style="fill: #999999" transform="translate(7.2 94.434906) scale(0.08 -0.08)">
       <use xlink:href="#Ubuntu-33"/>
       <use xlink:href="#Ubuntu-35" x="56.399994"/>
      </g>
     </g>
    </g>
    <g id="ytick_6">
     <g id="line2d_30">
      <g>
       <use xlink:href="#m43db34fc0a" x="25.225" y="63.611156" style="fill: #cccccc; stroke: #cccccc; stroke-width: 0.75"/>
      </g>
     </g>
     <g id="text_26">
      <!-- 40 -->
      <g style="fill: #999999" transform="translate(7.2 66.714906) scale(0.08 -0.08)">
       <use xlink:href="#Ubuntu-34"/>
       <use xlink:href="#Ubuntu-30" x="56.399994"/>
      </g>
     </g>
    </g>
    <g id="ytick_7">
     <g id="line2d_31">
      <g>
       <use xlink:href="#m43db34fc0a" x="25.225" y="35.891156" style="fill: #cccccc; stroke: #cccccc; stroke-width: 0.75"/>
      </g>
     </g>
     <g id="text_27">
      <!-- 45 -->
      <g style="fill: #999999" transform="translate(7.2 38.994906) scale(0.08 -0.08)">
       <use xlink:href="#Ubuntu-34"/>
       <use xlink:href="#Ubuntu-35" x="56.399994"/>
      </g>
     </g>
    </g>
   </g>
   <g id="line2d_32">
    <path d="M 32.148529 51.313344 
L 33.795195 50.931615 
L 35.44186 50.720231 
L 37.088525 50.670704 
L 38.735191 50.774543 
L 40.381856 51.023259 
L 42.028522 51.408362 
L 43.675187 51.921363 
L 46.968518 53.297099 
L 50.261848 55.082548 
L 53.555179 57.209794 
L 56.84851 59.610919 
L 61.788506 63.577561 
L 76.608494 75.965756 
L 79.901825 78.382348 
L 83.195155 80.529479 
L 86.488486 82.351014 
L 89.781817 83.888975 
L 94.721813 85.862877 
L 102.95514 89.023927 
L 106.24847 90.509033 
L 109.541801 92.256922 
L 112.835132 94.334272 
L 116.128463 96.673421 
L 127.65512 105.282129 
L 130.948451 107.393586 
L 134.241781 109.142006 
L 135.888447 109.844575 
L 137.535112 110.41771 
L 139.181777 110.864569 
L 140.828443 111.191177 
L 144.121774 111.507734 
L 147.415104 111.415571 
L 150.708435 110.962881 
L 154.001766 110.197855 
L 157.295096 109.168684 
L 160.588427 107.92356 
L 165.528423 105.764499 
L 173.76175 102.003307 
L 177.055081 100.673817 
L 180.348411 99.56367 
L 183.641742 98.752435 
L 186.935073 98.31968 
L 190.228404 98.327088 
L 193.521734 98.699609 
L 198.46173 99.640633 
L 203.401726 100.624831 
L 206.695057 101.074105 
L 209.988388 101.196303 
L 211.635053 101.091466 
L 213.281718 100.85292 
L 214.928384 100.467511 
L 218.221715 99.321765 
L 221.515045 97.839169 
L 228.101707 94.646425 
L 231.395037 93.327776 
L 233.041703 92.823523 
L 234.688368 92.455276 
L 236.335033 92.247504 
L 237.981699 92.224675 
L 239.628364 92.411249 
L 241.27503 92.820709 
L 242.921695 93.434422 
L 244.56836 94.227914 
L 246.215026 95.176709 
L 249.508356 97.442306 
L 252.801687 100.035411 
L 259.388348 105.420933 
L 262.681679 107.821745 
L 264.328344 108.8635 
L 265.97501 109.767156 
L 267.621675 110.522752 
L 269.268341 111.140401 
L 272.561671 112.008373 
L 275.855002 112.464097 
L 279.148333 112.6006 
L 282.441663 112.510907 
L 305.494978 111.072891 
L 308.788309 110.53264 
L 312.08164 109.694469 
L 315.37497 108.480411 
L 318.668301 106.815588 
L 321.961632 104.717335 
L 325.254963 102.308787 
L 338.428285 92.150712 
L 341.721616 90.124993 
L 343.368282 89.277844 
L 345.014947 88.55674 
L 348.308278 87.471868 
L 351.601608 86.81731 
L 354.894939 86.537706 
L 358.18827 86.577696 
L 361.4816 86.881922 
L 364.774931 87.395022 
L 369.714927 88.435259 
L 376.301589 90.089063 
L 389.474911 93.478812 
L 394.414908 94.508365 
L 399.354904 95.295545 
L 415.821557 97.55194 
L 419.114888 98.237667 
L 422.408219 99.092923 
L 433.934876 102.455829 
L 437.228207 103.068696 
L 440.521537 103.323706 
L 442.168203 103.282378 
L 443.814868 103.110022 
L 445.461534 102.792782 
L 447.108199 102.31686 
L 448.754864 101.678781 
L 452.048195 99.994675 
L 455.341526 97.912132 
L 466.868183 90.006233 
L 470.161514 88.291317 
L 471.808179 87.633633 
L 473.454845 87.137606 
L 475.10151 86.808186 
L 476.748175 86.632907 
L 478.394841 86.598454 
L 480.041506 86.69151 
L 483.334837 87.206878 
L 486.628167 88.072476 
L 489.921498 89.181769 
L 501.448156 93.445275 
L 504.741486 94.332811 
L 508.034817 94.878095 
L 509.681482 94.9891 
L 511.328148 94.974591 
L 512.974813 94.82125 
L 514.621478 94.515762 
L 516.268144 94.044808 
L 517.914809 93.395073 
L 519.561475 92.553239 
L 521.20814 91.505989 
L 522.854805 90.240006 
L 524.501471 88.741973 
L 524.501471 88.741973 
" clip-path="url(#p9c4b4ed129)" style="fill: none; stroke: #6d6d6d; stroke-width: 1.2; stroke-linecap: square"/>
   </g>
   <g id="line2d_33">
    <path d="M 32.148529 89.22189 
L 33.795195 90.035641 
L 35.44186 90.69058 
L 37.088525 91.195247 
L 38.735191 91.558182 
L 40.381856 91.787926 
L 42.028522 91.893018 
L 45.321852 91.763407 
L 48.615183 91.237671 
L 51.908514 90.38413 
L 55.201844 89.271104 
L 60.14184 87.264483 
L 73.315163 81.564254 
L 76.608494 80.429893 
L 79.901825 79.548453 
L 83.195155 78.988252 
L 86.488486 78.802631 
L 89.781817 78.920105 
L 101.308474 79.788216 
L 104.601805 79.614396 
L 106.24847 79.373479 
L 107.895136 79.00757 
L 109.541801 78.499931 
L 111.188466 77.836808 
L 112.835132 77.027283 
L 116.128463 75.047575 
L 119.421793 72.718185 
L 130.948451 64.084521 
L 134.241781 62.129804 
L 135.888447 61.336183 
L 137.535112 60.686559 
L 139.181777 60.179712 
L 140.828443 59.810971 
L 142.475108 59.575664 
L 144.121774 59.469119 
L 145.768439 59.486666 
L 147.415104 59.623631 
L 150.708435 60.237134 
L 154.001766 61.272255 
L 157.295096 62.691621 
L 160.588427 64.457861 
L 163.881758 66.52999 
L 168.821754 70.018361 
L 175.408415 74.784981 
L 178.701746 76.962507 
L 181.995077 78.851574 
L 185.288407 80.33873 
L 186.935073 80.896137 
L 188.581738 81.311405 
L 190.228404 81.585615 
L 191.875069 81.731549 
L 195.1684 81.691067 
L 198.46173 81.294923 
L 201.755061 80.648082 
L 214.928384 77.650907 
L 218.221715 77.245595 
L 223.161711 76.873496 
L 231.395037 76.335775 
L 234.688368 75.958252 
L 237.981699 75.389531 
L 241.27503 74.567928 
L 244.56836 73.502645 
L 249.508356 71.603756 
L 259.388348 67.626601 
L 262.681679 66.515615 
L 265.97501 65.633632 
L 269.268341 65.020671 
L 272.561671 64.639977 
L 275.855002 64.443872 
L 280.794998 64.391518 
L 295.614986 64.522004 
L 300.554982 64.519065 
L 303.848313 64.673785 
L 307.141644 65.047115 
L 310.434974 65.718994 
L 313.728305 66.769366 
L 315.37497 67.461468 
L 317.021636 68.27817 
L 320.314967 70.296673 
L 323.608297 72.741772 
L 326.901628 75.491049 
L 333.488289 81.412445 
L 338.428285 85.741434 
L 341.721616 88.344521 
L 345.014947 90.582632 
L 348.308278 92.405509 
L 351.601608 93.818214 
L 354.894939 94.827411 
L 358.18827 95.439767 
L 361.4816 95.661947 
L 364.774931 95.500619 
L 368.068262 94.962447 
L 371.361593 94.05942 
L 374.654923 92.856481 
L 379.594919 90.69834 
L 387.828246 86.955406 
L 391.121577 85.686158 
L 394.414908 84.690657 
L 397.708238 84.049448 
L 401.001569 83.74524 
L 404.2949 83.721819 
L 407.58823 83.922872 
L 412.528226 84.522151 
L 428.99488 86.945445 
L 435.581541 87.526034 
L 440.521537 87.768787 
L 445.461534 87.83347 
L 452.048195 87.647867 
L 463.574852 87.171049 
L 468.514849 87.197333 
L 471.808179 87.374625 
L 475.10151 87.714048 
L 480.041506 88.49663 
L 484.981502 89.510669 
L 501.448156 93.160782 
L 506.388152 93.916313 
L 509.681482 94.231866 
L 512.974813 94.359176 
L 516.268144 94.265897 
L 519.561475 93.919681 
L 522.854805 93.288184 
L 524.501471 92.855347 
L 524.501471 92.855347 
" clip-path="url(#p9c4b4ed129)" style="fill: none; stroke: #5a9b87; stroke-width: 1.2; stroke-linecap: square"/>
   </g>
   <g id="line2d_34">
    <path d="M 32.148529 175.689319 
L 35.44186 175.065385 
L 38.735191 174.269185 
L 43.675187 172.782086 
L 48.615183 170.985042 
L 53.555179 168.924643 
L 58.495175 166.647481 
L 65.081837 163.354605 
L 74.961829 158.089634 
L 88.135151 151.045112 
L 94.721813 147.814908 
L 99.661809 145.671786 
L 102.95514 144.421754 
L 106.24847 143.343071 
L 109.541801 142.460059 
L 112.835132 141.790271 
L 116.128463 141.314041 
L 121.068459 140.891775 
L 126.008455 140.722816 
L 137.535112 140.700008 
L 144.121774 140.559173 
L 150.708435 140.170571 
L 155.648431 139.660143 
L 160.588427 138.918087 
L 165.528423 137.915333 
L 172.115085 136.276095 
L 185.288407 132.82243 
L 190.228404 131.764191 
L 193.521734 131.215098 
L 196.815065 130.834341 
L 200.108396 130.659196 
L 203.401726 130.726938 
L 206.695057 131.074844 
L 209.988388 131.740189 
L 213.281718 132.76025 
L 216.575049 134.150265 
L 219.86838 135.813677 
L 229.748372 141.124959 
L 233.041703 142.5626 
L 236.335033 143.613946 
L 237.981699 143.953526 
L 239.628364 144.147061 
L 241.27503 144.18525 
L 242.921695 144.079814 
L 244.56836 143.8463 
L 247.861691 143.057229 
L 251.155022 141.942412 
L 256.095018 139.931487 
L 261.035014 137.887252 
L 264.328344 136.713217 
L 267.621675 135.826018 
L 270.915006 135.239207 
L 274.208337 134.903845 
L 277.501667 134.770078 
L 282.441663 134.838365 
L 300.554982 135.529847 
L 315.37497 135.791629 
L 323.608297 136.215689 
L 330.194959 136.512899 
L 335.134955 136.518138 
L 338.428285 136.348758 
L 341.721616 135.998007 
L 345.014947 135.432483 
L 349.954943 134.248081 
L 361.4816 131.161905 
L 364.774931 130.520019 
L 368.068262 130.116266 
L 371.361593 130.013664 
L 374.654923 130.188408 
L 377.948254 130.566915 
L 384.534915 131.638518 
L 389.474911 132.425426 
L 392.768242 132.802958 
L 396.061573 132.97689 
L 399.354904 132.907276 
L 402.648234 132.605089 
L 405.941565 132.085548 
L 409.234896 131.363869 
L 412.528226 130.455269 
L 415.821557 129.374965 
L 420.761553 127.465851 
L 430.641545 123.256083 
L 433.934876 122.140088 
L 437.228207 121.367761 
L 438.874872 121.147978 
L 440.521537 121.059121 
L 442.168203 121.116191 
L 443.814868 121.334191 
L 445.461534 121.728125 
L 447.108199 122.312926 
L 448.754864 123.091001 
L 450.40153 124.037613 
L 453.69486 126.323291 
L 458.634856 130.308621 
L 463.574852 134.283208 
L 466.868183 136.549787 
L 468.514849 137.483268 
L 470.161514 138.245825 
L 471.808179 138.809171 
L 473.454845 139.145864 
L 475.10151 139.250589 
L 476.748175 139.14173 
L 478.394841 138.838833 
L 480.041506 138.361443 
L 481.688171 137.729106 
L 484.981502 136.077776 
L 488.274833 134.041209 
L 493.214829 130.606092 
L 498.154825 127.183756 
L 501.448156 125.169909 
L 504.741486 123.55266 
L 506.388152 122.941624 
L 508.034817 122.488374 
L 509.681482 122.212457 
L 511.328148 122.133419 
L 512.974813 122.270805 
L 514.621478 122.644161 
L 516.268144 123.273033 
L 517.914809 124.176966 
L 519.561475 125.375508 
L 521.20814 126.888202 
L 522.854805 128.734597 
L 524.501471 130.934236 
L 524.501471 130.934236 
" clip-path="url(#p9c4b4ed129)" style="fill: none; stroke: #7099bc; stroke-width: 1.2; stroke-linecap: square"/>
   </g>
   <g id="line2d_35">
    <path d="M 27.225 119.051156 
L 529.425 119.051156 
" clip-path="url(#p9c4b4ed129)" style="fill: none; stroke-dasharray: 2.775,1.2; stroke-dashoffset: 0; stroke: #c5c5c5; stroke-width: 0.75"/>
   </g>
   <g id="patch_3">
    <path d="M 25.225 202.211156 
L 25.225 35.891156 
" style="fill: none; stroke: #cccccc; stroke-width: 0.75; stroke-linejoin: miter; stroke-linecap: square"/>
   </g>
   <g id="patch_4">
    <path d="M 32.148529 207.211156 
L 524.501471 207.211156 
" style="fill: none; stroke: #cccccc; stroke-width: 0.75; stroke-linejoin: miter; stroke-linecap: square"/>
   </g>
   <g id="text_28">
    <!-- Мировой финансовый кризис -->
    <g style="fill: #4b4b4b" transform="translate(138.911378 49.342906) scale(0.08 -0.08)">
     <defs>
      <path id="Ubuntu-BoldItalic-41c" d="M 2662 4435 
Q 2701 4262 2761 3945 
Q 2822 3629 2889 3248 
Q 2957 2867 3027 2467 
Q 3098 2067 3155 1734 
Q 3373 2067 3629 2451 
Q 3885 2835 4134 3206 
Q 4384 3578 4608 3901 
Q 4832 4224 4992 4435 
L 5875 4435 
Q 5830 3994 5756 3443 
Q 5683 2893 5590 2304 
Q 5498 1715 5395 1120 
Q 5293 525 5190 0 
L 4218 0 
Q 4352 653 4502 1411 
Q 4653 2170 4781 2944 
Q 4614 2682 4409 2358 
Q 4205 2035 4000 1705 
Q 3795 1376 3603 1075 
Q 3411 774 3270 563 
L 2541 563 
Q 2509 755 2464 1049 
Q 2419 1344 2364 1673 
Q 2310 2003 2252 2339 
Q 2195 2675 2144 2944 
Q 1894 2170 1692 1411 
Q 1491 653 1318 0 
L 352 0 
Q 499 525 675 1120 
Q 851 1715 1040 2307 
Q 1229 2899 1414 3449 
Q 1600 4000 1766 4435 
L 2662 4435 
z
" transform="scale(0.015625)"/>
      <path id="Ubuntu-BoldItalic-438" d="M 3974 3366 
L 3520 1453 
Q 3430 1088 3468 720 
Q 3507 352 3616 64 
L 2765 -58 
Q 2694 83 2630 256 
Q 2451 115 2227 19 
Q 2003 -77 1728 -77 
Q 1350 -77 1116 60 
Q 883 198 768 425 
Q 653 653 643 947 
Q 634 1242 710 1549 
L 1146 3366 
L 2099 3366 
L 1670 1562 
Q 1638 1421 1616 1273 
Q 1594 1126 1613 1001 
Q 1632 877 1712 797 
Q 1792 717 1965 717 
Q 2112 717 2237 771 
Q 2362 826 2502 960 
Q 2515 1120 2544 1296 
Q 2573 1472 2605 1619 
L 3021 3366 
L 3974 3366 
z
" transform="scale(0.015625)"/>
      <path id="Ubuntu-BoldItalic-440" d="M 1568 742 
Q 1677 717 1837 717 
Q 2086 717 2291 809 
Q 2496 902 2640 1068 
Q 2784 1235 2864 1468 
Q 2944 1702 2944 1984 
Q 2944 2259 2822 2451 
Q 2701 2643 2400 2643 
Q 2195 2643 2016 2605 
L 1568 742 
z
M 3891 2054 
Q 3891 1587 3737 1200 
Q 3584 813 3312 531 
Q 3040 250 2659 93 
Q 2278 -64 1830 -64 
Q 1613 -64 1395 -26 
L 1107 -1184 
L 160 -1184 
L 1222 3245 
Q 1478 3322 1808 3382 
Q 2138 3443 2522 3443 
Q 2880 3443 3139 3334 
Q 3398 3226 3564 3037 
Q 3731 2848 3811 2595 
Q 3891 2342 3891 2054 
z
" transform="scale(0.015625)"/>
      <path id="Ubuntu-BoldItalic-43e" d="M 1971 -90 
Q 1632 -90 1382 12 
Q 1133 115 969 300 
Q 806 486 723 739 
Q 640 992 640 1299 
Q 640 1683 765 2067 
Q 890 2451 1133 2758 
Q 1376 3066 1728 3261 
Q 2080 3456 2534 3456 
Q 2867 3456 3120 3353 
Q 3373 3251 3536 3065 
Q 3699 2880 3782 2627 
Q 3866 2374 3866 2067 
Q 3866 1683 3744 1299 
Q 3622 915 3385 608 
Q 3149 301 2793 105 
Q 2438 -90 1971 -90 
z
M 2445 2650 
Q 2234 2650 2074 2528 
Q 1914 2406 1805 2220 
Q 1696 2035 1641 1814 
Q 1587 1594 1587 1395 
Q 1587 1069 1689 893 
Q 1792 717 2061 717 
Q 2272 717 2432 838 
Q 2592 960 2701 1145 
Q 2810 1331 2864 1552 
Q 2918 1773 2918 1971 
Q 2918 2298 2816 2474 
Q 2714 2650 2445 2650 
z
" transform="scale(0.015625)"/>
      <path id="Ubuntu-BoldItalic-432" d="M 1485 704 
Q 1574 685 1699 675 
Q 1824 666 1914 666 
Q 2048 666 2179 688 
Q 2310 710 2416 761 
Q 2522 813 2589 905 
Q 2656 998 2656 1133 
Q 2656 1286 2509 1347 
Q 2362 1408 2086 1408 
L 1658 1408 
L 1485 704 
z
M 2170 2048 
Q 2541 2048 2688 2163 
Q 2835 2278 2835 2406 
Q 2835 2554 2732 2627 
Q 2630 2701 2496 2701 
Q 2189 2701 2045 2553 
Q 1901 2406 1837 2150 
L 1811 2048 
L 2170 2048 
z
M 877 2048 
Q 966 2419 1126 2681 
Q 1286 2944 1504 3113 
Q 1722 3283 1984 3360 
Q 2246 3437 2547 3437 
Q 3091 3437 3408 3206 
Q 3725 2976 3725 2592 
Q 3725 2323 3549 2076 
Q 3373 1830 3066 1734 
Q 3302 1651 3430 1462 
Q 3558 1274 3558 1043 
Q 3558 851 3475 652 
Q 3392 454 3184 294 
Q 2976 134 2621 32 
Q 2266 -70 1728 -70 
Q 1421 -70 1101 -25 
Q 781 19 416 115 
L 877 2048 
z
" transform="scale(0.015625)"/>
      <path id="Ubuntu-BoldItalic-439" d="M 3974 3366 
L 3520 1453 
Q 3430 1088 3468 720 
Q 3507 352 3616 64 
L 2765 -58 
Q 2694 83 2630 256 
Q 2451 115 2227 19 
Q 2003 -77 1728 -77 
Q 1350 -77 1116 60 
Q 883 198 768 425 
Q 653 653 643 947 
Q 634 1242 710 1549 
L 1146 3366 
L 2099 3366 
L 1670 1562 
Q 1638 1421 1616 1273 
Q 1594 1126 1613 1001 
Q 1632 877 1712 797 
Q 1792 717 1965 717 
Q 2112 717 2237 771 
Q 2362 826 2502 960 
Q 2515 1120 2544 1296 
Q 2573 1472 2605 1619 
L 3021 3366 
L 3974 3366 
z
M 2611 3827 
Q 2413 3827 2243 3888 
Q 2074 3949 1949 4067 
Q 1824 4186 1747 4355 
Q 1670 4525 1664 4742 
L 2336 4909 
Q 2342 4666 2451 4566 
Q 2560 4467 2720 4467 
Q 2886 4467 3017 4556 
Q 3149 4646 3264 4902 
L 3866 4698 
Q 3712 4250 3392 4038 
Q 3072 3827 2611 3827 
z
" transform="scale(0.015625)"/>
      <path id="Ubuntu-BoldItalic-20" transform="scale(0.015625)"/>
      <path id="Ubuntu-BoldItalic-444" d="M 640 1440 
Q 640 1901 819 2256 
Q 998 2611 1299 2860 
Q 1600 3110 2000 3254 
Q 2400 3398 2842 3437 
L 3174 4806 
L 4141 4966 
L 3763 3398 
Q 4045 3341 4291 3222 
Q 4538 3104 4720 2921 
Q 4902 2739 5004 2480 
Q 5107 2221 5107 1888 
Q 5107 1542 4963 1200 
Q 4819 858 4540 579 
Q 4262 301 3849 121 
Q 3437 -58 2906 -70 
L 2637 -1184 
L 1734 -1184 
L 2003 -51 
Q 1318 64 979 470 
Q 640 877 640 1440 
z
M 3059 614 
Q 3283 634 3478 742 
Q 3674 851 3818 1020 
Q 3962 1190 4045 1411 
Q 4128 1632 4128 1875 
Q 4128 1997 4093 2118 
Q 4058 2240 3987 2345 
Q 3917 2451 3808 2528 
Q 3699 2605 3546 2637 
L 3059 614 
z
M 1606 1440 
Q 1606 1318 1641 1196 
Q 1677 1075 1747 969 
Q 1818 864 1926 787 
Q 2035 710 2189 678 
L 2669 2701 
Q 2419 2669 2224 2557 
Q 2029 2445 1891 2275 
Q 1754 2106 1680 1891 
Q 1606 1677 1606 1440 
z
" transform="scale(0.015625)"/>
      <path id="Ubuntu-BoldItalic-43d" d="M 3347 0 
L 2394 0 
L 2714 1331 
L 1722 1331 
L 1402 0 
L 448 0 
L 1261 3366 
L 2214 3366 
L 1914 2112 
L 2906 2112 
L 3206 3366 
L 4160 3366 
L 3347 0 
z
" transform="scale(0.015625)"/>
      <path id="Ubuntu-BoldItalic-430" d="M 3603 1453 
Q 3514 1088 3552 720 
Q 3590 352 3699 64 
L 2848 -58 
Q 2810 19 2778 89 
Q 2746 160 2714 250 
Q 2534 102 2316 6 
Q 2099 -90 1830 -90 
Q 1510 -90 1283 22 
Q 1056 134 912 323 
Q 768 512 704 765 
Q 640 1018 640 1306 
Q 640 1747 797 2137 
Q 954 2528 1232 2819 
Q 1510 3110 1888 3276 
Q 2266 3443 2707 3443 
Q 2765 3443 2909 3436 
Q 3053 3430 3238 3408 
Q 3424 3386 3629 3334 
Q 3834 3283 4019 3194 
L 3603 1453 
z
M 2938 2630 
Q 2854 2643 2787 2649 
Q 2720 2656 2624 2656 
Q 2406 2656 2217 2547 
Q 2029 2438 1888 2262 
Q 1747 2086 1667 1856 
Q 1587 1626 1587 1376 
Q 1587 1069 1689 889 
Q 1792 710 2067 710 
Q 2214 710 2332 768 
Q 2451 826 2586 960 
Q 2598 1120 2627 1296 
Q 2656 1472 2688 1619 
L 2938 2630 
z
" transform="scale(0.015625)"/>
      <path id="Ubuntu-BoldItalic-441" d="M 640 1344 
Q 640 1779 781 2163 
Q 922 2547 1184 2835 
Q 1446 3123 1820 3289 
Q 2195 3456 2656 3456 
Q 2944 3456 3171 3401 
Q 3398 3347 3584 3258 
L 3258 2515 
Q 3130 2566 2992 2608 
Q 2854 2650 2656 2650 
Q 2176 2650 1901 2326 
Q 1626 2003 1626 1446 
Q 1626 1120 1766 918 
Q 1907 717 2285 717 
Q 2470 717 2643 755 
Q 2816 794 2950 851 
L 3021 90 
Q 2842 19 2627 -35 
Q 2413 -90 2106 -90 
Q 1709 -90 1433 25 
Q 1158 141 979 336 
Q 800 531 720 793 
Q 640 1056 640 1344 
z
" transform="scale(0.015625)"/>
      <path id="Ubuntu-BoldItalic-44b" d="M 2125 1504 
Q 2016 1504 1904 1491 
Q 1792 1478 1722 1459 
L 1542 691 
Q 1632 678 1728 672 
Q 1824 666 1920 666 
Q 2291 666 2480 794 
Q 2669 922 2669 1146 
Q 2669 1504 2125 1504 
z
M 1229 3366 
L 2182 3366 
L 1894 2170 
Q 2170 2221 2406 2221 
Q 2976 2221 3273 1955 
Q 3571 1690 3571 1210 
Q 3571 941 3462 707 
Q 3354 474 3133 301 
Q 2912 128 2576 29 
Q 2240 -70 1779 -70 
Q 1158 -70 448 102 
L 1229 3366 
z
M 4800 0 
L 3853 0 
L 4653 3366 
L 5606 3366 
L 4800 0 
z
" transform="scale(0.015625)"/>
      <path id="Ubuntu-BoldItalic-43a" d="M 1914 2150 
Q 2086 2304 2265 2467 
Q 2445 2630 2614 2793 
Q 2784 2957 2931 3104 
Q 3078 3251 3194 3366 
L 4346 3366 
Q 3987 2970 3590 2586 
Q 3194 2202 2662 1779 
Q 2797 1613 2934 1395 
Q 3072 1178 3197 938 
Q 3322 698 3427 458 
Q 3533 218 3603 0 
L 2541 0 
Q 2483 166 2396 364 
Q 2310 563 2204 758 
Q 2099 954 1984 1139 
Q 1869 1325 1754 1472 
L 1395 0 
L 448 0 
L 1254 3366 
L 2208 3366 
L 1914 2150 
z
" transform="scale(0.015625)"/>
      <path id="Ubuntu-BoldItalic-437" d="M 960 3258 
Q 1222 3347 1510 3395 
Q 1798 3443 2067 3443 
Q 2362 3443 2576 3376 
Q 2790 3309 2931 3197 
Q 3072 3085 3142 2937 
Q 3213 2790 3213 2630 
Q 3213 2387 3053 2147 
Q 2893 1907 2586 1760 
Q 2790 1658 2899 1478 
Q 3008 1299 3008 1088 
Q 3008 774 2864 550 
Q 2720 326 2483 185 
Q 2246 45 1952 -22 
Q 1658 -90 1350 -90 
Q 1043 -90 758 -26 
Q 474 38 256 147 
L 538 883 
Q 678 800 915 745 
Q 1152 691 1395 691 
Q 1530 691 1651 710 
Q 1773 730 1865 778 
Q 1958 826 2012 899 
Q 2067 973 2067 1082 
Q 2067 1248 1932 1302 
Q 1798 1357 1613 1357 
L 1056 1357 
L 1216 2035 
L 1779 2035 
Q 2048 2035 2163 2153 
Q 2278 2272 2278 2419 
Q 2278 2560 2150 2611 
Q 2022 2662 1837 2662 
Q 1722 2662 1594 2646 
Q 1466 2630 1354 2611 
Q 1242 2592 1149 2569 
Q 1056 2547 1011 2534 
L 960 3258 
z
" transform="scale(0.015625)"/>
     </defs>
     <use xlink:href="#Ubuntu-BoldItalic-41c"/>
     <use xlink:href="#Ubuntu-BoldItalic-438" x="87.799988"/>
     <use xlink:href="#Ubuntu-BoldItalic-440" x="145.899979"/>
     <use xlink:href="#Ubuntu-BoldItalic-43e" x="203.699966"/>
     <use xlink:href="#Ubuntu-BoldItalic-432" x="261.09996"/>
     <use xlink:href="#Ubuntu-BoldItalic-43e" x="316.299957"/>
     <use xlink:href="#Ubuntu-BoldItalic-439" x="373.699951"/>
     <use xlink:href="#Ubuntu-BoldItalic-20" x="431.799942"/>
     <use xlink:href="#Ubuntu-BoldItalic-444" x="455.799927"/>
     <use xlink:href="#Ubuntu-BoldItalic-438" x="533.599915"/>
     <use xlink:href="#Ubuntu-BoldItalic-43d" x="591.699905"/>
     <use xlink:href="#Ubuntu-BoldItalic-430" x="651.19989"/>
     <use xlink:href="#Ubuntu-BoldItalic-43d" x="709.999878"/>
     <use xlink:href="#Ubuntu-BoldItalic-441" x="769.499863"/>
     <use xlink:href="#Ubuntu-BoldItalic-43e" x="815.499847"/>
     <use xlink:href="#Ubuntu-BoldItalic-432" x="872.899841"/>
     <use xlink:href="#Ubuntu-BoldItalic-44b" x="928.099838"/>
     <use xlink:href="#Ubuntu-BoldItalic-439" x="1010.199829"/>
     <use xlink:href="#Ubuntu-BoldItalic-20" x="1068.29982"/>
     <use xlink:href="#Ubuntu-BoldItalic-43a" x="1092.299805"/>
     <use xlink:href="#Ubuntu-BoldItalic-440" x="1149.699799"/>
     <use xlink:href="#Ubuntu-BoldItalic-438" x="1207.499786"/>
     <use xlink:href="#Ubuntu-BoldItalic-437" x="1267.099777"/>
     <use xlink:href="#Ubuntu-BoldItalic-438" x="1314.299774"/>
     <use xlink:href="#Ubuntu-BoldItalic-441" x="1372.399765"/>
    </g>
   </g>
   <g id="text_29">
    <!-- ? -->
    <g style="fill: #4b4b4b" transform="translate(225.202709 168.557175) scale(0.09 -0.09)">
     <defs>
      <path id="Ubuntu-Bold-3f" d="M 1286 3725 
Q 1056 3725 851 3667 
Q 646 3610 397 3482 
L 128 4205 
Q 378 4365 717 4451 
Q 1056 4538 1382 4538 
Q 1792 4538 2057 4429 
Q 2323 4320 2476 4153 
Q 2630 3987 2691 3788 
Q 2752 3590 2752 3411 
Q 2752 3232 2697 3081 
Q 2643 2931 2560 2803 
Q 2477 2675 2368 2560 
Q 2259 2445 2157 2342 
Q 2080 2266 1997 2179 
Q 1914 2093 1846 1997 
Q 1779 1901 1734 1795 
Q 1690 1690 1690 1581 
Q 1690 1555 1690 1504 
Q 1690 1453 1696 1414 
L 851 1414 
Q 838 1478 835 1558 
Q 832 1638 832 1696 
Q 832 1875 877 2019 
Q 922 2163 995 2288 
Q 1069 2413 1165 2521 
Q 1261 2630 1363 2733 
Q 1510 2880 1632 3024 
Q 1754 3168 1754 3354 
Q 1754 3507 1635 3616 
Q 1517 3725 1286 3725 
z
M 1882 506 
Q 1882 224 1699 70 
Q 1517 -83 1286 -83 
Q 1056 -83 873 70 
Q 691 224 691 506 
Q 691 787 873 940 
Q 1056 1094 1286 1094 
Q 1517 1094 1699 940 
Q 1882 787 1882 506 
z
" transform="scale(0.015625)"/>
     </defs>
     <use xlink:href="#Ubuntu-Bold-3f"/>
    </g>
   </g>
   <g id="text_30">
    <!-- Крымская кампания -->
    <g style="fill: #4b4b4b" transform="translate(302.942647 54.886906) scale(0.08 -0.08)">
     <defs>
      <path id="Ubuntu-BoldItalic-41a" d="M 3091 0 
Q 3002 218 2877 467 
Q 2752 717 2601 966 
Q 2451 1216 2278 1446 
Q 2106 1677 1926 1856 
L 1472 0 
L 480 0 
L 1542 4435 
L 2541 4435 
L 2150 2835 
Q 2650 3264 3091 3657 
Q 3533 4051 3917 4435 
L 5101 4435 
Q 4518 3891 3945 3356 
Q 3373 2822 2739 2317 
Q 3142 1875 3513 1305 
Q 3885 736 4179 0 
L 3091 0 
z
" transform="scale(0.015625)"/>
      <path id="Ubuntu-BoldItalic-43c" d="M 1773 2003 
Q 1702 1779 1628 1523 
Q 1555 1267 1481 1001 
Q 1408 736 1337 477 
Q 1267 218 1210 0 
L 320 0 
Q 416 358 550 800 
Q 685 1242 829 1696 
Q 973 2150 1120 2585 
Q 1267 3021 1395 3366 
L 2182 3366 
Q 2240 3123 2288 2899 
Q 2336 2675 2377 2438 
Q 2419 2202 2467 1942 
Q 2515 1683 2573 1370 
Q 2784 1702 2966 1980 
Q 3149 2259 3315 2499 
Q 3482 2739 3635 2953 
Q 3789 3168 3936 3366 
L 4723 3366 
Q 4691 3008 4652 2605 
Q 4614 2202 4560 1773 
Q 4506 1344 4432 896 
Q 4358 448 4256 0 
L 3309 0 
Q 3366 230 3427 480 
Q 3488 730 3549 986 
Q 3610 1242 3667 1494 
Q 3725 1747 3770 1978 
L 2707 397 
L 2074 397 
L 1773 2003 
z
" transform="scale(0.015625)"/>
      <path id="Ubuntu-BoldItalic-44f" d="M 2042 1197 
Q 1805 922 1558 605 
Q 1312 288 1101 0 
L 128 0 
Q 410 416 710 790 
Q 1011 1165 1254 1414 
Q 1011 1549 912 1737 
Q 813 1926 813 2144 
Q 813 2522 963 2771 
Q 1114 3021 1360 3168 
Q 1606 3315 1926 3376 
Q 2246 3437 2592 3437 
Q 2950 3437 3299 3389 
Q 3648 3341 3936 3270 
L 3149 0 
L 2195 0 
L 2483 1197 
L 2042 1197 
z
M 2842 2682 
Q 2752 2694 2653 2700 
Q 2554 2707 2445 2707 
Q 2310 2707 2185 2684 
Q 2061 2662 1958 2604 
Q 1856 2547 1795 2448 
Q 1734 2349 1734 2202 
Q 1734 2074 1849 1974 
Q 1965 1875 2189 1875 
L 2643 1875 
L 2842 2682 
z
" transform="scale(0.015625)"/>
      <path id="Ubuntu-BoldItalic-43f" d="M 1222 3213 
Q 1331 3245 1462 3286 
Q 1594 3328 1757 3363 
Q 1920 3398 2121 3420 
Q 2323 3443 2579 3443 
Q 3334 3443 3616 3008 
Q 3898 2573 3712 1818 
L 3277 0 
L 2323 0 
L 2746 1779 
Q 2784 1946 2806 2102 
Q 2829 2259 2803 2377 
Q 2778 2496 2685 2569 
Q 2592 2643 2400 2643 
Q 2214 2643 2022 2605 
L 1402 0 
L 448 0 
L 1222 3213 
z
" transform="scale(0.015625)"/>
     </defs>
     <use xlink:href="#Ubuntu-BoldItalic-41a"/>
     <use xlink:href="#Ubuntu-BoldItalic-440" x="66.199997"/>
     <use xlink:href="#Ubuntu-BoldItalic-44b" x="123.999985"/>
     <use xlink:href="#Ubuntu-BoldItalic-43c" x="206.099976"/>
     <use xlink:href="#Ubuntu-BoldItalic-441" x="276.899963"/>
     <use xlink:href="#Ubuntu-BoldItalic-43a" x="324.899948"/>
     <use xlink:href="#Ubuntu-BoldItalic-430" x="379.299942"/>
     <use xlink:href="#Ubuntu-BoldItalic-44f" x="440.59993"/>
     <use xlink:href="#Ubuntu-BoldItalic-20" x="496.599915"/>
     <use xlink:href="#Ubuntu-BoldItalic-43a" x="520.599899"/>
     <use xlink:href="#Ubuntu-BoldItalic-430" x="574.999893"/>
     <use xlink:href="#Ubuntu-BoldItalic-43c" x="633.799881"/>
     <use xlink:href="#Ubuntu-BoldItalic-43f" x="704.599869"/>
     <use xlink:href="#Ubuntu-BoldItalic-430" x="761.299866"/>
     <use xlink:href="#Ubuntu-BoldItalic-43d" x="820.099854"/>
     <use xlink:href="#Ubuntu-BoldItalic-438" x="879.599838"/>
     <use xlink:href="#Ubuntu-BoldItalic-44f" x="939.699829"/>
    </g>
   </g>
   <g id="text_31">
    <!-- COVID-19 -->
    <g style="fill: #4b4b4b" transform="translate(454.01726 71.518906) scale(0.08 -0.08)">
     <defs>
      <path id="Ubuntu-BoldItalic-43" d="M 3930 192 
Q 3667 64 3347 -13 
Q 3027 -90 2566 -90 
Q 2170 -90 1840 41 
Q 1510 173 1276 416 
Q 1043 659 915 1008 
Q 787 1357 787 1792 
Q 787 2291 963 2784 
Q 1139 3277 1481 3664 
Q 1824 4051 2320 4294 
Q 2816 4538 3462 4538 
Q 3770 4538 4067 4467 
Q 4365 4397 4691 4218 
L 4333 3443 
Q 4064 3584 3853 3635 
Q 3642 3686 3398 3686 
Q 3034 3686 2742 3539 
Q 2451 3392 2243 3139 
Q 2035 2886 1926 2553 
Q 1818 2221 1818 1850 
Q 1818 1286 2064 1030 
Q 2310 774 2771 774 
Q 3078 774 3337 838 
Q 3597 902 3821 1005 
L 3930 192 
z
" transform="scale(0.015625)"/>
      <path id="Ubuntu-BoldItalic-4f" d="M 3200 3680 
Q 2906 3680 2653 3526 
Q 2400 3373 2211 3117 
Q 2022 2861 1916 2528 
Q 1811 2195 1811 1843 
Q 1811 1363 2012 1065 
Q 2214 768 2669 768 
Q 2963 768 3216 921 
Q 3469 1075 3657 1331 
Q 3846 1587 3952 1916 
Q 4058 2246 4058 2605 
Q 4058 3085 3856 3382 
Q 3654 3680 3200 3680 
z
M 2566 -90 
Q 2176 -90 1849 38 
Q 1523 166 1286 406 
Q 1050 646 918 992 
Q 787 1338 787 1773 
Q 787 2272 960 2765 
Q 1133 3258 1456 3651 
Q 1779 4045 2246 4291 
Q 2714 4538 3302 4538 
Q 3693 4538 4019 4410 
Q 4346 4282 4582 4042 
Q 4819 3802 4950 3456 
Q 5082 3110 5082 2675 
Q 5082 2176 4912 1680 
Q 4742 1184 4419 790 
Q 4096 397 3629 153 
Q 3162 -90 2566 -90 
z
" transform="scale(0.015625)"/>
      <path id="Ubuntu-BoldItalic-56" d="M 1715 0 
Q 1613 544 1520 1126 
Q 1427 1709 1344 2285 
Q 1261 2861 1197 3408 
Q 1133 3955 1088 4435 
L 2157 4435 
Q 2176 4070 2205 3651 
Q 2234 3232 2272 2806 
Q 2310 2381 2352 1961 
Q 2394 1542 2438 1178 
Q 2637 1510 2864 1907 
Q 3091 2304 3324 2733 
Q 3558 3162 3785 3597 
Q 4013 4032 4205 4435 
L 5267 4435 
Q 5024 3974 4736 3443 
Q 4448 2912 4118 2342 
Q 3789 1773 3421 1181 
Q 3053 589 2650 0 
L 1715 0 
z
" transform="scale(0.015625)"/>
      <path id="Ubuntu-BoldItalic-49" d="M 1542 4435 
L 2541 4435 
L 1472 0 
L 480 0 
L 1542 4435 
z
" transform="scale(0.015625)"/>
      <path id="Ubuntu-BoldItalic-44" d="M 1645 800 
Q 1715 794 1788 790 
Q 1862 787 1990 787 
Q 2406 787 2742 915 
Q 3078 1043 3312 1283 
Q 3546 1523 3674 1872 
Q 3802 2221 3802 2656 
Q 3802 2880 3744 3062 
Q 3686 3245 3555 3376 
Q 3424 3507 3216 3577 
Q 3008 3648 2714 3648 
Q 2522 3648 2323 3629 
L 1645 800 
z
M 4826 2707 
Q 4826 2061 4614 1549 
Q 4403 1037 4009 681 
Q 3616 326 3053 134 
Q 2490 -58 1779 -58 
Q 1510 -58 1158 -26 
Q 806 6 480 77 
L 1510 4358 
Q 1875 4429 2211 4457 
Q 2547 4486 2816 4486 
Q 3290 4486 3664 4358 
Q 4038 4230 4297 3993 
Q 4557 3757 4691 3430 
Q 4826 3104 4826 2707 
z
" transform="scale(0.015625)"/>
      <path id="Ubuntu-BoldItalic-2d" d="M 678 2342 
L 2534 2342 
L 2323 1478 
L 467 1478 
L 678 2342 
z
" transform="scale(0.015625)"/>
      <path id="Ubuntu-BoldItalic-31" d="M 1280 3514 
Q 1485 3590 1709 3689 
Q 1933 3789 2153 3907 
Q 2374 4026 2585 4157 
Q 2797 4288 2970 4435 
L 3635 4435 
L 2566 0 
L 1613 0 
L 2381 3194 
Q 2157 3066 1894 2960 
Q 1632 2854 1395 2778 
L 1280 3514 
z
" transform="scale(0.015625)"/>
      <path id="Ubuntu-BoldItalic-39" d="M 608 736 
Q 1005 742 1347 790 
Q 1690 838 1974 960 
Q 2259 1082 2473 1286 
Q 2688 1491 2829 1818 
Q 2662 1728 2441 1686 
Q 2221 1645 2029 1645 
Q 1792 1645 1584 1718 
Q 1376 1792 1219 1942 
Q 1062 2093 972 2313 
Q 883 2534 883 2835 
Q 883 3245 1017 3565 
Q 1152 3885 1382 4102 
Q 1613 4320 1920 4432 
Q 2227 4544 2566 4544 
Q 2861 4544 3120 4441 
Q 3379 4339 3568 4144 
Q 3757 3949 3865 3657 
Q 3974 3366 3974 2982 
Q 3974 2419 3782 1878 
Q 3590 1338 3193 915 
Q 2797 493 2189 233 
Q 1581 -26 749 -26 
Q 698 -26 630 -26 
Q 563 -26 493 -19 
L 608 736 
z
M 1792 2899 
Q 1792 2592 1958 2477 
Q 2125 2362 2355 2362 
Q 2515 2362 2678 2403 
Q 2842 2445 2982 2502 
Q 3066 2746 3066 3002 
Q 3066 3309 2925 3529 
Q 2784 3750 2490 3750 
Q 2182 3750 1987 3526 
Q 1792 3302 1792 2899 
z
" transform="scale(0.015625)"/>
     </defs>
     <use xlink:href="#Ubuntu-BoldItalic-43"/>
     <use xlink:href="#Ubuntu-BoldItalic-4f" x="61.799988"/>
     <use xlink:href="#Ubuntu-BoldItalic-56" x="134.499969"/>
     <use xlink:href="#Ubuntu-BoldItalic-49" x="203.299957"/>
     <use xlink:href="#Ubuntu-BoldItalic-44" x="234.499954"/>
     <use xlink:href="#Ubuntu-BoldItalic-2d" x="308.299942"/>
     <use xlink:href="#Ubuntu-BoldItalic-31" x="342.59993"/>
     <use xlink:href="#Ubuntu-BoldItalic-39" x="399.399918"/>
    </g>
   </g>
   <g id="legend_1">
    <g id="line2d_36">
     <path d="M 35.325 14.633438 
L 44.325 14.633438 
L 53.325 14.633438 
" style="fill: none; stroke: #6d6d6d; stroke-width: 1.2; stroke-linecap: square"/>
    </g>
    <g id="text_32">
     <!-- Продукты питания -->
     <g style="fill: #4b4b4b" transform="translate(60.525 17.783438) scale(0.09 -0.09)">
      <defs>
       <path id="Ubuntu-41f" d="M 3923 4435 
L 3923 0 
L 3302 0 
L 3302 3904 
L 1171 3904 
L 1171 0 
L 550 0 
L 550 4435 
L 3923 4435 
z
" transform="scale(0.015625)"/>
       <path id="Ubuntu-440" d="M 2822 1658 
Q 2822 2240 2534 2553 
Q 2246 2867 1766 2867 
Q 1498 2867 1347 2848 
Q 1197 2829 1107 2803 
L 1107 704 
Q 1216 614 1421 531 
Q 1626 448 1869 448 
Q 2125 448 2307 541 
Q 2490 634 2605 797 
Q 2720 960 2771 1181 
Q 2822 1402 2822 1658 
z
M 3443 1658 
Q 3443 1280 3344 960 
Q 3245 640 3053 409 
Q 2861 179 2582 51 
Q 2304 -77 1946 -77 
Q 1658 -77 1437 0 
Q 1216 77 1107 147 
L 1107 -1184 
L 512 -1184 
L 512 3226 
Q 723 3277 1040 3337 
Q 1357 3398 1773 3398 
Q 2157 3398 2464 3276 
Q 2771 3155 2988 2931 
Q 3206 2707 3324 2384 
Q 3443 2061 3443 1658 
z
" transform="scale(0.015625)"/>
       <path id="Ubuntu-43e" d="M 3450 1664 
Q 3450 1267 3334 947 
Q 3219 627 3011 396 
Q 2803 166 2515 41 
Q 2227 -83 1888 -83 
Q 1549 -83 1261 41 
Q 973 166 765 396 
Q 557 627 441 947 
Q 326 1267 326 1664 
Q 326 2054 441 2377 
Q 557 2701 765 2931 
Q 973 3162 1261 3286 
Q 1549 3411 1888 3411 
Q 2227 3411 2515 3286 
Q 2803 3162 3011 2931 
Q 3219 2701 3334 2377 
Q 3450 2054 3450 1664 
z
M 2829 1664 
Q 2829 2227 2576 2556 
Q 2323 2886 1888 2886 
Q 1453 2886 1200 2556 
Q 947 2227 947 1664 
Q 947 1101 1200 771 
Q 1453 442 1888 442 
Q 2323 442 2576 771 
Q 2829 1101 2829 1664 
z
" transform="scale(0.015625)"/>
       <path id="Ubuntu-434" d="M 102 486 
L 461 486 
Q 672 794 797 1120 
Q 922 1446 986 1795 
Q 1050 2144 1069 2525 
Q 1088 2906 1094 3328 
L 3277 3328 
L 3277 486 
L 3725 486 
L 3725 -928 
L 3162 -928 
L 3162 0 
L 666 0 
L 666 -928 
L 102 -928 
L 102 486 
z
M 2682 486 
L 2682 2829 
L 1638 2829 
Q 1632 2528 1606 2224 
Q 1581 1920 1523 1622 
Q 1466 1325 1360 1040 
Q 1254 755 1094 486 
L 2682 486 
z
" transform="scale(0.015625)"/>
       <path id="Ubuntu-443" d="M 122 -621 
Q 192 -653 304 -681 
Q 416 -710 525 -710 
Q 877 -710 1075 -553 
Q 1274 -397 1434 -45 
Q 1030 723 681 1584 
Q 333 2445 102 3328 
L 742 3328 
Q 813 3040 912 2707 
Q 1011 2374 1132 2022 
Q 1254 1670 1395 1318 
Q 1536 966 1690 640 
Q 1933 1312 2112 1971 
Q 2291 2630 2451 3328 
L 3066 3328 
Q 2835 2387 2553 1520 
Q 2272 653 1946 -102 
Q 1818 -390 1680 -598 
Q 1542 -806 1376 -940 
Q 1210 -1075 1002 -1139 
Q 794 -1203 531 -1203 
Q 461 -1203 384 -1193 
Q 307 -1184 233 -1168 
Q 160 -1152 99 -1133 
Q 38 -1114 13 -1101 
L 122 -621 
z
" transform="scale(0.015625)"/>
       <path id="Ubuntu-43a" d="M 1728 1811 
Q 1926 1670 2156 1456 
Q 2387 1242 2608 992 
Q 2829 742 3021 483 
Q 3213 224 3347 0 
L 2643 0 
Q 2502 218 2313 445 
Q 2125 672 1920 883 
Q 1715 1094 1504 1273 
Q 1293 1453 1107 1574 
L 1107 0 
L 512 0 
L 512 3328 
L 1107 3328 
L 1107 1901 
Q 1261 2048 1459 2243 
Q 1658 2438 1859 2640 
Q 2061 2842 2233 3024 
Q 2406 3206 2515 3328 
L 3206 3328 
Q 3066 3174 2877 2979 
Q 2688 2784 2486 2579 
Q 2285 2374 2086 2172 
Q 1888 1971 1728 1811 
z
" transform="scale(0.015625)"/>
       <path id="Ubuntu-442" d="M 2861 3328 
L 2861 2829 
L 1779 2829 
L 1779 0 
L 1184 0 
L 1184 2829 
L 102 2829 
L 102 3328 
L 2861 3328 
z
" transform="scale(0.015625)"/>
       <path id="Ubuntu-44b" d="M 1734 1645 
Q 1562 1645 1398 1635 
Q 1235 1626 1107 1594 
L 1107 448 
Q 1146 442 1219 435 
Q 1293 429 1379 425 
Q 1466 422 1555 419 
Q 1645 416 1715 416 
Q 2106 416 2317 563 
Q 2528 710 2528 1037 
Q 2528 1197 2461 1312 
Q 2394 1427 2282 1500 
Q 2170 1574 2029 1609 
Q 1888 1645 1734 1645 
z
M 512 3328 
L 1107 3328 
L 1107 2054 
Q 1216 2080 1424 2105 
Q 1632 2131 1824 2131 
Q 2086 2131 2323 2070 
Q 2560 2010 2739 1878 
Q 2918 1747 3024 1539 
Q 3130 1331 3130 1043 
Q 3130 742 3027 531 
Q 2925 320 2739 185 
Q 2554 51 2291 -9 
Q 2029 -70 1715 -70 
Q 1414 -70 1107 -35 
Q 800 0 512 70 
L 512 3328 
z
M 4339 0 
L 3744 0 
L 3744 3328 
L 4339 3328 
L 4339 0 
z
" transform="scale(0.015625)"/>
       <path id="Ubuntu-20" transform="scale(0.015625)"/>
       <path id="Ubuntu-43f" d="M 3187 0 
L 2592 0 
L 2592 2829 
L 1107 2829 
L 1107 0 
L 512 0 
L 512 3328 
L 3187 3328 
L 3187 0 
z
" transform="scale(0.015625)"/>
       <path id="Ubuntu-438" d="M 3309 3328 
L 3309 0 
L 2733 0 
L 2733 2534 
Q 2541 2291 2310 1964 
Q 2080 1638 1849 1289 
Q 1619 941 1408 601 
Q 1197 262 1043 0 
L 512 0 
L 512 3328 
L 1088 3328 
L 1088 934 
Q 1254 1210 1465 1539 
Q 1677 1869 1904 2192 
Q 2131 2515 2358 2812 
Q 2586 3110 2784 3328 
L 3309 3328 
z
" transform="scale(0.015625)"/>
       <path id="Ubuntu-430" d="M 1638 429 
Q 1850 429 2013 438 
Q 2176 448 2285 474 
L 2285 1466 
Q 2221 1498 2077 1520 
Q 1933 1542 1728 1542 
Q 1594 1542 1443 1523 
Q 1293 1504 1168 1443 
Q 1043 1382 960 1276 
Q 877 1171 877 998 
Q 877 678 1081 553 
Q 1286 429 1638 429 
z
M 1587 3411 
Q 1946 3411 2192 3318 
Q 2438 3226 2588 3056 
Q 2739 2886 2803 2652 
Q 2867 2419 2867 2138 
L 2867 58 
Q 2790 45 2652 22 
Q 2515 0 2342 -19 
Q 2170 -38 1968 -54 
Q 1766 -70 1568 -70 
Q 1286 -70 1049 -12 
Q 813 45 640 169 
Q 467 294 371 499 
Q 275 704 275 992 
Q 275 1267 387 1465 
Q 499 1664 691 1785 
Q 883 1907 1139 1964 
Q 1395 2022 1677 2022 
Q 1766 2022 1862 2012 
Q 1958 2003 2044 1987 
Q 2131 1971 2195 1958 
Q 2259 1946 2285 1939 
L 2285 2106 
Q 2285 2253 2253 2397 
Q 2221 2541 2137 2653 
Q 2054 2765 1910 2832 
Q 1766 2899 1536 2899 
Q 1242 2899 1021 2857 
Q 800 2816 691 2771 
L 621 3264 
Q 736 3315 1005 3363 
Q 1274 3411 1587 3411 
z
" transform="scale(0.015625)"/>
       <path id="Ubuntu-43d" d="M 3238 0 
L 2643 0 
L 2643 1472 
L 1107 1472 
L 1107 0 
L 512 0 
L 512 3328 
L 1107 3328 
L 1107 1971 
L 2643 1971 
L 2643 3328 
L 3238 3328 
L 3238 0 
z
" transform="scale(0.015625)"/>
       <path id="Ubuntu-44f" d="M 1888 1293 
Q 1792 1293 1702 1296 
Q 1613 1299 1530 1306 
Q 1325 998 1136 649 
Q 947 301 800 0 
L 198 0 
Q 275 186 377 381 
Q 480 576 585 761 
Q 691 947 800 1113 
Q 909 1280 1005 1414 
Q 826 1478 710 1571 
Q 595 1664 524 1779 
Q 454 1894 425 2025 
Q 397 2157 397 2291 
Q 397 2573 502 2784 
Q 608 2995 793 3132 
Q 979 3270 1232 3340 
Q 1485 3411 1786 3411 
Q 2208 3411 2502 3372 
Q 2797 3334 2995 3283 
L 2995 0 
L 2406 0 
L 2406 1293 
L 1888 1293 
z
M 2406 2886 
Q 2336 2899 2173 2912 
Q 2010 2925 1798 2925 
Q 1434 2925 1210 2774 
Q 986 2624 986 2298 
Q 986 1978 1216 1856 
Q 1446 1734 1811 1734 
L 2406 1734 
L 2406 2886 
z
" transform="scale(0.015625)"/>
      </defs>
      <use xlink:href="#Ubuntu-41f"/>
      <use xlink:href="#Ubuntu-440" x="69.899994"/>
      <use xlink:href="#Ubuntu-43e" x="128.799988"/>
      <use xlink:href="#Ubuntu-434" x="187.799973"/>
      <use xlink:href="#Ubuntu-443" x="250.47496"/>
      <use xlink:href="#Ubuntu-43a" x="300.174957"/>
      <use xlink:href="#Ubuntu-442" x="353.874954"/>
      <use xlink:href="#Ubuntu-44b" x="400.174942"/>
      <use xlink:href="#Ubuntu-20" x="475.97493"/>
      <use xlink:href="#Ubuntu-43f" x="499.074921"/>
      <use xlink:href="#Ubuntu-438" x="556.874908"/>
      <use xlink:href="#Ubuntu-442" x="616.574905"/>
      <use xlink:href="#Ubuntu-430" x="662.874893"/>
      <use xlink:href="#Ubuntu-43d" x="715.07489"/>
      <use xlink:href="#Ubuntu-438" x="773.674881"/>
      <use xlink:href="#Ubuntu-44f" x="833.374878"/>
     </g>
    </g>
    <g id="line2d_37">
     <path d="M 158.460469 14.633438 
L 167.460469 14.633438 
L 176.460469 14.633438 
" style="fill: none; stroke: #5a9b87; stroke-width: 1.2; stroke-linecap: square"/>
    </g>
    <g id="text_33">
     <!-- Непродовольственные товары -->
     <g style="fill: #4b4b4b" transform="translate(183.660469 17.783438) scale(0.09 -0.09)">
      <defs>
       <path id="Ubuntu-41d" d="M 3341 4435 
L 3962 4435 
L 3962 0 
L 3341 0 
L 3341 2048 
L 1171 2048 
L 1171 0 
L 550 0 
L 550 4435 
L 1171 4435 
L 1171 2586 
L 3341 2586 
L 3341 4435 
z
" transform="scale(0.015625)"/>
       <path id="Ubuntu-435" d="M 326 1658 
Q 326 2099 454 2428 
Q 582 2758 793 2976 
Q 1005 3194 1280 3302 
Q 1555 3411 1843 3411 
Q 2515 3411 2873 2992 
Q 3232 2573 3232 1715 
Q 3232 1677 3232 1616 
Q 3232 1555 3226 1504 
L 947 1504 
Q 986 986 1248 717 
Q 1510 448 2067 448 
Q 2381 448 2595 502 
Q 2810 557 2918 608 
L 3002 109 
Q 2893 51 2621 -13 
Q 2349 -77 2003 -77 
Q 1568 -77 1251 54 
Q 934 186 729 416 
Q 525 646 425 963 
Q 326 1280 326 1658 
z
M 2611 1984 
Q 2618 2387 2410 2646 
Q 2202 2906 1837 2906 
Q 1632 2906 1475 2826 
Q 1318 2746 1209 2618 
Q 1101 2490 1040 2323 
Q 979 2157 960 1984 
L 2611 1984 
z
" transform="scale(0.015625)"/>
       <path id="Ubuntu-432" d="M 1094 448 
Q 1133 442 1203 435 
Q 1274 429 1363 425 
Q 1453 422 1552 419 
Q 1651 416 1741 416 
Q 1926 416 2096 441 
Q 2266 467 2390 531 
Q 2515 595 2588 700 
Q 2662 806 2662 973 
Q 2662 1133 2595 1238 
Q 2528 1344 2413 1408 
Q 2298 1472 2141 1497 
Q 1984 1523 1805 1523 
L 1094 1523 
L 1094 448 
z
M 1728 1965 
Q 1901 1965 2045 1987 
Q 2189 2010 2294 2067 
Q 2400 2125 2461 2221 
Q 2522 2317 2522 2464 
Q 2522 2618 2445 2707 
Q 2368 2797 2243 2845 
Q 2118 2893 1961 2909 
Q 1805 2925 1645 2925 
Q 1498 2925 1347 2918 
Q 1197 2912 1094 2906 
L 1094 1965 
L 1728 1965 
z
M 1715 -58 
Q 1338 -58 1018 -22 
Q 698 13 512 58 
L 512 3296 
Q 698 3341 1018 3376 
Q 1338 3411 1715 3411 
Q 1978 3411 2227 3366 
Q 2477 3322 2669 3216 
Q 2861 3110 2979 2928 
Q 3098 2746 3098 2477 
Q 3098 2234 2976 2061 
Q 2854 1888 2650 1792 
Q 2925 1696 3088 1507 
Q 3251 1318 3251 979 
Q 3251 678 3132 480 
Q 3014 282 2806 160 
Q 2598 38 2316 -10 
Q 2035 -58 1715 -58 
z
" transform="scale(0.015625)"/>
       <path id="Ubuntu-43b" d="M 1670 2829 
Q 1670 2618 1660 2378 
Q 1651 2138 1625 1898 
Q 1600 1658 1555 1424 
Q 1510 1190 1440 986 
Q 1370 781 1264 601 
Q 1158 422 1004 284 
Q 851 147 646 54 
Q 442 -38 166 -64 
L 83 435 
Q 397 499 579 672 
Q 762 845 870 1094 
Q 966 1312 1011 1587 
Q 1056 1862 1075 2160 
Q 1094 2458 1097 2758 
Q 1101 3059 1101 3328 
L 3315 3328 
L 3315 0 
L 2720 0 
L 2720 2829 
L 1670 2829 
z
" transform="scale(0.015625)"/>
       <path id="Ubuntu-44c" d="M 1773 416 
Q 2150 416 2368 563 
Q 2586 710 2586 1037 
Q 2586 1197 2522 1312 
Q 2458 1427 2346 1500 
Q 2234 1574 2086 1609 
Q 1939 1645 1773 1645 
Q 1600 1645 1417 1635 
Q 1235 1626 1107 1594 
L 1107 448 
Q 1146 442 1222 435 
Q 1299 429 1392 425 
Q 1485 422 1584 419 
Q 1683 416 1773 416 
z
M 512 70 
L 512 3328 
L 1107 3328 
L 1107 2054 
Q 1158 2067 1244 2080 
Q 1331 2093 1430 2105 
Q 1530 2118 1638 2124 
Q 1747 2131 1843 2131 
Q 2118 2131 2361 2070 
Q 2605 2010 2787 1878 
Q 2970 1747 3078 1539 
Q 3187 1331 3187 1043 
Q 3187 742 3084 531 
Q 2982 320 2790 185 
Q 2598 51 2332 -9 
Q 2067 -70 1741 -70 
Q 1421 -70 1113 -35 
Q 806 0 512 70 
z
" transform="scale(0.015625)"/>
       <path id="Ubuntu-441" d="M 1958 -77 
Q 1555 -77 1251 51 
Q 947 179 739 409 
Q 531 640 428 957 
Q 326 1274 326 1658 
Q 326 2042 438 2362 
Q 550 2682 755 2915 
Q 960 3149 1257 3280 
Q 1555 3411 1920 3411 
Q 2144 3411 2368 3372 
Q 2592 3334 2797 3251 
L 2662 2746 
Q 2528 2810 2352 2848 
Q 2176 2886 1978 2886 
Q 1478 2886 1212 2572 
Q 947 2259 947 1658 
Q 947 1389 1008 1165 
Q 1069 941 1200 781 
Q 1331 621 1536 534 
Q 1741 448 2035 448 
Q 2272 448 2464 493 
Q 2656 538 2765 589 
L 2848 90 
Q 2797 58 2701 29 
Q 2605 0 2483 -22 
Q 2362 -45 2224 -61 
Q 2086 -77 1958 -77 
z
" transform="scale(0.015625)"/>
      </defs>
      <use xlink:href="#Ubuntu-41d"/>
      <use xlink:href="#Ubuntu-435" x="70.499985"/>
      <use xlink:href="#Ubuntu-43f" x="126.399979"/>
      <use xlink:href="#Ubuntu-440" x="184.199966"/>
      <use xlink:href="#Ubuntu-43e" x="243.09996"/>
      <use xlink:href="#Ubuntu-434" x="302.099945"/>
      <use xlink:href="#Ubuntu-43e" x="362.399933"/>
      <use xlink:href="#Ubuntu-432" x="421.399918"/>
      <use xlink:href="#Ubuntu-43e" x="476.199905"/>
      <use xlink:href="#Ubuntu-43b" x="535.19989"/>
      <use xlink:href="#Ubuntu-44c" x="594.999878"/>
      <use xlink:href="#Ubuntu-441" x="647.799866"/>
      <use xlink:href="#Ubuntu-442" x="695.79985"/>
      <use xlink:href="#Ubuntu-432" x="742.099838"/>
      <use xlink:href="#Ubuntu-435" x="796.899826"/>
      <use xlink:href="#Ubuntu-43d" x="852.79982"/>
      <use xlink:href="#Ubuntu-43d" x="911.399811"/>
      <use xlink:href="#Ubuntu-44b" x="969.999802"/>
      <use xlink:href="#Ubuntu-435" x="1045.799789"/>
      <use xlink:href="#Ubuntu-20" x="1101.699783"/>
      <use xlink:href="#Ubuntu-442" x="1124.799774"/>
      <use xlink:href="#Ubuntu-43e" x="1171.099762"/>
      <use xlink:href="#Ubuntu-432" x="1230.099747"/>
      <use xlink:href="#Ubuntu-430" x="1284.899734"/>
      <use xlink:href="#Ubuntu-440" x="1337.099731"/>
      <use xlink:href="#Ubuntu-44b" x="1395.999725"/>
     </g>
    </g>
    <g id="line2d_38">
     <path d="M 334.120781 14.633438 
L 343.120781 14.633438 
L 352.120781 14.633438 
" style="fill: none; stroke: #7099bc; stroke-width: 1.2; stroke-linecap: square"/>
    </g>
    <g id="text_34">
     <!-- Услуги -->
     <g style="fill: #4b4b4b" transform="translate(359.320781 17.783438) scale(0.09 -0.09)">
      <defs>
       <path id="Ubuntu-423" d="M 2522 1357 
Q 2394 1062 2256 803 
Q 2118 544 1929 352 
Q 1741 160 1475 51 
Q 1210 -58 819 -58 
Q 742 -58 659 -48 
Q 576 -38 499 -22 
Q 422 -6 364 13 
Q 307 32 282 51 
L 390 576 
Q 474 544 592 512 
Q 710 480 838 480 
Q 1030 480 1174 528 
Q 1318 576 1433 662 
Q 1549 749 1638 873 
Q 1728 998 1811 1152 
Q 1530 1606 1280 2057 
Q 1030 2509 819 2931 
Q 608 3354 435 3734 
Q 262 4115 128 4435 
L 832 4435 
Q 1043 3878 1372 3193 
Q 1702 2509 2106 1760 
Q 2362 2342 2595 3043 
Q 2829 3744 3034 4435 
L 3706 4435 
Q 3558 3974 3411 3568 
Q 3264 3162 3117 2787 
Q 2970 2413 2822 2057 
Q 2675 1702 2522 1357 
z
" transform="scale(0.015625)"/>
       <path id="Ubuntu-433" d="M 2573 2829 
L 1107 2829 
L 1107 0 
L 512 0 
L 512 3328 
L 2573 3328 
L 2573 2829 
z
" transform="scale(0.015625)"/>
      </defs>
      <use xlink:href="#Ubuntu-423"/>
      <use xlink:href="#Ubuntu-441" x="54.949997"/>
      <use xlink:href="#Ubuntu-43b" x="103.324982"/>
      <use xlink:href="#Ubuntu-443" x="163.124969"/>
      <use xlink:href="#Ubuntu-433" x="212.824966"/>
      <use xlink:href="#Ubuntu-438" x="254.624954"/>
     </g>
    </g>
   </g>
   <g id="PathCollection_1">
    <defs>
     <path id="m40df76a5f3" d="M 0 1.118034 
C 0.296506 1.118034 0.580908 1.000231 0.790569 0.790569 
C 1.000231 0.580908 1.118034 0.296506 1.118034 0 
C 1.118034 -0.296506 1.000231 -0.580908 0.790569 -0.790569 
C 0.580908 -1.000231 0.296506 -1.118034 0 -1.118034 
C -0.296506 -1.118034 -0.580908 -1.000231 -0.790569 -0.790569 
C -1.000231 -0.580908 -1.118034 -0.296506 -1.118034 0 
C -1.118034 0.296506 -1.000231 0.580908 -0.790569 0.790569 
C -0.580908 1.000231 -0.296506 1.118034 0 1.118034 
z
" style="stroke: #af4035"/>
    </defs>
    <g clip-path="url(#p9c4b4ed129)">
     <use xlink:href="#m40df76a5f3" x="133.728715" y="46.979156" style="fill: #af4035; stroke: #af4035"/>
    </g>
   </g>
   <g id="PathCollection_2">
    <g clip-path="url(#p9c4b4ed129)">
     <use xlink:href="#m40df76a5f3" x="220.020046" y="165.897956" style="fill: #af4035; stroke: #af4035"/>
    </g>
   </g>
   <g id="PathCollection_3">
    <g clip-path="url(#p9c4b4ed129)">
     <use xlink:href="#m40df76a5f3" x="297.759985" y="52.523156" style="fill: #af4035; stroke: #af4035"/>
    </g>
   </g>
   <g id="PathCollection_4">
    <g clip-path="url(#p9c4b4ed129)">
     <use xlink:href="#m40df76a5f3" x="448.834598" y="69.155156" style="fill: #af4035; stroke: #af4035"/>
    </g>
   </g>
  </g>
 </g>
 <defs>
  <clipPath id="p9c4b4ed129">
   <rect x="27.225" y="35.891156" width="502.2" height="166.32"/>
  </clipPath>
 </defs>
</svg>
