<?xml version="1.0" encoding="utf-8" standalone="no"?>
<!DOCTYPE svg PUBLIC "-//W3C//DTD SVG 1.1//EN"
  "http://www.w3.org/Graphics/SVG/1.1/DTD/svg11.dtd">
<svg xmlns:xlink="http://www.w3.org/1999/xlink" width="595.479412pt" height="191.562656pt" viewBox="0 0 595.479412 191.562656" xmlns="http://www.w3.org/2000/svg" version="1.1">
 <metadata>
  <rdf:RDF xmlns:dc="http://purl.org/dc/elements/1.1/" xmlns:cc="http://creativecommons.org/ns#" xmlns:rdf="http://www.w3.org/1999/02/22-rdf-syntax-ns#">
   <cc:Work>
    <dc:type rdf:resource="http://purl.org/dc/dcmitype/StillImage"/>
    <dc:date>2024-02-21T19:18:21.871968</dc:date>
    <dc:format>image/svg+xml</dc:format>
    <dc:creator>
     <cc:Agent>
      <dc:title>Matplotlib v3.8.0, https://matplotlib.org/</dc:title>
     </cc:Agent>
    </dc:creator>
   </cc:Work>
  </rdf:RDF>
 </metadata>
 <defs>
  <style type="text/css">*{stroke-linejoin: round; stroke-linecap: butt}</style>
 </defs>
 <g id="figure_1">
  <g id="patch_1">
   <path d="M 0 191.562656 
L 595.479412 191.562656 
L 595.479412 0 
L 0 0 
L 0 191.562656 
z
" style="fill: none"/>
  </g>
  <g id="axes_1">
   <g id="patch_2">
    <path d="M 26.725 166.175156 
L 584.725 166.175156 
L 584.725 27.575156 
L 26.725 27.575156 
L 26.725 166.175156 
z
" style="fill: none"/>
   </g>
   <g id="matplotlib.axis_1">
    <g id="xtick_1">
     <g id="line2d_1">
      <defs>
       <path id="m740e91498f" d="M 0 0 
L 0 2 
" style="stroke: #bbbbbb; stroke-width: 0.75"/>
      </defs>
      <g>
       <use xlink:href="#m740e91498f" x="32.195588" y="171.175156" style="fill: #bbbbbb; stroke: #bbbbbb; stroke-width: 0.75"/>
      </g>
     </g>
     <g id="text_1">
      <!-- 2000 -->
      <g style="fill: #9f9f9f" transform="translate(23.170588 182.882656) scale(0.08 -0.08)">
       <defs>
        <path id="Ubuntu-32" d="M 2989 3302 
Q 2989 3072 2896 2857 
Q 2803 2643 2649 2435 
Q 2496 2227 2304 2025 
Q 2112 1824 1920 1632 
Q 1811 1523 1667 1376 
Q 1523 1229 1395 1069 
Q 1267 909 1180 761 
Q 1094 614 1094 506 
L 3136 506 
L 3136 0 
L 448 0 
Q 442 38 442 76 
Q 442 115 442 147 
Q 442 448 541 707 
Q 640 966 800 1196 
Q 960 1427 1158 1632 
Q 1357 1837 1549 2029 
Q 1709 2182 1853 2332 
Q 1997 2483 2109 2633 
Q 2221 2784 2288 2944 
Q 2355 3104 2355 3283 
Q 2355 3475 2294 3609 
Q 2234 3744 2131 3833 
Q 2029 3923 1891 3964 
Q 1754 4006 1600 4006 
Q 1414 4006 1260 3955 
Q 1107 3904 985 3837 
Q 864 3770 781 3696 
Q 698 3622 653 3584 
L 358 4006 
Q 416 4070 531 4163 
Q 646 4256 806 4339 
Q 966 4422 1164 4480 
Q 1363 4538 1594 4538 
Q 2291 4538 2640 4214 
Q 2989 3891 2989 3302 
z
" transform="scale(0.015625)"/>
        <path id="Ubuntu-30" d="M 320 2221 
Q 320 3334 713 3936 
Q 1107 4538 1805 4538 
Q 2502 4538 2896 3936 
Q 3290 3334 3290 2221 
Q 3290 1107 2896 505 
Q 2502 -96 1805 -96 
Q 1107 -96 713 505 
Q 320 1107 320 2221 
z
M 2662 2221 
Q 2662 2586 2620 2912 
Q 2579 3238 2480 3481 
Q 2381 3725 2214 3869 
Q 2048 4013 1805 4013 
Q 1562 4013 1395 3869 
Q 1229 3725 1129 3481 
Q 1030 3238 988 2912 
Q 947 2586 947 2221 
Q 947 1856 988 1529 
Q 1030 1203 1129 960 
Q 1229 717 1395 573 
Q 1562 429 1805 429 
Q 2048 429 2214 573 
Q 2381 717 2480 960 
Q 2579 1203 2620 1529 
Q 2662 1856 2662 2221 
z
" transform="scale(0.015625)"/>
       </defs>
       <use xlink:href="#Ubuntu-32"/>
       <use xlink:href="#Ubuntu-30" x="56.399994"/>
       <use xlink:href="#Ubuntu-30" x="112.799988"/>
       <use xlink:href="#Ubuntu-30" x="169.199982"/>
      </g>
     </g>
    </g>
    <g id="xtick_2">
     <g id="line2d_2">
      <g>
       <use xlink:href="#m740e91498f" x="81.928209" y="171.175156" style="fill: #bbbbbb; stroke: #bbbbbb; stroke-width: 0.75"/>
      </g>
     </g>
     <g id="text_2">
      <!-- 2002 -->
      <g style="fill: #9f9f9f" transform="translate(72.903209 182.882656) scale(0.08 -0.08)">
       <use xlink:href="#Ubuntu-32"/>
       <use xlink:href="#Ubuntu-30" x="56.399994"/>
       <use xlink:href="#Ubuntu-30" x="112.799988"/>
       <use xlink:href="#Ubuntu-32" x="169.199982"/>
      </g>
     </g>
    </g>
    <g id="xtick_3">
     <g id="line2d_3">
      <g>
       <use xlink:href="#m740e91498f" x="131.660829" y="171.175156" style="fill: #bbbbbb; stroke: #bbbbbb; stroke-width: 0.75"/>
      </g>
     </g>
     <g id="text_3">
      <!-- 2004 -->
      <g style="fill: #9f9f9f" transform="translate(122.635829 182.882656) scale(0.08 -0.08)">
       <defs>
        <path id="Ubuntu-34" d="M 256 1536 
Q 378 1818 589 2192 
Q 800 2566 1065 2963 
Q 1331 3360 1635 3744 
Q 1939 4128 2246 4435 
L 2816 4435 
L 2816 1619 
L 3341 1619 
L 3341 1133 
L 2816 1133 
L 2816 0 
L 2240 0 
L 2240 1133 
L 256 1133 
L 256 1536 
z
M 2240 3731 
Q 2048 3526 1853 3273 
Q 1658 3021 1472 2745 
Q 1286 2470 1123 2182 
Q 960 1894 832 1619 
L 2240 1619 
L 2240 3731 
z
" transform="scale(0.015625)"/>
       </defs>
       <use xlink:href="#Ubuntu-32"/>
       <use xlink:href="#Ubuntu-30" x="56.399994"/>
       <use xlink:href="#Ubuntu-30" x="112.799988"/>
       <use xlink:href="#Ubuntu-34" x="169.199982"/>
      </g>
     </g>
    </g>
    <g id="xtick_4">
     <g id="line2d_4">
      <g>
       <use xlink:href="#m740e91498f" x="181.393449" y="171.175156" style="fill: #bbbbbb; stroke: #bbbbbb; stroke-width: 0.75"/>
      </g>
     </g>
     <g id="text_4">
      <!-- 2006 -->
      <g style="fill: #9f9f9f" transform="translate(172.368449 182.882656) scale(0.08 -0.08)">
       <defs>
        <path id="Ubuntu-36" d="M 403 1779 
Q 403 2426 582 2922 
Q 762 3418 1091 3757 
Q 1421 4096 1891 4272 
Q 2362 4448 2950 4454 
L 2995 3955 
Q 2618 3949 2307 3872 
Q 1997 3795 1753 3628 
Q 1510 3462 1344 3196 
Q 1178 2931 1094 2541 
Q 1261 2618 1469 2669 
Q 1677 2720 1901 2720 
Q 2278 2720 2540 2605 
Q 2803 2490 2969 2301 
Q 3136 2112 3209 1865 
Q 3283 1619 3283 1350 
Q 3283 1107 3200 851 
Q 3117 595 2947 384 
Q 2778 173 2515 38 
Q 2253 -96 1894 -96 
Q 1165 -96 784 403 
Q 403 902 403 1779 
z
M 1837 2234 
Q 1613 2234 1421 2192 
Q 1229 2150 1037 2067 
Q 1030 1997 1027 1923 
Q 1024 1850 1024 1779 
Q 1024 1498 1062 1248 
Q 1101 998 1200 809 
Q 1299 621 1465 509 
Q 1632 397 1888 397 
Q 2099 397 2246 486 
Q 2394 576 2490 717 
Q 2586 858 2627 1021 
Q 2669 1184 2669 1338 
Q 2669 1773 2461 2003 
Q 2253 2234 1837 2234 
z
" transform="scale(0.015625)"/>
       </defs>
       <use xlink:href="#Ubuntu-32"/>
       <use xlink:href="#Ubuntu-30" x="56.399994"/>
       <use xlink:href="#Ubuntu-30" x="112.799988"/>
       <use xlink:href="#Ubuntu-36" x="169.199982"/>
      </g>
     </g>
    </g>
    <g id="xtick_5">
     <g id="line2d_5">
      <g>
       <use xlink:href="#m740e91498f" x="231.12607" y="171.175156" style="fill: #bbbbbb; stroke: #bbbbbb; stroke-width: 0.75"/>
      </g>
     </g>
     <g id="text_5">
      <!-- 2008 -->
      <g style="fill: #9f9f9f" transform="translate(222.10107 182.882656) scale(0.08 -0.08)">
       <defs>
        <path id="Ubuntu-38" d="M 3258 1152 
Q 3258 883 3165 656 
Q 3072 429 2889 259 
Q 2707 90 2432 -3 
Q 2157 -96 1798 -96 
Q 1382 -96 1104 22 
Q 826 141 659 320 
Q 493 499 422 713 
Q 352 928 352 1120 
Q 352 1306 413 1475 
Q 474 1645 573 1792 
Q 672 1939 803 2057 
Q 934 2176 1082 2266 
Q 454 2624 454 3322 
Q 454 3565 550 3785 
Q 646 4006 822 4172 
Q 998 4339 1248 4438 
Q 1498 4538 1805 4538 
Q 2163 4538 2419 4429 
Q 2675 4320 2838 4150 
Q 3002 3981 3075 3776 
Q 3149 3571 3149 3379 
Q 3149 3194 3094 3030 
Q 3040 2867 2947 2726 
Q 2854 2586 2736 2477 
Q 2618 2368 2490 2285 
Q 3245 1926 3258 1152 
z
M 954 1114 
Q 954 998 995 873 
Q 1037 749 1139 643 
Q 1242 538 1402 467 
Q 1562 397 1805 397 
Q 2022 397 2185 461 
Q 2349 525 2451 624 
Q 2554 723 2605 851 
Q 2656 979 2656 1114 
Q 2656 1318 2579 1472 
Q 2502 1626 2358 1741 
Q 2214 1856 2012 1936 
Q 1811 2016 1555 2074 
Q 1267 1914 1110 1677 
Q 954 1440 954 1114 
z
M 2554 3386 
Q 2554 3482 2512 3597 
Q 2470 3712 2380 3811 
Q 2291 3910 2150 3977 
Q 2010 4045 1805 4045 
Q 1600 4045 1456 3981 
Q 1312 3917 1222 3817 
Q 1133 3718 1091 3600 
Q 1050 3482 1050 3366 
Q 1050 3226 1101 3085 
Q 1152 2944 1261 2822 
Q 1370 2701 1546 2605 
Q 1722 2509 1965 2451 
Q 2234 2611 2394 2825 
Q 2554 3040 2554 3386 
z
" transform="scale(0.015625)"/>
       </defs>
       <use xlink:href="#Ubuntu-32"/>
       <use xlink:href="#Ubuntu-30" x="56.399994"/>
       <use xlink:href="#Ubuntu-30" x="112.799988"/>
       <use xlink:href="#Ubuntu-38" x="169.199982"/>
      </g>
     </g>
    </g>
    <g id="xtick_6">
     <g id="line2d_6">
      <g>
       <use xlink:href="#m740e91498f" x="280.85869" y="171.175156" style="fill: #bbbbbb; stroke: #bbbbbb; stroke-width: 0.75"/>
      </g>
     </g>
     <g id="text_6">
      <!-- 2010 -->
      <g style="fill: #9f9f9f" transform="translate(271.83369 182.882656) scale(0.08 -0.08)">
       <defs>
        <path id="Ubuntu-31" d="M 595 3520 
Q 960 3661 1305 3881 
Q 1651 4102 1939 4435 
L 2362 4435 
L 2362 0 
L 1766 0 
L 1766 3610 
Q 1690 3539 1578 3462 
Q 1466 3386 1334 3315 
Q 1203 3245 1059 3181 
Q 915 3117 781 3072 
L 595 3520 
z
" transform="scale(0.015625)"/>
       </defs>
       <use xlink:href="#Ubuntu-32"/>
       <use xlink:href="#Ubuntu-30" x="56.399994"/>
       <use xlink:href="#Ubuntu-31" x="112.799988"/>
       <use xlink:href="#Ubuntu-30" x="169.199982"/>
      </g>
     </g>
    </g>
    <g id="xtick_7">
     <g id="line2d_7">
      <g>
       <use xlink:href="#m740e91498f" x="330.59131" y="171.175156" style="fill: #bbbbbb; stroke: #bbbbbb; stroke-width: 0.75"/>
      </g>
     </g>
     <g id="text_7">
      <!-- 2012 -->
      <g style="fill: #9f9f9f" transform="translate(321.56631 182.882656) scale(0.08 -0.08)">
       <use xlink:href="#Ubuntu-32"/>
       <use xlink:href="#Ubuntu-30" x="56.399994"/>
       <use xlink:href="#Ubuntu-31" x="112.799988"/>
       <use xlink:href="#Ubuntu-32" x="169.199982"/>
      </g>
     </g>
    </g>
    <g id="xtick_8">
     <g id="line2d_8">
      <g>
       <use xlink:href="#m740e91498f" x="380.32393" y="171.175156" style="fill: #bbbbbb; stroke: #bbbbbb; stroke-width: 0.75"/>
      </g>
     </g>
     <g id="text_8">
      <!-- 2014 -->
      <g style="fill: #9f9f9f" transform="translate(371.29893 182.882656) scale(0.08 -0.08)">
       <use xlink:href="#Ubuntu-32"/>
       <use xlink:href="#Ubuntu-30" x="56.399994"/>
       <use xlink:href="#Ubuntu-31" x="112.799988"/>
       <use xlink:href="#Ubuntu-34" x="169.199982"/>
      </g>
     </g>
    </g>
    <g id="xtick_9">
     <g id="line2d_9">
      <g>
       <use xlink:href="#m740e91498f" x="430.056551" y="171.175156" style="fill: #bbbbbb; stroke: #bbbbbb; stroke-width: 0.75"/>
      </g>
     </g>
     <g id="text_9">
      <!-- 2016 -->
      <g style="fill: #9f9f9f" transform="translate(421.031551 182.882656) scale(0.08 -0.08)">
       <use xlink:href="#Ubuntu-32"/>
       <use xlink:href="#Ubuntu-30" x="56.399994"/>
       <use xlink:href="#Ubuntu-31" x="112.799988"/>
       <use xlink:href="#Ubuntu-36" x="169.199982"/>
      </g>
     </g>
    </g>
    <g id="xtick_10">
     <g id="line2d_10">
      <g>
       <use xlink:href="#m740e91498f" x="479.789171" y="171.175156" style="fill: #bbbbbb; stroke: #bbbbbb; stroke-width: 0.75"/>
      </g>
     </g>
     <g id="text_10">
      <!-- 2018 -->
      <g style="fill: #9f9f9f" transform="translate(470.764171 182.882656) scale(0.08 -0.08)">
       <use xlink:href="#Ubuntu-32"/>
       <use xlink:href="#Ubuntu-30" x="56.399994"/>
       <use xlink:href="#Ubuntu-31" x="112.799988"/>
       <use xlink:href="#Ubuntu-38" x="169.199982"/>
      </g>
     </g>
    </g>
    <g id="xtick_11">
     <g id="line2d_11">
      <g>
       <use xlink:href="#m740e91498f" x="529.521791" y="171.175156" style="fill: #bbbbbb; stroke: #bbbbbb; stroke-width: 0.75"/>
      </g>
     </g>
     <g id="text_11">
      <!-- 2020 -->
      <g style="fill: #9f9f9f" transform="translate(520.496791 182.882656) scale(0.08 -0.08)">
       <use xlink:href="#Ubuntu-32"/>
       <use xlink:href="#Ubuntu-30" x="56.399994"/>
       <use xlink:href="#Ubuntu-32" x="112.799988"/>
       <use xlink:href="#Ubuntu-30" x="169.199982"/>
      </g>
     </g>
    </g>
    <g id="xtick_12">
     <g id="line2d_12">
      <g>
       <use xlink:href="#m740e91498f" x="579.254412" y="171.175156" style="fill: #bbbbbb; stroke: #bbbbbb; stroke-width: 0.75"/>
      </g>
     </g>
     <g id="text_12">
      <!-- 2022 -->
      <g style="fill: #9f9f9f" transform="translate(570.229412 182.882656) scale(0.08 -0.08)">
       <use xlink:href="#Ubuntu-32"/>
       <use xlink:href="#Ubuntu-30" x="56.399994"/>
       <use xlink:href="#Ubuntu-32" x="112.799988"/>
       <use xlink:href="#Ubuntu-32" x="169.199982"/>
      </g>
     </g>
    </g>
   </g>
   <g id="matplotlib.axis_2">
    <g id="ytick_1">
     <g id="line2d_13">
      <defs>
       <path id="m28a8e16816" d="M 0 0 
L -2 0 
" style="stroke: #bbbbbb; stroke-width: 0.75"/>
      </defs>
      <g>
       <use xlink:href="#m28a8e16816" x="21.725" y="161.170509" style="fill: #bbbbbb; stroke: #bbbbbb; stroke-width: 0.75"/>
      </g>
     </g>
     <g id="text_13">
      <!-- 15 -->
      <g style="fill: #9f9f9f" transform="translate(7.2 164.274259) scale(0.08 -0.08)">
       <defs>
        <path id="Ubuntu-35" d="M 1274 2726 
Q 2240 2688 2691 2304 
Q 3142 1920 3142 1261 
Q 3142 966 3043 716 
Q 2944 467 2742 288 
Q 2541 109 2233 6 
Q 1926 -96 1504 -96 
Q 1338 -96 1165 -70 
Q 992 -45 845 -6 
Q 698 32 582 70 
Q 467 109 416 134 
L 531 653 
Q 640 602 886 518 
Q 1133 435 1491 435 
Q 1779 435 1974 499 
Q 2170 563 2291 672 
Q 2413 781 2467 925 
Q 2522 1069 2522 1229 
Q 2522 1472 2438 1661 
Q 2355 1850 2144 1978 
Q 1933 2106 1581 2173 
Q 1229 2240 691 2240 
Q 730 2554 752 2829 
Q 774 3104 793 3366 
Q 813 3629 825 3888 
Q 838 4147 851 4435 
L 2989 4435 
L 2989 3930 
L 1370 3930 
Q 1363 3834 1350 3670 
Q 1338 3507 1325 3331 
Q 1312 3155 1299 2988 
Q 1286 2822 1274 2726 
z
" transform="scale(0.015625)"/>
       </defs>
       <use xlink:href="#Ubuntu-31"/>
       <use xlink:href="#Ubuntu-35" x="56.399994"/>
      </g>
     </g>
    </g>
    <g id="ytick_2">
     <g id="line2d_14">
      <g>
       <use xlink:href="#m28a8e16816" x="21.725" y="127.771671" style="fill: #bbbbbb; stroke: #bbbbbb; stroke-width: 0.75"/>
      </g>
     </g>
     <g id="text_14">
      <!-- 20 -->
      <g style="fill: #9f9f9f" transform="translate(7.2 130.875421) scale(0.08 -0.08)">
       <use xlink:href="#Ubuntu-32"/>
       <use xlink:href="#Ubuntu-30" x="56.399994"/>
      </g>
     </g>
    </g>
    <g id="ytick_3">
     <g id="line2d_15">
      <g>
       <use xlink:href="#m28a8e16816" x="21.725" y="94.372833" style="fill: #bbbbbb; stroke: #bbbbbb; stroke-width: 0.75"/>
      </g>
     </g>
     <g id="text_15">
      <!-- 25 -->
      <g style="fill: #9f9f9f" transform="translate(7.2 97.476583) scale(0.08 -0.08)">
       <use xlink:href="#Ubuntu-32"/>
       <use xlink:href="#Ubuntu-35" x="56.399994"/>
      </g>
     </g>
    </g>
    <g id="ytick_4">
     <g id="line2d_16">
      <g>
       <use xlink:href="#m28a8e16816" x="21.725" y="60.973995" style="fill: #bbbbbb; stroke: #bbbbbb; stroke-width: 0.75"/>
      </g>
     </g>
     <g id="text_16">
      <!-- 30 -->
      <g style="fill: #9f9f9f" transform="translate(7.2 64.077745) scale(0.08 -0.08)">
       <defs>
        <path id="Ubuntu-33" d="M 1446 435 
Q 2016 435 2262 659 
Q 2509 883 2509 1261 
Q 2509 1504 2406 1670 
Q 2304 1837 2137 1936 
Q 1971 2035 1750 2076 
Q 1530 2118 1299 2118 
L 1146 2118 
L 1146 2605 
L 1357 2605 
Q 1517 2605 1686 2637 
Q 1856 2669 1997 2752 
Q 2138 2835 2227 2979 
Q 2317 3123 2317 3341 
Q 2317 3520 2253 3648 
Q 2189 3776 2083 3859 
Q 1978 3942 1840 3977 
Q 1702 4013 1549 4013 
Q 1242 4013 1027 3923 
Q 813 3834 666 3738 
L 435 4192 
Q 512 4243 630 4304 
Q 749 4365 896 4416 
Q 1043 4467 1212 4502 
Q 1382 4538 1568 4538 
Q 1920 4538 2176 4451 
Q 2432 4365 2598 4208 
Q 2765 4051 2848 3836 
Q 2931 3622 2931 3373 
Q 2931 3027 2732 2780 
Q 2534 2534 2253 2406 
Q 2426 2355 2586 2259 
Q 2746 2163 2864 2016 
Q 2982 1869 3056 1677 
Q 3130 1485 3130 1248 
Q 3130 960 3030 713 
Q 2931 467 2723 288 
Q 2515 109 2201 6 
Q 1888 -96 1459 -96 
Q 1293 -96 1117 -70 
Q 941 -45 787 -6 
Q 634 32 518 70 
Q 403 109 352 134 
L 467 653 
Q 576 602 829 518 
Q 1082 435 1446 435 
z
" transform="scale(0.015625)"/>
       </defs>
       <use xlink:href="#Ubuntu-33"/>
       <use xlink:href="#Ubuntu-30" x="56.399994"/>
      </g>
     </g>
    </g>
    <g id="ytick_5">
     <g id="line2d_17">
      <g>
       <use xlink:href="#m28a8e16816" x="21.725" y="27.575156" style="fill: #bbbbbb; stroke: #bbbbbb; stroke-width: 0.75"/>
      </g>
     </g>
     <g id="text_17">
      <!-- 35 -->
      <g style="fill: #9f9f9f" transform="translate(7.2 30.678906) scale(0.08 -0.08)">
       <use xlink:href="#Ubuntu-33"/>
       <use xlink:href="#Ubuntu-35" x="56.399994"/>
      </g>
     </g>
    </g>
   </g>
   <g id="PolyCollection_1">
    <path d="M 32.195588 161.170509 
L 32.195588 161.170509 
L 34.025216 161.170509 
L 35.854845 161.170509 
L 37.684473 161.170509 
L 39.514101 161.170509 
L 41.343729 161.170509 
L 43.173357 161.170509 
L 45.002985 161.170509 
L 46.832614 161.170509 
L 48.662242 161.170509 
L 50.49187 161.170509 
L 52.321498 161.170509 
L 54.151126 161.170509 
L 55.980754 161.170509 
L 57.810383 161.170509 
L 59.640011 161.170509 
L 61.469639 161.170509 
L 63.299267 161.170509 
L 65.128895 161.170509 
L 66.958524 161.170509 
L 68.788152 161.170509 
L 70.61778 161.170509 
L 72.447408 161.170509 
L 74.277036 161.170509 
L 76.106664 161.170509 
L 77.936293 161.170509 
L 79.765921 161.170509 
L 81.595549 161.170509 
L 83.425177 161.170509 
L 85.254805 161.170509 
L 87.084433 161.170509 
L 88.914062 161.170509 
L 90.74369 161.170509 
L 92.573318 161.170509 
L 94.402946 161.170509 
L 96.232574 161.170509 
L 98.062202 161.170509 
L 99.891831 161.170509 
L 101.721459 161.170509 
L 103.551087 161.170509 
L 105.380715 161.170509 
L 107.210343 161.170509 
L 109.039971 161.170509 
L 110.8696 161.170509 
L 112.699228 161.170509 
L 114.528856 161.170509 
L 116.358484 161.170509 
L 118.188112 161.170509 
L 120.017741 161.170509 
L 121.847369 161.170509 
L 123.676997 161.170509 
L 125.506625 161.170509 
L 127.336253 161.170509 
L 129.165881 161.170509 
L 130.99551 161.170509 
L 132.825138 161.170509 
L 134.654766 161.170509 
L 136.484394 161.170509 
L 138.314022 161.170509 
L 140.14365 161.170509 
L 141.973279 161.170509 
L 143.802907 161.170509 
L 145.632535 161.170509 
L 147.462163 161.170509 
L 149.291791 161.170509 
L 151.121419 161.170509 
L 152.951048 161.170509 
L 154.780676 161.170509 
L 156.610304 161.170509 
L 158.439932 161.170509 
L 160.26956 161.170509 
L 162.099188 161.170509 
L 163.928817 161.170509 
L 165.758445 161.170509 
L 167.588073 161.170509 
L 169.417701 161.170509 
L 171.247329 161.170509 
L 173.076958 161.170509 
L 174.906586 161.170509 
L 176.736214 161.170509 
L 178.565842 161.170509 
L 180.39547 161.170509 
L 182.225098 161.170509 
L 184.054727 161.170509 
L 185.884355 161.170509 
L 187.713983 161.170509 
L 189.543611 161.170509 
L 191.373239 161.170509 
L 193.202867 161.170509 
L 195.032496 161.170509 
L 196.862124 161.170509 
L 198.691752 161.170509 
L 200.52138 161.170509 
L 202.351008 161.170509 
L 204.180636 161.170509 
L 206.010265 161.170509 
L 207.839893 161.170509 
L 209.669521 161.170509 
L 211.499149 161.170509 
L 213.328777 161.170509 
L 215.158405 161.170509 
L 216.988034 161.170509 
L 218.817662 161.170509 
L 220.64729 161.170509 
L 222.476918 161.170509 
L 224.306546 161.170509 
L 226.136175 161.170509 
L 227.965803 161.170509 
L 229.795431 161.170509 
L 229.795431 161.170509 
L 229.795431 98.616116 
L 227.965803 98.931813 
L 226.136175 99.237581 
L 224.306546 99.532701 
L 222.476918 99.816451 
L 220.64729 100.088113 
L 218.817662 100.346966 
L 216.988034 100.592291 
L 215.158405 100.823367 
L 213.328777 101.039475 
L 211.499149 101.239894 
L 209.669521 101.423905 
L 207.839893 101.590788 
L 206.010265 101.739826 
L 204.180636 101.871893 
L 202.351008 101.992125 
L 200.52138 102.106357 
L 198.691752 102.220428 
L 196.862124 102.340176 
L 195.032496 102.471436 
L 193.202867 102.620049 
L 191.373239 102.791849 
L 189.543611 102.992676 
L 187.713983 103.228367 
L 185.884355 103.504759 
L 184.054727 103.82769 
L 182.225098 104.202997 
L 180.39547 104.636309 
L 178.565842 105.129344 
L 176.736214 105.680348 
L 174.906586 106.287445 
L 173.076958 106.948758 
L 171.247329 107.662413 
L 169.417701 108.426533 
L 167.588073 109.239243 
L 165.758445 110.098668 
L 163.928817 111.002931 
L 162.099188 111.950156 
L 160.26956 112.938469 
L 158.439932 113.965993 
L 156.610304 115.030853 
L 154.780676 116.129835 
L 152.951048 117.25359 
L 151.121419 118.39101 
L 149.291791 119.530991 
L 147.462163 120.662424 
L 145.632535 121.774204 
L 143.802907 122.855223 
L 141.973279 123.894375 
L 140.14365 124.880553 
L 138.314022 125.802651 
L 136.484394 126.649562 
L 134.654766 127.410179 
L 132.825138 128.073396 
L 130.99551 128.628283 
L 129.165881 129.072619 
L 127.336253 129.416624 
L 125.506625 129.671479 
L 123.676997 129.848362 
L 121.847369 129.958454 
L 120.017741 130.012934 
L 118.188112 130.022981 
L 116.358484 129.999775 
L 114.528856 129.954496 
L 112.699228 129.898323 
L 110.8696 129.842435 
L 109.039971 129.798013 
L 107.210343 129.776235 
L 105.380715 129.787538 
L 103.551087 129.836355 
L 101.721459 129.924216 
L 99.891831 130.052633 
L 98.062202 130.223117 
L 96.232574 130.43718 
L 94.402946 130.696332 
L 92.573318 131.002085 
L 90.74369 131.355952 
L 88.914062 131.759442 
L 87.084433 132.214067 
L 85.254805 132.72134 
L 83.425177 133.282771 
L 81.595549 133.89986 
L 79.765921 134.571194 
L 77.936293 135.28851 
L 76.106664 136.042568 
L 74.277036 136.824122 
L 72.447408 137.623933 
L 70.61778 138.432755 
L 68.788152 139.241348 
L 66.958524 140.040467 
L 65.128895 140.820872 
L 63.299267 141.573318 
L 61.469639 142.288564 
L 59.640011 142.957366 
L 57.810383 143.570482 
L 55.980754 144.11867 
L 54.151126 144.592687 
L 52.321498 144.983289 
L 50.49187 145.281235 
L 48.662242 145.477282 
L 46.832614 145.562187 
L 45.002985 145.526708 
L 43.173357 145.361602 
L 41.343729 145.057626 
L 39.514101 144.605537 
L 37.684473 143.996093 
L 35.854845 143.220052 
L 34.025216 142.268171 
L 32.195588 141.131206 
z
" clip-path="url(#p869f3538e8)" style="fill: #608eb4; fill-opacity: 0.2"/>
   </g>
   <g id="PolyCollection_2">
    <path d="M 231.625059 161.170509 
L 231.625059 161.170509 
L 233.454687 161.170509 
L 235.284315 161.170509 
L 237.113944 161.170509 
L 238.943572 161.170509 
L 240.7732 161.170509 
L 242.602828 161.170509 
L 244.432456 161.170509 
L 246.262084 161.170509 
L 248.091713 161.170509 
L 249.921341 161.170509 
L 251.750969 161.170509 
L 253.580597 161.170509 
L 255.410225 161.170509 
L 257.239853 161.170509 
L 259.069482 161.170509 
L 260.89911 161.170509 
L 262.728738 161.170509 
L 264.558366 161.170509 
L 266.387994 161.170509 
L 268.217622 161.170509 
L 270.047251 161.170509 
L 271.876879 161.170509 
L 273.706507 161.170509 
L 275.536135 161.170509 
L 277.365763 161.170509 
L 279.195392 161.170509 
L 281.02502 161.170509 
L 282.854648 161.170509 
L 284.684276 161.170509 
L 286.513904 161.170509 
L 288.343532 161.170509 
L 290.173161 161.170509 
L 292.002789 161.170509 
L 293.832417 161.170509 
L 295.662045 161.170509 
L 297.491673 161.170509 
L 299.321301 161.170509 
L 301.15093 161.170509 
L 302.980558 161.170509 
L 304.810186 161.170509 
L 306.639814 161.170509 
L 308.469442 161.170509 
L 310.29907 161.170509 
L 312.128699 161.170509 
L 313.958327 161.170509 
L 315.787955 161.170509 
L 317.617583 161.170509 
L 319.447211 161.170509 
L 321.276839 161.170509 
L 323.106468 161.170509 
L 324.936096 161.170509 
L 326.765724 161.170509 
L 328.595352 161.170509 
L 330.42498 161.170509 
L 330.42498 161.170509 
L 330.42498 106.964607 
L 328.595352 105.977153 
L 326.765724 105.177788 
L 324.936096 104.546578 
L 323.106468 104.063588 
L 321.276839 103.708885 
L 319.447211 103.462534 
L 317.617583 103.304601 
L 315.787955 103.215152 
L 313.958327 103.174254 
L 312.128699 103.161971 
L 310.29907 103.158369 
L 308.469442 103.143516 
L 306.639814 103.097475 
L 304.810186 103.000843 
L 302.980558 102.84637 
L 301.15093 102.638967 
L 299.321301 102.38407 
L 297.491673 102.087119 
L 295.662045 101.75355 
L 293.832417 101.388802 
L 292.002789 100.998312 
L 290.173161 100.587518 
L 288.343532 100.161859 
L 286.513904 99.726772 
L 284.684276 99.287695 
L 282.854648 98.850066 
L 281.02502 98.419323 
L 279.195392 98.000594 
L 277.365763 97.597385 
L 275.536135 97.212668 
L 273.706507 96.849415 
L 271.876879 96.510598 
L 270.047251 96.19919 
L 268.217622 95.918162 
L 266.387994 95.670486 
L 264.558366 95.459135 
L 262.728738 95.28708 
L 260.89911 95.157294 
L 259.069482 95.072748 
L 257.239853 95.036416 
L 255.410225 95.051228 
L 253.580597 95.117404 
L 251.750969 95.230789 
L 249.921341 95.386827 
L 248.091713 95.580965 
L 246.262084 95.808648 
L 244.432456 96.065321 
L 242.602828 96.346432 
L 240.7732 96.647424 
L 238.943572 96.963745 
L 237.113944 97.29084 
L 235.284315 97.624154 
L 233.454687 97.959133 
L 231.625059 98.291224 
z
" clip-path="url(#p869f3538e8)" style="fill: #489079; fill-opacity: 0.2"/>
   </g>
   <g id="PolyCollection_3">
    <path d="M 332.254608 161.170509 
L 332.254608 161.170509 
L 334.084237 161.170509 
L 335.913865 161.170509 
L 337.743493 161.170509 
L 339.573121 161.170509 
L 341.402749 161.170509 
L 343.232378 161.170509 
L 345.062006 161.170509 
L 346.891634 161.170509 
L 348.721262 161.170509 
L 350.55089 161.170509 
L 352.380518 161.170509 
L 354.210147 161.170509 
L 356.039775 161.170509 
L 357.869403 161.170509 
L 359.699031 161.170509 
L 361.528659 161.170509 
L 363.358287 161.170509 
L 365.187916 161.170509 
L 367.017544 161.170509 
L 368.847172 161.170509 
L 370.6768 161.170509 
L 372.506428 161.170509 
L 374.336056 161.170509 
L 376.165685 161.170509 
L 377.995313 161.170509 
L 379.824941 161.170509 
L 381.654569 161.170509 
L 383.484197 161.170509 
L 385.313825 161.170509 
L 387.143454 161.170509 
L 388.973082 161.170509 
L 390.80271 161.170509 
L 392.632338 161.170509 
L 394.461966 161.170509 
L 396.291595 161.170509 
L 398.121223 161.170509 
L 399.950851 161.170509 
L 401.780479 161.170509 
L 403.610107 161.170509 
L 405.439735 161.170509 
L 407.269364 161.170509 
L 409.098992 161.170509 
L 410.92862 161.170509 
L 412.758248 161.170509 
L 414.587876 161.170509 
L 416.417504 161.170509 
L 418.247133 161.170509 
L 420.076761 161.170509 
L 421.906389 161.170509 
L 423.736017 161.170509 
L 425.565645 161.170509 
L 427.395273 161.170509 
L 429.224902 161.170509 
L 431.05453 161.170509 
L 432.884158 161.170509 
L 434.713786 161.170509 
L 436.543414 161.170509 
L 438.373042 161.170509 
L 440.202671 161.170509 
L 442.032299 161.170509 
L 443.861927 161.170509 
L 445.691555 161.170509 
L 447.521183 161.170509 
L 449.350812 161.170509 
L 451.18044 161.170509 
L 453.010068 161.170509 
L 454.839696 161.170509 
L 456.669324 161.170509 
L 458.498952 161.170509 
L 460.328581 161.170509 
L 462.158209 161.170509 
L 463.987837 161.170509 
L 465.817465 161.170509 
L 467.647093 161.170509 
L 469.476721 161.170509 
L 471.30635 161.170509 
L 473.135978 161.170509 
L 474.965606 161.170509 
L 476.795234 161.170509 
L 478.624862 161.170509 
L 480.45449 161.170509 
L 482.284119 161.170509 
L 484.113747 161.170509 
L 485.943375 161.170509 
L 487.773003 161.170509 
L 489.602631 161.170509 
L 491.432259 161.170509 
L 493.261888 161.170509 
L 495.091516 161.170509 
L 496.921144 161.170509 
L 498.750772 161.170509 
L 500.5804 161.170509 
L 502.410029 161.170509 
L 504.239657 161.170509 
L 506.069285 161.170509 
L 507.898913 161.170509 
L 509.728541 161.170509 
L 511.558169 161.170509 
L 513.387798 161.170509 
L 515.217426 161.170509 
L 517.047054 161.170509 
L 518.876682 161.170509 
L 520.70631 161.170509 
L 522.535938 161.170509 
L 524.365567 161.170509 
L 526.195195 161.170509 
L 528.024823 161.170509 
L 529.854451 161.170509 
L 531.684079 161.170509 
L 533.513707 161.170509 
L 535.343336 161.170509 
L 537.172964 161.170509 
L 539.002592 161.170509 
L 540.83222 161.170509 
L 542.661848 161.170509 
L 544.491476 161.170509 
L 546.321105 161.170509 
L 548.150733 161.170509 
L 549.980361 161.170509 
L 551.809989 161.170509 
L 553.639617 161.170509 
L 555.469246 161.170509 
L 557.298874 161.170509 
L 559.128502 161.170509 
L 560.95813 161.170509 
L 562.787758 161.170509 
L 564.617386 161.170509 
L 566.447015 161.170509 
L 568.276643 161.170509 
L 570.106271 161.170509 
L 571.935899 161.170509 
L 573.765527 161.170509 
L 575.595155 161.170509 
L 577.424784 161.170509 
L 579.254412 161.170509 
L 579.254412 161.170509 
L 579.254412 50.954343 
L 577.424784 52.216003 
L 575.595155 53.133761 
L 573.765527 53.732633 
L 571.935899 54.037633 
L 570.106271 54.073779 
L 568.276643 53.866086 
L 566.447015 53.43957 
L 564.617386 52.819246 
L 562.787758 52.03013 
L 560.95813 51.097239 
L 559.128502 50.045588 
L 557.298874 48.900193 
L 555.469246 47.686069 
L 553.639617 46.428233 
L 551.809989 45.151701 
L 549.980361 43.881487 
L 548.150733 42.642609 
L 546.321105 41.460081 
L 544.491476 40.35892 
L 542.661848 39.364141 
L 540.83222 38.500761 
L 539.002592 37.793795 
L 537.172964 37.268259 
L 535.343336 36.949168 
L 533.513707 36.861539 
L 531.684079 37.030388 
L 529.854451 37.48073 
L 528.024823 38.231603 
L 526.195195 39.260361 
L 524.365567 40.526603 
L 522.535938 41.989865 
L 520.70631 43.609681 
L 518.876682 45.345588 
L 517.047054 47.157119 
L 515.217426 49.00381 
L 513.387798 50.845196 
L 511.558169 52.640812 
L 509.728541 54.350193 
L 507.898913 55.932874 
L 506.069285 57.34839 
L 504.239657 58.556394 
L 502.410029 59.534787 
L 500.5804 60.299195 
L 498.750772 60.869919 
L 496.921144 61.267258 
L 495.091516 61.511512 
L 493.261888 61.622982 
L 491.432259 61.621968 
L 489.602631 61.528769 
L 487.773003 61.363686 
L 485.943375 61.147019 
L 484.113747 60.899068 
L 482.284119 60.640133 
L 480.45449 60.390513 
L 478.624862 60.169534 
L 476.795234 59.983831 
L 474.965606 59.831167 
L 473.135978 59.709122 
L 471.30635 59.615277 
L 469.476721 59.547213 
L 467.647093 59.50251 
L 465.817465 59.478748 
L 463.987837 59.473509 
L 462.158209 59.484373 
L 460.328581 59.50892 
L 458.498952 59.544731 
L 456.669324 59.589387 
L 454.839696 59.640468 
L 453.010068 59.696729 
L 451.18044 59.761022 
L 449.350812 59.837093 
L 447.521183 59.928688 
L 445.691555 60.039554 
L 443.861927 60.173436 
L 442.032299 60.33408 
L 440.202671 60.525233 
L 438.373042 60.75064 
L 436.543414 61.014048 
L 434.713786 61.319202 
L 432.884158 61.669849 
L 431.05453 62.069735 
L 429.224902 62.522051 
L 427.395273 63.014016 
L 425.565645 63.514867 
L 423.736017 63.992881 
L 421.906389 64.416336 
L 420.076761 64.753508 
L 418.247133 64.972675 
L 416.417504 65.042115 
L 414.587876 64.930104 
L 412.758248 64.604919 
L 410.92862 64.034839 
L 409.098992 63.18814 
L 407.269364 62.033099 
L 405.439735 60.537994 
L 403.610107 58.685157 
L 401.780479 56.541934 
L 399.950851 54.207466 
L 398.121223 51.78095 
L 396.291595 49.361585 
L 394.461966 47.048568 
L 392.632338 44.941096 
L 390.80271 43.138368 
L 388.973082 41.739579 
L 387.143454 40.843929 
L 385.313825 40.550615 
L 383.484197 40.958833 
L 381.654569 42.167783 
L 379.824941 44.275873 
L 377.995313 47.304682 
L 376.165685 51.135558 
L 374.336056 55.634923 
L 372.506428 60.669204 
L 370.6768 66.104822 
L 368.847172 71.808203 
L 367.017544 77.645771 
L 365.187916 83.48395 
L 363.358287 89.189163 
L 361.528659 94.627836 
L 359.699031 99.666392 
L 357.869403 104.171254 
L 356.039775 108.008848 
L 354.210147 111.056748 
L 352.380518 113.315269 
L 350.55089 114.860772 
L 348.721262 115.770747 
L 346.891634 116.122685 
L 345.062006 115.994079 
L 343.232378 115.46242 
L 341.402749 114.6052 
L 339.573121 113.49991 
L 337.743493 112.224042 
L 335.913865 110.855087 
L 334.084237 109.470537 
L 332.254608 108.147884 
z
" clip-path="url(#p869f3538e8)" style="fill: #af5a51; fill-opacity: 0.2"/>
   </g>
   <g id="line2d_18">
    <path d="M 32.195588 141.131206 
L 34.025216 142.268171 
L 35.854845 143.220052 
L 37.684473 143.996093 
L 39.514101 144.605537 
L 41.343729 145.057626 
L 43.173357 145.361602 
L 45.002985 145.526708 
L 46.832614 145.562187 
L 50.49187 145.281235 
L 54.151126 144.592687 
L 57.810383 143.570482 
L 61.469639 142.288564 
L 66.958524 140.040467 
L 77.936293 135.28851 
L 81.595549 133.89986 
L 85.254805 132.72134 
L 88.914062 131.759442 
L 92.573318 131.002085 
L 96.232574 130.43718 
L 99.891831 130.052633 
L 103.551087 129.836355 
L 109.039971 129.798013 
L 120.017741 130.012934 
L 123.676997 129.848362 
L 127.336253 129.416624 
L 130.99551 128.628283 
L 134.654766 127.410179 
L 138.314022 125.802651 
L 141.973279 123.894375 
L 147.462163 120.662424 
L 158.439932 113.965993 
L 163.928817 111.002931 
L 167.588073 109.239243 
L 171.247329 107.662413 
L 174.906586 106.287445 
L 178.565842 105.129344 
L 182.225098 104.202997 
L 185.884355 103.504759 
L 189.543611 102.992676 
L 195.032496 102.471436 
L 211.499149 101.239894 
L 218.817662 100.346966 
L 226.136175 99.237581 
L 237.113944 97.29084 
L 244.432456 96.065321 
L 249.921341 95.386827 
L 253.580597 95.117404 
L 257.239853 95.036416 
L 260.89911 95.157294 
L 264.558366 95.459135 
L 270.047251 96.19919 
L 275.536135 97.212668 
L 282.854648 98.850066 
L 293.832417 101.388802 
L 299.321301 102.38407 
L 302.980558 102.84637 
L 306.639814 103.097475 
L 313.958327 103.174254 
L 317.617583 103.304601 
L 321.276839 103.708885 
L 323.106468 104.063588 
L 324.936096 104.546578 
L 326.765724 105.177788 
L 328.595352 105.977153 
L 330.42498 106.964607 
L 332.254608 108.147884 
L 339.573121 113.49991 
L 341.402749 114.6052 
L 343.232378 115.46242 
L 345.062006 115.994079 
L 346.891634 116.122685 
L 348.721262 115.770747 
L 350.55089 114.860772 
L 352.380518 113.315269 
L 354.210147 111.056748 
L 356.039775 108.008848 
L 357.869403 104.171254 
L 359.699031 99.666392 
L 361.528659 94.627836 
L 365.187916 83.48395 
L 370.6768 66.104822 
L 372.506428 60.669204 
L 374.336056 55.634923 
L 376.165685 51.135558 
L 377.995313 47.304682 
L 379.824941 44.275873 
L 381.654569 42.167783 
L 383.484197 40.958833 
L 385.313825 40.550615 
L 387.143454 40.843929 
L 388.973082 41.739579 
L 390.80271 43.138368 
L 392.632338 44.941096 
L 394.461966 47.048568 
L 398.121223 51.78095 
L 401.780479 56.541934 
L 403.610107 58.685157 
L 405.439735 60.537994 
L 407.269364 62.033099 
L 409.098992 63.18814 
L 410.92862 64.034839 
L 412.758248 64.604919 
L 414.587876 64.930104 
L 416.417504 65.042115 
L 418.247133 64.972675 
L 420.076761 64.753508 
L 423.736017 63.992881 
L 432.884158 61.669849 
L 436.543414 61.014048 
L 442.032299 60.33408 
L 447.521183 59.928688 
L 454.839696 59.640468 
L 463.987837 59.473509 
L 469.476721 59.547213 
L 474.965606 59.831167 
L 480.45449 60.390513 
L 489.602631 61.528769 
L 493.261888 61.622982 
L 495.091516 61.511512 
L 496.921144 61.267258 
L 498.750772 60.869919 
L 500.5804 60.299195 
L 502.410029 59.534787 
L 504.239657 58.556394 
L 506.069285 57.34839 
L 507.898913 55.932874 
L 511.558169 52.640812 
L 522.535938 41.989865 
L 524.365567 40.526603 
L 526.195195 39.260361 
L 528.024823 38.231603 
L 529.854451 37.48073 
L 531.684079 37.030388 
L 533.513707 36.861539 
L 535.343336 36.949168 
L 537.172964 37.268259 
L 539.002592 37.793795 
L 540.83222 38.500761 
L 542.661848 39.364141 
L 546.321105 41.460081 
L 549.980361 43.881487 
L 557.298874 48.900193 
L 560.95813 51.097239 
L 562.787758 52.03013 
L 564.617386 52.819246 
L 566.447015 53.43957 
L 568.276643 53.866086 
L 570.106271 54.073779 
L 571.935899 54.037633 
L 573.765527 53.732633 
L 575.595155 53.133761 
L 577.424784 52.216003 
L 579.254412 50.954343 
L 579.254412 50.954343 
" clip-path="url(#p869f3538e8)" style="fill: none; stroke: #5d5d5d; stroke-width: 1.2; stroke-linecap: square"/>
   </g>
   <g id="patch_3">
    <path d="M 21.725 161.170509 
L 21.725 27.575156 
" style="fill: none; stroke: #bbbbbb; stroke-width: 0.75; stroke-linejoin: miter; stroke-linecap: square"/>
   </g>
   <g id="patch_4">
    <path d="M 32.195588 171.175156 
L 579.254412 171.175156 
" style="fill: none; stroke: #bbbbbb; stroke-width: 0.75; stroke-linejoin: miter; stroke-linecap: square"/>
   </g>
   <g id="legend_1">
    <g id="patch_5">
     <path d="M 34.825 17.783438 
L 52.825 17.783438 
L 52.825 11.483438 
L 34.825 11.483438 
z
" style="fill: #608eb4; fill-opacity: 0.2"/>
    </g>
    <g id="text_18">
     <!-- Первые два срока В. Путина -->
     <g style="fill: #4b4b4b" transform="translate(60.025 17.783438) scale(0.09 -0.09)">
      <defs>
       <path id="Ubuntu-41f" d="M 3923 4435 
L 3923 0 
L 3302 0 
L 3302 3904 
L 1171 3904 
L 1171 0 
L 550 0 
L 550 4435 
L 3923 4435 
z
" transform="scale(0.015625)"/>
       <path id="Ubuntu-435" d="M 326 1658 
Q 326 2099 454 2428 
Q 582 2758 793 2976 
Q 1005 3194 1280 3302 
Q 1555 3411 1843 3411 
Q 2515 3411 2873 2992 
Q 3232 2573 3232 1715 
Q 3232 1677 3232 1616 
Q 3232 1555 3226 1504 
L 947 1504 
Q 986 986 1248 717 
Q 1510 448 2067 448 
Q 2381 448 2595 502 
Q 2810 557 2918 608 
L 3002 109 
Q 2893 51 2621 -13 
Q 2349 -77 2003 -77 
Q 1568 -77 1251 54 
Q 934 186 729 416 
Q 525 646 425 963 
Q 326 1280 326 1658 
z
M 2611 1984 
Q 2618 2387 2410 2646 
Q 2202 2906 1837 2906 
Q 1632 2906 1475 2826 
Q 1318 2746 1209 2618 
Q 1101 2490 1040 2323 
Q 979 2157 960 1984 
L 2611 1984 
z
" transform="scale(0.015625)"/>
       <path id="Ubuntu-440" d="M 2822 1658 
Q 2822 2240 2534 2553 
Q 2246 2867 1766 2867 
Q 1498 2867 1347 2848 
Q 1197 2829 1107 2803 
L 1107 704 
Q 1216 614 1421 531 
Q 1626 448 1869 448 
Q 2125 448 2307 541 
Q 2490 634 2605 797 
Q 2720 960 2771 1181 
Q 2822 1402 2822 1658 
z
M 3443 1658 
Q 3443 1280 3344 960 
Q 3245 640 3053 409 
Q 2861 179 2582 51 
Q 2304 -77 1946 -77 
Q 1658 -77 1437 0 
Q 1216 77 1107 147 
L 1107 -1184 
L 512 -1184 
L 512 3226 
Q 723 3277 1040 3337 
Q 1357 3398 1773 3398 
Q 2157 3398 2464 3276 
Q 2771 3155 2988 2931 
Q 3206 2707 3324 2384 
Q 3443 2061 3443 1658 
z
" transform="scale(0.015625)"/>
       <path id="Ubuntu-432" d="M 1094 448 
Q 1133 442 1203 435 
Q 1274 429 1363 425 
Q 1453 422 1552 419 
Q 1651 416 1741 416 
Q 1926 416 2096 441 
Q 2266 467 2390 531 
Q 2515 595 2588 700 
Q 2662 806 2662 973 
Q 2662 1133 2595 1238 
Q 2528 1344 2413 1408 
Q 2298 1472 2141 1497 
Q 1984 1523 1805 1523 
L 1094 1523 
L 1094 448 
z
M 1728 1965 
Q 1901 1965 2045 1987 
Q 2189 2010 2294 2067 
Q 2400 2125 2461 2221 
Q 2522 2317 2522 2464 
Q 2522 2618 2445 2707 
Q 2368 2797 2243 2845 
Q 2118 2893 1961 2909 
Q 1805 2925 1645 2925 
Q 1498 2925 1347 2918 
Q 1197 2912 1094 2906 
L 1094 1965 
L 1728 1965 
z
M 1715 -58 
Q 1338 -58 1018 -22 
Q 698 13 512 58 
L 512 3296 
Q 698 3341 1018 3376 
Q 1338 3411 1715 3411 
Q 1978 3411 2227 3366 
Q 2477 3322 2669 3216 
Q 2861 3110 2979 2928 
Q 3098 2746 3098 2477 
Q 3098 2234 2976 2061 
Q 2854 1888 2650 1792 
Q 2925 1696 3088 1507 
Q 3251 1318 3251 979 
Q 3251 678 3132 480 
Q 3014 282 2806 160 
Q 2598 38 2316 -10 
Q 2035 -58 1715 -58 
z
" transform="scale(0.015625)"/>
       <path id="Ubuntu-44b" d="M 1734 1645 
Q 1562 1645 1398 1635 
Q 1235 1626 1107 1594 
L 1107 448 
Q 1146 442 1219 435 
Q 1293 429 1379 425 
Q 1466 422 1555 419 
Q 1645 416 1715 416 
Q 2106 416 2317 563 
Q 2528 710 2528 1037 
Q 2528 1197 2461 1312 
Q 2394 1427 2282 1500 
Q 2170 1574 2029 1609 
Q 1888 1645 1734 1645 
z
M 512 3328 
L 1107 3328 
L 1107 2054 
Q 1216 2080 1424 2105 
Q 1632 2131 1824 2131 
Q 2086 2131 2323 2070 
Q 2560 2010 2739 1878 
Q 2918 1747 3024 1539 
Q 3130 1331 3130 1043 
Q 3130 742 3027 531 
Q 2925 320 2739 185 
Q 2554 51 2291 -9 
Q 2029 -70 1715 -70 
Q 1414 -70 1107 -35 
Q 800 0 512 70 
L 512 3328 
z
M 4339 0 
L 3744 0 
L 3744 3328 
L 4339 3328 
L 4339 0 
z
" transform="scale(0.015625)"/>
       <path id="Ubuntu-20" transform="scale(0.015625)"/>
       <path id="Ubuntu-434" d="M 102 486 
L 461 486 
Q 672 794 797 1120 
Q 922 1446 986 1795 
Q 1050 2144 1069 2525 
Q 1088 2906 1094 3328 
L 3277 3328 
L 3277 486 
L 3725 486 
L 3725 -928 
L 3162 -928 
L 3162 0 
L 666 0 
L 666 -928 
L 102 -928 
L 102 486 
z
M 2682 486 
L 2682 2829 
L 1638 2829 
Q 1632 2528 1606 2224 
Q 1581 1920 1523 1622 
Q 1466 1325 1360 1040 
Q 1254 755 1094 486 
L 2682 486 
z
" transform="scale(0.015625)"/>
       <path id="Ubuntu-430" d="M 1638 429 
Q 1850 429 2013 438 
Q 2176 448 2285 474 
L 2285 1466 
Q 2221 1498 2077 1520 
Q 1933 1542 1728 1542 
Q 1594 1542 1443 1523 
Q 1293 1504 1168 1443 
Q 1043 1382 960 1276 
Q 877 1171 877 998 
Q 877 678 1081 553 
Q 1286 429 1638 429 
z
M 1587 3411 
Q 1946 3411 2192 3318 
Q 2438 3226 2588 3056 
Q 2739 2886 2803 2652 
Q 2867 2419 2867 2138 
L 2867 58 
Q 2790 45 2652 22 
Q 2515 0 2342 -19 
Q 2170 -38 1968 -54 
Q 1766 -70 1568 -70 
Q 1286 -70 1049 -12 
Q 813 45 640 169 
Q 467 294 371 499 
Q 275 704 275 992 
Q 275 1267 387 1465 
Q 499 1664 691 1785 
Q 883 1907 1139 1964 
Q 1395 2022 1677 2022 
Q 1766 2022 1862 2012 
Q 1958 2003 2044 1987 
Q 2131 1971 2195 1958 
Q 2259 1946 2285 1939 
L 2285 2106 
Q 2285 2253 2253 2397 
Q 2221 2541 2137 2653 
Q 2054 2765 1910 2832 
Q 1766 2899 1536 2899 
Q 1242 2899 1021 2857 
Q 800 2816 691 2771 
L 621 3264 
Q 736 3315 1005 3363 
Q 1274 3411 1587 3411 
z
" transform="scale(0.015625)"/>
       <path id="Ubuntu-441" d="M 1958 -77 
Q 1555 -77 1251 51 
Q 947 179 739 409 
Q 531 640 428 957 
Q 326 1274 326 1658 
Q 326 2042 438 2362 
Q 550 2682 755 2915 
Q 960 3149 1257 3280 
Q 1555 3411 1920 3411 
Q 2144 3411 2368 3372 
Q 2592 3334 2797 3251 
L 2662 2746 
Q 2528 2810 2352 2848 
Q 2176 2886 1978 2886 
Q 1478 2886 1212 2572 
Q 947 2259 947 1658 
Q 947 1389 1008 1165 
Q 1069 941 1200 781 
Q 1331 621 1536 534 
Q 1741 448 2035 448 
Q 2272 448 2464 493 
Q 2656 538 2765 589 
L 2848 90 
Q 2797 58 2701 29 
Q 2605 0 2483 -22 
Q 2362 -45 2224 -61 
Q 2086 -77 1958 -77 
z
" transform="scale(0.015625)"/>
       <path id="Ubuntu-43e" d="M 3450 1664 
Q 3450 1267 3334 947 
Q 3219 627 3011 396 
Q 2803 166 2515 41 
Q 2227 -83 1888 -83 
Q 1549 -83 1261 41 
Q 973 166 765 396 
Q 557 627 441 947 
Q 326 1267 326 1664 
Q 326 2054 441 2377 
Q 557 2701 765 2931 
Q 973 3162 1261 3286 
Q 1549 3411 1888 3411 
Q 2227 3411 2515 3286 
Q 2803 3162 3011 2931 
Q 3219 2701 3334 2377 
Q 3450 2054 3450 1664 
z
M 2829 1664 
Q 2829 2227 2576 2556 
Q 2323 2886 1888 2886 
Q 1453 2886 1200 2556 
Q 947 2227 947 1664 
Q 947 1101 1200 771 
Q 1453 442 1888 442 
Q 2323 442 2576 771 
Q 2829 1101 2829 1664 
z
" transform="scale(0.015625)"/>
       <path id="Ubuntu-43a" d="M 1728 1811 
Q 1926 1670 2156 1456 
Q 2387 1242 2608 992 
Q 2829 742 3021 483 
Q 3213 224 3347 0 
L 2643 0 
Q 2502 218 2313 445 
Q 2125 672 1920 883 
Q 1715 1094 1504 1273 
Q 1293 1453 1107 1574 
L 1107 0 
L 512 0 
L 512 3328 
L 1107 3328 
L 1107 1901 
Q 1261 2048 1459 2243 
Q 1658 2438 1859 2640 
Q 2061 2842 2233 3024 
Q 2406 3206 2515 3328 
L 3206 3328 
Q 3066 3174 2877 2979 
Q 2688 2784 2486 2579 
Q 2285 2374 2086 2172 
Q 1888 1971 1728 1811 
z
" transform="scale(0.015625)"/>
       <path id="Ubuntu-412" d="M 1747 -38 
Q 1613 -38 1456 -32 
Q 1299 -26 1142 -13 
Q 986 0 832 19 
Q 678 38 550 70 
L 550 4371 
Q 678 4403 832 4422 
Q 986 4442 1142 4454 
Q 1299 4467 1452 4473 
Q 1606 4480 1741 4480 
Q 2125 4480 2461 4422 
Q 2797 4365 3043 4227 
Q 3290 4090 3430 3866 
Q 3571 3642 3571 3315 
Q 3571 2950 3398 2716 
Q 3226 2483 2938 2368 
Q 3328 2253 3558 2003 
Q 3789 1754 3789 1299 
Q 3789 634 3299 298 
Q 2810 -38 1747 -38 
z
M 1165 2067 
L 1165 506 
Q 1235 499 1331 493 
Q 1414 486 1526 483 
Q 1638 480 1786 480 
Q 2061 480 2307 515 
Q 2554 550 2739 640 
Q 2925 730 3037 890 
Q 3149 1050 3149 1293 
Q 3149 1510 3065 1660 
Q 2982 1811 2825 1900 
Q 2669 1990 2451 2028 
Q 2234 2067 1965 2067 
L 1165 2067 
z
M 1165 2566 
L 1818 2566 
Q 2048 2566 2253 2598 
Q 2458 2630 2608 2713 
Q 2758 2797 2844 2931 
Q 2931 3066 2931 3270 
Q 2931 3462 2841 3593 
Q 2752 3725 2595 3805 
Q 2438 3885 2227 3923 
Q 2016 3962 1779 3962 
Q 1542 3962 1408 3955 
Q 1274 3949 1165 3936 
L 1165 2566 
z
" transform="scale(0.015625)"/>
       <path id="Ubuntu-2e" d="M 1216 346 
Q 1216 173 1101 45 
Q 986 -83 787 -83 
Q 589 -83 473 45 
Q 358 173 358 346 
Q 358 518 473 646 
Q 589 774 787 774 
Q 986 774 1101 646 
Q 1216 518 1216 346 
z
" transform="scale(0.015625)"/>
       <path id="Ubuntu-443" d="M 122 -621 
Q 192 -653 304 -681 
Q 416 -710 525 -710 
Q 877 -710 1075 -553 
Q 1274 -397 1434 -45 
Q 1030 723 681 1584 
Q 333 2445 102 3328 
L 742 3328 
Q 813 3040 912 2707 
Q 1011 2374 1132 2022 
Q 1254 1670 1395 1318 
Q 1536 966 1690 640 
Q 1933 1312 2112 1971 
Q 2291 2630 2451 3328 
L 3066 3328 
Q 2835 2387 2553 1520 
Q 2272 653 1946 -102 
Q 1818 -390 1680 -598 
Q 1542 -806 1376 -940 
Q 1210 -1075 1002 -1139 
Q 794 -1203 531 -1203 
Q 461 -1203 384 -1193 
Q 307 -1184 233 -1168 
Q 160 -1152 99 -1133 
Q 38 -1114 13 -1101 
L 122 -621 
z
" transform="scale(0.015625)"/>
       <path id="Ubuntu-442" d="M 2861 3328 
L 2861 2829 
L 1779 2829 
L 1779 0 
L 1184 0 
L 1184 2829 
L 102 2829 
L 102 3328 
L 2861 3328 
z
" transform="scale(0.015625)"/>
       <path id="Ubuntu-438" d="M 3309 3328 
L 3309 0 
L 2733 0 
L 2733 2534 
Q 2541 2291 2310 1964 
Q 2080 1638 1849 1289 
Q 1619 941 1408 601 
Q 1197 262 1043 0 
L 512 0 
L 512 3328 
L 1088 3328 
L 1088 934 
Q 1254 1210 1465 1539 
Q 1677 1869 1904 2192 
Q 2131 2515 2358 2812 
Q 2586 3110 2784 3328 
L 3309 3328 
z
" transform="scale(0.015625)"/>
       <path id="Ubuntu-43d" d="M 3238 0 
L 2643 0 
L 2643 1472 
L 1107 1472 
L 1107 0 
L 512 0 
L 512 3328 
L 1107 3328 
L 1107 1971 
L 2643 1971 
L 2643 3328 
L 3238 3328 
L 3238 0 
z
" transform="scale(0.015625)"/>
      </defs>
      <use xlink:href="#Ubuntu-41f"/>
      <use xlink:href="#Ubuntu-435" x="69.899994"/>
      <use xlink:href="#Ubuntu-440" x="125.799988"/>
      <use xlink:href="#Ubuntu-432" x="184.699982"/>
      <use xlink:href="#Ubuntu-44b" x="239.499969"/>
      <use xlink:href="#Ubuntu-435" x="315.299957"/>
      <use xlink:href="#Ubuntu-20" x="371.199951"/>
      <use xlink:href="#Ubuntu-434" x="394.299942"/>
      <use xlink:href="#Ubuntu-432" x="454.59993"/>
      <use xlink:href="#Ubuntu-430" x="509.399918"/>
      <use xlink:href="#Ubuntu-20" x="561.599915"/>
      <use xlink:href="#Ubuntu-441" x="584.699905"/>
      <use xlink:href="#Ubuntu-440" x="631.19989"/>
      <use xlink:href="#Ubuntu-43e" x="690.099884"/>
      <use xlink:href="#Ubuntu-43a" x="749.099869"/>
      <use xlink:href="#Ubuntu-430" x="802.799866"/>
      <use xlink:href="#Ubuntu-20" x="854.999863"/>
      <use xlink:href="#Ubuntu-412" x="878.099854"/>
      <use xlink:href="#Ubuntu-2e" x="941.399841"/>
      <use xlink:href="#Ubuntu-20" x="965.999832"/>
      <use xlink:href="#Ubuntu-41f" x="989.099823"/>
      <use xlink:href="#Ubuntu-443" x="1058.999817"/>
      <use xlink:href="#Ubuntu-442" x="1110.824814"/>
      <use xlink:href="#Ubuntu-438" x="1157.124802"/>
      <use xlink:href="#Ubuntu-43d" x="1216.824799"/>
      <use xlink:href="#Ubuntu-430" x="1275.424789"/>
     </g>
    </g>
    <g id="patch_6">
     <path d="M 197.51125 17.783438 
L 215.51125 17.783438 
L 215.51125 11.483438 
L 197.51125 11.483438 
z
" style="fill: #489079; fill-opacity: 0.2"/>
    </g>
    <g id="text_19">
     <!-- Президентство Д. Медведева -->
     <g style="fill: #4b4b4b" transform="translate(222.71125 17.783438) scale(0.09 -0.09)">
      <defs>
       <path id="Ubuntu-437" d="M 1357 3411 
Q 1645 3411 1894 3353 
Q 2144 3296 2323 3181 
Q 2502 3066 2604 2893 
Q 2707 2720 2707 2490 
Q 2707 2342 2656 2220 
Q 2605 2099 2528 2003 
Q 2451 1907 2358 1840 
Q 2266 1773 2182 1747 
Q 2477 1658 2646 1430 
Q 2816 1203 2816 858 
Q 2816 384 2432 153 
Q 2048 -77 1389 -77 
Q 986 -77 694 -13 
Q 403 51 282 109 
L 384 614 
Q 486 576 752 509 
Q 1018 442 1389 442 
Q 1792 442 2003 566 
Q 2214 691 2214 941 
Q 2214 1120 2134 1232 
Q 2054 1344 1932 1401 
Q 1811 1459 1670 1478 
Q 1530 1498 1408 1498 
L 851 1498 
L 851 1971 
L 1389 1971 
Q 1504 1971 1629 1987 
Q 1754 2003 1859 2054 
Q 1965 2106 2035 2198 
Q 2106 2291 2106 2445 
Q 2106 2566 2045 2652 
Q 1984 2739 1881 2796 
Q 1779 2854 1641 2883 
Q 1504 2912 1357 2912 
Q 1242 2912 1107 2893 
Q 973 2874 845 2845 
Q 717 2816 614 2784 
Q 512 2752 467 2726 
L 358 3238 
Q 410 3258 518 3290 
Q 627 3322 764 3347 
Q 902 3373 1056 3392 
Q 1210 3411 1357 3411 
z
" transform="scale(0.015625)"/>
       <path id="Ubuntu-414" d="M 691 0 
L 691 -1184 
L 102 -1184 
L 102 531 
L 570 531 
Q 896 902 1072 1353 
Q 1248 1805 1328 2307 
Q 1408 2810 1424 3347 
Q 1440 3885 1446 4435 
L 3955 4435 
L 3955 531 
L 4512 531 
L 4512 -1184 
L 3923 -1184 
L 3923 0 
L 691 0 
z
M 2054 3904 
Q 2035 3482 2012 3043 
Q 1990 2605 1916 2173 
Q 1843 1741 1702 1325 
Q 1562 909 1306 531 
L 3334 531 
L 3334 3904 
L 2054 3904 
z
" transform="scale(0.015625)"/>
       <path id="Ubuntu-41c" d="M 2541 614 
Q 2477 768 2371 1005 
Q 2266 1242 2144 1517 
Q 2022 1792 1884 2083 
Q 1747 2374 1625 2633 
Q 1504 2893 1398 3097 
Q 1293 3302 1229 3411 
Q 1158 2656 1113 1776 
Q 1069 896 1037 0 
L 429 0 
Q 454 576 486 1161 
Q 518 1747 560 2313 
Q 602 2880 650 3417 
Q 698 3955 755 4435 
L 1299 4435 
Q 1472 4154 1670 3770 
Q 1869 3386 2067 2966 
Q 2266 2547 2451 2128 
Q 2637 1709 2790 1363 
Q 2944 1709 3129 2128 
Q 3315 2547 3513 2966 
Q 3712 3386 3910 3770 
Q 4109 4154 4282 4435 
L 4826 4435 
Q 5043 2291 5152 0 
L 4544 0 
Q 4512 896 4467 1776 
Q 4422 2656 4352 3411 
Q 4288 3302 4182 3097 
Q 4077 2893 3955 2633 
Q 3834 2374 3696 2083 
Q 3558 1792 3436 1517 
Q 3315 1242 3209 1005 
Q 3104 768 3040 614 
L 2541 614 
z
" transform="scale(0.015625)"/>
      </defs>
      <use xlink:href="#Ubuntu-41f"/>
      <use xlink:href="#Ubuntu-440" x="69.899994"/>
      <use xlink:href="#Ubuntu-435" x="128.799988"/>
      <use xlink:href="#Ubuntu-437" x="183.449982"/>
      <use xlink:href="#Ubuntu-438" x="232.349976"/>
      <use xlink:href="#Ubuntu-434" x="292.049973"/>
      <use xlink:href="#Ubuntu-435" x="352.34996"/>
      <use xlink:href="#Ubuntu-43d" x="408.249954"/>
      <use xlink:href="#Ubuntu-442" x="466.849945"/>
      <use xlink:href="#Ubuntu-441" x="513.149933"/>
      <use xlink:href="#Ubuntu-442" x="561.149918"/>
      <use xlink:href="#Ubuntu-432" x="607.449905"/>
      <use xlink:href="#Ubuntu-43e" x="662.249893"/>
      <use xlink:href="#Ubuntu-20" x="721.249878"/>
      <use xlink:href="#Ubuntu-414" x="744.349869"/>
      <use xlink:href="#Ubuntu-2e" x="818.399857"/>
      <use xlink:href="#Ubuntu-20" x="842.999847"/>
      <use xlink:href="#Ubuntu-41c" x="866.099838"/>
      <use xlink:href="#Ubuntu-435" x="953.199829"/>
      <use xlink:href="#Ubuntu-434" x="1009.099823"/>
      <use xlink:href="#Ubuntu-432" x="1069.399811"/>
      <use xlink:href="#Ubuntu-435" x="1124.199799"/>
      <use xlink:href="#Ubuntu-434" x="1180.099792"/>
      <use xlink:href="#Ubuntu-435" x="1240.39978"/>
      <use xlink:href="#Ubuntu-432" x="1296.299774"/>
      <use xlink:href="#Ubuntu-430" x="1351.099762"/>
     </g>
    </g>
    <g id="patch_7">
     <path d="M 367.007969 17.783438 
L 385.007969 17.783438 
L 385.007969 11.483438 
L 367.007969 11.483438 
z
" style="fill: #af5a51; fill-opacity: 0.2"/>
    </g>
    <g id="text_20">
     <!-- Последующие сроки В. Путина -->
     <g style="fill: #4b4b4b" transform="translate(392.207969 17.783438) scale(0.09 -0.09)">
      <defs>
       <path id="Ubuntu-43b" d="M 1670 2829 
Q 1670 2618 1660 2378 
Q 1651 2138 1625 1898 
Q 1600 1658 1555 1424 
Q 1510 1190 1440 986 
Q 1370 781 1264 601 
Q 1158 422 1004 284 
Q 851 147 646 54 
Q 442 -38 166 -64 
L 83 435 
Q 397 499 579 672 
Q 762 845 870 1094 
Q 966 1312 1011 1587 
Q 1056 1862 1075 2160 
Q 1094 2458 1097 2758 
Q 1101 3059 1101 3328 
L 3315 3328 
L 3315 0 
L 2720 0 
L 2720 2829 
L 1670 2829 
z
" transform="scale(0.015625)"/>
       <path id="Ubuntu-44e" d="M 1107 1952 
L 1837 1952 
Q 1875 2285 2006 2553 
Q 2138 2822 2336 3014 
Q 2534 3206 2790 3308 
Q 3046 3411 3341 3411 
Q 3667 3411 3945 3286 
Q 4224 3162 4429 2931 
Q 4634 2701 4749 2377 
Q 4864 2054 4864 1664 
Q 4864 1267 4749 947 
Q 4634 627 4429 396 
Q 4224 166 3945 41 
Q 3667 -83 3341 -83 
Q 3034 -83 2768 29 
Q 2502 141 2304 342 
Q 2106 544 1981 832 
Q 1856 1120 1830 1472 
L 1107 1472 
L 1107 0 
L 512 0 
L 512 3328 
L 1107 3328 
L 1107 1952 
z
M 4250 1664 
Q 4250 2227 4003 2556 
Q 3757 2886 3341 2886 
Q 2925 2886 2678 2556 
Q 2432 2227 2432 1664 
Q 2432 1101 2678 771 
Q 2925 442 3341 442 
Q 3757 442 4003 771 
Q 4250 1101 4250 1664 
z
" transform="scale(0.015625)"/>
       <path id="Ubuntu-449" d="M 512 0 
L 512 3328 
L 1107 3328 
L 1107 493 
L 2336 493 
L 2336 3328 
L 2931 3328 
L 2931 493 
L 4160 493 
L 4160 3328 
L 4755 3328 
L 4755 493 
L 5203 493 
L 5203 -928 
L 4640 -928 
L 4640 0 
L 512 0 
z
" transform="scale(0.015625)"/>
      </defs>
      <use xlink:href="#Ubuntu-41f"/>
      <use xlink:href="#Ubuntu-43e" x="69.899994"/>
      <use xlink:href="#Ubuntu-441" x="128.899979"/>
      <use xlink:href="#Ubuntu-43b" x="177.274963"/>
      <use xlink:href="#Ubuntu-435" x="237.074951"/>
      <use xlink:href="#Ubuntu-434" x="292.974945"/>
      <use xlink:href="#Ubuntu-443" x="355.649933"/>
      <use xlink:href="#Ubuntu-44e" x="405.34993"/>
      <use xlink:href="#Ubuntu-449" x="486.449921"/>
      <use xlink:href="#Ubuntu-438" x="569.849915"/>
      <use xlink:href="#Ubuntu-435" x="629.549911"/>
      <use xlink:href="#Ubuntu-20" x="685.449905"/>
      <use xlink:href="#Ubuntu-441" x="708.549896"/>
      <use xlink:href="#Ubuntu-440" x="755.049881"/>
      <use xlink:href="#Ubuntu-43e" x="813.949875"/>
      <use xlink:href="#Ubuntu-43a" x="872.94986"/>
      <use xlink:href="#Ubuntu-438" x="926.649857"/>
      <use xlink:href="#Ubuntu-20" x="986.349854"/>
      <use xlink:href="#Ubuntu-412" x="1009.449844"/>
      <use xlink:href="#Ubuntu-2e" x="1072.749832"/>
      <use xlink:href="#Ubuntu-20" x="1097.349823"/>
      <use xlink:href="#Ubuntu-41f" x="1120.449814"/>
      <use xlink:href="#Ubuntu-443" x="1190.349808"/>
      <use xlink:href="#Ubuntu-442" x="1242.174805"/>
      <use xlink:href="#Ubuntu-438" x="1288.474792"/>
      <use xlink:href="#Ubuntu-43d" x="1348.174789"/>
      <use xlink:href="#Ubuntu-430" x="1406.77478"/>
     </g>
    </g>
   </g>
  </g>
 </g>
 <defs>
  <clipPath id="p869f3538e8">
   <rect x="26.725" y="27.575156" width="558" height="138.6"/>
  </clipPath>
 </defs>
</svg>
