<?xml version="1.0" encoding="utf-8" standalone="no"?>
<!DOCTYPE svg PUBLIC "-//W3C//DTD SVG 1.1//EN"
  "http://www.w3.org/Graphics/SVG/1.1/DTD/svg11.dtd">
<svg xmlns:xlink="http://www.w3.org/1999/xlink" width="658.7175pt" height="261.410337pt" viewBox="0 0 658.7175 261.410337" xmlns="http://www.w3.org/2000/svg" version="1.1">
 <metadata>
  <rdf:RDF xmlns:dc="http://purl.org/dc/elements/1.1/" xmlns:cc="http://creativecommons.org/ns#" xmlns:rdf="http://www.w3.org/1999/02/22-rdf-syntax-ns#">
   <cc:Work>
    <dc:type rdf:resource="http://purl.org/dc/dcmitype/StillImage"/>
    <dc:date>2024-02-21T19:15:33.493274</dc:date>
    <dc:format>image/svg+xml</dc:format>
    <dc:creator>
     <cc:Agent>
      <dc:title>Matplotlib v3.8.0, https://matplotlib.org/</dc:title>
     </cc:Agent>
    </dc:creator>
   </cc:Work>
  </rdf:RDF>
 </metadata>
 <defs>
  <style type="text/css">*{stroke-linejoin: round; stroke-linecap: butt}</style>
 </defs>
 <g id="figure_1">
  <g id="patch_1">
   <path d="M 0 261.410337 
L 658.7175 261.410337 
L 658.7175 0 
L 0 0 
L 0 261.410337 
z
" style="fill: none"/>
  </g>
  <g id="axes_1">
   <g id="patch_2">
    <path d="M 28.6925 221.678437 
L 642.4925 221.678437 
L 642.4925 27.638437 
L 28.6925 27.638437 
L 28.6925 221.678437 
z
" style="fill: none"/>
   </g>
   <g id="axes_2">
    <g id="patch_3">
     <path d="M 28.6925 243.022837 
L 642.4925 243.022837 
L 642.4925 243.022837 
L 28.6925 243.022837 
L 28.6925 243.022837 
z
" style="fill: none"/>
    </g>
    <g id="matplotlib.axis_1">
     <g id="xtick_1">
      <g id="line2d_1">
       <path d="M 34.599334 243.022837 
L 34.599334 243.022837 
" clip-path="url(#p1ab3e519e1)" style="fill: none; stroke-dasharray: 0.5,0.825; stroke-dashoffset: 0; stroke: #d9d9d9; stroke-width: 0.5"/>
      </g>
      <g id="text_1">
       <!-- 2021 -->
       <g style="fill: #9f9f9f" transform="translate(25.574334 252.730337) scale(0.08 -0.08)">
        <defs>
         <path id="Ubuntu-32" d="M 2989 3302 
Q 2989 3072 2896 2857 
Q 2803 2643 2649 2435 
Q 2496 2227 2304 2025 
Q 2112 1824 1920 1632 
Q 1811 1523 1667 1376 
Q 1523 1229 1395 1069 
Q 1267 909 1180 761 
Q 1094 614 1094 506 
L 3136 506 
L 3136 0 
L 448 0 
Q 442 38 442 76 
Q 442 115 442 147 
Q 442 448 541 707 
Q 640 966 800 1196 
Q 960 1427 1158 1632 
Q 1357 1837 1549 2029 
Q 1709 2182 1853 2332 
Q 1997 2483 2109 2633 
Q 2221 2784 2288 2944 
Q 2355 3104 2355 3283 
Q 2355 3475 2294 3609 
Q 2234 3744 2131 3833 
Q 2029 3923 1891 3964 
Q 1754 4006 1600 4006 
Q 1414 4006 1260 3955 
Q 1107 3904 985 3837 
Q 864 3770 781 3696 
Q 698 3622 653 3584 
L 358 4006 
Q 416 4070 531 4163 
Q 646 4256 806 4339 
Q 966 4422 1164 4480 
Q 1363 4538 1594 4538 
Q 2291 4538 2640 4214 
Q 2989 3891 2989 3302 
z
" transform="scale(0.015625)"/>
         <path id="Ubuntu-30" d="M 320 2221 
Q 320 3334 713 3936 
Q 1107 4538 1805 4538 
Q 2502 4538 2896 3936 
Q 3290 3334 3290 2221 
Q 3290 1107 2896 505 
Q 2502 -96 1805 -96 
Q 1107 -96 713 505 
Q 320 1107 320 2221 
z
M 2662 2221 
Q 2662 2586 2620 2912 
Q 2579 3238 2480 3481 
Q 2381 3725 2214 3869 
Q 2048 4013 1805 4013 
Q 1562 4013 1395 3869 
Q 1229 3725 1129 3481 
Q 1030 3238 988 2912 
Q 947 2586 947 2221 
Q 947 1856 988 1529 
Q 1030 1203 1129 960 
Q 1229 717 1395 573 
Q 1562 429 1805 429 
Q 2048 429 2214 573 
Q 2381 717 2480 960 
Q 2579 1203 2620 1529 
Q 2662 1856 2662 2221 
z
" transform="scale(0.015625)"/>
         <path id="Ubuntu-31" d="M 595 3520 
Q 960 3661 1305 3881 
Q 1651 4102 1939 4435 
L 2362 4435 
L 2362 0 
L 1766 0 
L 1766 3610 
Q 1690 3539 1578 3462 
Q 1466 3386 1334 3315 
Q 1203 3245 1059 3181 
Q 915 3117 781 3072 
L 595 3520 
z
" transform="scale(0.015625)"/>
        </defs>
        <use xlink:href="#Ubuntu-32"/>
        <use xlink:href="#Ubuntu-30" x="56.399994"/>
        <use xlink:href="#Ubuntu-32" x="112.799988"/>
        <use xlink:href="#Ubuntu-31" x="169.199982"/>
       </g>
      </g>
     </g>
     <g id="xtick_2">
      <g id="line2d_2">
       <path d="M 237.230389 243.022837 
L 237.230389 243.022837 
" clip-path="url(#p1ab3e519e1)" style="fill: none; stroke-dasharray: 0.5,0.825; stroke-dashoffset: 0; stroke: #d9d9d9; stroke-width: 0.5"/>
      </g>
      <g id="text_2">
       <!-- 2022 -->
       <g style="fill: #9f9f9f" transform="translate(228.205389 252.730337) scale(0.08 -0.08)">
        <use xlink:href="#Ubuntu-32"/>
        <use xlink:href="#Ubuntu-30" x="56.399994"/>
        <use xlink:href="#Ubuntu-32" x="112.799988"/>
        <use xlink:href="#Ubuntu-32" x="169.199982"/>
       </g>
      </g>
     </g>
     <g id="xtick_3">
      <g id="line2d_3">
       <path d="M 439.861445 243.022837 
L 439.861445 243.022837 
" clip-path="url(#p1ab3e519e1)" style="fill: none; stroke-dasharray: 0.5,0.825; stroke-dashoffset: 0; stroke: #d9d9d9; stroke-width: 0.5"/>
      </g>
      <g id="text_3">
       <!-- 2023 -->
       <g style="fill: #9f9f9f" transform="translate(430.836445 252.730337) scale(0.08 -0.08)">
        <defs>
         <path id="Ubuntu-33" d="M 1446 435 
Q 2016 435 2262 659 
Q 2509 883 2509 1261 
Q 2509 1504 2406 1670 
Q 2304 1837 2137 1936 
Q 1971 2035 1750 2076 
Q 1530 2118 1299 2118 
L 1146 2118 
L 1146 2605 
L 1357 2605 
Q 1517 2605 1686 2637 
Q 1856 2669 1997 2752 
Q 2138 2835 2227 2979 
Q 2317 3123 2317 3341 
Q 2317 3520 2253 3648 
Q 2189 3776 2083 3859 
Q 1978 3942 1840 3977 
Q 1702 4013 1549 4013 
Q 1242 4013 1027 3923 
Q 813 3834 666 3738 
L 435 4192 
Q 512 4243 630 4304 
Q 749 4365 896 4416 
Q 1043 4467 1212 4502 
Q 1382 4538 1568 4538 
Q 1920 4538 2176 4451 
Q 2432 4365 2598 4208 
Q 2765 4051 2848 3836 
Q 2931 3622 2931 3373 
Q 2931 3027 2732 2780 
Q 2534 2534 2253 2406 
Q 2426 2355 2586 2259 
Q 2746 2163 2864 2016 
Q 2982 1869 3056 1677 
Q 3130 1485 3130 1248 
Q 3130 960 3030 713 
Q 2931 467 2723 288 
Q 2515 109 2201 6 
Q 1888 -96 1459 -96 
Q 1293 -96 1117 -70 
Q 941 -45 787 -6 
Q 634 32 518 70 
Q 403 109 352 134 
L 467 653 
Q 576 602 829 518 
Q 1082 435 1446 435 
z
" transform="scale(0.015625)"/>
        </defs>
        <use xlink:href="#Ubuntu-32"/>
        <use xlink:href="#Ubuntu-30" x="56.399994"/>
        <use xlink:href="#Ubuntu-32" x="112.799988"/>
        <use xlink:href="#Ubuntu-33" x="169.199982"/>
       </g>
      </g>
     </g>
     <g id="xtick_4">
      <g id="line2d_4">
       <path d="M 642.4925 243.022837 
L 642.4925 243.022837 
" clip-path="url(#p1ab3e519e1)" style="fill: none; stroke-dasharray: 0.5,0.825; stroke-dashoffset: 0; stroke: #d9d9d9; stroke-width: 0.5"/>
      </g>
      <g id="text_4">
       <!-- 2024 -->
       <g style="fill: #9f9f9f" transform="translate(633.4675 252.730337) scale(0.08 -0.08)">
        <defs>
         <path id="Ubuntu-34" d="M 256 1536 
Q 378 1818 589 2192 
Q 800 2566 1065 2963 
Q 1331 3360 1635 3744 
Q 1939 4128 2246 4435 
L 2816 4435 
L 2816 1619 
L 3341 1619 
L 3341 1133 
L 2816 1133 
L 2816 0 
L 2240 0 
L 2240 1133 
L 256 1133 
L 256 1536 
z
M 2240 3731 
Q 2048 3526 1853 3273 
Q 1658 3021 1472 2745 
Q 1286 2470 1123 2182 
Q 960 1894 832 1619 
L 2240 1619 
L 2240 3731 
z
" transform="scale(0.015625)"/>
        </defs>
        <use xlink:href="#Ubuntu-32"/>
        <use xlink:href="#Ubuntu-30" x="56.399994"/>
        <use xlink:href="#Ubuntu-32" x="112.799988"/>
        <use xlink:href="#Ubuntu-34" x="169.199982"/>
       </g>
      </g>
     </g>
    </g>
    <g id="matplotlib.axis_2"/>
   </g>
   <g id="matplotlib.axis_3">
    <g id="xtick_5">
     <g id="line2d_5">
      <defs>
       <path id="m2b71efb2cc" d="M 0 0 
L 0 2 
" style="stroke: #bbbbbb; stroke-width: 0.75"/>
      </defs>
      <g>
       <use xlink:href="#m2b71efb2cc" x="34.599334" y="226.678437" style="fill: #bbbbbb; stroke: #bbbbbb; stroke-width: 0.75"/>
      </g>
     </g>
     <g id="text_5">
      <!-- Янв -->
      <g style="fill: #9f9f9f" transform="translate(27.523709 238.385937) scale(0.08 -0.08)">
       <defs>
        <path id="Ubuntu-42f" d="M 2272 3936 
Q 2029 3936 1808 3897 
Q 1587 3859 1414 3763 
Q 1242 3667 1139 3500 
Q 1037 3334 1037 3085 
Q 1037 2611 1341 2428 
Q 1645 2246 2253 2246 
L 2893 2246 
L 2893 3917 
Q 2822 3917 2726 3923 
Q 2643 3930 2531 3933 
Q 2419 3936 2272 3936 
z
M 2323 4480 
Q 2458 4480 2611 4473 
Q 2765 4467 2921 4454 
Q 3078 4442 3232 4422 
Q 3386 4403 3514 4371 
L 3514 0 
L 2893 0 
L 2893 1734 
L 2362 1734 
Q 2272 1734 2173 1737 
Q 2074 1741 1907 1760 
Q 1792 1606 1657 1401 
Q 1523 1197 1388 966 
Q 1254 736 1123 486 
Q 992 237 883 0 
L 230 0 
Q 333 250 473 518 
Q 614 787 764 1030 
Q 915 1274 1052 1482 
Q 1190 1690 1293 1824 
Q 1146 1869 986 1952 
Q 826 2035 691 2182 
Q 557 2330 470 2550 
Q 384 2771 384 3078 
Q 384 3424 518 3686 
Q 653 3949 905 4125 
Q 1158 4301 1516 4390 
Q 1875 4480 2323 4480 
z
" transform="scale(0.015625)"/>
        <path id="Ubuntu-43d" d="M 3238 0 
L 2643 0 
L 2643 1472 
L 1107 1472 
L 1107 0 
L 512 0 
L 512 3328 
L 1107 3328 
L 1107 1971 
L 2643 1971 
L 2643 3328 
L 3238 3328 
L 3238 0 
z
" transform="scale(0.015625)"/>
        <path id="Ubuntu-432" d="M 1094 448 
Q 1133 442 1203 435 
Q 1274 429 1363 425 
Q 1453 422 1552 419 
Q 1651 416 1741 416 
Q 1926 416 2096 441 
Q 2266 467 2390 531 
Q 2515 595 2588 700 
Q 2662 806 2662 973 
Q 2662 1133 2595 1238 
Q 2528 1344 2413 1408 
Q 2298 1472 2141 1497 
Q 1984 1523 1805 1523 
L 1094 1523 
L 1094 448 
z
M 1728 1965 
Q 1901 1965 2045 1987 
Q 2189 2010 2294 2067 
Q 2400 2125 2461 2221 
Q 2522 2317 2522 2464 
Q 2522 2618 2445 2707 
Q 2368 2797 2243 2845 
Q 2118 2893 1961 2909 
Q 1805 2925 1645 2925 
Q 1498 2925 1347 2918 
Q 1197 2912 1094 2906 
L 1094 1965 
L 1728 1965 
z
M 1715 -58 
Q 1338 -58 1018 -22 
Q 698 13 512 58 
L 512 3296 
Q 698 3341 1018 3376 
Q 1338 3411 1715 3411 
Q 1978 3411 2227 3366 
Q 2477 3322 2669 3216 
Q 2861 3110 2979 2928 
Q 3098 2746 3098 2477 
Q 3098 2234 2976 2061 
Q 2854 1888 2650 1792 
Q 2925 1696 3088 1507 
Q 3251 1318 3251 979 
Q 3251 678 3132 480 
Q 3014 282 2806 160 
Q 2598 38 2316 -10 
Q 2035 -58 1715 -58 
z
" transform="scale(0.015625)"/>
       </defs>
       <use xlink:href="#Ubuntu-42f"/>
       <use xlink:href="#Ubuntu-43d" x="63.499985"/>
       <use xlink:href="#Ubuntu-432" x="122.099976"/>
      </g>
     </g>
    </g>
    <g id="xtick_6">
     <g id="line2d_6">
      <g>
       <use xlink:href="#m2b71efb2cc" x="84.563156" y="226.678437" style="fill: #bbbbbb; stroke: #bbbbbb; stroke-width: 0.75"/>
      </g>
     </g>
     <g id="text_6">
      <!-- Апр -->
      <g style="fill: #9f9f9f" transform="translate(77.243156 238.385937) scale(0.08 -0.08)">
       <defs>
        <path id="Ubuntu-410" d="M 3514 0 
Q 3405 288 3309 566 
Q 3213 845 3110 1133 
L 1101 1133 
L 698 0 
L 51 0 
Q 307 704 531 1302 
Q 755 1901 969 2438 
Q 1184 2976 1395 3465 
Q 1606 3955 1837 4435 
L 2406 4435 
Q 2637 3955 2848 3465 
Q 3059 2976 3273 2438 
Q 3488 1901 3712 1302 
Q 3936 704 4192 0 
L 3514 0 
z
M 2931 1645 
Q 2726 2202 2524 2723 
Q 2323 3245 2106 3725 
Q 1882 3245 1680 2723 
Q 1478 2202 1280 1645 
L 2931 1645 
z
" transform="scale(0.015625)"/>
        <path id="Ubuntu-43f" d="M 3187 0 
L 2592 0 
L 2592 2829 
L 1107 2829 
L 1107 0 
L 512 0 
L 512 3328 
L 3187 3328 
L 3187 0 
z
" transform="scale(0.015625)"/>
        <path id="Ubuntu-440" d="M 2822 1658 
Q 2822 2240 2534 2553 
Q 2246 2867 1766 2867 
Q 1498 2867 1347 2848 
Q 1197 2829 1107 2803 
L 1107 704 
Q 1216 614 1421 531 
Q 1626 448 1869 448 
Q 2125 448 2307 541 
Q 2490 634 2605 797 
Q 2720 960 2771 1181 
Q 2822 1402 2822 1658 
z
M 3443 1658 
Q 3443 1280 3344 960 
Q 3245 640 3053 409 
Q 2861 179 2582 51 
Q 2304 -77 1946 -77 
Q 1658 -77 1437 0 
Q 1216 77 1107 147 
L 1107 -1184 
L 512 -1184 
L 512 3226 
Q 723 3277 1040 3337 
Q 1357 3398 1773 3398 
Q 2157 3398 2464 3276 
Q 2771 3155 2988 2931 
Q 3206 2707 3324 2384 
Q 3443 2061 3443 1658 
z
" transform="scale(0.015625)"/>
       </defs>
       <use xlink:href="#Ubuntu-410"/>
       <use xlink:href="#Ubuntu-43f" x="66.299988"/>
       <use xlink:href="#Ubuntu-440" x="124.099976"/>
      </g>
     </g>
    </g>
    <g id="xtick_7">
     <g id="line2d_7">
      <g>
       <use xlink:href="#m2b71efb2cc" x="135.082131" y="226.678437" style="fill: #bbbbbb; stroke: #bbbbbb; stroke-width: 0.75"/>
      </g>
     </g>
     <g id="text_7">
      <!-- Июл -->
      <g style="fill: #9f9f9f" transform="translate(126.534631 238.385937) scale(0.08 -0.08)">
       <defs>
        <path id="Ubuntu-418" d="M 550 0 
L 550 4435 
L 1158 4435 
L 1158 1152 
Q 1363 1491 1660 1926 
Q 1958 2362 2294 2813 
Q 2630 3264 2972 3689 
Q 3315 4115 3616 4435 
L 4109 4435 
L 4109 0 
L 3501 0 
L 3501 3462 
Q 3322 3258 3110 2989 
Q 2899 2720 2675 2416 
Q 2451 2112 2224 1785 
Q 1997 1459 1785 1142 
Q 1574 826 1392 531 
Q 1210 237 1069 0 
L 550 0 
z
" transform="scale(0.015625)"/>
        <path id="Ubuntu-44e" d="M 1107 1952 
L 1837 1952 
Q 1875 2285 2006 2553 
Q 2138 2822 2336 3014 
Q 2534 3206 2790 3308 
Q 3046 3411 3341 3411 
Q 3667 3411 3945 3286 
Q 4224 3162 4429 2931 
Q 4634 2701 4749 2377 
Q 4864 2054 4864 1664 
Q 4864 1267 4749 947 
Q 4634 627 4429 396 
Q 4224 166 3945 41 
Q 3667 -83 3341 -83 
Q 3034 -83 2768 29 
Q 2502 141 2304 342 
Q 2106 544 1981 832 
Q 1856 1120 1830 1472 
L 1107 1472 
L 1107 0 
L 512 0 
L 512 3328 
L 1107 3328 
L 1107 1952 
z
M 4250 1664 
Q 4250 2227 4003 2556 
Q 3757 2886 3341 2886 
Q 2925 2886 2678 2556 
Q 2432 2227 2432 1664 
Q 2432 1101 2678 771 
Q 2925 442 3341 442 
Q 3757 442 4003 771 
Q 4250 1101 4250 1664 
z
" transform="scale(0.015625)"/>
        <path id="Ubuntu-43b" d="M 1670 2829 
Q 1670 2618 1660 2378 
Q 1651 2138 1625 1898 
Q 1600 1658 1555 1424 
Q 1510 1190 1440 986 
Q 1370 781 1264 601 
Q 1158 422 1004 284 
Q 851 147 646 54 
Q 442 -38 166 -64 
L 83 435 
Q 397 499 579 672 
Q 762 845 870 1094 
Q 966 1312 1011 1587 
Q 1056 1862 1075 2160 
Q 1094 2458 1097 2758 
Q 1101 3059 1101 3328 
L 3315 3328 
L 3315 0 
L 2720 0 
L 2720 2829 
L 1670 2829 
z
" transform="scale(0.015625)"/>
       </defs>
       <use xlink:href="#Ubuntu-418"/>
       <use xlink:href="#Ubuntu-44e" x="72.799988"/>
       <use xlink:href="#Ubuntu-43b" x="153.899979"/>
      </g>
     </g>
    </g>
    <g id="xtick_8">
     <g id="line2d_8">
      <g>
       <use xlink:href="#m2b71efb2cc" x="186.15626" y="226.678437" style="fill: #bbbbbb; stroke: #bbbbbb; stroke-width: 0.75"/>
      </g>
     </g>
     <g id="text_8">
      <!-- Окт -->
      <g style="fill: #9f9f9f" transform="translate(179.044385 238.385937) scale(0.08 -0.08)">
       <defs>
        <path id="Ubuntu-41e" d="M 371 2221 
Q 371 2790 540 3225 
Q 710 3661 1001 3952 
Q 1293 4243 1680 4390 
Q 2067 4538 2502 4538 
Q 2931 4538 3312 4390 
Q 3693 4243 3981 3952 
Q 4269 3661 4438 3225 
Q 4608 2790 4608 2221 
Q 4608 1651 4438 1216 
Q 4269 781 3981 489 
Q 3693 198 3312 51 
Q 2931 -96 2502 -96 
Q 2067 -96 1680 51 
Q 1293 198 1001 489 
Q 710 781 540 1216 
Q 371 1651 371 2221 
z
M 1024 2221 
Q 1024 1818 1126 1488 
Q 1229 1158 1417 928 
Q 1606 698 1878 573 
Q 2150 448 2490 448 
Q 2829 448 3097 573 
Q 3366 698 3555 928 
Q 3744 1158 3846 1488 
Q 3949 1818 3949 2221 
Q 3949 2624 3846 2953 
Q 3744 3283 3555 3513 
Q 3366 3744 3097 3869 
Q 2829 3994 2490 3994 
Q 2150 3994 1878 3869 
Q 1606 3744 1417 3513 
Q 1229 3283 1126 2953 
Q 1024 2624 1024 2221 
z
" transform="scale(0.015625)"/>
        <path id="Ubuntu-43a" d="M 1728 1811 
Q 1926 1670 2156 1456 
Q 2387 1242 2608 992 
Q 2829 742 3021 483 
Q 3213 224 3347 0 
L 2643 0 
Q 2502 218 2313 445 
Q 2125 672 1920 883 
Q 1715 1094 1504 1273 
Q 1293 1453 1107 1574 
L 1107 0 
L 512 0 
L 512 3328 
L 1107 3328 
L 1107 1901 
Q 1261 2048 1459 2243 
Q 1658 2438 1859 2640 
Q 2061 2842 2233 3024 
Q 2406 3206 2515 3328 
L 3206 3328 
Q 3066 3174 2877 2979 
Q 2688 2784 2486 2579 
Q 2285 2374 2086 2172 
Q 1888 1971 1728 1811 
z
" transform="scale(0.015625)"/>
        <path id="Ubuntu-442" d="M 2861 3328 
L 2861 2829 
L 1779 2829 
L 1779 0 
L 1184 0 
L 1184 2829 
L 102 2829 
L 102 3328 
L 2861 3328 
z
" transform="scale(0.015625)"/>
       </defs>
       <use xlink:href="#Ubuntu-41e"/>
       <use xlink:href="#Ubuntu-43a" x="77.799988"/>
       <use xlink:href="#Ubuntu-442" x="131.499985"/>
      </g>
     </g>
    </g>
    <g id="xtick_9">
     <g id="line2d_9">
      <g>
       <use xlink:href="#m2b71efb2cc" x="237.230389" y="226.678437" style="fill: #bbbbbb; stroke: #bbbbbb; stroke-width: 0.75"/>
      </g>
     </g>
     <g id="text_9">
      <!-- Янв -->
      <g style="fill: #9f9f9f" transform="translate(230.154764 238.385937) scale(0.08 -0.08)">
       <use xlink:href="#Ubuntu-42f"/>
       <use xlink:href="#Ubuntu-43d" x="63.499985"/>
       <use xlink:href="#Ubuntu-432" x="122.099976"/>
      </g>
     </g>
    </g>
    <g id="xtick_10">
     <g id="line2d_10">
      <g>
       <use xlink:href="#m2b71efb2cc" x="287.194211" y="226.678437" style="fill: #bbbbbb; stroke: #bbbbbb; stroke-width: 0.75"/>
      </g>
     </g>
     <g id="text_10">
      <!-- Апр -->
      <g style="fill: #9f9f9f" transform="translate(279.874211 238.385937) scale(0.08 -0.08)">
       <use xlink:href="#Ubuntu-410"/>
       <use xlink:href="#Ubuntu-43f" x="66.299988"/>
       <use xlink:href="#Ubuntu-440" x="124.099976"/>
      </g>
     </g>
    </g>
    <g id="xtick_11">
     <g id="line2d_11">
      <g>
       <use xlink:href="#m2b71efb2cc" x="337.713187" y="226.678437" style="fill: #bbbbbb; stroke: #bbbbbb; stroke-width: 0.75"/>
      </g>
     </g>
     <g id="text_11">
      <!-- Июл -->
      <g style="fill: #9f9f9f" transform="translate(329.165687 238.385937) scale(0.08 -0.08)">
       <use xlink:href="#Ubuntu-418"/>
       <use xlink:href="#Ubuntu-44e" x="72.799988"/>
       <use xlink:href="#Ubuntu-43b" x="153.899979"/>
      </g>
     </g>
    </g>
    <g id="xtick_12">
     <g id="line2d_12">
      <g>
       <use xlink:href="#m2b71efb2cc" x="388.787316" y="226.678437" style="fill: #bbbbbb; stroke: #bbbbbb; stroke-width: 0.75"/>
      </g>
     </g>
     <g id="text_12">
      <!-- Окт -->
      <g style="fill: #9f9f9f" transform="translate(381.675441 238.385937) scale(0.08 -0.08)">
       <use xlink:href="#Ubuntu-41e"/>
       <use xlink:href="#Ubuntu-43a" x="77.799988"/>
       <use xlink:href="#Ubuntu-442" x="131.499985"/>
      </g>
     </g>
    </g>
    <g id="xtick_13">
     <g id="line2d_13">
      <g>
       <use xlink:href="#m2b71efb2cc" x="439.861445" y="226.678437" style="fill: #bbbbbb; stroke: #bbbbbb; stroke-width: 0.75"/>
      </g>
     </g>
     <g id="text_13">
      <!-- Янв -->
      <g style="fill: #9f9f9f" transform="translate(432.78582 238.385937) scale(0.08 -0.08)">
       <use xlink:href="#Ubuntu-42f"/>
       <use xlink:href="#Ubuntu-43d" x="63.499985"/>
       <use xlink:href="#Ubuntu-432" x="122.099976"/>
      </g>
     </g>
    </g>
    <g id="xtick_14">
     <g id="line2d_14">
      <g>
       <use xlink:href="#m2b71efb2cc" x="489.825267" y="226.678437" style="fill: #bbbbbb; stroke: #bbbbbb; stroke-width: 0.75"/>
      </g>
     </g>
     <g id="text_14">
      <!-- Апр -->
      <g style="fill: #9f9f9f" transform="translate(482.505267 238.385937) scale(0.08 -0.08)">
       <use xlink:href="#Ubuntu-410"/>
       <use xlink:href="#Ubuntu-43f" x="66.299988"/>
       <use xlink:href="#Ubuntu-440" x="124.099976"/>
      </g>
     </g>
    </g>
    <g id="xtick_15">
     <g id="line2d_15">
      <g>
       <use xlink:href="#m2b71efb2cc" x="540.344242" y="226.678437" style="fill: #bbbbbb; stroke: #bbbbbb; stroke-width: 0.75"/>
      </g>
     </g>
     <g id="text_15">
      <!-- Июл -->
      <g style="fill: #9f9f9f" transform="translate(531.796742 238.385937) scale(0.08 -0.08)">
       <use xlink:href="#Ubuntu-418"/>
       <use xlink:href="#Ubuntu-44e" x="72.799988"/>
       <use xlink:href="#Ubuntu-43b" x="153.899979"/>
      </g>
     </g>
    </g>
    <g id="xtick_16">
     <g id="line2d_16">
      <g>
       <use xlink:href="#m2b71efb2cc" x="591.418371" y="226.678437" style="fill: #bbbbbb; stroke: #bbbbbb; stroke-width: 0.75"/>
      </g>
     </g>
     <g id="text_16">
      <!-- Окт -->
      <g style="fill: #9f9f9f" transform="translate(584.306496 238.385937) scale(0.08 -0.08)">
       <use xlink:href="#Ubuntu-41e"/>
       <use xlink:href="#Ubuntu-43a" x="77.799988"/>
       <use xlink:href="#Ubuntu-442" x="131.499985"/>
      </g>
     </g>
    </g>
    <g id="xtick_17">
     <g id="line2d_17">
      <g>
       <use xlink:href="#m2b71efb2cc" x="642.4925" y="226.678437" style="fill: #bbbbbb; stroke: #bbbbbb; stroke-width: 0.75"/>
      </g>
     </g>
     <g id="text_17">
      <!-- Янв -->
      <g style="fill: #9f9f9f" transform="translate(635.416875 238.385937) scale(0.08 -0.08)">
       <use xlink:href="#Ubuntu-42f"/>
       <use xlink:href="#Ubuntu-43d" x="63.499985"/>
       <use xlink:href="#Ubuntu-432" x="122.099976"/>
      </g>
     </g>
    </g>
   </g>
   <g id="matplotlib.axis_4">
    <g id="ytick_1">
     <g id="line2d_18">
      <defs>
       <path id="m45bd2b4866" d="M 0 0 
L -2 0 
" style="stroke: #bbbbbb; stroke-width: 0.75"/>
      </defs>
      <g>
       <use xlink:href="#m45bd2b4866" x="23.6925" y="221.678437" style="fill: #bbbbbb; stroke: #bbbbbb; stroke-width: 0.75"/>
      </g>
     </g>
     <g id="text_18">
      <!-- 0.0 -->
      <g style="fill: #9f9f9f" transform="translate(7.2 224.782187) scale(0.08 -0.08)">
       <defs>
        <path id="Ubuntu-2e" d="M 1216 346 
Q 1216 173 1101 45 
Q 986 -83 787 -83 
Q 589 -83 473 45 
Q 358 173 358 346 
Q 358 518 473 646 
Q 589 774 787 774 
Q 986 774 1101 646 
Q 1216 518 1216 346 
z
" transform="scale(0.015625)"/>
       </defs>
       <use xlink:href="#Ubuntu-30"/>
       <use xlink:href="#Ubuntu-2e" x="56.399994"/>
       <use xlink:href="#Ubuntu-30" x="80.999985"/>
      </g>
     </g>
    </g>
    <g id="ytick_2">
     <g id="line2d_19">
      <g>
       <use xlink:href="#m45bd2b4866" x="23.6925" y="189.338437" style="fill: #bbbbbb; stroke: #bbbbbb; stroke-width: 0.75"/>
      </g>
     </g>
     <g id="text_19">
      <!-- 0.5 -->
      <g style="fill: #9f9f9f" transform="translate(7.2 192.442187) scale(0.08 -0.08)">
       <defs>
        <path id="Ubuntu-35" d="M 1274 2726 
Q 2240 2688 2691 2304 
Q 3142 1920 3142 1261 
Q 3142 966 3043 716 
Q 2944 467 2742 288 
Q 2541 109 2233 6 
Q 1926 -96 1504 -96 
Q 1338 -96 1165 -70 
Q 992 -45 845 -6 
Q 698 32 582 70 
Q 467 109 416 134 
L 531 653 
Q 640 602 886 518 
Q 1133 435 1491 435 
Q 1779 435 1974 499 
Q 2170 563 2291 672 
Q 2413 781 2467 925 
Q 2522 1069 2522 1229 
Q 2522 1472 2438 1661 
Q 2355 1850 2144 1978 
Q 1933 2106 1581 2173 
Q 1229 2240 691 2240 
Q 730 2554 752 2829 
Q 774 3104 793 3366 
Q 813 3629 825 3888 
Q 838 4147 851 4435 
L 2989 4435 
L 2989 3930 
L 1370 3930 
Q 1363 3834 1350 3670 
Q 1338 3507 1325 3331 
Q 1312 3155 1299 2988 
Q 1286 2822 1274 2726 
z
" transform="scale(0.015625)"/>
       </defs>
       <use xlink:href="#Ubuntu-30"/>
       <use xlink:href="#Ubuntu-2e" x="56.399994"/>
       <use xlink:href="#Ubuntu-35" x="80.999985"/>
      </g>
     </g>
    </g>
    <g id="ytick_3">
     <g id="line2d_20">
      <g>
       <use xlink:href="#m45bd2b4866" x="23.6925" y="156.998437" style="fill: #bbbbbb; stroke: #bbbbbb; stroke-width: 0.75"/>
      </g>
     </g>
     <g id="text_20">
      <!-- 1.0 -->
      <g style="fill: #9f9f9f" transform="translate(7.2 160.102187) scale(0.08 -0.08)">
       <use xlink:href="#Ubuntu-31"/>
       <use xlink:href="#Ubuntu-2e" x="56.399994"/>
       <use xlink:href="#Ubuntu-30" x="80.999985"/>
      </g>
     </g>
    </g>
    <g id="ytick_4">
     <g id="line2d_21">
      <g>
       <use xlink:href="#m45bd2b4866" x="23.6925" y="124.658437" style="fill: #bbbbbb; stroke: #bbbbbb; stroke-width: 0.75"/>
      </g>
     </g>
     <g id="text_21">
      <!-- 1.5 -->
      <g style="fill: #9f9f9f" transform="translate(7.2 127.762187) scale(0.08 -0.08)">
       <use xlink:href="#Ubuntu-31"/>
       <use xlink:href="#Ubuntu-2e" x="56.399994"/>
       <use xlink:href="#Ubuntu-35" x="80.999985"/>
      </g>
     </g>
    </g>
    <g id="ytick_5">
     <g id="line2d_22">
      <g>
       <use xlink:href="#m45bd2b4866" x="23.6925" y="92.318437" style="fill: #bbbbbb; stroke: #bbbbbb; stroke-width: 0.75"/>
      </g>
     </g>
     <g id="text_22">
      <!-- 2.0 -->
      <g style="fill: #9f9f9f" transform="translate(7.2 95.422187) scale(0.08 -0.08)">
       <use xlink:href="#Ubuntu-32"/>
       <use xlink:href="#Ubuntu-2e" x="56.399994"/>
       <use xlink:href="#Ubuntu-30" x="80.999985"/>
      </g>
     </g>
    </g>
    <g id="ytick_6">
     <g id="line2d_23">
      <g>
       <use xlink:href="#m45bd2b4866" x="23.6925" y="59.978437" style="fill: #bbbbbb; stroke: #bbbbbb; stroke-width: 0.75"/>
      </g>
     </g>
     <g id="text_23">
      <!-- 2.5 -->
      <g style="fill: #9f9f9f" transform="translate(7.2 63.082187) scale(0.08 -0.08)">
       <use xlink:href="#Ubuntu-32"/>
       <use xlink:href="#Ubuntu-2e" x="56.399994"/>
       <use xlink:href="#Ubuntu-35" x="80.999985"/>
      </g>
     </g>
    </g>
    <g id="ytick_7">
     <g id="line2d_24">
      <g>
       <use xlink:href="#m45bd2b4866" x="23.6925" y="27.638437" style="fill: #bbbbbb; stroke: #bbbbbb; stroke-width: 0.75"/>
      </g>
     </g>
     <g id="text_24">
      <!-- 3.0 -->
      <g style="fill: #9f9f9f" transform="translate(7.2 30.742187) scale(0.08 -0.08)">
       <use xlink:href="#Ubuntu-33"/>
       <use xlink:href="#Ubuntu-2e" x="56.399994"/>
       <use xlink:href="#Ubuntu-30" x="80.999985"/>
      </g>
     </g>
    </g>
   </g>
   <g id="line2d_25">
    <path d="M 34.599334 156.998437 
L 36.574864 153.234223 
L 38.550394 150.429569 
L 40.525923 148.49291 
L 42.501453 147.332679 
L 44.476983 146.85731 
L 46.452513 146.975236 
L 48.428043 147.594891 
L 50.403572 148.624708 
L 52.379102 149.973121 
L 56.330162 153.25947 
L 60.281221 156.721404 
L 62.256751 158.2893 
L 64.232281 159.626394 
L 66.207811 160.641118 
L 68.18334 161.241907 
L 70.15887 161.359683 
L 72.1344 161.041833 
L 74.10993 160.373328 
L 76.085459 159.439159 
L 80.036519 157.11379 
L 83.987579 154.745649 
L 85.963108 153.757222 
L 87.938638 152.974692 
L 89.914168 152.393928 
L 91.889698 152.006947 
L 93.865228 151.805769 
L 95.840757 151.782413 
L 97.816287 151.928897 
L 99.791817 152.237241 
L 101.767347 152.699463 
L 103.742876 153.306884 
L 107.693936 154.90177 
L 111.644996 156.901021 
L 115.596055 159.181782 
L 123.498174 164.13069 
L 131.400293 169.375585 
L 137.326883 173.564298 
L 145.229002 179.219563 
L 149.180061 181.758548 
L 153.131121 183.902654 
L 155.106651 184.776021 
L 157.082181 185.48045 
L 159.05771 185.985889 
L 161.03324 186.262286 
L 163.00877 186.279591 
L 164.9843 186.007751 
L 166.95983 185.416716 
L 168.935359 184.476434 
L 170.910889 183.162912 
L 172.886419 181.525067 
L 176.837478 177.665954 
L 180.788538 173.682479 
L 182.764068 171.889181 
L 184.739598 170.358884 
L 186.715127 169.189567 
L 188.690657 168.432429 
L 190.666187 168.005342 
L 192.641717 167.802583 
L 198.568306 167.483028 
L 200.543836 167.120338 
L 202.519366 166.453355 
L 204.494895 165.382571 
L 206.470425 163.912881 
L 208.445955 162.135811 
L 212.397015 158.036122 
L 216.348074 153.836689 
L 218.323604 151.934938 
L 220.299134 150.290694 
L 222.274663 148.969031 
L 224.250193 147.928274 
L 226.225723 147.102254 
L 230.176783 145.829746 
L 234.127842 144.622152 
L 236.103372 143.877274 
L 238.078902 142.95246 
L 240.054431 141.841575 
L 244.005491 139.279358 
L 247.956551 136.640064 
L 249.93208 135.432834 
L 251.90761 134.375918 
L 253.88314 133.525846 
L 255.85867 132.924956 
L 257.8342 132.548204 
L 259.809729 132.35056 
L 263.760789 132.31246 
L 269.687378 132.47278 
L 273.638438 132.232463 
L 277.589497 131.676809 
L 283.516087 130.729981 
L 287.467146 130.345075 
L 289.442676 130.308622 
L 291.418206 130.40798 
L 293.393736 130.66443 
L 295.369265 131.099245 
L 297.344795 131.733703 
L 299.320325 132.589077 
L 301.295855 133.686645 
L 303.271385 135.04768 
L 305.246914 136.692984 
L 307.222444 138.610474 
L 311.173504 142.994211 
L 317.100093 149.881877 
L 319.075623 151.97836 
L 321.051153 153.85738 
L 323.026682 155.458374 
L 325.002212 156.802609 
L 326.977742 157.951071 
L 330.928801 159.905655 
L 334.879861 161.812097 
L 336.855391 162.90038 
L 338.830921 164.160133 
L 340.80645 165.617068 
L 344.75751 168.925421 
L 350.684099 174.034263 
L 352.659629 175.552254 
L 354.635159 176.884446 
L 356.610689 177.979834 
L 358.586218 178.841585 
L 360.561748 179.506074 
L 362.537278 180.010158 
L 366.488338 180.684536 
L 376.365986 182.010423 
L 380.317046 182.449534 
L 382.292576 182.499792 
L 384.268106 182.378267 
L 386.243635 182.040773 
L 388.219165 181.443122 
L 390.194695 180.544017 
L 392.170225 179.345419 
L 394.145755 177.882584 
L 396.121284 176.191628 
L 398.096814 174.308665 
L 402.047874 170.111176 
L 407.974463 163.271168 
L 429.705291 137.830732 
L 433.65635 133.50359 
L 437.60741 129.452767 
L 441.558469 125.769856 
L 443.533999 124.126298 
L 445.509529 122.67136 
L 447.485059 121.449064 
L 449.460588 120.503431 
L 451.436118 119.878484 
L 453.411648 119.618245 
L 455.387178 119.766734 
L 457.362708 120.365516 
L 459.338237 121.374895 
L 463.289297 124.069137 
L 465.264827 125.467099 
L 467.240357 126.707689 
L 469.215886 127.647457 
L 471.191416 128.142952 
L 473.166946 128.050725 
L 475.142476 127.267197 
L 477.118005 125.91408 
L 479.093535 124.192138 
L 483.044595 120.445163 
L 485.020125 118.821825 
L 486.995654 117.633049 
L 488.971184 117.079684 
L 490.946714 117.359987 
L 492.922244 118.527055 
L 494.897773 120.414622 
L 496.873303 122.838201 
L 500.824363 128.555433 
L 502.799893 131.480109 
L 504.775422 134.202839 
L 506.750952 136.539134 
L 508.726482 138.329476 
L 510.702012 139.598906 
L 512.677542 140.455183 
L 514.653071 141.006455 
L 518.604131 141.626585 
L 520.579661 141.91174 
L 522.55519 142.324487 
L 524.53072 142.972507 
L 526.50625 143.910452 
L 528.48178 145.091992 
L 532.432839 147.955219 
L 538.359429 152.635528 
L 540.334958 154.067785 
L 542.310488 155.345699 
L 546.261548 157.485463 
L 558.114727 163.152241 
L 562.065786 165.64222 
L 567.992375 169.874908 
L 573.918965 174.096605 
L 577.870024 176.547099 
L 579.845554 177.539159 
L 581.821084 178.305103 
L 583.796614 178.791883 
L 585.772143 178.946446 
L 587.747673 178.715742 
L 589.723203 178.046719 
L 591.698733 176.886339 
L 593.674263 175.205647 
L 595.649792 173.050318 
L 597.625322 170.48044 
L 599.600852 167.556097 
L 601.576382 164.337377 
L 605.527441 157.257151 
L 615.40509 138.611025 
L 617.38062 135.200394 
L 619.35615 132.036164 
L 621.33168 129.17842 
L 623.307209 126.687248 
L 625.282739 124.622736 
L 625.282739 124.622736 
" clip-path="url(#pd150cfb937)" style="fill: none; stroke-dasharray: 5.55,2.4; stroke-dashoffset: 0; stroke: #5d5d5d; stroke-width: 1.5"/>
   </g>
   <g id="line2d_26">
    <path d="M 34.599334 156.998437 
L 36.574864 156.963884 
L 38.550394 156.734781 
L 40.525923 156.32952 
L 42.501453 155.766492 
L 44.476983 155.064089 
L 48.428043 153.314727 
L 52.379102 151.228568 
L 66.207811 143.398994 
L 70.15887 141.613176 
L 74.10993 140.151942 
L 85.963108 136.179557 
L 87.938638 135.356954 
L 89.914168 134.398253 
L 91.889698 133.253756 
L 93.865228 131.873765 
L 95.840757 130.208582 
L 97.816287 128.208509 
L 99.791817 125.823849 
L 101.767347 123.004903 
L 103.742876 119.725878 
L 111.644996 105.387244 
L 113.620525 102.50891 
L 115.596055 100.317974 
L 117.571585 99.016868 
L 119.547115 98.806484 
L 121.522644 99.753187 
L 123.498174 101.68633 
L 125.473704 104.411144 
L 127.449234 107.732859 
L 131.400293 115.387904 
L 135.351353 123.0933 
L 137.326883 126.493142 
L 139.302413 129.487043 
L 141.277942 132.101921 
L 143.253472 134.365328 
L 145.229002 136.304811 
L 147.204532 137.947923 
L 149.180061 139.322212 
L 151.155591 140.455228 
L 153.131121 141.374473 
L 155.106651 142.097347 
L 157.082181 142.618709 
L 159.05771 142.930365 
L 161.03324 143.024126 
L 163.00877 142.8918 
L 164.9843 142.525195 
L 166.95983 141.916119 
L 168.935359 141.056381 
L 170.910889 139.941023 
L 172.886419 138.604015 
L 176.837478 135.504412 
L 182.764068 130.693847 
L 184.739598 129.288096 
L 186.715127 128.08152 
L 188.690657 127.11389 
L 190.666187 126.366852 
L 192.641717 125.811768 
L 194.617246 125.419999 
L 198.568306 125.011847 
L 202.519366 124.913282 
L 210.421485 124.852344 
L 214.372544 124.654291 
L 218.323604 124.213007 
L 222.274663 123.438001 
L 232.152312 120.957636 
L 234.127842 120.623615 
L 236.103372 120.41887 
L 238.078902 120.373876 
L 242.029961 120.664342 
L 245.981021 121.061619 
L 247.956551 121.148025 
L 249.93208 121.078391 
L 251.90761 120.791803 
L 253.88314 120.227347 
L 255.85867 119.340834 
L 257.8342 118.167519 
L 259.809729 116.766219 
L 263.760789 113.514937 
L 269.687378 108.398601 
L 273.638438 105.468407 
L 277.589497 102.942608 
L 283.516087 99.191196 
L 285.491616 97.784329 
L 287.467146 96.229957 
L 291.418206 92.625792 
L 297.344795 86.819403 
L 299.320325 85.035916 
L 301.295855 83.436207 
L 303.271385 82.084952 
L 305.246914 81.046654 
L 307.222444 80.373863 
L 309.197974 80.099637 
L 311.173504 80.255241 
L 313.149033 80.871936 
L 315.124563 81.980985 
L 317.100093 83.613653 
L 319.075623 85.8012 
L 321.051153 88.574891 
L 323.026682 91.954074 
L 325.002212 95.861496 
L 326.977742 100.173017 
L 330.928801 109.510561 
L 334.879861 118.971114 
L 336.855391 123.436396 
L 338.830921 127.559418 
L 340.80645 131.266772 
L 342.78198 134.589519 
L 344.75751 137.571608 
L 346.73304 140.256985 
L 348.70857 142.689598 
L 352.659629 146.97232 
L 356.610689 150.767664 
L 360.561748 154.216748 
L 362.537278 155.75952 
L 364.512808 157.148227 
L 366.488338 158.358206 
L 368.463867 159.364795 
L 370.439397 160.143329 
L 372.414927 160.669179 
L 374.390457 160.934163 
L 376.365986 160.973258 
L 378.341516 160.828439 
L 382.292576 160.154951 
L 390.194695 158.445813 
L 394.145755 157.922701 
L 400.072344 157.472318 
L 407.974463 156.923828 
L 413.901052 156.222747 
L 419.827642 155.247921 
L 425.754231 154.012565 
L 431.68082 152.561139 
L 441.558469 149.869446 
L 447.485059 148.368076 
L 451.436118 147.672074 
L 453.411648 147.469301 
L 455.387178 147.387238 
L 457.362708 147.443247 
L 459.338237 147.636261 
L 463.289297 148.338897 
L 469.215886 149.815471 
L 473.166946 150.794674 
L 477.118005 151.567024 
L 481.069065 152.090039 
L 485.020125 152.359031 
L 488.971184 152.369317 
L 492.922244 152.102527 
L 494.897773 151.816736 
L 496.873303 151.383877 
L 498.848833 150.769448 
L 500.824363 149.938946 
L 502.799893 148.857868 
L 504.775422 147.491711 
L 506.750952 145.805971 
L 508.726482 143.776538 
L 510.702012 141.456093 
L 514.653071 136.290738 
L 518.604131 131.007861 
L 520.579661 128.540512 
L 522.55519 126.305576 
L 524.53072 124.390101 
L 526.50625 122.856754 
L 528.48178 121.721768 
L 530.45731 120.996168 
L 532.432839 120.690978 
L 534.408369 120.817223 
L 536.383899 121.385927 
L 538.359429 122.408113 
L 540.334958 123.894807 
L 542.310488 125.850226 
L 544.286018 128.211715 
L 546.261548 130.878661 
L 550.212607 136.724738 
L 554.163667 142.580078 
L 556.139197 145.258604 
L 558.114727 147.63643 
L 560.090256 149.652167 
L 562.065786 151.340034 
L 564.041316 152.748417 
L 566.016846 153.925704 
L 567.992375 154.92028 
L 571.943435 156.554844 
L 585.772143 161.710554 
L 589.723203 162.853459 
L 593.674263 163.619766 
L 597.625322 163.994323 
L 601.576382 164.059917 
L 605.527441 163.902783 
L 613.42956 163.265272 
L 619.35615 162.843856 
L 623.307209 162.751611 
L 625.282739 162.794437 
L 625.282739 162.794437 
" clip-path="url(#pd150cfb937)" style="fill: none; stroke: #7e6459; stroke-width: 1.25; stroke-linecap: square"/>
   </g>
   <g id="line2d_27">
    <path d="M 34.599334 156.998437 
L 36.574864 151.667256 
L 38.550394 147.636608 
L 40.525923 144.791332 
L 42.501453 143.016265 
L 44.476983 142.196246 
L 46.452513 142.216112 
L 48.428043 142.960702 
L 50.403572 144.314853 
L 52.379102 146.163403 
L 54.354632 148.391189 
L 58.305691 153.523825 
L 62.256751 158.791462 
L 64.232281 161.188002 
L 66.207811 163.272805 
L 68.18334 164.93071 
L 70.15887 166.072435 
L 72.1344 166.742711 
L 74.10993 167.029521 
L 76.085459 167.020869 
L 78.060989 166.804761 
L 83.987579 165.791738 
L 85.963108 165.624999 
L 87.938638 165.649953 
L 89.914168 165.859691 
L 91.889698 166.24321 
L 93.865228 166.789505 
L 95.840757 167.48757 
L 97.816287 168.326401 
L 101.767347 170.382342 
L 105.718406 172.856892 
L 111.644996 176.986995 
L 117.571585 181.062952 
L 121.522644 183.452454 
L 125.473704 185.5193 
L 129.424764 187.329598 
L 135.351353 189.712837 
L 141.277942 191.833339 
L 145.229002 193.013429 
L 149.180061 193.901027 
L 153.131121 194.405555 
L 155.106651 194.483033 
L 157.082181 194.418884 
L 159.05771 194.191869 
L 161.03324 193.780749 
L 163.00877 193.164286 
L 164.9843 192.321241 
L 166.95983 191.230377 
L 168.935359 189.870453 
L 170.910889 188.225051 
L 172.886419 186.335731 
L 176.837478 182.145759 
L 180.788538 177.944797 
L 182.764068 176.041739 
L 184.739598 174.377787 
L 186.715127 173.033519 
L 188.690657 172.053505 
L 190.666187 171.379684 
L 192.641717 170.935832 
L 196.592776 170.43314 
L 200.543836 169.935639 
L 202.519366 169.498275 
L 204.494895 168.837333 
L 206.470425 167.944165 
L 208.445955 166.863042 
L 212.397015 164.320416 
L 218.323604 160.243621 
L 222.274663 157.872023 
L 226.225723 155.894767 
L 234.127842 152.21282 
L 238.078902 150.037673 
L 244.005491 146.443832 
L 245.981021 145.444549 
L 247.956551 144.674534 
L 249.93208 144.211748 
L 251.90761 144.134152 
L 253.88314 144.519709 
L 255.85867 145.419414 
L 257.8342 146.756191 
L 259.809729 148.414979 
L 263.760789 152.238323 
L 267.711848 155.968917 
L 269.687378 157.511766 
L 271.662908 158.688495 
L 273.638438 159.474412 
L 275.613968 159.959279 
L 279.565027 160.415509 
L 283.516087 160.83648 
L 285.491616 161.277273 
L 287.467146 162.001486 
L 289.442676 163.089028 
L 291.418206 164.511784 
L 293.393736 166.200473 
L 297.344795 170.098204 
L 303.271385 176.205255 
L 305.246914 178.033341 
L 307.222444 179.669988 
L 309.197974 181.118237 
L 311.173504 182.385244 
L 313.149033 183.478161 
L 315.124563 184.404145 
L 317.100093 185.170348 
L 319.075623 185.783925 
L 321.051153 186.252031 
L 325.002212 186.814378 
L 332.904331 187.579936 
L 334.879861 187.951864 
L 336.855391 188.483569 
L 338.830921 189.218588 
L 340.80645 190.163629 
L 348.70857 194.566918 
L 350.684099 195.43085 
L 352.659629 196.042957 
L 354.635159 196.324706 
L 356.610689 196.205966 
L 358.586218 195.707854 
L 360.561748 194.90743 
L 362.537278 193.88256 
L 372.414927 188.116826 
L 374.390457 187.347671 
L 378.341516 186.263586 
L 384.268106 184.9578 
L 386.243635 184.390571 
L 388.219165 183.66678 
L 390.194695 182.735226 
L 392.170225 181.591821 
L 394.145755 180.268741 
L 398.096814 177.216 
L 404.023403 172.117079 
L 415.876582 161.883669 
L 419.827642 157.864356 
L 421.803171 155.589185 
L 423.778701 153.093979 
L 427.729761 147.533213 
L 437.60741 132.884133 
L 439.58294 130.271917 
L 441.558469 127.895861 
L 443.533999 125.813295 
L 445.509529 124.081906 
L 447.485059 122.759381 
L 449.460588 121.903407 
L 451.436118 121.571672 
L 453.411648 121.821863 
L 455.387178 122.711668 
L 457.362708 124.295621 
L 459.338237 126.524073 
L 461.313767 129.221817 
L 469.215886 141.052126 
L 471.191416 143.356134 
L 473.166946 145.033354 
L 475.142476 145.9466 
L 477.118005 146.215753 
L 479.093535 146.050891 
L 483.044595 145.259825 
L 485.020125 145.053972 
L 486.995654 145.254806 
L 488.971184 146.072504 
L 490.946714 147.714391 
L 492.922244 150.228012 
L 494.897773 153.419461 
L 496.873303 157.07477 
L 502.799893 168.684194 
L 504.775422 172.055278 
L 506.750952 174.820389 
L 508.726482 176.796282 
L 510.702012 178.026778 
L 512.677542 178.657466 
L 514.653071 178.834415 
L 516.628601 178.703695 
L 522.55519 177.926219 
L 524.53072 178.02489 
L 526.50625 178.473936 
L 528.48178 179.212441 
L 530.45731 180.164316 
L 538.359429 184.583672 
L 540.334958 185.461017 
L 542.310488 186.101246 
L 544.286018 186.493907 
L 546.261548 186.662366 
L 548.237078 186.630374 
L 550.212607 186.421683 
L 552.188137 186.060047 
L 556.139197 184.972943 
L 560.090256 183.561478 
L 566.016846 181.349508 
L 569.967905 180.192311 
L 571.943435 179.807042 
L 573.918965 179.594257 
L 575.894495 179.582578 
L 579.845554 180.019638 
L 583.796614 180.634169 
L 585.772143 180.843485 
L 587.747673 180.899769 
L 589.723203 180.73722 
L 591.698733 180.290048 
L 593.674263 179.51211 
L 595.649792 178.41814 
L 597.625322 177.034629 
L 599.600852 175.388065 
L 601.576382 173.50494 
L 603.551912 171.411743 
L 607.502971 166.701095 
L 611.454031 161.468041 
L 617.38062 153.102527 
L 623.307209 144.753654 
L 625.282739 142.098014 
L 625.282739 142.098014 
" clip-path="url(#pd150cfb937)" style="fill: none; stroke: #519680; stroke-width: 1.25; stroke-linecap: square"/>
   </g>
   <g id="line2d_28">
    <path d="M 34.599334 156.998437 
L 36.574864 155.479704 
L 38.550394 154.273948 
L 40.525923 153.357448 
L 42.501453 152.706486 
L 44.476983 152.29734 
L 46.452513 152.106291 
L 48.428043 152.109619 
L 50.403572 152.283603 
L 52.379102 152.604525 
L 56.330162 153.592299 
L 60.281221 154.883181 
L 68.18334 157.61523 
L 72.1344 158.71721 
L 78.060989 160.037556 
L 87.938638 162.067931 
L 91.889698 163.049146 
L 95.840757 164.215011 
L 99.791817 165.619297 
L 103.742876 167.313856 
L 107.693936 169.281754 
L 115.596055 173.620169 
L 121.522644 176.806365 
L 129.424764 180.730285 
L 143.253472 187.455301 
L 145.229002 188.256365 
L 147.204532 188.936907 
L 149.180061 189.467619 
L 151.155591 189.819195 
L 153.131121 189.962364 
L 155.106651 189.875781 
L 157.082181 189.555782 
L 159.05771 189.001095 
L 161.03324 188.210446 
L 163.00877 187.182565 
L 164.9843 185.916179 
L 166.95983 184.410015 
L 168.935359 182.662801 
L 170.910889 180.676885 
L 174.861949 176.201405 
L 178.813008 171.554688 
L 180.788538 169.355239 
L 182.764068 167.33873 
L 184.739598 165.580409 
L 186.715127 164.155495 
L 188.690657 163.11084 
L 190.666187 162.412442 
L 192.641717 162.011993 
L 194.617246 161.861183 
L 196.592776 161.911705 
L 200.543836 162.423504 
L 208.445955 163.807277 
L 212.397015 164.1589 
L 214.372544 164.16528 
L 216.348074 164.027137 
L 218.323604 163.720793 
L 220.299134 163.222572 
L 222.274663 162.522323 
L 226.225723 160.685152 
L 232.152312 157.601211 
L 234.127842 156.689314 
L 236.103372 155.920291 
L 238.078902 155.342304 
L 242.029961 154.612507 
L 245.981021 153.843243 
L 247.956551 153.212674 
L 249.93208 152.294871 
L 251.90761 150.997382 
L 253.88314 149.227749 
L 255.85867 146.930766 
L 257.8342 144.228138 
L 263.760789 135.428151 
L 265.736319 132.844726 
L 267.711848 130.726555 
L 269.687378 129.247821 
L 271.662908 128.57926 
L 273.638438 128.757756 
L 275.613968 129.646307 
L 277.589497 131.09629 
L 279.565027 132.959083 
L 283.516087 137.328609 
L 285.491616 139.538096 
L 287.467146 141.565903 
L 289.442676 143.287627 
L 291.418206 144.728336 
L 295.369265 147.094931 
L 299.320325 149.322703 
L 301.295855 150.589882 
L 303.271385 152.068777 
L 305.246914 153.84066 
L 307.222444 155.926648 
L 311.173504 160.723912 
L 317.100093 168.192508 
L 319.075623 170.41062 
L 321.051153 172.349631 
L 323.026682 173.934947 
L 325.002212 175.184737 
L 326.977742 176.162196 
L 328.953272 176.930814 
L 332.904331 178.095494 
L 336.855391 179.186705 
L 338.830921 179.863285 
L 342.78198 181.609508 
L 352.659629 186.58193 
L 354.635159 187.375879 
L 356.610689 188.016212 
L 358.586218 188.489299 
L 360.561748 188.795231 
L 362.537278 188.934298 
L 364.512808 188.906791 
L 366.488338 188.712999 
L 368.463867 188.353212 
L 370.439397 187.82772 
L 372.414927 187.136825 
L 374.390457 186.286955 
L 378.341516 184.2029 
L 382.292576 181.773801 
L 392.170225 175.499986 
L 396.121284 173.345415 
L 400.072344 171.547611 
L 402.047874 170.810191 
L 404.023403 170.195194 
L 405.998933 169.713698 
L 409.949993 169.113303 
L 415.876582 168.474927 
L 417.852112 168.149694 
L 419.827642 167.692257 
L 421.803171 167.057023 
L 423.778701 166.200446 
L 425.754231 165.122965 
L 427.729761 163.867401 
L 431.68082 161.000182 
L 437.60741 156.477242 
L 441.558469 153.820895 
L 445.509529 151.541579 
L 451.436118 148.191614 
L 455.387178 145.5603 
L 457.362708 144.012369 
L 461.313767 140.492084 
L 467.240357 135.052941 
L 469.215886 133.442312 
L 471.191416 132.034867 
L 473.166946 130.891792 
L 475.142476 130.067346 
L 477.118005 129.576652 
L 479.093535 129.4211 
L 481.069065 129.602065 
L 483.044595 130.120924 
L 485.020125 130.979051 
L 486.995654 132.177823 
L 488.971184 133.718614 
L 490.946714 135.602381 
L 492.922244 137.806541 
L 494.897773 140.272943 
L 498.848833 145.748043 
L 506.750952 157.156429 
L 508.726482 159.751234 
L 510.702012 162.154264 
L 512.677542 164.347831 
L 514.653071 166.314306 
L 516.628601 168.036059 
L 518.604131 169.495461 
L 520.579661 170.674881 
L 522.55519 171.556691 
L 524.53072 172.123538 
L 526.50625 172.389408 
L 528.48178 172.427968 
L 532.432839 172.144606 
L 536.383899 171.916346 
L 538.359429 172.023785 
L 540.334958 172.386086 
L 542.310488 173.073057 
L 544.286018 174.050824 
L 548.237078 176.50718 
L 552.188137 179.008645 
L 554.163667 180.042798 
L 556.139197 180.808034 
L 558.114727 181.211073 
L 560.090256 181.195606 
L 562.065786 180.794741 
L 564.041316 180.054834 
L 566.016846 179.022242 
L 567.992375 177.743321 
L 569.967905 176.26443 
L 573.918965 172.892159 
L 579.845554 167.384883 
L 591.698733 156.236334 
L 595.649792 152.789001 
L 599.600852 149.594258 
L 603.551912 146.712005 
L 607.502971 144.202144 
L 611.454031 142.124576 
L 613.42956 141.266621 
L 615.40509 140.539203 
L 617.38062 139.949808 
L 619.35615 139.505925 
L 621.33168 139.215042 
L 623.307209 139.084646 
L 625.282739 139.122224 
L 625.282739 139.122224 
" clip-path="url(#pd150cfb937)" style="fill: none; stroke: #b3625a; stroke-width: 1.25; stroke-linecap: square"/>
   </g>
   <g id="line2d_29">
    <path d="M 34.599334 156.998437 
L 36.574864 157.01867 
L 38.550394 156.90241 
L 42.501453 156.31998 
L 46.452513 155.37029 
L 50.403572 154.172483 
L 62.256751 150.281774 
L 66.207811 149.282916 
L 70.15887 148.625415 
L 80.036519 147.618467 
L 82.012049 147.258295 
L 83.987579 146.765738 
L 85.963108 146.10736 
L 87.938638 145.278253 
L 91.889698 143.251068 
L 99.791817 138.785976 
L 101.767347 137.806044 
L 103.742876 136.953675 
L 105.718406 136.243225 
L 107.693936 135.680519 
L 109.669466 135.271355 
L 111.644996 135.021532 
L 113.620525 134.93685 
L 115.596055 135.023105 
L 117.571585 135.286097 
L 119.547115 135.731442 
L 121.522644 136.348859 
L 125.473704 137.943891 
L 133.375823 141.422779 
L 135.351353 142.112678 
L 137.326883 142.652962 
L 139.302413 143.048071 
L 143.253472 143.506788 
L 149.180061 143.75837 
L 153.131121 143.940133 
L 157.082181 144.313793 
L 163.00877 145.13043 
L 172.886419 146.541586 
L 184.739598 147.827048 
L 206.470425 150.194869 
L 210.421485 150.385958 
L 214.372544 150.379761 
L 218.323604 150.115665 
L 222.274663 149.542434 
L 228.201253 148.492903 
L 230.176783 148.265884 
L 232.152312 148.173847 
L 234.127842 148.260934 
L 236.103372 148.571287 
L 238.078902 149.145229 
L 244.005491 151.516741 
L 245.981021 152.008944 
L 247.956551 152.0923 
L 249.93208 151.610991 
L 251.90761 150.409196 
L 253.88314 148.331099 
L 255.85867 145.274927 
L 257.8342 141.3956 
L 259.809729 136.924171 
L 267.711848 117.738688 
L 269.687378 113.772691 
L 271.662908 110.596745 
L 273.638438 108.273476 
L 275.613968 106.652189 
L 277.589497 105.567934 
L 279.565027 104.855761 
L 285.491616 103.302219 
L 287.467146 102.428862 
L 289.442676 101.135151 
L 291.418206 99.48789 
L 297.344795 93.853535 
L 299.320325 92.221097 
L 301.295855 90.949769 
L 303.271385 90.182511 
L 305.246914 90.060838 
L 307.222444 90.626138 
L 309.197974 91.756485 
L 311.173504 93.314909 
L 313.149033 95.164442 
L 319.075623 101.09 
L 321.051153 102.734276 
L 323.026682 104.001643 
L 325.002212 104.908406 
L 326.977742 105.537098 
L 330.928801 106.292135 
L 334.879861 106.930499 
L 336.855391 107.413349 
L 338.830921 108.115767 
L 340.80645 109.095238 
L 342.78198 110.357085 
L 344.75751 111.900199 
L 346.73304 113.72347 
L 348.70857 115.825789 
L 350.684099 118.206044 
L 352.659629 120.863128 
L 354.635159 123.79593 
L 358.586218 130.403902 
L 364.512808 140.831261 
L 366.488338 144.037701 
L 368.463867 146.939886 
L 370.439397 149.436069 
L 372.414927 151.424591 
L 374.390457 152.850179 
L 376.365986 153.779267 
L 378.341516 154.298014 
L 380.317046 154.492576 
L 382.292576 154.449112 
L 390.194695 153.613769 
L 394.145755 153.658958 
L 402.047874 154.060504 
L 404.023403 154.020117 
L 405.998933 153.852932 
L 407.974463 153.532641 
L 409.949993 153.063072 
L 411.925523 152.454396 
L 413.901052 151.716785 
L 417.852112 149.89545 
L 421.803171 147.680443 
L 425.754231 145.119426 
L 427.729761 143.64348 
L 429.705291 141.973498 
L 431.68082 140.061395 
L 433.65635 137.859083 
L 435.63188 135.318476 
L 437.60741 132.391489 
L 439.58294 129.030035 
L 441.558469 125.218274 
L 445.509529 116.780893 
L 449.460588 108.344844 
L 451.436118 104.534751 
L 453.411648 101.213907 
L 455.387178 98.545286 
L 457.362708 96.687072 
L 459.338237 95.639292 
L 461.313767 95.211366 
L 463.289297 95.201367 
L 467.240357 95.62744 
L 469.215886 95.659657 
L 471.191416 95.302092 
L 473.166946 94.352817 
L 475.142476 92.648461 
L 477.118005 90.243507 
L 479.093535 87.268878 
L 481.069065 83.855581 
L 485.020125 76.237007 
L 488.971184 68.435831 
L 490.946714 64.793751 
L 492.922244 61.468076 
L 494.897773 58.514207 
L 496.873303 55.983793 
L 498.848833 53.92848 
L 500.824363 52.399915 
L 502.799893 51.449746 
L 504.775422 51.129619 
L 506.750952 51.491183 
L 508.726482 52.572073 
L 510.702012 54.306375 
L 512.677542 56.581764 
L 514.653071 59.285694 
L 516.628601 62.30562 
L 526.50625 78.264544 
L 538.359429 95.42985 
L 540.334958 98.777987 
L 542.310488 102.426042 
L 546.261548 110.40876 
L 552.188137 122.692479 
L 554.163667 126.493638 
L 556.139197 129.991428 
L 558.114727 133.091967 
L 560.090256 135.737525 
L 562.065786 137.957793 
L 564.041316 139.795419 
L 566.016846 141.29305 
L 567.992375 142.493333 
L 569.967905 143.438915 
L 571.943435 144.172443 
L 573.918965 144.736566 
L 577.870024 145.503864 
L 581.821084 145.89403 
L 585.772143 145.989402 
L 589.723203 145.872037 
L 595.649792 145.463875 
L 603.551912 144.654243 
L 613.42956 143.382938 
L 625.282739 141.779614 
L 625.282739 141.779614 
" clip-path="url(#pd150cfb937)" style="fill: none; stroke: #6893b8; stroke-width: 1.25; stroke-linecap: square"/>
   </g>
   <g id="line2d_30">
    <path d="M 34.599334 156.998437 
L 36.574864 157.088485 
L 38.550394 156.971998 
L 40.525923 156.666557 
L 42.501453 156.189741 
L 44.476983 155.559129 
L 48.428043 153.906837 
L 52.379102 151.850316 
L 58.305691 148.315245 
L 66.207811 143.499614 
L 70.15887 141.360775 
L 74.10993 139.480233 
L 80.036519 136.961094 
L 87.938638 133.668364 
L 89.914168 132.666444 
L 91.889698 131.447811 
L 93.865228 129.928885 
L 95.840757 128.026085 
L 97.816287 125.655831 
L 99.791817 122.734544 
L 101.767347 119.178642 
L 103.742876 114.931318 
L 105.718406 110.11644 
L 115.596055 84.483654 
L 117.571585 80.437113 
L 119.547115 77.213637 
L 121.522644 74.938196 
L 123.498174 73.607134 
L 125.473704 73.203702 
L 127.449234 73.711151 
L 129.424764 75.112733 
L 131.400293 77.391698 
L 133.375823 80.531297 
L 135.351353 84.514782 
L 137.326883 89.311838 
L 139.302413 94.771223 
L 143.253472 106.817453 
L 147.204532 118.931618 
L 149.180061 124.475918 
L 151.155591 129.391295 
L 153.131121 133.462907 
L 155.106651 136.573832 
L 157.082181 138.825615 
L 159.05771 140.349364 
L 161.03324 141.276186 
L 163.00877 141.737185 
L 164.9843 141.863469 
L 172.886419 141.533712 
L 176.837478 141.753176 
L 182.764068 142.447366 
L 190.666187 143.489105 
L 196.592776 144.022267 
L 200.543836 144.16948 
L 204.494895 144.096319 
L 208.445955 143.780163 
L 212.397015 143.239711 
L 216.348074 142.497866 
L 220.299134 141.57753 
L 232.152312 138.523117 
L 236.103372 137.864885 
L 240.054431 137.571508 
L 244.005491 137.255233 
L 245.981021 136.889158 
L 247.956551 136.277694 
L 249.93208 135.340767 
L 251.90761 133.998304 
L 253.88314 132.170233 
L 255.85867 129.804674 
L 257.8342 126.983654 
L 259.809729 123.828919 
L 267.711848 110.307792 
L 269.687378 107.31071 
L 271.662908 104.708589 
L 273.638438 102.550719 
L 275.613968 100.794626 
L 277.589497 99.391702 
L 279.565027 98.29334 
L 281.540557 97.450931 
L 283.516087 96.815868 
L 287.467146 95.97335 
L 291.418206 95.456674 
L 293.393736 95.339874 
L 295.369265 95.352216 
L 297.344795 95.519799 
L 299.320325 95.868718 
L 301.295855 96.425072 
L 303.271385 97.214958 
L 305.246914 98.26409 
L 307.222444 99.571765 
L 309.197974 101.094186 
L 313.149033 104.592193 
L 321.051153 112.063402 
L 325.002212 115.358047 
L 332.904331 121.690543 
L 334.879861 123.481149 
L 336.855391 125.444252 
L 338.830921 127.624408 
L 340.80645 130.036 
L 344.75751 135.354731 
L 352.659629 146.42206 
L 354.635159 148.955047 
L 356.610689 151.286911 
L 358.586218 153.401271 
L 360.561748 155.303675 
L 362.537278 156.999987 
L 364.512808 158.49607 
L 366.488338 159.797789 
L 368.463867 160.911009 
L 370.439397 161.841593 
L 372.414927 162.595414 
L 374.390457 163.182277 
L 376.365986 163.622307 
L 380.317046 164.14906 
L 384.268106 164.35006 
L 396.121284 164.458192 
L 400.072344 164.314522 
L 404.023403 163.898392 
L 407.974463 163.095733 
L 411.925523 161.871503 
L 415.876582 160.264006 
L 419.827642 158.314324 
L 423.778701 156.063905 
L 431.68082 151.07016 
L 435.63188 148.658115 
L 439.58294 146.529349 
L 443.533999 144.817602 
L 447.485059 143.505033 
L 451.436118 142.534244 
L 455.387178 141.84784 
L 459.338237 141.39001 
L 463.289297 141.12052 
L 469.215886 141.000782 
L 481.069065 141.101293 
L 483.044595 140.911119 
L 485.020125 140.572679 
L 486.995654 140.051689 
L 488.971184 139.313866 
L 490.946714 138.325236 
L 492.922244 137.06919 
L 494.897773 135.555359 
L 496.873303 133.795555 
L 498.848833 131.801588 
L 500.824363 129.58527 
L 502.799893 127.158412 
L 504.775422 124.532826 
L 508.726482 118.73902 
L 514.653071 109.513255 
L 516.628601 106.629673 
L 518.604131 103.984789 
L 520.579661 101.664321 
L 522.55519 99.753985 
L 524.53072 98.339158 
L 526.50625 97.466683 
L 528.48178 97.110026 
L 530.45731 97.234421 
L 532.432839 97.8051 
L 534.408369 98.787296 
L 536.383899 100.146243 
L 538.359429 101.847172 
L 540.334958 103.855319 
L 542.310488 106.134928 
L 546.261548 111.321269 
L 552.188137 119.903821 
L 556.139197 125.565826 
L 560.090256 130.717786 
L 562.065786 133.036829 
L 564.041316 135.183431 
L 566.016846 137.157947 
L 567.992375 138.960733 
L 569.967905 140.592142 
L 571.943435 142.052532 
L 573.918965 143.342256 
L 575.894495 144.462326 
L 577.870024 145.422531 
L 579.845554 146.238924 
L 583.796614 147.50504 
L 587.747673 148.390199 
L 591.698733 149.02392 
L 597.625322 149.702217 
L 603.551912 150.065932 
L 607.502971 150.120298 
L 611.454031 150.014837 
L 615.40509 149.741541 
L 619.35615 149.292407 
L 623.307209 148.659428 
L 625.282739 148.271495 
L 625.282739 148.271495 
" clip-path="url(#pd150cfb937)" style="fill: none; stroke: #d8805d; stroke-width: 1.25; stroke-linecap: square"/>
   </g>
   <g id="patch_4">
    <path d="M 23.6925 221.678437 
L 23.6925 27.638437 
" style="fill: none; stroke: #bbbbbb; stroke-width: 0.75; stroke-linejoin: miter; stroke-linecap: square"/>
   </g>
   <g id="patch_5">
    <path d="M 34.599334 226.678437 
L 642.4925 226.678437 
" style="fill: none; stroke: #bbbbbb; stroke-width: 0.75; stroke-linejoin: miter; stroke-linecap: square"/>
   </g>
   <g id="legend_1">
    <g id="line2d_31">
     <path d="M 36.7925 14.696719 
L 45.7925 14.696719 
L 54.7925 14.696719 
" style="fill: none; stroke-dasharray: 5.55,2.4; stroke-dashoffset: 0; stroke: #5d5d5d; stroke-width: 1.5"/>
    </g>
    <g id="text_25">
     <!-- Овощи (средняя цена у производителей) -->
     <g style="fill: #4b4b4b" transform="translate(61.9925 17.846719) scale(0.09 -0.09)">
      <defs>
       <path id="Ubuntu-43e" d="M 3450 1664 
Q 3450 1267 3334 947 
Q 3219 627 3011 396 
Q 2803 166 2515 41 
Q 2227 -83 1888 -83 
Q 1549 -83 1261 41 
Q 973 166 765 396 
Q 557 627 441 947 
Q 326 1267 326 1664 
Q 326 2054 441 2377 
Q 557 2701 765 2931 
Q 973 3162 1261 3286 
Q 1549 3411 1888 3411 
Q 2227 3411 2515 3286 
Q 2803 3162 3011 2931 
Q 3219 2701 3334 2377 
Q 3450 2054 3450 1664 
z
M 2829 1664 
Q 2829 2227 2576 2556 
Q 2323 2886 1888 2886 
Q 1453 2886 1200 2556 
Q 947 2227 947 1664 
Q 947 1101 1200 771 
Q 1453 442 1888 442 
Q 2323 442 2576 771 
Q 2829 1101 2829 1664 
z
" transform="scale(0.015625)"/>
       <path id="Ubuntu-449" d="M 512 0 
L 512 3328 
L 1107 3328 
L 1107 493 
L 2336 493 
L 2336 3328 
L 2931 3328 
L 2931 493 
L 4160 493 
L 4160 3328 
L 4755 3328 
L 4755 493 
L 5203 493 
L 5203 -928 
L 4640 -928 
L 4640 0 
L 512 0 
z
" transform="scale(0.015625)"/>
       <path id="Ubuntu-438" d="M 3309 3328 
L 3309 0 
L 2733 0 
L 2733 2534 
Q 2541 2291 2310 1964 
Q 2080 1638 1849 1289 
Q 1619 941 1408 601 
Q 1197 262 1043 0 
L 512 0 
L 512 3328 
L 1088 3328 
L 1088 934 
Q 1254 1210 1465 1539 
Q 1677 1869 1904 2192 
Q 2131 2515 2358 2812 
Q 2586 3110 2784 3328 
L 3309 3328 
z
" transform="scale(0.015625)"/>
       <path id="Ubuntu-20" transform="scale(0.015625)"/>
       <path id="Ubuntu-28" d="M 1094 1914 
Q 1094 1094 1331 396 
Q 1568 -301 2029 -896 
L 1606 -1184 
Q 1107 -576 803 214 
Q 499 1005 499 1914 
Q 499 2822 803 3612 
Q 1107 4403 1606 5011 
L 2029 4723 
Q 1568 4128 1331 3430 
Q 1094 2733 1094 1914 
z
" transform="scale(0.015625)"/>
       <path id="Ubuntu-441" d="M 1958 -77 
Q 1555 -77 1251 51 
Q 947 179 739 409 
Q 531 640 428 957 
Q 326 1274 326 1658 
Q 326 2042 438 2362 
Q 550 2682 755 2915 
Q 960 3149 1257 3280 
Q 1555 3411 1920 3411 
Q 2144 3411 2368 3372 
Q 2592 3334 2797 3251 
L 2662 2746 
Q 2528 2810 2352 2848 
Q 2176 2886 1978 2886 
Q 1478 2886 1212 2572 
Q 947 2259 947 1658 
Q 947 1389 1008 1165 
Q 1069 941 1200 781 
Q 1331 621 1536 534 
Q 1741 448 2035 448 
Q 2272 448 2464 493 
Q 2656 538 2765 589 
L 2848 90 
Q 2797 58 2701 29 
Q 2605 0 2483 -22 
Q 2362 -45 2224 -61 
Q 2086 -77 1958 -77 
z
" transform="scale(0.015625)"/>
       <path id="Ubuntu-435" d="M 326 1658 
Q 326 2099 454 2428 
Q 582 2758 793 2976 
Q 1005 3194 1280 3302 
Q 1555 3411 1843 3411 
Q 2515 3411 2873 2992 
Q 3232 2573 3232 1715 
Q 3232 1677 3232 1616 
Q 3232 1555 3226 1504 
L 947 1504 
Q 986 986 1248 717 
Q 1510 448 2067 448 
Q 2381 448 2595 502 
Q 2810 557 2918 608 
L 3002 109 
Q 2893 51 2621 -13 
Q 2349 -77 2003 -77 
Q 1568 -77 1251 54 
Q 934 186 729 416 
Q 525 646 425 963 
Q 326 1280 326 1658 
z
M 2611 1984 
Q 2618 2387 2410 2646 
Q 2202 2906 1837 2906 
Q 1632 2906 1475 2826 
Q 1318 2746 1209 2618 
Q 1101 2490 1040 2323 
Q 979 2157 960 1984 
L 2611 1984 
z
" transform="scale(0.015625)"/>
       <path id="Ubuntu-434" d="M 102 486 
L 461 486 
Q 672 794 797 1120 
Q 922 1446 986 1795 
Q 1050 2144 1069 2525 
Q 1088 2906 1094 3328 
L 3277 3328 
L 3277 486 
L 3725 486 
L 3725 -928 
L 3162 -928 
L 3162 0 
L 666 0 
L 666 -928 
L 102 -928 
L 102 486 
z
M 2682 486 
L 2682 2829 
L 1638 2829 
Q 1632 2528 1606 2224 
Q 1581 1920 1523 1622 
Q 1466 1325 1360 1040 
Q 1254 755 1094 486 
L 2682 486 
z
" transform="scale(0.015625)"/>
       <path id="Ubuntu-44f" d="M 1888 1293 
Q 1792 1293 1702 1296 
Q 1613 1299 1530 1306 
Q 1325 998 1136 649 
Q 947 301 800 0 
L 198 0 
Q 275 186 377 381 
Q 480 576 585 761 
Q 691 947 800 1113 
Q 909 1280 1005 1414 
Q 826 1478 710 1571 
Q 595 1664 524 1779 
Q 454 1894 425 2025 
Q 397 2157 397 2291 
Q 397 2573 502 2784 
Q 608 2995 793 3132 
Q 979 3270 1232 3340 
Q 1485 3411 1786 3411 
Q 2208 3411 2502 3372 
Q 2797 3334 2995 3283 
L 2995 0 
L 2406 0 
L 2406 1293 
L 1888 1293 
z
M 2406 2886 
Q 2336 2899 2173 2912 
Q 2010 2925 1798 2925 
Q 1434 2925 1210 2774 
Q 986 2624 986 2298 
Q 986 1978 1216 1856 
Q 1446 1734 1811 1734 
L 2406 1734 
L 2406 2886 
z
" transform="scale(0.015625)"/>
       <path id="Ubuntu-446" d="M 3168 493 
L 3616 493 
L 3616 -928 
L 3053 -928 
L 3053 0 
L 512 0 
L 512 3328 
L 1107 3328 
L 1107 493 
L 2573 493 
L 2573 3328 
L 3168 3328 
L 3168 493 
z
" transform="scale(0.015625)"/>
       <path id="Ubuntu-430" d="M 1638 429 
Q 1850 429 2013 438 
Q 2176 448 2285 474 
L 2285 1466 
Q 2221 1498 2077 1520 
Q 1933 1542 1728 1542 
Q 1594 1542 1443 1523 
Q 1293 1504 1168 1443 
Q 1043 1382 960 1276 
Q 877 1171 877 998 
Q 877 678 1081 553 
Q 1286 429 1638 429 
z
M 1587 3411 
Q 1946 3411 2192 3318 
Q 2438 3226 2588 3056 
Q 2739 2886 2803 2652 
Q 2867 2419 2867 2138 
L 2867 58 
Q 2790 45 2652 22 
Q 2515 0 2342 -19 
Q 2170 -38 1968 -54 
Q 1766 -70 1568 -70 
Q 1286 -70 1049 -12 
Q 813 45 640 169 
Q 467 294 371 499 
Q 275 704 275 992 
Q 275 1267 387 1465 
Q 499 1664 691 1785 
Q 883 1907 1139 1964 
Q 1395 2022 1677 2022 
Q 1766 2022 1862 2012 
Q 1958 2003 2044 1987 
Q 2131 1971 2195 1958 
Q 2259 1946 2285 1939 
L 2285 2106 
Q 2285 2253 2253 2397 
Q 2221 2541 2137 2653 
Q 2054 2765 1910 2832 
Q 1766 2899 1536 2899 
Q 1242 2899 1021 2857 
Q 800 2816 691 2771 
L 621 3264 
Q 736 3315 1005 3363 
Q 1274 3411 1587 3411 
z
" transform="scale(0.015625)"/>
       <path id="Ubuntu-443" d="M 122 -621 
Q 192 -653 304 -681 
Q 416 -710 525 -710 
Q 877 -710 1075 -553 
Q 1274 -397 1434 -45 
Q 1030 723 681 1584 
Q 333 2445 102 3328 
L 742 3328 
Q 813 3040 912 2707 
Q 1011 2374 1132 2022 
Q 1254 1670 1395 1318 
Q 1536 966 1690 640 
Q 1933 1312 2112 1971 
Q 2291 2630 2451 3328 
L 3066 3328 
Q 2835 2387 2553 1520 
Q 2272 653 1946 -102 
Q 1818 -390 1680 -598 
Q 1542 -806 1376 -940 
Q 1210 -1075 1002 -1139 
Q 794 -1203 531 -1203 
Q 461 -1203 384 -1193 
Q 307 -1184 233 -1168 
Q 160 -1152 99 -1133 
Q 38 -1114 13 -1101 
L 122 -621 
z
" transform="scale(0.015625)"/>
       <path id="Ubuntu-437" d="M 1357 3411 
Q 1645 3411 1894 3353 
Q 2144 3296 2323 3181 
Q 2502 3066 2604 2893 
Q 2707 2720 2707 2490 
Q 2707 2342 2656 2220 
Q 2605 2099 2528 2003 
Q 2451 1907 2358 1840 
Q 2266 1773 2182 1747 
Q 2477 1658 2646 1430 
Q 2816 1203 2816 858 
Q 2816 384 2432 153 
Q 2048 -77 1389 -77 
Q 986 -77 694 -13 
Q 403 51 282 109 
L 384 614 
Q 486 576 752 509 
Q 1018 442 1389 442 
Q 1792 442 2003 566 
Q 2214 691 2214 941 
Q 2214 1120 2134 1232 
Q 2054 1344 1932 1401 
Q 1811 1459 1670 1478 
Q 1530 1498 1408 1498 
L 851 1498 
L 851 1971 
L 1389 1971 
Q 1504 1971 1629 1987 
Q 1754 2003 1859 2054 
Q 1965 2106 2035 2198 
Q 2106 2291 2106 2445 
Q 2106 2566 2045 2652 
Q 1984 2739 1881 2796 
Q 1779 2854 1641 2883 
Q 1504 2912 1357 2912 
Q 1242 2912 1107 2893 
Q 973 2874 845 2845 
Q 717 2816 614 2784 
Q 512 2752 467 2726 
L 358 3238 
Q 410 3258 518 3290 
Q 627 3322 764 3347 
Q 902 3373 1056 3392 
Q 1210 3411 1357 3411 
z
" transform="scale(0.015625)"/>
       <path id="Ubuntu-439" d="M 3309 3328 
L 3309 0 
L 2733 0 
L 2733 2534 
Q 2541 2291 2310 1964 
Q 2080 1638 1849 1289 
Q 1619 941 1408 601 
Q 1197 262 1043 0 
L 512 0 
L 512 3328 
L 1088 3328 
L 1088 934 
Q 1254 1210 1465 1539 
Q 1677 1869 1904 2192 
Q 2131 2515 2358 2812 
Q 2586 3110 2784 3328 
L 3309 3328 
z
M 1917 3866 
Q 1514 3866 1261 4070 
Q 1008 4275 957 4640 
L 1411 4762 
Q 1462 4557 1584 4429 
Q 1706 4301 1917 4301 
Q 2128 4301 2249 4429 
Q 2371 4557 2422 4762 
L 2870 4640 
Q 2819 4275 2569 4070 
Q 2320 3866 1917 3866 
z
" transform="scale(0.015625)"/>
       <path id="Ubuntu-29" d="M 979 1914 
Q 979 2733 742 3430 
Q 506 4128 45 4723 
L 467 5011 
Q 966 4403 1270 3612 
Q 1574 2822 1574 1914 
Q 1574 1005 1270 214 
Q 966 -576 467 -1184 
L 45 -896 
Q 506 -301 742 396 
Q 979 1094 979 1914 
z
" transform="scale(0.015625)"/>
      </defs>
      <use xlink:href="#Ubuntu-41e"/>
      <use xlink:href="#Ubuntu-432" x="77.799988"/>
      <use xlink:href="#Ubuntu-43e" x="132.599976"/>
      <use xlink:href="#Ubuntu-449" x="191.59996"/>
      <use xlink:href="#Ubuntu-438" x="274.999954"/>
      <use xlink:href="#Ubuntu-20" x="334.699951"/>
      <use xlink:href="#Ubuntu-28" x="357.799942"/>
      <use xlink:href="#Ubuntu-441" x="390.199936"/>
      <use xlink:href="#Ubuntu-440" x="436.699921"/>
      <use xlink:href="#Ubuntu-435" x="495.599915"/>
      <use xlink:href="#Ubuntu-434" x="551.499908"/>
      <use xlink:href="#Ubuntu-43d" x="611.799896"/>
      <use xlink:href="#Ubuntu-44f" x="670.399887"/>
      <use xlink:href="#Ubuntu-44f" x="725.199875"/>
      <use xlink:href="#Ubuntu-20" x="779.999863"/>
      <use xlink:href="#Ubuntu-446" x="803.099854"/>
      <use xlink:href="#Ubuntu-435" x="861.699844"/>
      <use xlink:href="#Ubuntu-43d" x="917.599838"/>
      <use xlink:href="#Ubuntu-430" x="976.199829"/>
      <use xlink:href="#Ubuntu-20" x="1028.399826"/>
      <use xlink:href="#Ubuntu-443" x="1051.499817"/>
      <use xlink:href="#Ubuntu-20" x="1101.199814"/>
      <use xlink:href="#Ubuntu-43f" x="1124.299805"/>
      <use xlink:href="#Ubuntu-440" x="1182.099792"/>
      <use xlink:href="#Ubuntu-43e" x="1240.999786"/>
      <use xlink:href="#Ubuntu-438" x="1299.999771"/>
      <use xlink:href="#Ubuntu-437" x="1359.699768"/>
      <use xlink:href="#Ubuntu-432" x="1408.599762"/>
      <use xlink:href="#Ubuntu-43e" x="1463.39975"/>
      <use xlink:href="#Ubuntu-434" x="1522.399734"/>
      <use xlink:href="#Ubuntu-438" x="1582.699722"/>
      <use xlink:href="#Ubuntu-442" x="1642.399719"/>
      <use xlink:href="#Ubuntu-435" x="1688.699707"/>
      <use xlink:href="#Ubuntu-43b" x="1744.599701"/>
      <use xlink:href="#Ubuntu-435" x="1804.399689"/>
      <use xlink:href="#Ubuntu-439" x="1860.299683"/>
      <use xlink:href="#Ubuntu-29" x="1919.99968"/>
     </g>
    </g>
    <g id="line2d_32">
     <path d="M 255.709062 14.696719 
L 264.709062 14.696719 
L 273.709062 14.696719 
" style="fill: none; stroke: #7e6459; stroke-width: 1.25; stroke-linecap: square"/>
    </g>
    <g id="text_26">
     <!-- Картофель -->
     <g style="fill: #4b4b4b" transform="translate(280.909063 17.846719) scale(0.09 -0.09)">
      <defs>
       <path id="Ubuntu-41a" d="M 3834 4435 
Q 3635 4218 3385 3952 
Q 3136 3686 2864 3408 
Q 2592 3130 2323 2861 
Q 2054 2592 1818 2362 
Q 2093 2170 2400 1888 
Q 2707 1606 3001 1286 
Q 3296 966 3555 633 
Q 3814 301 3987 0 
L 3258 0 
Q 3066 301 2816 605 
Q 2566 909 2288 1187 
Q 2010 1466 1725 1702 
Q 1440 1939 1171 2106 
L 1171 0 
L 550 0 
L 550 4435 
L 1171 4435 
L 1171 2477 
Q 1395 2688 1664 2953 
Q 1933 3219 2195 3488 
Q 2458 3757 2691 4003 
Q 2925 4250 3085 4435 
L 3834 4435 
z
" transform="scale(0.015625)"/>
       <path id="Ubuntu-444" d="M 928 1664 
Q 928 1382 1021 1164 
Q 1114 947 1280 796 
Q 1446 646 1673 566 
Q 1901 486 2163 480 
L 2163 2848 
Q 1901 2842 1673 2758 
Q 1446 2675 1280 2524 
Q 1114 2374 1021 2156 
Q 928 1939 928 1664 
z
M 2739 480 
Q 3002 486 3229 566 
Q 3456 646 3622 796 
Q 3789 947 3881 1164 
Q 3974 1382 3974 1664 
Q 3974 1939 3881 2156 
Q 3789 2374 3622 2524 
Q 3456 2675 3229 2758 
Q 3002 2842 2739 2848 
L 2739 480 
z
M 2739 -1184 
L 2163 -1184 
L 2163 -19 
Q 1786 -13 1453 102 
Q 1120 218 867 432 
Q 614 646 467 956 
Q 320 1267 320 1664 
Q 320 2061 467 2371 
Q 614 2682 867 2896 
Q 1120 3110 1453 3225 
Q 1786 3341 2163 3347 
L 2163 4864 
L 2739 4966 
L 2739 3347 
Q 3110 3341 3446 3225 
Q 3782 3110 4035 2896 
Q 4288 2682 4435 2371 
Q 4582 2061 4582 1664 
Q 4582 1267 4435 956 
Q 4288 646 4035 432 
Q 3782 218 3446 102 
Q 3110 -13 2739 -19 
L 2739 -1184 
z
" transform="scale(0.015625)"/>
       <path id="Ubuntu-44c" d="M 1773 416 
Q 2150 416 2368 563 
Q 2586 710 2586 1037 
Q 2586 1197 2522 1312 
Q 2458 1427 2346 1500 
Q 2234 1574 2086 1609 
Q 1939 1645 1773 1645 
Q 1600 1645 1417 1635 
Q 1235 1626 1107 1594 
L 1107 448 
Q 1146 442 1222 435 
Q 1299 429 1392 425 
Q 1485 422 1584 419 
Q 1683 416 1773 416 
z
M 512 70 
L 512 3328 
L 1107 3328 
L 1107 2054 
Q 1158 2067 1244 2080 
Q 1331 2093 1430 2105 
Q 1530 2118 1638 2124 
Q 1747 2131 1843 2131 
Q 2118 2131 2361 2070 
Q 2605 2010 2787 1878 
Q 2970 1747 3078 1539 
Q 3187 1331 3187 1043 
Q 3187 742 3084 531 
Q 2982 320 2790 185 
Q 2598 51 2332 -9 
Q 2067 -70 1741 -70 
Q 1421 -70 1113 -35 
Q 806 0 512 70 
z
" transform="scale(0.015625)"/>
      </defs>
      <use xlink:href="#Ubuntu-41a"/>
      <use xlink:href="#Ubuntu-430" x="62.899994"/>
      <use xlink:href="#Ubuntu-440" x="115.099991"/>
      <use xlink:href="#Ubuntu-442" x="173.999985"/>
      <use xlink:href="#Ubuntu-43e" x="220.299973"/>
      <use xlink:href="#Ubuntu-444" x="279.299957"/>
      <use xlink:href="#Ubuntu-435" x="355.899948"/>
      <use xlink:href="#Ubuntu-43b" x="411.799942"/>
      <use xlink:href="#Ubuntu-44c" x="471.59993"/>
     </g>
    </g>
    <g id="line2d_33">
     <path d="M 346.105625 14.696719 
L 355.105625 14.696719 
L 364.105625 14.696719 
" style="fill: none; stroke: #519680; stroke-width: 1.25; stroke-linecap: square"/>
    </g>
    <g id="text_27">
     <!-- Огурцы -->
     <g style="fill: #4b4b4b" transform="translate(371.305625 17.846719) scale(0.09 -0.09)">
      <defs>
       <path id="Ubuntu-433" d="M 2573 2829 
L 1107 2829 
L 1107 0 
L 512 0 
L 512 3328 
L 2573 3328 
L 2573 2829 
z
" transform="scale(0.015625)"/>
       <path id="Ubuntu-44b" d="M 1734 1645 
Q 1562 1645 1398 1635 
Q 1235 1626 1107 1594 
L 1107 448 
Q 1146 442 1219 435 
Q 1293 429 1379 425 
Q 1466 422 1555 419 
Q 1645 416 1715 416 
Q 2106 416 2317 563 
Q 2528 710 2528 1037 
Q 2528 1197 2461 1312 
Q 2394 1427 2282 1500 
Q 2170 1574 2029 1609 
Q 1888 1645 1734 1645 
z
M 512 3328 
L 1107 3328 
L 1107 2054 
Q 1216 2080 1424 2105 
Q 1632 2131 1824 2131 
Q 2086 2131 2323 2070 
Q 2560 2010 2739 1878 
Q 2918 1747 3024 1539 
Q 3130 1331 3130 1043 
Q 3130 742 3027 531 
Q 2925 320 2739 185 
Q 2554 51 2291 -9 
Q 2029 -70 1715 -70 
Q 1414 -70 1107 -35 
Q 800 0 512 70 
L 512 3328 
z
M 4339 0 
L 3744 0 
L 3744 3328 
L 4339 3328 
L 4339 0 
z
" transform="scale(0.015625)"/>
      </defs>
      <use xlink:href="#Ubuntu-41e"/>
      <use xlink:href="#Ubuntu-433" x="77.799988"/>
      <use xlink:href="#Ubuntu-443" x="121.849976"/>
      <use xlink:href="#Ubuntu-440" x="171.549973"/>
      <use xlink:href="#Ubuntu-446" x="230.449966"/>
      <use xlink:href="#Ubuntu-44b" x="289.049957"/>
     </g>
    </g>
    <g id="line2d_34">
     <path d="M 422.141562 14.696719 
L 431.141562 14.696719 
L 440.141562 14.696719 
" style="fill: none; stroke: #b3625a; stroke-width: 1.25; stroke-linecap: square"/>
    </g>
    <g id="text_28">
     <!-- Помидоры -->
     <g style="fill: #4b4b4b" transform="translate(447.341562 17.846719) scale(0.09 -0.09)">
      <defs>
       <path id="Ubuntu-41f" d="M 3923 4435 
L 3923 0 
L 3302 0 
L 3302 3904 
L 1171 3904 
L 1171 0 
L 550 0 
L 550 4435 
L 3923 4435 
z
" transform="scale(0.015625)"/>
       <path id="Ubuntu-43c" d="M 1146 2451 
Q 1082 1818 1050 1187 
Q 1018 557 998 0 
L 429 0 
Q 442 390 467 816 
Q 493 1242 525 1674 
Q 557 2106 595 2525 
Q 634 2944 678 3328 
L 1222 3328 
Q 1427 2995 1702 2416 
Q 1978 1837 2336 1082 
Q 2694 1837 2969 2416 
Q 3245 2995 3450 3328 
L 4000 3328 
Q 4045 2944 4083 2525 
Q 4122 2106 4154 1674 
Q 4186 1242 4211 816 
Q 4237 390 4250 0 
L 3661 0 
Q 3642 557 3610 1187 
Q 3578 1818 3514 2451 
Q 3411 2253 3276 1974 
Q 3142 1696 3011 1408 
Q 2880 1120 2765 857 
Q 2650 595 2586 442 
L 2086 442 
Q 2016 602 1897 864 
Q 1779 1126 1648 1417 
Q 1517 1709 1382 1987 
Q 1248 2266 1146 2451 
z
" transform="scale(0.015625)"/>
      </defs>
      <use xlink:href="#Ubuntu-41f"/>
      <use xlink:href="#Ubuntu-43e" x="69.899994"/>
      <use xlink:href="#Ubuntu-43c" x="128.899979"/>
      <use xlink:href="#Ubuntu-438" x="201.999969"/>
      <use xlink:href="#Ubuntu-434" x="261.699966"/>
      <use xlink:href="#Ubuntu-43e" x="321.999954"/>
      <use xlink:href="#Ubuntu-440" x="380.999939"/>
      <use xlink:href="#Ubuntu-44b" x="439.899933"/>
     </g>
    </g>
    <g id="line2d_35">
     <path d="M 511.754844 14.696719 
L 520.754844 14.696719 
L 529.754844 14.696719 
" style="fill: none; stroke: #6893b8; stroke-width: 1.25; stroke-linecap: square"/>
    </g>
    <g id="text_29">
     <!-- Лук -->
     <g style="fill: #4b4b4b" transform="translate(536.954844 17.846719) scale(0.09 -0.09)">
      <defs>
       <path id="Ubuntu-41b" d="M 2067 3904 
Q 2054 3546 2041 3210 
Q 2029 2874 2003 2557 
Q 1978 2240 1926 1939 
Q 1875 1638 1786 1350 
Q 1696 1062 1565 809 
Q 1434 557 1238 368 
Q 1043 179 777 64 
Q 512 -51 154 -64 
L 83 474 
Q 531 525 777 755 
Q 1024 986 1184 1459 
Q 1363 1997 1411 2755 
Q 1459 3514 1459 4435 
L 3974 4435 
L 3974 0 
L 3354 0 
L 3354 3904 
L 2067 3904 
z
" transform="scale(0.015625)"/>
      </defs>
      <use xlink:href="#Ubuntu-41b"/>
      <use xlink:href="#Ubuntu-443" x="70.699982"/>
      <use xlink:href="#Ubuntu-43a" x="120.399979"/>
     </g>
    </g>
    <g id="line2d_36">
     <path d="M 570.624687 14.696719 
L 579.624687 14.696719 
L 588.624687 14.696719 
" style="fill: none; stroke: #d8805d; stroke-width: 1.25; stroke-linecap: square"/>
    </g>
    <g id="text_30">
     <!-- Морковь -->
     <g style="fill: #4b4b4b" transform="translate(595.824687 17.846719) scale(0.09 -0.09)">
      <defs>
       <path id="Ubuntu-41c" d="M 2541 614 
Q 2477 768 2371 1005 
Q 2266 1242 2144 1517 
Q 2022 1792 1884 2083 
Q 1747 2374 1625 2633 
Q 1504 2893 1398 3097 
Q 1293 3302 1229 3411 
Q 1158 2656 1113 1776 
Q 1069 896 1037 0 
L 429 0 
Q 454 576 486 1161 
Q 518 1747 560 2313 
Q 602 2880 650 3417 
Q 698 3955 755 4435 
L 1299 4435 
Q 1472 4154 1670 3770 
Q 1869 3386 2067 2966 
Q 2266 2547 2451 2128 
Q 2637 1709 2790 1363 
Q 2944 1709 3129 2128 
Q 3315 2547 3513 2966 
Q 3712 3386 3910 3770 
Q 4109 4154 4282 4435 
L 4826 4435 
Q 5043 2291 5152 0 
L 4544 0 
Q 4512 896 4467 1776 
Q 4422 2656 4352 3411 
Q 4288 3302 4182 3097 
Q 4077 2893 3955 2633 
Q 3834 2374 3696 2083 
Q 3558 1792 3436 1517 
Q 3315 1242 3209 1005 
Q 3104 768 3040 614 
L 2541 614 
z
" transform="scale(0.015625)"/>
      </defs>
      <use xlink:href="#Ubuntu-41c"/>
      <use xlink:href="#Ubuntu-43e" x="87.099991"/>
      <use xlink:href="#Ubuntu-440" x="146.099976"/>
      <use xlink:href="#Ubuntu-43a" x="204.999969"/>
      <use xlink:href="#Ubuntu-43e" x="255.824966"/>
      <use xlink:href="#Ubuntu-432" x="314.824951"/>
      <use xlink:href="#Ubuntu-44c" x="369.624939"/>
     </g>
    </g>
   </g>
   <g id="line2d_37">
    <path d="M 44.0375 156.998437 
L 627.1475 156.998437 
" clip-path="url(#pd150cfb937)" style="fill: none; stroke-dasharray: 2.775,1.2; stroke-dashoffset: 0; stroke: #c5c5c5; stroke-width: 0.75"/>
   </g>
  </g>
 </g>
 <defs>
  <clipPath id="p1ab3e519e1">
   <rect x="28.6925" y="243.022837" width="613.8" height="0"/>
  </clipPath>
  <clipPath id="pd150cfb937">
   <rect x="28.6925" y="27.638437" width="613.8" height="194.04"/>
  </clipPath>
 </defs>
</svg>
