<?xml version="1.0" encoding="utf-8" standalone="no"?>
<!DOCTYPE svg PUBLIC "-//W3C//DTD SVG 1.1//EN"
  "http://www.w3.org/Graphics/SVG/1.1/DTD/svg11.dtd">
<svg xmlns:xlink="http://www.w3.org/1999/xlink" width="658.7175pt" height="206.801938pt" viewBox="0 0 658.7175 206.801938" xmlns="http://www.w3.org/2000/svg" version="1.1">
 <metadata>
  <rdf:RDF xmlns:dc="http://purl.org/dc/elements/1.1/" xmlns:cc="http://creativecommons.org/ns#" xmlns:rdf="http://www.w3.org/1999/02/22-rdf-syntax-ns#">
   <cc:Work>
    <dc:type rdf:resource="http://purl.org/dc/dcmitype/StillImage"/>
    <dc:date>2024-02-21T19:15:24.731671</dc:date>
    <dc:format>image/svg+xml</dc:format>
    <dc:creator>
     <cc:Agent>
      <dc:title>Matplotlib v3.8.0, https://matplotlib.org/</dc:title>
     </cc:Agent>
    </dc:creator>
   </cc:Work>
  </rdf:RDF>
 </metadata>
 <defs>
  <style type="text/css">*{stroke-linejoin: round; stroke-linecap: butt}</style>
 </defs>
 <g id="figure_1">
  <g id="patch_1">
   <path d="M 0 206.801938 
L 658.7175 206.801938 
L 658.7175 0 
L 0 0 
L 0 206.801938 
z
" style="fill: none"/>
  </g>
  <g id="axes_1">
   <g id="patch_2">
    <path d="M 28.6925 166.238438 
L 642.4925 166.238438 
L 642.4925 27.638438 
L 28.6925 27.638438 
L 28.6925 166.238438 
z
" style="fill: none"/>
   </g>
   <g id="axes_2">
    <g id="patch_3">
     <path d="M 28.6925 188.414437 
L 642.4925 188.414437 
L 642.4925 188.414437 
L 28.6925 188.414437 
L 28.6925 188.414437 
z
" style="fill: none"/>
    </g>
    <g id="matplotlib.axis_1">
     <g id="xtick_1">
      <g id="line2d_1">
       <path d="M 34.599334 188.414437 
L 34.599334 188.414437 
" clip-path="url(#pdf92771a8f)" style="fill: none; stroke-dasharray: 0.5,0.825; stroke-dashoffset: 0; stroke: #d9d9d9; stroke-width: 0.5"/>
      </g>
      <g id="text_1">
       <!-- 2021 -->
       <g style="fill: #9f9f9f" transform="translate(25.574334 198.121938) scale(0.08 -0.08)">
        <defs>
         <path id="Ubuntu-32" d="M 2989 3302 
Q 2989 3072 2896 2857 
Q 2803 2643 2649 2435 
Q 2496 2227 2304 2025 
Q 2112 1824 1920 1632 
Q 1811 1523 1667 1376 
Q 1523 1229 1395 1069 
Q 1267 909 1180 761 
Q 1094 614 1094 506 
L 3136 506 
L 3136 0 
L 448 0 
Q 442 38 442 76 
Q 442 115 442 147 
Q 442 448 541 707 
Q 640 966 800 1196 
Q 960 1427 1158 1632 
Q 1357 1837 1549 2029 
Q 1709 2182 1853 2332 
Q 1997 2483 2109 2633 
Q 2221 2784 2288 2944 
Q 2355 3104 2355 3283 
Q 2355 3475 2294 3609 
Q 2234 3744 2131 3833 
Q 2029 3923 1891 3964 
Q 1754 4006 1600 4006 
Q 1414 4006 1260 3955 
Q 1107 3904 985 3837 
Q 864 3770 781 3696 
Q 698 3622 653 3584 
L 358 4006 
Q 416 4070 531 4163 
Q 646 4256 806 4339 
Q 966 4422 1164 4480 
Q 1363 4538 1594 4538 
Q 2291 4538 2640 4214 
Q 2989 3891 2989 3302 
z
" transform="scale(0.015625)"/>
         <path id="Ubuntu-30" d="M 320 2221 
Q 320 3334 713 3936 
Q 1107 4538 1805 4538 
Q 2502 4538 2896 3936 
Q 3290 3334 3290 2221 
Q 3290 1107 2896 505 
Q 2502 -96 1805 -96 
Q 1107 -96 713 505 
Q 320 1107 320 2221 
z
M 2662 2221 
Q 2662 2586 2620 2912 
Q 2579 3238 2480 3481 
Q 2381 3725 2214 3869 
Q 2048 4013 1805 4013 
Q 1562 4013 1395 3869 
Q 1229 3725 1129 3481 
Q 1030 3238 988 2912 
Q 947 2586 947 2221 
Q 947 1856 988 1529 
Q 1030 1203 1129 960 
Q 1229 717 1395 573 
Q 1562 429 1805 429 
Q 2048 429 2214 573 
Q 2381 717 2480 960 
Q 2579 1203 2620 1529 
Q 2662 1856 2662 2221 
z
" transform="scale(0.015625)"/>
         <path id="Ubuntu-31" d="M 595 3520 
Q 960 3661 1305 3881 
Q 1651 4102 1939 4435 
L 2362 4435 
L 2362 0 
L 1766 0 
L 1766 3610 
Q 1690 3539 1578 3462 
Q 1466 3386 1334 3315 
Q 1203 3245 1059 3181 
Q 915 3117 781 3072 
L 595 3520 
z
" transform="scale(0.015625)"/>
        </defs>
        <use xlink:href="#Ubuntu-32"/>
        <use xlink:href="#Ubuntu-30" x="56.399994"/>
        <use xlink:href="#Ubuntu-32" x="112.799988"/>
        <use xlink:href="#Ubuntu-31" x="169.199982"/>
       </g>
      </g>
     </g>
     <g id="xtick_2">
      <g id="line2d_2">
       <path d="M 237.230389 188.414437 
L 237.230389 188.414437 
" clip-path="url(#pdf92771a8f)" style="fill: none; stroke-dasharray: 0.5,0.825; stroke-dashoffset: 0; stroke: #d9d9d9; stroke-width: 0.5"/>
      </g>
      <g id="text_2">
       <!-- 2022 -->
       <g style="fill: #9f9f9f" transform="translate(228.205389 198.121938) scale(0.08 -0.08)">
        <use xlink:href="#Ubuntu-32"/>
        <use xlink:href="#Ubuntu-30" x="56.399994"/>
        <use xlink:href="#Ubuntu-32" x="112.799988"/>
        <use xlink:href="#Ubuntu-32" x="169.199982"/>
       </g>
      </g>
     </g>
     <g id="xtick_3">
      <g id="line2d_3">
       <path d="M 439.861445 188.414437 
L 439.861445 188.414437 
" clip-path="url(#pdf92771a8f)" style="fill: none; stroke-dasharray: 0.5,0.825; stroke-dashoffset: 0; stroke: #d9d9d9; stroke-width: 0.5"/>
      </g>
      <g id="text_3">
       <!-- 2023 -->
       <g style="fill: #9f9f9f" transform="translate(430.836445 198.121938) scale(0.08 -0.08)">
        <defs>
         <path id="Ubuntu-33" d="M 1446 435 
Q 2016 435 2262 659 
Q 2509 883 2509 1261 
Q 2509 1504 2406 1670 
Q 2304 1837 2137 1936 
Q 1971 2035 1750 2076 
Q 1530 2118 1299 2118 
L 1146 2118 
L 1146 2605 
L 1357 2605 
Q 1517 2605 1686 2637 
Q 1856 2669 1997 2752 
Q 2138 2835 2227 2979 
Q 2317 3123 2317 3341 
Q 2317 3520 2253 3648 
Q 2189 3776 2083 3859 
Q 1978 3942 1840 3977 
Q 1702 4013 1549 4013 
Q 1242 4013 1027 3923 
Q 813 3834 666 3738 
L 435 4192 
Q 512 4243 630 4304 
Q 749 4365 896 4416 
Q 1043 4467 1212 4502 
Q 1382 4538 1568 4538 
Q 1920 4538 2176 4451 
Q 2432 4365 2598 4208 
Q 2765 4051 2848 3836 
Q 2931 3622 2931 3373 
Q 2931 3027 2732 2780 
Q 2534 2534 2253 2406 
Q 2426 2355 2586 2259 
Q 2746 2163 2864 2016 
Q 2982 1869 3056 1677 
Q 3130 1485 3130 1248 
Q 3130 960 3030 713 
Q 2931 467 2723 288 
Q 2515 109 2201 6 
Q 1888 -96 1459 -96 
Q 1293 -96 1117 -70 
Q 941 -45 787 -6 
Q 634 32 518 70 
Q 403 109 352 134 
L 467 653 
Q 576 602 829 518 
Q 1082 435 1446 435 
z
" transform="scale(0.015625)"/>
        </defs>
        <use xlink:href="#Ubuntu-32"/>
        <use xlink:href="#Ubuntu-30" x="56.399994"/>
        <use xlink:href="#Ubuntu-32" x="112.799988"/>
        <use xlink:href="#Ubuntu-33" x="169.199982"/>
       </g>
      </g>
     </g>
     <g id="xtick_4">
      <g id="line2d_4">
       <path d="M 642.4925 188.414437 
L 642.4925 188.414437 
" clip-path="url(#pdf92771a8f)" style="fill: none; stroke-dasharray: 0.5,0.825; stroke-dashoffset: 0; stroke: #d9d9d9; stroke-width: 0.5"/>
      </g>
      <g id="text_4">
       <!-- 2024 -->
       <g style="fill: #9f9f9f" transform="translate(633.4675 198.121938) scale(0.08 -0.08)">
        <defs>
         <path id="Ubuntu-34" d="M 256 1536 
Q 378 1818 589 2192 
Q 800 2566 1065 2963 
Q 1331 3360 1635 3744 
Q 1939 4128 2246 4435 
L 2816 4435 
L 2816 1619 
L 3341 1619 
L 3341 1133 
L 2816 1133 
L 2816 0 
L 2240 0 
L 2240 1133 
L 256 1133 
L 256 1536 
z
M 2240 3731 
Q 2048 3526 1853 3273 
Q 1658 3021 1472 2745 
Q 1286 2470 1123 2182 
Q 960 1894 832 1619 
L 2240 1619 
L 2240 3731 
z
" transform="scale(0.015625)"/>
        </defs>
        <use xlink:href="#Ubuntu-32"/>
        <use xlink:href="#Ubuntu-30" x="56.399994"/>
        <use xlink:href="#Ubuntu-32" x="112.799988"/>
        <use xlink:href="#Ubuntu-34" x="169.199982"/>
       </g>
      </g>
     </g>
    </g>
    <g id="matplotlib.axis_2"/>
   </g>
   <g id="matplotlib.axis_3">
    <g id="xtick_5">
     <g id="line2d_5">
      <defs>
       <path id="m4904a7a510" d="M 0 0 
L 0 2 
" style="stroke: #bbbbbb; stroke-width: 0.75"/>
      </defs>
      <g>
       <use xlink:href="#m4904a7a510" x="34.599334" y="176.238438" style="fill: #bbbbbb; stroke: #bbbbbb; stroke-width: 0.75"/>
      </g>
     </g>
     <g id="text_5">
      <!-- Янв -->
      <g style="fill: #9f9f9f" transform="translate(27.523709 187.945938) scale(0.08 -0.08)">
       <defs>
        <path id="Ubuntu-42f" d="M 2272 3936 
Q 2029 3936 1808 3897 
Q 1587 3859 1414 3763 
Q 1242 3667 1139 3500 
Q 1037 3334 1037 3085 
Q 1037 2611 1341 2428 
Q 1645 2246 2253 2246 
L 2893 2246 
L 2893 3917 
Q 2822 3917 2726 3923 
Q 2643 3930 2531 3933 
Q 2419 3936 2272 3936 
z
M 2323 4480 
Q 2458 4480 2611 4473 
Q 2765 4467 2921 4454 
Q 3078 4442 3232 4422 
Q 3386 4403 3514 4371 
L 3514 0 
L 2893 0 
L 2893 1734 
L 2362 1734 
Q 2272 1734 2173 1737 
Q 2074 1741 1907 1760 
Q 1792 1606 1657 1401 
Q 1523 1197 1388 966 
Q 1254 736 1123 486 
Q 992 237 883 0 
L 230 0 
Q 333 250 473 518 
Q 614 787 764 1030 
Q 915 1274 1052 1482 
Q 1190 1690 1293 1824 
Q 1146 1869 986 1952 
Q 826 2035 691 2182 
Q 557 2330 470 2550 
Q 384 2771 384 3078 
Q 384 3424 518 3686 
Q 653 3949 905 4125 
Q 1158 4301 1516 4390 
Q 1875 4480 2323 4480 
z
" transform="scale(0.015625)"/>
        <path id="Ubuntu-43d" d="M 3238 0 
L 2643 0 
L 2643 1472 
L 1107 1472 
L 1107 0 
L 512 0 
L 512 3328 
L 1107 3328 
L 1107 1971 
L 2643 1971 
L 2643 3328 
L 3238 3328 
L 3238 0 
z
" transform="scale(0.015625)"/>
        <path id="Ubuntu-432" d="M 1094 448 
Q 1133 442 1203 435 
Q 1274 429 1363 425 
Q 1453 422 1552 419 
Q 1651 416 1741 416 
Q 1926 416 2096 441 
Q 2266 467 2390 531 
Q 2515 595 2588 700 
Q 2662 806 2662 973 
Q 2662 1133 2595 1238 
Q 2528 1344 2413 1408 
Q 2298 1472 2141 1497 
Q 1984 1523 1805 1523 
L 1094 1523 
L 1094 448 
z
M 1728 1965 
Q 1901 1965 2045 1987 
Q 2189 2010 2294 2067 
Q 2400 2125 2461 2221 
Q 2522 2317 2522 2464 
Q 2522 2618 2445 2707 
Q 2368 2797 2243 2845 
Q 2118 2893 1961 2909 
Q 1805 2925 1645 2925 
Q 1498 2925 1347 2918 
Q 1197 2912 1094 2906 
L 1094 1965 
L 1728 1965 
z
M 1715 -58 
Q 1338 -58 1018 -22 
Q 698 13 512 58 
L 512 3296 
Q 698 3341 1018 3376 
Q 1338 3411 1715 3411 
Q 1978 3411 2227 3366 
Q 2477 3322 2669 3216 
Q 2861 3110 2979 2928 
Q 3098 2746 3098 2477 
Q 3098 2234 2976 2061 
Q 2854 1888 2650 1792 
Q 2925 1696 3088 1507 
Q 3251 1318 3251 979 
Q 3251 678 3132 480 
Q 3014 282 2806 160 
Q 2598 38 2316 -10 
Q 2035 -58 1715 -58 
z
" transform="scale(0.015625)"/>
       </defs>
       <use xlink:href="#Ubuntu-42f"/>
       <use xlink:href="#Ubuntu-43d" x="63.499985"/>
       <use xlink:href="#Ubuntu-432" x="122.099976"/>
      </g>
     </g>
    </g>
    <g id="xtick_6">
     <g id="line2d_6">
      <g>
       <use xlink:href="#m4904a7a510" x="84.563156" y="176.238438" style="fill: #bbbbbb; stroke: #bbbbbb; stroke-width: 0.75"/>
      </g>
     </g>
     <g id="text_6">
      <!-- Апр -->
      <g style="fill: #9f9f9f" transform="translate(77.243156 187.945938) scale(0.08 -0.08)">
       <defs>
        <path id="Ubuntu-410" d="M 3514 0 
Q 3405 288 3309 566 
Q 3213 845 3110 1133 
L 1101 1133 
L 698 0 
L 51 0 
Q 307 704 531 1302 
Q 755 1901 969 2438 
Q 1184 2976 1395 3465 
Q 1606 3955 1837 4435 
L 2406 4435 
Q 2637 3955 2848 3465 
Q 3059 2976 3273 2438 
Q 3488 1901 3712 1302 
Q 3936 704 4192 0 
L 3514 0 
z
M 2931 1645 
Q 2726 2202 2524 2723 
Q 2323 3245 2106 3725 
Q 1882 3245 1680 2723 
Q 1478 2202 1280 1645 
L 2931 1645 
z
" transform="scale(0.015625)"/>
        <path id="Ubuntu-43f" d="M 3187 0 
L 2592 0 
L 2592 2829 
L 1107 2829 
L 1107 0 
L 512 0 
L 512 3328 
L 3187 3328 
L 3187 0 
z
" transform="scale(0.015625)"/>
        <path id="Ubuntu-440" d="M 2822 1658 
Q 2822 2240 2534 2553 
Q 2246 2867 1766 2867 
Q 1498 2867 1347 2848 
Q 1197 2829 1107 2803 
L 1107 704 
Q 1216 614 1421 531 
Q 1626 448 1869 448 
Q 2125 448 2307 541 
Q 2490 634 2605 797 
Q 2720 960 2771 1181 
Q 2822 1402 2822 1658 
z
M 3443 1658 
Q 3443 1280 3344 960 
Q 3245 640 3053 409 
Q 2861 179 2582 51 
Q 2304 -77 1946 -77 
Q 1658 -77 1437 0 
Q 1216 77 1107 147 
L 1107 -1184 
L 512 -1184 
L 512 3226 
Q 723 3277 1040 3337 
Q 1357 3398 1773 3398 
Q 2157 3398 2464 3276 
Q 2771 3155 2988 2931 
Q 3206 2707 3324 2384 
Q 3443 2061 3443 1658 
z
" transform="scale(0.015625)"/>
       </defs>
       <use xlink:href="#Ubuntu-410"/>
       <use xlink:href="#Ubuntu-43f" x="66.299988"/>
       <use xlink:href="#Ubuntu-440" x="124.099976"/>
      </g>
     </g>
    </g>
    <g id="xtick_7">
     <g id="line2d_7">
      <g>
       <use xlink:href="#m4904a7a510" x="135.082131" y="176.238438" style="fill: #bbbbbb; stroke: #bbbbbb; stroke-width: 0.75"/>
      </g>
     </g>
     <g id="text_7">
      <!-- Июл -->
      <g style="fill: #9f9f9f" transform="translate(126.534631 187.945938) scale(0.08 -0.08)">
       <defs>
        <path id="Ubuntu-418" d="M 550 0 
L 550 4435 
L 1158 4435 
L 1158 1152 
Q 1363 1491 1660 1926 
Q 1958 2362 2294 2813 
Q 2630 3264 2972 3689 
Q 3315 4115 3616 4435 
L 4109 4435 
L 4109 0 
L 3501 0 
L 3501 3462 
Q 3322 3258 3110 2989 
Q 2899 2720 2675 2416 
Q 2451 2112 2224 1785 
Q 1997 1459 1785 1142 
Q 1574 826 1392 531 
Q 1210 237 1069 0 
L 550 0 
z
" transform="scale(0.015625)"/>
        <path id="Ubuntu-44e" d="M 1107 1952 
L 1837 1952 
Q 1875 2285 2006 2553 
Q 2138 2822 2336 3014 
Q 2534 3206 2790 3308 
Q 3046 3411 3341 3411 
Q 3667 3411 3945 3286 
Q 4224 3162 4429 2931 
Q 4634 2701 4749 2377 
Q 4864 2054 4864 1664 
Q 4864 1267 4749 947 
Q 4634 627 4429 396 
Q 4224 166 3945 41 
Q 3667 -83 3341 -83 
Q 3034 -83 2768 29 
Q 2502 141 2304 342 
Q 2106 544 1981 832 
Q 1856 1120 1830 1472 
L 1107 1472 
L 1107 0 
L 512 0 
L 512 3328 
L 1107 3328 
L 1107 1952 
z
M 4250 1664 
Q 4250 2227 4003 2556 
Q 3757 2886 3341 2886 
Q 2925 2886 2678 2556 
Q 2432 2227 2432 1664 
Q 2432 1101 2678 771 
Q 2925 442 3341 442 
Q 3757 442 4003 771 
Q 4250 1101 4250 1664 
z
" transform="scale(0.015625)"/>
        <path id="Ubuntu-43b" d="M 1670 2829 
Q 1670 2618 1660 2378 
Q 1651 2138 1625 1898 
Q 1600 1658 1555 1424 
Q 1510 1190 1440 986 
Q 1370 781 1264 601 
Q 1158 422 1004 284 
Q 851 147 646 54 
Q 442 -38 166 -64 
L 83 435 
Q 397 499 579 672 
Q 762 845 870 1094 
Q 966 1312 1011 1587 
Q 1056 1862 1075 2160 
Q 1094 2458 1097 2758 
Q 1101 3059 1101 3328 
L 3315 3328 
L 3315 0 
L 2720 0 
L 2720 2829 
L 1670 2829 
z
" transform="scale(0.015625)"/>
       </defs>
       <use xlink:href="#Ubuntu-418"/>
       <use xlink:href="#Ubuntu-44e" x="72.799988"/>
       <use xlink:href="#Ubuntu-43b" x="153.899979"/>
      </g>
     </g>
    </g>
    <g id="xtick_8">
     <g id="line2d_8">
      <g>
       <use xlink:href="#m4904a7a510" x="186.15626" y="176.238438" style="fill: #bbbbbb; stroke: #bbbbbb; stroke-width: 0.75"/>
      </g>
     </g>
     <g id="text_8">
      <!-- Окт -->
      <g style="fill: #9f9f9f" transform="translate(179.044385 187.945938) scale(0.08 -0.08)">
       <defs>
        <path id="Ubuntu-41e" d="M 371 2221 
Q 371 2790 540 3225 
Q 710 3661 1001 3952 
Q 1293 4243 1680 4390 
Q 2067 4538 2502 4538 
Q 2931 4538 3312 4390 
Q 3693 4243 3981 3952 
Q 4269 3661 4438 3225 
Q 4608 2790 4608 2221 
Q 4608 1651 4438 1216 
Q 4269 781 3981 489 
Q 3693 198 3312 51 
Q 2931 -96 2502 -96 
Q 2067 -96 1680 51 
Q 1293 198 1001 489 
Q 710 781 540 1216 
Q 371 1651 371 2221 
z
M 1024 2221 
Q 1024 1818 1126 1488 
Q 1229 1158 1417 928 
Q 1606 698 1878 573 
Q 2150 448 2490 448 
Q 2829 448 3097 573 
Q 3366 698 3555 928 
Q 3744 1158 3846 1488 
Q 3949 1818 3949 2221 
Q 3949 2624 3846 2953 
Q 3744 3283 3555 3513 
Q 3366 3744 3097 3869 
Q 2829 3994 2490 3994 
Q 2150 3994 1878 3869 
Q 1606 3744 1417 3513 
Q 1229 3283 1126 2953 
Q 1024 2624 1024 2221 
z
" transform="scale(0.015625)"/>
        <path id="Ubuntu-43a" d="M 1728 1811 
Q 1926 1670 2156 1456 
Q 2387 1242 2608 992 
Q 2829 742 3021 483 
Q 3213 224 3347 0 
L 2643 0 
Q 2502 218 2313 445 
Q 2125 672 1920 883 
Q 1715 1094 1504 1273 
Q 1293 1453 1107 1574 
L 1107 0 
L 512 0 
L 512 3328 
L 1107 3328 
L 1107 1901 
Q 1261 2048 1459 2243 
Q 1658 2438 1859 2640 
Q 2061 2842 2233 3024 
Q 2406 3206 2515 3328 
L 3206 3328 
Q 3066 3174 2877 2979 
Q 2688 2784 2486 2579 
Q 2285 2374 2086 2172 
Q 1888 1971 1728 1811 
z
" transform="scale(0.015625)"/>
        <path id="Ubuntu-442" d="M 2861 3328 
L 2861 2829 
L 1779 2829 
L 1779 0 
L 1184 0 
L 1184 2829 
L 102 2829 
L 102 3328 
L 2861 3328 
z
" transform="scale(0.015625)"/>
       </defs>
       <use xlink:href="#Ubuntu-41e"/>
       <use xlink:href="#Ubuntu-43a" x="77.799988"/>
       <use xlink:href="#Ubuntu-442" x="131.499985"/>
      </g>
     </g>
    </g>
    <g id="xtick_9">
     <g id="line2d_9">
      <g>
       <use xlink:href="#m4904a7a510" x="237.230389" y="176.238438" style="fill: #bbbbbb; stroke: #bbbbbb; stroke-width: 0.75"/>
      </g>
     </g>
     <g id="text_9">
      <!-- Янв -->
      <g style="fill: #9f9f9f" transform="translate(230.154764 187.945938) scale(0.08 -0.08)">
       <use xlink:href="#Ubuntu-42f"/>
       <use xlink:href="#Ubuntu-43d" x="63.499985"/>
       <use xlink:href="#Ubuntu-432" x="122.099976"/>
      </g>
     </g>
    </g>
    <g id="xtick_10">
     <g id="line2d_10">
      <g>
       <use xlink:href="#m4904a7a510" x="287.194211" y="176.238438" style="fill: #bbbbbb; stroke: #bbbbbb; stroke-width: 0.75"/>
      </g>
     </g>
     <g id="text_10">
      <!-- Апр -->
      <g style="fill: #9f9f9f" transform="translate(279.874211 187.945938) scale(0.08 -0.08)">
       <use xlink:href="#Ubuntu-410"/>
       <use xlink:href="#Ubuntu-43f" x="66.299988"/>
       <use xlink:href="#Ubuntu-440" x="124.099976"/>
      </g>
     </g>
    </g>
    <g id="xtick_11">
     <g id="line2d_11">
      <g>
       <use xlink:href="#m4904a7a510" x="337.713187" y="176.238438" style="fill: #bbbbbb; stroke: #bbbbbb; stroke-width: 0.75"/>
      </g>
     </g>
     <g id="text_11">
      <!-- Июл -->
      <g style="fill: #9f9f9f" transform="translate(329.165687 187.945938) scale(0.08 -0.08)">
       <use xlink:href="#Ubuntu-418"/>
       <use xlink:href="#Ubuntu-44e" x="72.799988"/>
       <use xlink:href="#Ubuntu-43b" x="153.899979"/>
      </g>
     </g>
    </g>
    <g id="xtick_12">
     <g id="line2d_12">
      <g>
       <use xlink:href="#m4904a7a510" x="388.787316" y="176.238438" style="fill: #bbbbbb; stroke: #bbbbbb; stroke-width: 0.75"/>
      </g>
     </g>
     <g id="text_12">
      <!-- Окт -->
      <g style="fill: #9f9f9f" transform="translate(381.675441 187.945938) scale(0.08 -0.08)">
       <use xlink:href="#Ubuntu-41e"/>
       <use xlink:href="#Ubuntu-43a" x="77.799988"/>
       <use xlink:href="#Ubuntu-442" x="131.499985"/>
      </g>
     </g>
    </g>
    <g id="xtick_13">
     <g id="line2d_13">
      <g>
       <use xlink:href="#m4904a7a510" x="439.861445" y="176.238438" style="fill: #bbbbbb; stroke: #bbbbbb; stroke-width: 0.75"/>
      </g>
     </g>
     <g id="text_13">
      <!-- Янв -->
      <g style="fill: #9f9f9f" transform="translate(432.78582 187.945938) scale(0.08 -0.08)">
       <use xlink:href="#Ubuntu-42f"/>
       <use xlink:href="#Ubuntu-43d" x="63.499985"/>
       <use xlink:href="#Ubuntu-432" x="122.099976"/>
      </g>
     </g>
    </g>
    <g id="xtick_14">
     <g id="line2d_14">
      <g>
       <use xlink:href="#m4904a7a510" x="489.825267" y="176.238438" style="fill: #bbbbbb; stroke: #bbbbbb; stroke-width: 0.75"/>
      </g>
     </g>
     <g id="text_14">
      <!-- Апр -->
      <g style="fill: #9f9f9f" transform="translate(482.505267 187.945938) scale(0.08 -0.08)">
       <use xlink:href="#Ubuntu-410"/>
       <use xlink:href="#Ubuntu-43f" x="66.299988"/>
       <use xlink:href="#Ubuntu-440" x="124.099976"/>
      </g>
     </g>
    </g>
    <g id="xtick_15">
     <g id="line2d_15">
      <g>
       <use xlink:href="#m4904a7a510" x="540.344242" y="176.238438" style="fill: #bbbbbb; stroke: #bbbbbb; stroke-width: 0.75"/>
      </g>
     </g>
     <g id="text_15">
      <!-- Июл -->
      <g style="fill: #9f9f9f" transform="translate(531.796742 187.945938) scale(0.08 -0.08)">
       <use xlink:href="#Ubuntu-418"/>
       <use xlink:href="#Ubuntu-44e" x="72.799988"/>
       <use xlink:href="#Ubuntu-43b" x="153.899979"/>
      </g>
     </g>
    </g>
    <g id="xtick_16">
     <g id="line2d_16">
      <g>
       <use xlink:href="#m4904a7a510" x="591.418371" y="176.238438" style="fill: #bbbbbb; stroke: #bbbbbb; stroke-width: 0.75"/>
      </g>
     </g>
     <g id="text_16">
      <!-- Окт -->
      <g style="fill: #9f9f9f" transform="translate(584.306496 187.945938) scale(0.08 -0.08)">
       <use xlink:href="#Ubuntu-41e"/>
       <use xlink:href="#Ubuntu-43a" x="77.799988"/>
       <use xlink:href="#Ubuntu-442" x="131.499985"/>
      </g>
     </g>
    </g>
    <g id="xtick_17">
     <g id="line2d_17">
      <g>
       <use xlink:href="#m4904a7a510" x="642.4925" y="176.238438" style="fill: #bbbbbb; stroke: #bbbbbb; stroke-width: 0.75"/>
      </g>
     </g>
     <g id="text_17">
      <!-- Янв -->
      <g style="fill: #9f9f9f" transform="translate(635.416875 187.945938) scale(0.08 -0.08)">
       <use xlink:href="#Ubuntu-42f"/>
       <use xlink:href="#Ubuntu-43d" x="63.499985"/>
       <use xlink:href="#Ubuntu-432" x="122.099976"/>
      </g>
     </g>
    </g>
   </g>
   <g id="matplotlib.axis_4">
    <g id="ytick_1">
     <g id="line2d_18">
      <defs>
       <path id="m4eccbe67fb" d="M 0 0 
L -2 0 
" style="stroke: #bbbbbb; stroke-width: 0.75"/>
      </defs>
      <g>
       <use xlink:href="#m4eccbe67fb" x="23.6925" y="164.527326" style="fill: #bbbbbb; stroke: #bbbbbb; stroke-width: 0.75"/>
      </g>
     </g>
     <g id="text_18">
      <!-- 1.0 -->
      <g style="fill: #9f9f9f" transform="translate(7.2 167.631076) scale(0.08 -0.08)">
       <defs>
        <path id="Ubuntu-2e" d="M 1216 346 
Q 1216 173 1101 45 
Q 986 -83 787 -83 
Q 589 -83 473 45 
Q 358 173 358 346 
Q 358 518 473 646 
Q 589 774 787 774 
Q 986 774 1101 646 
Q 1216 518 1216 346 
z
" transform="scale(0.015625)"/>
       </defs>
       <use xlink:href="#Ubuntu-31"/>
       <use xlink:href="#Ubuntu-2e" x="56.399994"/>
       <use xlink:href="#Ubuntu-30" x="80.999985"/>
      </g>
     </g>
    </g>
    <g id="ytick_2">
     <g id="line2d_19">
      <g>
       <use xlink:href="#m4eccbe67fb" x="23.6925" y="130.305104" style="fill: #bbbbbb; stroke: #bbbbbb; stroke-width: 0.75"/>
      </g>
     </g>
     <g id="text_19">
      <!-- 1.2 -->
      <g style="fill: #9f9f9f" transform="translate(7.2 133.408854) scale(0.08 -0.08)">
       <use xlink:href="#Ubuntu-31"/>
       <use xlink:href="#Ubuntu-2e" x="56.399994"/>
       <use xlink:href="#Ubuntu-32" x="80.999985"/>
      </g>
     </g>
    </g>
    <g id="ytick_3">
     <g id="line2d_20">
      <g>
       <use xlink:href="#m4eccbe67fb" x="23.6925" y="96.082882" style="fill: #bbbbbb; stroke: #bbbbbb; stroke-width: 0.75"/>
      </g>
     </g>
     <g id="text_20">
      <!-- 1.4 -->
      <g style="fill: #9f9f9f" transform="translate(7.2 99.186632) scale(0.08 -0.08)">
       <use xlink:href="#Ubuntu-31"/>
       <use xlink:href="#Ubuntu-2e" x="56.399994"/>
       <use xlink:href="#Ubuntu-34" x="80.999985"/>
      </g>
     </g>
    </g>
    <g id="ytick_4">
     <g id="line2d_21">
      <g>
       <use xlink:href="#m4eccbe67fb" x="23.6925" y="61.86066" style="fill: #bbbbbb; stroke: #bbbbbb; stroke-width: 0.75"/>
      </g>
     </g>
     <g id="text_21">
      <!-- 1.6 -->
      <g style="fill: #9f9f9f" transform="translate(7.2 64.96441) scale(0.08 -0.08)">
       <defs>
        <path id="Ubuntu-36" d="M 403 1779 
Q 403 2426 582 2922 
Q 762 3418 1091 3757 
Q 1421 4096 1891 4272 
Q 2362 4448 2950 4454 
L 2995 3955 
Q 2618 3949 2307 3872 
Q 1997 3795 1753 3628 
Q 1510 3462 1344 3196 
Q 1178 2931 1094 2541 
Q 1261 2618 1469 2669 
Q 1677 2720 1901 2720 
Q 2278 2720 2540 2605 
Q 2803 2490 2969 2301 
Q 3136 2112 3209 1865 
Q 3283 1619 3283 1350 
Q 3283 1107 3200 851 
Q 3117 595 2947 384 
Q 2778 173 2515 38 
Q 2253 -96 1894 -96 
Q 1165 -96 784 403 
Q 403 902 403 1779 
z
M 1837 2234 
Q 1613 2234 1421 2192 
Q 1229 2150 1037 2067 
Q 1030 1997 1027 1923 
Q 1024 1850 1024 1779 
Q 1024 1498 1062 1248 
Q 1101 998 1200 809 
Q 1299 621 1465 509 
Q 1632 397 1888 397 
Q 2099 397 2246 486 
Q 2394 576 2490 717 
Q 2586 858 2627 1021 
Q 2669 1184 2669 1338 
Q 2669 1773 2461 2003 
Q 2253 2234 1837 2234 
z
" transform="scale(0.015625)"/>
       </defs>
       <use xlink:href="#Ubuntu-31"/>
       <use xlink:href="#Ubuntu-2e" x="56.399994"/>
       <use xlink:href="#Ubuntu-36" x="80.999985"/>
      </g>
     </g>
    </g>
    <g id="ytick_5">
     <g id="line2d_22">
      <g>
       <use xlink:href="#m4eccbe67fb" x="23.6925" y="27.638438" style="fill: #bbbbbb; stroke: #bbbbbb; stroke-width: 0.75"/>
      </g>
     </g>
     <g id="text_22">
      <!-- 1.8 -->
      <g style="fill: #9f9f9f" transform="translate(7.2 30.742188) scale(0.08 -0.08)">
       <defs>
        <path id="Ubuntu-38" d="M 3258 1152 
Q 3258 883 3165 656 
Q 3072 429 2889 259 
Q 2707 90 2432 -3 
Q 2157 -96 1798 -96 
Q 1382 -96 1104 22 
Q 826 141 659 320 
Q 493 499 422 713 
Q 352 928 352 1120 
Q 352 1306 413 1475 
Q 474 1645 573 1792 
Q 672 1939 803 2057 
Q 934 2176 1082 2266 
Q 454 2624 454 3322 
Q 454 3565 550 3785 
Q 646 4006 822 4172 
Q 998 4339 1248 4438 
Q 1498 4538 1805 4538 
Q 2163 4538 2419 4429 
Q 2675 4320 2838 4150 
Q 3002 3981 3075 3776 
Q 3149 3571 3149 3379 
Q 3149 3194 3094 3030 
Q 3040 2867 2947 2726 
Q 2854 2586 2736 2477 
Q 2618 2368 2490 2285 
Q 3245 1926 3258 1152 
z
M 954 1114 
Q 954 998 995 873 
Q 1037 749 1139 643 
Q 1242 538 1402 467 
Q 1562 397 1805 397 
Q 2022 397 2185 461 
Q 2349 525 2451 624 
Q 2554 723 2605 851 
Q 2656 979 2656 1114 
Q 2656 1318 2579 1472 
Q 2502 1626 2358 1741 
Q 2214 1856 2012 1936 
Q 1811 2016 1555 2074 
Q 1267 1914 1110 1677 
Q 954 1440 954 1114 
z
M 2554 3386 
Q 2554 3482 2512 3597 
Q 2470 3712 2380 3811 
Q 2291 3910 2150 3977 
Q 2010 4045 1805 4045 
Q 1600 4045 1456 3981 
Q 1312 3917 1222 3817 
Q 1133 3718 1091 3600 
Q 1050 3482 1050 3366 
Q 1050 3226 1101 3085 
Q 1152 2944 1261 2822 
Q 1370 2701 1546 2605 
Q 1722 2509 1965 2451 
Q 2234 2611 2394 2825 
Q 2554 3040 2554 3386 
z
" transform="scale(0.015625)"/>
       </defs>
       <use xlink:href="#Ubuntu-31"/>
       <use xlink:href="#Ubuntu-2e" x="56.399994"/>
       <use xlink:href="#Ubuntu-38" x="80.999985"/>
      </g>
     </g>
    </g>
   </g>
   <g id="line2d_23">
    <path d="M 34.599334 164.527326 
L 36.574864 164.830481 
L 38.550394 164.866632 
L 40.525923 164.654879 
L 42.501453 164.214321 
L 44.476983 163.564056 
L 46.452513 162.723184 
L 48.428043 161.710804 
L 50.403572 160.546015 
L 54.354632 157.835604 
L 58.305691 154.744744 
L 64.232281 149.729343 
L 70.15887 144.716818 
L 74.10993 141.614265 
L 78.060989 138.843278 
L 82.012049 136.520999 
L 83.987579 135.564733 
L 85.963108 134.764444 
L 87.938638 134.128708 
L 89.914168 133.657779 
L 91.889698 133.351288 
L 93.865228 133.208868 
L 95.840757 133.230152 
L 97.816287 133.414773 
L 99.791817 133.762363 
L 101.767347 134.272554 
L 103.742876 134.941072 
L 107.693936 136.619618 
L 113.620525 139.367689 
L 115.596055 140.178794 
L 117.571585 140.86814 
L 119.547115 141.394405 
L 121.522644 141.738634 
L 123.498174 141.92128 
L 125.473704 141.96681 
L 129.424764 141.744382 
L 135.351353 140.994005 
L 149.180061 139.023511 
L 153.131121 138.201896 
L 157.082181 137.159605 
L 161.03324 135.919069 
L 166.95983 133.763728 
L 172.886419 131.340924 
L 176.837478 129.466683 
L 180.788538 127.187735 
L 182.764068 125.842091 
L 184.739598 124.329986 
L 186.715127 122.629689 
L 190.666187 118.779339 
L 194.617246 114.999776 
L 196.592776 113.402818 
L 198.568306 112.143091 
L 200.543836 111.327105 
L 202.519366 111.061372 
L 204.494895 111.443968 
L 206.470425 112.431274 
L 208.445955 113.862101 
L 212.397015 117.395314 
L 214.372544 119.168203 
L 216.348074 120.725614 
L 218.323604 121.902796 
L 220.299134 122.535003 
L 222.274663 122.512189 
L 224.250193 121.925161 
L 226.225723 120.910817 
L 228.201253 119.60605 
L 234.127842 115.318171 
L 236.103372 114.22067 
L 238.078902 113.513375 
L 240.054431 113.234585 
L 242.029961 113.324251 
L 244.005491 113.717758 
L 245.981021 114.350488 
L 249.93208 116.075152 
L 255.85867 118.845956 
L 257.8342 119.596175 
L 259.809729 120.203465 
L 261.785259 120.639322 
L 263.760789 120.875243 
L 265.736319 120.882724 
L 267.711848 120.633263 
L 269.687378 120.098355 
L 271.662908 119.250542 
L 273.638438 118.102985 
L 275.613968 116.721611 
L 279.565027 113.535221 
L 283.516087 110.246996 
L 285.491616 108.738327 
L 287.467146 107.412557 
L 289.442676 106.33002 
L 291.418206 105.494767 
L 293.393736 104.8894 
L 295.369265 104.496478 
L 297.344795 104.298562 
L 299.320325 104.278211 
L 301.295855 104.417986 
L 303.271385 104.700447 
L 307.222444 105.622816 
L 311.173504 106.894742 
L 325.002212 111.84391 
L 328.953272 112.887597 
L 332.904331 113.69112 
L 336.855391 114.24347 
L 340.80645 114.535076 
L 344.75751 114.576706 
L 348.70857 114.394208 
L 352.659629 114.013783 
L 358.586218 113.152127 
L 362.537278 112.606807 
L 366.488338 112.375858 
L 368.463867 112.457781 
L 370.439397 112.713708 
L 372.414927 113.175402 
L 374.390457 113.854111 
L 376.365986 114.707251 
L 380.317046 116.731598 
L 384.268106 118.837991 
L 386.243635 119.793688 
L 388.219165 120.615976 
L 390.194695 121.25658 
L 392.170225 121.712581 
L 394.145755 122.015975 
L 398.096814 122.296519 
L 407.974463 122.61899 
L 419.827642 123.807292 
L 423.778701 123.790358 
L 427.729761 123.423756 
L 433.65635 122.807008 
L 435.63188 122.732097 
L 437.60741 122.784396 
L 439.58294 123.001028 
L 441.558469 123.406618 
L 445.509529 124.650438 
L 453.411648 127.61742 
L 455.387178 128.198358 
L 457.362708 128.626552 
L 459.338237 128.889736 
L 461.313767 129.013562 
L 465.264827 128.954791 
L 477.118005 128.270299 
L 481.069065 128.146489 
L 485.020125 127.769378 
L 486.995654 127.406994 
L 488.971184 126.886677 
L 490.946714 126.177281 
L 492.922244 125.269598 
L 494.897773 124.187568 
L 498.848833 121.607246 
L 502.799893 118.649872 
L 540.334958 89.24444 
L 546.261548 84.969421 
L 550.212607 82.340573 
L 554.163667 79.918017 
L 558.114727 77.726885 
L 567.992375 72.588156 
L 569.967905 71.368498 
L 571.943435 70.007305 
L 573.918965 68.471335 
L 575.894495 66.731454 
L 579.845554 62.782721 
L 585.772143 56.672825 
L 587.747673 54.850345 
L 589.723203 53.244927 
L 591.698733 51.92255 
L 593.674263 50.927707 
L 595.649792 50.238303 
L 597.625322 49.819388 
L 599.600852 49.636008 
L 601.576382 49.653212 
L 603.551912 49.83605 
L 607.502971 50.558814 
L 617.38062 52.817672 
L 619.35615 53.067306 
L 621.33168 53.168007 
L 623.307209 53.084822 
L 625.282739 52.782801 
L 625.282739 52.782801 
" clip-path="url(#pfe44316257)" style="fill: none; stroke-dasharray: 4.44,1.92; stroke-dashoffset: 0; stroke: #5d5d5d; stroke-width: 1.2"/>
   </g>
   <g id="line2d_24">
    <path d="M 34.599334 164.527326 
L 36.574864 164.69879 
L 38.550394 164.483758 
L 40.525923 163.924511 
L 42.501453 163.063324 
L 44.476983 161.942476 
L 46.452513 160.604245 
L 50.403572 157.444743 
L 62.256751 147.14592 
L 64.232281 145.753736 
L 66.207811 144.566945 
L 68.18334 143.627827 
L 70.15887 142.967656 
L 72.1344 142.560732 
L 74.10993 142.362968 
L 76.085459 142.330268 
L 80.036519 142.583675 
L 85.963108 143.099852 
L 89.914168 143.148103 
L 95.840757 142.880094 
L 103.742876 142.471544 
L 111.644996 142.429573 
L 119.547115 142.396209 
L 127.449234 142.064808 
L 139.302413 141.521559 
L 145.229002 141.271799 
L 149.180061 140.948844 
L 153.131121 140.397214 
L 157.082181 139.537855 
L 161.03324 138.320447 
L 164.9843 136.699981 
L 168.935359 134.631448 
L 172.886419 132.100863 
L 182.764068 125.224436 
L 184.739598 124.036955 
L 186.715127 122.994374 
L 188.690657 122.120928 
L 190.666187 121.40943 
L 192.641717 120.847131 
L 194.617246 120.421281 
L 198.568306 119.927932 
L 202.519366 119.827386 
L 206.470425 120.021289 
L 210.421485 120.439459 
L 216.348074 121.362463 
L 226.225723 123.247318 
L 245.981021 127.14544 
L 247.956551 127.318232 
L 249.93208 127.372419 
L 251.90761 127.285345 
L 253.88314 127.034358 
L 255.85867 126.603487 
L 257.8342 126.008512 
L 261.785259 124.427025 
L 265.736319 122.491457 
L 275.613968 117.404846 
L 279.565027 115.707132 
L 283.516087 114.39934 
L 285.491616 113.931496 
L 287.467146 113.608929 
L 289.442676 113.443418 
L 291.418206 113.421108 
L 295.369265 113.711582 
L 299.320325 114.291228 
L 307.222444 115.572641 
L 313.149033 116.261282 
L 328.953272 117.894208 
L 336.855391 118.965027 
L 344.75751 120.238267 
L 366.488338 123.919629 
L 370.439397 124.286014 
L 374.390457 124.418939 
L 380.317046 124.304348 
L 386.243635 124.200705 
L 390.194695 124.354583 
L 394.145755 124.757767 
L 400.072344 125.635764 
L 407.974463 126.794637 
L 415.876582 127.601588 
L 425.754231 128.619493 
L 435.63188 129.97946 
L 451.436118 132.393211 
L 457.362708 133.637121 
L 471.191416 137.011395 
L 475.142476 137.580542 
L 479.093535 137.780464 
L 481.069065 137.724071 
L 483.044595 137.55429 
L 485.020125 137.264257 
L 486.995654 136.847108 
L 488.971184 136.295978 
L 490.946714 135.604083 
L 492.922244 134.769011 
L 494.897773 133.794959 
L 496.873303 132.686676 
L 500.824363 130.086409 
L 504.775422 127.00619 
L 508.726482 123.487398 
L 516.628601 115.998968 
L 518.604131 114.287934 
L 520.579661 112.730395 
L 522.55519 111.370883 
L 524.53072 110.253638 
L 526.50625 109.389742 
L 528.48178 108.727134 
L 532.432839 107.769202 
L 536.383899 106.906684 
L 538.359429 106.363342 
L 540.334958 105.666419 
L 542.310488 104.76209 
L 544.286018 103.648798 
L 546.261548 102.354652 
L 550.212607 99.337598 
L 554.163667 95.938526 
L 566.016846 85.439144 
L 571.943435 80.564268 
L 575.894495 77.545804 
L 579.845554 74.763015 
L 583.796614 72.269067 
L 587.747673 70.117968 
L 591.698733 68.363721 
L 595.649792 67.048931 
L 599.600852 66.176092 
L 603.551912 65.738882 
L 607.502971 65.730979 
L 611.454031 66.146062 
L 615.40509 66.977807 
L 619.35615 68.219893 
L 623.307209 69.865998 
L 625.282739 70.838583 
L 625.282739 70.838583 
" clip-path="url(#pfe44316257)" style="fill: none; stroke: #6f6b96; stroke-width: 1.2; stroke-linecap: square"/>
   </g>
   <g id="patch_4">
    <path d="M 23.6925 164.527326 
L 23.6925 27.638438 
" style="fill: none; stroke: #bbbbbb; stroke-width: 0.75; stroke-linejoin: miter; stroke-linecap: square"/>
   </g>
   <g id="patch_5">
    <path d="M 34.599334 176.238438 
L 642.4925 176.238438 
" style="fill: none; stroke: #bbbbbb; stroke-width: 0.75; stroke-linejoin: miter; stroke-linecap: square"/>
   </g>
   <g id="legend_1">
    <g id="line2d_25">
     <path d="M 36.7925 14.696719 
L 45.7925 14.696719 
L 54.7925 14.696719 
" style="fill: none; stroke-dasharray: 4.44,1.92; stroke-dashoffset: 0; stroke: #5d5d5d; stroke-width: 1.2"/>
    </g>
    <g id="text_23">
     <!-- Птица сельскохозяйственная (производители) -->
     <g style="fill: #4b4b4b" transform="translate(61.9925 17.846719) scale(0.09 -0.09)">
      <defs>
       <path id="Ubuntu-41f" d="M 3923 4435 
L 3923 0 
L 3302 0 
L 3302 3904 
L 1171 3904 
L 1171 0 
L 550 0 
L 550 4435 
L 3923 4435 
z
" transform="scale(0.015625)"/>
       <path id="Ubuntu-438" d="M 3309 3328 
L 3309 0 
L 2733 0 
L 2733 2534 
Q 2541 2291 2310 1964 
Q 2080 1638 1849 1289 
Q 1619 941 1408 601 
Q 1197 262 1043 0 
L 512 0 
L 512 3328 
L 1088 3328 
L 1088 934 
Q 1254 1210 1465 1539 
Q 1677 1869 1904 2192 
Q 2131 2515 2358 2812 
Q 2586 3110 2784 3328 
L 3309 3328 
z
" transform="scale(0.015625)"/>
       <path id="Ubuntu-446" d="M 3168 493 
L 3616 493 
L 3616 -928 
L 3053 -928 
L 3053 0 
L 512 0 
L 512 3328 
L 1107 3328 
L 1107 493 
L 2573 493 
L 2573 3328 
L 3168 3328 
L 3168 493 
z
" transform="scale(0.015625)"/>
       <path id="Ubuntu-430" d="M 1638 429 
Q 1850 429 2013 438 
Q 2176 448 2285 474 
L 2285 1466 
Q 2221 1498 2077 1520 
Q 1933 1542 1728 1542 
Q 1594 1542 1443 1523 
Q 1293 1504 1168 1443 
Q 1043 1382 960 1276 
Q 877 1171 877 998 
Q 877 678 1081 553 
Q 1286 429 1638 429 
z
M 1587 3411 
Q 1946 3411 2192 3318 
Q 2438 3226 2588 3056 
Q 2739 2886 2803 2652 
Q 2867 2419 2867 2138 
L 2867 58 
Q 2790 45 2652 22 
Q 2515 0 2342 -19 
Q 2170 -38 1968 -54 
Q 1766 -70 1568 -70 
Q 1286 -70 1049 -12 
Q 813 45 640 169 
Q 467 294 371 499 
Q 275 704 275 992 
Q 275 1267 387 1465 
Q 499 1664 691 1785 
Q 883 1907 1139 1964 
Q 1395 2022 1677 2022 
Q 1766 2022 1862 2012 
Q 1958 2003 2044 1987 
Q 2131 1971 2195 1958 
Q 2259 1946 2285 1939 
L 2285 2106 
Q 2285 2253 2253 2397 
Q 2221 2541 2137 2653 
Q 2054 2765 1910 2832 
Q 1766 2899 1536 2899 
Q 1242 2899 1021 2857 
Q 800 2816 691 2771 
L 621 3264 
Q 736 3315 1005 3363 
Q 1274 3411 1587 3411 
z
" transform="scale(0.015625)"/>
       <path id="Ubuntu-20" transform="scale(0.015625)"/>
       <path id="Ubuntu-441" d="M 1958 -77 
Q 1555 -77 1251 51 
Q 947 179 739 409 
Q 531 640 428 957 
Q 326 1274 326 1658 
Q 326 2042 438 2362 
Q 550 2682 755 2915 
Q 960 3149 1257 3280 
Q 1555 3411 1920 3411 
Q 2144 3411 2368 3372 
Q 2592 3334 2797 3251 
L 2662 2746 
Q 2528 2810 2352 2848 
Q 2176 2886 1978 2886 
Q 1478 2886 1212 2572 
Q 947 2259 947 1658 
Q 947 1389 1008 1165 
Q 1069 941 1200 781 
Q 1331 621 1536 534 
Q 1741 448 2035 448 
Q 2272 448 2464 493 
Q 2656 538 2765 589 
L 2848 90 
Q 2797 58 2701 29 
Q 2605 0 2483 -22 
Q 2362 -45 2224 -61 
Q 2086 -77 1958 -77 
z
" transform="scale(0.015625)"/>
       <path id="Ubuntu-435" d="M 326 1658 
Q 326 2099 454 2428 
Q 582 2758 793 2976 
Q 1005 3194 1280 3302 
Q 1555 3411 1843 3411 
Q 2515 3411 2873 2992 
Q 3232 2573 3232 1715 
Q 3232 1677 3232 1616 
Q 3232 1555 3226 1504 
L 947 1504 
Q 986 986 1248 717 
Q 1510 448 2067 448 
Q 2381 448 2595 502 
Q 2810 557 2918 608 
L 3002 109 
Q 2893 51 2621 -13 
Q 2349 -77 2003 -77 
Q 1568 -77 1251 54 
Q 934 186 729 416 
Q 525 646 425 963 
Q 326 1280 326 1658 
z
M 2611 1984 
Q 2618 2387 2410 2646 
Q 2202 2906 1837 2906 
Q 1632 2906 1475 2826 
Q 1318 2746 1209 2618 
Q 1101 2490 1040 2323 
Q 979 2157 960 1984 
L 2611 1984 
z
" transform="scale(0.015625)"/>
       <path id="Ubuntu-44c" d="M 1773 416 
Q 2150 416 2368 563 
Q 2586 710 2586 1037 
Q 2586 1197 2522 1312 
Q 2458 1427 2346 1500 
Q 2234 1574 2086 1609 
Q 1939 1645 1773 1645 
Q 1600 1645 1417 1635 
Q 1235 1626 1107 1594 
L 1107 448 
Q 1146 442 1222 435 
Q 1299 429 1392 425 
Q 1485 422 1584 419 
Q 1683 416 1773 416 
z
M 512 70 
L 512 3328 
L 1107 3328 
L 1107 2054 
Q 1158 2067 1244 2080 
Q 1331 2093 1430 2105 
Q 1530 2118 1638 2124 
Q 1747 2131 1843 2131 
Q 2118 2131 2361 2070 
Q 2605 2010 2787 1878 
Q 2970 1747 3078 1539 
Q 3187 1331 3187 1043 
Q 3187 742 3084 531 
Q 2982 320 2790 185 
Q 2598 51 2332 -9 
Q 2067 -70 1741 -70 
Q 1421 -70 1113 -35 
Q 806 0 512 70 
z
" transform="scale(0.015625)"/>
       <path id="Ubuntu-43e" d="M 3450 1664 
Q 3450 1267 3334 947 
Q 3219 627 3011 396 
Q 2803 166 2515 41 
Q 2227 -83 1888 -83 
Q 1549 -83 1261 41 
Q 973 166 765 396 
Q 557 627 441 947 
Q 326 1267 326 1664 
Q 326 2054 441 2377 
Q 557 2701 765 2931 
Q 973 3162 1261 3286 
Q 1549 3411 1888 3411 
Q 2227 3411 2515 3286 
Q 2803 3162 3011 2931 
Q 3219 2701 3334 2377 
Q 3450 2054 3450 1664 
z
M 2829 1664 
Q 2829 2227 2576 2556 
Q 2323 2886 1888 2886 
Q 1453 2886 1200 2556 
Q 947 2227 947 1664 
Q 947 1101 1200 771 
Q 1453 442 1888 442 
Q 2323 442 2576 771 
Q 2829 1101 2829 1664 
z
" transform="scale(0.015625)"/>
       <path id="Ubuntu-445" d="M 2502 0 
Q 2432 141 2329 313 
Q 2227 486 2105 668 
Q 1984 851 1856 1030 
Q 1728 1210 1606 1370 
Q 1485 1210 1357 1027 
Q 1229 845 1110 662 
Q 992 480 889 307 
Q 787 134 717 0 
L 102 0 
Q 326 435 636 886 
Q 947 1338 1254 1747 
L 154 3328 
L 826 3328 
L 1619 2163 
L 2419 3328 
L 3053 3328 
L 1978 1786 
Q 2285 1370 2608 906 
Q 2931 442 3155 0 
L 2502 0 
z
" transform="scale(0.015625)"/>
       <path id="Ubuntu-437" d="M 1357 3411 
Q 1645 3411 1894 3353 
Q 2144 3296 2323 3181 
Q 2502 3066 2604 2893 
Q 2707 2720 2707 2490 
Q 2707 2342 2656 2220 
Q 2605 2099 2528 2003 
Q 2451 1907 2358 1840 
Q 2266 1773 2182 1747 
Q 2477 1658 2646 1430 
Q 2816 1203 2816 858 
Q 2816 384 2432 153 
Q 2048 -77 1389 -77 
Q 986 -77 694 -13 
Q 403 51 282 109 
L 384 614 
Q 486 576 752 509 
Q 1018 442 1389 442 
Q 1792 442 2003 566 
Q 2214 691 2214 941 
Q 2214 1120 2134 1232 
Q 2054 1344 1932 1401 
Q 1811 1459 1670 1478 
Q 1530 1498 1408 1498 
L 851 1498 
L 851 1971 
L 1389 1971 
Q 1504 1971 1629 1987 
Q 1754 2003 1859 2054 
Q 1965 2106 2035 2198 
Q 2106 2291 2106 2445 
Q 2106 2566 2045 2652 
Q 1984 2739 1881 2796 
Q 1779 2854 1641 2883 
Q 1504 2912 1357 2912 
Q 1242 2912 1107 2893 
Q 973 2874 845 2845 
Q 717 2816 614 2784 
Q 512 2752 467 2726 
L 358 3238 
Q 410 3258 518 3290 
Q 627 3322 764 3347 
Q 902 3373 1056 3392 
Q 1210 3411 1357 3411 
z
" transform="scale(0.015625)"/>
       <path id="Ubuntu-44f" d="M 1888 1293 
Q 1792 1293 1702 1296 
Q 1613 1299 1530 1306 
Q 1325 998 1136 649 
Q 947 301 800 0 
L 198 0 
Q 275 186 377 381 
Q 480 576 585 761 
Q 691 947 800 1113 
Q 909 1280 1005 1414 
Q 826 1478 710 1571 
Q 595 1664 524 1779 
Q 454 1894 425 2025 
Q 397 2157 397 2291 
Q 397 2573 502 2784 
Q 608 2995 793 3132 
Q 979 3270 1232 3340 
Q 1485 3411 1786 3411 
Q 2208 3411 2502 3372 
Q 2797 3334 2995 3283 
L 2995 0 
L 2406 0 
L 2406 1293 
L 1888 1293 
z
M 2406 2886 
Q 2336 2899 2173 2912 
Q 2010 2925 1798 2925 
Q 1434 2925 1210 2774 
Q 986 2624 986 2298 
Q 986 1978 1216 1856 
Q 1446 1734 1811 1734 
L 2406 1734 
L 2406 2886 
z
" transform="scale(0.015625)"/>
       <path id="Ubuntu-439" d="M 3309 3328 
L 3309 0 
L 2733 0 
L 2733 2534 
Q 2541 2291 2310 1964 
Q 2080 1638 1849 1289 
Q 1619 941 1408 601 
Q 1197 262 1043 0 
L 512 0 
L 512 3328 
L 1088 3328 
L 1088 934 
Q 1254 1210 1465 1539 
Q 1677 1869 1904 2192 
Q 2131 2515 2358 2812 
Q 2586 3110 2784 3328 
L 3309 3328 
z
M 1917 3866 
Q 1514 3866 1261 4070 
Q 1008 4275 957 4640 
L 1411 4762 
Q 1462 4557 1584 4429 
Q 1706 4301 1917 4301 
Q 2128 4301 2249 4429 
Q 2371 4557 2422 4762 
L 2870 4640 
Q 2819 4275 2569 4070 
Q 2320 3866 1917 3866 
z
" transform="scale(0.015625)"/>
       <path id="Ubuntu-28" d="M 1094 1914 
Q 1094 1094 1331 396 
Q 1568 -301 2029 -896 
L 1606 -1184 
Q 1107 -576 803 214 
Q 499 1005 499 1914 
Q 499 2822 803 3612 
Q 1107 4403 1606 5011 
L 2029 4723 
Q 1568 4128 1331 3430 
Q 1094 2733 1094 1914 
z
" transform="scale(0.015625)"/>
       <path id="Ubuntu-434" d="M 102 486 
L 461 486 
Q 672 794 797 1120 
Q 922 1446 986 1795 
Q 1050 2144 1069 2525 
Q 1088 2906 1094 3328 
L 3277 3328 
L 3277 486 
L 3725 486 
L 3725 -928 
L 3162 -928 
L 3162 0 
L 666 0 
L 666 -928 
L 102 -928 
L 102 486 
z
M 2682 486 
L 2682 2829 
L 1638 2829 
Q 1632 2528 1606 2224 
Q 1581 1920 1523 1622 
Q 1466 1325 1360 1040 
Q 1254 755 1094 486 
L 2682 486 
z
" transform="scale(0.015625)"/>
       <path id="Ubuntu-29" d="M 979 1914 
Q 979 2733 742 3430 
Q 506 4128 45 4723 
L 467 5011 
Q 966 4403 1270 3612 
Q 1574 2822 1574 1914 
Q 1574 1005 1270 214 
Q 966 -576 467 -1184 
L 45 -896 
Q 506 -301 742 396 
Q 979 1094 979 1914 
z
" transform="scale(0.015625)"/>
      </defs>
      <use xlink:href="#Ubuntu-41f"/>
      <use xlink:href="#Ubuntu-442" x="69.899994"/>
      <use xlink:href="#Ubuntu-438" x="116.199982"/>
      <use xlink:href="#Ubuntu-446" x="175.899979"/>
      <use xlink:href="#Ubuntu-430" x="234.499969"/>
      <use xlink:href="#Ubuntu-20" x="286.699966"/>
      <use xlink:href="#Ubuntu-441" x="309.799957"/>
      <use xlink:href="#Ubuntu-435" x="356.299942"/>
      <use xlink:href="#Ubuntu-43b" x="412.199936"/>
      <use xlink:href="#Ubuntu-44c" x="471.999924"/>
      <use xlink:href="#Ubuntu-441" x="524.799911"/>
      <use xlink:href="#Ubuntu-43a" x="571.299896"/>
      <use xlink:href="#Ubuntu-43e" x="622.124893"/>
      <use xlink:href="#Ubuntu-445" x="679.374878"/>
      <use xlink:href="#Ubuntu-43e" x="728.349869"/>
      <use xlink:href="#Ubuntu-437" x="785.599854"/>
      <use xlink:href="#Ubuntu-44f" x="834.499847"/>
      <use xlink:href="#Ubuntu-439" x="889.299835"/>
      <use xlink:href="#Ubuntu-441" x="948.999832"/>
      <use xlink:href="#Ubuntu-442" x="996.999817"/>
      <use xlink:href="#Ubuntu-432" x="1043.299805"/>
      <use xlink:href="#Ubuntu-435" x="1098.099792"/>
      <use xlink:href="#Ubuntu-43d" x="1153.999786"/>
      <use xlink:href="#Ubuntu-43d" x="1212.599777"/>
      <use xlink:href="#Ubuntu-430" x="1271.199768"/>
      <use xlink:href="#Ubuntu-44f" x="1323.399765"/>
      <use xlink:href="#Ubuntu-20" x="1378.199753"/>
      <use xlink:href="#Ubuntu-28" x="1401.299744"/>
      <use xlink:href="#Ubuntu-43f" x="1433.699738"/>
      <use xlink:href="#Ubuntu-440" x="1491.499725"/>
      <use xlink:href="#Ubuntu-43e" x="1550.399719"/>
      <use xlink:href="#Ubuntu-438" x="1609.399704"/>
      <use xlink:href="#Ubuntu-437" x="1669.099701"/>
      <use xlink:href="#Ubuntu-432" x="1717.999695"/>
      <use xlink:href="#Ubuntu-43e" x="1772.799683"/>
      <use xlink:href="#Ubuntu-434" x="1831.799667"/>
      <use xlink:href="#Ubuntu-438" x="1892.099655"/>
      <use xlink:href="#Ubuntu-442" x="1951.799652"/>
      <use xlink:href="#Ubuntu-435" x="1998.09964"/>
      <use xlink:href="#Ubuntu-43b" x="2053.999634"/>
      <use xlink:href="#Ubuntu-438" x="2113.799622"/>
      <use xlink:href="#Ubuntu-29" x="2173.499619"/>
     </g>
    </g>
    <g id="line2d_26">
     <path d="M 278.524063 14.696719 
L 287.524063 14.696719 
L 296.524063 14.696719 
" style="fill: none; stroke: #6f6b96; stroke-width: 1.2; stroke-linecap: square"/>
    </g>
    <g id="text_24">
     <!-- Куры охлажденные (потребители) -->
     <g style="fill: #4b4b4b" transform="translate(303.724063 17.846719) scale(0.09 -0.09)">
      <defs>
       <path id="Ubuntu-41a" d="M 3834 4435 
Q 3635 4218 3385 3952 
Q 3136 3686 2864 3408 
Q 2592 3130 2323 2861 
Q 2054 2592 1818 2362 
Q 2093 2170 2400 1888 
Q 2707 1606 3001 1286 
Q 3296 966 3555 633 
Q 3814 301 3987 0 
L 3258 0 
Q 3066 301 2816 605 
Q 2566 909 2288 1187 
Q 2010 1466 1725 1702 
Q 1440 1939 1171 2106 
L 1171 0 
L 550 0 
L 550 4435 
L 1171 4435 
L 1171 2477 
Q 1395 2688 1664 2953 
Q 1933 3219 2195 3488 
Q 2458 3757 2691 4003 
Q 2925 4250 3085 4435 
L 3834 4435 
z
" transform="scale(0.015625)"/>
       <path id="Ubuntu-443" d="M 122 -621 
Q 192 -653 304 -681 
Q 416 -710 525 -710 
Q 877 -710 1075 -553 
Q 1274 -397 1434 -45 
Q 1030 723 681 1584 
Q 333 2445 102 3328 
L 742 3328 
Q 813 3040 912 2707 
Q 1011 2374 1132 2022 
Q 1254 1670 1395 1318 
Q 1536 966 1690 640 
Q 1933 1312 2112 1971 
Q 2291 2630 2451 3328 
L 3066 3328 
Q 2835 2387 2553 1520 
Q 2272 653 1946 -102 
Q 1818 -390 1680 -598 
Q 1542 -806 1376 -940 
Q 1210 -1075 1002 -1139 
Q 794 -1203 531 -1203 
Q 461 -1203 384 -1193 
Q 307 -1184 233 -1168 
Q 160 -1152 99 -1133 
Q 38 -1114 13 -1101 
L 122 -621 
z
" transform="scale(0.015625)"/>
       <path id="Ubuntu-44b" d="M 1734 1645 
Q 1562 1645 1398 1635 
Q 1235 1626 1107 1594 
L 1107 448 
Q 1146 442 1219 435 
Q 1293 429 1379 425 
Q 1466 422 1555 419 
Q 1645 416 1715 416 
Q 2106 416 2317 563 
Q 2528 710 2528 1037 
Q 2528 1197 2461 1312 
Q 2394 1427 2282 1500 
Q 2170 1574 2029 1609 
Q 1888 1645 1734 1645 
z
M 512 3328 
L 1107 3328 
L 1107 2054 
Q 1216 2080 1424 2105 
Q 1632 2131 1824 2131 
Q 2086 2131 2323 2070 
Q 2560 2010 2739 1878 
Q 2918 1747 3024 1539 
Q 3130 1331 3130 1043 
Q 3130 742 3027 531 
Q 2925 320 2739 185 
Q 2554 51 2291 -9 
Q 2029 -70 1715 -70 
Q 1414 -70 1107 -35 
Q 800 0 512 70 
L 512 3328 
z
M 4339 0 
L 3744 0 
L 3744 3328 
L 4339 3328 
L 4339 0 
z
" transform="scale(0.015625)"/>
       <path id="Ubuntu-436" d="M 4614 3328 
Q 4486 3168 4326 2979 
Q 4166 2790 3993 2588 
Q 3821 2387 3645 2188 
Q 3469 1990 3309 1811 
Q 3501 1626 3705 1408 
Q 3910 1190 4105 956 
Q 4301 723 4480 476 
Q 4659 230 4794 0 
L 4128 0 
Q 3994 211 3818 444 
Q 3642 678 3453 896 
Q 3264 1114 3075 1302 
Q 2886 1491 2726 1613 
L 2726 0 
L 2157 0 
L 2157 1613 
Q 1997 1491 1808 1302 
Q 1619 1114 1430 896 
Q 1242 678 1066 444 
Q 890 211 755 0 
L 96 0 
Q 230 230 406 473 
Q 582 717 777 950 
Q 973 1184 1177 1401 
Q 1382 1619 1574 1805 
Q 1414 1984 1238 2182 
Q 1062 2381 889 2582 
Q 717 2784 557 2973 
Q 397 3162 262 3328 
L 922 3328 
Q 1152 3040 1453 2688 
Q 1754 2336 2157 1875 
L 2157 3328 
L 2726 3328 
L 2726 1875 
Q 3130 2336 3430 2688 
Q 3731 3040 3962 3328 
L 4614 3328 
z
" transform="scale(0.015625)"/>
       <path id="Ubuntu-431" d="M 1050 2944 
Q 1248 3104 1513 3190 
Q 1779 3277 2022 3277 
Q 2739 3277 3107 2838 
Q 3475 2400 3475 1619 
Q 3475 1286 3385 979 
Q 3296 672 3107 435 
Q 2918 198 2630 57 
Q 2342 -83 1946 -83 
Q 1491 -83 1190 83 
Q 890 250 714 538 
Q 538 826 467 1210 
Q 397 1594 397 2022 
Q 397 2579 477 3059 
Q 557 3539 768 3904 
Q 979 4269 1353 4509 
Q 1728 4749 2317 4832 
Q 2490 4858 2621 4874 
Q 2752 4890 2851 4902 
Q 2950 4915 3033 4931 
Q 3117 4947 3206 4966 
L 3270 4429 
Q 3226 4416 3178 4409 
Q 3130 4403 3043 4390 
Q 2957 4378 2813 4358 
Q 2669 4339 2438 4314 
Q 1805 4243 1465 3929 
Q 1126 3616 1050 2944 
z
M 1011 1926 
Q 1011 1626 1052 1357 
Q 1094 1088 1200 883 
Q 1306 678 1485 560 
Q 1664 442 1946 442 
Q 2189 442 2361 534 
Q 2534 627 2643 787 
Q 2752 947 2803 1161 
Q 2854 1376 2854 1619 
Q 2854 1837 2812 2041 
Q 2771 2246 2662 2406 
Q 2554 2566 2371 2662 
Q 2189 2758 1914 2758 
Q 1645 2758 1398 2643 
Q 1152 2528 1018 2362 
Q 1011 2291 1011 2163 
Q 1011 2035 1011 1926 
z
" transform="scale(0.015625)"/>
      </defs>
      <use xlink:href="#Ubuntu-41a"/>
      <use xlink:href="#Ubuntu-443" x="58.149994"/>
      <use xlink:href="#Ubuntu-440" x="107.849991"/>
      <use xlink:href="#Ubuntu-44b" x="166.749985"/>
      <use xlink:href="#Ubuntu-20" x="242.549973"/>
      <use xlink:href="#Ubuntu-43e" x="265.649963"/>
      <use xlink:href="#Ubuntu-445" x="322.899948"/>
      <use xlink:href="#Ubuntu-43b" x="375.874939"/>
      <use xlink:href="#Ubuntu-430" x="435.674927"/>
      <use xlink:href="#Ubuntu-436" x="487.874924"/>
      <use xlink:href="#Ubuntu-434" x="566.424911"/>
      <use xlink:href="#Ubuntu-435" x="626.724899"/>
      <use xlink:href="#Ubuntu-43d" x="682.624893"/>
      <use xlink:href="#Ubuntu-43d" x="741.224884"/>
      <use xlink:href="#Ubuntu-44b" x="799.824875"/>
      <use xlink:href="#Ubuntu-435" x="875.624863"/>
      <use xlink:href="#Ubuntu-20" x="931.524857"/>
      <use xlink:href="#Ubuntu-28" x="954.624847"/>
      <use xlink:href="#Ubuntu-43f" x="987.024841"/>
      <use xlink:href="#Ubuntu-43e" x="1044.824829"/>
      <use xlink:href="#Ubuntu-442" x="1103.824814"/>
      <use xlink:href="#Ubuntu-440" x="1150.124802"/>
      <use xlink:href="#Ubuntu-435" x="1209.024796"/>
      <use xlink:href="#Ubuntu-431" x="1264.924789"/>
      <use xlink:href="#Ubuntu-438" x="1324.424774"/>
      <use xlink:href="#Ubuntu-442" x="1384.124771"/>
      <use xlink:href="#Ubuntu-435" x="1430.424759"/>
      <use xlink:href="#Ubuntu-43b" x="1486.324753"/>
      <use xlink:href="#Ubuntu-438" x="1546.124741"/>
      <use xlink:href="#Ubuntu-29" x="1605.824738"/>
     </g>
    </g>
   </g>
   <g id="line2d_27">
    <path d="M 44.0375 164.527326 
L 627.1475 164.527326 
" clip-path="url(#pfe44316257)" style="fill: none; stroke-dasharray: 2.775,1.2; stroke-dashoffset: 0; stroke: #c5c5c5; stroke-width: 0.75"/>
   </g>
  </g>
 </g>
 <defs>
  <clipPath id="pdf92771a8f">
   <rect x="28.6925" y="188.414437" width="613.8" height="0"/>
  </clipPath>
  <clipPath id="pfe44316257">
   <rect x="28.6925" y="27.638438" width="613.8" height="138.6"/>
  </clipPath>
 </defs>
</svg>
