<?xml version="1.0" encoding="utf-8" standalone="no"?>
<!DOCTYPE svg PUBLIC "-//W3C//DTD SVG 1.1//EN"
  "http://www.w3.org/Graphics/SVG/1.1/DTD/svg11.dtd">
<svg xmlns:xlink="http://www.w3.org/1999/xlink" width="663.23pt" height="277.5623pt" viewBox="0 0 663.23 277.5623" xmlns="http://www.w3.org/2000/svg" version="1.1">
 <metadata>
  <rdf:RDF xmlns:dc="http://purl.org/dc/elements/1.1/" xmlns:cc="http://creativecommons.org/ns#" xmlns:rdf="http://www.w3.org/1999/02/22-rdf-syntax-ns#">
   <cc:Work>
    <dc:type rdf:resource="http://purl.org/dc/dcmitype/StillImage"/>
    <dc:date>2024-02-21T19:15:28.524214</dc:date>
    <dc:format>image/svg+xml</dc:format>
    <dc:creator>
     <cc:Agent>
      <dc:title>Matplotlib v3.8.0, https://matplotlib.org/</dc:title>
     </cc:Agent>
    </dc:creator>
   </cc:Work>
  </rdf:RDF>
 </metadata>
 <defs>
  <style type="text/css">*{stroke-linejoin: round; stroke-linecap: butt}</style>
 </defs>
 <g id="figure_1">
  <g id="patch_1">
   <path d="M 0 277.5623 
L 663.23 277.5623 
L 663.23 0 
L 0 0 
L 0 277.5623 
z
" style="fill: none"/>
  </g>
  <g id="axes_1">
   <g id="patch_2">
    <path d="M 33.205 235.89 
L 647.005 235.89 
L 647.005 41.85 
L 33.205 41.85 
L 33.205 235.89 
z
" style="fill: none"/>
   </g>
   <g id="axes_2">
    <g id="patch_3">
     <path d="M 33.205 259.1748 
L 647.005 259.1748 
L 647.005 259.1748 
L 33.205 259.1748 
L 33.205 259.1748 
z
" style="fill: none"/>
    </g>
    <g id="matplotlib.axis_1">
     <g id="xtick_1">
      <g id="line2d_1">
       <path d="M 39.111834 259.1748 
L 39.111834 259.1748 
" clip-path="url(#pf25cdb8ce0)" style="fill: none; stroke-dasharray: 0.5,0.825; stroke-dashoffset: 0; stroke: #d9d9d9; stroke-width: 0.5"/>
      </g>
      <g id="text_1">
       <!-- 2021 -->
       <g style="fill: #9f9f9f" transform="translate(30.086834 268.8823) scale(0.08 -0.08)">
        <defs>
         <path id="Ubuntu-32" d="M 2989 3302 
Q 2989 3072 2896 2857 
Q 2803 2643 2649 2435 
Q 2496 2227 2304 2025 
Q 2112 1824 1920 1632 
Q 1811 1523 1667 1376 
Q 1523 1229 1395 1069 
Q 1267 909 1180 761 
Q 1094 614 1094 506 
L 3136 506 
L 3136 0 
L 448 0 
Q 442 38 442 76 
Q 442 115 442 147 
Q 442 448 541 707 
Q 640 966 800 1196 
Q 960 1427 1158 1632 
Q 1357 1837 1549 2029 
Q 1709 2182 1853 2332 
Q 1997 2483 2109 2633 
Q 2221 2784 2288 2944 
Q 2355 3104 2355 3283 
Q 2355 3475 2294 3609 
Q 2234 3744 2131 3833 
Q 2029 3923 1891 3964 
Q 1754 4006 1600 4006 
Q 1414 4006 1260 3955 
Q 1107 3904 985 3837 
Q 864 3770 781 3696 
Q 698 3622 653 3584 
L 358 4006 
Q 416 4070 531 4163 
Q 646 4256 806 4339 
Q 966 4422 1164 4480 
Q 1363 4538 1594 4538 
Q 2291 4538 2640 4214 
Q 2989 3891 2989 3302 
z
" transform="scale(0.015625)"/>
         <path id="Ubuntu-30" d="M 320 2221 
Q 320 3334 713 3936 
Q 1107 4538 1805 4538 
Q 2502 4538 2896 3936 
Q 3290 3334 3290 2221 
Q 3290 1107 2896 505 
Q 2502 -96 1805 -96 
Q 1107 -96 713 505 
Q 320 1107 320 2221 
z
M 2662 2221 
Q 2662 2586 2620 2912 
Q 2579 3238 2480 3481 
Q 2381 3725 2214 3869 
Q 2048 4013 1805 4013 
Q 1562 4013 1395 3869 
Q 1229 3725 1129 3481 
Q 1030 3238 988 2912 
Q 947 2586 947 2221 
Q 947 1856 988 1529 
Q 1030 1203 1129 960 
Q 1229 717 1395 573 
Q 1562 429 1805 429 
Q 2048 429 2214 573 
Q 2381 717 2480 960 
Q 2579 1203 2620 1529 
Q 2662 1856 2662 2221 
z
" transform="scale(0.015625)"/>
         <path id="Ubuntu-31" d="M 595 3520 
Q 960 3661 1305 3881 
Q 1651 4102 1939 4435 
L 2362 4435 
L 2362 0 
L 1766 0 
L 1766 3610 
Q 1690 3539 1578 3462 
Q 1466 3386 1334 3315 
Q 1203 3245 1059 3181 
Q 915 3117 781 3072 
L 595 3520 
z
" transform="scale(0.015625)"/>
        </defs>
        <use xlink:href="#Ubuntu-32"/>
        <use xlink:href="#Ubuntu-30" x="56.399994"/>
        <use xlink:href="#Ubuntu-32" x="112.799988"/>
        <use xlink:href="#Ubuntu-31" x="169.199982"/>
       </g>
      </g>
     </g>
     <g id="xtick_2">
      <g id="line2d_2">
       <path d="M 241.742889 259.1748 
L 241.742889 259.1748 
" clip-path="url(#pf25cdb8ce0)" style="fill: none; stroke-dasharray: 0.5,0.825; stroke-dashoffset: 0; stroke: #d9d9d9; stroke-width: 0.5"/>
      </g>
      <g id="text_2">
       <!-- 2022 -->
       <g style="fill: #9f9f9f" transform="translate(232.717889 268.8823) scale(0.08 -0.08)">
        <use xlink:href="#Ubuntu-32"/>
        <use xlink:href="#Ubuntu-30" x="56.399994"/>
        <use xlink:href="#Ubuntu-32" x="112.799988"/>
        <use xlink:href="#Ubuntu-32" x="169.199982"/>
       </g>
      </g>
     </g>
     <g id="xtick_3">
      <g id="line2d_3">
       <path d="M 444.373945 259.1748 
L 444.373945 259.1748 
" clip-path="url(#pf25cdb8ce0)" style="fill: none; stroke-dasharray: 0.5,0.825; stroke-dashoffset: 0; stroke: #d9d9d9; stroke-width: 0.5"/>
      </g>
      <g id="text_3">
       <!-- 2023 -->
       <g style="fill: #9f9f9f" transform="translate(435.348945 268.8823) scale(0.08 -0.08)">
        <defs>
         <path id="Ubuntu-33" d="M 1446 435 
Q 2016 435 2262 659 
Q 2509 883 2509 1261 
Q 2509 1504 2406 1670 
Q 2304 1837 2137 1936 
Q 1971 2035 1750 2076 
Q 1530 2118 1299 2118 
L 1146 2118 
L 1146 2605 
L 1357 2605 
Q 1517 2605 1686 2637 
Q 1856 2669 1997 2752 
Q 2138 2835 2227 2979 
Q 2317 3123 2317 3341 
Q 2317 3520 2253 3648 
Q 2189 3776 2083 3859 
Q 1978 3942 1840 3977 
Q 1702 4013 1549 4013 
Q 1242 4013 1027 3923 
Q 813 3834 666 3738 
L 435 4192 
Q 512 4243 630 4304 
Q 749 4365 896 4416 
Q 1043 4467 1212 4502 
Q 1382 4538 1568 4538 
Q 1920 4538 2176 4451 
Q 2432 4365 2598 4208 
Q 2765 4051 2848 3836 
Q 2931 3622 2931 3373 
Q 2931 3027 2732 2780 
Q 2534 2534 2253 2406 
Q 2426 2355 2586 2259 
Q 2746 2163 2864 2016 
Q 2982 1869 3056 1677 
Q 3130 1485 3130 1248 
Q 3130 960 3030 713 
Q 2931 467 2723 288 
Q 2515 109 2201 6 
Q 1888 -96 1459 -96 
Q 1293 -96 1117 -70 
Q 941 -45 787 -6 
Q 634 32 518 70 
Q 403 109 352 134 
L 467 653 
Q 576 602 829 518 
Q 1082 435 1446 435 
z
" transform="scale(0.015625)"/>
        </defs>
        <use xlink:href="#Ubuntu-32"/>
        <use xlink:href="#Ubuntu-30" x="56.399994"/>
        <use xlink:href="#Ubuntu-32" x="112.799988"/>
        <use xlink:href="#Ubuntu-33" x="169.199982"/>
       </g>
      </g>
     </g>
     <g id="xtick_4">
      <g id="line2d_4">
       <path d="M 647.005 259.1748 
L 647.005 259.1748 
" clip-path="url(#pf25cdb8ce0)" style="fill: none; stroke-dasharray: 0.5,0.825; stroke-dashoffset: 0; stroke: #d9d9d9; stroke-width: 0.5"/>
      </g>
      <g id="text_4">
       <!-- 2024 -->
       <g style="fill: #9f9f9f" transform="translate(637.98 268.8823) scale(0.08 -0.08)">
        <defs>
         <path id="Ubuntu-34" d="M 256 1536 
Q 378 1818 589 2192 
Q 800 2566 1065 2963 
Q 1331 3360 1635 3744 
Q 1939 4128 2246 4435 
L 2816 4435 
L 2816 1619 
L 3341 1619 
L 3341 1133 
L 2816 1133 
L 2816 0 
L 2240 0 
L 2240 1133 
L 256 1133 
L 256 1536 
z
M 2240 3731 
Q 2048 3526 1853 3273 
Q 1658 3021 1472 2745 
Q 1286 2470 1123 2182 
Q 960 1894 832 1619 
L 2240 1619 
L 2240 3731 
z
" transform="scale(0.015625)"/>
        </defs>
        <use xlink:href="#Ubuntu-32"/>
        <use xlink:href="#Ubuntu-30" x="56.399994"/>
        <use xlink:href="#Ubuntu-32" x="112.799988"/>
        <use xlink:href="#Ubuntu-34" x="169.199982"/>
       </g>
      </g>
     </g>
    </g>
    <g id="matplotlib.axis_2"/>
   </g>
   <g id="matplotlib.axis_3">
    <g id="xtick_5">
     <g id="line2d_5">
      <defs>
       <path id="m4af755e440" d="M 0 0 
L 0 2 
" style="stroke: #bbbbbb; stroke-width: 0.75"/>
      </defs>
      <g>
       <use xlink:href="#m4af755e440" x="39.111834" y="245.89" style="fill: #bbbbbb; stroke: #bbbbbb; stroke-width: 0.75"/>
      </g>
     </g>
     <g id="text_5">
      <!-- Янв -->
      <g style="fill: #9f9f9f" transform="translate(32.036209 257.5975) scale(0.08 -0.08)">
       <defs>
        <path id="Ubuntu-42f" d="M 2272 3936 
Q 2029 3936 1808 3897 
Q 1587 3859 1414 3763 
Q 1242 3667 1139 3500 
Q 1037 3334 1037 3085 
Q 1037 2611 1341 2428 
Q 1645 2246 2253 2246 
L 2893 2246 
L 2893 3917 
Q 2822 3917 2726 3923 
Q 2643 3930 2531 3933 
Q 2419 3936 2272 3936 
z
M 2323 4480 
Q 2458 4480 2611 4473 
Q 2765 4467 2921 4454 
Q 3078 4442 3232 4422 
Q 3386 4403 3514 4371 
L 3514 0 
L 2893 0 
L 2893 1734 
L 2362 1734 
Q 2272 1734 2173 1737 
Q 2074 1741 1907 1760 
Q 1792 1606 1657 1401 
Q 1523 1197 1388 966 
Q 1254 736 1123 486 
Q 992 237 883 0 
L 230 0 
Q 333 250 473 518 
Q 614 787 764 1030 
Q 915 1274 1052 1482 
Q 1190 1690 1293 1824 
Q 1146 1869 986 1952 
Q 826 2035 691 2182 
Q 557 2330 470 2550 
Q 384 2771 384 3078 
Q 384 3424 518 3686 
Q 653 3949 905 4125 
Q 1158 4301 1516 4390 
Q 1875 4480 2323 4480 
z
" transform="scale(0.015625)"/>
        <path id="Ubuntu-43d" d="M 3238 0 
L 2643 0 
L 2643 1472 
L 1107 1472 
L 1107 0 
L 512 0 
L 512 3328 
L 1107 3328 
L 1107 1971 
L 2643 1971 
L 2643 3328 
L 3238 3328 
L 3238 0 
z
" transform="scale(0.015625)"/>
        <path id="Ubuntu-432" d="M 1094 448 
Q 1133 442 1203 435 
Q 1274 429 1363 425 
Q 1453 422 1552 419 
Q 1651 416 1741 416 
Q 1926 416 2096 441 
Q 2266 467 2390 531 
Q 2515 595 2588 700 
Q 2662 806 2662 973 
Q 2662 1133 2595 1238 
Q 2528 1344 2413 1408 
Q 2298 1472 2141 1497 
Q 1984 1523 1805 1523 
L 1094 1523 
L 1094 448 
z
M 1728 1965 
Q 1901 1965 2045 1987 
Q 2189 2010 2294 2067 
Q 2400 2125 2461 2221 
Q 2522 2317 2522 2464 
Q 2522 2618 2445 2707 
Q 2368 2797 2243 2845 
Q 2118 2893 1961 2909 
Q 1805 2925 1645 2925 
Q 1498 2925 1347 2918 
Q 1197 2912 1094 2906 
L 1094 1965 
L 1728 1965 
z
M 1715 -58 
Q 1338 -58 1018 -22 
Q 698 13 512 58 
L 512 3296 
Q 698 3341 1018 3376 
Q 1338 3411 1715 3411 
Q 1978 3411 2227 3366 
Q 2477 3322 2669 3216 
Q 2861 3110 2979 2928 
Q 3098 2746 3098 2477 
Q 3098 2234 2976 2061 
Q 2854 1888 2650 1792 
Q 2925 1696 3088 1507 
Q 3251 1318 3251 979 
Q 3251 678 3132 480 
Q 3014 282 2806 160 
Q 2598 38 2316 -10 
Q 2035 -58 1715 -58 
z
" transform="scale(0.015625)"/>
       </defs>
       <use xlink:href="#Ubuntu-42f"/>
       <use xlink:href="#Ubuntu-43d" x="63.499985"/>
       <use xlink:href="#Ubuntu-432" x="122.099976"/>
      </g>
     </g>
    </g>
    <g id="xtick_6">
     <g id="line2d_6">
      <g>
       <use xlink:href="#m4af755e440" x="89.075656" y="245.89" style="fill: #bbbbbb; stroke: #bbbbbb; stroke-width: 0.75"/>
      </g>
     </g>
     <g id="text_6">
      <!-- Апр -->
      <g style="fill: #9f9f9f" transform="translate(81.755656 257.5975) scale(0.08 -0.08)">
       <defs>
        <path id="Ubuntu-410" d="M 3514 0 
Q 3405 288 3309 566 
Q 3213 845 3110 1133 
L 1101 1133 
L 698 0 
L 51 0 
Q 307 704 531 1302 
Q 755 1901 969 2438 
Q 1184 2976 1395 3465 
Q 1606 3955 1837 4435 
L 2406 4435 
Q 2637 3955 2848 3465 
Q 3059 2976 3273 2438 
Q 3488 1901 3712 1302 
Q 3936 704 4192 0 
L 3514 0 
z
M 2931 1645 
Q 2726 2202 2524 2723 
Q 2323 3245 2106 3725 
Q 1882 3245 1680 2723 
Q 1478 2202 1280 1645 
L 2931 1645 
z
" transform="scale(0.015625)"/>
        <path id="Ubuntu-43f" d="M 3187 0 
L 2592 0 
L 2592 2829 
L 1107 2829 
L 1107 0 
L 512 0 
L 512 3328 
L 3187 3328 
L 3187 0 
z
" transform="scale(0.015625)"/>
        <path id="Ubuntu-440" d="M 2822 1658 
Q 2822 2240 2534 2553 
Q 2246 2867 1766 2867 
Q 1498 2867 1347 2848 
Q 1197 2829 1107 2803 
L 1107 704 
Q 1216 614 1421 531 
Q 1626 448 1869 448 
Q 2125 448 2307 541 
Q 2490 634 2605 797 
Q 2720 960 2771 1181 
Q 2822 1402 2822 1658 
z
M 3443 1658 
Q 3443 1280 3344 960 
Q 3245 640 3053 409 
Q 2861 179 2582 51 
Q 2304 -77 1946 -77 
Q 1658 -77 1437 0 
Q 1216 77 1107 147 
L 1107 -1184 
L 512 -1184 
L 512 3226 
Q 723 3277 1040 3337 
Q 1357 3398 1773 3398 
Q 2157 3398 2464 3276 
Q 2771 3155 2988 2931 
Q 3206 2707 3324 2384 
Q 3443 2061 3443 1658 
z
" transform="scale(0.015625)"/>
       </defs>
       <use xlink:href="#Ubuntu-410"/>
       <use xlink:href="#Ubuntu-43f" x="66.299988"/>
       <use xlink:href="#Ubuntu-440" x="124.099976"/>
      </g>
     </g>
    </g>
    <g id="xtick_7">
     <g id="line2d_7">
      <g>
       <use xlink:href="#m4af755e440" x="139.594631" y="245.89" style="fill: #bbbbbb; stroke: #bbbbbb; stroke-width: 0.75"/>
      </g>
     </g>
     <g id="text_7">
      <!-- Июл -->
      <g style="fill: #9f9f9f" transform="translate(131.047131 257.5975) scale(0.08 -0.08)">
       <defs>
        <path id="Ubuntu-418" d="M 550 0 
L 550 4435 
L 1158 4435 
L 1158 1152 
Q 1363 1491 1660 1926 
Q 1958 2362 2294 2813 
Q 2630 3264 2972 3689 
Q 3315 4115 3616 4435 
L 4109 4435 
L 4109 0 
L 3501 0 
L 3501 3462 
Q 3322 3258 3110 2989 
Q 2899 2720 2675 2416 
Q 2451 2112 2224 1785 
Q 1997 1459 1785 1142 
Q 1574 826 1392 531 
Q 1210 237 1069 0 
L 550 0 
z
" transform="scale(0.015625)"/>
        <path id="Ubuntu-44e" d="M 1107 1952 
L 1837 1952 
Q 1875 2285 2006 2553 
Q 2138 2822 2336 3014 
Q 2534 3206 2790 3308 
Q 3046 3411 3341 3411 
Q 3667 3411 3945 3286 
Q 4224 3162 4429 2931 
Q 4634 2701 4749 2377 
Q 4864 2054 4864 1664 
Q 4864 1267 4749 947 
Q 4634 627 4429 396 
Q 4224 166 3945 41 
Q 3667 -83 3341 -83 
Q 3034 -83 2768 29 
Q 2502 141 2304 342 
Q 2106 544 1981 832 
Q 1856 1120 1830 1472 
L 1107 1472 
L 1107 0 
L 512 0 
L 512 3328 
L 1107 3328 
L 1107 1952 
z
M 4250 1664 
Q 4250 2227 4003 2556 
Q 3757 2886 3341 2886 
Q 2925 2886 2678 2556 
Q 2432 2227 2432 1664 
Q 2432 1101 2678 771 
Q 2925 442 3341 442 
Q 3757 442 4003 771 
Q 4250 1101 4250 1664 
z
" transform="scale(0.015625)"/>
        <path id="Ubuntu-43b" d="M 1670 2829 
Q 1670 2618 1660 2378 
Q 1651 2138 1625 1898 
Q 1600 1658 1555 1424 
Q 1510 1190 1440 986 
Q 1370 781 1264 601 
Q 1158 422 1004 284 
Q 851 147 646 54 
Q 442 -38 166 -64 
L 83 435 
Q 397 499 579 672 
Q 762 845 870 1094 
Q 966 1312 1011 1587 
Q 1056 1862 1075 2160 
Q 1094 2458 1097 2758 
Q 1101 3059 1101 3328 
L 3315 3328 
L 3315 0 
L 2720 0 
L 2720 2829 
L 1670 2829 
z
" transform="scale(0.015625)"/>
       </defs>
       <use xlink:href="#Ubuntu-418"/>
       <use xlink:href="#Ubuntu-44e" x="72.799988"/>
       <use xlink:href="#Ubuntu-43b" x="153.899979"/>
      </g>
     </g>
    </g>
    <g id="xtick_8">
     <g id="line2d_8">
      <g>
       <use xlink:href="#m4af755e440" x="190.66876" y="245.89" style="fill: #bbbbbb; stroke: #bbbbbb; stroke-width: 0.75"/>
      </g>
     </g>
     <g id="text_8">
      <!-- Окт -->
      <g style="fill: #9f9f9f" transform="translate(183.556885 257.5975) scale(0.08 -0.08)">
       <defs>
        <path id="Ubuntu-41e" d="M 371 2221 
Q 371 2790 540 3225 
Q 710 3661 1001 3952 
Q 1293 4243 1680 4390 
Q 2067 4538 2502 4538 
Q 2931 4538 3312 4390 
Q 3693 4243 3981 3952 
Q 4269 3661 4438 3225 
Q 4608 2790 4608 2221 
Q 4608 1651 4438 1216 
Q 4269 781 3981 489 
Q 3693 198 3312 51 
Q 2931 -96 2502 -96 
Q 2067 -96 1680 51 
Q 1293 198 1001 489 
Q 710 781 540 1216 
Q 371 1651 371 2221 
z
M 1024 2221 
Q 1024 1818 1126 1488 
Q 1229 1158 1417 928 
Q 1606 698 1878 573 
Q 2150 448 2490 448 
Q 2829 448 3097 573 
Q 3366 698 3555 928 
Q 3744 1158 3846 1488 
Q 3949 1818 3949 2221 
Q 3949 2624 3846 2953 
Q 3744 3283 3555 3513 
Q 3366 3744 3097 3869 
Q 2829 3994 2490 3994 
Q 2150 3994 1878 3869 
Q 1606 3744 1417 3513 
Q 1229 3283 1126 2953 
Q 1024 2624 1024 2221 
z
" transform="scale(0.015625)"/>
        <path id="Ubuntu-43a" d="M 1728 1811 
Q 1926 1670 2156 1456 
Q 2387 1242 2608 992 
Q 2829 742 3021 483 
Q 3213 224 3347 0 
L 2643 0 
Q 2502 218 2313 445 
Q 2125 672 1920 883 
Q 1715 1094 1504 1273 
Q 1293 1453 1107 1574 
L 1107 0 
L 512 0 
L 512 3328 
L 1107 3328 
L 1107 1901 
Q 1261 2048 1459 2243 
Q 1658 2438 1859 2640 
Q 2061 2842 2233 3024 
Q 2406 3206 2515 3328 
L 3206 3328 
Q 3066 3174 2877 2979 
Q 2688 2784 2486 2579 
Q 2285 2374 2086 2172 
Q 1888 1971 1728 1811 
z
" transform="scale(0.015625)"/>
        <path id="Ubuntu-442" d="M 2861 3328 
L 2861 2829 
L 1779 2829 
L 1779 0 
L 1184 0 
L 1184 2829 
L 102 2829 
L 102 3328 
L 2861 3328 
z
" transform="scale(0.015625)"/>
       </defs>
       <use xlink:href="#Ubuntu-41e"/>
       <use xlink:href="#Ubuntu-43a" x="77.799988"/>
       <use xlink:href="#Ubuntu-442" x="131.499985"/>
      </g>
     </g>
    </g>
    <g id="xtick_9">
     <g id="line2d_9">
      <g>
       <use xlink:href="#m4af755e440" x="241.742889" y="245.89" style="fill: #bbbbbb; stroke: #bbbbbb; stroke-width: 0.75"/>
      </g>
     </g>
     <g id="text_9">
      <!-- Янв -->
      <g style="fill: #9f9f9f" transform="translate(234.667264 257.5975) scale(0.08 -0.08)">
       <use xlink:href="#Ubuntu-42f"/>
       <use xlink:href="#Ubuntu-43d" x="63.499985"/>
       <use xlink:href="#Ubuntu-432" x="122.099976"/>
      </g>
     </g>
    </g>
    <g id="xtick_10">
     <g id="line2d_10">
      <g>
       <use xlink:href="#m4af755e440" x="291.706711" y="245.89" style="fill: #bbbbbb; stroke: #bbbbbb; stroke-width: 0.75"/>
      </g>
     </g>
     <g id="text_10">
      <!-- Апр -->
      <g style="fill: #9f9f9f" transform="translate(284.386711 257.5975) scale(0.08 -0.08)">
       <use xlink:href="#Ubuntu-410"/>
       <use xlink:href="#Ubuntu-43f" x="66.299988"/>
       <use xlink:href="#Ubuntu-440" x="124.099976"/>
      </g>
     </g>
    </g>
    <g id="xtick_11">
     <g id="line2d_11">
      <g>
       <use xlink:href="#m4af755e440" x="342.225687" y="245.89" style="fill: #bbbbbb; stroke: #bbbbbb; stroke-width: 0.75"/>
      </g>
     </g>
     <g id="text_11">
      <!-- Июл -->
      <g style="fill: #9f9f9f" transform="translate(333.678187 257.5975) scale(0.08 -0.08)">
       <use xlink:href="#Ubuntu-418"/>
       <use xlink:href="#Ubuntu-44e" x="72.799988"/>
       <use xlink:href="#Ubuntu-43b" x="153.899979"/>
      </g>
     </g>
    </g>
    <g id="xtick_12">
     <g id="line2d_12">
      <g>
       <use xlink:href="#m4af755e440" x="393.299816" y="245.89" style="fill: #bbbbbb; stroke: #bbbbbb; stroke-width: 0.75"/>
      </g>
     </g>
     <g id="text_12">
      <!-- Окт -->
      <g style="fill: #9f9f9f" transform="translate(386.187941 257.5975) scale(0.08 -0.08)">
       <use xlink:href="#Ubuntu-41e"/>
       <use xlink:href="#Ubuntu-43a" x="77.799988"/>
       <use xlink:href="#Ubuntu-442" x="131.499985"/>
      </g>
     </g>
    </g>
    <g id="xtick_13">
     <g id="line2d_13">
      <g>
       <use xlink:href="#m4af755e440" x="444.373945" y="245.89" style="fill: #bbbbbb; stroke: #bbbbbb; stroke-width: 0.75"/>
      </g>
     </g>
     <g id="text_13">
      <!-- Янв -->
      <g style="fill: #9f9f9f" transform="translate(437.29832 257.5975) scale(0.08 -0.08)">
       <use xlink:href="#Ubuntu-42f"/>
       <use xlink:href="#Ubuntu-43d" x="63.499985"/>
       <use xlink:href="#Ubuntu-432" x="122.099976"/>
      </g>
     </g>
    </g>
    <g id="xtick_14">
     <g id="line2d_14">
      <g>
       <use xlink:href="#m4af755e440" x="494.337767" y="245.89" style="fill: #bbbbbb; stroke: #bbbbbb; stroke-width: 0.75"/>
      </g>
     </g>
     <g id="text_14">
      <!-- Апр -->
      <g style="fill: #9f9f9f" transform="translate(487.017767 257.5975) scale(0.08 -0.08)">
       <use xlink:href="#Ubuntu-410"/>
       <use xlink:href="#Ubuntu-43f" x="66.299988"/>
       <use xlink:href="#Ubuntu-440" x="124.099976"/>
      </g>
     </g>
    </g>
    <g id="xtick_15">
     <g id="line2d_15">
      <g>
       <use xlink:href="#m4af755e440" x="544.856742" y="245.89" style="fill: #bbbbbb; stroke: #bbbbbb; stroke-width: 0.75"/>
      </g>
     </g>
     <g id="text_15">
      <!-- Июл -->
      <g style="fill: #9f9f9f" transform="translate(536.309242 257.5975) scale(0.08 -0.08)">
       <use xlink:href="#Ubuntu-418"/>
       <use xlink:href="#Ubuntu-44e" x="72.799988"/>
       <use xlink:href="#Ubuntu-43b" x="153.899979"/>
      </g>
     </g>
    </g>
    <g id="xtick_16">
     <g id="line2d_16">
      <g>
       <use xlink:href="#m4af755e440" x="595.930871" y="245.89" style="fill: #bbbbbb; stroke: #bbbbbb; stroke-width: 0.75"/>
      </g>
     </g>
     <g id="text_16">
      <!-- Окт -->
      <g style="fill: #9f9f9f" transform="translate(588.818996 257.5975) scale(0.08 -0.08)">
       <use xlink:href="#Ubuntu-41e"/>
       <use xlink:href="#Ubuntu-43a" x="77.799988"/>
       <use xlink:href="#Ubuntu-442" x="131.499985"/>
      </g>
     </g>
    </g>
    <g id="xtick_17">
     <g id="line2d_17">
      <g>
       <use xlink:href="#m4af755e440" x="647.005" y="245.89" style="fill: #bbbbbb; stroke: #bbbbbb; stroke-width: 0.75"/>
      </g>
     </g>
     <g id="text_17">
      <!-- Янв -->
      <g style="fill: #9f9f9f" transform="translate(639.929375 257.5975) scale(0.08 -0.08)">
       <use xlink:href="#Ubuntu-42f"/>
       <use xlink:href="#Ubuntu-43d" x="63.499985"/>
       <use xlink:href="#Ubuntu-432" x="122.099976"/>
      </g>
     </g>
    </g>
   </g>
   <g id="matplotlib.axis_4">
    <g id="ytick_1">
     <g id="line2d_18">
      <defs>
       <path id="m921d334e84" d="M 0 0 
L -2 0 
" style="stroke: #bbbbbb; stroke-width: 0.75"/>
      </defs>
      <g>
       <use xlink:href="#m921d334e84" x="28.205" y="235.89" style="fill: #bbbbbb; stroke: #bbbbbb; stroke-width: 0.75"/>
      </g>
     </g>
     <g id="text_18">
      <!-- 0.95 -->
      <g style="fill: #9f9f9f" transform="translate(7.2 238.99375) scale(0.08 -0.08)">
       <defs>
        <path id="Ubuntu-2e" d="M 1216 346 
Q 1216 173 1101 45 
Q 986 -83 787 -83 
Q 589 -83 473 45 
Q 358 173 358 346 
Q 358 518 473 646 
Q 589 774 787 774 
Q 986 774 1101 646 
Q 1216 518 1216 346 
z
" transform="scale(0.015625)"/>
        <path id="Ubuntu-39" d="M 3206 2662 
Q 3206 1344 2550 669 
Q 1894 -6 602 -13 
L 582 486 
Q 986 486 1309 563 
Q 1632 640 1875 809 
Q 2118 979 2281 1248 
Q 2445 1517 2522 1907 
Q 2355 1830 2144 1782 
Q 1933 1734 1709 1734 
Q 1331 1734 1068 1846 
Q 806 1958 640 2147 
Q 474 2336 400 2582 
Q 326 2829 326 3098 
Q 326 3334 409 3590 
Q 493 3846 662 4057 
Q 832 4269 1094 4403 
Q 1357 4538 1715 4538 
Q 2080 4538 2358 4410 
Q 2637 4282 2825 4038 
Q 3014 3795 3110 3446 
Q 3206 3098 3206 2662 
z
M 1773 2221 
Q 1997 2221 2195 2262 
Q 2394 2304 2579 2387 
Q 2586 2458 2586 2525 
Q 2586 2592 2586 2662 
Q 2586 2938 2547 3190 
Q 2509 3443 2409 3632 
Q 2310 3821 2144 3933 
Q 1978 4045 1722 4045 
Q 1510 4045 1363 3955 
Q 1216 3866 1120 3728 
Q 1024 3590 982 3427 
Q 941 3264 941 3110 
Q 941 2675 1149 2448 
Q 1357 2221 1773 2221 
z
" transform="scale(0.015625)"/>
        <path id="Ubuntu-35" d="M 1274 2726 
Q 2240 2688 2691 2304 
Q 3142 1920 3142 1261 
Q 3142 966 3043 716 
Q 2944 467 2742 288 
Q 2541 109 2233 6 
Q 1926 -96 1504 -96 
Q 1338 -96 1165 -70 
Q 992 -45 845 -6 
Q 698 32 582 70 
Q 467 109 416 134 
L 531 653 
Q 640 602 886 518 
Q 1133 435 1491 435 
Q 1779 435 1974 499 
Q 2170 563 2291 672 
Q 2413 781 2467 925 
Q 2522 1069 2522 1229 
Q 2522 1472 2438 1661 
Q 2355 1850 2144 1978 
Q 1933 2106 1581 2173 
Q 1229 2240 691 2240 
Q 730 2554 752 2829 
Q 774 3104 793 3366 
Q 813 3629 825 3888 
Q 838 4147 851 4435 
L 2989 4435 
L 2989 3930 
L 1370 3930 
Q 1363 3834 1350 3670 
Q 1338 3507 1325 3331 
Q 1312 3155 1299 2988 
Q 1286 2822 1274 2726 
z
" transform="scale(0.015625)"/>
       </defs>
       <use xlink:href="#Ubuntu-30"/>
       <use xlink:href="#Ubuntu-2e" x="56.399994"/>
       <use xlink:href="#Ubuntu-39" x="80.999985"/>
       <use xlink:href="#Ubuntu-35" x="137.399979"/>
      </g>
     </g>
    </g>
    <g id="ytick_2">
     <g id="line2d_19">
      <g>
       <use xlink:href="#m921d334e84" x="28.205" y="211.635" style="fill: #bbbbbb; stroke: #bbbbbb; stroke-width: 0.75"/>
      </g>
     </g>
     <g id="text_19">
      <!-- 1.00 -->
      <g style="fill: #9f9f9f" transform="translate(7.2 214.73875) scale(0.08 -0.08)">
       <use xlink:href="#Ubuntu-31"/>
       <use xlink:href="#Ubuntu-2e" x="56.399994"/>
       <use xlink:href="#Ubuntu-30" x="80.999985"/>
       <use xlink:href="#Ubuntu-30" x="137.399979"/>
      </g>
     </g>
    </g>
    <g id="ytick_3">
     <g id="line2d_20">
      <g>
       <use xlink:href="#m921d334e84" x="28.205" y="187.38" style="fill: #bbbbbb; stroke: #bbbbbb; stroke-width: 0.75"/>
      </g>
     </g>
     <g id="text_20">
      <!-- 1.05 -->
      <g style="fill: #9f9f9f" transform="translate(7.2 190.48375) scale(0.08 -0.08)">
       <use xlink:href="#Ubuntu-31"/>
       <use xlink:href="#Ubuntu-2e" x="56.399994"/>
       <use xlink:href="#Ubuntu-30" x="80.999985"/>
       <use xlink:href="#Ubuntu-35" x="137.399979"/>
      </g>
     </g>
    </g>
    <g id="ytick_4">
     <g id="line2d_21">
      <g>
       <use xlink:href="#m921d334e84" x="28.205" y="163.125" style="fill: #bbbbbb; stroke: #bbbbbb; stroke-width: 0.75"/>
      </g>
     </g>
     <g id="text_21">
      <!-- 1.10 -->
      <g style="fill: #9f9f9f" transform="translate(7.2 166.22875) scale(0.08 -0.08)">
       <use xlink:href="#Ubuntu-31"/>
       <use xlink:href="#Ubuntu-2e" x="56.399994"/>
       <use xlink:href="#Ubuntu-31" x="80.999985"/>
       <use xlink:href="#Ubuntu-30" x="137.399979"/>
      </g>
     </g>
    </g>
    <g id="ytick_5">
     <g id="line2d_22">
      <g>
       <use xlink:href="#m921d334e84" x="28.205" y="138.87" style="fill: #bbbbbb; stroke: #bbbbbb; stroke-width: 0.75"/>
      </g>
     </g>
     <g id="text_22">
      <!-- 1.15 -->
      <g style="fill: #9f9f9f" transform="translate(7.2 141.97375) scale(0.08 -0.08)">
       <use xlink:href="#Ubuntu-31"/>
       <use xlink:href="#Ubuntu-2e" x="56.399994"/>
       <use xlink:href="#Ubuntu-31" x="80.999985"/>
       <use xlink:href="#Ubuntu-35" x="137.399979"/>
      </g>
     </g>
    </g>
    <g id="ytick_6">
     <g id="line2d_23">
      <g>
       <use xlink:href="#m921d334e84" x="28.205" y="114.615" style="fill: #bbbbbb; stroke: #bbbbbb; stroke-width: 0.75"/>
      </g>
     </g>
     <g id="text_23">
      <!-- 1.20 -->
      <g style="fill: #9f9f9f" transform="translate(7.2 117.71875) scale(0.08 -0.08)">
       <use xlink:href="#Ubuntu-31"/>
       <use xlink:href="#Ubuntu-2e" x="56.399994"/>
       <use xlink:href="#Ubuntu-32" x="80.999985"/>
       <use xlink:href="#Ubuntu-30" x="137.399979"/>
      </g>
     </g>
    </g>
    <g id="ytick_7">
     <g id="line2d_24">
      <g>
       <use xlink:href="#m921d334e84" x="28.205" y="90.36" style="fill: #bbbbbb; stroke: #bbbbbb; stroke-width: 0.75"/>
      </g>
     </g>
     <g id="text_24">
      <!-- 1.25 -->
      <g style="fill: #9f9f9f" transform="translate(7.2 93.46375) scale(0.08 -0.08)">
       <use xlink:href="#Ubuntu-31"/>
       <use xlink:href="#Ubuntu-2e" x="56.399994"/>
       <use xlink:href="#Ubuntu-32" x="80.999985"/>
       <use xlink:href="#Ubuntu-35" x="137.399979"/>
      </g>
     </g>
    </g>
    <g id="ytick_8">
     <g id="line2d_25">
      <g>
       <use xlink:href="#m921d334e84" x="28.205" y="66.105" style="fill: #bbbbbb; stroke: #bbbbbb; stroke-width: 0.75"/>
      </g>
     </g>
     <g id="text_25">
      <!-- 1.30 -->
      <g style="fill: #9f9f9f" transform="translate(7.2 69.20875) scale(0.08 -0.08)">
       <use xlink:href="#Ubuntu-31"/>
       <use xlink:href="#Ubuntu-2e" x="56.399994"/>
       <use xlink:href="#Ubuntu-33" x="80.999985"/>
       <use xlink:href="#Ubuntu-30" x="137.399979"/>
      </g>
     </g>
    </g>
    <g id="ytick_9">
     <g id="line2d_26">
      <g>
       <use xlink:href="#m921d334e84" x="28.205" y="41.85" style="fill: #bbbbbb; stroke: #bbbbbb; stroke-width: 0.75"/>
      </g>
     </g>
     <g id="text_26">
      <!-- 1.35 -->
      <g style="fill: #9f9f9f" transform="translate(7.2 44.95375) scale(0.08 -0.08)">
       <use xlink:href="#Ubuntu-31"/>
       <use xlink:href="#Ubuntu-2e" x="56.399994"/>
       <use xlink:href="#Ubuntu-33" x="80.999985"/>
       <use xlink:href="#Ubuntu-35" x="137.399979"/>
      </g>
     </g>
    </g>
   </g>
   <g id="line2d_27">
    <path d="M 39.111834 211.635 
L 47.013953 210.697763 
L 54.916072 209.998997 
L 60.842662 209.701163 
L 66.769251 209.651596 
L 72.69584 209.899205 
L 76.6469 210.25322 
L 80.597959 210.773513 
L 84.549019 211.472454 
L 88.500079 212.362414 
L 92.451138 213.450117 
L 100.353257 215.962848 
L 106.279847 217.778478 
L 110.230906 218.799465 
L 116.157496 220.063047 
L 124.059615 221.470203 
L 131.961734 222.704711 
L 135.912793 223.150176 
L 139.863853 223.402365 
L 143.814913 223.412 
L 147.765972 223.187593 
L 151.717032 222.758788 
L 155.668091 222.155262 
L 159.619151 221.400618 
L 163.57021 220.427601 
L 167.52127 219.09901 
L 169.4968 218.257937 
L 171.47233 217.275845 
L 173.447859 216.13536 
L 175.423389 214.821074 
L 177.398919 213.341265 
L 181.349978 209.981157 
L 185.301038 206.248596 
L 199.129746 192.774646 
L 205.056336 187.35913 
L 212.958455 180.511987 
L 220.860574 173.686145 
L 224.811634 170.066712 
L 228.762693 166.212816 
L 232.713753 162.128265 
L 238.640342 155.614863 
L 244.566931 148.71339 
L 250.493521 141.81017 
L 254.44458 137.548308 
L 258.39564 133.80285 
L 260.37117 132.181934 
L 264.322229 129.390507 
L 268.273289 127.028369 
L 288.028587 116.235403 
L 291.979646 114.366729 
L 295.930706 112.828611 
L 299.881765 111.607192 
L 303.832825 110.654453 
L 307.783885 109.922367 
L 311.734944 109.366707 
L 315.686004 108.988947 
L 319.637063 108.820812 
L 323.588123 108.894565 
L 327.539182 109.240246 
L 339.392361 110.75093 
L 341.367891 110.813129 
L 343.343421 110.754569 
L 345.31895 110.564628 
L 349.27001 109.869527 
L 355.196599 108.375651 
L 361.123189 106.876814 
L 371.000838 104.652233 
L 374.951897 103.389594 
L 376.927427 102.588831 
L 380.878486 100.630104 
L 390.756135 95.203787 
L 392.731665 94.306188 
L 394.707195 93.54976 
L 398.658255 92.404008 
L 406.560374 90.542872 
L 408.535903 89.949705 
L 410.511433 89.230802 
L 414.462493 87.382175 
L 424.340142 82.21128 
L 426.315671 81.421837 
L 428.291201 80.811253 
L 430.266731 80.386565 
L 432.242261 80.122288 
L 436.19332 79.96775 
L 440.14438 80.133195 
L 448.046499 80.61299 
L 457.924148 81.15405 
L 461.875208 81.583761 
L 465.826267 82.281618 
L 467.801797 82.783224 
L 469.777327 83.415999 
L 471.752857 84.201978 
L 473.728386 85.163201 
L 475.703916 86.321704 
L 477.679446 87.699524 
L 479.654976 89.315739 
L 481.630505 91.172698 
L 483.606035 93.26688 
L 485.581565 95.594757 
L 487.557095 98.152803 
L 489.532625 100.937492 
L 491.508154 103.945295 
L 493.483684 107.172687 
L 497.434744 114.25475 
L 501.385803 121.939536 
L 509.287922 137.632743 
L 513.238982 144.900095 
L 517.190042 151.455424 
L 521.141101 157.310478 
L 525.092161 162.491357 
L 529.04322 167.024142 
L 531.01875 169.05303 
L 532.99428 170.919556 
L 534.96981 172.618925 
L 536.945339 174.14634 
L 538.920869 175.497003 
L 540.896399 176.66612 
L 542.871929 177.648892 
L 544.847458 178.440524 
L 546.822988 179.037865 
L 548.798518 179.453934 
L 550.774048 179.710929 
L 552.749578 179.831153 
L 556.700637 179.750498 
L 560.651697 179.390392 
L 566.578286 178.622213 
L 570.529346 177.769555 
L 572.504875 177.143156 
L 574.480405 176.339396 
L 576.455935 175.32529 
L 578.431465 174.067851 
L 580.406995 172.536537 
L 582.382524 170.733514 
L 584.358054 168.684302 
L 586.333584 166.414924 
L 590.284643 161.319758 
L 594.235703 155.656202 
L 600.162292 146.553458 
L 606.088882 137.379378 
L 610.039941 131.596288 
L 613.991001 126.34048 
L 615.966531 123.980195 
L 617.94206 121.835594 
L 619.91759 119.934633 
L 621.89312 118.305268 
L 623.86865 116.975452 
L 625.84418 115.97314 
L 627.819709 115.326288 
L 629.795239 115.06285 
L 629.795239 115.06285 
" clip-path="url(#pd7e246e0d0)" style="fill: none; stroke-dasharray: 5.55,2.4; stroke-dashoffset: 0; stroke: #5d5d5d; stroke-width: 1.5"/>
   </g>
   <g id="line2d_28">
    <path d="M 39.111834 211.635 
L 43.062894 212.134575 
L 47.013953 212.244137 
L 50.965013 212.044322 
L 54.916072 211.615762 
L 60.842662 210.720416 
L 68.744781 209.478606 
L 72.69584 209.01855 
L 76.6469 208.74973 
L 82.573489 208.586574 
L 90.475608 208.39606 
L 96.402198 207.97593 
L 100.353257 207.515523 
L 104.304317 206.895672 
L 108.255376 206.104931 
L 120.108555 203.441426 
L 124.059615 202.850711 
L 128.010674 202.544599 
L 141.839383 201.960563 
L 145.790442 201.449231 
L 151.717032 200.360744 
L 159.619151 198.576486 
L 165.54574 197.036988 
L 169.4968 195.802277 
L 173.447859 194.318411 
L 177.398919 192.53251 
L 183.325508 189.449798 
L 191.227627 185.199349 
L 201.105276 180.144001 
L 205.056336 177.760352 
L 207.031866 176.400083 
L 210.982925 173.278177 
L 218.885044 166.642133 
L 220.860574 165.212502 
L 222.836104 163.981428 
L 224.811634 163.00231 
L 226.787163 162.308227 
L 228.762693 161.857624 
L 230.738223 161.591824 
L 234.689283 161.379925 
L 238.640342 161.203113 
L 240.615872 160.981171 
L 242.591402 160.592895 
L 244.566931 160.003304 
L 246.542461 159.201057 
L 248.517991 158.17591 
L 250.493521 156.917619 
L 252.469051 155.415941 
L 254.44458 153.66063 
L 256.42011 151.641444 
L 258.39564 149.348139 
L 260.37117 146.778635 
L 264.322229 140.969334 
L 268.273289 134.587658 
L 276.175408 121.649347 
L 280.126468 115.792501 
L 284.077527 110.605245 
L 286.053057 108.304956 
L 288.028587 106.222757 
L 290.004116 104.375545 
L 291.979646 102.780217 
L 293.955176 101.448467 
L 295.930706 100.359876 
L 297.906236 99.481786 
L 299.881765 98.781514 
L 303.832825 97.783701 
L 309.759414 96.803807 
L 317.661533 95.672131 
L 321.612593 95.297516 
L 325.563653 95.166975 
L 329.514712 95.341731 
L 335.441301 95.969877 
L 341.367891 96.62039 
L 345.31895 96.844134 
L 351.24554 96.85864 
L 359.147659 96.803511 
L 365.074248 97.072525 
L 374.951897 97.679327 
L 378.902957 97.723972 
L 384.829546 97.509751 
L 400.633784 96.683664 
L 412.486963 96.211489 
L 416.438023 95.886454 
L 420.389082 95.30272 
L 424.340142 94.330445 
L 426.315671 93.658027 
L 428.291201 92.84101 
L 432.242261 90.844294 
L 440.14438 86.453127 
L 442.11991 85.493572 
L 444.09544 84.665116 
L 446.070969 83.996722 
L 448.046499 83.478395 
L 451.997559 82.80951 
L 455.948618 82.493606 
L 463.850737 82.272959 
L 475.703916 82.076726 
L 481.630505 82.191883 
L 485.581565 82.419868 
L 489.532625 82.813145 
L 493.483684 83.409849 
L 497.434744 84.241609 
L 503.361333 85.821809 
L 513.238982 88.589819 
L 519.165571 89.971327 
L 529.04322 91.9828 
L 536.945339 93.488383 
L 542.871929 94.350745 
L 546.822988 94.692052 
L 550.774048 94.829461 
L 556.700637 94.793325 
L 574.480405 94.324426 
L 578.431465 93.886392 
L 582.382524 93.150222 
L 586.333584 92.145018 
L 592.260173 90.295801 
L 608.064412 84.82771 
L 619.91759 80.827077 
L 629.795239 77.734898 
L 629.795239 77.734898 
" clip-path="url(#pd7e246e0d0)" style="fill: none; stroke: #5d5d5d; stroke-opacity: 0.95; stroke-width: 1.25; stroke-linecap: square"/>
   </g>
   <g id="line2d_29">
    <path d="M 39.111834 211.635 
L 43.062894 211.383224 
L 48.989483 210.738559 
L 56.891602 209.546539 
L 72.69584 206.970816 
L 80.597959 205.994566 
L 88.500079 205.013067 
L 94.426668 204.0761 
L 106.279847 202.109894 
L 112.206436 201.42564 
L 120.108555 200.826454 
L 135.912793 199.784828 
L 141.839383 199.048196 
L 147.765972 197.969691 
L 153.692561 196.60762 
L 161.594681 194.476599 
L 171.47233 191.516024 
L 179.374449 189.018405 
L 183.325508 187.579965 
L 187.276568 185.854893 
L 191.227627 183.721291 
L 195.178687 181.098915 
L 199.129746 178.047982 
L 203.080806 174.65828 
L 209.007395 169.13489 
L 226.787163 151.970088 
L 232.713753 146.820382 
L 236.664812 143.645076 
L 240.615872 140.691243 
L 248.517991 135.125853 
L 250.493521 133.563482 
L 252.469051 131.830032 
L 254.44458 129.874107 
L 256.42011 127.644311 
L 258.39564 125.08925 
L 260.37117 122.173167 
L 262.3467 118.93458 
L 266.297759 111.732087 
L 278.150938 88.667861 
L 282.101997 81.9335 
L 284.077527 78.911992 
L 286.053057 76.161266 
L 288.028587 73.711573 
L 290.004116 71.593164 
L 291.979646 69.83629 
L 293.955176 68.462132 
L 295.930706 67.435894 
L 297.906236 66.70145 
L 299.881765 66.202631 
L 301.857295 65.883266 
L 305.808355 65.558228 
L 309.759414 65.277392 
L 313.710474 64.753995 
L 321.612593 63.5297 
L 325.563653 63.19886 
L 329.514712 63.265065 
L 333.465772 63.66597 
L 339.392361 64.597158 
L 345.31895 65.521447 
L 351.24554 66.199064 
L 357.172129 66.661346 
L 363.098718 66.94872 
L 367.049778 66.998467 
L 371.000838 66.856061 
L 374.951897 66.452245 
L 378.902957 65.727613 
L 388.780606 63.509868 
L 390.756135 63.242368 
L 392.731665 63.105726 
L 394.707195 63.128563 
L 396.682725 63.304914 
L 400.633784 63.987118 
L 408.535903 65.737863 
L 412.486963 66.283283 
L 416.438023 66.453071 
L 420.389082 66.350693 
L 428.291201 65.769447 
L 434.217791 65.396879 
L 438.16885 65.3146 
L 442.11991 65.440926 
L 446.070969 65.836553 
L 451.997559 66.807337 
L 457.924148 67.77253 
L 461.875208 68.153686 
L 465.826267 68.228394 
L 471.752857 68.015186 
L 477.679446 67.81384 
L 481.630505 67.887771 
L 485.581565 68.154557 
L 489.532625 68.591755 
L 495.459214 69.517895 
L 505.336863 71.312163 
L 509.287922 71.812215 
L 513.238982 72.023642 
L 517.190042 71.965397 
L 523.116631 71.779234 
L 527.06769 71.874306 
L 531.01875 72.356415 
L 534.96981 73.185786 
L 542.871929 75.098765 
L 546.822988 75.78578 
L 550.774048 76.144125 
L 554.725107 76.256175 
L 562.627227 76.123096 
L 568.553816 75.937152 
L 572.504875 75.623388 
L 576.455935 75.006786 
L 578.431465 74.544474 
L 580.406995 73.959197 
L 584.358054 72.440882 
L 588.309114 70.556305 
L 592.260173 68.423213 
L 602.137822 62.700051 
L 612.015471 56.78576 
L 621.89312 50.601103 
L 629.795239 45.393289 
L 629.795239 45.393289 
" clip-path="url(#pd7e246e0d0)" style="fill: none; stroke: #af5a51; stroke-opacity: 0.95; stroke-width: 1.25; stroke-linecap: square"/>
   </g>
   <g id="line2d_30">
    <path d="M 39.111834 211.635 
L 45.038423 210.34852 
L 62.818191 206.222344 
L 68.744781 205.209517 
L 72.69584 204.752062 
L 76.6469 204.496391 
L 92.451138 203.917944 
L 100.353257 203.117741 
L 106.279847 202.540505 
L 112.206436 202.197579 
L 120.108555 202.016708 
L 131.961734 201.800588 
L 137.888323 201.493645 
L 143.814913 200.928448 
L 149.741502 200.102431 
L 157.643621 198.717419 
L 167.52127 196.737337 
L 179.374449 194.179297 
L 183.325508 193.168241 
L 187.276568 191.932888 
L 191.227627 190.378018 
L 195.178687 188.467017 
L 205.056336 183.278941 
L 209.007395 181.569093 
L 218.885044 177.956814 
L 220.860574 176.999843 
L 222.836104 175.858891 
L 224.811634 174.48861 
L 226.787163 172.864106 
L 230.738223 169.070426 
L 236.664812 163.029562 
L 238.640342 161.192205 
L 240.615872 159.55535 
L 242.591402 158.18337 
L 244.566931 157.065547 
L 248.517991 155.234106 
L 252.469051 153.326399 
L 254.44458 152.113243 
L 256.42011 150.604176 
L 258.39564 148.706918 
L 260.37117 146.354194 
L 262.3467 143.597495 
L 264.322229 140.523538 
L 268.273289 133.770731 
L 274.199878 123.430112 
L 276.175408 120.272509 
L 278.150938 117.354087 
L 282.101997 112.129899 
L 286.053057 107.526881 
L 290.004116 103.31019 
L 297.906236 95.288431 
L 301.857295 91.573032 
L 305.808355 88.264305 
L 307.783885 86.812548 
L 309.759414 85.522464 
L 311.734944 84.405589 
L 313.710474 83.459789 
L 315.686004 82.681666 
L 317.661533 82.067826 
L 319.637063 81.614873 
L 321.612593 81.319412 
L 323.588123 81.178046 
L 325.563653 81.187381 
L 327.539182 81.341477 
L 331.490242 81.967707 
L 339.392361 83.46711 
L 341.367891 83.67971 
L 343.343421 83.754275 
L 345.31895 83.674158 
L 349.27001 83.151989 
L 355.196599 81.903572 
L 359.147659 81.103157 
L 363.098718 80.575994 
L 367.049778 80.364197 
L 371.000838 80.443751 
L 374.951897 80.790476 
L 378.902957 81.376909 
L 392.731665 83.82263 
L 396.682725 84.116479 
L 400.633784 84.13594 
L 404.584844 83.938739 
L 410.511433 83.363514 
L 416.438023 82.578537 
L 422.364612 81.548372 
L 426.315671 80.686574 
L 432.242261 79.097263 
L 440.14438 76.620562 
L 450.022029 73.509665 
L 453.973088 72.426582 
L 457.924148 71.516212 
L 461.875208 70.832201 
L 465.826267 70.398328 
L 469.777327 70.174341 
L 475.703916 70.125739 
L 495.459214 70.429486 
L 511.263452 69.827423 
L 515.214512 70.089549 
L 519.165571 70.581774 
L 525.092161 71.607245 
L 538.920869 74.40883 
L 554.725107 77.788941 
L 558.676167 78.309366 
L 562.627227 78.470778 
L 566.578286 78.215005 
L 570.529346 77.673189 
L 578.431465 76.402234 
L 582.382524 75.981581 
L 594.235703 75.040172 
L 598.186763 74.399872 
L 602.137822 73.467075 
L 606.088882 72.272341 
L 610.039941 70.84885 
L 613.991001 69.229781 
L 619.91759 66.507054 
L 625.84418 63.530918 
L 629.795239 61.461344 
L 629.795239 61.461344 
" clip-path="url(#pd7e246e0d0)" style="fill: none; stroke: #608eb4; stroke-width: 1.25; stroke-linecap: square"/>
   </g>
   <g id="line2d_31">
    <path d="M 39.111834 211.635 
L 43.062894 211.536213 
L 47.013953 211.216019 
L 52.940543 210.472548 
L 62.818191 209.110521 
L 66.769251 208.725306 
L 70.720311 208.535491 
L 74.67137 208.606969 
L 80.597959 209.091244 
L 86.524549 209.57375 
L 90.475608 209.636368 
L 94.426668 209.380123 
L 98.377728 208.879184 
L 106.279847 207.530554 
L 116.157496 205.933977 
L 139.863853 202.479889 
L 149.741502 201.083756 
L 153.692561 200.376447 
L 157.643621 199.494652 
L 161.594681 198.390736 
L 165.54574 197.05267 
L 169.4968 195.475007 
L 173.447859 193.6523 
L 177.398919 191.586248 
L 183.325508 188.146295 
L 207.031866 173.629539 
L 216.909515 167.473082 
L 220.860574 165.379219 
L 222.836104 164.493968 
L 224.811634 163.744071 
L 226.787163 163.139868 
L 230.738223 162.249454 
L 238.640342 160.724147 
L 240.615872 160.184295 
L 242.591402 159.508831 
L 244.566931 158.67178 
L 246.542461 157.657465 
L 248.517991 156.450688 
L 250.493521 155.036249 
L 252.469051 153.39895 
L 254.44458 151.523593 
L 256.42011 149.394978 
L 258.39564 146.997908 
L 260.37117 144.326068 
L 264.322229 138.314108 
L 268.273289 131.733745 
L 276.175408 118.41605 
L 280.126468 112.363168 
L 284.077527 106.912534 
L 288.028587 102.136304 
L 290.004116 100.023639 
L 291.979646 98.106634 
L 293.955176 96.391936 
L 295.930706 94.871554 
L 297.906236 93.531918 
L 299.881765 92.359447 
L 301.857295 91.340561 
L 303.832825 90.461678 
L 307.783885 89.069598 
L 311.734944 88.080125 
L 315.686004 87.457145 
L 319.637063 87.208864 
L 323.588123 87.344275 
L 327.539182 87.871002 
L 331.490242 88.738536 
L 337.416831 90.395103 
L 343.343421 92.074633 
L 347.29448 93.011904 
L 351.24554 93.763348 
L 355.196599 94.320268 
L 359.147659 94.673969 
L 363.098718 94.826784 
L 376.927427 95.0267 
L 382.854016 95.561992 
L 388.780606 96.110701 
L 392.731665 96.255076 
L 396.682725 96.088423 
L 402.609314 95.46548 
L 408.535903 94.908129 
L 412.486963 94.85071 
L 416.438023 95.07792 
L 428.291201 96.050081 
L 432.242261 96.058743 
L 438.16885 95.794374 
L 459.899678 94.374634 
L 465.826267 93.553222 
L 471.752857 92.765117 
L 475.703916 92.531538 
L 477.679446 92.563901 
L 481.630505 92.981501 
L 485.581565 93.745965 
L 495.459214 95.993319 
L 501.385803 96.911542 
L 509.287922 98.079193 
L 513.238982 98.924985 
L 519.165571 100.573557 
L 525.092161 102.241173 
L 529.04322 103.11083 
L 532.99428 103.676983 
L 538.920869 104.182438 
L 544.847458 104.664111 
L 548.798518 105.16402 
L 562.627227 107.19244 
L 566.578286 107.465718 
L 570.529346 107.520318 
L 574.480405 107.356842 
L 578.431465 106.975888 
L 582.382524 106.383711 
L 588.309114 105.205785 
L 612.015471 99.896688 
L 617.94206 98.236508 
L 621.89312 96.913348 
L 625.84418 95.367767 
L 629.795239 93.557488 
L 629.795239 93.557488 
" clip-path="url(#pd7e246e0d0)" style="fill: none; stroke: #489079; stroke-opacity: 0.75; stroke-width: 1.25; stroke-linecap: square"/>
   </g>
   <g id="line2d_32">
    <path d="M 39.111834 211.635 
L 43.062894 210.196449 
L 47.013953 209.168871 
L 50.965013 208.462521 
L 54.916072 207.987659 
L 62.818191 207.373427 
L 68.744781 206.852947 
L 72.69584 206.309215 
L 76.6469 205.531876 
L 82.573489 204.088881 
L 88.500079 202.62907 
L 92.451138 201.813902 
L 98.377728 200.865965 
L 106.279847 199.894249 
L 155.668091 194.241876 
L 159.619151 193.486725 
L 163.57021 192.518029 
L 167.52127 191.34668 
L 171.47233 189.984399 
L 175.423389 188.443271 
L 181.349978 185.883508 
L 191.227627 181.557961 
L 197.154217 179.257626 
L 214.933985 172.865685 
L 218.885044 171.603972 
L 222.836104 170.594793 
L 226.787163 169.94194 
L 230.738223 169.633378 
L 236.664812 169.544236 
L 242.591402 169.518579 
L 246.542461 169.259108 
L 248.517991 168.94576 
L 250.493521 168.454725 
L 252.469051 167.744542 
L 254.44458 166.77375 
L 256.42011 165.50089 
L 258.39564 163.884502 
L 260.37117 161.894677 
L 262.3467 159.556372 
L 264.322229 156.910815 
L 266.297759 153.999237 
L 270.248819 147.542944 
L 274.199878 140.51734 
L 284.077527 122.520261 
L 288.028587 115.877422 
L 290.004116 112.809955 
L 291.979646 109.95672 
L 293.955176 107.346888 
L 295.930706 104.981711 
L 297.906236 102.851797 
L 299.881765 100.947735 
L 301.857295 99.260115 
L 303.832825 97.779523 
L 305.808355 96.49655 
L 307.783885 95.401783 
L 309.759414 94.485769 
L 311.734944 93.736154 
L 313.710474 93.135852 
L 315.686004 92.667343 
L 319.637063 92.055615 
L 323.588123 91.7608 
L 329.514712 91.618474 
L 349.27001 91.481284 
L 353.22107 91.205158 
L 357.172129 90.715667 
L 361.123189 89.95361 
L 367.049778 88.423985 
L 371.000838 87.416502 
L 374.951897 86.644422 
L 376.927427 86.407057 
L 380.878486 86.262841 
L 392.731665 86.448802 
L 396.682725 85.971707 
L 400.633784 85.172979 
L 408.535903 83.459419 
L 412.486963 82.96049 
L 416.438023 82.781546 
L 426.315671 82.654437 
L 430.266731 82.296491 
L 434.217791 81.592333 
L 438.16885 80.487902 
L 440.14438 79.768777 
L 442.11991 78.929415 
L 444.09544 77.963093 
L 448.046499 75.697234 
L 453.973088 72.187409 
L 455.948618 71.194509 
L 457.924148 70.376234 
L 459.899678 69.784248 
L 461.875208 69.468739 
L 463.850737 69.431247 
L 465.826267 69.614674 
L 469.777327 70.401936 
L 473.728386 71.345826 
L 475.703916 71.725039 
L 477.679446 71.961646 
L 479.654976 72.007277 
L 481.630505 71.88259 
L 485.581565 71.301806 
L 491.508154 70.275672 
L 493.483684 70.071926 
L 495.459214 70.011682 
L 497.434744 70.111973 
L 501.385803 70.693338 
L 505.336863 71.597184 
L 511.263452 73.071375 
L 515.214512 73.839832 
L 519.165571 74.381476 
L 523.116631 74.728021 
L 529.04322 74.951523 
L 540.896399 75.066192 
L 544.847458 75.350738 
L 548.798518 75.89538 
L 560.651697 77.84264 
L 564.602756 78.060014 
L 568.553816 77.951392 
L 574.480405 77.425627 
L 582.382524 76.646622 
L 588.309114 76.271097 
L 596.211233 75.988443 
L 612.015471 75.550569 
L 617.94206 75.130728 
L 621.89312 74.691293 
L 625.84418 74.08887 
L 629.795239 73.293154 
L 629.795239 73.293154 
" clip-path="url(#pd7e246e0d0)" style="fill: none; stroke: #eea92b; stroke-opacity: 0.95; stroke-width: 1.25; stroke-linecap: square"/>
   </g>
   <g id="line2d_33">
    <path d="M 39.111834 211.635 
L 48.989483 210.49667 
L 56.891602 209.775488 
L 64.793721 209.269221 
L 72.69584 209.020781 
L 82.573489 209.032742 
L 90.475608 208.997547 
L 112.206436 208.537512 
L 118.133025 208.433927 
L 122.084085 208.122343 
L 126.035144 207.503306 
L 131.961734 206.167206 
L 137.888323 204.854497 
L 141.839383 204.276126 
L 145.790442 203.991275 
L 153.692561 203.609424 
L 157.643621 203.143994 
L 161.594681 202.312183 
L 165.54574 201.176865 
L 171.47233 199.117112 
L 185.301038 193.90243 
L 193.203157 190.685984 
L 201.105276 187.205272 
L 212.958455 181.739947 
L 216.909515 179.732268 
L 220.860574 177.451518 
L 224.811634 174.777953 
L 228.762693 171.659673 
L 238.640342 163.420177 
L 240.615872 161.966565 
L 244.566931 159.474333 
L 252.469051 154.943975 
L 254.44458 153.574 
L 256.42011 151.994953 
L 258.39564 150.149772 
L 260.37117 147.997226 
L 262.3467 145.571247 
L 266.297759 140.123909 
L 276.175408 125.656055 
L 280.126468 120.588399 
L 284.077527 116.165473 
L 286.053057 114.203347 
L 288.028587 112.41148 
L 290.004116 110.792897 
L 291.979646 109.350623 
L 293.955176 108.085683 
L 295.930706 106.986745 
L 297.906236 106.037772 
L 301.857295 104.525528 
L 305.808355 103.420569 
L 309.759414 102.594625 
L 313.710474 101.963937 
L 317.661533 101.556853 
L 321.612593 101.4191 
L 325.563653 101.596401 
L 329.514712 102.112548 
L 335.441301 103.289452 
L 341.367891 104.518628 
L 345.31895 105.134678 
L 349.27001 105.52814 
L 353.22107 105.735329 
L 359.147659 105.78009 
L 367.049778 105.550641 
L 376.927427 105.298001 
L 382.854016 105.390214 
L 392.731665 105.830318 
L 400.633784 106.154679 
L 404.584844 106.151763 
L 408.535903 105.944839 
L 412.486963 105.470365 
L 422.364612 103.899544 
L 426.315671 103.666183 
L 428.291201 103.738317 
L 432.242261 104.2472 
L 438.16885 105.466151 
L 442.11991 106.223694 
L 446.070969 106.65804 
L 450.022029 106.726746 
L 463.850737 106.450151 
L 475.703916 107.088639 
L 479.654976 106.960967 
L 483.606035 106.567025 
L 491.508154 105.62587 
L 495.459214 105.414768 
L 499.410273 105.541125 
L 503.361333 105.969597 
L 507.312393 106.643531 
L 513.238982 107.99044 
L 527.06769 111.435654 
L 531.01875 112.128551 
L 536.945339 112.887282 
L 542.871929 113.623343 
L 546.822988 114.275365 
L 556.700637 116.13016 
L 560.651697 116.491992 
L 562.627227 116.499545 
L 566.578286 116.147938 
L 578.431465 114.436303 
L 580.406995 114.396907 
L 584.358054 114.635164 
L 592.260173 115.458149 
L 594.235703 115.543113 
L 596.211233 115.513612 
L 598.186763 115.347723 
L 602.137822 114.663968 
L 606.088882 113.639594 
L 619.91759 109.601272 
L 623.86865 108.954997 
L 625.84418 108.812958 
L 627.819709 108.817387 
L 629.795239 108.987586 
L 629.795239 108.987586 
" clip-path="url(#pd7e246e0d0)" style="fill: none; stroke: #676391; stroke-opacity: 0.95; stroke-width: 1.25; stroke-linecap: square"/>
   </g>
   <g id="patch_4">
    <path d="M 28.205 235.89 
L 28.205 41.85 
" style="fill: none; stroke: #bbbbbb; stroke-width: 0.75; stroke-linejoin: miter; stroke-linecap: square"/>
   </g>
   <g id="patch_5">
    <path d="M 39.111834 245.89 
L 647.005 245.89 
" style="fill: none; stroke: #bbbbbb; stroke-width: 0.75; stroke-linejoin: miter; stroke-linecap: square"/>
   </g>
   <g id="legend_1">
    <g id="line2d_34">
     <path d="M 41.305 15.786562 
L 50.305 15.786562 
L 59.305 15.786562 
" style="fill: none; stroke-dasharray: 5.55,2.4; stroke-dashoffset: 0; stroke: #5d5d5d; stroke-width: 1.5"/>
    </g>
    <g id="text_27">
     <!-- Сырое молоко -->
     <g style="fill: #4b4b4b" transform="translate(66.505 18.936562) scale(0.09 -0.09)">
      <defs>
       <path id="Ubuntu-421" d="M 2458 -96 
Q 1990 -96 1606 57 
Q 1222 211 947 505 
Q 672 800 521 1232 
Q 371 1664 371 2221 
Q 371 2778 540 3210 
Q 710 3642 998 3936 
Q 1286 4230 1670 4384 
Q 2054 4538 2490 4538 
Q 2765 4538 2985 4499 
Q 3206 4461 3369 4409 
Q 3533 4358 3635 4307 
Q 3738 4256 3776 4230 
L 3597 3718 
Q 3539 3757 3430 3801 
Q 3322 3846 3184 3891 
Q 3046 3936 2883 3965 
Q 2720 3994 2554 3994 
Q 2202 3994 1920 3872 
Q 1638 3750 1440 3520 
Q 1242 3290 1136 2960 
Q 1030 2630 1030 2221 
Q 1030 1824 1123 1497 
Q 1216 1171 1401 937 
Q 1587 704 1865 576 
Q 2144 448 2515 448 
Q 2944 448 3225 537 
Q 3507 627 3648 698 
L 3808 186 
Q 3763 154 3648 106 
Q 3533 58 3360 13 
Q 3187 -32 2956 -64 
Q 2726 -96 2458 -96 
z
" transform="scale(0.015625)"/>
       <path id="Ubuntu-44b" d="M 1734 1645 
Q 1562 1645 1398 1635 
Q 1235 1626 1107 1594 
L 1107 448 
Q 1146 442 1219 435 
Q 1293 429 1379 425 
Q 1466 422 1555 419 
Q 1645 416 1715 416 
Q 2106 416 2317 563 
Q 2528 710 2528 1037 
Q 2528 1197 2461 1312 
Q 2394 1427 2282 1500 
Q 2170 1574 2029 1609 
Q 1888 1645 1734 1645 
z
M 512 3328 
L 1107 3328 
L 1107 2054 
Q 1216 2080 1424 2105 
Q 1632 2131 1824 2131 
Q 2086 2131 2323 2070 
Q 2560 2010 2739 1878 
Q 2918 1747 3024 1539 
Q 3130 1331 3130 1043 
Q 3130 742 3027 531 
Q 2925 320 2739 185 
Q 2554 51 2291 -9 
Q 2029 -70 1715 -70 
Q 1414 -70 1107 -35 
Q 800 0 512 70 
L 512 3328 
z
M 4339 0 
L 3744 0 
L 3744 3328 
L 4339 3328 
L 4339 0 
z
" transform="scale(0.015625)"/>
       <path id="Ubuntu-43e" d="M 3450 1664 
Q 3450 1267 3334 947 
Q 3219 627 3011 396 
Q 2803 166 2515 41 
Q 2227 -83 1888 -83 
Q 1549 -83 1261 41 
Q 973 166 765 396 
Q 557 627 441 947 
Q 326 1267 326 1664 
Q 326 2054 441 2377 
Q 557 2701 765 2931 
Q 973 3162 1261 3286 
Q 1549 3411 1888 3411 
Q 2227 3411 2515 3286 
Q 2803 3162 3011 2931 
Q 3219 2701 3334 2377 
Q 3450 2054 3450 1664 
z
M 2829 1664 
Q 2829 2227 2576 2556 
Q 2323 2886 1888 2886 
Q 1453 2886 1200 2556 
Q 947 2227 947 1664 
Q 947 1101 1200 771 
Q 1453 442 1888 442 
Q 2323 442 2576 771 
Q 2829 1101 2829 1664 
z
" transform="scale(0.015625)"/>
       <path id="Ubuntu-435" d="M 326 1658 
Q 326 2099 454 2428 
Q 582 2758 793 2976 
Q 1005 3194 1280 3302 
Q 1555 3411 1843 3411 
Q 2515 3411 2873 2992 
Q 3232 2573 3232 1715 
Q 3232 1677 3232 1616 
Q 3232 1555 3226 1504 
L 947 1504 
Q 986 986 1248 717 
Q 1510 448 2067 448 
Q 2381 448 2595 502 
Q 2810 557 2918 608 
L 3002 109 
Q 2893 51 2621 -13 
Q 2349 -77 2003 -77 
Q 1568 -77 1251 54 
Q 934 186 729 416 
Q 525 646 425 963 
Q 326 1280 326 1658 
z
M 2611 1984 
Q 2618 2387 2410 2646 
Q 2202 2906 1837 2906 
Q 1632 2906 1475 2826 
Q 1318 2746 1209 2618 
Q 1101 2490 1040 2323 
Q 979 2157 960 1984 
L 2611 1984 
z
" transform="scale(0.015625)"/>
       <path id="Ubuntu-20" transform="scale(0.015625)"/>
       <path id="Ubuntu-43c" d="M 1146 2451 
Q 1082 1818 1050 1187 
Q 1018 557 998 0 
L 429 0 
Q 442 390 467 816 
Q 493 1242 525 1674 
Q 557 2106 595 2525 
Q 634 2944 678 3328 
L 1222 3328 
Q 1427 2995 1702 2416 
Q 1978 1837 2336 1082 
Q 2694 1837 2969 2416 
Q 3245 2995 3450 3328 
L 4000 3328 
Q 4045 2944 4083 2525 
Q 4122 2106 4154 1674 
Q 4186 1242 4211 816 
Q 4237 390 4250 0 
L 3661 0 
Q 3642 557 3610 1187 
Q 3578 1818 3514 2451 
Q 3411 2253 3276 1974 
Q 3142 1696 3011 1408 
Q 2880 1120 2765 857 
Q 2650 595 2586 442 
L 2086 442 
Q 2016 602 1897 864 
Q 1779 1126 1648 1417 
Q 1517 1709 1382 1987 
Q 1248 2266 1146 2451 
z
" transform="scale(0.015625)"/>
      </defs>
      <use xlink:href="#Ubuntu-421"/>
      <use xlink:href="#Ubuntu-44b" x="61.999985"/>
      <use xlink:href="#Ubuntu-440" x="137.799973"/>
      <use xlink:href="#Ubuntu-43e" x="196.699966"/>
      <use xlink:href="#Ubuntu-435" x="255.699951"/>
      <use xlink:href="#Ubuntu-20" x="311.599945"/>
      <use xlink:href="#Ubuntu-43c" x="334.699936"/>
      <use xlink:href="#Ubuntu-43e" x="407.799927"/>
      <use xlink:href="#Ubuntu-43b" x="466.799911"/>
      <use xlink:href="#Ubuntu-43e" x="526.599899"/>
      <use xlink:href="#Ubuntu-43a" x="585.599884"/>
      <use xlink:href="#Ubuntu-43e" x="636.424881"/>
     </g>
    </g>
    <g id="line2d_35">
     <path d="M 41.305 28.935 
L 50.305 28.935 
L 59.305 28.935 
" style="fill: none; stroke: #5d5d5d; stroke-opacity: 0.95; stroke-width: 1.25; stroke-linecap: square"/>
    </g>
    <g id="text_28">
     <!-- Пастеризованное молоко -->
     <g style="fill: #4b4b4b" transform="translate(66.505 32.085) scale(0.09 -0.09)">
      <defs>
       <path id="Ubuntu-41f" d="M 3923 4435 
L 3923 0 
L 3302 0 
L 3302 3904 
L 1171 3904 
L 1171 0 
L 550 0 
L 550 4435 
L 3923 4435 
z
" transform="scale(0.015625)"/>
       <path id="Ubuntu-430" d="M 1638 429 
Q 1850 429 2013 438 
Q 2176 448 2285 474 
L 2285 1466 
Q 2221 1498 2077 1520 
Q 1933 1542 1728 1542 
Q 1594 1542 1443 1523 
Q 1293 1504 1168 1443 
Q 1043 1382 960 1276 
Q 877 1171 877 998 
Q 877 678 1081 553 
Q 1286 429 1638 429 
z
M 1587 3411 
Q 1946 3411 2192 3318 
Q 2438 3226 2588 3056 
Q 2739 2886 2803 2652 
Q 2867 2419 2867 2138 
L 2867 58 
Q 2790 45 2652 22 
Q 2515 0 2342 -19 
Q 2170 -38 1968 -54 
Q 1766 -70 1568 -70 
Q 1286 -70 1049 -12 
Q 813 45 640 169 
Q 467 294 371 499 
Q 275 704 275 992 
Q 275 1267 387 1465 
Q 499 1664 691 1785 
Q 883 1907 1139 1964 
Q 1395 2022 1677 2022 
Q 1766 2022 1862 2012 
Q 1958 2003 2044 1987 
Q 2131 1971 2195 1958 
Q 2259 1946 2285 1939 
L 2285 2106 
Q 2285 2253 2253 2397 
Q 2221 2541 2137 2653 
Q 2054 2765 1910 2832 
Q 1766 2899 1536 2899 
Q 1242 2899 1021 2857 
Q 800 2816 691 2771 
L 621 3264 
Q 736 3315 1005 3363 
Q 1274 3411 1587 3411 
z
" transform="scale(0.015625)"/>
       <path id="Ubuntu-441" d="M 1958 -77 
Q 1555 -77 1251 51 
Q 947 179 739 409 
Q 531 640 428 957 
Q 326 1274 326 1658 
Q 326 2042 438 2362 
Q 550 2682 755 2915 
Q 960 3149 1257 3280 
Q 1555 3411 1920 3411 
Q 2144 3411 2368 3372 
Q 2592 3334 2797 3251 
L 2662 2746 
Q 2528 2810 2352 2848 
Q 2176 2886 1978 2886 
Q 1478 2886 1212 2572 
Q 947 2259 947 1658 
Q 947 1389 1008 1165 
Q 1069 941 1200 781 
Q 1331 621 1536 534 
Q 1741 448 2035 448 
Q 2272 448 2464 493 
Q 2656 538 2765 589 
L 2848 90 
Q 2797 58 2701 29 
Q 2605 0 2483 -22 
Q 2362 -45 2224 -61 
Q 2086 -77 1958 -77 
z
" transform="scale(0.015625)"/>
       <path id="Ubuntu-438" d="M 3309 3328 
L 3309 0 
L 2733 0 
L 2733 2534 
Q 2541 2291 2310 1964 
Q 2080 1638 1849 1289 
Q 1619 941 1408 601 
Q 1197 262 1043 0 
L 512 0 
L 512 3328 
L 1088 3328 
L 1088 934 
Q 1254 1210 1465 1539 
Q 1677 1869 1904 2192 
Q 2131 2515 2358 2812 
Q 2586 3110 2784 3328 
L 3309 3328 
z
" transform="scale(0.015625)"/>
       <path id="Ubuntu-437" d="M 1357 3411 
Q 1645 3411 1894 3353 
Q 2144 3296 2323 3181 
Q 2502 3066 2604 2893 
Q 2707 2720 2707 2490 
Q 2707 2342 2656 2220 
Q 2605 2099 2528 2003 
Q 2451 1907 2358 1840 
Q 2266 1773 2182 1747 
Q 2477 1658 2646 1430 
Q 2816 1203 2816 858 
Q 2816 384 2432 153 
Q 2048 -77 1389 -77 
Q 986 -77 694 -13 
Q 403 51 282 109 
L 384 614 
Q 486 576 752 509 
Q 1018 442 1389 442 
Q 1792 442 2003 566 
Q 2214 691 2214 941 
Q 2214 1120 2134 1232 
Q 2054 1344 1932 1401 
Q 1811 1459 1670 1478 
Q 1530 1498 1408 1498 
L 851 1498 
L 851 1971 
L 1389 1971 
Q 1504 1971 1629 1987 
Q 1754 2003 1859 2054 
Q 1965 2106 2035 2198 
Q 2106 2291 2106 2445 
Q 2106 2566 2045 2652 
Q 1984 2739 1881 2796 
Q 1779 2854 1641 2883 
Q 1504 2912 1357 2912 
Q 1242 2912 1107 2893 
Q 973 2874 845 2845 
Q 717 2816 614 2784 
Q 512 2752 467 2726 
L 358 3238 
Q 410 3258 518 3290 
Q 627 3322 764 3347 
Q 902 3373 1056 3392 
Q 1210 3411 1357 3411 
z
" transform="scale(0.015625)"/>
      </defs>
      <use xlink:href="#Ubuntu-41f"/>
      <use xlink:href="#Ubuntu-430" x="69.899994"/>
      <use xlink:href="#Ubuntu-441" x="122.099991"/>
      <use xlink:href="#Ubuntu-442" x="170.099976"/>
      <use xlink:href="#Ubuntu-435" x="216.399963"/>
      <use xlink:href="#Ubuntu-440" x="272.299957"/>
      <use xlink:href="#Ubuntu-438" x="331.199951"/>
      <use xlink:href="#Ubuntu-437" x="390.899948"/>
      <use xlink:href="#Ubuntu-43e" x="439.799942"/>
      <use xlink:href="#Ubuntu-432" x="498.799927"/>
      <use xlink:href="#Ubuntu-430" x="553.599915"/>
      <use xlink:href="#Ubuntu-43d" x="605.799911"/>
      <use xlink:href="#Ubuntu-43d" x="664.399902"/>
      <use xlink:href="#Ubuntu-43e" x="722.999893"/>
      <use xlink:href="#Ubuntu-435" x="781.999878"/>
      <use xlink:href="#Ubuntu-20" x="837.899872"/>
      <use xlink:href="#Ubuntu-43c" x="860.999863"/>
      <use xlink:href="#Ubuntu-43e" x="934.099854"/>
      <use xlink:href="#Ubuntu-43b" x="993.099838"/>
      <use xlink:href="#Ubuntu-43e" x="1052.899826"/>
      <use xlink:href="#Ubuntu-43a" x="1111.899811"/>
      <use xlink:href="#Ubuntu-43e" x="1162.724808"/>
     </g>
    </g>
    <g id="line2d_36">
     <path d="M 194.461094 15.786562 
L 203.461094 15.786562 
L 212.461094 15.786562 
" style="fill: none; stroke: #af5a51; stroke-opacity: 0.95; stroke-width: 1.25; stroke-linecap: square"/>
    </g>
    <g id="text_29">
     <!-- Масло сливочное -->
     <g style="fill: #4b4b4b" transform="translate(219.661094 18.936562) scale(0.09 -0.09)">
      <defs>
       <path id="Ubuntu-41c" d="M 2541 614 
Q 2477 768 2371 1005 
Q 2266 1242 2144 1517 
Q 2022 1792 1884 2083 
Q 1747 2374 1625 2633 
Q 1504 2893 1398 3097 
Q 1293 3302 1229 3411 
Q 1158 2656 1113 1776 
Q 1069 896 1037 0 
L 429 0 
Q 454 576 486 1161 
Q 518 1747 560 2313 
Q 602 2880 650 3417 
Q 698 3955 755 4435 
L 1299 4435 
Q 1472 4154 1670 3770 
Q 1869 3386 2067 2966 
Q 2266 2547 2451 2128 
Q 2637 1709 2790 1363 
Q 2944 1709 3129 2128 
Q 3315 2547 3513 2966 
Q 3712 3386 3910 3770 
Q 4109 4154 4282 4435 
L 4826 4435 
Q 5043 2291 5152 0 
L 4544 0 
Q 4512 896 4467 1776 
Q 4422 2656 4352 3411 
Q 4288 3302 4182 3097 
Q 4077 2893 3955 2633 
Q 3834 2374 3696 2083 
Q 3558 1792 3436 1517 
Q 3315 1242 3209 1005 
Q 3104 768 3040 614 
L 2541 614 
z
" transform="scale(0.015625)"/>
       <path id="Ubuntu-447" d="M 890 3328 
L 890 2349 
Q 890 1971 1082 1820 
Q 1274 1670 1606 1670 
Q 1850 1670 2013 1696 
Q 2176 1722 2304 1754 
L 2304 3328 
L 2899 3328 
L 2899 0 
L 2304 0 
L 2304 1293 
Q 2253 1280 2169 1261 
Q 2086 1242 1980 1226 
Q 1875 1210 1760 1197 
Q 1645 1184 1536 1184 
Q 1261 1184 1033 1241 
Q 806 1299 643 1433 
Q 480 1568 387 1789 
Q 294 2010 294 2342 
L 294 3328 
L 890 3328 
z
" transform="scale(0.015625)"/>
      </defs>
      <use xlink:href="#Ubuntu-41c"/>
      <use xlink:href="#Ubuntu-430" x="87.099991"/>
      <use xlink:href="#Ubuntu-441" x="139.299988"/>
      <use xlink:href="#Ubuntu-43b" x="187.674973"/>
      <use xlink:href="#Ubuntu-43e" x="247.47496"/>
      <use xlink:href="#Ubuntu-20" x="306.474945"/>
      <use xlink:href="#Ubuntu-441" x="329.574936"/>
      <use xlink:href="#Ubuntu-43b" x="377.949921"/>
      <use xlink:href="#Ubuntu-438" x="437.749908"/>
      <use xlink:href="#Ubuntu-432" x="497.449905"/>
      <use xlink:href="#Ubuntu-43e" x="552.249893"/>
      <use xlink:href="#Ubuntu-447" x="611.249878"/>
      <use xlink:href="#Ubuntu-43d" x="664.549866"/>
      <use xlink:href="#Ubuntu-43e" x="723.149857"/>
      <use xlink:href="#Ubuntu-435" x="782.149841"/>
     </g>
    </g>
    <g id="line2d_37">
     <path d="M 313.083906 15.786562 
L 322.083906 15.786562 
L 331.083906 15.786562 
" style="fill: none; stroke: #608eb4; stroke-width: 1.25; stroke-linecap: square"/>
    </g>
    <g id="text_30">
     <!-- Сыр -->
     <g style="fill: #4b4b4b" transform="translate(338.283906 18.936562) scale(0.09 -0.09)">
      <use xlink:href="#Ubuntu-421"/>
      <use xlink:href="#Ubuntu-44b" x="61.999985"/>
      <use xlink:href="#Ubuntu-440" x="137.799973"/>
     </g>
    </g>
    <g id="line2d_38">
     <path d="M 373.987187 15.786562 
L 382.987187 15.786562 
L 391.987187 15.786562 
" style="fill: none; stroke: #489079; stroke-opacity: 0.75; stroke-width: 1.25; stroke-linecap: square"/>
    </g>
    <g id="text_31">
     <!-- Сметана -->
     <g style="fill: #4b4b4b" transform="translate(399.187187 18.936562) scale(0.09 -0.09)">
      <use xlink:href="#Ubuntu-421"/>
      <use xlink:href="#Ubuntu-43c" x="61.999985"/>
      <use xlink:href="#Ubuntu-435" x="135.099976"/>
      <use xlink:href="#Ubuntu-442" x="190.999969"/>
      <use xlink:href="#Ubuntu-430" x="237.299957"/>
      <use xlink:href="#Ubuntu-43d" x="289.499954"/>
      <use xlink:href="#Ubuntu-430" x="348.099945"/>
     </g>
    </g>
    <g id="line2d_39">
     <path d="M 453.213906 15.786562 
L 462.213906 15.786562 
L 471.213906 15.786562 
" style="fill: none; stroke: #eea92b; stroke-opacity: 0.95; stroke-width: 1.25; stroke-linecap: square"/>
    </g>
    <g id="text_32">
     <!-- Йогрут -->
     <g style="fill: #4b4b4b" transform="translate(478.413906 18.936562) scale(0.09 -0.09)">
      <defs>
       <path id="Ubuntu-419" d="M 550 0 
L 550 4435 
L 1158 4435 
L 1158 1152 
Q 1363 1491 1660 1926 
Q 1958 2362 2294 2813 
Q 2630 3264 2972 3689 
Q 3315 4115 3616 4435 
L 4109 4435 
L 4109 0 
L 3501 0 
L 3501 3462 
Q 3322 3258 3110 2989 
Q 2899 2720 2675 2416 
Q 2451 2112 2224 1785 
Q 1997 1459 1785 1142 
Q 1574 826 1392 531 
Q 1210 237 1069 0 
L 550 0 
z
M 2333 4890 
Q 1930 4890 1677 5094 
Q 1424 5299 1373 5664 
L 1827 5786 
Q 1878 5581 2000 5453 
Q 2122 5325 2333 5325 
Q 2544 5325 2665 5453 
Q 2787 5581 2838 5786 
L 3286 5664 
Q 3235 5299 2985 5094 
Q 2736 4890 2333 4890 
z
" transform="scale(0.015625)"/>
       <path id="Ubuntu-433" d="M 2573 2829 
L 1107 2829 
L 1107 0 
L 512 0 
L 512 3328 
L 2573 3328 
L 2573 2829 
z
" transform="scale(0.015625)"/>
       <path id="Ubuntu-443" d="M 122 -621 
Q 192 -653 304 -681 
Q 416 -710 525 -710 
Q 877 -710 1075 -553 
Q 1274 -397 1434 -45 
Q 1030 723 681 1584 
Q 333 2445 102 3328 
L 742 3328 
Q 813 3040 912 2707 
Q 1011 2374 1132 2022 
Q 1254 1670 1395 1318 
Q 1536 966 1690 640 
Q 1933 1312 2112 1971 
Q 2291 2630 2451 3328 
L 3066 3328 
Q 2835 2387 2553 1520 
Q 2272 653 1946 -102 
Q 1818 -390 1680 -598 
Q 1542 -806 1376 -940 
Q 1210 -1075 1002 -1139 
Q 794 -1203 531 -1203 
Q 461 -1203 384 -1193 
Q 307 -1184 233 -1168 
Q 160 -1152 99 -1133 
Q 38 -1114 13 -1101 
L 122 -621 
z
" transform="scale(0.015625)"/>
      </defs>
      <use xlink:href="#Ubuntu-419"/>
      <use xlink:href="#Ubuntu-43e" x="72.799988"/>
      <use xlink:href="#Ubuntu-433" x="131.799973"/>
      <use xlink:href="#Ubuntu-440" x="173.59996"/>
      <use xlink:href="#Ubuntu-443" x="231.124954"/>
      <use xlink:href="#Ubuntu-442" x="282.949951"/>
     </g>
    </g>
    <g id="line2d_40">
     <path d="M 526.046406 15.786562 
L 535.046406 15.786562 
L 544.046406 15.786562 
" style="fill: none; stroke: #676391; stroke-opacity: 0.95; stroke-width: 1.25; stroke-linecap: square"/>
    </g>
    <g id="text_33">
     <!-- Творог -->
     <g style="fill: #4b4b4b" transform="translate(551.246406 18.936562) scale(0.09 -0.09)">
      <defs>
       <path id="Ubuntu-422" d="M 3514 4435 
L 3514 3898 
L 2118 3898 
L 2118 0 
L 1498 0 
L 1498 3898 
L 102 3898 
L 102 4435 
L 3514 4435 
z
" transform="scale(0.015625)"/>
      </defs>
      <use xlink:href="#Ubuntu-422"/>
      <use xlink:href="#Ubuntu-432" x="49.124985"/>
      <use xlink:href="#Ubuntu-43e" x="103.924973"/>
      <use xlink:href="#Ubuntu-440" x="162.924957"/>
      <use xlink:href="#Ubuntu-43e" x="221.824951"/>
      <use xlink:href="#Ubuntu-433" x="280.824936"/>
     </g>
    </g>
   </g>
   <g id="line2d_41">
    <path d="M 48.55 211.635 
L 631.66 211.635 
" clip-path="url(#pd7e246e0d0)" style="fill: none; stroke-dasharray: 2.775,1.2; stroke-dashoffset: 0; stroke: #c5c5c5; stroke-width: 0.75"/>
   </g>
  </g>
 </g>
 <defs>
  <clipPath id="pf25cdb8ce0">
   <rect x="33.205" y="259.1748" width="613.8" height="0"/>
  </clipPath>
  <clipPath id="pd7e246e0d0">
   <rect x="33.205" y="41.85" width="613.8" height="194.04"/>
  </clipPath>
 </defs>
</svg>
