<?xml version="1.0" encoding="utf-8" standalone="no"?>
<!DOCTYPE svg PUBLIC "-//W3C//DTD SVG 1.1//EN"
  "http://www.w3.org/Graphics/SVG/1.1/DTD/svg11.dtd">
<svg xmlns:xlink="http://www.w3.org/1999/xlink" width="663.23pt" height="209.122875pt" viewBox="0 0 663.23 209.122875" xmlns="http://www.w3.org/2000/svg" version="1.1">
 <metadata>
  <rdf:RDF xmlns:dc="http://purl.org/dc/elements/1.1/" xmlns:cc="http://creativecommons.org/ns#" xmlns:rdf="http://www.w3.org/1999/02/22-rdf-syntax-ns#">
   <cc:Work>
    <dc:type rdf:resource="http://purl.org/dc/dcmitype/StillImage"/>
    <dc:date>2024-02-21T19:15:16.018081</dc:date>
    <dc:format>image/svg+xml</dc:format>
    <dc:creator>
     <cc:Agent>
      <dc:title>Matplotlib v3.8.0, https://matplotlib.org/</dc:title>
     </cc:Agent>
    </dc:creator>
   </cc:Work>
  </rdf:RDF>
 </metadata>
 <defs>
  <style type="text/css">*{stroke-linejoin: round; stroke-linecap: butt}</style>
 </defs>
 <g id="figure_1">
  <g id="patch_1">
   <path d="M 0 209.122875 
L 663.23 209.122875 
L 663.23 0 
L 0 0 
L 0 209.122875 
z
" style="fill: none"/>
  </g>
  <g id="axes_1">
   <g id="patch_2">
    <path d="M 33.205 168.559375 
L 647.005 168.559375 
L 647.005 29.959375 
L 33.205 29.959375 
L 33.205 168.559375 
z
" style="fill: none"/>
   </g>
   <g id="axes_2">
    <g id="patch_3">
     <path d="M 33.205 190.735375 
L 647.005 190.735375 
L 647.005 190.735375 
L 33.205 190.735375 
L 33.205 190.735375 
z
" style="fill: none"/>
    </g>
    <g id="matplotlib.axis_1">
     <g id="xtick_1">
      <g id="line2d_1">
       <path d="M 39.111834 190.735375 
L 39.111834 190.735375 
" clip-path="url(#p73a8833dd6)" style="fill: none; stroke-dasharray: 0.5,0.825; stroke-dashoffset: 0; stroke: #d9d9d9; stroke-width: 0.5"/>
      </g>
      <g id="text_1">
       <!-- 2021 -->
       <g style="fill: #9f9f9f" transform="translate(30.086834 200.442875) scale(0.08 -0.08)">
        <defs>
         <path id="Ubuntu-32" d="M 2989 3302 
Q 2989 3072 2896 2857 
Q 2803 2643 2649 2435 
Q 2496 2227 2304 2025 
Q 2112 1824 1920 1632 
Q 1811 1523 1667 1376 
Q 1523 1229 1395 1069 
Q 1267 909 1180 761 
Q 1094 614 1094 506 
L 3136 506 
L 3136 0 
L 448 0 
Q 442 38 442 76 
Q 442 115 442 147 
Q 442 448 541 707 
Q 640 966 800 1196 
Q 960 1427 1158 1632 
Q 1357 1837 1549 2029 
Q 1709 2182 1853 2332 
Q 1997 2483 2109 2633 
Q 2221 2784 2288 2944 
Q 2355 3104 2355 3283 
Q 2355 3475 2294 3609 
Q 2234 3744 2131 3833 
Q 2029 3923 1891 3964 
Q 1754 4006 1600 4006 
Q 1414 4006 1260 3955 
Q 1107 3904 985 3837 
Q 864 3770 781 3696 
Q 698 3622 653 3584 
L 358 4006 
Q 416 4070 531 4163 
Q 646 4256 806 4339 
Q 966 4422 1164 4480 
Q 1363 4538 1594 4538 
Q 2291 4538 2640 4214 
Q 2989 3891 2989 3302 
z
" transform="scale(0.015625)"/>
         <path id="Ubuntu-30" d="M 320 2221 
Q 320 3334 713 3936 
Q 1107 4538 1805 4538 
Q 2502 4538 2896 3936 
Q 3290 3334 3290 2221 
Q 3290 1107 2896 505 
Q 2502 -96 1805 -96 
Q 1107 -96 713 505 
Q 320 1107 320 2221 
z
M 2662 2221 
Q 2662 2586 2620 2912 
Q 2579 3238 2480 3481 
Q 2381 3725 2214 3869 
Q 2048 4013 1805 4013 
Q 1562 4013 1395 3869 
Q 1229 3725 1129 3481 
Q 1030 3238 988 2912 
Q 947 2586 947 2221 
Q 947 1856 988 1529 
Q 1030 1203 1129 960 
Q 1229 717 1395 573 
Q 1562 429 1805 429 
Q 2048 429 2214 573 
Q 2381 717 2480 960 
Q 2579 1203 2620 1529 
Q 2662 1856 2662 2221 
z
" transform="scale(0.015625)"/>
         <path id="Ubuntu-31" d="M 595 3520 
Q 960 3661 1305 3881 
Q 1651 4102 1939 4435 
L 2362 4435 
L 2362 0 
L 1766 0 
L 1766 3610 
Q 1690 3539 1578 3462 
Q 1466 3386 1334 3315 
Q 1203 3245 1059 3181 
Q 915 3117 781 3072 
L 595 3520 
z
" transform="scale(0.015625)"/>
        </defs>
        <use xlink:href="#Ubuntu-32"/>
        <use xlink:href="#Ubuntu-30" x="56.399994"/>
        <use xlink:href="#Ubuntu-32" x="112.799988"/>
        <use xlink:href="#Ubuntu-31" x="169.199982"/>
       </g>
      </g>
     </g>
     <g id="xtick_2">
      <g id="line2d_2">
       <path d="M 241.742889 190.735375 
L 241.742889 190.735375 
" clip-path="url(#p73a8833dd6)" style="fill: none; stroke-dasharray: 0.5,0.825; stroke-dashoffset: 0; stroke: #d9d9d9; stroke-width: 0.5"/>
      </g>
      <g id="text_2">
       <!-- 2022 -->
       <g style="fill: #9f9f9f" transform="translate(232.717889 200.442875) scale(0.08 -0.08)">
        <use xlink:href="#Ubuntu-32"/>
        <use xlink:href="#Ubuntu-30" x="56.399994"/>
        <use xlink:href="#Ubuntu-32" x="112.799988"/>
        <use xlink:href="#Ubuntu-32" x="169.199982"/>
       </g>
      </g>
     </g>
     <g id="xtick_3">
      <g id="line2d_3">
       <path d="M 444.373945 190.735375 
L 444.373945 190.735375 
" clip-path="url(#p73a8833dd6)" style="fill: none; stroke-dasharray: 0.5,0.825; stroke-dashoffset: 0; stroke: #d9d9d9; stroke-width: 0.5"/>
      </g>
      <g id="text_3">
       <!-- 2023 -->
       <g style="fill: #9f9f9f" transform="translate(435.348945 200.442875) scale(0.08 -0.08)">
        <defs>
         <path id="Ubuntu-33" d="M 1446 435 
Q 2016 435 2262 659 
Q 2509 883 2509 1261 
Q 2509 1504 2406 1670 
Q 2304 1837 2137 1936 
Q 1971 2035 1750 2076 
Q 1530 2118 1299 2118 
L 1146 2118 
L 1146 2605 
L 1357 2605 
Q 1517 2605 1686 2637 
Q 1856 2669 1997 2752 
Q 2138 2835 2227 2979 
Q 2317 3123 2317 3341 
Q 2317 3520 2253 3648 
Q 2189 3776 2083 3859 
Q 1978 3942 1840 3977 
Q 1702 4013 1549 4013 
Q 1242 4013 1027 3923 
Q 813 3834 666 3738 
L 435 4192 
Q 512 4243 630 4304 
Q 749 4365 896 4416 
Q 1043 4467 1212 4502 
Q 1382 4538 1568 4538 
Q 1920 4538 2176 4451 
Q 2432 4365 2598 4208 
Q 2765 4051 2848 3836 
Q 2931 3622 2931 3373 
Q 2931 3027 2732 2780 
Q 2534 2534 2253 2406 
Q 2426 2355 2586 2259 
Q 2746 2163 2864 2016 
Q 2982 1869 3056 1677 
Q 3130 1485 3130 1248 
Q 3130 960 3030 713 
Q 2931 467 2723 288 
Q 2515 109 2201 6 
Q 1888 -96 1459 -96 
Q 1293 -96 1117 -70 
Q 941 -45 787 -6 
Q 634 32 518 70 
Q 403 109 352 134 
L 467 653 
Q 576 602 829 518 
Q 1082 435 1446 435 
z
" transform="scale(0.015625)"/>
        </defs>
        <use xlink:href="#Ubuntu-32"/>
        <use xlink:href="#Ubuntu-30" x="56.399994"/>
        <use xlink:href="#Ubuntu-32" x="112.799988"/>
        <use xlink:href="#Ubuntu-33" x="169.199982"/>
       </g>
      </g>
     </g>
     <g id="xtick_4">
      <g id="line2d_4">
       <path d="M 647.005 190.735375 
L 647.005 190.735375 
" clip-path="url(#p73a8833dd6)" style="fill: none; stroke-dasharray: 0.5,0.825; stroke-dashoffset: 0; stroke: #d9d9d9; stroke-width: 0.5"/>
      </g>
      <g id="text_4">
       <!-- 2024 -->
       <g style="fill: #9f9f9f" transform="translate(637.98 200.442875) scale(0.08 -0.08)">
        <defs>
         <path id="Ubuntu-34" d="M 256 1536 
Q 378 1818 589 2192 
Q 800 2566 1065 2963 
Q 1331 3360 1635 3744 
Q 1939 4128 2246 4435 
L 2816 4435 
L 2816 1619 
L 3341 1619 
L 3341 1133 
L 2816 1133 
L 2816 0 
L 2240 0 
L 2240 1133 
L 256 1133 
L 256 1536 
z
M 2240 3731 
Q 2048 3526 1853 3273 
Q 1658 3021 1472 2745 
Q 1286 2470 1123 2182 
Q 960 1894 832 1619 
L 2240 1619 
L 2240 3731 
z
" transform="scale(0.015625)"/>
        </defs>
        <use xlink:href="#Ubuntu-32"/>
        <use xlink:href="#Ubuntu-30" x="56.399994"/>
        <use xlink:href="#Ubuntu-32" x="112.799988"/>
        <use xlink:href="#Ubuntu-34" x="169.199982"/>
       </g>
      </g>
     </g>
    </g>
    <g id="matplotlib.axis_2"/>
   </g>
   <g id="matplotlib.axis_3">
    <g id="xtick_5">
     <g id="line2d_5">
      <defs>
       <path id="mb41de0ae8a" d="M 0 0 
L 0 2 
" style="stroke: #bbbbbb; stroke-width: 0.75"/>
      </defs>
      <g>
       <use xlink:href="#mb41de0ae8a" x="39.111834" y="178.559375" style="fill: #bbbbbb; stroke: #bbbbbb; stroke-width: 0.75"/>
      </g>
     </g>
     <g id="text_5">
      <!-- Янв -->
      <g style="fill: #9f9f9f" transform="translate(32.036209 190.266875) scale(0.08 -0.08)">
       <defs>
        <path id="Ubuntu-42f" d="M 2272 3936 
Q 2029 3936 1808 3897 
Q 1587 3859 1414 3763 
Q 1242 3667 1139 3500 
Q 1037 3334 1037 3085 
Q 1037 2611 1341 2428 
Q 1645 2246 2253 2246 
L 2893 2246 
L 2893 3917 
Q 2822 3917 2726 3923 
Q 2643 3930 2531 3933 
Q 2419 3936 2272 3936 
z
M 2323 4480 
Q 2458 4480 2611 4473 
Q 2765 4467 2921 4454 
Q 3078 4442 3232 4422 
Q 3386 4403 3514 4371 
L 3514 0 
L 2893 0 
L 2893 1734 
L 2362 1734 
Q 2272 1734 2173 1737 
Q 2074 1741 1907 1760 
Q 1792 1606 1657 1401 
Q 1523 1197 1388 966 
Q 1254 736 1123 486 
Q 992 237 883 0 
L 230 0 
Q 333 250 473 518 
Q 614 787 764 1030 
Q 915 1274 1052 1482 
Q 1190 1690 1293 1824 
Q 1146 1869 986 1952 
Q 826 2035 691 2182 
Q 557 2330 470 2550 
Q 384 2771 384 3078 
Q 384 3424 518 3686 
Q 653 3949 905 4125 
Q 1158 4301 1516 4390 
Q 1875 4480 2323 4480 
z
" transform="scale(0.015625)"/>
        <path id="Ubuntu-43d" d="M 3238 0 
L 2643 0 
L 2643 1472 
L 1107 1472 
L 1107 0 
L 512 0 
L 512 3328 
L 1107 3328 
L 1107 1971 
L 2643 1971 
L 2643 3328 
L 3238 3328 
L 3238 0 
z
" transform="scale(0.015625)"/>
        <path id="Ubuntu-432" d="M 1094 448 
Q 1133 442 1203 435 
Q 1274 429 1363 425 
Q 1453 422 1552 419 
Q 1651 416 1741 416 
Q 1926 416 2096 441 
Q 2266 467 2390 531 
Q 2515 595 2588 700 
Q 2662 806 2662 973 
Q 2662 1133 2595 1238 
Q 2528 1344 2413 1408 
Q 2298 1472 2141 1497 
Q 1984 1523 1805 1523 
L 1094 1523 
L 1094 448 
z
M 1728 1965 
Q 1901 1965 2045 1987 
Q 2189 2010 2294 2067 
Q 2400 2125 2461 2221 
Q 2522 2317 2522 2464 
Q 2522 2618 2445 2707 
Q 2368 2797 2243 2845 
Q 2118 2893 1961 2909 
Q 1805 2925 1645 2925 
Q 1498 2925 1347 2918 
Q 1197 2912 1094 2906 
L 1094 1965 
L 1728 1965 
z
M 1715 -58 
Q 1338 -58 1018 -22 
Q 698 13 512 58 
L 512 3296 
Q 698 3341 1018 3376 
Q 1338 3411 1715 3411 
Q 1978 3411 2227 3366 
Q 2477 3322 2669 3216 
Q 2861 3110 2979 2928 
Q 3098 2746 3098 2477 
Q 3098 2234 2976 2061 
Q 2854 1888 2650 1792 
Q 2925 1696 3088 1507 
Q 3251 1318 3251 979 
Q 3251 678 3132 480 
Q 3014 282 2806 160 
Q 2598 38 2316 -10 
Q 2035 -58 1715 -58 
z
" transform="scale(0.015625)"/>
       </defs>
       <use xlink:href="#Ubuntu-42f"/>
       <use xlink:href="#Ubuntu-43d" x="63.499985"/>
       <use xlink:href="#Ubuntu-432" x="122.099976"/>
      </g>
     </g>
    </g>
    <g id="xtick_6">
     <g id="line2d_6">
      <g>
       <use xlink:href="#mb41de0ae8a" x="89.075656" y="178.559375" style="fill: #bbbbbb; stroke: #bbbbbb; stroke-width: 0.75"/>
      </g>
     </g>
     <g id="text_6">
      <!-- Апр -->
      <g style="fill: #9f9f9f" transform="translate(81.755656 190.266875) scale(0.08 -0.08)">
       <defs>
        <path id="Ubuntu-410" d="M 3514 0 
Q 3405 288 3309 566 
Q 3213 845 3110 1133 
L 1101 1133 
L 698 0 
L 51 0 
Q 307 704 531 1302 
Q 755 1901 969 2438 
Q 1184 2976 1395 3465 
Q 1606 3955 1837 4435 
L 2406 4435 
Q 2637 3955 2848 3465 
Q 3059 2976 3273 2438 
Q 3488 1901 3712 1302 
Q 3936 704 4192 0 
L 3514 0 
z
M 2931 1645 
Q 2726 2202 2524 2723 
Q 2323 3245 2106 3725 
Q 1882 3245 1680 2723 
Q 1478 2202 1280 1645 
L 2931 1645 
z
" transform="scale(0.015625)"/>
        <path id="Ubuntu-43f" d="M 3187 0 
L 2592 0 
L 2592 2829 
L 1107 2829 
L 1107 0 
L 512 0 
L 512 3328 
L 3187 3328 
L 3187 0 
z
" transform="scale(0.015625)"/>
        <path id="Ubuntu-440" d="M 2822 1658 
Q 2822 2240 2534 2553 
Q 2246 2867 1766 2867 
Q 1498 2867 1347 2848 
Q 1197 2829 1107 2803 
L 1107 704 
Q 1216 614 1421 531 
Q 1626 448 1869 448 
Q 2125 448 2307 541 
Q 2490 634 2605 797 
Q 2720 960 2771 1181 
Q 2822 1402 2822 1658 
z
M 3443 1658 
Q 3443 1280 3344 960 
Q 3245 640 3053 409 
Q 2861 179 2582 51 
Q 2304 -77 1946 -77 
Q 1658 -77 1437 0 
Q 1216 77 1107 147 
L 1107 -1184 
L 512 -1184 
L 512 3226 
Q 723 3277 1040 3337 
Q 1357 3398 1773 3398 
Q 2157 3398 2464 3276 
Q 2771 3155 2988 2931 
Q 3206 2707 3324 2384 
Q 3443 2061 3443 1658 
z
" transform="scale(0.015625)"/>
       </defs>
       <use xlink:href="#Ubuntu-410"/>
       <use xlink:href="#Ubuntu-43f" x="66.299988"/>
       <use xlink:href="#Ubuntu-440" x="124.099976"/>
      </g>
     </g>
    </g>
    <g id="xtick_7">
     <g id="line2d_7">
      <g>
       <use xlink:href="#mb41de0ae8a" x="139.594631" y="178.559375" style="fill: #bbbbbb; stroke: #bbbbbb; stroke-width: 0.75"/>
      </g>
     </g>
     <g id="text_7">
      <!-- Июл -->
      <g style="fill: #9f9f9f" transform="translate(131.047131 190.266875) scale(0.08 -0.08)">
       <defs>
        <path id="Ubuntu-418" d="M 550 0 
L 550 4435 
L 1158 4435 
L 1158 1152 
Q 1363 1491 1660 1926 
Q 1958 2362 2294 2813 
Q 2630 3264 2972 3689 
Q 3315 4115 3616 4435 
L 4109 4435 
L 4109 0 
L 3501 0 
L 3501 3462 
Q 3322 3258 3110 2989 
Q 2899 2720 2675 2416 
Q 2451 2112 2224 1785 
Q 1997 1459 1785 1142 
Q 1574 826 1392 531 
Q 1210 237 1069 0 
L 550 0 
z
" transform="scale(0.015625)"/>
        <path id="Ubuntu-44e" d="M 1107 1952 
L 1837 1952 
Q 1875 2285 2006 2553 
Q 2138 2822 2336 3014 
Q 2534 3206 2790 3308 
Q 3046 3411 3341 3411 
Q 3667 3411 3945 3286 
Q 4224 3162 4429 2931 
Q 4634 2701 4749 2377 
Q 4864 2054 4864 1664 
Q 4864 1267 4749 947 
Q 4634 627 4429 396 
Q 4224 166 3945 41 
Q 3667 -83 3341 -83 
Q 3034 -83 2768 29 
Q 2502 141 2304 342 
Q 2106 544 1981 832 
Q 1856 1120 1830 1472 
L 1107 1472 
L 1107 0 
L 512 0 
L 512 3328 
L 1107 3328 
L 1107 1952 
z
M 4250 1664 
Q 4250 2227 4003 2556 
Q 3757 2886 3341 2886 
Q 2925 2886 2678 2556 
Q 2432 2227 2432 1664 
Q 2432 1101 2678 771 
Q 2925 442 3341 442 
Q 3757 442 4003 771 
Q 4250 1101 4250 1664 
z
" transform="scale(0.015625)"/>
        <path id="Ubuntu-43b" d="M 1670 2829 
Q 1670 2618 1660 2378 
Q 1651 2138 1625 1898 
Q 1600 1658 1555 1424 
Q 1510 1190 1440 986 
Q 1370 781 1264 601 
Q 1158 422 1004 284 
Q 851 147 646 54 
Q 442 -38 166 -64 
L 83 435 
Q 397 499 579 672 
Q 762 845 870 1094 
Q 966 1312 1011 1587 
Q 1056 1862 1075 2160 
Q 1094 2458 1097 2758 
Q 1101 3059 1101 3328 
L 3315 3328 
L 3315 0 
L 2720 0 
L 2720 2829 
L 1670 2829 
z
" transform="scale(0.015625)"/>
       </defs>
       <use xlink:href="#Ubuntu-418"/>
       <use xlink:href="#Ubuntu-44e" x="72.799988"/>
       <use xlink:href="#Ubuntu-43b" x="153.899979"/>
      </g>
     </g>
    </g>
    <g id="xtick_8">
     <g id="line2d_8">
      <g>
       <use xlink:href="#mb41de0ae8a" x="190.66876" y="178.559375" style="fill: #bbbbbb; stroke: #bbbbbb; stroke-width: 0.75"/>
      </g>
     </g>
     <g id="text_8">
      <!-- Окт -->
      <g style="fill: #9f9f9f" transform="translate(183.556885 190.266875) scale(0.08 -0.08)">
       <defs>
        <path id="Ubuntu-41e" d="M 371 2221 
Q 371 2790 540 3225 
Q 710 3661 1001 3952 
Q 1293 4243 1680 4390 
Q 2067 4538 2502 4538 
Q 2931 4538 3312 4390 
Q 3693 4243 3981 3952 
Q 4269 3661 4438 3225 
Q 4608 2790 4608 2221 
Q 4608 1651 4438 1216 
Q 4269 781 3981 489 
Q 3693 198 3312 51 
Q 2931 -96 2502 -96 
Q 2067 -96 1680 51 
Q 1293 198 1001 489 
Q 710 781 540 1216 
Q 371 1651 371 2221 
z
M 1024 2221 
Q 1024 1818 1126 1488 
Q 1229 1158 1417 928 
Q 1606 698 1878 573 
Q 2150 448 2490 448 
Q 2829 448 3097 573 
Q 3366 698 3555 928 
Q 3744 1158 3846 1488 
Q 3949 1818 3949 2221 
Q 3949 2624 3846 2953 
Q 3744 3283 3555 3513 
Q 3366 3744 3097 3869 
Q 2829 3994 2490 3994 
Q 2150 3994 1878 3869 
Q 1606 3744 1417 3513 
Q 1229 3283 1126 2953 
Q 1024 2624 1024 2221 
z
" transform="scale(0.015625)"/>
        <path id="Ubuntu-43a" d="M 1728 1811 
Q 1926 1670 2156 1456 
Q 2387 1242 2608 992 
Q 2829 742 3021 483 
Q 3213 224 3347 0 
L 2643 0 
Q 2502 218 2313 445 
Q 2125 672 1920 883 
Q 1715 1094 1504 1273 
Q 1293 1453 1107 1574 
L 1107 0 
L 512 0 
L 512 3328 
L 1107 3328 
L 1107 1901 
Q 1261 2048 1459 2243 
Q 1658 2438 1859 2640 
Q 2061 2842 2233 3024 
Q 2406 3206 2515 3328 
L 3206 3328 
Q 3066 3174 2877 2979 
Q 2688 2784 2486 2579 
Q 2285 2374 2086 2172 
Q 1888 1971 1728 1811 
z
" transform="scale(0.015625)"/>
        <path id="Ubuntu-442" d="M 2861 3328 
L 2861 2829 
L 1779 2829 
L 1779 0 
L 1184 0 
L 1184 2829 
L 102 2829 
L 102 3328 
L 2861 3328 
z
" transform="scale(0.015625)"/>
       </defs>
       <use xlink:href="#Ubuntu-41e"/>
       <use xlink:href="#Ubuntu-43a" x="77.799988"/>
       <use xlink:href="#Ubuntu-442" x="131.499985"/>
      </g>
     </g>
    </g>
    <g id="xtick_9">
     <g id="line2d_9">
      <g>
       <use xlink:href="#mb41de0ae8a" x="241.742889" y="178.559375" style="fill: #bbbbbb; stroke: #bbbbbb; stroke-width: 0.75"/>
      </g>
     </g>
     <g id="text_9">
      <!-- Янв -->
      <g style="fill: #9f9f9f" transform="translate(234.667264 190.266875) scale(0.08 -0.08)">
       <use xlink:href="#Ubuntu-42f"/>
       <use xlink:href="#Ubuntu-43d" x="63.499985"/>
       <use xlink:href="#Ubuntu-432" x="122.099976"/>
      </g>
     </g>
    </g>
    <g id="xtick_10">
     <g id="line2d_10">
      <g>
       <use xlink:href="#mb41de0ae8a" x="291.706711" y="178.559375" style="fill: #bbbbbb; stroke: #bbbbbb; stroke-width: 0.75"/>
      </g>
     </g>
     <g id="text_10">
      <!-- Апр -->
      <g style="fill: #9f9f9f" transform="translate(284.386711 190.266875) scale(0.08 -0.08)">
       <use xlink:href="#Ubuntu-410"/>
       <use xlink:href="#Ubuntu-43f" x="66.299988"/>
       <use xlink:href="#Ubuntu-440" x="124.099976"/>
      </g>
     </g>
    </g>
    <g id="xtick_11">
     <g id="line2d_11">
      <g>
       <use xlink:href="#mb41de0ae8a" x="342.225687" y="178.559375" style="fill: #bbbbbb; stroke: #bbbbbb; stroke-width: 0.75"/>
      </g>
     </g>
     <g id="text_11">
      <!-- Июл -->
      <g style="fill: #9f9f9f" transform="translate(333.678187 190.266875) scale(0.08 -0.08)">
       <use xlink:href="#Ubuntu-418"/>
       <use xlink:href="#Ubuntu-44e" x="72.799988"/>
       <use xlink:href="#Ubuntu-43b" x="153.899979"/>
      </g>
     </g>
    </g>
    <g id="xtick_12">
     <g id="line2d_12">
      <g>
       <use xlink:href="#mb41de0ae8a" x="393.299816" y="178.559375" style="fill: #bbbbbb; stroke: #bbbbbb; stroke-width: 0.75"/>
      </g>
     </g>
     <g id="text_12">
      <!-- Окт -->
      <g style="fill: #9f9f9f" transform="translate(386.187941 190.266875) scale(0.08 -0.08)">
       <use xlink:href="#Ubuntu-41e"/>
       <use xlink:href="#Ubuntu-43a" x="77.799988"/>
       <use xlink:href="#Ubuntu-442" x="131.499985"/>
      </g>
     </g>
    </g>
    <g id="xtick_13">
     <g id="line2d_13">
      <g>
       <use xlink:href="#mb41de0ae8a" x="444.373945" y="178.559375" style="fill: #bbbbbb; stroke: #bbbbbb; stroke-width: 0.75"/>
      </g>
     </g>
     <g id="text_13">
      <!-- Янв -->
      <g style="fill: #9f9f9f" transform="translate(437.29832 190.266875) scale(0.08 -0.08)">
       <use xlink:href="#Ubuntu-42f"/>
       <use xlink:href="#Ubuntu-43d" x="63.499985"/>
       <use xlink:href="#Ubuntu-432" x="122.099976"/>
      </g>
     </g>
    </g>
    <g id="xtick_14">
     <g id="line2d_14">
      <g>
       <use xlink:href="#mb41de0ae8a" x="494.337767" y="178.559375" style="fill: #bbbbbb; stroke: #bbbbbb; stroke-width: 0.75"/>
      </g>
     </g>
     <g id="text_14">
      <!-- Апр -->
      <g style="fill: #9f9f9f" transform="translate(487.017767 190.266875) scale(0.08 -0.08)">
       <use xlink:href="#Ubuntu-410"/>
       <use xlink:href="#Ubuntu-43f" x="66.299988"/>
       <use xlink:href="#Ubuntu-440" x="124.099976"/>
      </g>
     </g>
    </g>
    <g id="xtick_15">
     <g id="line2d_15">
      <g>
       <use xlink:href="#mb41de0ae8a" x="544.856742" y="178.559375" style="fill: #bbbbbb; stroke: #bbbbbb; stroke-width: 0.75"/>
      </g>
     </g>
     <g id="text_15">
      <!-- Июл -->
      <g style="fill: #9f9f9f" transform="translate(536.309242 190.266875) scale(0.08 -0.08)">
       <use xlink:href="#Ubuntu-418"/>
       <use xlink:href="#Ubuntu-44e" x="72.799988"/>
       <use xlink:href="#Ubuntu-43b" x="153.899979"/>
      </g>
     </g>
    </g>
    <g id="xtick_16">
     <g id="line2d_16">
      <g>
       <use xlink:href="#mb41de0ae8a" x="595.930871" y="178.559375" style="fill: #bbbbbb; stroke: #bbbbbb; stroke-width: 0.75"/>
      </g>
     </g>
     <g id="text_16">
      <!-- Окт -->
      <g style="fill: #9f9f9f" transform="translate(588.818996 190.266875) scale(0.08 -0.08)">
       <use xlink:href="#Ubuntu-41e"/>
       <use xlink:href="#Ubuntu-43a" x="77.799988"/>
       <use xlink:href="#Ubuntu-442" x="131.499985"/>
      </g>
     </g>
    </g>
    <g id="xtick_17">
     <g id="line2d_17">
      <g>
       <use xlink:href="#mb41de0ae8a" x="647.005" y="178.559375" style="fill: #bbbbbb; stroke: #bbbbbb; stroke-width: 0.75"/>
      </g>
     </g>
     <g id="text_17">
      <!-- Янв -->
      <g style="fill: #9f9f9f" transform="translate(639.929375 190.266875) scale(0.08 -0.08)">
       <use xlink:href="#Ubuntu-42f"/>
       <use xlink:href="#Ubuntu-43d" x="63.499985"/>
       <use xlink:href="#Ubuntu-432" x="122.099976"/>
      </g>
     </g>
    </g>
   </g>
   <g id="matplotlib.axis_4">
    <g id="ytick_1">
     <g id="line2d_18">
      <defs>
       <path id="m9844e33b30" d="M 0 0 
L -2 0 
" style="stroke: #bbbbbb; stroke-width: 0.75"/>
      </defs>
      <g>
       <use xlink:href="#m9844e33b30" x="28.205" y="168.559375" style="fill: #bbbbbb; stroke: #bbbbbb; stroke-width: 0.75"/>
      </g>
     </g>
     <g id="text_18">
      <!-- 0.98 -->
      <g style="fill: #9f9f9f" transform="translate(7.2 171.663125) scale(0.08 -0.08)">
       <defs>
        <path id="Ubuntu-2e" d="M 1216 346 
Q 1216 173 1101 45 
Q 986 -83 787 -83 
Q 589 -83 473 45 
Q 358 173 358 346 
Q 358 518 473 646 
Q 589 774 787 774 
Q 986 774 1101 646 
Q 1216 518 1216 346 
z
" transform="scale(0.015625)"/>
        <path id="Ubuntu-39" d="M 3206 2662 
Q 3206 1344 2550 669 
Q 1894 -6 602 -13 
L 582 486 
Q 986 486 1309 563 
Q 1632 640 1875 809 
Q 2118 979 2281 1248 
Q 2445 1517 2522 1907 
Q 2355 1830 2144 1782 
Q 1933 1734 1709 1734 
Q 1331 1734 1068 1846 
Q 806 1958 640 2147 
Q 474 2336 400 2582 
Q 326 2829 326 3098 
Q 326 3334 409 3590 
Q 493 3846 662 4057 
Q 832 4269 1094 4403 
Q 1357 4538 1715 4538 
Q 2080 4538 2358 4410 
Q 2637 4282 2825 4038 
Q 3014 3795 3110 3446 
Q 3206 3098 3206 2662 
z
M 1773 2221 
Q 1997 2221 2195 2262 
Q 2394 2304 2579 2387 
Q 2586 2458 2586 2525 
Q 2586 2592 2586 2662 
Q 2586 2938 2547 3190 
Q 2509 3443 2409 3632 
Q 2310 3821 2144 3933 
Q 1978 4045 1722 4045 
Q 1510 4045 1363 3955 
Q 1216 3866 1120 3728 
Q 1024 3590 982 3427 
Q 941 3264 941 3110 
Q 941 2675 1149 2448 
Q 1357 2221 1773 2221 
z
" transform="scale(0.015625)"/>
        <path id="Ubuntu-38" d="M 3258 1152 
Q 3258 883 3165 656 
Q 3072 429 2889 259 
Q 2707 90 2432 -3 
Q 2157 -96 1798 -96 
Q 1382 -96 1104 22 
Q 826 141 659 320 
Q 493 499 422 713 
Q 352 928 352 1120 
Q 352 1306 413 1475 
Q 474 1645 573 1792 
Q 672 1939 803 2057 
Q 934 2176 1082 2266 
Q 454 2624 454 3322 
Q 454 3565 550 3785 
Q 646 4006 822 4172 
Q 998 4339 1248 4438 
Q 1498 4538 1805 4538 
Q 2163 4538 2419 4429 
Q 2675 4320 2838 4150 
Q 3002 3981 3075 3776 
Q 3149 3571 3149 3379 
Q 3149 3194 3094 3030 
Q 3040 2867 2947 2726 
Q 2854 2586 2736 2477 
Q 2618 2368 2490 2285 
Q 3245 1926 3258 1152 
z
M 954 1114 
Q 954 998 995 873 
Q 1037 749 1139 643 
Q 1242 538 1402 467 
Q 1562 397 1805 397 
Q 2022 397 2185 461 
Q 2349 525 2451 624 
Q 2554 723 2605 851 
Q 2656 979 2656 1114 
Q 2656 1318 2579 1472 
Q 2502 1626 2358 1741 
Q 2214 1856 2012 1936 
Q 1811 2016 1555 2074 
Q 1267 1914 1110 1677 
Q 954 1440 954 1114 
z
M 2554 3386 
Q 2554 3482 2512 3597 
Q 2470 3712 2380 3811 
Q 2291 3910 2150 3977 
Q 2010 4045 1805 4045 
Q 1600 4045 1456 3981 
Q 1312 3917 1222 3817 
Q 1133 3718 1091 3600 
Q 1050 3482 1050 3366 
Q 1050 3226 1101 3085 
Q 1152 2944 1261 2822 
Q 1370 2701 1546 2605 
Q 1722 2509 1965 2451 
Q 2234 2611 2394 2825 
Q 2554 3040 2554 3386 
z
" transform="scale(0.015625)"/>
       </defs>
       <use xlink:href="#Ubuntu-30"/>
       <use xlink:href="#Ubuntu-2e" x="56.399994"/>
       <use xlink:href="#Ubuntu-39" x="80.999985"/>
       <use xlink:href="#Ubuntu-38" x="137.399979"/>
      </g>
     </g>
    </g>
    <g id="ytick_2">
     <g id="line2d_19">
      <g>
       <use xlink:href="#m9844e33b30" x="28.205" y="148.759375" style="fill: #bbbbbb; stroke: #bbbbbb; stroke-width: 0.75"/>
      </g>
     </g>
     <g id="text_19">
      <!-- 0.99 -->
      <g style="fill: #9f9f9f" transform="translate(7.2 151.863125) scale(0.08 -0.08)">
       <use xlink:href="#Ubuntu-30"/>
       <use xlink:href="#Ubuntu-2e" x="56.399994"/>
       <use xlink:href="#Ubuntu-39" x="80.999985"/>
       <use xlink:href="#Ubuntu-39" x="137.399979"/>
      </g>
     </g>
    </g>
    <g id="ytick_3">
     <g id="line2d_20">
      <g>
       <use xlink:href="#m9844e33b30" x="28.205" y="128.959375" style="fill: #bbbbbb; stroke: #bbbbbb; stroke-width: 0.75"/>
      </g>
     </g>
     <g id="text_20">
      <!-- 1.00 -->
      <g style="fill: #9f9f9f" transform="translate(7.2 132.063125) scale(0.08 -0.08)">
       <use xlink:href="#Ubuntu-31"/>
       <use xlink:href="#Ubuntu-2e" x="56.399994"/>
       <use xlink:href="#Ubuntu-30" x="80.999985"/>
       <use xlink:href="#Ubuntu-30" x="137.399979"/>
      </g>
     </g>
    </g>
    <g id="ytick_4">
     <g id="line2d_21">
      <g>
       <use xlink:href="#m9844e33b30" x="28.205" y="109.159375" style="fill: #bbbbbb; stroke: #bbbbbb; stroke-width: 0.75"/>
      </g>
     </g>
     <g id="text_21">
      <!-- 1.01 -->
      <g style="fill: #9f9f9f" transform="translate(7.2 112.263125) scale(0.08 -0.08)">
       <use xlink:href="#Ubuntu-31"/>
       <use xlink:href="#Ubuntu-2e" x="56.399994"/>
       <use xlink:href="#Ubuntu-30" x="80.999985"/>
       <use xlink:href="#Ubuntu-31" x="137.399979"/>
      </g>
     </g>
    </g>
    <g id="ytick_5">
     <g id="line2d_22">
      <g>
       <use xlink:href="#m9844e33b30" x="28.205" y="89.359375" style="fill: #bbbbbb; stroke: #bbbbbb; stroke-width: 0.75"/>
      </g>
     </g>
     <g id="text_22">
      <!-- 1.02 -->
      <g style="fill: #9f9f9f" transform="translate(7.2 92.463125) scale(0.08 -0.08)">
       <use xlink:href="#Ubuntu-31"/>
       <use xlink:href="#Ubuntu-2e" x="56.399994"/>
       <use xlink:href="#Ubuntu-30" x="80.999985"/>
       <use xlink:href="#Ubuntu-32" x="137.399979"/>
      </g>
     </g>
    </g>
    <g id="ytick_6">
     <g id="line2d_23">
      <g>
       <use xlink:href="#m9844e33b30" x="28.205" y="69.559375" style="fill: #bbbbbb; stroke: #bbbbbb; stroke-width: 0.75"/>
      </g>
     </g>
     <g id="text_23">
      <!-- 1.03 -->
      <g style="fill: #9f9f9f" transform="translate(7.2 72.663125) scale(0.08 -0.08)">
       <use xlink:href="#Ubuntu-31"/>
       <use xlink:href="#Ubuntu-2e" x="56.399994"/>
       <use xlink:href="#Ubuntu-30" x="80.999985"/>
       <use xlink:href="#Ubuntu-33" x="137.399979"/>
      </g>
     </g>
    </g>
    <g id="ytick_7">
     <g id="line2d_24">
      <g>
       <use xlink:href="#m9844e33b30" x="28.205" y="49.759375" style="fill: #bbbbbb; stroke: #bbbbbb; stroke-width: 0.75"/>
      </g>
     </g>
     <g id="text_24">
      <!-- 1.04 -->
      <g style="fill: #9f9f9f" transform="translate(7.2 52.863125) scale(0.08 -0.08)">
       <use xlink:href="#Ubuntu-31"/>
       <use xlink:href="#Ubuntu-2e" x="56.399994"/>
       <use xlink:href="#Ubuntu-30" x="80.999985"/>
       <use xlink:href="#Ubuntu-34" x="137.399979"/>
      </g>
     </g>
    </g>
    <g id="ytick_8">
     <g id="line2d_25">
      <g>
       <use xlink:href="#m9844e33b30" x="28.205" y="29.959375" style="fill: #bbbbbb; stroke: #bbbbbb; stroke-width: 0.75"/>
      </g>
     </g>
     <g id="text_25">
      <!-- 1.05 -->
      <g style="fill: #9f9f9f" transform="translate(7.2 33.063125) scale(0.08 -0.08)">
       <defs>
        <path id="Ubuntu-35" d="M 1274 2726 
Q 2240 2688 2691 2304 
Q 3142 1920 3142 1261 
Q 3142 966 3043 716 
Q 2944 467 2742 288 
Q 2541 109 2233 6 
Q 1926 -96 1504 -96 
Q 1338 -96 1165 -70 
Q 992 -45 845 -6 
Q 698 32 582 70 
Q 467 109 416 134 
L 531 653 
Q 640 602 886 518 
Q 1133 435 1491 435 
Q 1779 435 1974 499 
Q 2170 563 2291 672 
Q 2413 781 2467 925 
Q 2522 1069 2522 1229 
Q 2522 1472 2438 1661 
Q 2355 1850 2144 1978 
Q 1933 2106 1581 2173 
Q 1229 2240 691 2240 
Q 730 2554 752 2829 
Q 774 3104 793 3366 
Q 813 3629 825 3888 
Q 838 4147 851 4435 
L 2989 4435 
L 2989 3930 
L 1370 3930 
Q 1363 3834 1350 3670 
Q 1338 3507 1325 3331 
Q 1312 3155 1299 2988 
Q 1286 2822 1274 2726 
z
" transform="scale(0.015625)"/>
       </defs>
       <use xlink:href="#Ubuntu-31"/>
       <use xlink:href="#Ubuntu-2e" x="56.399994"/>
       <use xlink:href="#Ubuntu-30" x="80.999985"/>
       <use xlink:href="#Ubuntu-35" x="137.399979"/>
      </g>
     </g>
    </g>
   </g>
   <g id="line2d_26">
    <path d="M 39.111834 128.959375 
L 39.111834 128.959375 
" clip-path="url(#pf93fe30e1c)" style="fill: none; stroke: #d6d6d6; stroke-width: 0.75; stroke-linecap: square"/>
   </g>
   <g id="line2d_27">
    <path d="M 56.321595 128.959375 
L 56.321595 136.468854 
" clip-path="url(#pf93fe30e1c)" style="fill: none; stroke: #d6d6d6; stroke-width: 0.75; stroke-linecap: square"/>
   </g>
   <g id="line2d_28">
    <path d="M 71.865895 128.959375 
L 71.865895 113.830721 
" clip-path="url(#pf93fe30e1c)" style="fill: none; stroke: #d6d6d6; stroke-width: 0.75; stroke-linecap: square"/>
   </g>
   <g id="line2d_29">
    <path d="M 89.075656 128.959375 
L 89.075656 115.253248 
" clip-path="url(#pf93fe30e1c)" style="fill: none; stroke: #d6d6d6; stroke-width: 0.75; stroke-linecap: square"/>
   </g>
   <g id="line2d_30">
    <path d="M 105.730263 128.959375 
L 105.730263 114.078478 
" clip-path="url(#pf93fe30e1c)" style="fill: none; stroke: #d6d6d6; stroke-width: 0.75; stroke-linecap: square"/>
   </g>
   <g id="line2d_31">
    <path d="M 122.940024 128.959375 
L 122.940024 123.999069 
" clip-path="url(#pf93fe30e1c)" style="fill: none; stroke: #d6d6d6; stroke-width: 0.75; stroke-linecap: square"/>
   </g>
   <g id="line2d_32">
    <path d="M 139.594631 128.959375 
L 139.594631 128.309466 
" clip-path="url(#pf93fe30e1c)" style="fill: none; stroke: #d6d6d6; stroke-width: 0.75; stroke-linecap: square"/>
   </g>
   <g id="line2d_33">
    <path d="M 156.804392 128.959375 
L 156.804392 116.448164 
" clip-path="url(#pf93fe30e1c)" style="fill: none; stroke: #d6d6d6; stroke-width: 0.75; stroke-linecap: square"/>
   </g>
   <g id="line2d_34">
    <path d="M 174.014153 128.959375 
L 174.014153 86.888604 
" clip-path="url(#pf93fe30e1c)" style="fill: none; stroke: #d6d6d6; stroke-width: 0.75; stroke-linecap: square"/>
   </g>
   <g id="line2d_35">
    <path d="M 190.66876 128.959375 
L 190.66876 70.440804 
" clip-path="url(#pf93fe30e1c)" style="fill: none; stroke: #d6d6d6; stroke-width: 0.75; stroke-linecap: square"/>
   </g>
   <g id="line2d_36">
    <path d="M 207.878521 128.959375 
L 207.878521 67.504313 
" clip-path="url(#pf93fe30e1c)" style="fill: none; stroke: #d6d6d6; stroke-width: 0.75; stroke-linecap: square"/>
   </g>
   <g id="line2d_37">
    <path d="M 224.533129 128.959375 
L 224.533129 73.281495 
" clip-path="url(#pf93fe30e1c)" style="fill: none; stroke: #d6d6d6; stroke-width: 0.75; stroke-linecap: square"/>
   </g>
   <g id="line2d_38">
    <path d="M 241.742889 128.959375 
L 241.742889 80.328019 
" clip-path="url(#pf93fe30e1c)" style="fill: none; stroke: #d6d6d6; stroke-width: 0.75; stroke-linecap: square"/>
   </g>
   <g id="line2d_39">
    <path d="M 258.95265 128.959375 
L 258.95265 73.293509 
" clip-path="url(#pf93fe30e1c)" style="fill: none; stroke: #d6d6d6; stroke-width: 0.75; stroke-linecap: square"/>
   </g>
   <g id="line2d_40">
    <path d="M 274.49695 128.959375 
L 274.49695 50.673572 
" clip-path="url(#pf93fe30e1c)" style="fill: none; stroke: #d6d6d6; stroke-width: 0.75; stroke-linecap: square"/>
   </g>
   <g id="line2d_41">
    <path d="M 291.706711 128.959375 
L 291.706711 59.123806 
" clip-path="url(#pf93fe30e1c)" style="fill: none; stroke: #d6d6d6; stroke-width: 0.75; stroke-linecap: square"/>
   </g>
   <g id="line2d_42">
    <path d="M 308.361319 128.959375 
L 308.361319 64.637348 
" clip-path="url(#pf93fe30e1c)" style="fill: none; stroke: #d6d6d6; stroke-width: 0.75; stroke-linecap: square"/>
   </g>
   <g id="line2d_43">
    <path d="M 325.571079 128.959375 
L 325.571079 77.242728 
" clip-path="url(#pf93fe30e1c)" style="fill: none; stroke: #d6d6d6; stroke-width: 0.75; stroke-linecap: square"/>
   </g>
   <g id="line2d_44">
    <path d="M 342.225687 128.959375 
L 342.225687 81.060394 
" clip-path="url(#pf93fe30e1c)" style="fill: none; stroke: #d6d6d6; stroke-width: 0.75; stroke-linecap: square"/>
   </g>
   <g id="line2d_45">
    <path d="M 359.435448 128.959375 
L 359.435448 87.875081 
" clip-path="url(#pf93fe30e1c)" style="fill: none; stroke: #d6d6d6; stroke-width: 0.75; stroke-linecap: square"/>
   </g>
   <g id="line2d_46">
    <path d="M 376.645208 128.959375 
L 376.645208 83.349127 
" clip-path="url(#pf93fe30e1c)" style="fill: none; stroke: #d6d6d6; stroke-width: 0.75; stroke-linecap: square"/>
   </g>
   <g id="line2d_47">
    <path d="M 393.299816 128.959375 
L 393.299816 77.189443 
" clip-path="url(#pf93fe30e1c)" style="fill: none; stroke: #d6d6d6; stroke-width: 0.75; stroke-linecap: square"/>
   </g>
   <g id="line2d_48">
    <path d="M 410.509577 128.959375 
L 410.509577 72.761126 
" clip-path="url(#pf93fe30e1c)" style="fill: none; stroke: #d6d6d6; stroke-width: 0.75; stroke-linecap: square"/>
   </g>
   <g id="line2d_49">
    <path d="M 427.164184 128.959375 
L 427.164184 68.088966 
" clip-path="url(#pf93fe30e1c)" style="fill: none; stroke: #d6d6d6; stroke-width: 0.75; stroke-linecap: square"/>
   </g>
   <g id="line2d_50">
    <path d="M 444.373945 128.959375 
L 444.373945 58.20626 
" clip-path="url(#pf93fe30e1c)" style="fill: none; stroke: #d6d6d6; stroke-width: 0.75; stroke-linecap: square"/>
   </g>
   <g id="line2d_51">
    <path d="M 461.583706 128.959375 
L 461.583706 55.166627 
" clip-path="url(#pf93fe30e1c)" style="fill: none; stroke: #d6d6d6; stroke-width: 0.75; stroke-linecap: square"/>
   </g>
   <g id="line2d_52">
    <path d="M 477.128006 128.959375 
L 477.128006 48.501662 
" clip-path="url(#pf93fe30e1c)" style="fill: none; stroke: #d6d6d6; stroke-width: 0.75; stroke-linecap: square"/>
   </g>
   <g id="line2d_53">
    <path d="M 494.337767 128.959375 
L 494.337767 42.271386 
" clip-path="url(#pf93fe30e1c)" style="fill: none; stroke: #d6d6d6; stroke-width: 0.75; stroke-linecap: square"/>
   </g>
   <g id="line2d_54">
    <path d="M 510.992374 128.959375 
L 510.992374 36.381875 
" clip-path="url(#pf93fe30e1c)" style="fill: none; stroke: #d6d6d6; stroke-width: 0.75; stroke-linecap: square"/>
   </g>
   <g id="line2d_55">
    <path d="M 528.202135 128.959375 
L 528.202135 37.200463 
" clip-path="url(#pf93fe30e1c)" style="fill: none; stroke: #d6d6d6; stroke-width: 0.75; stroke-linecap: square"/>
   </g>
   <g id="line2d_56">
    <path d="M 544.856742 128.959375 
L 544.856742 39.643228 
" clip-path="url(#pf93fe30e1c)" style="fill: none; stroke: #d6d6d6; stroke-width: 0.75; stroke-linecap: square"/>
   </g>
   <g id="line2d_57">
    <path d="M 562.066503 128.959375 
L 562.066503 43.45792 
" clip-path="url(#pf93fe30e1c)" style="fill: none; stroke: #d6d6d6; stroke-width: 0.75; stroke-linecap: square"/>
   </g>
   <g id="line2d_58">
    <path d="M 579.276264 128.959375 
L 579.276264 36.774132 
" clip-path="url(#pf93fe30e1c)" style="fill: none; stroke: #d6d6d6; stroke-width: 0.75; stroke-linecap: square"/>
   </g>
   <g id="line2d_59">
    <path d="M 595.930871 128.959375 
L 595.930871 44.770752 
" clip-path="url(#pf93fe30e1c)" style="fill: none; stroke: #d6d6d6; stroke-width: 0.75; stroke-linecap: square"/>
   </g>
   <g id="line2d_60">
    <path d="M 613.140632 128.959375 
L 613.140632 57.444678 
" clip-path="url(#pf93fe30e1c)" style="fill: none; stroke: #d6d6d6; stroke-width: 0.75; stroke-linecap: square"/>
   </g>
   <g id="line2d_61">
    <path d="M 629.795239 128.959375 
L 629.795239 60.522104 
" clip-path="url(#pf93fe30e1c)" style="fill: none; stroke: #d6d6d6; stroke-width: 0.75; stroke-linecap: square"/>
   </g>
   <g id="patch_4">
    <path d="M 28.205 168.559375 
L 28.205 29.959375 
" style="fill: none; stroke: #bbbbbb; stroke-width: 0.75; stroke-linejoin: miter; stroke-linecap: square"/>
   </g>
   <g id="patch_5">
    <path d="M 39.111834 178.559375 
L 647.005 178.559375 
" style="fill: none; stroke: #bbbbbb; stroke-width: 0.75; stroke-linejoin: miter; stroke-linecap: square"/>
   </g>
   <g id="text_26">
    <!-- Соотношение цены филе говядины и цены обычной говядины -->
    <g style="fill: #303030" transform="translate(33.205 14.959375) scale(0.1 -0.1)">
     <defs>
      <path id="Ubuntu-Medium-421" d="M 2502 -96 
Q 2003 -96 1606 57 
Q 1210 211 934 508 
Q 659 806 512 1235 
Q 365 1664 365 2221 
Q 365 2778 534 3206 
Q 704 3635 998 3932 
Q 1293 4230 1689 4384 
Q 2086 4538 2541 4538 
Q 2816 4538 3040 4496 
Q 3264 4454 3430 4403 
Q 3597 4352 3705 4294 
Q 3814 4237 3859 4211 
L 3622 3552 
Q 3469 3648 3184 3734 
Q 2899 3821 2566 3821 
Q 2278 3821 2028 3721 
Q 1779 3622 1596 3424 
Q 1414 3226 1312 2925 
Q 1210 2624 1210 2227 
Q 1210 1875 1290 1580 
Q 1370 1286 1536 1072 
Q 1702 858 1958 739 
Q 2214 621 2573 621 
Q 3002 621 3270 707 
Q 3539 794 3686 870 
L 3904 211 
Q 3827 160 3696 109 
Q 3565 58 3385 10 
Q 3206 -38 2982 -67 
Q 2758 -96 2502 -96 
z
" transform="scale(0.015625)"/>
      <path id="Ubuntu-Medium-43e" d="M 3520 1677 
Q 3520 1280 3405 953 
Q 3290 627 3078 396 
Q 2867 166 2569 38 
Q 2272 -90 1914 -90 
Q 1555 -90 1260 38 
Q 966 166 755 396 
Q 544 627 425 953 
Q 307 1280 307 1677 
Q 307 2074 425 2397 
Q 544 2720 758 2950 
Q 973 3181 1267 3305 
Q 1562 3430 1914 3430 
Q 2266 3430 2563 3305 
Q 2861 3181 3072 2950 
Q 3283 2720 3401 2397 
Q 3520 2074 3520 1677 
z
M 2726 1677 
Q 2726 2176 2512 2467 
Q 2298 2758 1914 2758 
Q 1530 2758 1315 2467 
Q 1101 2176 1101 1677 
Q 1101 1171 1315 876 
Q 1530 582 1914 582 
Q 2298 582 2512 876 
Q 2726 1171 2726 1677 
z
" transform="scale(0.015625)"/>
      <path id="Ubuntu-Medium-442" d="M 3014 2701 
L 1933 2701 
L 1933 0 
L 1158 0 
L 1158 2701 
L 83 2701 
L 83 3347 
L 3014 3347 
L 3014 2701 
z
" transform="scale(0.015625)"/>
      <path id="Ubuntu-Medium-43d" d="M 3302 0 
L 2528 0 
L 2528 1402 
L 1267 1402 
L 1267 0 
L 493 0 
L 493 3347 
L 1267 3347 
L 1267 2042 
L 2528 2042 
L 2528 3347 
L 3302 3347 
L 3302 0 
z
" transform="scale(0.015625)"/>
      <path id="Ubuntu-Medium-448" d="M 493 3347 
L 1267 3347 
L 1267 634 
L 2317 634 
L 2317 3347 
L 3091 3347 
L 3091 634 
L 4141 634 
L 4141 3347 
L 4915 3347 
L 4915 0 
L 493 0 
L 493 3347 
z
" transform="scale(0.015625)"/>
      <path id="Ubuntu-Medium-435" d="M 307 1658 
Q 307 2099 438 2432 
Q 570 2765 787 2985 
Q 1005 3206 1286 3318 
Q 1568 3430 1862 3430 
Q 2554 3430 2941 3001 
Q 3328 2573 3328 1722 
Q 3328 1658 3325 1578 
Q 3322 1498 3315 1434 
L 1107 1434 
Q 1139 1030 1392 809 
Q 1645 589 2125 589 
Q 2406 589 2640 640 
Q 2874 691 3008 749 
L 3110 115 
Q 3046 83 2934 48 
Q 2822 13 2678 -16 
Q 2534 -45 2368 -64 
Q 2202 -83 2029 -83 
Q 1587 -83 1260 48 
Q 934 179 723 412 
Q 512 646 409 963 
Q 307 1280 307 1658 
z
M 2554 2003 
Q 2554 2163 2509 2307 
Q 2464 2451 2377 2556 
Q 2291 2662 2166 2723 
Q 2042 2784 1869 2784 
Q 1690 2784 1555 2717 
Q 1421 2650 1328 2541 
Q 1235 2432 1184 2291 
Q 1133 2150 1114 2003 
L 2554 2003 
z
" transform="scale(0.015625)"/>
      <path id="Ubuntu-Medium-438" d="M 3424 3347 
L 3424 0 
L 2656 0 
Q 2656 365 2659 723 
Q 2662 1082 2665 1389 
Q 2669 1696 2672 1923 
Q 2675 2150 2675 2259 
Q 2483 2010 2278 1709 
Q 2074 1408 1872 1107 
Q 1670 806 1491 518 
Q 1312 230 1178 0 
L 493 0 
L 493 3347 
L 1254 3347 
Q 1254 2976 1251 2640 
Q 1248 2304 1248 2029 
Q 1248 1754 1245 1549 
Q 1242 1344 1242 1235 
Q 1421 1510 1613 1801 
Q 1805 2093 2000 2371 
Q 2195 2650 2387 2899 
Q 2579 3149 2758 3347 
L 3424 3347 
z
" transform="scale(0.015625)"/>
      <path id="Ubuntu-Medium-20" transform="scale(0.015625)"/>
      <path id="Ubuntu-Medium-446" d="M 3776 634 
L 3776 -947 
L 3091 -947 
L 3091 0 
L 493 0 
L 493 3347 
L 1267 3347 
L 1267 634 
L 2496 634 
L 2496 3347 
L 3270 3347 
L 3270 634 
L 3776 634 
z
" transform="scale(0.015625)"/>
      <path id="Ubuntu-Medium-44b" d="M 4570 0 
L 3795 0 
L 3795 3347 
L 4570 3347 
L 4570 0 
z
M 1267 2112 
Q 1363 2138 1545 2157 
Q 1728 2176 1901 2176 
Q 2176 2176 2422 2112 
Q 2669 2048 2851 1910 
Q 3034 1773 3139 1558 
Q 3245 1344 3245 1050 
Q 3245 749 3142 537 
Q 3040 326 2854 192 
Q 2669 58 2409 -6 
Q 2150 -70 1837 -70 
Q 1472 -70 1149 -32 
Q 826 6 493 83 
L 493 3347 
L 1267 3347 
L 1267 2112 
z
M 1818 538 
Q 2118 538 2294 662 
Q 2470 787 2470 1062 
Q 2470 1203 2412 1299 
Q 2355 1395 2256 1456 
Q 2157 1517 2032 1542 
Q 1907 1568 1773 1568 
Q 1651 1568 1507 1558 
Q 1363 1549 1267 1523 
L 1267 570 
Q 1350 557 1510 547 
Q 1670 538 1818 538 
z
" transform="scale(0.015625)"/>
      <path id="Ubuntu-Medium-444" d="M 2118 2694 
Q 1664 2669 1376 2409 
Q 1088 2150 1088 1658 
Q 1088 1165 1373 915 
Q 1658 666 2118 634 
L 2118 2694 
z
M 2867 634 
Q 3072 640 3261 701 
Q 3450 762 3590 890 
Q 3731 1018 3814 1210 
Q 3898 1402 3898 1664 
Q 3898 1926 3814 2118 
Q 3731 2310 3590 2435 
Q 3450 2560 3261 2624 
Q 3072 2688 2867 2694 
L 2867 634 
z
M 2867 -1184 
L 2118 -1184 
L 2118 -19 
Q 1709 0 1373 128 
Q 1037 256 800 477 
Q 563 698 432 998 
Q 301 1299 301 1664 
Q 301 2022 429 2316 
Q 557 2611 790 2828 
Q 1024 3046 1360 3177 
Q 1696 3309 2118 3341 
L 2118 4832 
L 2867 4966 
L 2867 3341 
Q 3232 3322 3561 3206 
Q 3891 3091 4140 2880 
Q 4390 2669 4537 2365 
Q 4685 2061 4685 1664 
Q 4685 1261 4541 953 
Q 4397 646 4147 438 
Q 3898 230 3568 115 
Q 3238 0 2867 -19 
L 2867 -1184 
z
" transform="scale(0.015625)"/>
      <path id="Ubuntu-Medium-43b" d="M 1805 2707 
Q 1798 2426 1785 2122 
Q 1773 1818 1725 1523 
Q 1677 1229 1574 960 
Q 1472 691 1289 476 
Q 1107 262 835 118 
Q 563 -26 173 -64 
L 64 582 
Q 390 646 569 790 
Q 749 934 845 1158 
Q 922 1325 963 1536 
Q 1005 1747 1027 1980 
Q 1050 2214 1056 2457 
Q 1062 2701 1062 2931 
L 1062 3347 
L 3430 3347 
L 3430 0 
L 2656 0 
L 2656 2707 
L 1805 2707 
z
" transform="scale(0.015625)"/>
      <path id="Ubuntu-Medium-433" d="M 2714 2707 
L 1267 2707 
L 1267 0 
L 493 0 
L 493 3347 
L 2714 3347 
L 2714 2707 
z
" transform="scale(0.015625)"/>
      <path id="Ubuntu-Medium-432" d="M 1824 -64 
Q 1638 -64 1446 -51 
Q 1254 -38 1078 -19 
Q 902 0 748 22 
Q 595 45 493 70 
L 493 3302 
Q 595 3328 748 3350 
Q 902 3373 1078 3389 
Q 1254 3405 1446 3414 
Q 1638 3424 1824 3424 
Q 2502 3424 2880 3177 
Q 3258 2931 3258 2490 
Q 3258 2259 3142 2080 
Q 3027 1901 2842 1811 
Q 3072 1722 3238 1530 
Q 3405 1338 3405 986 
Q 3405 480 3008 208 
Q 2611 -64 1824 -64 
z
M 1843 2003 
Q 2131 2003 2320 2086 
Q 2509 2170 2509 2419 
Q 2509 2541 2448 2617 
Q 2387 2694 2284 2739 
Q 2182 2784 2048 2800 
Q 1914 2816 1766 2816 
Q 1651 2816 1500 2809 
Q 1350 2803 1261 2790 
L 1261 2003 
L 1843 2003 
z
M 1261 576 
Q 1338 563 1514 553 
Q 1690 544 1843 544 
Q 2189 544 2416 640 
Q 2643 736 2643 1005 
Q 2643 1267 2435 1366 
Q 2227 1466 1894 1466 
L 1261 1466 
L 1261 576 
z
" transform="scale(0.015625)"/>
      <path id="Ubuntu-Medium-44f" d="M 1971 1242 
Q 1894 1242 1817 1242 
Q 1741 1242 1670 1248 
Q 1466 941 1293 617 
Q 1120 294 973 0 
L 179 0 
Q 352 397 563 761 
Q 774 1126 960 1382 
Q 646 1517 502 1744 
Q 358 1971 358 2278 
Q 358 2560 464 2774 
Q 570 2989 762 3133 
Q 954 3277 1222 3350 
Q 1491 3424 1818 3424 
Q 2195 3424 2550 3379 
Q 2906 3334 3130 3277 
L 3130 0 
L 2355 0 
L 2355 1242 
L 1971 1242 
z
M 2355 2784 
Q 2285 2797 2137 2806 
Q 1990 2816 1837 2816 
Q 1126 2816 1126 2291 
Q 1126 2150 1180 2057 
Q 1235 1965 1331 1907 
Q 1427 1850 1555 1827 
Q 1683 1805 1830 1805 
L 2355 1805 
L 2355 2784 
z
" transform="scale(0.015625)"/>
      <path id="Ubuntu-Medium-434" d="M 83 634 
L 467 634 
Q 666 896 778 1219 
Q 890 1542 941 1897 
Q 992 2253 1005 2624 
Q 1018 2995 1024 3347 
L 3424 3347 
L 3424 634 
L 3936 634 
L 3936 -947 
L 3245 -947 
L 3245 0 
L 768 0 
L 768 -947 
L 83 -947 
L 83 634 
z
M 2650 634 
L 2650 2707 
L 1741 2707 
Q 1728 2445 1709 2173 
Q 1690 1901 1638 1635 
Q 1587 1370 1500 1117 
Q 1414 864 1274 634 
L 2650 634 
z
" transform="scale(0.015625)"/>
      <path id="Ubuntu-Medium-431" d="M 3366 4288 
Q 3302 4275 3228 4262 
Q 3155 4250 3052 4237 
Q 2950 4224 2812 4208 
Q 2675 4192 2496 4173 
Q 2221 4141 2003 4067 
Q 1786 3994 1626 3856 
Q 1466 3718 1363 3507 
Q 1261 3296 1216 2995 
Q 1414 3123 1648 3193 
Q 1882 3264 2106 3264 
Q 2771 3264 3161 2841 
Q 3552 2419 3552 1619 
Q 3552 1235 3443 921 
Q 3334 608 3129 384 
Q 2925 160 2637 35 
Q 2349 -90 1984 -90 
Q 1530 -90 1222 60 
Q 915 211 729 489 
Q 544 768 461 1158 
Q 378 1549 378 2029 
Q 378 2656 483 3139 
Q 589 3622 829 3968 
Q 1069 4314 1456 4528 
Q 1843 4742 2400 4826 
Q 2688 4870 2883 4896 
Q 3078 4922 3277 4966 
L 3366 4288 
z
M 1190 2317 
Q 1178 2234 1178 2115 
Q 1178 1997 1178 1894 
Q 1178 1606 1216 1363 
Q 1254 1120 1350 947 
Q 1446 774 1600 678 
Q 1754 582 1984 582 
Q 2182 582 2329 659 
Q 2477 736 2573 877 
Q 2669 1018 2717 1206 
Q 2765 1395 2765 1619 
Q 2765 1811 2723 1987 
Q 2682 2163 2589 2300 
Q 2496 2438 2342 2521 
Q 2189 2605 1965 2605 
Q 1747 2605 1532 2528 
Q 1318 2451 1190 2317 
z
" transform="scale(0.015625)"/>
      <path id="Ubuntu-Medium-447" d="M 1050 2310 
Q 1050 2003 1226 1878 
Q 1402 1754 1709 1754 
Q 1856 1754 2000 1770 
Q 2144 1786 2253 1811 
L 2253 3347 
L 3027 3347 
L 3027 0 
L 2253 0 
L 2253 1197 
Q 2138 1178 1952 1149 
Q 1766 1120 1619 1120 
Q 1318 1120 1072 1177 
Q 826 1235 646 1372 
Q 467 1510 371 1737 
Q 275 1965 275 2304 
L 275 3347 
L 1050 3347 
L 1050 2310 
z
" transform="scale(0.015625)"/>
      <path id="Ubuntu-Medium-439" d="M 3424 3347 
L 3424 0 
L 2656 0 
Q 2656 365 2659 723 
Q 2662 1082 2665 1389 
Q 2669 1696 2672 1923 
Q 2675 2150 2675 2259 
Q 2483 2010 2278 1709 
Q 2074 1408 1872 1107 
Q 1670 806 1491 518 
Q 1312 230 1178 0 
L 493 0 
L 493 3347 
L 1254 3347 
Q 1254 2976 1251 2640 
Q 1248 2304 1248 2029 
Q 1248 1754 1245 1549 
Q 1242 1344 1242 1235 
Q 1421 1510 1613 1801 
Q 1805 2093 2000 2371 
Q 2195 2650 2387 2899 
Q 2579 3149 2758 3347 
L 3424 3347 
z
M 1966 3846 
Q 1762 3846 1586 3904 
Q 1410 3962 1269 4070 
Q 1128 4179 1038 4336 
Q 949 4493 930 4691 
L 1486 4838 
Q 1595 4384 1966 4384 
Q 2344 4384 2446 4832 
L 2997 4685 
Q 2971 4486 2884 4329 
Q 2798 4173 2660 4067 
Q 2523 3962 2344 3904 
Q 2165 3846 1966 3846 
z
" transform="scale(0.015625)"/>
     </defs>
     <use xlink:href="#Ubuntu-Medium-421"/>
     <use xlink:href="#Ubuntu-Medium-43e" x="62.549988"/>
     <use xlink:href="#Ubuntu-Medium-43e" x="122.349976"/>
     <use xlink:href="#Ubuntu-Medium-442" x="182.149963"/>
     <use xlink:href="#Ubuntu-Medium-43d" x="230.549957"/>
     <use xlink:href="#Ubuntu-Medium-43e" x="289.849945"/>
     <use xlink:href="#Ubuntu-Medium-448" x="349.649933"/>
     <use xlink:href="#Ubuntu-Medium-435" x="434.149918"/>
     <use xlink:href="#Ubuntu-Medium-43d" x="491.249908"/>
     <use xlink:href="#Ubuntu-Medium-438" x="550.549896"/>
     <use xlink:href="#Ubuntu-Medium-435" x="611.749893"/>
     <use xlink:href="#Ubuntu-Medium-20" x="668.849884"/>
     <use xlink:href="#Ubuntu-Medium-446" x="692.149872"/>
     <use xlink:href="#Ubuntu-Medium-435" x="752.94986"/>
     <use xlink:href="#Ubuntu-Medium-43d" x="810.04985"/>
     <use xlink:href="#Ubuntu-Medium-44b" x="869.349838"/>
     <use xlink:href="#Ubuntu-Medium-20" x="948.449829"/>
     <use xlink:href="#Ubuntu-Medium-444" x="971.749817"/>
     <use xlink:href="#Ubuntu-Medium-438" x="1049.649811"/>
     <use xlink:href="#Ubuntu-Medium-43b" x="1110.849808"/>
     <use xlink:href="#Ubuntu-Medium-435" x="1172.149796"/>
     <use xlink:href="#Ubuntu-Medium-20" x="1229.249786"/>
     <use xlink:href="#Ubuntu-Medium-433" x="1252.549774"/>
     <use xlink:href="#Ubuntu-Medium-43e" x="1296.249771"/>
     <use xlink:href="#Ubuntu-Medium-432" x="1356.049759"/>
     <use xlink:href="#Ubuntu-Medium-44f" x="1412.949753"/>
     <use xlink:href="#Ubuntu-Medium-434" x="1469.549744"/>
     <use xlink:href="#Ubuntu-Medium-438" x="1532.849731"/>
     <use xlink:href="#Ubuntu-Medium-43d" x="1594.049728"/>
     <use xlink:href="#Ubuntu-Medium-44b" x="1653.349716"/>
     <use xlink:href="#Ubuntu-Medium-20" x="1732.449707"/>
     <use xlink:href="#Ubuntu-Medium-438" x="1755.749695"/>
     <use xlink:href="#Ubuntu-Medium-20" x="1816.949692"/>
     <use xlink:href="#Ubuntu-Medium-446" x="1840.24968"/>
     <use xlink:href="#Ubuntu-Medium-435" x="1901.049667"/>
     <use xlink:href="#Ubuntu-Medium-43d" x="1958.149658"/>
     <use xlink:href="#Ubuntu-Medium-44b" x="2017.449646"/>
     <use xlink:href="#Ubuntu-Medium-20" x="2096.549637"/>
     <use xlink:href="#Ubuntu-Medium-43e" x="2119.849625"/>
     <use xlink:href="#Ubuntu-Medium-431" x="2179.649612"/>
     <use xlink:href="#Ubuntu-Medium-44b" x="2240.049606"/>
     <use xlink:href="#Ubuntu-Medium-447" x="2319.149597"/>
     <use xlink:href="#Ubuntu-Medium-43d" x="2374.149582"/>
     <use xlink:href="#Ubuntu-Medium-43e" x="2433.44957"/>
     <use xlink:href="#Ubuntu-Medium-439" x="2493.249557"/>
     <use xlink:href="#Ubuntu-Medium-20" x="2554.449554"/>
     <use xlink:href="#Ubuntu-Medium-433" x="2577.749542"/>
     <use xlink:href="#Ubuntu-Medium-43e" x="2621.449539"/>
     <use xlink:href="#Ubuntu-Medium-432" x="2681.249527"/>
     <use xlink:href="#Ubuntu-Medium-44f" x="2738.149521"/>
     <use xlink:href="#Ubuntu-Medium-434" x="2794.749512"/>
     <use xlink:href="#Ubuntu-Medium-438" x="2858.0495"/>
     <use xlink:href="#Ubuntu-Medium-43d" x="2919.249496"/>
     <use xlink:href="#Ubuntu-Medium-44b" x="2978.549484"/>
    </g>
   </g>
   <g id="line2d_62">
    <path d="M 33.205 128.959375 
L 637.798 128.959375 
" clip-path="url(#pf93fe30e1c)" style="fill: none; stroke-dasharray: 3.7,1.6; stroke-dashoffset: 0; stroke: #c5c5c5; stroke-opacity: 0.75"/>
   </g>
   <g id="PathCollection_1">
    <defs>
     <path id="mf6a81deb13" d="M 0 2.236068 
C 0.593012 2.236068 1.161816 2.000462 1.581139 1.581139 
C 2.000462 1.161816 2.236068 0.593012 2.236068 0 
C 2.236068 -0.593012 2.000462 -1.161816 1.581139 -1.581139 
C 1.161816 -2.000462 0.593012 -2.236068 0 -2.236068 
C -0.593012 -2.236068 -1.161816 -2.000462 -1.581139 -1.581139 
C -2.000462 -1.161816 -2.236068 -0.593012 -2.236068 0 
C -2.236068 0.593012 -2.000462 1.161816 -1.581139 1.581139 
C -1.161816 2.000462 -0.593012 2.236068 0 2.236068 
z
" style="stroke: #fefefe"/>
    </defs>
    <g clip-path="url(#pf93fe30e1c)">
     <use xlink:href="#mf6a81deb13" x="39.111834" y="128.959375" style="fill: #5d5d5d; stroke: #fefefe"/>
     <use xlink:href="#mf6a81deb13" x="56.321595" y="136.468854" style="fill: #5d5d5d; stroke: #fefefe"/>
     <use xlink:href="#mf6a81deb13" x="71.865895" y="113.830721" style="fill: #5d5d5d; stroke: #fefefe"/>
     <use xlink:href="#mf6a81deb13" x="89.075656" y="115.253248" style="fill: #5d5d5d; stroke: #fefefe"/>
     <use xlink:href="#mf6a81deb13" x="105.730263" y="114.078478" style="fill: #5d5d5d; stroke: #fefefe"/>
     <use xlink:href="#mf6a81deb13" x="122.940024" y="123.999069" style="fill: #5d5d5d; stroke: #fefefe"/>
     <use xlink:href="#mf6a81deb13" x="139.594631" y="128.309466" style="fill: #5d5d5d; stroke: #fefefe"/>
     <use xlink:href="#mf6a81deb13" x="156.804392" y="116.448164" style="fill: #5d5d5d; stroke: #fefefe"/>
     <use xlink:href="#mf6a81deb13" x="174.014153" y="86.888604" style="fill: #5d5d5d; stroke: #fefefe"/>
     <use xlink:href="#mf6a81deb13" x="190.66876" y="70.440804" style="fill: #5d5d5d; stroke: #fefefe"/>
     <use xlink:href="#mf6a81deb13" x="207.878521" y="67.504313" style="fill: #5d5d5d; stroke: #fefefe"/>
     <use xlink:href="#mf6a81deb13" x="224.533129" y="73.281495" style="fill: #5d5d5d; stroke: #fefefe"/>
     <use xlink:href="#mf6a81deb13" x="241.742889" y="80.328019" style="fill: #5d5d5d; stroke: #fefefe"/>
     <use xlink:href="#mf6a81deb13" x="258.95265" y="73.293509" style="fill: #5d5d5d; stroke: #fefefe"/>
     <use xlink:href="#mf6a81deb13" x="274.49695" y="50.673572" style="fill: #5d5d5d; stroke: #fefefe"/>
     <use xlink:href="#mf6a81deb13" x="291.706711" y="59.123806" style="fill: #5d5d5d; stroke: #fefefe"/>
     <use xlink:href="#mf6a81deb13" x="308.361319" y="64.637348" style="fill: #5d5d5d; stroke: #fefefe"/>
     <use xlink:href="#mf6a81deb13" x="325.571079" y="77.242728" style="fill: #5d5d5d; stroke: #fefefe"/>
     <use xlink:href="#mf6a81deb13" x="342.225687" y="81.060394" style="fill: #5d5d5d; stroke: #fefefe"/>
     <use xlink:href="#mf6a81deb13" x="359.435448" y="87.875081" style="fill: #5d5d5d; stroke: #fefefe"/>
     <use xlink:href="#mf6a81deb13" x="376.645208" y="83.349127" style="fill: #5d5d5d; stroke: #fefefe"/>
     <use xlink:href="#mf6a81deb13" x="393.299816" y="77.189443" style="fill: #5d5d5d; stroke: #fefefe"/>
     <use xlink:href="#mf6a81deb13" x="410.509577" y="72.761126" style="fill: #5d5d5d; stroke: #fefefe"/>
     <use xlink:href="#mf6a81deb13" x="427.164184" y="68.088966" style="fill: #5d5d5d; stroke: #fefefe"/>
     <use xlink:href="#mf6a81deb13" x="444.373945" y="58.20626" style="fill: #5d5d5d; stroke: #fefefe"/>
     <use xlink:href="#mf6a81deb13" x="461.583706" y="55.166627" style="fill: #5d5d5d; stroke: #fefefe"/>
     <use xlink:href="#mf6a81deb13" x="477.128006" y="48.501662" style="fill: #5d5d5d; stroke: #fefefe"/>
     <use xlink:href="#mf6a81deb13" x="494.337767" y="42.271386" style="fill: #5d5d5d; stroke: #fefefe"/>
     <use xlink:href="#mf6a81deb13" x="510.992374" y="36.381875" style="fill: #5d5d5d; stroke: #fefefe"/>
     <use xlink:href="#mf6a81deb13" x="528.202135" y="37.200463" style="fill: #5d5d5d; stroke: #fefefe"/>
     <use xlink:href="#mf6a81deb13" x="544.856742" y="39.643228" style="fill: #5d5d5d; stroke: #fefefe"/>
     <use xlink:href="#mf6a81deb13" x="562.066503" y="43.45792" style="fill: #5d5d5d; stroke: #fefefe"/>
     <use xlink:href="#mf6a81deb13" x="579.276264" y="36.774132" style="fill: #5d5d5d; stroke: #fefefe"/>
     <use xlink:href="#mf6a81deb13" x="595.930871" y="44.770752" style="fill: #5d5d5d; stroke: #fefefe"/>
     <use xlink:href="#mf6a81deb13" x="613.140632" y="57.444678" style="fill: #5d5d5d; stroke: #fefefe"/>
     <use xlink:href="#mf6a81deb13" x="629.795239" y="60.522104" style="fill: #5d5d5d; stroke: #fefefe"/>
    </g>
   </g>
  </g>
 </g>
 <defs>
  <clipPath id="p73a8833dd6">
   <rect x="33.205" y="190.735375" width="613.8" height="0"/>
  </clipPath>
  <clipPath id="pf93fe30e1c">
   <rect x="33.205" y="29.959375" width="613.8" height="138.6"/>
  </clipPath>
 </defs>
</svg>
