<?xml version="1.0" encoding="utf-8" standalone="no"?>
<!DOCTYPE svg PUBLIC "-//W3C//DTD SVG 1.1//EN"
  "http://www.w3.org/Graphics/SVG/1.1/DTD/svg11.dtd">
<svg xmlns:xlink="http://www.w3.org/1999/xlink" width="630.45625pt" height="109.184844pt" viewBox="0 0 630.45625 109.184844" xmlns="http://www.w3.org/2000/svg" version="1.1">
 <metadata>
  <rdf:RDF xmlns:dc="http://purl.org/dc/elements/1.1/" xmlns:cc="http://creativecommons.org/ns#" xmlns:rdf="http://www.w3.org/1999/02/22-rdf-syntax-ns#">
   <cc:Work>
    <dc:type rdf:resource="http://purl.org/dc/dcmitype/StillImage"/>
    <dc:date>2024-02-21T19:15:10.269110</dc:date>
    <dc:format>image/svg+xml</dc:format>
    <dc:creator>
     <cc:Agent>
      <dc:title>Matplotlib v3.8.0, https://matplotlib.org/</dc:title>
     </cc:Agent>
    </dc:creator>
   </cc:Work>
  </rdf:RDF>
 </metadata>
 <defs>
  <style type="text/css">*{stroke-linejoin: round; stroke-linecap: butt}</style>
 </defs>
 <g id="figure_1">
  <g id="patch_1">
   <path d="M 0 109.184844 
L 630.45625 109.184844 
L 630.45625 0 
L 0 0 
L 0 109.184844 
z
" style="fill: none"/>
  </g>
  <g id="axes_1">
   <g id="patch_2">
    <path d="M 9.45625 67.749687 
L 623.25625 67.749687 
L 623.25625 40.029687 
L 9.45625 40.029687 
L 9.45625 67.749687 
z
" style="fill: none"/>
   </g>
   <g id="matplotlib.axis_1">
    <g id="xtick_1">
     <g id="line2d_1">
      <path d="M 9.45625 67.749687 
L 9.45625 40.029687 
" clip-path="url(#p781bcb4b89)" style="fill: none; stroke-dasharray: 0.5,0.825; stroke-dashoffset: 0; stroke: #d9d9d9; stroke-width: 0.5"/>
     </g>
     <g id="line2d_2">
      <defs>
       <path id="m4611aaa71d" d="M 0 0 
L 0 2 
" style="stroke: #e2e2e2"/>
      </defs>
      <g>
       <use xlink:href="#m4611aaa71d" x="9.45625" y="40.029687" style="fill: #e2e2e2; stroke: #e2e2e2"/>
      </g>
     </g>
     <g id="text_1">
      <!-- 0 -->
      <g style="fill: #9f9f9f" transform="translate(7.2 35.049687) scale(0.08 -0.08)">
       <defs>
        <path id="Ubuntu-30" d="M 320 2221 
Q 320 3334 713 3936 
Q 1107 4538 1805 4538 
Q 2502 4538 2896 3936 
Q 3290 3334 3290 2221 
Q 3290 1107 2896 505 
Q 2502 -96 1805 -96 
Q 1107 -96 713 505 
Q 320 1107 320 2221 
z
M 2662 2221 
Q 2662 2586 2620 2912 
Q 2579 3238 2480 3481 
Q 2381 3725 2214 3869 
Q 2048 4013 1805 4013 
Q 1562 4013 1395 3869 
Q 1229 3725 1129 3481 
Q 1030 3238 988 2912 
Q 947 2586 947 2221 
Q 947 1856 988 1529 
Q 1030 1203 1129 960 
Q 1229 717 1395 573 
Q 1562 429 1805 429 
Q 2048 429 2214 573 
Q 2381 717 2480 960 
Q 2579 1203 2620 1529 
Q 2662 1856 2662 2221 
z
" transform="scale(0.015625)"/>
       </defs>
       <use xlink:href="#Ubuntu-30"/>
      </g>
     </g>
    </g>
    <g id="xtick_2">
     <g id="line2d_3">
      <path d="M 155.423736 67.749687 
L 155.423736 40.029687 
" clip-path="url(#p781bcb4b89)" style="fill: none; stroke-dasharray: 0.5,0.825; stroke-dashoffset: 0; stroke: #d9d9d9; stroke-width: 0.5"/>
     </g>
     <g id="line2d_4">
      <g>
       <use xlink:href="#m4611aaa71d" x="155.423736" y="40.029687" style="fill: #e2e2e2; stroke: #e2e2e2"/>
      </g>
     </g>
     <g id="text_2">
      <!-- 25 % -->
      <g style="fill: #9f9f9f" transform="translate(146.555611 35.049687) scale(0.08 -0.08)">
       <defs>
        <path id="Ubuntu-32" d="M 2989 3302 
Q 2989 3072 2896 2857 
Q 2803 2643 2649 2435 
Q 2496 2227 2304 2025 
Q 2112 1824 1920 1632 
Q 1811 1523 1667 1376 
Q 1523 1229 1395 1069 
Q 1267 909 1180 761 
Q 1094 614 1094 506 
L 3136 506 
L 3136 0 
L 448 0 
Q 442 38 442 76 
Q 442 115 442 147 
Q 442 448 541 707 
Q 640 966 800 1196 
Q 960 1427 1158 1632 
Q 1357 1837 1549 2029 
Q 1709 2182 1853 2332 
Q 1997 2483 2109 2633 
Q 2221 2784 2288 2944 
Q 2355 3104 2355 3283 
Q 2355 3475 2294 3609 
Q 2234 3744 2131 3833 
Q 2029 3923 1891 3964 
Q 1754 4006 1600 4006 
Q 1414 4006 1260 3955 
Q 1107 3904 985 3837 
Q 864 3770 781 3696 
Q 698 3622 653 3584 
L 358 4006 
Q 416 4070 531 4163 
Q 646 4256 806 4339 
Q 966 4422 1164 4480 
Q 1363 4538 1594 4538 
Q 2291 4538 2640 4214 
Q 2989 3891 2989 3302 
z
" transform="scale(0.015625)"/>
        <path id="Ubuntu-35" d="M 1274 2726 
Q 2240 2688 2691 2304 
Q 3142 1920 3142 1261 
Q 3142 966 3043 716 
Q 2944 467 2742 288 
Q 2541 109 2233 6 
Q 1926 -96 1504 -96 
Q 1338 -96 1165 -70 
Q 992 -45 845 -6 
Q 698 32 582 70 
Q 467 109 416 134 
L 531 653 
Q 640 602 886 518 
Q 1133 435 1491 435 
Q 1779 435 1974 499 
Q 2170 563 2291 672 
Q 2413 781 2467 925 
Q 2522 1069 2522 1229 
Q 2522 1472 2438 1661 
Q 2355 1850 2144 1978 
Q 1933 2106 1581 2173 
Q 1229 2240 691 2240 
Q 730 2554 752 2829 
Q 774 3104 793 3366 
Q 813 3629 825 3888 
Q 838 4147 851 4435 
L 2989 4435 
L 2989 3930 
L 1370 3930 
Q 1363 3834 1350 3670 
Q 1338 3507 1325 3331 
Q 1312 3155 1299 2988 
Q 1286 2822 1274 2726 
z
" transform="scale(0.015625)"/>
        <path id="Ubuntu-20" transform="scale(0.015625)"/>
        <path id="Ubuntu-25" d="M 320 3354 
Q 320 3642 397 3859 
Q 474 4077 611 4227 
Q 749 4378 934 4454 
Q 1120 4531 1338 4531 
Q 1555 4531 1740 4454 
Q 1926 4378 2064 4227 
Q 2202 4077 2278 3859 
Q 2355 3642 2355 3354 
Q 2355 3066 2278 2848 
Q 2202 2630 2064 2480 
Q 1926 2330 1740 2253 
Q 1555 2176 1338 2176 
Q 1120 2176 934 2253 
Q 749 2330 611 2480 
Q 474 2630 397 2848 
Q 320 3066 320 3354 
z
M 1856 3354 
Q 1856 3699 1721 3894 
Q 1587 4090 1338 4090 
Q 1088 4090 953 3894 
Q 819 3699 819 3354 
Q 819 3008 953 2813 
Q 1088 2618 1338 2618 
Q 1587 2618 1721 2813 
Q 1856 3008 1856 3354 
z
M 3136 1082 
Q 3136 1370 3213 1587 
Q 3290 1805 3427 1955 
Q 3565 2106 3750 2182 
Q 3936 2259 4154 2259 
Q 4371 2259 4556 2182 
Q 4742 2106 4880 1955 
Q 5018 1805 5094 1587 
Q 5171 1370 5171 1082 
Q 5171 794 5094 576 
Q 5018 358 4880 208 
Q 4742 58 4556 -19 
Q 4371 -96 4154 -96 
Q 3936 -96 3750 -19 
Q 3565 58 3427 208 
Q 3290 358 3213 576 
Q 3136 794 3136 1082 
z
M 4672 1082 
Q 4672 1427 4537 1622 
Q 4403 1818 4154 1818 
Q 3904 1818 3769 1622 
Q 3635 1427 3635 1082 
Q 3635 736 3769 541 
Q 3904 346 4154 346 
Q 4403 346 4537 541 
Q 4672 736 4672 1082 
z
M 4288 4435 
L 1786 0 
L 1203 0 
L 3706 4435 
L 4288 4435 
z
" transform="scale(0.015625)"/>
       </defs>
       <use xlink:href="#Ubuntu-32"/>
       <use xlink:href="#Ubuntu-35" x="56.399994"/>
       <use xlink:href="#Ubuntu-20" x="112.799988"/>
       <use xlink:href="#Ubuntu-25" x="135.899979"/>
      </g>
     </g>
    </g>
    <g id="xtick_3">
     <g id="line2d_5">
      <path d="M 315.245564 67.749687 
L 315.245564 40.029687 
" clip-path="url(#p781bcb4b89)" style="fill: none; stroke-dasharray: 0.5,0.825; stroke-dashoffset: 0; stroke: #d9d9d9; stroke-width: 0.5"/>
     </g>
     <g id="line2d_6">
      <g>
       <use xlink:href="#m4611aaa71d" x="315.245564" y="40.029687" style="fill: #e2e2e2; stroke: #e2e2e2"/>
      </g>
     </g>
     <g id="text_3">
      <!-- 52 % -->
      <g style="fill: #9f9f9f" transform="translate(306.377439 35.049687) scale(0.08 -0.08)">
       <use xlink:href="#Ubuntu-35"/>
       <use xlink:href="#Ubuntu-32" x="56.399994"/>
       <use xlink:href="#Ubuntu-20" x="112.799988"/>
       <use xlink:href="#Ubuntu-25" x="135.899979"/>
      </g>
     </g>
    </g>
    <g id="xtick_4">
     <g id="line2d_7">
      <path d="M 359.672993 67.749687 
L 359.672993 40.029687 
" clip-path="url(#p781bcb4b89)" style="fill: none; stroke-dasharray: 0.5,0.825; stroke-dashoffset: 0; stroke: #d9d9d9; stroke-width: 0.5"/>
     </g>
     <g id="line2d_8">
      <g>
       <use xlink:href="#m4611aaa71d" x="359.672993" y="40.029687" style="fill: #e2e2e2; stroke: #e2e2e2"/>
      </g>
     </g>
     <g id="text_4">
      <!-- 60 % -->
      <g style="fill: #9f9f9f" transform="translate(350.804868 35.049687) scale(0.08 -0.08)">
       <defs>
        <path id="Ubuntu-36" d="M 403 1779 
Q 403 2426 582 2922 
Q 762 3418 1091 3757 
Q 1421 4096 1891 4272 
Q 2362 4448 2950 4454 
L 2995 3955 
Q 2618 3949 2307 3872 
Q 1997 3795 1753 3628 
Q 1510 3462 1344 3196 
Q 1178 2931 1094 2541 
Q 1261 2618 1469 2669 
Q 1677 2720 1901 2720 
Q 2278 2720 2540 2605 
Q 2803 2490 2969 2301 
Q 3136 2112 3209 1865 
Q 3283 1619 3283 1350 
Q 3283 1107 3200 851 
Q 3117 595 2947 384 
Q 2778 173 2515 38 
Q 2253 -96 1894 -96 
Q 1165 -96 784 403 
Q 403 902 403 1779 
z
M 1837 2234 
Q 1613 2234 1421 2192 
Q 1229 2150 1037 2067 
Q 1030 1997 1027 1923 
Q 1024 1850 1024 1779 
Q 1024 1498 1062 1248 
Q 1101 998 1200 809 
Q 1299 621 1465 509 
Q 1632 397 1888 397 
Q 2099 397 2246 486 
Q 2394 576 2490 717 
Q 2586 858 2627 1021 
Q 2669 1184 2669 1338 
Q 2669 1773 2461 2003 
Q 2253 2234 1837 2234 
z
" transform="scale(0.015625)"/>
       </defs>
       <use xlink:href="#Ubuntu-36"/>
       <use xlink:href="#Ubuntu-30" x="56.399994"/>
       <use xlink:href="#Ubuntu-20" x="112.799988"/>
       <use xlink:href="#Ubuntu-25" x="135.899979"/>
      </g>
     </g>
    </g>
    <g id="xtick_5">
     <g id="line2d_9">
      <path d="M 429.120079 67.749687 
L 429.120079 40.029687 
" clip-path="url(#p781bcb4b89)" style="fill: none; stroke-dasharray: 0.5,0.825; stroke-dashoffset: 0; stroke: #d9d9d9; stroke-width: 0.5"/>
     </g>
     <g id="line2d_10">
      <g>
       <use xlink:href="#m4611aaa71d" x="429.120079" y="40.029687" style="fill: #e2e2e2; stroke: #e2e2e2"/>
      </g>
     </g>
     <g id="text_5">
      <!-- 72 % -->
      <g style="fill: #9f9f9f" transform="translate(420.251954 35.049687) scale(0.08 -0.08)">
       <defs>
        <path id="Ubuntu-37" d="M 1043 0 
Q 1082 512 1226 1078 
Q 1370 1645 1581 2179 
Q 1792 2714 2045 3171 
Q 2298 3629 2541 3917 
L 384 3917 
L 384 4435 
L 3206 4435 
L 3206 3942 
Q 2995 3699 2739 3273 
Q 2483 2848 2256 2320 
Q 2029 1792 1865 1193 
Q 1702 595 1664 0 
L 1043 0 
z
" transform="scale(0.015625)"/>
       </defs>
       <use xlink:href="#Ubuntu-37"/>
       <use xlink:href="#Ubuntu-32" x="56.399994"/>
       <use xlink:href="#Ubuntu-20" x="112.799988"/>
       <use xlink:href="#Ubuntu-25" x="135.899979"/>
      </g>
     </g>
    </g>
    <g id="xtick_6">
     <g id="line2d_11">
      <path d="M 471.150764 67.749687 
L 471.150764 40.029687 
" clip-path="url(#p781bcb4b89)" style="fill: none; stroke-dasharray: 0.5,0.825; stroke-dashoffset: 0; stroke: #d9d9d9; stroke-width: 0.5"/>
     </g>
     <g id="line2d_12">
      <g>
       <use xlink:href="#m4611aaa71d" x="471.150764" y="40.029687" style="fill: #e2e2e2; stroke: #e2e2e2"/>
      </g>
     </g>
     <g id="text_6">
      <!-- 79 % -->
      <g style="fill: #9f9f9f" transform="translate(462.282639 35.049687) scale(0.08 -0.08)">
       <defs>
        <path id="Ubuntu-39" d="M 3206 2662 
Q 3206 1344 2550 669 
Q 1894 -6 602 -13 
L 582 486 
Q 986 486 1309 563 
Q 1632 640 1875 809 
Q 2118 979 2281 1248 
Q 2445 1517 2522 1907 
Q 2355 1830 2144 1782 
Q 1933 1734 1709 1734 
Q 1331 1734 1068 1846 
Q 806 1958 640 2147 
Q 474 2336 400 2582 
Q 326 2829 326 3098 
Q 326 3334 409 3590 
Q 493 3846 662 4057 
Q 832 4269 1094 4403 
Q 1357 4538 1715 4538 
Q 2080 4538 2358 4410 
Q 2637 4282 2825 4038 
Q 3014 3795 3110 3446 
Q 3206 3098 3206 2662 
z
M 1773 2221 
Q 1997 2221 2195 2262 
Q 2394 2304 2579 2387 
Q 2586 2458 2586 2525 
Q 2586 2592 2586 2662 
Q 2586 2938 2547 3190 
Q 2509 3443 2409 3632 
Q 2310 3821 2144 3933 
Q 1978 4045 1722 4045 
Q 1510 4045 1363 3955 
Q 1216 3866 1120 3728 
Q 1024 3590 982 3427 
Q 941 3264 941 3110 
Q 941 2675 1149 2448 
Q 1357 2221 1773 2221 
z
" transform="scale(0.015625)"/>
       </defs>
       <use xlink:href="#Ubuntu-37"/>
       <use xlink:href="#Ubuntu-39" x="56.399994"/>
       <use xlink:href="#Ubuntu-20" x="112.799988"/>
       <use xlink:href="#Ubuntu-25" x="135.899979"/>
      </g>
     </g>
    </g>
    <g id="xtick_7">
     <g id="line2d_13">
      <path d="M 471.326136 67.749687 
L 471.326136 40.029687 
" clip-path="url(#p781bcb4b89)" style="fill: none; stroke-dasharray: 0.5,0.825; stroke-dashoffset: 0; stroke: #d9d9d9; stroke-width: 0.5"/>
     </g>
     <g id="line2d_14">
      <g>
       <use xlink:href="#m4611aaa71d" x="471.326136" y="40.029687" style="fill: #e2e2e2; stroke: #e2e2e2"/>
      </g>
     </g>
     <g id="text_7">
      <!--   -->
      <g style="fill: #9f9f9f" transform="translate(470.402386 35.049687) scale(0.08 -0.08)">
       <use xlink:href="#Ubuntu-20"/>
      </g>
     </g>
    </g>
    <g id="xtick_8">
     <g id="line2d_15">
      <path d="M 475.768879 67.749687 
L 475.768879 40.029687 
" clip-path="url(#p781bcb4b89)" style="fill: none; stroke-dasharray: 0.5,0.825; stroke-dashoffset: 0; stroke: #d9d9d9; stroke-width: 0.5"/>
     </g>
     <g id="line2d_16">
      <g>
       <use xlink:href="#m4611aaa71d" x="475.768879" y="40.029687" style="fill: #e2e2e2; stroke: #e2e2e2"/>
      </g>
     </g>
     <g id="text_8">
      <!--   -->
      <g style="fill: #9f9f9f" transform="translate(474.845129 35.049687) scale(0.08 -0.08)">
       <use xlink:href="#Ubuntu-20"/>
      </g>
     </g>
    </g>
    <g id="xtick_9">
     <g id="line2d_17">
      <path d="M 555.095221 67.749687 
L 555.095221 40.029687 
" clip-path="url(#p781bcb4b89)" style="fill: none; stroke-dasharray: 0.5,0.825; stroke-dashoffset: 0; stroke: #d9d9d9; stroke-width: 0.5"/>
     </g>
     <g id="line2d_18">
      <g>
       <use xlink:href="#m4611aaa71d" x="555.095221" y="40.029687" style="fill: #e2e2e2; stroke: #e2e2e2"/>
      </g>
     </g>
     <g id="text_9">
      <!-- 93 % -->
      <g style="fill: #9f9f9f" transform="translate(546.227096 35.049687) scale(0.08 -0.08)">
       <defs>
        <path id="Ubuntu-33" d="M 1446 435 
Q 2016 435 2262 659 
Q 2509 883 2509 1261 
Q 2509 1504 2406 1670 
Q 2304 1837 2137 1936 
Q 1971 2035 1750 2076 
Q 1530 2118 1299 2118 
L 1146 2118 
L 1146 2605 
L 1357 2605 
Q 1517 2605 1686 2637 
Q 1856 2669 1997 2752 
Q 2138 2835 2227 2979 
Q 2317 3123 2317 3341 
Q 2317 3520 2253 3648 
Q 2189 3776 2083 3859 
Q 1978 3942 1840 3977 
Q 1702 4013 1549 4013 
Q 1242 4013 1027 3923 
Q 813 3834 666 3738 
L 435 4192 
Q 512 4243 630 4304 
Q 749 4365 896 4416 
Q 1043 4467 1212 4502 
Q 1382 4538 1568 4538 
Q 1920 4538 2176 4451 
Q 2432 4365 2598 4208 
Q 2765 4051 2848 3836 
Q 2931 3622 2931 3373 
Q 2931 3027 2732 2780 
Q 2534 2534 2253 2406 
Q 2426 2355 2586 2259 
Q 2746 2163 2864 2016 
Q 2982 1869 3056 1677 
Q 3130 1485 3130 1248 
Q 3130 960 3030 713 
Q 2931 467 2723 288 
Q 2515 109 2201 6 
Q 1888 -96 1459 -96 
Q 1293 -96 1117 -70 
Q 941 -45 787 -6 
Q 634 32 518 70 
Q 403 109 352 134 
L 467 653 
Q 576 602 829 518 
Q 1082 435 1446 435 
z
" transform="scale(0.015625)"/>
       </defs>
       <use xlink:href="#Ubuntu-39"/>
       <use xlink:href="#Ubuntu-33" x="56.399994"/>
       <use xlink:href="#Ubuntu-20" x="112.799988"/>
       <use xlink:href="#Ubuntu-25" x="135.899979"/>
      </g>
     </g>
    </g>
    <g id="xtick_10">
     <g id="line2d_19">
      <path d="M 594.027679 67.749687 
L 594.027679 40.029687 
" clip-path="url(#p781bcb4b89)" style="fill: none; stroke-dasharray: 0.5,0.825; stroke-dashoffset: 0; stroke: #d9d9d9; stroke-width: 0.5"/>
     </g>
     <g id="line2d_20">
      <g>
       <use xlink:href="#m4611aaa71d" x="594.027679" y="40.029687" style="fill: #e2e2e2; stroke: #e2e2e2"/>
      </g>
     </g>
     <g id="text_10">
      <!-- 100 % -->
      <g style="fill: #9f9f9f" transform="translate(582.903304 35.049687) scale(0.08 -0.08)">
       <defs>
        <path id="Ubuntu-31" d="M 595 3520 
Q 960 3661 1305 3881 
Q 1651 4102 1939 4435 
L 2362 4435 
L 2362 0 
L 1766 0 
L 1766 3610 
Q 1690 3539 1578 3462 
Q 1466 3386 1334 3315 
Q 1203 3245 1059 3181 
Q 915 3117 781 3072 
L 595 3520 
z
" transform="scale(0.015625)"/>
       </defs>
       <use xlink:href="#Ubuntu-31"/>
       <use xlink:href="#Ubuntu-30" x="56.399994"/>
       <use xlink:href="#Ubuntu-30" x="112.799988"/>
       <use xlink:href="#Ubuntu-20" x="169.199982"/>
       <use xlink:href="#Ubuntu-25" x="192.299973"/>
      </g>
     </g>
    </g>
   </g>
   <g id="matplotlib.axis_2"/>
   <g id="patch_3">
    <path d="M 9.45625 64.284687 
L 155.423736 64.284687 
L 155.423736 43.494687 
L 9.45625 43.494687 
z
" clip-path="url(#p781bcb4b89)" style="fill: #5d5d5d; opacity: 0.75; stroke: #fefefe; stroke-linejoin: miter"/>
   </g>
   <g id="patch_4">
    <path d="M 155.423736 64.284687 
L 315.245564 64.284687 
L 315.245564 43.494687 
L 155.423736 43.494687 
z
" clip-path="url(#p781bcb4b89)" style="fill: #5d5d5d; opacity: 0.75; stroke: #fefefe; stroke-linejoin: miter"/>
   </g>
   <g id="patch_5">
    <path d="M 315.245564 64.284687 
L 359.672993 64.284687 
L 359.672993 43.494687 
L 315.245564 43.494687 
z
" clip-path="url(#p781bcb4b89)" style="fill: #5d5d5d; opacity: 0.75; stroke: #fefefe; stroke-linejoin: miter"/>
   </g>
   <g id="patch_6">
    <path d="M 359.672993 64.284687 
L 429.120079 64.284687 
L 429.120079 43.494687 
L 359.672993 43.494687 
z
" clip-path="url(#p781bcb4b89)" style="fill: #5d5d5d; opacity: 0.75; stroke: #fefefe; stroke-linejoin: miter"/>
   </g>
   <g id="patch_7">
    <path d="M 429.120079 64.284687 
L 471.150764 64.284687 
L 471.150764 43.494687 
L 429.120079 43.494687 
z
" clip-path="url(#p781bcb4b89)" style="fill: #af5a51; stroke: #fefefe; stroke-linejoin: miter"/>
   </g>
   <g id="patch_8">
    <path d="M 471.150764 64.284687 
L 471.326136 64.284687 
L 471.326136 43.494687 
L 471.150764 43.494687 
z
" clip-path="url(#p781bcb4b89)" style="fill: #5d5d5d; opacity: 0.75; stroke: #fefefe; stroke-linejoin: miter"/>
   </g>
   <g id="patch_9">
    <path d="M 471.326136 64.284687 
L 475.768879 64.284687 
L 475.768879 43.494687 
L 471.326136 43.494687 
z
" clip-path="url(#p781bcb4b89)" style="fill: #5d5d5d; opacity: 0.75; stroke: #fefefe; stroke-linejoin: miter"/>
   </g>
   <g id="patch_10">
    <path d="M 475.768879 64.284687 
L 555.095221 64.284687 
L 555.095221 43.494687 
L 475.768879 43.494687 
z
" clip-path="url(#p781bcb4b89)" style="fill: #5d5d5d; opacity: 0.75; stroke: #fefefe; stroke-linejoin: miter"/>
   </g>
   <g id="patch_11">
    <path d="M 555.095221 64.284687 
L 594.027679 64.284687 
L 594.027679 43.494687 
L 555.095221 43.494687 
z
" clip-path="url(#p781bcb4b89)" style="fill: #af5a51; stroke: #fefefe; stroke-linejoin: miter"/>
   </g>
   <g id="patch_12">
    <path d="M 9.45625 67.749687 
L 9.45625 40.029687 
" style="fill: none; stroke: #e6e6e6; stroke-width: 0.5; stroke-linejoin: miter; stroke-linecap: square"/>
   </g>
   <g id="text_11">
    <!-- Доля налогов в цене хлеба (%) -->
    <g style="fill: #303030" transform="translate(9.45625 15.029687) scale(0.1 -0.1)">
     <defs>
      <path id="Ubuntu-Medium-414" d="M 83 685 
L 634 685 
Q 922 1082 1078 1520 
Q 1235 1958 1308 2428 
Q 1382 2899 1395 3401 
Q 1408 3904 1408 4435 
L 4128 4435 
L 4128 685 
L 4787 685 
L 4787 -1184 
L 4013 -1184 
L 4013 0 
L 858 0 
L 858 -1184 
L 83 -1184 
L 83 685 
z
M 2182 3744 
Q 2163 3360 2137 2957 
Q 2112 2554 2045 2160 
Q 1978 1766 1856 1392 
Q 1734 1018 1523 685 
L 3334 685 
L 3334 3744 
L 2182 3744 
z
" transform="scale(0.015625)"/>
      <path id="Ubuntu-Medium-43e" d="M 3520 1677 
Q 3520 1280 3405 953 
Q 3290 627 3078 396 
Q 2867 166 2569 38 
Q 2272 -90 1914 -90 
Q 1555 -90 1260 38 
Q 966 166 755 396 
Q 544 627 425 953 
Q 307 1280 307 1677 
Q 307 2074 425 2397 
Q 544 2720 758 2950 
Q 973 3181 1267 3305 
Q 1562 3430 1914 3430 
Q 2266 3430 2563 3305 
Q 2861 3181 3072 2950 
Q 3283 2720 3401 2397 
Q 3520 2074 3520 1677 
z
M 2726 1677 
Q 2726 2176 2512 2467 
Q 2298 2758 1914 2758 
Q 1530 2758 1315 2467 
Q 1101 2176 1101 1677 
Q 1101 1171 1315 876 
Q 1530 582 1914 582 
Q 2298 582 2512 876 
Q 2726 1171 2726 1677 
z
" transform="scale(0.015625)"/>
      <path id="Ubuntu-Medium-43b" d="M 1805 2707 
Q 1798 2426 1785 2122 
Q 1773 1818 1725 1523 
Q 1677 1229 1574 960 
Q 1472 691 1289 476 
Q 1107 262 835 118 
Q 563 -26 173 -64 
L 64 582 
Q 390 646 569 790 
Q 749 934 845 1158 
Q 922 1325 963 1536 
Q 1005 1747 1027 1980 
Q 1050 2214 1056 2457 
Q 1062 2701 1062 2931 
L 1062 3347 
L 3430 3347 
L 3430 0 
L 2656 0 
L 2656 2707 
L 1805 2707 
z
" transform="scale(0.015625)"/>
      <path id="Ubuntu-Medium-44f" d="M 1971 1242 
Q 1894 1242 1817 1242 
Q 1741 1242 1670 1248 
Q 1466 941 1293 617 
Q 1120 294 973 0 
L 179 0 
Q 352 397 563 761 
Q 774 1126 960 1382 
Q 646 1517 502 1744 
Q 358 1971 358 2278 
Q 358 2560 464 2774 
Q 570 2989 762 3133 
Q 954 3277 1222 3350 
Q 1491 3424 1818 3424 
Q 2195 3424 2550 3379 
Q 2906 3334 3130 3277 
L 3130 0 
L 2355 0 
L 2355 1242 
L 1971 1242 
z
M 2355 2784 
Q 2285 2797 2137 2806 
Q 1990 2816 1837 2816 
Q 1126 2816 1126 2291 
Q 1126 2150 1180 2057 
Q 1235 1965 1331 1907 
Q 1427 1850 1555 1827 
Q 1683 1805 1830 1805 
L 2355 1805 
L 2355 2784 
z
" transform="scale(0.015625)"/>
      <path id="Ubuntu-Medium-20" transform="scale(0.015625)"/>
      <path id="Ubuntu-Medium-43d" d="M 3302 0 
L 2528 0 
L 2528 1402 
L 1267 1402 
L 1267 0 
L 493 0 
L 493 3347 
L 1267 3347 
L 1267 2042 
L 2528 2042 
L 2528 3347 
L 3302 3347 
L 3302 0 
z
" transform="scale(0.015625)"/>
      <path id="Ubuntu-Medium-430" d="M 1670 544 
Q 2029 544 2214 582 
L 2214 1440 
Q 2150 1459 2028 1478 
Q 1907 1498 1760 1498 
Q 1632 1498 1501 1478 
Q 1370 1459 1264 1408 
Q 1158 1357 1094 1264 
Q 1030 1171 1030 1030 
Q 1030 755 1203 649 
Q 1376 544 1670 544 
z
M 1606 3430 
Q 1990 3430 2252 3334 
Q 2515 3238 2672 3065 
Q 2829 2893 2896 2646 
Q 2963 2400 2963 2106 
L 2963 77 
Q 2784 38 2422 -16 
Q 2061 -70 1606 -70 
Q 1306 -70 1056 -12 
Q 806 45 630 173 
Q 454 301 355 505 
Q 256 710 256 1011 
Q 256 1299 368 1497 
Q 480 1696 672 1821 
Q 864 1946 1117 2000 
Q 1370 2054 1645 2054 
Q 1773 2054 1913 2038 
Q 2054 2022 2214 1984 
L 2214 2112 
Q 2214 2246 2182 2368 
Q 2150 2490 2070 2582 
Q 1990 2675 1859 2726 
Q 1728 2778 1530 2778 
Q 1261 2778 1037 2739 
Q 813 2701 672 2650 
L 576 3277 
Q 723 3328 1004 3379 
Q 1286 3430 1606 3430 
z
" transform="scale(0.015625)"/>
      <path id="Ubuntu-Medium-433" d="M 2714 2707 
L 1267 2707 
L 1267 0 
L 493 0 
L 493 3347 
L 2714 3347 
L 2714 2707 
z
" transform="scale(0.015625)"/>
      <path id="Ubuntu-Medium-432" d="M 1824 -64 
Q 1638 -64 1446 -51 
Q 1254 -38 1078 -19 
Q 902 0 748 22 
Q 595 45 493 70 
L 493 3302 
Q 595 3328 748 3350 
Q 902 3373 1078 3389 
Q 1254 3405 1446 3414 
Q 1638 3424 1824 3424 
Q 2502 3424 2880 3177 
Q 3258 2931 3258 2490 
Q 3258 2259 3142 2080 
Q 3027 1901 2842 1811 
Q 3072 1722 3238 1530 
Q 3405 1338 3405 986 
Q 3405 480 3008 208 
Q 2611 -64 1824 -64 
z
M 1843 2003 
Q 2131 2003 2320 2086 
Q 2509 2170 2509 2419 
Q 2509 2541 2448 2617 
Q 2387 2694 2284 2739 
Q 2182 2784 2048 2800 
Q 1914 2816 1766 2816 
Q 1651 2816 1500 2809 
Q 1350 2803 1261 2790 
L 1261 2003 
L 1843 2003 
z
M 1261 576 
Q 1338 563 1514 553 
Q 1690 544 1843 544 
Q 2189 544 2416 640 
Q 2643 736 2643 1005 
Q 2643 1267 2435 1366 
Q 2227 1466 1894 1466 
L 1261 1466 
L 1261 576 
z
" transform="scale(0.015625)"/>
      <path id="Ubuntu-Medium-446" d="M 3776 634 
L 3776 -947 
L 3091 -947 
L 3091 0 
L 493 0 
L 493 3347 
L 1267 3347 
L 1267 634 
L 2496 634 
L 2496 3347 
L 3270 3347 
L 3270 634 
L 3776 634 
z
" transform="scale(0.015625)"/>
      <path id="Ubuntu-Medium-435" d="M 307 1658 
Q 307 2099 438 2432 
Q 570 2765 787 2985 
Q 1005 3206 1286 3318 
Q 1568 3430 1862 3430 
Q 2554 3430 2941 3001 
Q 3328 2573 3328 1722 
Q 3328 1658 3325 1578 
Q 3322 1498 3315 1434 
L 1107 1434 
Q 1139 1030 1392 809 
Q 1645 589 2125 589 
Q 2406 589 2640 640 
Q 2874 691 3008 749 
L 3110 115 
Q 3046 83 2934 48 
Q 2822 13 2678 -16 
Q 2534 -45 2368 -64 
Q 2202 -83 2029 -83 
Q 1587 -83 1260 48 
Q 934 179 723 412 
Q 512 646 409 963 
Q 307 1280 307 1658 
z
M 2554 2003 
Q 2554 2163 2509 2307 
Q 2464 2451 2377 2556 
Q 2291 2662 2166 2723 
Q 2042 2784 1869 2784 
Q 1690 2784 1555 2717 
Q 1421 2650 1328 2541 
Q 1235 2432 1184 2291 
Q 1133 2150 1114 2003 
L 2554 2003 
z
" transform="scale(0.015625)"/>
      <path id="Ubuntu-Medium-445" d="M 1696 2253 
L 2406 3347 
L 3219 3347 
L 2118 1766 
Q 2464 1318 2781 860 
Q 3098 403 3302 0 
L 2464 0 
Q 2406 122 2313 278 
Q 2221 435 2115 604 
Q 2010 774 1894 940 
Q 1779 1107 1670 1254 
Q 1446 966 1232 617 
Q 1018 269 877 0 
L 83 0 
Q 179 192 313 409 
Q 448 627 601 854 
Q 755 1082 918 1309 
Q 1082 1536 1242 1741 
L 134 3347 
L 986 3347 
L 1696 2253 
z
" transform="scale(0.015625)"/>
      <path id="Ubuntu-Medium-431" d="M 3366 4288 
Q 3302 4275 3228 4262 
Q 3155 4250 3052 4237 
Q 2950 4224 2812 4208 
Q 2675 4192 2496 4173 
Q 2221 4141 2003 4067 
Q 1786 3994 1626 3856 
Q 1466 3718 1363 3507 
Q 1261 3296 1216 2995 
Q 1414 3123 1648 3193 
Q 1882 3264 2106 3264 
Q 2771 3264 3161 2841 
Q 3552 2419 3552 1619 
Q 3552 1235 3443 921 
Q 3334 608 3129 384 
Q 2925 160 2637 35 
Q 2349 -90 1984 -90 
Q 1530 -90 1222 60 
Q 915 211 729 489 
Q 544 768 461 1158 
Q 378 1549 378 2029 
Q 378 2656 483 3139 
Q 589 3622 829 3968 
Q 1069 4314 1456 4528 
Q 1843 4742 2400 4826 
Q 2688 4870 2883 4896 
Q 3078 4922 3277 4966 
L 3366 4288 
z
M 1190 2317 
Q 1178 2234 1178 2115 
Q 1178 1997 1178 1894 
Q 1178 1606 1216 1363 
Q 1254 1120 1350 947 
Q 1446 774 1600 678 
Q 1754 582 1984 582 
Q 2182 582 2329 659 
Q 2477 736 2573 877 
Q 2669 1018 2717 1206 
Q 2765 1395 2765 1619 
Q 2765 1811 2723 1987 
Q 2682 2163 2589 2300 
Q 2496 2438 2342 2521 
Q 2189 2605 1965 2605 
Q 1747 2605 1532 2528 
Q 1318 2451 1190 2317 
z
" transform="scale(0.015625)"/>
      <path id="Ubuntu-Medium-28" d="M 1248 1914 
Q 1248 1126 1485 435 
Q 1722 -256 2144 -826 
L 1600 -1184 
Q 1082 -563 781 227 
Q 480 1018 480 1914 
Q 480 2810 781 3600 
Q 1082 4390 1600 5011 
L 2144 4653 
Q 1722 4077 1485 3389 
Q 1248 2701 1248 1914 
z
" transform="scale(0.015625)"/>
      <path id="Ubuntu-Medium-25" d="M 2451 3322 
Q 2451 2739 2153 2425 
Q 1856 2112 1376 2112 
Q 1139 2112 940 2192 
Q 742 2272 601 2425 
Q 461 2579 381 2806 
Q 301 3034 301 3322 
Q 301 3910 598 4220 
Q 896 4531 1376 4531 
Q 1856 4531 2153 4220 
Q 2451 3910 2451 3322 
z
M 1843 3322 
Q 1843 3661 1718 3830 
Q 1594 4000 1376 4000 
Q 1158 4000 1036 3830 
Q 915 3661 915 3322 
Q 915 2982 1036 2812 
Q 1158 2643 1376 2643 
Q 1594 2643 1718 2812 
Q 1843 2982 1843 3322 
z
M 3750 4435 
L 4486 4435 
L 1984 0 
L 1248 0 
L 3750 4435 
z
M 5440 1107 
Q 5440 525 5142 211 
Q 4845 -102 4365 -102 
Q 4128 -102 3929 -22 
Q 3731 58 3590 211 
Q 3450 365 3370 592 
Q 3290 819 3290 1107 
Q 3290 1696 3587 2006 
Q 3885 2317 4365 2317 
Q 4845 2317 5142 2006 
Q 5440 1696 5440 1107 
z
M 4832 1107 
Q 4832 1446 4707 1616 
Q 4582 1786 4365 1786 
Q 4147 1786 4025 1616 
Q 3904 1446 3904 1107 
Q 3904 768 4025 598 
Q 4147 429 4365 429 
Q 4582 429 4707 598 
Q 4832 768 4832 1107 
z
" transform="scale(0.015625)"/>
      <path id="Ubuntu-Medium-29" d="M 922 1914 
Q 922 2701 685 3389 
Q 448 4077 26 4653 
L 570 5011 
Q 1088 4390 1389 3600 
Q 1690 2810 1690 1914 
Q 1690 1018 1389 227 
Q 1088 -563 570 -1184 
L 26 -826 
Q 448 -256 685 435 
Q 922 1126 922 1914 
z
" transform="scale(0.015625)"/>
     </defs>
     <use xlink:href="#Ubuntu-Medium-414"/>
     <use xlink:href="#Ubuntu-Medium-43e" x="76.499985"/>
     <use xlink:href="#Ubuntu-Medium-43b" x="136.299973"/>
     <use xlink:href="#Ubuntu-Medium-44f" x="197.59996"/>
     <use xlink:href="#Ubuntu-Medium-20" x="254.199951"/>
     <use xlink:href="#Ubuntu-Medium-43d" x="277.499939"/>
     <use xlink:href="#Ubuntu-Medium-430" x="336.799927"/>
     <use xlink:href="#Ubuntu-Medium-43b" x="390.199921"/>
     <use xlink:href="#Ubuntu-Medium-43e" x="451.499908"/>
     <use xlink:href="#Ubuntu-Medium-433" x="511.299896"/>
     <use xlink:href="#Ubuntu-Medium-43e" x="554.999893"/>
     <use xlink:href="#Ubuntu-Medium-432" x="614.799881"/>
     <use xlink:href="#Ubuntu-Medium-20" x="671.699875"/>
     <use xlink:href="#Ubuntu-Medium-432" x="694.999863"/>
     <use xlink:href="#Ubuntu-Medium-20" x="751.899857"/>
     <use xlink:href="#Ubuntu-Medium-446" x="775.199844"/>
     <use xlink:href="#Ubuntu-Medium-435" x="835.999832"/>
     <use xlink:href="#Ubuntu-Medium-43d" x="893.099823"/>
     <use xlink:href="#Ubuntu-Medium-435" x="952.399811"/>
     <use xlink:href="#Ubuntu-Medium-20" x="1009.499802"/>
     <use xlink:href="#Ubuntu-Medium-445" x="1032.799789"/>
     <use xlink:href="#Ubuntu-Medium-43b" x="1087.449783"/>
     <use xlink:href="#Ubuntu-Medium-435" x="1148.749771"/>
     <use xlink:href="#Ubuntu-Medium-431" x="1205.849762"/>
     <use xlink:href="#Ubuntu-Medium-430" x="1266.249756"/>
     <use xlink:href="#Ubuntu-Medium-20" x="1319.64975"/>
     <use xlink:href="#Ubuntu-Medium-28" x="1342.949738"/>
     <use xlink:href="#Ubuntu-Medium-25" x="1376.849731"/>
     <use xlink:href="#Ubuntu-Medium-29" x="1466.549713"/>
    </g>
   </g>
   <g id="legend_1">
    <g id="patch_13">
     <path d="M 17.55625 96.693125 
L 35.55625 96.693125 
L 35.55625 90.393125 
L 17.55625 90.393125 
z
" style="fill: #af5a51; stroke: #fefefe; stroke-linejoin: miter"/>
    </g>
    <g id="text_12">
     <!-- НДС предприятий, осуществляющих производство -->
     <g style="fill: #4b4b4b" transform="translate(42.75625 96.693125) scale(0.09 -0.09)">
      <defs>
       <path id="Ubuntu-Italic-41d" d="M 3814 0 
L 3194 0 
L 3686 2061 
L 1632 2061 
L 1139 0 
L 518 0 
L 1581 4435 
L 2202 4435 
L 1754 2579 
L 3808 2579 
L 4256 4435 
L 4877 4435 
L 3814 0 
z
" transform="scale(0.015625)"/>
       <path id="Ubuntu-Italic-414" d="M 691 518 
Q 1056 845 1315 1232 
Q 1574 1619 1769 2096 
Q 1965 2573 2112 3149 
Q 2259 3725 2406 4435 
L 4858 4435 
L 3923 518 
L 4480 518 
L 4070 -1184 
L 3494 -1184 
L 3782 0 
L 685 0 
L 403 -1184 
L -173 -1184 
L 237 518 
L 691 518 
z
M 2906 3904 
Q 2816 3507 2688 3033 
Q 2560 2560 2384 2096 
Q 2208 1632 1977 1216 
Q 1747 800 1453 518 
L 3309 518 
L 4122 3904 
L 2906 3904 
z
" transform="scale(0.015625)"/>
       <path id="Ubuntu-Italic-421" d="M 2477 -96 
Q 2061 -96 1744 25 
Q 1427 147 1216 371 
Q 1005 595 899 912 
Q 794 1229 794 1626 
Q 794 2202 976 2726 
Q 1158 3251 1494 3654 
Q 1830 4058 2304 4298 
Q 2778 4538 3360 4538 
Q 3859 4538 4156 4435 
Q 4454 4333 4582 4243 
L 4326 3731 
Q 4179 3827 3926 3913 
Q 3674 4000 3328 4000 
Q 2886 4000 2534 3792 
Q 2182 3584 1939 3254 
Q 1696 2925 1568 2512 
Q 1440 2099 1440 1696 
Q 1440 448 2522 448 
Q 2752 448 2934 480 
Q 3117 512 3257 553 
Q 3398 595 3507 646 
Q 3616 698 3699 736 
L 3776 198 
Q 3699 154 3574 102 
Q 3450 51 3283 6 
Q 3117 -38 2912 -67 
Q 2707 -96 2477 -96 
z
" transform="scale(0.015625)"/>
       <path id="Ubuntu-Italic-20" transform="scale(0.015625)"/>
       <path id="Ubuntu-Italic-43f" d="M 1082 0 
L 486 0 
L 1254 3200 
Q 1549 3290 1891 3344 
Q 2234 3398 2502 3398 
Q 2790 3398 2998 3318 
Q 3206 3238 3334 3100 
Q 3462 2963 3523 2768 
Q 3584 2573 3584 2342 
Q 3584 2195 3558 2032 
Q 3533 1869 3494 1702 
L 3085 0 
L 2490 0 
L 2867 1574 
Q 2912 1754 2953 1939 
Q 2995 2125 2995 2291 
Q 2995 2547 2854 2716 
Q 2714 2886 2330 2886 
Q 2170 2886 2016 2867 
Q 1862 2848 1760 2816 
L 1082 0 
z
" transform="scale(0.015625)"/>
       <path id="Ubuntu-Italic-440" d="M 2426 3411 
Q 2739 3411 2966 3321 
Q 3194 3232 3341 3075 
Q 3488 2918 3561 2704 
Q 3635 2490 3635 2234 
Q 3635 1792 3500 1379 
Q 3366 966 3088 646 
Q 2810 326 2384 134 
Q 1958 -58 1376 -58 
Q 1306 -58 1222 -51 
Q 1139 -45 1075 -32 
L 800 -1184 
L 205 -1184 
L 1254 3187 
Q 1523 3296 1840 3353 
Q 2157 3411 2426 3411 
z
M 1197 467 
Q 1261 454 1334 451 
Q 1408 448 1478 448 
Q 1843 448 2131 589 
Q 2419 730 2620 970 
Q 2822 1210 2931 1520 
Q 3040 1830 3040 2170 
Q 3040 2310 3008 2444 
Q 2976 2579 2889 2681 
Q 2803 2784 2656 2845 
Q 2509 2906 2278 2906 
Q 2118 2906 1984 2877 
Q 1850 2848 1760 2822 
L 1197 467 
z
" transform="scale(0.015625)"/>
       <path id="Ubuntu-Italic-435" d="M 1306 1747 
Q 1677 1760 1984 1795 
Q 2291 1830 2515 1916 
Q 2739 2003 2864 2150 
Q 2989 2298 2989 2534 
Q 2989 2592 2966 2656 
Q 2944 2720 2889 2774 
Q 2835 2829 2739 2864 
Q 2643 2899 2502 2899 
Q 2278 2899 2083 2803 
Q 1888 2707 1734 2550 
Q 1581 2394 1472 2186 
Q 1363 1978 1306 1747 
z
M 1914 -83 
Q 1587 -83 1350 9 
Q 1114 102 954 265 
Q 794 429 717 646 
Q 640 864 640 1107 
Q 640 1555 774 1971 
Q 909 2387 1158 2707 
Q 1408 3027 1766 3216 
Q 2125 3405 2579 3405 
Q 2842 3405 3030 3337 
Q 3219 3270 3337 3155 
Q 3456 3040 3513 2889 
Q 3571 2739 3571 2579 
Q 3571 2278 3462 2070 
Q 3354 1862 3174 1721 
Q 2995 1581 2755 1504 
Q 2515 1427 2256 1382 
Q 1997 1338 1731 1322 
Q 1466 1306 1229 1293 
Q 1222 1242 1222 1210 
Q 1222 1178 1222 1158 
Q 1222 1011 1257 880 
Q 1293 749 1389 649 
Q 1485 550 1654 492 
Q 1824 435 2099 435 
Q 2221 435 2352 457 
Q 2483 480 2601 515 
Q 2720 550 2813 585 
Q 2906 621 2944 653 
L 2995 147 
Q 2867 77 2582 -3 
Q 2298 -83 1914 -83 
z
" transform="scale(0.015625)"/>
       <path id="Ubuntu-Italic-434" d="M 1882 4467 
Q 1658 4467 1530 4432 
Q 1402 4397 1350 4371 
L 1306 4870 
Q 1350 4890 1529 4928 
Q 1709 4966 1978 4966 
Q 2765 4966 3193 4467 
Q 3622 3968 3622 2944 
Q 3622 2726 3600 2416 
Q 3578 2106 3510 1766 
Q 3443 1427 3318 1097 
Q 3194 768 2982 505 
Q 2771 243 2467 80 
Q 2163 -83 1734 -83 
Q 1216 -83 928 224 
Q 640 531 640 1075 
Q 640 1453 733 1846 
Q 826 2240 1037 2560 
Q 1248 2880 1584 3085 
Q 1920 3290 2406 3290 
Q 2566 3290 2736 3248 
Q 2906 3206 3034 3149 
Q 3021 3347 2982 3577 
Q 2944 3808 2825 4006 
Q 2707 4205 2486 4336 
Q 2266 4467 1882 4467 
z
M 1818 429 
Q 2144 429 2371 653 
Q 2598 877 2742 1209 
Q 2886 1542 2953 1926 
Q 3021 2310 3021 2630 
Q 2931 2694 2787 2736 
Q 2643 2778 2394 2778 
Q 2086 2778 1865 2627 
Q 1645 2477 1507 2240 
Q 1370 2003 1302 1712 
Q 1235 1421 1235 1133 
Q 1235 806 1363 617 
Q 1491 429 1818 429 
z
" transform="scale(0.015625)"/>
       <path id="Ubuntu-Italic-438" d="M 1702 -83 
Q 1421 -83 1232 0 
Q 1043 83 924 224 
Q 806 365 755 557 
Q 704 749 704 966 
Q 704 1133 733 1296 
Q 762 1459 800 1626 
L 1210 3328 
L 1805 3328 
L 1427 1754 
Q 1395 1606 1344 1408 
Q 1293 1210 1293 1011 
Q 1293 896 1315 790 
Q 1338 685 1398 605 
Q 1459 525 1561 477 
Q 1664 429 1818 429 
Q 2093 429 2301 547 
Q 2509 666 2650 826 
Q 2656 928 2669 1037 
Q 2682 1146 2714 1274 
L 3206 3328 
L 3802 3328 
L 3296 1222 
Q 3264 1075 3241 937 
Q 3219 800 3219 653 
Q 3219 506 3244 358 
Q 3270 211 3334 38 
L 2810 -38 
Q 2778 32 2746 121 
Q 2714 211 2694 314 
Q 2624 250 2528 179 
Q 2432 109 2307 51 
Q 2182 -6 2032 -44 
Q 1882 -83 1702 -83 
z
" transform="scale(0.015625)"/>
       <path id="Ubuntu-Italic-44f" d="M 243 0 
Q 512 365 793 717 
Q 1075 1069 1363 1402 
Q 1146 1491 1011 1673 
Q 877 1856 877 2144 
Q 877 2470 1017 2707 
Q 1158 2944 1392 3097 
Q 1626 3251 1933 3324 
Q 2240 3398 2573 3398 
Q 2880 3398 3174 3360 
Q 3469 3322 3706 3232 
L 2931 0 
L 2342 0 
L 2650 1293 
L 2253 1293 
Q 2157 1293 2073 1293 
Q 1990 1293 1914 1299 
Q 1670 1005 1408 665 
Q 1146 326 915 0 
L 243 0 
z
M 2758 1734 
L 3034 2886 
Q 2944 2899 2825 2912 
Q 2707 2925 2522 2925 
Q 2298 2925 2106 2883 
Q 1914 2842 1773 2749 
Q 1632 2656 1552 2518 
Q 1472 2381 1472 2189 
Q 1472 1939 1645 1836 
Q 1818 1734 2150 1734 
L 2758 1734 
z
" transform="scale(0.015625)"/>
       <path id="Ubuntu-Italic-442" d="M 4339 3398 
Q 4621 3398 4816 3312 
Q 5011 3226 5129 3078 
Q 5248 2931 5299 2736 
Q 5350 2541 5350 2323 
Q 5350 2182 5328 2019 
Q 5306 1856 5267 1702 
L 4858 0 
L 4262 0 
L 4640 1574 
Q 4672 1722 4713 1904 
Q 4755 2086 4755 2266 
Q 4755 2387 4726 2502 
Q 4698 2618 4630 2701 
Q 4563 2784 4441 2835 
Q 4320 2886 4141 2886 
Q 3936 2886 3744 2806 
Q 3552 2726 3424 2643 
Q 3437 2554 3446 2467 
Q 3456 2381 3456 2298 
Q 3456 2150 3433 2000 
Q 3411 1850 3379 1702 
L 2970 0 
L 2374 0 
L 2752 1574 
Q 2784 1722 2822 1907 
Q 2861 2093 2861 2278 
Q 2861 2400 2835 2512 
Q 2810 2624 2749 2707 
Q 2688 2790 2585 2838 
Q 2483 2886 2323 2886 
Q 2163 2886 2012 2867 
Q 1862 2848 1760 2816 
L 1082 0 
L 486 0 
L 1254 3200 
Q 1542 3290 1884 3344 
Q 2227 3398 2496 3398 
Q 2765 3398 2950 3305 
Q 3136 3213 3245 3059 
Q 3309 3104 3421 3161 
Q 3533 3219 3677 3270 
Q 3821 3322 3990 3360 
Q 4160 3398 4339 3398 
z
" transform="scale(0.015625)"/>
       <path id="Ubuntu-Italic-439" d="M 1702 -83 
Q 1421 -83 1232 0 
Q 1043 83 924 224 
Q 806 365 755 557 
Q 704 749 704 966 
Q 704 1133 733 1296 
Q 762 1459 800 1626 
L 1210 3328 
L 1805 3328 
L 1427 1754 
Q 1395 1606 1344 1408 
Q 1293 1210 1293 1011 
Q 1293 896 1315 790 
Q 1338 685 1398 605 
Q 1459 525 1561 477 
Q 1664 429 1818 429 
Q 2093 429 2301 547 
Q 2509 666 2650 826 
Q 2656 928 2669 1037 
Q 2682 1146 2714 1274 
L 3206 3328 
L 3802 3328 
L 3296 1222 
Q 3264 1075 3241 937 
Q 3219 800 3219 653 
Q 3219 506 3244 358 
Q 3270 211 3334 38 
L 2810 -38 
Q 2778 32 2746 121 
Q 2714 211 2694 314 
Q 2624 250 2528 179 
Q 2432 109 2307 51 
Q 2182 -6 2032 -44 
Q 1882 -83 1702 -83 
z
M 2613 3866 
Q 2229 3866 2011 4058 
Q 1794 4250 1768 4634 
L 2229 4749 
Q 2242 4646 2264 4563 
Q 2286 4480 2334 4419 
Q 2382 4358 2462 4326 
Q 2542 4294 2677 4294 
Q 2888 4294 3045 4425 
Q 3202 4557 3291 4762 
L 3720 4614 
Q 3573 4250 3294 4058 
Q 3016 3866 2613 3866 
z
" transform="scale(0.015625)"/>
       <path id="Ubuntu-Italic-2c" d="M 1267 730 
Q 1235 499 1158 262 
Q 1082 26 970 -201 
Q 858 -429 717 -637 
Q 576 -845 422 -1018 
L 19 -851 
Q 147 -678 252 -473 
Q 358 -269 435 -57 
Q 512 154 563 355 
Q 614 557 634 730 
L 1267 730 
z
" transform="scale(0.015625)"/>
       <path id="Ubuntu-Italic-43e" d="M 1760 -83 
Q 1235 -83 937 227 
Q 640 538 640 1082 
Q 640 1453 745 1862 
Q 851 2272 1081 2617 
Q 1312 2963 1677 3187 
Q 2042 3411 2560 3411 
Q 3085 3411 3382 3100 
Q 3680 2790 3680 2246 
Q 3680 1875 3574 1465 
Q 3469 1056 3238 710 
Q 3008 365 2643 141 
Q 2278 -83 1760 -83 
z
M 1862 422 
Q 2150 422 2377 588 
Q 2605 755 2761 1014 
Q 2918 1274 3001 1587 
Q 3085 1901 3085 2195 
Q 3085 2522 2944 2714 
Q 2803 2906 2458 2906 
Q 2170 2906 1942 2739 
Q 1715 2573 1558 2313 
Q 1402 2054 1318 1740 
Q 1235 1427 1235 1133 
Q 1235 806 1376 614 
Q 1517 422 1862 422 
z
" transform="scale(0.015625)"/>
       <path id="Ubuntu-Italic-441" d="M 640 1190 
Q 640 1626 771 2029 
Q 902 2432 1158 2739 
Q 1414 3046 1785 3228 
Q 2157 3411 2637 3411 
Q 2848 3411 3040 3382 
Q 3232 3354 3405 3270 
L 3181 2771 
Q 3078 2829 2940 2861 
Q 2803 2893 2586 2893 
Q 2272 2893 2022 2755 
Q 1773 2618 1597 2390 
Q 1421 2163 1328 1865 
Q 1235 1568 1235 1248 
Q 1235 1082 1270 934 
Q 1306 787 1395 675 
Q 1485 563 1635 499 
Q 1786 435 2016 435 
Q 2131 435 2259 457 
Q 2387 480 2496 512 
Q 2605 544 2691 579 
Q 2778 614 2816 646 
L 2867 141 
Q 2746 64 2490 -9 
Q 2234 -83 1907 -83 
Q 1600 -83 1363 9 
Q 1126 102 966 272 
Q 806 442 723 675 
Q 640 909 640 1190 
z
" transform="scale(0.015625)"/>
       <path id="Ubuntu-Italic-443" d="M 1798 538 
Q 2042 922 2240 1334 
Q 2438 1747 2588 2124 
Q 2739 2502 2841 2819 
Q 2944 3136 2989 3328 
L 3610 3328 
Q 3539 3085 3411 2723 
Q 3283 2362 3100 1942 
Q 2918 1523 2691 1084 
Q 2464 646 2195 243 
Q 1990 -58 1785 -323 
Q 1581 -589 1347 -784 
Q 1114 -979 832 -1091 
Q 550 -1203 198 -1203 
Q 19 -1203 -134 -1158 
Q -288 -1114 -358 -1062 
L -154 -576 
Q -90 -627 19 -662 
Q 128 -698 262 -698 
Q 634 -698 893 -518 
Q 1152 -339 1382 -45 
Q 1146 730 995 1587 
Q 845 2445 813 3328 
L 1421 3328 
Q 1427 3040 1452 2697 
Q 1478 2355 1526 1987 
Q 1574 1619 1641 1248 
Q 1709 877 1798 538 
z
" transform="scale(0.015625)"/>
       <path id="Ubuntu-Italic-449" d="M 4576 307 
Q 4531 262 4441 195 
Q 4352 128 4224 67 
Q 4096 6 3923 -38 
Q 3750 -83 3539 -83 
Q 3283 -83 3104 6 
Q 2925 96 2810 250 
Q 2739 205 2630 147 
Q 2522 90 2381 38 
Q 2240 -13 2073 -48 
Q 1907 -83 1728 -83 
Q 1248 -83 985 201 
Q 723 486 723 1005 
Q 723 1306 800 1613 
L 1216 3328 
L 1811 3328 
L 1427 1741 
Q 1395 1594 1356 1411 
Q 1318 1229 1318 1056 
Q 1318 928 1347 816 
Q 1376 704 1443 617 
Q 1510 531 1628 480 
Q 1747 429 1926 429 
Q 2125 429 2317 505 
Q 2509 582 2637 666 
Q 2611 774 2611 954 
Q 2611 1114 2627 1283 
Q 2643 1453 2688 1626 
L 3098 3328 
L 3693 3328 
L 3315 1754 
Q 3283 1613 3244 1417 
Q 3206 1222 3206 1024 
Q 3206 915 3232 806 
Q 3258 698 3312 614 
Q 3366 531 3456 480 
Q 3546 429 3680 429 
Q 3942 429 4131 547 
Q 4320 666 4429 774 
Q 4442 1050 4493 1274 
L 4986 3328 
L 5581 3328 
L 5069 1216 
Q 5043 1107 5027 1017 
Q 5011 928 5011 838 
Q 5011 762 5027 691 
Q 5043 621 5100 563 
Q 5158 506 5264 467 
Q 5370 429 5542 410 
L 5203 -928 
L 4646 -928 
L 4896 58 
Q 4787 90 4704 163 
Q 4621 237 4576 307 
z
" transform="scale(0.015625)"/>
       <path id="Ubuntu-Italic-432" d="M 3539 2605 
Q 3533 2246 3366 2048 
Q 3200 1850 2925 1741 
Q 3142 1670 3273 1500 
Q 3405 1331 3405 1107 
Q 3405 749 3261 521 
Q 3117 294 2883 163 
Q 2650 32 2346 -19 
Q 2042 -70 1728 -70 
Q 1395 -70 1056 -32 
Q 717 6 480 96 
L 966 2157 
Q 1056 2528 1209 2771 
Q 1363 3014 1571 3155 
Q 1779 3296 2025 3353 
Q 2272 3411 2554 3411 
Q 2803 3411 2988 3347 
Q 3174 3283 3296 3174 
Q 3418 3066 3478 2918 
Q 3539 2771 3539 2605 
z
M 1402 1523 
L 1152 442 
Q 1242 429 1398 416 
Q 1555 403 1779 403 
Q 1984 403 2173 435 
Q 2362 467 2506 540 
Q 2650 614 2736 742 
Q 2822 870 2822 1062 
Q 2822 1306 2656 1414 
Q 2490 1523 2138 1523 
L 1402 1523 
z
M 1510 1958 
L 2003 1958 
Q 2208 1958 2384 1987 
Q 2560 2016 2688 2083 
Q 2816 2150 2889 2265 
Q 2963 2381 2963 2560 
Q 2963 2726 2844 2832 
Q 2726 2938 2477 2938 
Q 2323 2938 2176 2902 
Q 2029 2867 1901 2768 
Q 1773 2669 1673 2489 
Q 1574 2310 1523 2022 
L 1510 1958 
z
" transform="scale(0.015625)"/>
       <path id="Ubuntu-Italic-43b" d="M 186 435 
Q 358 448 489 499 
Q 621 550 717 627 
Q 813 704 883 800 
Q 954 896 1005 992 
Q 1139 1248 1241 1539 
Q 1344 1830 1424 2134 
Q 1504 2438 1568 2742 
Q 1632 3046 1690 3328 
L 3885 3328 
L 3085 0 
L 2490 0 
L 3168 2829 
L 2163 2829 
Q 2112 2618 2051 2378 
Q 1990 2138 1920 1898 
Q 1850 1658 1773 1424 
Q 1696 1190 1606 986 
Q 1498 736 1370 550 
Q 1242 365 1072 233 
Q 902 102 688 32 
Q 474 -38 192 -58 
L 186 435 
z
" transform="scale(0.015625)"/>
       <path id="Ubuntu-Italic-44e" d="M 1542 1952 
L 2246 1952 
Q 2330 2240 2480 2502 
Q 2630 2765 2844 2966 
Q 3059 3168 3347 3289 
Q 3635 3411 3994 3411 
Q 4493 3411 4781 3104 
Q 5069 2797 5069 2253 
Q 5069 1882 4963 1472 
Q 4858 1062 4630 716 
Q 4403 371 4044 144 
Q 3686 -83 3181 -83 
Q 2682 -83 2397 224 
Q 2112 531 2112 1075 
Q 2112 1171 2118 1270 
Q 2125 1370 2138 1472 
L 1427 1472 
L 1075 0 
L 486 0 
L 1286 3328 
L 1875 3328 
L 1542 1952 
z
M 3296 429 
Q 3571 429 3792 595 
Q 4013 762 4163 1021 
Q 4314 1280 4394 1590 
Q 4474 1901 4474 2195 
Q 4474 2522 4339 2710 
Q 4205 2899 3878 2899 
Q 3597 2899 3379 2732 
Q 3162 2566 3011 2307 
Q 2861 2048 2781 1737 
Q 2701 1427 2701 1133 
Q 2701 806 2835 617 
Q 2970 429 3296 429 
z
" transform="scale(0.015625)"/>
       <path id="Ubuntu-Italic-445" d="M 2022 2131 
Q 2291 2458 2518 2758 
Q 2746 3059 2912 3328 
L 3558 3328 
Q 3283 2925 2953 2512 
Q 2624 2099 2278 1696 
Q 2483 1293 2688 861 
Q 2893 429 3040 0 
L 2419 0 
Q 2323 288 2172 621 
Q 2022 954 1875 1261 
L 768 0 
L 77 0 
L 1613 1715 
L 787 3328 
L 1446 3328 
L 2022 2131 
z
" transform="scale(0.015625)"/>
       <path id="Ubuntu-Italic-437" d="M 1965 3411 
Q 2445 3411 2736 3209 
Q 3027 3008 3027 2566 
Q 3027 2310 2860 2086 
Q 2694 1862 2349 1747 
Q 2803 1562 2803 1101 
Q 2803 787 2668 563 
Q 2534 339 2313 198 
Q 2093 58 1808 -9 
Q 1523 -77 1216 -77 
Q 890 -77 646 -29 
Q 403 19 269 90 
L 448 589 
Q 550 538 736 486 
Q 922 435 1286 435 
Q 1427 435 1590 464 
Q 1754 493 1894 566 
Q 2035 640 2124 765 
Q 2214 890 2214 1082 
Q 2214 1216 2147 1299 
Q 2080 1382 1981 1424 
Q 1882 1466 1760 1482 
Q 1638 1498 1530 1498 
L 1152 1498 
L 1267 1971 
L 1651 1971 
Q 1773 1971 1913 1996 
Q 2054 2022 2169 2086 
Q 2285 2150 2361 2259 
Q 2438 2368 2438 2541 
Q 2438 2765 2284 2841 
Q 2131 2918 1862 2918 
Q 1734 2918 1603 2899 
Q 1472 2880 1357 2851 
Q 1242 2822 1152 2790 
Q 1062 2758 1024 2733 
L 986 3245 
Q 1075 3283 1328 3347 
Q 1581 3411 1965 3411 
z
" transform="scale(0.015625)"/>
      </defs>
      <use xlink:href="#Ubuntu-Italic-41d"/>
      <use xlink:href="#Ubuntu-Italic-414" x="68.099991"/>
      <use xlink:href="#Ubuntu-Italic-421" x="136.949982"/>
      <use xlink:href="#Ubuntu-Italic-20" x="196.949966"/>
      <use xlink:href="#Ubuntu-Italic-43f" x="220.049957"/>
      <use xlink:href="#Ubuntu-Italic-440" x="275.149948"/>
      <use xlink:href="#Ubuntu-Italic-435" x="329.749939"/>
      <use xlink:href="#Ubuntu-Italic-434" x="381.549927"/>
      <use xlink:href="#Ubuntu-Italic-43f" x="435.749924"/>
      <use xlink:href="#Ubuntu-Italic-440" x="490.849915"/>
      <use xlink:href="#Ubuntu-Italic-438" x="545.449905"/>
      <use xlink:href="#Ubuntu-Italic-44f" x="600.44989"/>
      <use xlink:href="#Ubuntu-Italic-442" x="654.149887"/>
      <use xlink:href="#Ubuntu-Italic-438" x="736.949875"/>
      <use xlink:href="#Ubuntu-Italic-439" x="791.94986"/>
      <use xlink:href="#Ubuntu-Italic-2c" x="846.949844"/>
      <use xlink:href="#Ubuntu-Italic-20" x="871.549835"/>
      <use xlink:href="#Ubuntu-Italic-43e" x="894.649826"/>
      <use xlink:href="#Ubuntu-Italic-441" x="950.149811"/>
      <use xlink:href="#Ubuntu-Italic-443" x="996.499802"/>
      <use xlink:href="#Ubuntu-Italic-449" x="1044.299789"/>
      <use xlink:href="#Ubuntu-Italic-435" x="1130.799774"/>
      <use xlink:href="#Ubuntu-Italic-441" x="1182.599762"/>
      <use xlink:href="#Ubuntu-Italic-442" x="1227.699753"/>
      <use xlink:href="#Ubuntu-Italic-432" x="1310.499741"/>
      <use xlink:href="#Ubuntu-Italic-43b" x="1364.399734"/>
      <use xlink:href="#Ubuntu-Italic-44f" x="1420.599731"/>
      <use xlink:href="#Ubuntu-Italic-44e" x="1474.299728"/>
      <use xlink:href="#Ubuntu-Italic-449" x="1551.49971"/>
      <use xlink:href="#Ubuntu-Italic-438" x="1637.999695"/>
      <use xlink:href="#Ubuntu-Italic-445" x="1694.24968"/>
      <use xlink:href="#Ubuntu-Italic-20" x="1741.549667"/>
      <use xlink:href="#Ubuntu-Italic-43f" x="1764.649658"/>
      <use xlink:href="#Ubuntu-Italic-440" x="1819.749649"/>
      <use xlink:href="#Ubuntu-Italic-43e" x="1874.34964"/>
      <use xlink:href="#Ubuntu-Italic-438" x="1929.849625"/>
      <use xlink:href="#Ubuntu-Italic-437" x="1984.849609"/>
      <use xlink:href="#Ubuntu-Italic-432" x="2029.349594"/>
      <use xlink:href="#Ubuntu-Italic-43e" x="2083.249588"/>
      <use xlink:href="#Ubuntu-Italic-434" x="2138.749573"/>
      <use xlink:href="#Ubuntu-Italic-441" x="2192.94957"/>
      <use xlink:href="#Ubuntu-Italic-442" x="2238.049561"/>
      <use xlink:href="#Ubuntu-Italic-432" x="2320.849548"/>
      <use xlink:href="#Ubuntu-Italic-43e" x="2374.749542"/>
     </g>
    </g>
    <g id="patch_14">
     <path d="M 279.471719 96.693125 
L 297.471719 96.693125 
L 297.471719 90.393125 
L 279.471719 90.393125 
z
" style="fill: #af5a51; stroke: #fefefe; stroke-linejoin: miter"/>
    </g>
    <g id="text_13">
     <!-- НДС организациий розничной торговли -->
     <g style="fill: #4b4b4b" transform="translate(304.671719 96.693125) scale(0.09 -0.09)">
      <defs>
       <path id="Ubuntu-Italic-433" d="M 1632 1907 
Q 1805 1965 1955 2022 
Q 2106 2080 2218 2150 
Q 2330 2221 2390 2320 
Q 2451 2419 2451 2554 
Q 2451 2656 2409 2726 
Q 2368 2797 2297 2841 
Q 2227 2886 2140 2902 
Q 2054 2918 1958 2918 
Q 1664 2918 1440 2838 
Q 1216 2758 1126 2714 
L 1094 3213 
Q 1210 3277 1472 3344 
Q 1734 3411 2042 3411 
Q 2490 3411 2758 3206 
Q 3027 3002 3027 2618 
Q 3027 2330 2915 2134 
Q 2803 1939 2627 1808 
Q 2451 1677 2227 1590 
Q 2003 1504 1779 1427 
Q 1651 1382 1523 1331 
Q 1395 1280 1289 1209 
Q 1184 1139 1117 1036 
Q 1050 934 1050 787 
Q 1050 582 1206 499 
Q 1363 416 1658 416 
Q 1824 416 1974 441 
Q 2125 467 2246 505 
Q 2368 544 2454 579 
Q 2541 614 2579 634 
L 2611 115 
Q 2566 90 2467 58 
Q 2368 26 2233 -6 
Q 2099 -38 1939 -60 
Q 1779 -83 1606 -83 
Q 1050 -83 758 118 
Q 467 320 467 723 
Q 467 998 569 1190 
Q 672 1382 835 1520 
Q 998 1658 1206 1747 
Q 1414 1837 1632 1907 
z
" transform="scale(0.015625)"/>
       <path id="Ubuntu-Italic-430" d="M 2765 -38 
Q 2733 32 2701 118 
Q 2669 205 2650 301 
Q 2509 173 2272 45 
Q 2035 -83 1690 -83 
Q 1408 -83 1206 6 
Q 1005 96 877 256 
Q 749 416 688 633 
Q 627 851 627 1114 
Q 627 1542 771 1952 
Q 915 2362 1203 2682 
Q 1491 3002 1926 3200 
Q 2362 3398 2944 3398 
Q 3117 3398 3347 3360 
Q 3578 3322 3744 3232 
L 3251 1222 
Q 3219 1075 3196 940 
Q 3174 806 3174 659 
Q 3174 512 3200 361 
Q 3226 211 3290 38 
L 2765 -38 
z
M 1811 422 
Q 2080 422 2272 537 
Q 2464 653 2605 806 
Q 2611 915 2627 1033 
Q 2643 1152 2669 1274 
L 3053 2861 
Q 3021 2874 2947 2880 
Q 2874 2886 2816 2886 
Q 2451 2886 2156 2745 
Q 1862 2605 1654 2371 
Q 1446 2138 1334 1827 
Q 1222 1517 1222 1178 
Q 1222 1043 1248 905 
Q 1274 768 1341 662 
Q 1408 557 1520 489 
Q 1632 422 1811 422 
z
" transform="scale(0.015625)"/>
       <path id="Ubuntu-Italic-43d" d="M 3117 0 
L 2522 0 
L 2874 1472 
L 1434 1472 
L 1082 0 
L 486 0 
L 1286 3328 
L 1882 3328 
L 1555 1971 
L 2995 1971 
L 3322 3328 
L 3917 3328 
L 3117 0 
z
" transform="scale(0.015625)"/>
       <path id="Ubuntu-Italic-446" d="M 3424 -928 
L 2867 -928 
L 3117 58 
Q 3008 90 2925 163 
Q 2842 237 2790 326 
Q 2733 269 2633 198 
Q 2534 128 2400 64 
Q 2266 0 2090 -41 
Q 1914 -83 1702 -83 
Q 1421 -83 1232 0 
Q 1043 83 924 224 
Q 806 365 755 557 
Q 704 749 704 966 
Q 704 1133 733 1296 
Q 762 1459 800 1626 
L 1210 3328 
L 1805 3328 
L 1427 1754 
Q 1395 1606 1344 1408 
Q 1293 1210 1293 1011 
Q 1293 896 1315 790 
Q 1338 685 1398 605 
Q 1459 525 1561 477 
Q 1664 429 1818 429 
Q 2093 429 2301 534 
Q 2509 640 2650 800 
Q 2662 1050 2714 1274 
L 3206 3328 
L 3802 3328 
L 3290 1216 
Q 3264 1107 3248 1017 
Q 3232 928 3232 838 
Q 3232 762 3248 691 
Q 3264 621 3321 563 
Q 3379 506 3484 467 
Q 3590 429 3763 410 
L 3424 -928 
z
" transform="scale(0.015625)"/>
       <path id="Ubuntu-Italic-447" d="M 1587 3328 
L 1350 2381 
Q 1331 2304 1318 2221 
Q 1306 2138 1306 2080 
Q 1306 1862 1434 1760 
Q 1562 1658 1869 1658 
Q 2112 1658 2294 1706 
Q 2477 1754 2586 1792 
L 2957 3328 
L 3552 3328 
L 2752 0 
L 2157 0 
L 2470 1306 
Q 2381 1267 2173 1222 
Q 1965 1178 1760 1178 
Q 1235 1178 969 1382 
Q 704 1587 704 1978 
Q 704 2061 717 2169 
Q 730 2278 755 2374 
L 992 3328 
L 1587 3328 
z
" transform="scale(0.015625)"/>
      </defs>
      <use xlink:href="#Ubuntu-Italic-41d"/>
      <use xlink:href="#Ubuntu-Italic-414" x="68.099991"/>
      <use xlink:href="#Ubuntu-Italic-421" x="136.949982"/>
      <use xlink:href="#Ubuntu-Italic-20" x="196.949966"/>
      <use xlink:href="#Ubuntu-Italic-43e" x="220.049957"/>
      <use xlink:href="#Ubuntu-Italic-440" x="275.549942"/>
      <use xlink:href="#Ubuntu-Italic-433" x="330.149933"/>
      <use xlink:href="#Ubuntu-Italic-430" x="373.649918"/>
      <use xlink:href="#Ubuntu-Italic-43d" x="428.049911"/>
      <use xlink:href="#Ubuntu-Italic-438" x="484.749908"/>
      <use xlink:href="#Ubuntu-Italic-437" x="539.749893"/>
      <use xlink:href="#Ubuntu-Italic-430" x="584.249878"/>
      <use xlink:href="#Ubuntu-Italic-446" x="638.649872"/>
      <use xlink:href="#Ubuntu-Italic-438" x="697.349869"/>
      <use xlink:href="#Ubuntu-Italic-438" x="752.349854"/>
      <use xlink:href="#Ubuntu-Italic-439" x="807.349838"/>
      <use xlink:href="#Ubuntu-Italic-20" x="862.349823"/>
      <use xlink:href="#Ubuntu-Italic-440" x="885.449814"/>
      <use xlink:href="#Ubuntu-Italic-43e" x="940.049805"/>
      <use xlink:href="#Ubuntu-Italic-437" x="994.549789"/>
      <use xlink:href="#Ubuntu-Italic-43d" x="1039.049774"/>
      <use xlink:href="#Ubuntu-Italic-438" x="1095.749771"/>
      <use xlink:href="#Ubuntu-Italic-447" x="1150.749756"/>
      <use xlink:href="#Ubuntu-Italic-43d" x="1201.749741"/>
      <use xlink:href="#Ubuntu-Italic-43e" x="1258.449738"/>
      <use xlink:href="#Ubuntu-Italic-439" x="1313.949722"/>
      <use xlink:href="#Ubuntu-Italic-20" x="1368.949707"/>
      <use xlink:href="#Ubuntu-Italic-442" x="1392.049698"/>
      <use xlink:href="#Ubuntu-Italic-43e" x="1474.849686"/>
      <use xlink:href="#Ubuntu-Italic-440" x="1530.34967"/>
      <use xlink:href="#Ubuntu-Italic-433" x="1584.949661"/>
      <use xlink:href="#Ubuntu-Italic-43e" x="1628.449646"/>
      <use xlink:href="#Ubuntu-Italic-432" x="1683.949631"/>
      <use xlink:href="#Ubuntu-Italic-43b" x="1737.849625"/>
      <use xlink:href="#Ubuntu-Italic-438" x="1794.049622"/>
     </g>
    </g>
   </g>
  </g>
 </g>
 <defs>
  <clipPath id="p781bcb4b89">
   <rect x="9.45625" y="40.029687" width="613.8" height="27.72"/>
  </clipPath>
 </defs>
</svg>
